<?xml version="1.0" encoding="UTF-8"?><svg id="_图层_1" xmlns="http://www.w3.org/2000/svg" viewBox="0 0 36.3 31.2"><defs><style>.cls-1{fill:#3f3f3f;}.cls-1,.cls-2,.cls-3,.cls-4{stroke-width:0px;}.cls-2{fill:#1490ed;}.cls-3{fill:#fb2;}.cls-4{fill:#fff;}</style></defs><circle class="cls-2" cx="11.96" cy="19.24" r="11.96"/><path class="cls-4" d="M14.06,22.24c.25,0,.46.09.63.26.17.17.26.38.26.62s-.09.46-.26.63c-.17.17-.38.26-.63.26h-4.14c-.24,0-.44-.09-.62-.26-.17-.17-.26-.39-.26-.63s.09-.44.26-.62c.17-.17.38-.26.62-.26h1.2v-6.81l-.63.28c-.23.1-.45.11-.68.02-.23-.09-.39-.24-.49-.47-.09-.23-.1-.45,0-.68.09-.23.24-.39.45-.49l1.88-.83c.13-.05.27-.07.42-.06.15.01.29.06.41.14.27.16.4.41.4.74v8.16h1.19Z"/><path class="cls-3" d="M24.51,1.44l-6.4,11.09c-1.11,1.92.28,4.32,2.5,4.32h12.8c2.22,0,3.61-2.4,2.5-4.32L29.5,1.44c-1.11-1.92-3.88-1.92-4.99,0Z"/><path class="cls-1" d="M27,12.5c.14,0,.27.03.39.08.12.05.23.13.32.22.09.09.16.2.22.32.05.12.08.25.08.39s-.03.27-.08.39c-.05.12-.13.23-.22.32s-.2.16-.32.21c-.12.05-.25.08-.39.08s-.27-.03-.39-.08c-.12-.05-.23-.12-.32-.21-.09-.09-.16-.2-.21-.32-.05-.12-.08-.25-.08-.39s.03-.27.08-.39c.05-.12.12-.23.21-.32s.2-.16.32-.22c.12-.05.25-.08.39-.08ZM27,10.99c-.24,0-.44-.09-.62-.26s-.26-.38-.26-.62v-5.6c0-.25.09-.45.26-.62.17-.17.38-.25.62-.25s.46.08.63.25c.17.17.26.38.26.62v5.6c0,.24-.09.44-.26.62s-.38.26-.63.26Z"/></svg>