<?xml version="1.0" encoding="UTF-8"?><svg id="_图层_1" xmlns="http://www.w3.org/2000/svg" viewBox="0 0 23.92 23.92"><defs><style>.cls-1{fill:#1490ed;}.cls-1,.cls-2{stroke-width:0px;}.cls-2{fill:#fff;}</style></defs><circle class="cls-1" cx="11.96" cy="11.96" r="11.96"/><path class="cls-2" d="M14.06,14.95c.25,0,.46.09.63.26.17.17.26.38.26.62s-.09.46-.26.63c-.17.17-.38.26-.63.26h-4.14c-.24,0-.44-.09-.62-.26-.17-.17-.26-.39-.26-.63s.09-.44.26-.62c.17-.17.38-.26.62-.26h1.2v-6.81l-.63.28c-.23.1-.45.11-.68.02-.23-.09-.39-.24-.49-.47-.09-.23-.1-.45,0-.68.09-.23.24-.39.45-.49l1.88-.83c.13-.05.27-.07.42-.06.15.01.29.06.41.14.27.16.4.41.4.74v8.16h1.19Z"/></svg>