<?xml version="1.0" encoding="UTF-8"?><svg id="_图层_1" xmlns="http://www.w3.org/2000/svg" viewBox="0 0 36.3 31.2"><circle cx="11.96" cy="19.24" r="11.96" style="fill:#1490ed; stroke-width:0px;"/><text transform="translate(8.58 24.07)" style="fill:#fff; font-family:Boldena-Bold, Boldena; font-size:15.4px; font-weight:700;"><tspan x="0" y="0">1</tspan></text><path d="M24.51,1.44l-6.4,11.09c-1.11,1.92.28,4.32,2.5,4.32h12.8c2.22,0,3.61-2.4,2.5-4.32L29.5,1.44c-1.11-1.92-3.88-1.92-4.99,0Z" style="fill:#fb2; stroke-width:0px;"/><path d="M27,12.5c.14,0,.27.03.39.08.12.05.23.13.32.22.09.09.16.2.22.32.05.12.08.25.08.39s-.03.27-.08.39c-.05.12-.13.23-.22.32s-.2.16-.32.21c-.12.05-.25.08-.39.08s-.27-.03-.39-.08c-.12-.05-.23-.12-.32-.21-.09-.09-.16-.2-.21-.32-.05-.12-.08-.25-.08-.39s.03-.27.08-.39c.05-.12.12-.23.21-.32s.2-.16.32-.22c.12-.05.25-.08.39-.08ZM27,10.99c-.24,0-.44-.09-.62-.26s-.26-.38-.26-.62v-5.6c0-.25.09-.45.26-.62.17-.17.38-.25.62-.25s.46.08.63.25c.17.17.26.38.26.62v5.6c0,.24-.09.44-.26.62s-.38.26-.63.26Z" style="fill:#3f3f3f; stroke-width:0px;"/></svg>