<?xml version="1.0" encoding="UTF-8"?><svg id="_图层_1" xmlns="http://www.w3.org/2000/svg" viewBox="0 0 23.92 23.92"><defs><style>.cls-1{fill:#1490ed;}.cls-1,.cls-2{stroke-width:0px;}.cls-2{fill:#fff;}</style></defs><circle class="cls-1" cx="11.96" cy="11.96" r="11.96"/><path class="cls-2" d="M14.91,14.95c.25,0,.46.09.63.26s.26.38.26.62-.09.46-.26.63-.38.26-.63.26h-5.9c-.18,0-.35-.05-.5-.15s-.25-.24-.32-.42c-.07-.17-.09-.35-.05-.52s.13-.32.26-.45c.52-.48,1.05-.98,1.59-1.48.45-.43.94-.89,1.46-1.39.52-.49,1.01-.96,1.46-1.4.35-.33.58-.69.69-1.08.11-.39.11-.75,0-1.09-.1-.32-.29-.58-.58-.78s-.64-.3-1.07-.3c-.46,0-.83.09-1.11.27-.28.18-.49.38-.63.59-.17.26-.29.54-.35.86-.03.24-.14.43-.34.58-.2.15-.42.21-.66.18-.24-.03-.43-.14-.58-.34-.15-.19-.2-.42-.16-.66.11-.61.33-1.14.65-1.62.13-.21.29-.41.49-.6.19-.19.41-.37.67-.52.26-.15.55-.27.89-.36s.72-.14,1.14-.14.84.06,1.2.18.68.28.96.48c.28.21.52.45.72.72.19.28.34.58.45.91.1.31.16.63.17.97,0,.34-.03.68-.12,1.02-.09.34-.24.69-.43,1.02s-.45.66-.75.95c-.45.44-.93.91-1.45,1.39-.51.49-1,.95-1.46,1.38h3.67Z"/></svg>