<?xml version="1.0" encoding="UTF-8"?><svg id="_图层_1" xmlns="http://www.w3.org/2000/svg" viewBox="0 0 23.92 23.92"><defs><style>.cls-1{fill:#1490ed;}.cls-1,.cls-2{stroke-width:0px;}.cls-2{fill:#fff;}</style></defs><circle class="cls-1" cx="11.96" cy="11.96" r="11.96"/><path class="cls-2" d="M14.6,11.15c.42.32.73.69.93,1.12.2.43.3.86.3,1.3,0,.38-.08.76-.23,1.15s-.4.73-.72,1.04c-.33.31-.75.56-1.25.75-.51.19-1.11.29-1.81.29-.78,0-1.49-.17-2.12-.5-.63-.33-1.12-.78-1.47-1.35-.13-.21-.17-.43-.12-.66.06-.24.19-.42.39-.54.21-.13.43-.17.66-.12.24.06.42.19.55.39.21.33.49.58.86.75s.78.26,1.23.26c.74,0,1.3-.14,1.69-.43.39-.29.58-.63.58-1.02s-.19-.74-.55-1.03c-.37-.29-.89-.43-1.57-.43h-.05c-.25,0-.45-.08-.62-.25s-.26-.38-.27-.62c0-.24.09-.44.26-.62s.38-.26.62-.26c.49-.01.88-.1,1.17-.27.29-.17.47-.39.55-.67.06-.21.06-.41,0-.62-.06-.21-.17-.4-.32-.57s-.36-.31-.62-.41c-.25-.1-.54-.15-.87-.15-.45,0-.83.1-1.12.29-.3.19-.54.46-.74.79-.12.21-.3.34-.54.41-.24.07-.46.04-.68-.08-.21-.12-.34-.3-.4-.54s-.03-.46.09-.68c.36-.61.81-1.08,1.35-1.42s1.22-.52,2.04-.52c.57,0,1.08.09,1.52.27.44.18.81.41,1.11.7.3.29.53.61.69.98.16.36.26.73.28,1.1.02.39-.04.78-.17,1.16-.13.38-.35.73-.65,1.02Z"/></svg>