<?xml version="1.0" encoding="UTF-8"?><svg id="_图层_1" xmlns="http://www.w3.org/2000/svg" viewBox="0 0 23.92 23.92"><defs><style>.cls-1{fill:#ff8a25;}.cls-1,.cls-2{stroke-width:0px;}.cls-2{fill:#fff;}</style></defs><circle class="cls-1" cx="11.96" cy="11.96" r="11.96"/><path class="cls-2" d="M15.42,12.95c.24,0,.44.09.62.26.17.17.26.38.26.62s-.09.45-.26.62c-.17.17-.38.25-.62.25h-.57v1.2c0,.24-.09.44-.26.62s-.38.26-.62.26-.45-.09-.62-.26c-.17-.17-.25-.38-.25-.62v-1.2h-4.73c-.17,0-.33-.04-.47-.13-.14-.09-.24-.21-.32-.36-.08-.15-.11-.31-.09-.48.02-.16.08-.31.18-.45l5.61-7.05c.11-.14.26-.24.45-.29.18-.05.36-.05.54.02s.32.17.42.32c.11.15.16.32.16.52v6.16h.57ZM13.09,9.32l-2.89,3.63h2.89v-3.63Z"/></svg>