<?xml version="1.0" encoding="UTF-8"?><svg id="_图层_1" xmlns="http://www.w3.org/2000/svg" viewBox="0 0 23.92 23.92"><defs><style>.cls-1{fill:#1490ed;}.cls-1,.cls-2{stroke-width:0px;}.cls-2{fill:#fff;}</style></defs><circle class="cls-1" cx="11.96" cy="11.96" r="11.96"/><path class="cls-2" d="M11.84,9.59c.49,0,.98.08,1.46.23.48.15.9.38,1.28.69.37.3.68.68.92,1.13.24.45.35.97.35,1.56,0,.45-.1.89-.29,1.32-.19.43-.46.81-.81,1.15-.35.33-.77.6-1.26.81-.49.21-1.05.31-1.66.31-.65,0-1.23-.1-1.76-.29-.52-.19-1-.46-1.42-.79-.19-.15-.29-.35-.32-.59-.03-.24.03-.46.18-.65.14-.2.34-.31.58-.33.24-.03.46.04.65.19.28.21.59.39.93.52.34.13.73.19,1.15.19.33,0,.63-.05.91-.15s.52-.23.72-.4c.2-.17.36-.36.47-.58.11-.22.17-.45.17-.7,0-.32-.07-.59-.2-.82s-.31-.42-.52-.58c-.22-.15-.46-.27-.72-.34-.27-.07-.53-.11-.8-.11-.31,0-.6.04-.89.12-.28.08-.53.16-.75.25-.25.11-.48.24-.69.38-.14.1-.3.16-.48.16-.17,0-.33-.04-.48-.13-.14-.08-.26-.2-.34-.35-.08-.15-.11-.32-.09-.49l.49-4.53c.03-.23.13-.41.29-.56.16-.15.36-.22.58-.22h4.88c.25,0,.45.09.62.26.17.17.25.38.25.62s-.08.45-.25.62c-.17.17-.38.25-.62.25h-4.08l-.25,2.19c.27-.09.55-.17.85-.23s.61-.09.94-.09Z"/></svg>