<?xml version="1.0" encoding="UTF-8"?><svg id="_图层_1" xmlns="http://www.w3.org/2000/svg" viewBox="0 0 23.92 23.92"><defs><style>.cls-1{fill:#1490ed;}.cls-1,.cls-2{stroke-width:0px;}.cls-2{fill:#fff;}</style></defs><circle class="cls-1" cx="11.96" cy="11.96" r="11.96"/><path class="cls-2" d="M12.07,9.42c.53,0,1.03.1,1.5.29.47.2.87.46,1.22.79.34.33.62.72.82,1.17.2.45.3.92.3,1.42s-.1.98-.3,1.42c-.2.45-.47.84-.82,1.17-.34.33-.75.6-1.22.79-.47.2-.97.29-1.5.29-.22,0-.46-.02-.73-.06s-.55-.12-.83-.24c-.28-.12-.56-.28-.84-.48-.28-.21-.53-.47-.75-.8-.27-.4-.47-.8-.62-1.21-.14-.41-.25-.79-.32-1.14-.07-.35-.11-.67-.12-.95-.01-.28-.02-.48-.02-.62,0-.76.09-1.47.26-2.12.17-.65.44-1.22.79-1.7s.8-.86,1.34-1.14c.54-.28,1.17-.42,1.89-.42.77,0,1.42.15,1.96.46.54.31.99.72,1.35,1.25.14.21.19.43.15.66-.05.24-.17.42-.38.55-.21.14-.43.19-.66.15s-.43-.17-.57-.38c-.2-.3-.44-.53-.75-.69-.3-.16-.67-.25-1.1-.25-.38,0-.71.06-.99.19s-.52.31-.72.54c-.2.23-.35.5-.48.82-.12.31-.21.65-.26,1.01.33-.25.69-.44,1.09-.59.4-.14.83-.22,1.29-.22ZM12.07,15.03c.29,0,.56-.05.81-.15s.47-.23.66-.41c.19-.17.34-.38.45-.62.11-.24.16-.49.16-.75s-.05-.52-.16-.75c-.11-.23-.26-.43-.45-.61-.19-.17-.41-.31-.66-.41-.25-.1-.52-.15-.81-.15s-.54.05-.79.15c-.25.1-.47.23-.66.41-.19.17-.34.38-.45.61s-.16.48-.16.75.05.52.16.75.26.44.45.62c.19.17.41.31.66.41.25.1.52.15.79.15Z"/></svg>