<?xml version="1.0" encoding="UTF-8"?><svg id="_图层_1" xmlns="http://www.w3.org/2000/svg" viewBox="0 0 23.92 23.92"><defs><style>.cls-1{fill:#1490ed;}.cls-1,.cls-2{stroke-width:0px;}.cls-2{fill:#fff;}</style></defs><circle class="cls-1" cx="11.96" cy="11.96" r="11.96"/><path class="cls-2" d="M15.57,6.38c.16.29.18.57.06.85l-4.14,9.05c-.11.22-.28.37-.51.46-.23.09-.45.08-.66-.02-.23-.1-.38-.27-.47-.49-.09-.23-.07-.45.04-.68l3.57-7.81h-4.53c-.24,0-.44-.08-.62-.25-.17-.17-.26-.38-.26-.62s.09-.44.26-.62c.17-.17.38-.26.62-.26h5.9c.31,0,.55.13.74.4Z"/></svg>