<?xml version="1.0" encoding="UTF-8"?><svg id="_图层_1" xmlns="http://www.w3.org/2000/svg" viewBox="0 0 23.92 23.92"><defs><style>.cls-1{fill:#1490ed;}.cls-1,.cls-2{stroke-width:0px;}.cls-2{fill:#fff;}</style></defs><circle class="cls-1" cx="11.96" cy="11.96" r="11.96"/><path class="cls-2" d="M14.55,11.07c.42.3.75.66.99,1.09.24.43.35.88.35,1.36,0,.43-.1.84-.3,1.24-.2.4-.48.74-.83,1.05-.35.3-.77.54-1.25.72-.48.17-.99.26-1.55.26s-1.07-.09-1.55-.26c-.48-.17-.89-.41-1.25-.72-.35-.3-.63-.65-.83-1.05-.2-.39-.3-.81-.3-1.24,0-.48.12-.94.35-1.36.24-.43.57-.79,1-1.09-.32-.28-.56-.6-.74-.96-.17-.36-.26-.75-.26-1.15s.09-.8.28-1.17c.18-.37.44-.69.75-.97s.7-.5,1.13-.66.91-.25,1.41-.25.97.08,1.41.25c.44.16.81.38,1.13.66.32.28.57.6.75.97s.28.76.28,1.17-.09.78-.26,1.15c-.17.36-.42.69-.72.96ZM11.96,15.03c.29,0,.56-.04.82-.11.26-.07.49-.17.69-.31.2-.13.36-.29.48-.48.12-.18.18-.39.18-.62s-.06-.43-.18-.62c-.12-.18-.28-.34-.48-.47s-.43-.23-.69-.3-.54-.11-.82-.11-.56.04-.82.11c-.26.07-.49.17-.69.3s-.36.28-.48.47c-.12.18-.18.39-.18.62s.06.43.18.62c.12.19.28.34.48.48.2.13.43.24.69.31.26.07.54.11.82.11ZM11.96,7.67c-.24,0-.46.03-.69.09s-.41.15-.58.26c-.16.11-.3.25-.39.41-.1.16-.15.34-.15.53s.05.37.15.53c.1.16.23.29.39.41.16.11.36.2.58.26s.45.09.69.09.46-.03.69-.09.42-.15.59-.26c.17-.11.3-.25.4-.41.1-.16.15-.34.15-.53s-.05-.37-.15-.53c-.1-.16-.23-.29-.4-.41-.17-.11-.37-.2-.59-.26s-.45-.09-.69-.09Z"/></svg>