<?xml version="1.0" encoding="UTF-8"?><svg id="_图层_1" xmlns="http://www.w3.org/2000/svg" viewBox="0 0 23.92 23.92"><defs><style>.cls-1{fill:#1490ed;}.cls-1,.cls-2{stroke-width:0px;}.cls-2{fill:#fff;}</style></defs><circle class="cls-1" cx="11.96" cy="11.96" r="11.96"/><path class="cls-2" d="M14.99,7.5c.27.4.47.8.62,1.21.14.41.25.79.32,1.14.07.35.11.67.12.94.01.27.02.48.02.62,0,.75-.09,1.45-.26,2.11s-.44,1.23-.79,1.71c-.35.48-.79.86-1.32,1.14-.53.28-1.17.42-1.9.42-.77,0-1.43-.15-1.97-.46-.54-.31-1-.73-1.36-1.26-.13-.21-.18-.42-.13-.66.05-.23.17-.42.38-.56.21-.14.42-.19.65-.14s.42.18.56.38c.21.3.46.53.76.69.3.16.67.25,1.1.25.38,0,.71-.06.99-.19.28-.13.52-.31.72-.54.2-.23.36-.5.48-.82.12-.31.2-.65.25-1.02-.33.26-.69.45-1.09.59-.4.14-.83.21-1.29.21-.53,0-1.03-.1-1.49-.29-.46-.19-.87-.46-1.22-.79-.35-.33-.62-.72-.82-1.17-.2-.45-.3-.92-.3-1.42s.1-.98.3-1.42.47-.83.82-1.16.75-.59,1.22-.79c.46-.19.96-.29,1.49-.29.22,0,.46.02.73.06.27.04.55.12.84.24.29.12.57.28.84.49s.52.47.75.8ZM11.83,11.5c.29,0,.56-.05.81-.15s.47-.23.66-.41c.19-.17.34-.38.45-.62.11-.24.16-.49.16-.75s-.05-.52-.16-.75c-.11-.23-.26-.43-.45-.61-.19-.17-.41-.31-.66-.41-.25-.1-.52-.15-.81-.15s-.54.05-.79.15c-.25.1-.47.23-.66.41-.19.17-.34.38-.45.61s-.17.48-.17.75.06.52.17.75.26.44.45.62c.19.17.41.31.66.41.25.1.52.15.79.15Z"/></svg>