<?xml version="1.0" encoding="utf-8"?>
<!-- Generator: Adobe Illustrator 26.3.1, SVG Export Plug-In . SVG Version: 6.00 Build 0)  -->
<svg version="1.1" id="Layer_1" xmlns="http://www.w3.org/2000/svg" xmlns:xlink="http://www.w3.org/1999/xlink" x="0px" y="0px"
	 viewBox="0 0 312 312" style="enable-background:new 0 0 312 312;" xml:space="preserve">
<style type="text/css">
	.st0{fill:#CC9E75;}
</style>
<path class="st0" d="M262.3,0H49.7C22.3,0,0,22.3,0,49.7v212.6C0,289.7,22.3,312,49.7,312h212.6c27.4,0,49.7-22.3,49.7-49.7V49.7
	C312,22.3,289.7,0,262.3,0z M297.3,262.3c0,3-0.4,6-1.1,8.9L238.6,156l57.6-115.2c0.8,2.9,1.1,5.9,1.1,8.9L297.3,262.3L297.3,262.3z
	 M222.1,156l-58.8,117.5v-235L222.1,156z M230.3,172.5l57.1,114.2c-6.6,6.8-15.5,10.6-25.1,10.6h-94.4L230.3,172.5z M167.9,14.7
	h94.4c9.5,0,18.5,3.8,25.1,10.6l-57.1,114.2L167.9,14.7z M14.7,163.4h133.9v133.9H49.7c-19.3,0-35-15.7-35-35
	C14.7,262.3,14.7,163.4,14.7,163.4z M14.7,148.6V49.7c0-19.3,15.7-35,35-35h98.9v133.9L14.7,148.6L14.7,148.6z"/>
</svg>
