<?xml version="1.0" encoding="UTF-8"?><svg id="Layer_1" xmlns="http://www.w3.org/2000/svg" viewBox="0 0 709.2 558.2"><path d="M0,0V412.4H643.9V0H0ZM625.4,387.9H18.4V51.7H625.4V387.9Z" style="fill:#c1c1c1;"/><rect x="32.5" y="38" width="643.9" height="27.4" style="fill:#c49183;"/><circle cx="20" cy="13.6" r="5.1" style="fill:#fff;"/><circle cx="39.3" cy="13.6" r="5.1" style="fill:#fff;"/><circle cx="58.5" cy="13.6" r="5.1" style="fill:#fff;"/><rect x="73.5" y="86.6" width="156" height="266.5" style="fill:#c1c1c1;"/><rect x="256.4" y="86.6" width="130" height="73.3" style="fill:#71cc96;"/><rect x="256.4" y="180.3" width="130" height="78.9" style="fill:#c1c1c1;"/><rect x="256.4" y="279.7" width="130" height="73.3" style="fill:#c1c1c1;"/><rect x="414.3" y="86.6" width="156" height="116.1" style="fill:#c1c1c1;"/><rect x="414.3" y="236.9" width="156" height="116.1" style="fill:#c1c1c1;"/><path d="M510.2,211v-25c0-18.5,15-33.5,33.5-33.5s33.5,15,33.5,33.5h0v25c0,2.5-2,4.5-4.5,4.5h-58c-2.5,0-4.5-2-4.5-4.5Z" style="fill:#2f2e41;"/><polygon points="593.2 536.4 581.4 539.7 563.2 495.6 580.6 490.8 593.2 536.4" style="fill:#ffb8b8;"/><path d="M572,538.6l22.8-6.3h0l4,14.3h0l-37.1,10.3h0c-2.2-7.9,2.4-16.1,10.3-18.3Z" style="fill:#2f2e41;"/><polygon points="470 545.5 457.8 545.5 451.9 498.2 470 498.2 470 545.5" style="fill:#ffb8b8;"/><path d="M449,542h23.7v14.9h-38.5c-.1-8.3,6.6-14.9,14.8-14.9Z" style="fill:#2f2e41;"/><path d="M455.2,281.2c3.3,4.5,9.6,5.4,14.1,2.1,.5-.4,.9-.7,1.3-1.2l32.6,14.7-3-18.3-30.5-11.1c-4.3-3.6-10.7-2.9-14.2,1.4-2.9,3.5-3.1,8.7-.3,12.4h0Z" style="fill:#ffb8b8;"/><path d="M523,391.4c-10.2,0-20.8-1.5-29.7-6.1-9.6-4.8-16.7-13.3-19.7-23.6-4.6-14.7,1.2-29.1,6.9-43.1,3.5-8.7,6.8-16.8,7.7-24.9l.3-2.9c1.3-12.8,2.5-23.9,8.9-28.1,3.3-2.2,7.8-2.3,13.6-.4l55,17.9-2,104.5-.3,.1c-.4,.3-19.8,6.6-40.7,6.6Z" style="fill:#2f2e41;"/><path d="M509.9,229.9s27-8,48-5c0,0-12,66-8,88s-69.5,8.5-54.5-12.5l5-25s-10-10-1-22l10.5-23.5h0Z" style="fill:#d1a674;"/><path d="M496.6,389.5l-33.3-6.2,11.6-89.4c.8-2.5,18.8-59.1,27-62.2,5.9-2.1,12-3.8,18.2-5l1.2-.2-6.7,10-26.6,63.7,8.6,89.3h0Z" style="fill:#2f2e41;"/><path d="M479.3,534.5l-43-7.2,24.1-98.5,35.9-134.7,.4,2.4c0,.2,3.4,17.8,53.2,10l.4-.1,.1,.4,60.2,212.5-49,8.2-44.7-155.1-37.6,162.1h0Z" style="fill:#2f2e41;"/><path d="M538.9,406.2v-.8c0-.8,3-84.4,2-118-1-33.7,9.9-62.9,10-63.2l.1-.2,.2-.1c14.1-4,26.4,8,26.5,8.1l.2,.2-4,33.2,17.2,120.6-52.2,20.2h0Z" style="fill:#2f2e41;"/><circle cx="536.8" cy="190.4" r="24.6" style="fill:#ffb8b8;"/><path d="M502.3,188c0-14.6,11.9-26.5,26.5-26.5h5c14.6,0,26.5,11.9,26.5,26.5v.5h-10.6l-3.6-10.1-.7,10.1h-5.5l-1.8-5.1-.4,5.1h-35.5v-.5h.1Z" style="fill:#2f2e41;"/><path d="M534.4,218.4c-1-1.4-1.1-3.2-.4-4.7,5.3-10.1,12.7-28.7,2.9-40.2l-.7-.8h28.6v42.9l-26,4.6c-.3,0-.5,.1-.8,.1-1.4-.1-2.8-.8-3.6-1.9h0Z" style="fill:#2f2e41;"/><path d="M419.3,41.1C362.3-7,277.1,.2,229,57.2c-48.1,57-40.9,142.2,16.1,190.3,53.3,45,132.1,42,181.8-7l165.6,139.7c5.2,4.4,13.1,3.8,17.5-1.5,4.4-5.2,3.8-13.1-1.5-17.5h0l-165.5-139.7c39.9-57.2,29.6-135.4-23.7-180.4h0Zm-10.7,167c-36,42.7-99.8,48.1-142.5,12.1s-48.1-99.8-12.1-142.5,99.8-48.1,142.5-12.1h0c42.7,36,48.1,99.8,12.1,142.5h0Z" style="fill:#3f3d56;"/><path d="M266.1,220.2c-40.2-34-47.7-93.1-17.2-136-1.9,1.9-3.8,4-5.6,6.1-36,42.7-30.6,106.5,12.1,142.5,42.7,36,106.5,30.6,142.5-12.1,1.8-2.1,3.5-4.3,5.1-6.6-37.1,37.4-96.7,40-136.9,6.1h0Z" style="isolation:isolate; opacity:.3;"/><path d="M544.7,324.1c5.4,1.3,10.8-2,12.2-7.4,.1-.6,.2-1.2,.3-1.8l34.4-9.6-14-12.2-30.6,10.9c-5.6,0-10.1,4.6-10.1,10.1,0,4.9,3.2,9,7.8,10h0Z" style="fill:#ffb8b8;"/><path d="M559,319.1l-2.1-19.9,28.8-15.9-18.8-22.7,3.1-25.5,7.6-3.3,.2,.3c3.6,4.6,35.1,45.3,35.1,50.3s-6,20.3-14.3,24.4c-8,4-37.8,11.7-39.1,12l-.5,.3h0Z" style="fill:#2f2e41;"/><path d="M708.2,558.2H327.2c-.6,0-1-.4-1-1s.4-1,1-1h381c.6,0,1,.4,1,1s-.4,1-1,1Z" style="fill:#ccc;"/></svg>