<?xml version="1.0" encoding="UTF-8"?><svg id="Layer_1" xmlns="http://www.w3.org/2000/svg" viewBox="0 0 911.61 451.39"><path d="M522.71,441.73c-11.75,0-21.28-9.55-21.27-21.3,0-11.74,9.52-21.26,21.27-21.27h316.13c-3.24-5.95-9.47-9.65-16.24-9.65H194.21c-17.07,.02-30.9,13.86-30.9,30.94s13.83,30.91,30.9,30.94H822.61c6.77,0,13-3.71,16.24-9.65h-316.14Z" style="fill:#c1c1c1;"/><path d="M839.26,410.89h-300.57c-.96,0-1.73-.78-1.73-1.74s.78-1.73,1.73-1.73h300.57c.96,0,1.73,.78,1.73,1.74s-.78,1.73-1.73,1.73Z" style="fill:#c1c1c1;"/><path d="M839.26,422.19h-300.57c-.96,0-1.74-.78-1.73-1.74,0-.96,.78-1.73,1.73-1.73h300.57c.96,0,1.74,.78,1.73,1.74,0,.96-.78,1.73-1.73,1.73Z" style="fill:#c1c1c1;"/><path d="M839.26,433.48h-300.57c-.96,0-1.73-.78-1.73-1.74s.78-1.73,1.73-1.73h300.57c.96,0,1.73,.78,1.73,1.74s-.78,1.73-1.73,1.73Z" style="fill:#c1c1c1;"/><path d="M441.05,381.79c-11.75,0-21.28-9.55-21.27-21.3,0-11.74,9.52-21.26,21.27-21.27h316.13c-3.24-5.95-9.47-9.65-16.24-9.65H112.56c-17.07,.02-30.9,13.86-30.9,30.94s13.83,30.91,30.9,30.94H740.95c6.77,0,13-3.71,16.24-9.65H441.05Z" style="fill:#c49183;"/><path d="M757.6,350.95H457.03c-.96,0-1.73-.78-1.73-1.74s.78-1.73,1.73-1.73h300.57c.96,0,1.74,.77,1.74,1.73s-.77,1.74-1.73,1.74h-.01Z" style="fill:#c1c1c1;"/><path d="M757.6,362.25H457.03c-.96,0-1.74-.78-1.73-1.74,0-.96,.78-1.73,1.73-1.73h300.57c.96,0,1.74,.77,1.74,1.73s-.77,1.74-1.73,1.74h-.01Z" style="fill:#c1c1c1;"/><path d="M757.6,373.54H457.03c-.96,0-1.73-.78-1.73-1.74s.78-1.73,1.73-1.73h300.57c.96,0,1.74,.77,1.74,1.73s-.77,1.74-1.73,1.74h-.01Z" style="fill:#c1c1c1;"/><path d="M359.39,319.85c-11.75-.01-21.28-9.55-21.26-21.3,.01-11.74,9.52-21.25,21.26-21.27h316.13c-3.24-5.95-9.47-9.65-16.24-9.65H30.9c-17.07,.02-30.9,13.87-30.9,30.94s13.83,30.91,30.9,30.94H659.29c6.77,0,13-3.71,16.24-9.65H359.39Z" style="fill:#c1c1c1;"/><path d="M675.95,289.01H375.38c-.96,0-1.74-.78-1.74-1.74s.78-1.74,1.74-1.74h300.57c.96,0,1.74,.78,1.74,1.74s-.78,1.74-1.74,1.74Z" style="fill:#c1c1c1;"/><path d="M675.95,300.3H375.38c-.96,0-1.74-.77-1.74-1.73s.77-1.74,1.73-1.74h300.58c.96,0,1.74,.77,1.74,1.73s-.77,1.74-1.73,1.74h-.01Z" style="fill:#c1c1c1;"/><path d="M675.95,311.6H375.38c-.96,0-1.74-.78-1.73-1.74,0-.96,.78-1.73,1.73-1.73h300.57c.96,0,1.74,.77,1.74,1.73s-.77,1.74-1.73,1.74h-.01Z" style="fill:#c1c1c1;"/><path d="M682.89,187.71c-3.42,0-6.25-2.66-6.48-6.08l-.96-14.73c-.23-3.58,2.48-6.68,6.06-6.91l115.39-7.56c7.65-.5,14.26,5.29,14.76,12.94,.5,7.65-5.29,14.26-12.94,14.76l-115.39,7.56c-.15,0-.29,0-.43,0h-.01Z" style="fill:#d1a674;"/><path d="M705.64,189.61c-3.49,0-6.36-2.77-6.49-6.26l-.82-22c-.13-3.59,2.67-6.6,6.25-6.74h0l94.89-3.55c3.59-.13,6.6,2.67,6.74,6.25l.82,22c.13,3.59-2.67,6.6-6.25,6.74h0l-94.89,3.55h-.25Z" style="fill:#2f2e41;"/><path d="M816.83,392.39h-14.76c-3.59,0-6.5-2.91-6.5-6.5v-123.01c0-3.59,2.91-6.5,6.5-6.5h14.76c3.59,0,6.5,2.91,6.5,6.5v123.01c0,3.59-2.91,6.5-6.5,6.5Z" style="fill:#2f2e41;"/><path d="M751.32,327.37l-12.62-7.65c-3.07-1.86-4.05-5.86-2.19-8.93l63.76-105.2c1.86-3.07,5.86-4.05,8.93-2.19l12.62,7.65c3.07,1.86,4.05,5.86,2.19,8.93l-63.76,105.2c-1.86,3.07-5.86,4.05-8.93,2.19Z" style="fill:#2f2e41;"/><circle cx="794.41" cy="77" r="51" style="fill:#d1a674;"/><path d="M766.81,94.41c-1.64-.54-3.15-1.42-4.42-2.59-1.7-1.69-2.57-4.05-2.38-6.44,.11-1.71,1.01-3.26,2.43-4.21,1.82-1.17,4.26-1.17,6.75-.08l-.09-19.91h2l.11,23.4-1.54-.97c-1.79-1.12-4.34-1.91-6.14-.76-.9,.62-1.47,1.62-1.52,2.72-.14,1.78,.51,3.53,1.77,4.8,2.21,2.11,5.43,2.77,9.1,3.36l-.32,1.97c-1.95-.26-3.88-.69-5.75-1.29h0Z" style="fill:#2f2e41;"/><rect x="752.65" y="56.49" width="2" height="10.77" transform="translate(593.68 800.94) rotate(-82.48)" style="fill:#2f2e41;"/><rect x="786.35" y="60.93" width="2" height="10.77" transform="translate(618.57 838.22) rotate(-82.48)" style="fill:#2f2e41;"/><path d="M837,295.88h-86c-4.69,0-8.49-3.81-8.5-8.5l18-138.06c.03-4.67,3.83-8.44,8.5-8.44h30.52c25.38,.03,45.95,20.6,45.98,45.98v100.52c0,4.69-3.81,8.49-8.5,8.5Z" style="fill:#2f2e41;"/><path d="M910.99,241.48c1.09,2.32,.71,5.07-.97,7.01l-9.65,11.17c-2.35,2.72-6.45,3.02-9.17,.67h0l-87.5-75.6c-5.8-5.01-6.44-13.78-1.43-19.58s13.78-6.44,19.58-1.43l87.5,75.6c.69,.6,1.25,1.33,1.64,2.16h0Z" style="fill:#d1a674;"/><path d="M891.68,216.53c1.09,2.32,.71,5.07-.97,7.01l-16.48,19.08c-2.35,2.71-6.45,3.01-9.17,.67l-71.85-62.08c-2.72-2.35-3.02-6.45-.67-9.17h0l16.48-19.08c2.35-2.72,6.45-3.02,9.17-.67h0l71.85,62.08c.69,.6,1.25,1.33,1.64,2.16h0Z" style="fill:#2f2e41;"/><path d="M795.37,46.75c-6.82-5.64-15.93-.31-23.64-1.06-7.38-.72-13.31-7.22-14.93-14.2-1.89-8.15,2.2-16.43,8.37-21.65,6.75-5.72,15.81-7.49,24.45-6.62,9.9,1,19.02,5.43,27.23,10.84,7.92,5.06,15.23,11.02,21.78,17.76,5.87,6.24,10.89,13.72,12.6,22.23,1.56,7.74,.65,16.37-3.82,23.03-2.37,3.42-5.58,6.17-9.32,7.98-3.9,2.01-8.07,3.47-11.85,5.73-5.7,3.41-11.18,10.37-9.24,17.47,.42,1.55,1.21,2.97,2.31,4.15,1.32,1.41,3.61-.53,2.29-1.94-2.32-2.48-2.29-5.85-1.14-8.88,1.38-3.42,3.87-6.27,7.08-8.09,3.95-2.36,8.33-3.85,12.38-6.01,3.88-1.97,7.23-4.86,9.75-8.4,4.77-6.9,6.06-15.78,4.8-23.96-1.37-8.84-6.08-16.81-11.92-23.46-6.35-7.23-14.11-13.3-22.01-18.74-8.48-5.84-17.82-10.73-28.09-12.37-8.9-1.42-18.49-.26-26.16,4.72-7.15,4.65-12.56,12.51-12.94,21.2-.25,8.04,3.86,15.59,10.75,19.74,3.47,1.99,7.48,2.84,11.46,2.43,4.26-.35,8.5-1.74,12.79-1.46,1.94,.08,3.81,.79,5.31,2.03,1.49,1.23,3.19-1.24,1.71-2.46h0Z" style="fill:#2f2e41;"/><path d="M735.4,312.57c.02-.11,.04-.23,.06-.34,.36-1.69,1.38-3.16,2.83-4.09l12.4-8c3.02-1.94,7.04-1.07,8.99,1.94l38.26,59.32c1.95,3.02,1.08,7.04-1.94,8.99l-12.4,8c-3.02,1.94-7.04,1.07-8.99-1.94l-38.26-59.32c-.87-1.35-1.21-2.97-.96-4.56h.01Z" style="fill:#2f2e41;"/></svg>