<?xml version="1.0" encoding="UTF-8"?><svg id="Layer_1" xmlns="http://www.w3.org/2000/svg" viewBox="0 0 578 621.93"><path d="M366.64,352.86l-249.85,64.34c-17.65,4.52-35.62-6.09-40.19-23.73L1.04,100.04c-4.52-17.65,6.09-35.62,23.73-40.19L257.21,0l59.49,26.63,73.66,286.04c4.52,17.65-6.09,35.62-23.73,40.19Z" style="fill:#f2f2f2;"/><path d="M27.14,69.06c-12.56,3.25-20.12,16.05-16.9,28.62L85.8,391.1c3.25,12.56,16.05,20.12,28.62,16.9l249.85-64.34c12.56-3.25,20.12-16.05,16.9-28.62L308.65,33.43l-52.28-23.41L27.14,69.06Z" style="fill:#fff;"/><path d="M316.07,28.15l-38.67,9.96c-5.88,1.51-11.87-2.02-13.38-7.9l-7.35-28.56c-.09-.37,.13-.74,.49-.84,.15-.04,.31-.03,.45,.04l58.57,26.01c.35,.15,.5,.56,.35,.91-.09,.19-.25,.33-.46,.39Z" style="fill:#f2f2f2;"/><path d="M295.73,278.73l-113.75,29.29c-2.94,.76-5.94-1.01-6.69-3.95-.76-2.94,1.01-5.94,3.95-6.69h0l113.75-29.29c2.94-.76,5.94,1.01,6.69,3.95,.76,2.94-1.01,5.94-3.95,6.69Z" style="fill:#ccc;"/><path d="M322.31,291.04l-135.71,34.95c-2.94,.75-5.93-1.02-6.69-3.96-.75-2.94,1.01-5.93,3.95-6.69l135.7-34.95c2.94-.76,5.94,1.01,6.69,3.95s-1.01,5.94-3.95,6.69Z" style="fill:#ccc;"/><circle id="a597741b-ffcf-4aba-98b0-6652ef5d57c9" cx="135.55" cy="323.88" r="19.42" transform="translate(-197.12 436.13) rotate(-85.93)" style="fill:#e6e6e6;"/><path d="M283.64,227.9l-151.07,38.89c-9.09,2.33-18.35-3.14-20.7-12.23l-31.66-122.99c-2.33-9.09,3.14-18.35,12.23-20.7l151.07-38.89c9.09-2.33,18.35,3.14,20.7,12.23l31.66,122.99c2.33,9.09-3.14,18.35-12.23,20.7Z" style="fill:#fff;"/><path d="M283.64,227.9l-151.07,38.89c-9.09,2.33-18.35-3.14-20.7-12.23l-31.66-122.99c-2.33-9.09,3.14-18.35,12.23-20.7l151.07-38.89c9.09-2.33,18.35,3.14,20.7,12.23l31.66,122.99c2.33,9.09-3.14,18.35-12.23,20.7ZM92.92,112.81c-8.02,2.07-12.84,10.24-10.79,18.27l31.66,122.99c2.07,8.02,10.24,12.84,18.27,10.79l151.08-38.89c8.02-2.07,12.84-10.24,10.79-18.27l-31.66-122.99c-2.07-8.02-10.24-12.84-18.27-10.79L92.92,112.81Z" style="fill:#e6e6e6;"/><path id="b056fd3f-f1a0-44f0-b006-deff0bee637d-3120" d="M235.84,113.33l-76.25,19.63c-1.38,.39-2.83-.36-3.31-1.72-.44-1.39,.33-2.86,1.72-3.3,.04-.01,.09-.03,.14-.04l77.61-19.98c3.14,1.59,2.31,4.84,.09,5.41h0Z" style="fill:#f2f2f2;"/><path id="f1ea6668-a825-428d-96fe-a2c4e1b5a672-3121" d="M239.28,126.71l-76.25,19.63c-1.38,.39-2.83-.36-3.31-1.72-.44-1.39,.33-2.86,1.72-3.3,.04-.01,.09-.03,.14-.04l77.61-19.98c3.14,1.59,2.31,4.84,.09,5.41h0Z" style="fill:#f2f2f2;"/><path id="ee9aa382-a9c9-40d0-8ed3-22ec2dd616d6-3122" d="M148.51,158.19l-23.27,5.99c-1.58,.41-3.19-.55-3.6-2.13l-7.07-27.46c-.41-1.58,.55-3.19,2.13-3.6l23.27-5.99c1.58-.41,3.19,.55,3.6,2.13l7.07,27.46c.41,1.58-.55,3.19-2.13,3.6h0Z" style="fill:#e6e6e6;"/><path id="be954d2b-d8b8-4d26-80a0-a319e99a4b10-3123" d="M246.11,154.15l-116.36,29.95c-1.38,.39-2.83-.36-3.31-1.72-.44-1.39,.33-2.86,1.72-3.3,.04-.01,.09-.03,.14-.04l117.73-30.31c3.14,1.59,2.31,4.84,.09,5.41h0Z" style="fill:#f2f2f2;"/><path id="baaae9e4-1b4d-40c2-8a9d-f2abb078b489-3124" d="M249.55,167.53l-116.36,29.95c-1.38,.39-2.83-.36-3.31-1.72-.44-1.39,.33-2.86,1.72-3.3,.04-.01,.09-.03,.14-.04l117.73-30.31c3.14,1.59,2.31,4.84,.09,5.41h0Z" style="fill:#f2f2f2;"/><path id="a91bf4c9-37f6-4391-92ed-1882bd0ce21c-3125" d="M252.99,180.89l-116.36,29.95c-1.38,.39-2.83-.36-3.31-1.72-.44-1.39,.33-2.86,1.72-3.3,.04-.01,.09-.03,.14-.04l117.73-30.31c3.14,1.59,2.31,4.84,.09,5.41h0Z" style="fill:#f2f2f2;"/><path id="efb98e07-468b-4c85-9a64-ee4cc5493d6f-3126" d="M256.43,194.27l-116.36,29.95c-1.38,.39-2.83-.36-3.31-1.72-.44-1.39,.33-2.86,1.72-3.3,.04-.01,.09-.03,.14-.04l117.73-30.31c3.14,1.59,2.31,4.84,.09,5.41Z" style="fill:#f2f2f2;"/><path id="aeb1db98-32e5-40b8-ab89-fdad6a3263dc-3127" d="M259.88,207.64l-116.36,29.95c-1.38,.39-2.83-.36-3.31-1.72-.44-1.39,.33-2.86,1.72-3.3,.04-.01,.09-.03,.14-.04l117.73-30.31c3.14,1.59,2.31,4.84,.09,5.41Z" style="fill:#f2f2f2;"/><path id="be265de5-288f-49a7-867d-c42e7cdbf4db-3128" d="M136.98,330.69c-.42,.11-.87,.08-1.27-.09h-.03l-5.29-2.25c-1.03-.44-1.52-1.63-1.08-2.66,.44-1.03,1.63-1.52,2.66-1.08h.01l3.43,1.46,4.49-10.57c.44-1.03,1.63-1.51,2.66-1.07h0l-.03,.07,.03-.07c1.03,.44,1.51,1.63,1.07,2.66l-5.29,12.43c-.25,.58-.75,1.01-1.37,1.17h0Z" style="fill:#fff;"/><path d="M462.47,464.68H204.47c-18.22-.02-32.98-14.78-33-33V128.68c.02-18.22,14.78-32.98,33-33h240.03l50.97,40.63V431.68c-.02,18.22-14.78,32.98-33,33Z" style="fill:#e6e6e6;"/><path d="M204.47,105.18c-12.97,.01-23.49,10.53-23.5,23.5V431.68c.01,12.97,10.53,23.49,23.5,23.5H462.47c12.97-.01,23.49-10.53,23.5-23.5V140.88l-44.8-35.71H204.47Z" style="fill:#fff;"/><path d="M412.29,193.28h-117.46c-3.04,0-5.49-2.47-5.49-5.5,0-3.03,2.46-5.49,5.49-5.49h117.46c3.04,0,5.5,2.45,5.5,5.49,0,3.04-2.45,5.5-5.49,5.5h-.01Z" style="fill:#cc9e75;"/><path d="M434.96,211.83h-140.13c-3.04,0-5.5-2.46-5.5-5.5s2.46-5.5,5.5-5.5h140.13c3.04,0,5.5,2.46,5.5,5.5s-2.46,5.5-5.5,5.5Z" style="fill:#cc9e75;"/><path d="M412.29,265.41h-117.46c-3.03,0-5.5,2.45-5.5,5.49s2.45,5.5,5.49,5.5h117.47c3.03,0,5.49-2.47,5.49-5.5,0-3.03-2.46-5.48-5.49-5.49Z" style="fill:#ccc;"/><path d="M434.96,283.96h-140.13c-3.03,0-5.5,2.45-5.5,5.49s2.45,5.5,5.49,5.5h140.14c3.03,0,5.49-2.47,5.49-5.5,0-3.03-2.46-5.48-5.49-5.49Z" style="fill:#ccc;"/><path d="M412.29,359.52h-117.46c-3.04,0-5.49-2.47-5.49-5.5,0-3.03,2.46-5.49,5.49-5.49h117.46c3.04,0,5.5,2.45,5.5,5.49,0,3.04-2.45,5.5-5.49,5.5h-.01Z" style="fill:#ccc;"/><path d="M434.96,378.06h-140.13c-3.04,0-5.5-2.46-5.5-5.5s2.46-5.5,5.5-5.5h140.13c3.04,0,5.5,2.46,5.5,5.5s-2.46,5.5-5.5,5.5Z" style="fill:#ccc;"/><circle id="abdb8e2f-a218-463c-85f4-c869fef49971" cx="245.91" cy="197.06" r="19.42" style="fill:#cc9e75;"/><path id="ba7dbbd6-0052-44b1-a552-47a8298b8d3e-3129" d="M243.99,204.47c-.44,0-.86-.14-1.21-.4l-.02-.02-4.56-3.49c-.89-.68-1.06-1.95-.38-2.84,.68-.89,1.95-1.06,2.84-.38h0l2.96,2.27,6.99-9.11c.68-.89,1.95-1.06,2.84-.38h0l-.04,.06,.04-.06c.89,.68,1.06,1.95,.38,2.84l-8.22,10.72c-.39,.5-.98,.79-1.61,.79h0Z" style="fill:#fff;"/><path d="M267.33,280.18c0,10.73-8.69,19.43-19.42,19.43h0c-.17,0-.33,0-.5-.02-10.72-.27-19.19-9.19-18.92-19.91,.28-10.72,9.19-19.19,19.91-18.92,10.53,.27,18.93,8.89,18.92,19.42Z" style="fill:#ccc;"/><circle id="e4a71040-498e-4958-ad41-c2d79154b8f7" cx="245.91" cy="363.3" r="19.42" style="fill:#ccc;"/><path d="M494.48,137.61h-39.93c-6.07,0-10.99-4.92-10.99-10.99h0v-29.49c0-.38,.31-.69,.69-.69,.15,0,.31,.05,.43,.15l50.23,39.79c.3,.24,.35,.67,.11,.96-.13,.16-.33,.26-.54,.26Z" style="fill:#ccc;"/><path d="M267.33,280.18c0,10.73-8.69,19.43-19.42,19.43h0c-.17,0-.33,0-.5-.02-5.09-12.7-3.69-27.09,3.77-38.56,9.33,1.6,16.15,9.69,16.15,19.15Z" style="fill:#cc9e75;"/><path d="M289.33,270.91c0-3.04,2.46-5.49,5.5-5.5h29.27c1.71,3.48,2.92,7.18,3.61,10.99h-32.88c-3.03,0-5.49-2.46-5.5-5.49Z" style="fill:#cc9e75;"/><path d="M328.39,283.96c0,3.71-.49,7.41-1.46,10.99h-32.1c-3.03,0-5.5-2.45-5.5-5.49s2.45-5.5,5.49-5.5h33.57Z" style="fill:#cc9e75;"/><path d="M400.81,351.73c-1.73,2.83-5.42,3.72-8.25,2l-70-42.7c-2.83-1.73-3.72-5.42-2-8.25,1.73-2.83,5.42-3.72,8.25-2l70,42.7c2.83,1.73,3.72,5.42,2,8.25Z" style="fill:#3f3d56;"/><path d="M330.81,309.03c-13.8,22.63-43.34,29.79-65.97,15.98-22.63-13.8-29.79-43.34-15.98-65.97,13.8-22.63,43.34-29.79,65.97-15.98h0c22.61,13.82,29.76,43.34,15.98,65.97Zm-71.71-43.74c-10.35,16.97-4.99,39.13,11.99,49.48,16.97,10.35,39.13,4.99,49.48-11.99,10.35-16.97,4.99-39.13-11.99-49.48-16.98-10.33-39.11-4.97-49.48,11.99Z" style="fill:#3f3d56;"/><circle cx="484.6" cy="267.17" r="24.56" style="fill:#a0616a;"/><path d="M483.01,404.86c-1.86-5.79,1.33-11.98,7.11-13.84,.4-.13,.8-.23,1.21-.31,.48-.09,.97-.15,1.46-.18l25.87-41.52-23.63-22.47c-3.78-3.59-3.93-9.56-.34-13.33s9.56-3.93,13.33-.34c.04,.04,.08,.08,.12,.12l32.63,32.17,.07,.08c2.07,3.15,1.83,7.29-.59,10.18l-36.25,42.87c.11,.34,.2,.69,.27,1.05,1.19,5.96-2.68,11.75-8.64,12.94-.41,.08-.82,.14-1.24,.17-.31,.03-.62,.04-.93,.04-4.77-.02-8.99-3.1-10.46-7.64Z" style="fill:#a0616a;"/><polygon points="444.15 609 431.89 609 426.05 561.71 444.15 561.71 444.15 609" style="fill:#a0616a;"/><path d="M447.27,620.88h-39.53v-.5c0-8.5,6.89-15.39,15.39-15.39h24.15v15.89Z" style="fill:#2f2e41;"/><polygon points="566 592.05 555.47 598.32 526.26 560.68 541.81 551.42 566 592.05" style="fill:#a0616a;"/><path d="M574.77,600.66l-33.97,20.22-.26-.43c-4.35-7.3-1.95-16.74,5.35-21.09h0l20.75-12.35,8.13,13.65Z" style="fill:#2f2e41;"/><path d="M424.51,588.18c-8.21-96.71-13.1-186.54,16.92-223.19l.23-.28,50.53,20.21,.08,.18c.17,.37,16.97,37.33,13.05,62.19l12.46,57.33,40.64,68.04c1.27,2.13,.58,4.9-1.56,6.17-.16,.1-.32,.18-.49,.26l-17.66,7.77c-2.06,.9-4.47,.14-5.65-1.77l-44.2-72.08-24.97-55.29c-.34-.76-1.23-1.09-1.99-.75-.48,.22-.82,.68-.87,1.21l-13.84,130.1c-.24,2.29-2.17,4.03-4.47,4.02h-13.73c-2.33-.01-4.28-1.8-4.49-4.12Z" style="fill:#2f2e41;"/><path d="M441.6,365.75l-.24-.12-.04-.26c-1.89-13.21,.35-27.89,6.64-43.62,6.41-15.92,23.51-24.74,40.2-20.74h0c9.4,2.32,17.41,8.47,22.06,16.96,4.59,8.41,5.46,18.35,2.37,27.42-7.93,23.2-18.23,44.91-18.33,45.12l-.22,.45-52.45-25.22Z" style="fill:#cc9e75;"/><path d="M386.48,332.85c4.77-3.77,11.69-2.95,15.45,1.82,.26,.33,.5,.67,.72,1.02,.26,.42,.48,.85,.68,1.3l47.95,9.69,12.77-30c2.04-4.79,7.58-7.02,12.37-4.98s7.02,7.58,4.98,12.37c-.02,.05-.04,.1-.07,.15l-18.71,41.83-.05,.09c-2.23,3.05-6.19,4.27-9.75,3.01l-52.85-18.94c-.28,.22-.58,.43-.89,.62-5.17,3.2-11.95,1.61-15.15-3.56-.22-.35-.42-.72-.6-1.1-.13-.28-.26-.57-.36-.86-1.65-4.47-.24-9.5,3.5-12.47Z" style="fill:#a0616a;"/><path d="M573.33,293.48c-2.37-4.19-5.81-8.03-10.37-9.58-5.88-2-12.26,.13-18.31,1.55-4.66,1.1-9.53,1.77-14.23,.84-4.7-.92-9.23-3.66-11.37-7.94-3.15-6.3-.5-13.82-.69-20.86-.36-13.99-11.99-25.04-25.98-24.68-2.01,.05-4.01,.34-5.95,.87-5.79-1.67-11.04-1.83-14.62,2.63-9.39,0-17,7.61-17,17h16.26c-.77,4.14,.11,8.43,2.45,11.93,2.87,4.22,7.86,7.27,8.82,12.27,.93,4.85-2.37,9.46-5.83,12.99-3.46,3.53-7.48,7.02-8.56,11.85-.66,3.66,.09,7.44,2.1,10.56,2.01,3.09,4.5,5.84,7.39,8.14,12.99,11.12,28.42,19.02,45.04,23.04,11.7,2.82,24.51,3.55,35.37-1.64,17.51-8.35,24.93-29.32,16.58-46.83-.35-.73-.72-1.44-1.11-2.14Z" style="fill:#2f2e41;"/><path d="M577,621.93h-190c-.55,0-1-.45-1-1s.45-1,1-1h190c.55,0,1,.45,1,1s-.45,1-1,1Z" style="fill:#ccc;"/></svg>