<?xml version="1.0" encoding="UTF-8"?><svg id="Layer_1" xmlns="http://www.w3.org/2000/svg" viewBox="0 0 523 336"><circle cx="427.85" cy="279.78" r="43.07" style="fill:#2f2e41;"/><circle cx="424.43" cy="269.37" r="14.72" style="fill:#fff;"/><circle cx="418.47" cy="265.56" r="4.91" style="fill:#3f3d56;"/><path d="M426.15,250.66c-17.61-.03-29.98-3.18-29.95-19.14s14.33-28.87,31.95-28.83,31.87,12.99,31.84,28.95c-.03,15.96-16.22,19.05-33.83,19.02Z" style="fill:#cc9e75;"/><path d="M495.35,286.97c-5.05,17.53-19.8,29.8-35.19,40.22-2.15,1.46-4.3,2.88-6.45,4.27-.01,0-.03,.02-.04,.03-.1,.07-.21,.13-.3,.2-.44,.29-.89,.57-1.33,.85l.24,.11s.24,.13-.02,.02c-.08-.03-.16-.06-.24-.09-8.94-3.61-18.04-7.48-24.89-14.23-7.11-7.01-11.26-18.01-7.41-27.23,.51-1.21,1.14-2.35,1.9-3.42,.31-.45,.65-.87,1-1.29,6.6-8.06,18.48-9.23,26.54-2.63,2.68,2.2,4.71,5.09,5.85,8.36,1.13-10.53-7.55-19.34-15.9-25.85-8.36-6.5-17.85-13.58-19.47-24.05-.9-5.82,1.12-11.47,4.81-16,.11-.14,.23-.28,.35-.41,4.49-5.28,10.81-8.67,17.69-9.49,12.81-1.33,25.26,5.45,34.57,14.36,14.98,14.33,24.04,36.35,18.3,56.28Z" style="fill:#e6e6e6;"/><path d="M471.27,264.05c2.46,3.83,4.35,7.99,5.6,12.36,1.06,3.91,1.54,7.95,1.4,12-.34,8.33-2.68,16.45-6.82,23.68-3.12,5.49-6.91,10.56-11.3,15.1-2.15,1.46-4.3,2.88-6.45,4.27-.01,0-.03,.02-.04,.03-.1,.07-.21,.13-.3,.2-.44,.29-.89,.57-1.33,.85,0,0,.48,.23,.22,.13-.08-.03-.16-.06-.24-.09,1.63-13.33-3.31-26.62-13.25-35.65-4.91-4.38-10.78-7.54-17.15-9.23,.31-.45,.65-.87,1-1.29,2.46,.69,4.85,1.59,7.15,2.7,8.21,3.94,14.94,10.43,19.18,18.49,3.81,7.32,5.44,15.58,4.72,23.8,.37-.33,.73-.67,1.09-1.01,6.79-6.33,12.83-13.6,16.91-21.99,3.54-7.1,5.28-14.97,5.07-22.91-.33-8.65-3.78-16.67-8.77-23.65-5.47-7.44-11.93-14.11-19.21-19.8-7.33-5.87-15.36-10.83-23.89-14.75-.4-.19-.58-.65-.42-1.06,.06-.18,.18-.32,.35-.41,.17-.07,.37-.07,.53,.02,1.05,.49,2.1,.98,3.14,1.49,8.65,4.27,16.73,9.61,24.06,15.87,7.08,6.04,13.75,12.94,18.73,20.84Z" style="fill:#fff;"/><ellipse cx="73.71" cy="331.46" rx="10.9" ry="4.09" style="fill:#2f2e41;"/><ellipse cx="99.88" cy="330.92" rx="10.9" ry="4.09" style="fill:#2f2e41;"/><ellipse cx="131.24" cy="260.42" rx="21.53" ry="6.76" transform="translate(-112.52 100.35) rotate(-29.96)" style="fill:#2f2e41;"/><circle cx="82.44" cy="273.95" r="43.07" transform="translate(-201.18 311.44) rotate(-80.78)" style="fill:#2f2e41;"/><rect x="62.81" y="307.75" width="13.08" height="23.44" style="fill:#2f2e41;"/><rect x="88.98" y="307.75" width="13.08" height="23.44" style="fill:#2f2e41;"/><circle cx="83.53" cy="263.04" r="14.72" style="fill:#fff;"/><circle cx="83.53" cy="263.04" r="4.91" style="fill:#3f3d56;"/><path d="M40.66,233.89c-3.48-15.57,7.64-31.31,24.83-35.15s33.94,5.68,37.42,21.25-7.91,21.32-25.1,25.16-33.67,4.32-37.15-11.26Z" style="fill:#e6e6e6;"/><ellipse cx="33.93" cy="253.96" rx="6.76" ry="21.53" transform="translate(-210.07 175.79) rotate(-64.63)" style="fill:#2f2e41;"/><path d="M61.28,289.48c0,4.22,10.85,12.54,22.9,12.54s23.34-11.87,23.34-16.08-11.29,.82-23.34,.82-22.9-1.49-22.9,2.73Z" style="fill:#fff;"/><ellipse cx="232.61" cy="331.46" rx="10.9" ry="4.09" style="fill:#2f2e41;"/><ellipse cx="206.44" cy="330.92" rx="10.9" ry="4.09" style="fill:#2f2e41;"/><ellipse cx="175.08" cy="260.42" rx="6.76" ry="21.53" transform="translate(-137.98 282.04) rotate(-60.04)" style="fill:#2f2e41;"/><circle cx="223.89" cy="273.95" r="43.07" style="fill:#2f2e41;"/><rect x="230.43" y="307.75" width="13.08" height="23.44" style="fill:#2f2e41;"/><rect x="204.26" y="307.75" width="13.08" height="23.44" style="fill:#2f2e41;"/><circle cx="213.8" cy="263.04" r="14.72" style="fill:#fff;"/><ellipse cx="206.8" cy="261.04" rx="4.92" ry="4.89" transform="translate(-124 222.54) rotate(-44.97)" style="fill:#3f3d56;"/><path d="M228.52,245.15c-17.19-3.84-28.58-9.58-25.1-25.16s20.23-25.09,37.42-21.25,28.31,19.58,24.83,35.15-19.96,15.09-37.15,11.26Z" style="fill:#cc9e75;"/><ellipse cx="263.39" cy="285.96" rx="6.76" ry="21.53" transform="translate(-64.58 77.2) rotate(-14.87)" style="fill:#2f2e41;"/><path d="M214.13,286.76c-7.91,0-15.32-5.03-15.32-.82s7.41,16.08,15.32,16.08,15.03-8.32,15.03-12.54-7.13-2.73-15.03-2.73Z" style="fill:#fff;"/><path d="M158.47,202.54h-3.82c-7.13,0-12.91-5.79-12.92-12.92v-3.21c0-7.95,1.51-14.61,4.48-19.79,3.6-6.03,7.8-11.67,12.54-16.85,3.15-3.16,6-6.6,8.53-10.28,1.81-2.86,2.75-6.18,2.69-9.56,0-7.98-5.2-11.86-15.89-11.86-5.93,.07-11.83,.95-17.52,2.63-7.83,2.24-15.99-2.3-18.23-10.13-.38-1.32-.57-2.68-.57-4.05v-6.5c-.03-5.72,3.32-10.91,8.53-13.26,10.05-4.29,20.89-6.42,31.81-6.26,11.44,0,21.78,1.92,30.71,5.71,8.95,3.8,16.02,9.16,21.01,15.92,4.98,6.72,7.63,14.88,7.54,23.24,0,8.98-2.45,16.8-7.29,23.25-4.78,6.38-11.64,13.36-20.38,20.76-4.6,3.83-8.97,7.94-13.06,12.31-2.65,2.85-4.52,6.33-5.43,10.11-1.05,6.21-6.44,10.75-12.74,10.73Z" style="fill:#cc9e75;"/><path d="M156.35,263.31h-.5c-13.23-.01-23.94-10.74-23.93-23.97,.01-13.21,10.72-23.92,23.93-23.93h.5c13.23-.01,23.96,10.7,23.97,23.93,.01,13.23-10.7,23.96-23.93,23.97h-.04Z" style="fill:#cc9e75;"/><path d="M312,336H1c-.55,0-1-.45-1-1s.45-1,1-1H312c.55,0,1,.45,1,1s-.45,1-1,1Z" style="fill:#ccc;"/><path d="M522,336h-166c-.55,0-1-.45-1-1s.45-1,1-1h166c.55,0,1,.45,1,1s-.45,1-1,1Z" style="fill:#ccc;"/><ellipse cx="418.84" cy="300.03" rx="21.53" ry="6.76" transform="translate(-5.79 8.25) rotate(-1.12)" style="fill:#2f2e41;"/><path d="M408.16,149h-26c-2.76,0-5-2.24-5-5v-26c0-2.76,2.24-5,5-5h26c2.76,0,5,2.24,5,5v26c0,2.76-2.24,5-5,5Zm-26-34c-1.66,0-3,1.34-3,3v26c0,1.66,1.34,3,3,3h26c1.66,0,3-1.34,3-3v-26c0-1.66-1.34-3-3-3h-26Z" style="fill:#f2f2f2;"/><path d="M420.16,132h-26c-2.76,0-5-2.24-5-5v-26c0-2.76,2.24-5,5-5h26c2.76,0,5,2.24,5,5v26c0,2.76-2.24,5-5,5Zm-26-34c-1.66,0-3,1.34-3,3v26c0,1.66,1.34,3,3,3h26c1.66,0,3-1.34,3-3v-26c0-1.66-1.34-3-3-3h-26Z" style="fill:#f2f2f2;"/><path d="M215.16,49h-26c-2.76,0-5-2.24-5-5V18c0-2.76,2.24-5,5-5h26c2.76,0,5,2.24,5,5v26c0,2.76-2.24,5-5,5Zm-26-34c-1.66,0-3,1.34-3,3v26c0,1.66,1.34,3,3,3h26c1.66,0,3-1.34,3-3V18c0-1.66-1.34-3-3-3h-26Z" style="fill:#f2f2f2;"/><path d="M199.16,36h-26c-2.76,0-5-2.24-5-5V5c0-2.76,2.24-5,5-5h26c2.76,0,5,2.24,5,5V31c0,2.76-2.24,5-5,5ZM173.16,2c-1.66,0-3,1.34-3,3V31c0,1.66,1.34,3,3,3h26c1.66,0,3-1.34,3-3V5c0-1.66-1.34-3-3-3h-26Z" style="fill:#f2f2f2;"/><circle cx="321.22" cy="183.17" r="6.47" style="fill:#f2f2f2;"/><circle cx="61.22" cy="160.17" r="6.47" style="fill:#f2f2f2;"/><circle cx="497.22" cy="216.17" r="6.47" style="fill:#f2f2f2;"/></svg>