<?xml version="1.0" encoding="UTF-8"?><svg id="Layer_1" xmlns="http://www.w3.org/2000/svg" viewBox="0 0 751.13 556.41"><path d="M680.15,553.84h-159.27v-4.89c0-8.84,7.16-16,16-16h127.27c8.84,0,16,7.16,16,16v4.89h0Z" style="fill:#e6e6e6;"/><path d="M596.79,533.93l4.84-1.95c-50.68-125.79-45.79-284.48-2.96-420.61,10.4-32.23,.67-67.57-24.76-89.93-24.86-22.19-59.14-27.59-89.47-14.11-29.93,13.31-34.06,36.51-34.06,59.58h5.22c0-24.63,5.26-43.38,30.96-54.81,28.42-12.64,60.55-7.57,83.87,13.23,23.89,21.01,33.03,54.19,23.26,84.47-43.33,137.7-47.93,297.49,3.09,424.13Z" style="fill:#e6e6e6;"/><circle cx="454.31" cy="125.65" r="18.28" style="fill:#e6e6e6;"/><path d="M426.16,157.51v-34.63h5.38v34.63c3.68,1.49,5.45,5.67,3.96,9.35-1.49,3.68-5.67,5.45-9.35,3.96-3.68-1.49-5.45-5.67-3.96-9.35,.73-1.8,2.16-3.23,3.96-3.96Z" style="fill:#e6e6e6;"/><path d="M400.13,96.27c.02-16.57,13.45-30.01,30.03-30.03h49.61c16.58,0,30.03,13.44,30.03,30.03s-13.44,30.03-30.03,30.03h-49.61c-16.57-.02-30.01-13.45-30.03-30.03Z" style="fill:#cc9e75;"/><path d="M330.24,282.21c4.98-63.72,30.45-94.08,14.14-113.12-15.62-18.24-59.62-14.47-87.87,3.03-76.21,47.2-104.13,235.33-6.06,327.25,93.19,87.34,269.82,59.37,309.07-12.12,9.16-16.68,16.43-45.92,3.03-63.63-33.28-43.97-154.27,35.67-208.07-14.14-31.88-29.52-26.97-92.29-24.24-127.26Z" style="fill:#3f3d56;"/><path d="M388.5,250.55c-3.85,1.77-5.59,6.28-3.92,10.18,.17,.38,.37,.74,.6,1.09l-16.36,21.84,8.16,12.2,19.17-32.34c2.79-2.18,3.77-5.97,2.37-9.22-1.66-3.77-6.06-5.49-9.84-3.83h0c-.06,.03-.12,.06-.19,.09Z" style="fill:#ffb6b6;"/><path d="M388.48,288.21c1.07,.95-1.9,2.12-5.04,.27-.9-.54-1.28-.76-1.38-.62-.25,.35,1.22,2.96,.83,8.75-.24,3.45-5.98,9.95-12.49,16.28-8.81,8.57-19.05,16.83-19.05,16.83l-3.6-2.88-37.7-30.23-6.36-8.81c.58-3.48,1.46-6.9,2.62-10.23,1.6-4.61,3.49-9.11,5.68-13.47,1.17-2.37,2.37-4.64,3.53-6.72l20.2,22.26,16.93,18.65s4.93-7.94,8.75-10.1c.49-.31,1.04-.5,1.62-.56,3.86-.18,4.09-2.28-.38-6.86-4.47-4.58,1.17-.3,5.15-1.54,3.98-1.23,0,0,.84-3.08,.84-3.08,12-9.26,12-9.26l.46,.41,8.43,7.44,2.41,2.13s-2.64,7.23-3.36,8.76c-.73,1.53-1.12,1.61-.06,2.57Z" style="fill:#cc9e75;"/><polygon points="610.81 428.52 611.22 417.38 568.44 410.49 567.84 426.94 610.81 428.52" style="fill:#ffb6b6;"/><path d="M603.04,431.88l-.41-17.84,7.63,.28,12.31-16.49c1.57-2.11,4.56-2.54,6.67-.97,1.26,.94,1.97,2.43,1.91,4l-.78,21.19-7.68,3.37,7.49,1.7-.29,7.99-26.85-3.24Z" style="fill:#2f2e41;"/><path d="M370.06,432.86l135.49,3.44s58.51,3.38,72.24-5.55l14.48-1.83,.78-21.26s-8.85,.07-13.94-2.31-1.55-5.27-6.4-2.42-4.34,3.2-8.09,1.89-175.8-27.53-175.8-27.53l-18.75,55.58Z" style="fill:#2f2e41;"/><polygon points="548.6 423.63 556.47 415.74 529.8 381.6 518.17 393.24 548.6 423.63" style="fill:#ffb6b6;"/><path d="M540.62,416.77l11.83-13.35,5.4,5.39,20.24-3.72c2.59-.48,5.07,1.24,5.55,3.83,.28,1.54-.21,3.12-1.32,4.23l-14.98,15-7.92-2.75,4.33,6.34-5.65,5.66-17.48-20.64Z" style="fill:#2f2e41;"/><path d="M316.6,358.66l1.35,31.31c1.59,36.86,42.18,59.17,73.65,39.92,.58-.35,1.16-.72,1.75-1.1,.88-.57,11.93-3.2,11.57-8.28s2.55-7.54,5.13-6.16,36.36-46.55,36.36-46.55c0,0,70.18,35.01,85.66,43.25,0,0,14.56-22.76,13.5-22.52s-86.82-59.79-86.82-59.79c0,0-13.97-14.14-31.3-4.8-.36,1.37-.05,1.42-.05,1.42l-57.25,46.65-8.09-15.36-45.45,2.02Z" style="fill:#2f2e41;"/><path d="M370.59,319.51c-.11,1.45-.31,2.88-.62,4.3-.41,2.05-1.08,4.05-1.98,5.94,0,0,0,2.11-4.04,9.18-4.04,7.07,1.01,4.04,4.04,9.29,3.03,5.24,0,2.83-3.36,6.2-1.97,2-2.7,4.91-1.91,7.61,0,0-43.39,.03-51.47-3s-9.92-20.1-2.68-21.79c7.23-1.69-2.19-3.36-6.44-7.25-4.25-3.89,4.25-10.25,4.25-10.25,0,0-3.5-6.05-3.21-26.36,.04-1.87,.21-3.73,.52-5.58,.58-3.48,1.46-6.9,2.62-10.23,1.6-4.61,3.49-9.11,5.68-13.47,1.17-2.37,2.37-4.64,3.53-6.72,.18-.32,.35-.64,.54-.95,2.19-3.88,4.19-7.05,5.51-9.08,1.02-1.58,1.64-2.46,1.64-2.46l7.35-12.79,24.54,11.5-1.39,18.82,4.23,14.19,1.95,6.53,1.5,5.04,2.32,7.81s-.64,.03,.12,1.07c3.49,4.64,5.75,10.08,6.58,15.83,.29,2.19,.36,4.41,.19,6.62Z" style="fill:#cc9e75;"/><path d="M441.47,321.54l-.46-.15-58.74-18.92,21.65-71.02c1.57-5.16,7.03-8.07,12.19-6.5,.74,.23,1.45,.54,2.12,.93l37.54,22.18c6.13,3.62,8.79,11.11,6.32,17.79l-20.61,55.68Z" style="fill:#2f2e41;"/><path d="M441.7,326.06l-59.22-19.07,21.65-71.02c1.57-5.16,7.03-8.07,12.19-6.5,.74,.23,1.45,.54,2.12,.93l39.33,19.64c5.91,3.49,5.77,12.52,3.03,19.94l-19.1,56.07Z" style="fill:#cc9e75;"/><path d="M435.78,331.2c-2.76,1.56-6.04,1.88-9.05,.9l-37.85-12.19c-6.04-1.97-9.4-8.4-7.57-14.49l18.98-62.26c1.57-5.16,7.03-8.07,12.19-6.49,.07,.02,.13,.04,.2,.06l39.22,12.88c7.73,2.54,11.93,10.85,9.4,18.58-.04,.13-.09,.25-.13,.38l-20.29,56.57c-.91,2.57-2.72,4.72-5.09,6.06Z" style="fill:#3f3d56;"/><circle cx="353.69" cy="205.21" r="27.11" style="fill:#ffb6b6;"/><path d="M262.02,232.73c2.49,4.82,6.57,8.64,11.55,10.79,1.99,.91,4.08,1.57,6.22,1.97,.61-2.41,1.58-4.7,2.88-6.82-.43,2.38-.43,4.82,0,7.2,3.27,.27,6.56-.14,9.66-1.2,6.18-2.1,11.01-7,13.03-13.2,2.16-7.19-.17-14.86-.35-22.36-.19-7.5,3.37-16.47,10.82-17.4,5.67-.71,4.97-.16,9.04,3.85-5.7,6.33,8.2,34.38,15.65,33.14,4.22-.7,7.32-4.05,8.15-3.93,4.27,10.46-8.57,25.29,1.61,30.15l-.76-1c-5.33-8.81,10.45-23.69,5.11-32.49-1.49-2.46-3.03-5.35-2.11-8.08,.87-2.59,5.29-3.41,6.23-1.05-1.52-5.41,2.72-11.75,8.34-12.3,4.99-.49,4.71,.93,9.47,2.23,.61-2.05,1.49-4.01,2.61-5.83-.38,2.08-.43,4.2-.14,6.3,1.72,.2,3.45-.16,4.94-1.05,4.4-2.64,4.53-9.44,1.51-13.58-3.03-4.14-8.09-6.19-12.98-7.73-.04-10.34-27.87-15.29-32.99-5.68-.53-7.79-9.45-13.03-17.14-11.71s-13.75,7.49-17.45,14.36c-3.7,6.87-5.53,14.55-8.24,21.86s-6.58,14.6-13.06,18.94c-6.48,4.33-16.11,4.73-21.52-.89-2.5,4.86-2.54,10.63-.09,15.52Z" style="fill:#2f2e41;"/><path d="M289.84,356.7c.56-.45,1.17-.83,1.81-1.15,10.38-5.16,42.65-18.57,67.88-18.02,48.55,1.06,110.33,54.64,95.95,90.62-10.94,27.38-65.34,42.95-105.04,30.5-55.63-17.45-77.58-88.41-60.6-101.94Z" style="fill:#3f3d56;"/><path d="M88.3,553.94c-15.86-2.99-29.91-74.46,1.31-109.66,10.69-12.06,24.03-17.31,41.77-22.19,102.12-28.11,180.01-1.32,190.48,5.22,10.44,6.53,28.75,104.88,5.34,118.8-13.17,7.83-39.28,11.75-52.22,2.61-19.03-13.45,12.92-48.32-1.31-71.8-16.14-26.64-101.11-35.61-143.72-9.14-45.45,28.25,48.3,103.13-41.66,86.16Z" style="fill:#f2f2f2;"/><path d="M194.36,432.43h-60.6c-14.96-14.34-25.66-28.16-17.09-39.63,0-6.87,5.57-12.43,12.43-12.43h69.93c6.87,0,12.43,5.57,12.43,12.43,3.26,13.07-2.56,26.28-17.09,39.63Z" style="fill:#ccc;"/><path d="M183.47,364.72c-1.55,.07-2.86-1.13-2.93-2.68-.04-.83,.29-1.63,.9-2.19l.19-.76c-.03-.06-.05-.12-.08-.18-1.62-3.83-6.05-5.63-9.88-4-1.82,.77-3.27,2.23-4.02,4.05-2.27,5.48-5.17,10.97-5.88,16.76-.31,2.56-.18,5.16,.39,7.67-5.34-11.65-8.12-24.32-8.13-37.14,0-3.22,.18-6.43,.54-9.63,.3-2.62,.71-5.22,1.23-7.81,2.86-14.02,9.01-27.16,17.94-38.34,4.32-2.36,7.81-5.98,10.01-10.39,.8-1.58,1.36-3.27,1.67-5.02-.49,.06-1.84-7.36-1.47-7.81-.68-1.03-1.89-1.54-2.64-2.55-3.69-5-8.77-4.13-11.43,2.67-5.67,2.86-5.72,7.61-2.25,12.17,2.21,2.9,2.52,6.83,4.46,9.94-.2,.26-.41,.5-.61,.76-3.65,4.7-6.83,9.74-9.5,15.05,.65-5.96-.13-11.98-2.26-17.58-2.16-5.22-6.22-9.61-9.79-14.12-4.29-5.42-13.08-3.05-13.84,3.81,0,.07-.01,.13-.02,.2,.53,.3,1.05,.62,1.56,.95,1.75,1.17,2.22,3.53,1.05,5.28-.59,.89-1.53,1.49-2.59,1.65h-.08c.19,1.92,.52,3.82,1,5.68-4.58,17.71,5.31,24.16,19.42,24.45,.31,.16,.62,.32,.93,.47-2.68,7.6-4.36,15.51-5,23.54-.36,4.74-.34,9.5,.06,14.23l-.02-.17c-1.02-5.26-3.83-10.01-7.95-13.45-6.12-5.03-14.76-6.88-21.36-10.92-2.03-1.3-4.74-.71-6.04,1.32-.56,.87-.79,1.91-.65,2.94,0,.06,.02,.12,.03,.18,.98,.4,1.94,.86,2.87,1.38,.53,.3,1.05,.62,1.56,.95,1.75,1.17,2.22,3.53,1.05,5.28-.59,.89-1.53,1.49-2.59,1.65h-.08c-.06,.02-.1,.03-.16,.04,1.68,4.01,4.04,7.71,6.98,10.92,2.86,15.46,15.16,16.93,28.32,12.42h0c1.44,6.27,3.53,12.38,6.24,18.22h22.29c.08-.25,.15-.5,.22-.75-2.06,.13-4.14,0-6.17-.37,1.65-2.03,3.31-4.08,4.96-6.1,.04-.04,.07-.08,.1-.12,.84-1.04,1.69-2.07,2.52-3.11h0c.04-3.19-.32-6.36-1.09-9.45h0Z" style="fill:#ccc;"/><path d="M259.51,429.18c.76,2.21,2.85,3.68,5.19,3.63l22.23-.57c2.35-.05,4.4-1.64,5.02-3.91l3.15-33.64c1.12,.51,2.33,.76,3.56,.73,4.48-.11,8.01-3.83,7.9-8.31s-3.83-8.01-8.31-7.9c-.49,0-.98,.05-1.46,.15-1.05-1.14-2.54-1.78-4.09-1.76l-34.2,.88c-.28,.01-.57,.05-.84,.1-2.9,.54-4.81,3.33-4.27,6.23,.04,.24,.11,.48,.18,.71l5.94,43.66Zm36.23-36.77l2.24-8.02c.25-.93,.26-1.9,.02-2.83,.11,0,.2-.05,.31-.05,3.2-.06,5.85,2.48,5.91,5.68,.06,3.19-2.46,5.83-5.64,5.91-.99,.03-1.97-.21-2.84-.69h0Z" style="fill:#ccc;"/><path d="M257.66,378.59c.73,4.17,8.92,7.09,18.77,6.59,9.06-.42,16.46-3.6,17.82-7.37-.5-.15-1.02-.22-1.55-.21l-34.2,.88c-.28,.01-.57,.05-.84,.1Z" style="fill:#fff;"/><path d="M1.19,555.52l748.75,.31c.66,0,1.19-.54,1.19-1.19,0-.65-.53-1.18-1.19-1.19l-748.75-.31c-.66,0-1.19,.53-1.19,1.19,0,.66,.53,1.19,1.19,1.19h0Z" style="fill:#cacaca;"/><path d="M421.15,289.41c-4.23,.15-7.58,3.65-7.54,7.89,.01,.41,.05,.83,.13,1.23l-23.5,13.87,2.84,14.4,30.14-22.48c3.42-.94,5.77-4.06,5.74-7.6-.08-4.12-3.49-7.4-7.61-7.32h0c-.07,0-.14,0-.2,0Z" style="fill:#ffb6b6;"/><path d="M401.9,322.49c-.63-.84-.9-1.19-1.04-1.1-.37,.22-.01,3.2-2.6,8.38-3.64,7.28-41.84,18.44-41.84,18.44l-4.7-8.61-20.69-37.84-7.13-30.33c-.25-1.06-.37-2.14-.36-3.23,6.36-4.47,13.11-8.36,20.17-11.61,2.82,1.6,4.97,4.16,6.06,7.22l14.24,39.93,5.68,15.94s10.02-7.17,13.66-5.85c3.63,1.32,4.66-.53,2.29-6.47-2.37-5.94,1.19,.17,5.33,.56,4.15,.39,0,0,1.96-2.52s14.64-3.94,14.64-3.94l.27,.56,4.91,10.11,1.41,2.9s-5.21,5.65-6.47,6.78c-1.26,1.14-1.65,1.06-1.03,2.35,.61,1.29-2.58,1.23-4.76-1.68Z" style="fill:#cc9e75;"/></svg>