<?xml version="1.0" encoding="UTF-8"?><svg id="Layer_1" xmlns="http://www.w3.org/2000/svg" viewBox="0 0 906 510.5"><ellipse cx="834.78" cy="505.5" rx="24" ry="4" style="fill:#c1c1c1;"/><rect x="860.78" y="123.5" width="2" height="42" style="fill:#c1c1c1;"/><rect x="828.78" y="96.5" width="12" height="414" style="fill:#c1c1c1;"/><path d="M889.72,129h-109.88c-4.69,0-8.5-3.81-8.5-8.5,0-.35,.02-.7,.07-1.05l14-112c.54-4.25,4.15-7.44,8.43-7.45h81.88c4.28,0,7.9,3.2,8.43,7.45l14,112c.58,4.66-2.72,8.91-7.38,9.49-.35,.04-.7,.07-1.05,.07h0Z" style="fill:#c1c1c1;"/><circle cx="861.78" cy="165.5" r="7" style="fill:#c1c1c1;"/><path d="M125.56,399.36c-5.05,17.53-19.8,29.8-35.19,40.22-2.15,1.46-4.3,2.88-6.45,4.27-.01,0-.03,.02-.04,.03-.1,.07-.21,.13-.3,.2-.44,.29-.89,.57-1.33,.85l.24,.11s.24,.13-.02,.02l-.24-.09c-8.94-3.61-18.04-7.48-24.89-14.23-7.11-7.01-11.26-18.01-7.41-27.23,.51-1.21,1.14-2.35,1.9-3.42,.31-.45,.65-.87,1-1.29,6.6-8.06,18.48-9.23,26.54-2.63,2.68,2.2,4.71,5.09,5.85,8.36,1.13-10.53-7.55-19.34-15.9-25.85-8.36-6.5-17.85-13.58-19.47-24.05-.9-5.82,1.12-11.47,4.81-16,.11-.14,.23-.28,.35-.41,4.49-5.28,10.81-8.67,17.69-9.49,12.81-1.33,25.26,5.45,34.57,14.36,14.98,14.33,24.04,36.35,18.3,56.28h0Z" style="fill:#9b9b9b;"/><path d="M101.48,376.44c2.46,3.83,4.35,7.99,5.6,12.36,1.06,3.91,1.54,7.95,1.4,12-.34,8.33-2.68,16.45-6.82,23.68-3.12,5.49-6.91,10.56-11.3,15.1-2.15,1.46-4.3,2.88-6.45,4.27-.01,0-.03,.02-.04,.03-.1,.07-.21,.13-.3,.2-.44,.29-.89,.57-1.33,.85,0,0,.48,.23,.22,.13l-.24-.09c1.63-13.33-3.31-26.62-13.25-35.65-4.91-4.38-10.78-7.54-17.15-9.23,.31-.45,.65-.87,1-1.29,2.46,.69,4.85,1.59,7.15,2.7,8.21,3.94,14.94,10.43,19.18,18.49,3.81,7.32,5.44,15.58,4.72,23.8,.37-.33,.74-.67,1.09-1.01,6.79-6.33,12.83-13.6,16.91-21.99,3.54-7.1,5.28-14.97,5.07-22.91-.33-8.65-3.78-16.67-8.77-23.65-5.47-7.44-11.93-14.11-19.21-19.8-7.33-5.87-15.36-10.83-23.89-14.75-.4-.19-.58-.65-.42-1.06,.06-.18,.18-.32,.35-.41,.17-.07,.37-.07,.53,.02,1.05,.49,2.1,.98,3.14,1.49,8.65,4.27,16.73,9.61,24.06,15.87,7.08,6.04,13.75,12.94,18.73,20.84h.02Z" style="fill:#fff;"/><path d="M52.63,443.5h55.36c2.37,0,4.28,1.92,4.28,4.28,0,.18-.01,.36-.03,.53l-7.05,56.43c-.27,2.14-2.09,3.75-4.25,3.75H59.68c-2.16,0-3.98-1.61-4.25-3.75l-7.05-56.43c-.29-2.35,1.37-4.49,3.72-4.78,.18-.02,.35-.03,.53-.03Z" style="fill:#565656;"/><circle cx="233.14" cy="502.01" r="6.93" style="fill:#565656;"/><circle cx="670.8" cy="502.01" r="6.93" style="fill:#565656;"/><path d="M360.16,405.58h-108.55c-10.52-.01-19.04-8.54-19.05-19.05v-73.91c0-10.52,8.54-19.04,19.05-19.05h108.55c10.52,.01,19.04,8.54,19.05,19.05v73.91c-.01,10.52-8.54,19.04-19.05,19.05Z" style="fill:#9b9b9b;"/><path d="M506.24,406.16h-108.55c-10.52-.01-19.04-8.54-19.05-19.05v-73.91c.01-10.52,8.54-19.04,19.05-19.05h108.55c10.52,.01,19.04,8.54,19.05,19.05v73.91c-.01,10.52-8.54,19.04-19.05,19.05Z" style="fill:#9b9b9b;"/><path d="M652.33,406.74h-108.55c-10.52-.01-19.04-8.54-19.05-19.05v-73.91c.01-10.52,8.54-19.04,19.05-19.05h108.55c10.52,.01,19.04,8.54,19.05,19.05v73.91c-.01,10.52-8.54,19.04-19.05,19.05Z" style="fill:#9b9b9b;"/><rect x="215.82" y="401.54" width="478.08" height="99.89" style="fill:#9b9b9b;"/><path d="M233.14,502.01h-20.79c-10.51,0-19.05-9.71-19.05-21.63v-104.24h39.84v125.87Z" style="fill:#9b9b9b;"/><path d="M691.59,502.01h-20.79v-142.04h39.84v117.63c0,13.46-8.55,24.41-19.05,24.41h0Z" style="fill:#9b9b9b;"/><path d="M379.8,422.32H233.14v-31.18c48.89-28.04,97.77-28.04,146.66,0v31.18Z" style="fill:#565656;"/><path d="M525.88,422.9h-146.66v-31.18c48.89-28.04,97.77-28.04,146.66,0v31.18Z" style="fill:#565656;"/><path d="M671.96,423.48h-146.66v-31.18c48.89-28.04,97.77-28.04,146.66,0v31.18h0Z" style="fill:#565656;"/><circle cx="204.85" cy="368.63" r="34.07" style="fill:#565656;"/><circle cx="703.71" cy="367.47" r="34.07" style="fill:#565656;"/><path d="M603.36,300.73c.08,.55,.11,1.1,.11,1.65l40.83,28.14,10.89-5.16,9.93,15.42-18.39,11c-3.05,1.83-6.94,1.42-9.55-1l-41.35-38.38c-5.58,1.57-11.38-1.68-12.95-7.26-1.57-5.58,1.68-11.38,7.26-12.95s11.38,1.68,12.95,7.26c.12,.42,.21,.84,.27,1.27h0Z" style="fill:#ffb8b8;"/><path d="M645.09,328.11c.36-1.26,1.26-2.29,2.45-2.84l20.53-9.41c5.78-3.77,13.53-2.13,17.29,3.65,3.75,5.76,2.15,13.47-3.6,17.26l-16.97,15.01c-1.86,1.65-4.71,1.47-6.35-.39-.15-.17-.28-.34-.4-.53l-12.4-19.05c-.71-1.1-.92-2.45-.55-3.71h0Z" style="fill:#6c63ff;"/><path d="M602.85,302.57h-.21l-.56-7.73c-.18-2.48-1.78-4.38-3.58-4.25h0l-11.91,.86c-1.8,.13-5.1,2.39-4.92,4.86l.14,1.99,2.93,40.5c.18,2.48,3.78,4.23,5.57,4.1h0l11.91-.86c1.8-.13,3.11-2.24,2.93-4.72h0l-2.12-29.23h.21l-.4-5.53h.01Z" style="fill:#3f3d56;"/><path d="M601.39,294.92l3.07,42.43c.13,1.85-.85,3.43-2.19,3.52l-11.96,.87c-1.34,.1-2.54-1.32-2.67-3.17l-3.07-42.43c-.13-1.85,.85-3.43,2.19-3.52l1.45-.11c-.21,.77,.11,1.59,.78,2.03,.14,.07,.29,.1,.44,.09l6.82-.49c.64-.05,1.1-.8,1.04-1.68-.01-.2-.06-.4-.13-.59l1.55-.11c1.34-.1,2.54,1.32,2.67,3.17h.01Z" style="fill:#fff;"/><polygon points="433.56 392.89 429.61 381.28 472.51 360.54 478.33 377.67 433.56 392.89" style="fill:#ffb8b8;"/><path d="M423.32,399.68l-12.72-37.43,.47-.16c8.05-2.74,16.78,1.57,19.52,9.61h0l7.77,22.86-15.04,5.11h0Z" style="fill:#2f2e41;"/><path d="M603.8,401.17c-9.2,.52-18.37-1.4-26.59-5.57l-50.44-34.31-58.9,21.81c-3.24,1.1-6.79-.49-8.11-3.65l-2.89-6.94c-1.37-3.25,.12-7,3.34-8.42l56.27-25.27c6.76-3.02,14.33-3.68,21.51-1.86l78.11,19.91,20.65,24.52-.23,.32c-10.14,13.98-22.16,18.71-32.72,19.48v-.02Z" style="fill:#2f2e41;"/><circle cx="667.6" cy="274.15" r="24.56" style="fill:#ffb8b8;"/><path d="M642.38,392.31l-39.53-29.42,26.96-19.16c-.77-2.48-4.19-16.67,14.52-26.34,5.92-3.06,10.19-5.7,12.68-7.83,3.54-3.05,8.07-4.7,12.74-4.65,10.48,.17,18.84,8.8,18.67,19.27-.03,1.79-.31,3.57-.84,5.29-3.9,12.68-10.11,29.48-17.57,37.52-8.43,9.08-17.57,17.47-27.33,25.09l-.3,.22h0Z" style="fill:#d1a674;"/><polygon points="439.83 403.18 435.88 391.57 478.78 370.83 484.6 387.96 439.83 403.18" style="fill:#ffb8b8;"/><path d="M429.58,409.96l-12.72-37.43,.47-.16c8.05-2.74,16.78,1.57,19.52,9.61h0l7.77,22.86-15.04,5.11h0Z" style="fill:#2f2e41;"/><path d="M610.07,411.46c-9.2,.52-18.37-1.4-26.59-5.57l-50.44-34.31-58.9,21.81c-3.24,1.1-6.79-.49-8.11-3.65l-2.89-6.94c-1.37-3.25,.12-7,3.34-8.42l56.27-25.27c6.76-3.02,14.33-3.68,21.51-1.86l78.11,19.91,20.65,24.52-.23,.32c-10.14,13.98-22.16,18.71-32.72,19.48v-.02Z" style="fill:#2f2e41;"/><path d="M598.73,330.2c.31,.46,.58,.95,.8,1.45l48.95,7.95,7.63-9.32,15.57,9.68-11.91,17.81c-1.98,2.96-5.67,4.25-9.06,3.18l-53.81-16.98c-4.37,3.81-11,3.35-14.81-1.02s-3.35-11,1.02-14.81,11-3.35,14.81,1.02c.29,.33,.55,.67,.79,1.03h.02Z" style="fill:#ffb8b8;"/><path d="M648.16,337.07c-.21-1.29,.15-2.61,1-3.61l14.53-17.29c3.61-5.88,11.31-7.72,17.19-4.1,5.86,3.6,7.71,11.26,4.14,17.13l-8.91,20.83c-.98,2.28-3.62,3.34-5.91,2.37-.2-.09-.4-.19-.59-.3l-19.36-11.91c-1.12-.69-1.88-1.82-2.08-3.11h-.01Z" style="fill:#d1a674;"/><path d="M661.03,301.2c7.14-9.18,11.09-20.44,11.28-32.06-3.36,2.5-7.16,4.33-11.21,5.41-4.29,1.14-9.01,1.37-13.05-.47-5.69-2.59-9.05-9.2-8.41-15.42s4.94-11.77,10.54-14.56c5.73-2.68,12.26-3.07,18.27-1.11,6.49-5.53,15.62-6.75,23.33-3.11,8.69,4.27,13.5,14.15,14.34,23.8s-1.64,19.24-4.1,28.61l-.28,1.06c-.77,2.92-2.99,8.51-2.99,8.51,0,0-12.92-2.55-18.05-4.18-7.44,2.69-19.67,3.52-19.67,3.52h0Z" style="fill:#2f2e41;"/><path d="M599.46,303.56l-10.52,.76c-.55,.04-1.03-.38-1.07-.93s.37-1.03,.92-1.07l10.52-.76c.55-.04,1.03,.37,1.07,.92,.04,.55-.37,1.03-.92,1.07h0Z" style="fill:#3f3d56;"/><path d="M599.82,308.54l-10.52,.76c-.55,.04-1.03-.37-1.07-.92-.04-.55,.37-1.03,.92-1.07h0l10.52-.76c.55-.04,1.03,.38,1.07,.93s-.37,1.03-.92,1.07h0Z" style="fill:#3f3d56;"/><path d="M600.18,313.53l-10.52,.76c-.55,.04-1.03-.38-1.07-.93s.37-1.03,.92-1.07l10.52-.76c.55-.04,1.03,.38,1.07,.93s-.37,1.03-.92,1.07Z" style="fill:#3f3d56;"/><path d="M905,510.5H1c-.55,0-1-.45-1-1s.45-1,1-1H905c.55,0,1,.45,1,1s-.45,1-1,1Z" style="fill:#3f3d56;"/><path d="M480.78,177.5h-101c-4.97,0-8.99-4.03-9-9V81.5c0-4.97,4.03-8.99,9-9h101c4.97,0,8.99,4.03,9,9v87c0,4.97-4.03,8.99-9,9Zm-101-103c-3.86,0-7,3.14-7,7v87c0,3.86,3.14,7,7,7h101c3.86,0,7-3.14,7-7V81.5c0-3.86-3.14-7-7-7h-101Z" style="fill:#cecece;"/><path d="M466.01,164h-71.47c-4.69,0-8.49-3.81-8.5-8.5v-61c0-4.69,3.81-8.49,8.5-8.5h71.47c4.69,0,8.49,3.81,8.5,8.5v61c0,4.69-3.81,8.49-8.5,8.5Z" style="fill:#cecece;"/><circle cx="430.78" cy="54.5" r="5" style="fill:#c1c1c1;"/><polygon points="441.29 74.01 430.78 56.45 420.33 74.01 418.61 72.99 430.78 52.55 443.01 72.99 441.29 74.01" style="fill:#c1c1c1;"/><path d="M442.28,118c0-1.51-.17-3.02-.5-4.5h-15c-2.21,0-4,1.79-4,4v21.42c10.98-.78,19.5-9.91,19.5-20.92Z" style="fill:#71cc96;"/><path d="M421.28,140c-12.15,0-22-9.84-22.01-21.99s9.84-22,21.99-22.01c10.34,0,19.28,7.19,21.5,17.29l.27,1.21h-16.25c-1.66,0-3,1.34-3,3v22.36l-1.1,.08c-.46,.03-.93,.07-1.4,.07h0Zm0-42.01c-11.05,0-20,8.95-20,20s8.95,20,20,20c.17,0,.33,0,.5,0v-20.49c0-2.76,2.24-5,5-5h13.72c-2.49-8.56-10.31-14.46-19.22-14.5Z" style="fill:#fff;"/><path d="M450.78,146.5h-24c-2.76,0-5-2.24-5-5v-3.51l.93-.07c10.99-.76,19.28-10.28,18.52-21.27-.07-.99-.21-1.97-.43-2.94l-.27-1.21h10.24c2.76,0,5,2.24,5,5v24c0,2.76-2.24,5-5,5h.01Zm-27-6.66v1.66c0,1.66,1.34,3,3,3h24c1.66,0,3-1.34,3-3v-24c0-1.66-1.34-3-3-3h-7.79c.19,1.16,.29,2.33,.29,3.5-.04,11.16-8.41,20.54-19.5,21.84Z" style="fill:#fff;"/></svg>