<?xml version="1.0" encoding="UTF-8"?>
<svg id="_图层_1" data-name="图层 1" xmlns="http://www.w3.org/2000/svg" viewBox="0 0 352.11 352.11">
  <g style="opacity: .5;">
    <path d="M315.55,162.85H47.88c-3.61,0-7.23-.07-10.84,0-.16,0-.32,0-.47,0-3.22,0-3.22,5,0,5h267.67c3.61,0,7.23.07,10.84,0,.16,0,.32,0,.47,0,3.22,0,3.22-5,0-5h0Z" style="fill: #d8d8d8; stroke-width: 0px;"/>
  </g>
  <g style="opacity: .5;">
    <path d="M315.55,215.91H47.88c-3.61,0-7.23-.07-10.84,0-.16,0-.32,0-.47,0-3.22,0-3.22,5,0,5h267.67c3.61,0,7.23.07,10.84,0,.16,0,.32,0,.47,0,3.22,0,3.22-5,0-5h0Z" style="fill: #d8d8d8; stroke-width: 0px;"/>
  </g>
  <g style="opacity: .5;">
    <path d="M315.55,109.78H47.88c-3.61,0-7.23-.07-10.84,0-.16,0-.32,0-.47,0-3.22,0-3.22,5,0,5h267.67c3.61,0,7.23.07,10.84,0,.16,0,.32,0,.47,0,3.22,0,3.22-5,0-5h0Z" style="fill: #d8d8d8; stroke-width: 0px;"/>
  </g>
  <rect x="97.04" y="61.59" width="53.07" height="154.45" transform="translate(262.39 15.24) rotate(90)" style="fill: #466eaf; stroke-width: 0px;"/>
  <rect x="224.13" y="170.33" width="53.07" height="43.11" transform="translate(442.55 -58.78) rotate(90)" style="fill: #565656; stroke-width: 0px;"/>
  <text transform="translate(120.19 141.95)" style="fill: #fff; font-family: HelveticaNeue-Bold, &apos;Helvetica Neue&apos;; font-size: 11.37px; font-weight: 700;"><tspan x="0" y="0">A</tspan></text>
  <text transform="translate(246.61 196.34)" style="fill: #fff; font-family: HelveticaNeue-Bold, &apos;Helvetica Neue&apos;; font-size: 11.37px; font-weight: 700;"><tspan x="0" y="0">D</tspan></text>
  <line x1="200.8" y1="112.28" x2="200.8" y2="292.42" style="fill: none; stroke: #565656; stroke-miterlimit: 10; stroke-width: .5px;"/>
  <line x1="229.11" y1="165.35" x2="229.11" y2="292.42" style="fill: none; stroke: #565656; stroke-miterlimit: 10; stroke-width: .5px;"/>
  <rect x="200.8" y="275.4" width="28.31" height="17.03" style="fill: #565656; stroke-width: 0px;"/>
  <text transform="translate(204.69 287.03)" style="fill: #fff; font-family: HelveticaNeue-ThinItalic, &apos;Helvetica Neue&apos;; font-size: 8.06px; font-style: italic; font-weight: 200; letter-spacing: .07em;"><tspan x="0" y="0">Delay</tspan></text>
  <line x1="272.22" y1="165.35" x2="272.22" y2="309.45" style="fill: none; stroke: #565656; stroke-miterlimit: 10; stroke-width: .5px;"/>
  <rect x="229.11" y="292.42" width="43.11" height="17.03" style="fill: #565656; stroke-width: 0px;"/>
  <text transform="translate(234.29 303.55)" style="fill: #fff; font-family: HelveticaNeue-ThinItalic, &apos;Helvetica Neue&apos;; font-size: 8.06px; font-style: italic; font-weight: 200;"><tspan x="0" y="0" style="letter-spacing: .07em;">Du</tspan><tspan x="10.8" y="0" style="letter-spacing: .06em;">r</tspan><tspan x="13.49" y="0" style="letter-spacing: .07em;">ation</tspan></text>
</svg>