<?xml version="1.0" encoding="UTF-8"?>
<svg id="_图层_1" data-name="图层 1" xmlns="http://www.w3.org/2000/svg" xmlns:xlink="http://www.w3.org/1999/xlink" viewBox="0 0 352.11 352.11">
  <defs>
    <clipPath id="clippath">
      <rect x="105.03" y="165.35" width="15" height="53.07" style="fill: none; stroke-width: 0px;"/>
    </clipPath>
  </defs>
  <g style="opacity: .5;">
    <path d="M315.55,215.91H47.88c-3.61,0-7.23-.07-10.84,0-.16,0-.32,0-.47,0-3.22,0-3.22,5,0,5h267.67c3.61,0,7.23.07,10.84,0,.16,0,.32,0,.47,0,3.22,0,3.22-5,0-5h0Z" style="fill: #d8d8d8; stroke-width: 0px;"/>
  </g>
  <g style="opacity: .5;">
    <path d="M315.55,109.78H47.88c-3.61,0-7.23-.07-10.84,0-.16,0-.32,0-.47,0-3.22,0-3.22,5,0,5h267.67c3.61,0,7.23.07,10.84,0,.16,0,.32,0,.47,0,3.22,0,3.22-5,0-5h0Z" style="fill: #d8d8d8; stroke-width: 0px;"/>
  </g>
  <g style="opacity: .5;">
    <path d="M315.55,162.85H47.88c-3.61,0-7.23-.07-10.84,0-.16,0-.32,0-.47,0-3.22,0-3.22,5,0,5h267.67c3.61,0,7.23.07,10.84,0,.16,0,.32,0,.47,0,3.22,0,3.22-5,0-5H47.88c-3.61,0-7.23-.07-10.84,0-.16,0-.32,0-.47,0-3.22,0-3.22,5,0,5h267.67c3.61,0,7.23.07,10.84,0,.16,0,.32,0,.47,0,3.22,0,3.22-5,0-5Z" style="fill: #d8d8d8; stroke-width: 0px;"/>
  </g>
  <rect x="55.15" y="153.54" width="53.07" height="76.69" transform="translate(273.56 110.2) rotate(90)" style="fill: #466eaf; stroke-width: 0px;"/>
  <rect x="105.03" y="165.35" width="15" height="53.07" style="fill: #afbbd8; stroke-width: 0px;"/>
  <text transform="translate(79.21 195.02)" style="fill: #fff; font-family: HelveticaNeue-Bold, &apos;Helvetica Neue&apos;; font-size: 11.37px; font-weight: 700;"><tspan x="0" y="0">A</tspan></text>
  <g style="clip-path: url(#clippath);">
    <g>
      <rect x="-44.64" y="342.06" width="226.56" height="1.01" transform="translate(-222.13 148.87) rotate(-45)" style="fill: #466eaf; stroke-width: 0px;"/>
      <rect x="-44.64" y="338.06" width="226.56" height="1.01" transform="translate(-219.3 147.7) rotate(-45)" style="fill: #466eaf; stroke-width: 0px;"/>
      <rect x="-44.64" y="334.06" width="226.56" height="1.01" transform="translate(-216.47 146.53) rotate(-45)" style="fill: #466eaf; stroke-width: 0px;"/>
      <rect x="-44.64" y="330.06" width="226.56" height="1.01" transform="translate(-213.64 145.35) rotate(-45)" style="fill: #466eaf; stroke-width: 0px;"/>
      <rect x="-44.64" y="326.06" width="226.56" height="1.01" transform="translate(-210.82 144.18) rotate(-45)" style="fill: #466eaf; stroke-width: 0px;"/>
      <rect x="-44.64" y="322.06" width="226.56" height="1.01" transform="translate(-207.99 143.01) rotate(-45)" style="fill: #466eaf; stroke-width: 0px;"/>
      <rect x="-44.64" y="318.06" width="226.56" height="1.01" transform="translate(-205.16 141.84) rotate(-45)" style="fill: #466eaf; stroke-width: 0px;"/>
      <rect x="-44.64" y="314.06" width="226.56" height="1.01" transform="translate(-202.33 140.67) rotate(-45)" style="fill: #466eaf; stroke-width: 0px;"/>
      <rect x="-44.64" y="310.06" width="226.56" height="1.01" transform="translate(-199.5 139.5) rotate(-45)" style="fill: #466eaf; stroke-width: 0px;"/>
      <rect x="-44.64" y="306.06" width="226.56" height="1.01" transform="translate(-196.67 138.32) rotate(-45)" style="fill: #466eaf; stroke-width: 0px;"/>
      <rect x="-44.64" y="302.06" width="226.56" height="1.01" transform="translate(-193.85 137.15) rotate(-45)" style="fill: #466eaf; stroke-width: 0px;"/>
      <rect x="-44.64" y="298.06" width="226.56" height="1.01" transform="translate(-191.02 135.98) rotate(-45)" style="fill: #466eaf; stroke-width: 0px;"/>
      <rect x="-44.64" y="294.06" width="226.56" height="1.01" transform="translate(-188.19 134.81) rotate(-45)" style="fill: #466eaf; stroke-width: 0px;"/>
      <rect x="-44.64" y="290.06" width="226.56" height="1.01" transform="translate(-185.36 133.64) rotate(-45)" style="fill: #466eaf; stroke-width: 0px;"/>
      <rect x="-44.64" y="286.06" width="226.56" height="1.01" transform="translate(-182.53 132.47) rotate(-45)" style="fill: #466eaf; stroke-width: 0px;"/>
      <rect x="-44.64" y="282.06" width="226.56" height="1.01" transform="translate(-179.7 131.3) rotate(-45)" style="fill: #466eaf; stroke-width: 0px;"/>
      <rect x="-44.64" y="278.06" width="226.56" height="1.01" transform="translate(-176.87 130.12) rotate(-45)" style="fill: #466eaf; stroke-width: 0px;"/>
      <rect x="-44.64" y="274.06" width="226.56" height="1.01" transform="translate(-174.05 128.95) rotate(-45)" style="fill: #466eaf; stroke-width: 0px;"/>
      <rect x="-44.64" y="270.06" width="226.56" height="1.01" transform="translate(-171.22 127.78) rotate(-45)" style="fill: #466eaf; stroke-width: 0px;"/>
      <rect x="-44.64" y="266.06" width="226.56" height="1.01" transform="translate(-168.39 126.61) rotate(-45)" style="fill: #466eaf; stroke-width: 0px;"/>
      <rect x="-44.64" y="262.06" width="226.56" height="1.01" transform="translate(-165.56 125.44) rotate(-45)" style="fill: #466eaf; stroke-width: 0px;"/>
      <rect x="-44.64" y="258.06" width="226.56" height="1.01" transform="translate(-162.73 124.27) rotate(-45)" style="fill: #466eaf; stroke-width: 0px;"/>
      <rect x="-44.64" y="254.06" width="226.56" height="1.01" transform="translate(-159.9 123.09) rotate(-45)" style="fill: #466eaf; stroke-width: 0px;"/>
      <rect x="-44.64" y="250.06" width="226.56" height="1.01" transform="translate(-157.08 121.92) rotate(-45)" style="fill: #466eaf; stroke-width: 0px;"/>
      <rect x="-44.64" y="246.06" width="226.56" height="1.01" transform="translate(-154.25 120.75) rotate(-45)" style="fill: #466eaf; stroke-width: 0px;"/>
      <rect x="-44.64" y="242.06" width="226.56" height="1.01" transform="translate(-151.42 119.58) rotate(-45)" style="fill: #466eaf; stroke-width: 0px;"/>
      <rect x="-44.64" y="238.06" width="226.56" height="1.01" transform="translate(-148.59 118.41) rotate(-45)" style="fill: #466eaf; stroke-width: 0px;"/>
      <rect x="-44.64" y="234.06" width="226.56" height="1.01" transform="translate(-145.76 117.24) rotate(-45)" style="fill: #466eaf; stroke-width: 0px;"/>
      <rect x="-44.64" y="230.06" width="226.56" height="1.01" transform="translate(-142.93 116.06) rotate(-45)" style="fill: #466eaf; stroke-width: 0px;"/>
      <rect x="-44.64" y="226.06" width="226.56" height="1.01" transform="translate(-140.11 114.89) rotate(-45)" style="fill: #466eaf; stroke-width: 0px;"/>
      <rect x="-44.64" y="222.06" width="226.56" height="1.01" transform="translate(-137.28 113.72) rotate(-45)" style="fill: #466eaf; stroke-width: 0px;"/>
      <rect x="-44.64" y="218.06" width="226.56" height="1.01" transform="translate(-134.45 112.55) rotate(-45)" style="fill: #466eaf; stroke-width: 0px;"/>
      <rect x="-44.64" y="214.06" width="226.56" height="1.01" transform="translate(-131.62 111.38) rotate(-45)" style="fill: #466eaf; stroke-width: 0px;"/>
      <rect x="-44.64" y="210.06" width="226.56" height="1.01" transform="translate(-128.79 110.21) rotate(-45)" style="fill: #466eaf; stroke-width: 0px;"/>
      <rect x="-44.64" y="206.06" width="226.56" height="1.01" transform="translate(-125.96 109.04) rotate(-45)" style="fill: #466eaf; stroke-width: 0px;"/>
      <rect x="-44.64" y="202.06" width="226.56" height="1.01" transform="translate(-123.13 107.86) rotate(-45)" style="fill: #466eaf; stroke-width: 0px;"/>
      <rect x="-44.64" y="198.06" width="226.56" height="1.01" transform="translate(-120.31 106.69) rotate(-45)" style="fill: #466eaf; stroke-width: 0px;"/>
      <rect x="-44.64" y="194.06" width="226.56" height="1.01" transform="translate(-117.48 105.52) rotate(-45)" style="fill: #466eaf; stroke-width: 0px;"/>
      <rect x="-44.64" y="190.06" width="226.56" height="1.01" transform="translate(-114.65 104.35) rotate(-45)" style="fill: #466eaf; stroke-width: 0px;"/>
      <rect x="-44.64" y="186.06" width="226.56" height="1.01" transform="translate(-111.82 103.18) rotate(-45)" style="fill: #466eaf; stroke-width: 0px;"/>
      <rect x="-44.64" y="182.06" width="226.56" height="1.01" transform="translate(-108.99 102.01) rotate(-45)" style="fill: #466eaf; stroke-width: 0px;"/>
      <rect x="-44.64" y="178.06" width="226.56" height="1.01" transform="translate(-106.16 100.83) rotate(-45)" style="fill: #466eaf; stroke-width: 0px;"/>
      <rect x="-44.64" y="174.06" width="226.56" height="1.01" transform="translate(-103.34 99.66) rotate(-45)" style="fill: #466eaf; stroke-width: 0px;"/>
      <rect x="-44.64" y="170.06" width="226.56" height="1.01" transform="translate(-100.51 98.49) rotate(-45)" style="fill: #466eaf; stroke-width: 0px;"/>
      <rect x="-44.64" y="166.06" width="226.56" height="1.01" transform="translate(-97.68 97.32) rotate(-45)" style="fill: #466eaf; stroke-width: 0px;"/>
      <rect x="-44.64" y="162.06" width="226.56" height="1.01" transform="translate(-94.85 96.15) rotate(-45)" style="fill: #466eaf; stroke-width: 0px;"/>
      <rect x="-44.64" y="158.06" width="226.56" height="1.01" transform="translate(-92.02 94.98) rotate(-45)" style="fill: #466eaf; stroke-width: 0px;"/>
      <rect x="-44.64" y="154.06" width="226.56" height="1.01" transform="translate(-89.19 93.8) rotate(-45)" style="fill: #466eaf; stroke-width: 0px;"/>
      <rect x="-44.64" y="150.06" width="226.56" height="1.01" transform="translate(-86.37 92.63) rotate(-45)" style="fill: #466eaf; stroke-width: 0px;"/>
      <rect x="-44.64" y="146.06" width="226.56" height="1.01" transform="translate(-83.54 91.46) rotate(-45)" style="fill: #466eaf; stroke-width: 0px;"/>
      <rect x="-44.64" y="142.06" width="226.56" height="1.01" transform="translate(-80.71 90.29) rotate(-45)" style="fill: #466eaf; stroke-width: 0px;"/>
    </g>
  </g>
  <rect x="136.76" y="80.55" width="53.07" height="116.53" transform="translate(302.11 -24.48) rotate(90)" style="fill: #466eaf; stroke-width: 0px;"/>
  <text transform="translate(158.25 142.89)" style="fill: #fff; font-family: HelveticaNeue-Bold, &apos;Helvetica Neue&apos;; font-size: 11.37px; font-weight: 700;"><tspan x="0" y="0">D</tspan></text>
  <rect x="244.89" y="170.33" width="53.07" height="43.11" transform="translate(463.31 -79.55) rotate(90)" style="fill: #565656; stroke-width: 0px;"/>
  <line x1="221.56" y1="112.28" x2="221.56" y2="292.42" style="fill: none; stroke: #565656; stroke-miterlimit: 10; stroke-width: .5px;"/>
  <line x1="249.87" y1="165.35" x2="249.87" y2="292.42" style="fill: none; stroke: #565656; stroke-miterlimit: 10; stroke-width: .5px;"/>
  <rect x="221.56" y="275.4" width="28.31" height="17.03" style="fill: #565656; stroke-width: 0px;"/>
  <text transform="translate(225.45 287.03)" style="fill: #fff; font-family: HelveticaNeue-ThinItalic, &apos;Helvetica Neue&apos;; font-size: 8.06px; font-style: italic; font-weight: 200; letter-spacing: .07em;"><tspan x="0" y="0">Delay</tspan></text>
  <line x1="292.98" y1="165.35" x2="292.98" y2="309.45" style="fill: none; stroke: #565656; stroke-miterlimit: 10; stroke-width: .5px;"/>
  <rect x="249.87" y="292.42" width="43.11" height="17.03" style="fill: #565656; stroke-width: 0px;"/>
  <text transform="translate(255.05 303.55)" style="fill: #fff; font-family: HelveticaNeue-ThinItalic, &apos;Helvetica Neue&apos;; font-size: 8.06px; font-style: italic; font-weight: 200;"><tspan x="0" y="0" style="letter-spacing: .07em;">Du</tspan><tspan x="10.8" y="0" style="letter-spacing: .06em;">r</tspan><tspan x="13.49" y="0" style="letter-spacing: .07em;">ation</tspan></text>
  <text transform="translate(268.27 195.02)" style="fill: #fff; font-family: HelveticaNeue-Bold, &apos;Helvetica Neue&apos;; font-size: 11.37px; font-weight: 700;"><tspan x="0" y="0">A</tspan></text>
</svg>