<?xml version="1.0" encoding="UTF-8"?>
<svg id="_图层_1" data-name="图层 1" xmlns="http://www.w3.org/2000/svg" xmlns:xlink="http://www.w3.org/1999/xlink" viewBox="0 0 352.11 352.11">
  <defs>
    <clipPath id="clippath">
      <rect x="222.86" y="165.35" width="34.28" height="53.07" style="fill: none; stroke-width: 0px;"/>
    </clipPath>
    <clipPath id="clippath-1">
      <rect x="145.78" y="112.28" width="15" height="53.07" style="fill: none; stroke-width: 0px;"/>
    </clipPath>
    <clipPath id="clippath-2">
      <rect x="69.17" y="165.35" width="34.28" height="53.07" style="fill: none; stroke-width: 0px;"/>
    </clipPath>
  </defs>
  <g style="opacity: .5;">
    <path d="M315.55,215.91H47.88c-3.61,0-7.23-.07-10.84,0-.16,0-.32,0-.47,0-3.22,0-3.22,5,0,5h267.67c3.61,0,7.23.07,10.84,0,.16,0,.32,0,.47,0,3.22,0,3.22-5,0-5h0Z" style="fill: #d8d8d8; stroke-width: 0px;"/>
  </g>
  <g style="opacity: .5;">
    <path d="M315.55,109.78H47.88c-3.61,0-7.23-.07-10.84,0-.16,0-.32,0-.47,0-3.22,0-3.22,5,0,5h267.67c3.61,0,7.23.07,10.84,0,.16,0,.32,0,.47,0,3.22,0,3.22-5,0-5h0Z" style="fill: #d8d8d8; stroke-width: 0px;"/>
  </g>
  <g style="opacity: .5;">
    <path d="M315.55,162.85H47.88c-3.61,0-7.23-.07-10.84,0-.16,0-.32,0-.47,0-3.22,0-3.22,5,0,5h267.67c3.61,0,7.23.07,10.84,0,.16,0,.32,0,.47,0,3.22,0,3.22-5,0-5H47.88c-3.61,0-7.23-.07-10.84,0-.16,0-.32,0-.47,0-3.22,0-3.22,5,0,5h267.67c3.61,0,7.23.07,10.84,0,.16,0,.32,0,.47,0,3.22,0,3.22-5,0-5Z" style="fill: #d8d8d8; stroke-width: 0px;"/>
  </g>
  <rect x="174.93" y="136.2" width="53.07" height="111.35" transform="translate(393.34 -9.58) rotate(90)" style="fill: #466eaf; stroke-width: 0px;"/>
  <rect x="222.86" y="165.35" width="34.4" height="53.07" style="fill: #afbbd8; stroke-width: 0px;"/>
  <rect x="88.41" y="92.97" width="53.07" height="91.69" transform="translate(253.75 23.88) rotate(90)" style="fill: #466eaf; stroke-width: 0px;"/>
  <rect x="145.78" y="112.28" width="15" height="53.07" style="fill: #afbbd8; stroke-width: 0px;"/>
  <rect x="226.41" y="108.74" width="53.07" height="60.16" transform="translate(391.76 -114.13) rotate(90)" style="fill: #466eaf; stroke-width: 0px;"/>
  <text transform="translate(110.98 141.95)" style="fill: #fff; font-family: HelveticaNeue-Bold, &apos;Helvetica Neue&apos;; font-size: 11.37px; font-weight: 700;"><tspan x="0" y="0">A</tspan></text>
  <text transform="translate(249.39 141.95)" style="fill: #fff; font-family: HelveticaNeue-Bold, &apos;Helvetica Neue&apos;; font-size: 11.37px; font-weight: 700;"><tspan x="0" y="0">A</tspan></text>
  <text transform="translate(196.61 195.02)" style="fill: #fff; font-family: HelveticaNeue-Bold, &apos;Helvetica Neue&apos;; font-size: 11.37px; font-weight: 700;"><tspan x="0" y="0">D</tspan></text>
  <rect x="47.93" y="162.9" width="53.07" height="57.96" transform="translate(266.35 117.41) rotate(90)" style="fill: #466eaf; stroke-width: 0px;"/>
  <rect x="69.17" y="165.35" width="34.28" height="53.07" style="fill: #afbbd8; stroke-width: 0px;"/>
  <text transform="translate(53.17 195.02)" style="fill: #fff; font-family: HelveticaNeue-Bold, &apos;Helvetica Neue&apos;; font-size: 11.37px; font-weight: 700;"><tspan x="0" y="0">D</tspan></text>
  <g style="clip-path: url(#clippath);">
    <g>
      <rect x="73.19" y="342.06" width="226.56" height="1.01" transform="translate(-187.62 232.19) rotate(-45)" style="fill: #466eaf; stroke-width: 0px;"/>
      <rect x="73.19" y="338.06" width="226.56" height="1.01" transform="translate(-184.79 231.02) rotate(-45)" style="fill: #466eaf; stroke-width: 0px;"/>
      <rect x="73.19" y="334.06" width="226.56" height="1.01" transform="translate(-181.96 229.85) rotate(-45)" style="fill: #466eaf; stroke-width: 0px;"/>
      <rect x="73.19" y="330.06" width="226.56" height="1.01" transform="translate(-179.13 228.68) rotate(-45)" style="fill: #466eaf; stroke-width: 0px;"/>
      <rect x="73.19" y="326.06" width="226.56" height="1.01" transform="translate(-176.3 227.5) rotate(-45)" style="fill: #466eaf; stroke-width: 0px;"/>
      <rect x="73.19" y="322.06" width="226.56" height="1.01" transform="translate(-173.47 226.33) rotate(-45)" style="fill: #466eaf; stroke-width: 0px;"/>
      <rect x="73.19" y="318.06" width="226.56" height="1.01" transform="translate(-170.65 225.16) rotate(-45)" style="fill: #466eaf; stroke-width: 0px;"/>
      <rect x="73.19" y="314.06" width="226.56" height="1.01" transform="translate(-167.82 223.99) rotate(-45)" style="fill: #466eaf; stroke-width: 0px;"/>
      <rect x="73.19" y="310.06" width="226.56" height="1.01" transform="translate(-164.99 222.82) rotate(-45)" style="fill: #466eaf; stroke-width: 0px;"/>
      <rect x="73.19" y="306.06" width="226.56" height="1.01" transform="translate(-162.16 221.65) rotate(-45)" style="fill: #466eaf; stroke-width: 0px;"/>
      <rect x="73.19" y="302.06" width="226.56" height="1.01" transform="translate(-159.33 220.47) rotate(-45)" style="fill: #466eaf; stroke-width: 0px;"/>
      <rect x="73.19" y="298.06" width="226.56" height="1.01" transform="translate(-156.5 219.3) rotate(-45)" style="fill: #466eaf; stroke-width: 0px;"/>
      <rect x="73.19" y="294.06" width="226.56" height="1.01" transform="translate(-153.68 218.13) rotate(-45)" style="fill: #466eaf; stroke-width: 0px;"/>
      <rect x="73.19" y="290.06" width="226.56" height="1.01" transform="translate(-150.85 216.96) rotate(-45)" style="fill: #466eaf; stroke-width: 0px;"/>
      <rect x="73.19" y="286.06" width="226.56" height="1.01" transform="translate(-148.02 215.79) rotate(-45)" style="fill: #466eaf; stroke-width: 0px;"/>
      <rect x="73.19" y="282.06" width="226.56" height="1.01" transform="translate(-145.19 214.62) rotate(-45)" style="fill: #466eaf; stroke-width: 0px;"/>
      <rect x="73.19" y="278.06" width="226.56" height="1.01" transform="translate(-142.36 213.44) rotate(-45)" style="fill: #466eaf; stroke-width: 0px;"/>
      <rect x="73.19" y="274.06" width="226.56" height="1.01" transform="translate(-139.53 212.27) rotate(-45)" style="fill: #466eaf; stroke-width: 0px;"/>
      <rect x="73.19" y="270.06" width="226.56" height="1.01" transform="translate(-136.71 211.1) rotate(-45)" style="fill: #466eaf; stroke-width: 0px;"/>
      <rect x="73.19" y="266.06" width="226.56" height="1.01" transform="translate(-133.88 209.93) rotate(-45)" style="fill: #466eaf; stroke-width: 0px;"/>
      <rect x="73.19" y="262.06" width="226.56" height="1.01" transform="translate(-131.05 208.76) rotate(-45)" style="fill: #466eaf; stroke-width: 0px;"/>
      <rect x="73.19" y="258.06" width="226.56" height="1.01" transform="translate(-128.22 207.59) rotate(-45)" style="fill: #466eaf; stroke-width: 0px;"/>
      <rect x="73.19" y="254.06" width="226.56" height="1.01" transform="translate(-125.39 206.42) rotate(-45)" style="fill: #466eaf; stroke-width: 0px;"/>
      <rect x="73.19" y="250.06" width="226.56" height="1.01" transform="translate(-122.56 205.24) rotate(-45)" style="fill: #466eaf; stroke-width: 0px;"/>
      <rect x="73.19" y="246.06" width="226.56" height="1.01" transform="translate(-119.73 204.07) rotate(-45)" style="fill: #466eaf; stroke-width: 0px;"/>
      <rect x="73.19" y="242.06" width="226.56" height="1.01" transform="translate(-116.91 202.9) rotate(-45)" style="fill: #466eaf; stroke-width: 0px;"/>
      <rect x="73.19" y="238.06" width="226.56" height="1.01" transform="translate(-114.08 201.73) rotate(-45)" style="fill: #466eaf; stroke-width: 0px;"/>
      <rect x="73.19" y="234.06" width="226.56" height="1.01" transform="translate(-111.25 200.56) rotate(-45)" style="fill: #466eaf; stroke-width: 0px;"/>
      <rect x="73.19" y="230.06" width="226.56" height="1.01" transform="translate(-108.42 199.39) rotate(-45)" style="fill: #466eaf; stroke-width: 0px;"/>
      <rect x="73.19" y="226.06" width="226.56" height="1.01" transform="translate(-105.59 198.21) rotate(-45)" style="fill: #466eaf; stroke-width: 0px;"/>
      <rect x="73.19" y="222.06" width="226.56" height="1.01" transform="translate(-102.76 197.04) rotate(-45)" style="fill: #466eaf; stroke-width: 0px;"/>
      <rect x="73.19" y="218.06" width="226.56" height="1.01" transform="translate(-99.94 195.87) rotate(-45)" style="fill: #466eaf; stroke-width: 0px;"/>
      <rect x="73.19" y="214.06" width="226.56" height="1.01" transform="translate(-97.11 194.7) rotate(-45)" style="fill: #466eaf; stroke-width: 0px;"/>
      <rect x="73.19" y="210.06" width="226.56" height="1.01" transform="translate(-94.28 193.53) rotate(-45)" style="fill: #466eaf; stroke-width: 0px;"/>
      <rect x="73.19" y="206.06" width="226.56" height="1.01" transform="translate(-91.45 192.36) rotate(-45)" style="fill: #466eaf; stroke-width: 0px;"/>
      <rect x="73.19" y="202.06" width="226.56" height="1.01" transform="translate(-88.62 191.18) rotate(-45)" style="fill: #466eaf; stroke-width: 0px;"/>
      <rect x="73.19" y="198.06" width="226.56" height="1.01" transform="translate(-85.79 190.01) rotate(-45)" style="fill: #466eaf; stroke-width: 0px;"/>
      <rect x="73.19" y="194.06" width="226.56" height="1.01" transform="translate(-82.96 188.84) rotate(-45)" style="fill: #466eaf; stroke-width: 0px;"/>
      <rect x="73.19" y="190.06" width="226.56" height="1.01" transform="translate(-80.14 187.67) rotate(-45)" style="fill: #466eaf; stroke-width: 0px;"/>
      <rect x="73.19" y="186.06" width="226.56" height="1.01" transform="translate(-77.31 186.5) rotate(-45)" style="fill: #466eaf; stroke-width: 0px;"/>
      <rect x="73.19" y="182.06" width="226.56" height="1.01" transform="translate(-74.48 185.33) rotate(-45)" style="fill: #466eaf; stroke-width: 0px;"/>
      <rect x="73.19" y="178.06" width="226.56" height="1.01" transform="translate(-71.65 184.16) rotate(-45)" style="fill: #466eaf; stroke-width: 0px;"/>
      <rect x="73.19" y="174.06" width="226.56" height="1.01" transform="translate(-68.82 182.98) rotate(-45)" style="fill: #466eaf; stroke-width: 0px;"/>
      <rect x="73.19" y="170.06" width="226.56" height="1.01" transform="translate(-65.99 181.81) rotate(-45)" style="fill: #466eaf; stroke-width: 0px;"/>
      <rect x="73.19" y="166.06" width="226.56" height="1.01" transform="translate(-63.17 180.64) rotate(-45)" style="fill: #466eaf; stroke-width: 0px;"/>
      <rect x="73.19" y="162.06" width="226.56" height="1.01" transform="translate(-60.34 179.47) rotate(-45)" style="fill: #466eaf; stroke-width: 0px;"/>
      <rect x="73.19" y="158.06" width="226.56" height="1.01" transform="translate(-57.51 178.3) rotate(-45)" style="fill: #466eaf; stroke-width: 0px;"/>
      <rect x="73.19" y="154.06" width="226.56" height="1.01" transform="translate(-54.68 177.13) rotate(-45)" style="fill: #466eaf; stroke-width: 0px;"/>
      <rect x="73.19" y="150.06" width="226.56" height="1.01" transform="translate(-51.85 175.95) rotate(-45)" style="fill: #466eaf; stroke-width: 0px;"/>
      <rect x="73.19" y="146.06" width="226.56" height="1.01" transform="translate(-49.02 174.78) rotate(-45)" style="fill: #466eaf; stroke-width: 0px;"/>
      <rect x="73.19" y="142.06" width="226.56" height="1.01" transform="translate(-46.2 173.61) rotate(-45)" style="fill: #466eaf; stroke-width: 0px;"/>
    </g>
  </g>
  <g style="clip-path: url(#clippath-1);">
    <g>
      <rect x="-3.89" y="289" width="226.56" height="1.01" transform="translate(-172.67 162.15) rotate(-45)" style="fill: #466eaf; stroke-width: 0px;"/>
      <rect x="-3.89" y="285" width="226.56" height="1.01" transform="translate(-169.84 160.97) rotate(-45)" style="fill: #466eaf; stroke-width: 0px;"/>
      <rect x="-3.89" y="281" width="226.56" height="1.01" transform="translate(-167.01 159.8) rotate(-45)" style="fill: #466eaf; stroke-width: 0px;"/>
      <rect x="-3.89" y="277" width="226.56" height="1.01" transform="translate(-164.18 158.63) rotate(-45)" style="fill: #466eaf; stroke-width: 0px;"/>
      <rect x="-3.89" y="273" width="226.56" height="1.01" transform="translate(-161.36 157.46) rotate(-45)" style="fill: #466eaf; stroke-width: 0px;"/>
      <rect x="-3.89" y="269" width="226.56" height="1.01" transform="translate(-158.53 156.29) rotate(-45)" style="fill: #466eaf; stroke-width: 0px;"/>
      <rect x="-3.89" y="265" width="226.56" height="1.01" transform="translate(-155.7 155.12) rotate(-45)" style="fill: #466eaf; stroke-width: 0px;"/>
      <rect x="-3.89" y="261" width="226.56" height="1.01" transform="translate(-152.87 153.94) rotate(-45)" style="fill: #466eaf; stroke-width: 0px;"/>
      <rect x="-3.89" y="257" width="226.56" height="1.01" transform="translate(-150.04 152.77) rotate(-45)" style="fill: #466eaf; stroke-width: 0px;"/>
      <rect x="-3.89" y="253" width="226.56" height="1.01" transform="translate(-147.21 151.6) rotate(-45)" style="fill: #466eaf; stroke-width: 0px;"/>
      <rect x="-3.89" y="249" width="226.56" height="1.01" transform="translate(-144.39 150.43) rotate(-45)" style="fill: #466eaf; stroke-width: 0px;"/>
      <rect x="-3.89" y="245" width="226.56" height="1.01" transform="translate(-141.56 149.26) rotate(-45)" style="fill: #466eaf; stroke-width: 0px;"/>
      <rect x="-3.89" y="241" width="226.56" height="1.01" transform="translate(-138.73 148.09) rotate(-45)" style="fill: #466eaf; stroke-width: 0px;"/>
      <rect x="-3.89" y="237" width="226.56" height="1.01" transform="translate(-135.9 146.92) rotate(-45)" style="fill: #466eaf; stroke-width: 0px;"/>
      <rect x="-3.89" y="233" width="226.56" height="1.01" transform="translate(-133.07 145.74) rotate(-45)" style="fill: #466eaf; stroke-width: 0px;"/>
      <rect x="-3.89" y="229" width="226.56" height="1.01" transform="translate(-130.24 144.57) rotate(-45)" style="fill: #466eaf; stroke-width: 0px;"/>
      <rect x="-3.89" y="225" width="226.56" height="1.01" transform="translate(-127.41 143.4) rotate(-45)" style="fill: #466eaf; stroke-width: 0px;"/>
      <rect x="-3.89" y="221" width="226.56" height="1.01" transform="translate(-124.59 142.23) rotate(-45)" style="fill: #466eaf; stroke-width: 0px;"/>
      <rect x="-3.89" y="217" width="226.56" height="1.01" transform="translate(-121.76 141.06) rotate(-45)" style="fill: #466eaf; stroke-width: 0px;"/>
      <rect x="-3.89" y="213" width="226.56" height="1.01" transform="translate(-118.93 139.89) rotate(-45)" style="fill: #466eaf; stroke-width: 0px;"/>
      <rect x="-3.89" y="209" width="226.56" height="1.01" transform="translate(-116.1 138.71) rotate(-45)" style="fill: #466eaf; stroke-width: 0px;"/>
      <rect x="-3.89" y="205" width="226.56" height="1.01" transform="translate(-113.27 137.54) rotate(-45)" style="fill: #466eaf; stroke-width: 0px;"/>
      <rect x="-3.89" y="201" width="226.56" height="1.01" transform="translate(-110.44 136.37) rotate(-45)" style="fill: #466eaf; stroke-width: 0px;"/>
      <rect x="-3.89" y="197" width="226.56" height="1.01" transform="translate(-107.62 135.2) rotate(-45)" style="fill: #466eaf; stroke-width: 0px;"/>
      <rect x="-3.89" y="193" width="226.56" height="1.01" transform="translate(-104.79 134.03) rotate(-45)" style="fill: #466eaf; stroke-width: 0px;"/>
      <rect x="-3.89" y="189" width="226.56" height="1.01" transform="translate(-101.96 132.86) rotate(-45)" style="fill: #466eaf; stroke-width: 0px;"/>
      <rect x="-3.89" y="185" width="226.56" height="1.01" transform="translate(-99.13 131.68) rotate(-45)" style="fill: #466eaf; stroke-width: 0px;"/>
      <rect x="-3.89" y="181" width="226.56" height="1.01" transform="translate(-96.3 130.51) rotate(-45)" style="fill: #466eaf; stroke-width: 0px;"/>
      <rect x="-3.89" y="177" width="226.56" height="1.01" transform="translate(-93.47 129.34) rotate(-45)" style="fill: #466eaf; stroke-width: 0px;"/>
      <rect x="-3.89" y="173" width="226.56" height="1.01" transform="translate(-90.64 128.17) rotate(-45)" style="fill: #466eaf; stroke-width: 0px;"/>
      <rect x="-3.89" y="169" width="226.56" height="1.01" transform="translate(-87.82 127) rotate(-45)" style="fill: #466eaf; stroke-width: 0px;"/>
      <rect x="-3.89" y="165" width="226.56" height="1.01" transform="translate(-84.99 125.83) rotate(-45)" style="fill: #466eaf; stroke-width: 0px;"/>
      <rect x="-3.89" y="161" width="226.56" height="1.01" transform="translate(-82.16 124.66) rotate(-45)" style="fill: #466eaf; stroke-width: 0px;"/>
      <rect x="-3.89" y="157" width="226.56" height="1.01" transform="translate(-79.33 123.48) rotate(-45)" style="fill: #466eaf; stroke-width: 0px;"/>
      <rect x="-3.89" y="153" width="226.56" height="1.01" transform="translate(-76.5 122.31) rotate(-45)" style="fill: #466eaf; stroke-width: 0px;"/>
      <rect x="-3.89" y="149" width="226.56" height="1.01" transform="translate(-73.67 121.14) rotate(-45)" style="fill: #466eaf; stroke-width: 0px;"/>
      <rect x="-3.89" y="145" width="226.56" height="1.01" transform="translate(-70.85 119.97) rotate(-45)" style="fill: #466eaf; stroke-width: 0px;"/>
      <rect x="-3.89" y="141" width="226.56" height="1.01" transform="translate(-68.02 118.8) rotate(-45)" style="fill: #466eaf; stroke-width: 0px;"/>
      <rect x="-3.89" y="137" width="226.56" height="1.01" transform="translate(-65.19 117.63) rotate(-45)" style="fill: #466eaf; stroke-width: 0px;"/>
      <rect x="-3.89" y="133" width="226.56" height="1.01" transform="translate(-62.36 116.45) rotate(-45)" style="fill: #466eaf; stroke-width: 0px;"/>
      <rect x="-3.89" y="129" width="226.56" height="1.01" transform="translate(-59.53 115.28) rotate(-45)" style="fill: #466eaf; stroke-width: 0px;"/>
      <rect x="-3.89" y="125" width="226.56" height="1.01" transform="translate(-56.7 114.11) rotate(-45)" style="fill: #466eaf; stroke-width: 0px;"/>
      <rect x="-3.89" y="121" width="226.56" height="1.01" transform="translate(-53.88 112.94) rotate(-45)" style="fill: #466eaf; stroke-width: 0px;"/>
      <rect x="-3.89" y="117" width="226.56" height="1.01" transform="translate(-51.05 111.77) rotate(-45)" style="fill: #466eaf; stroke-width: 0px;"/>
      <rect x="-3.89" y="113" width="226.56" height="1.01" transform="translate(-48.22 110.6) rotate(-45)" style="fill: #466eaf; stroke-width: 0px;"/>
      <rect x="-3.89" y="109" width="226.56" height="1.01" transform="translate(-45.39 109.43) rotate(-45)" style="fill: #466eaf; stroke-width: 0px;"/>
      <rect x="-3.89" y="105" width="226.56" height="1.01" transform="translate(-42.56 108.25) rotate(-45)" style="fill: #466eaf; stroke-width: 0px;"/>
      <rect x="-3.89" y="101" width="226.56" height="1.01" transform="translate(-39.73 107.08) rotate(-45)" style="fill: #466eaf; stroke-width: 0px;"/>
      <rect x="-3.89" y="97" width="226.56" height="1.01" transform="translate(-36.9 105.91) rotate(-45)" style="fill: #466eaf; stroke-width: 0px;"/>
      <rect x="-3.89" y="93" width="226.56" height="1.01" transform="translate(-34.08 104.74) rotate(-45)" style="fill: #466eaf; stroke-width: 0px;"/>
      <rect x="-3.89" y="89" width="226.56" height="1.01" transform="translate(-31.25 103.57) rotate(-45)" style="fill: #466eaf; stroke-width: 0px;"/>
    </g>
  </g>
  <g style="clip-path: url(#clippath-2);">
    <g>
      <rect x="-80.5" y="342.06" width="226.56" height="1.01" transform="translate(-232.63 123.51) rotate(-45)" style="fill: #466eaf; stroke-width: 0px;"/>
      <rect x="-80.5" y="338.06" width="226.56" height="1.01" transform="translate(-229.8 122.34) rotate(-45)" style="fill: #466eaf; stroke-width: 0px;"/>
      <rect x="-80.5" y="334.06" width="226.56" height="1.01" transform="translate(-226.97 121.17) rotate(-45)" style="fill: #466eaf; stroke-width: 0px;"/>
      <rect x="-80.5" y="330.06" width="226.56" height="1.01" transform="translate(-224.15 120) rotate(-45)" style="fill: #466eaf; stroke-width: 0px;"/>
      <rect x="-80.5" y="326.06" width="226.56" height="1.01" transform="translate(-221.32 118.83) rotate(-45)" style="fill: #466eaf; stroke-width: 0px;"/>
      <rect x="-80.5" y="322.06" width="226.56" height="1.01" transform="translate(-218.49 117.66) rotate(-45)" style="fill: #466eaf; stroke-width: 0px;"/>
      <rect x="-80.5" y="318.06" width="226.56" height="1.01" transform="translate(-215.66 116.49) rotate(-45)" style="fill: #466eaf; stroke-width: 0px;"/>
      <rect x="-80.5" y="314.06" width="226.56" height="1.01" transform="translate(-212.83 115.31) rotate(-45)" style="fill: #466eaf; stroke-width: 0px;"/>
      <rect x="-80.5" y="310.06" width="226.56" height="1.01" transform="translate(-210 114.14) rotate(-45)" style="fill: #466eaf; stroke-width: 0px;"/>
      <rect x="-80.5" y="306.06" width="226.56" height="1.01" transform="translate(-207.18 112.97) rotate(-45)" style="fill: #466eaf; stroke-width: 0px;"/>
      <rect x="-80.5" y="302.06" width="226.56" height="1.01" transform="translate(-204.35 111.8) rotate(-45)" style="fill: #466eaf; stroke-width: 0px;"/>
      <rect x="-80.5" y="298.06" width="226.56" height="1.01" transform="translate(-201.52 110.63) rotate(-45)" style="fill: #466eaf; stroke-width: 0px;"/>
      <rect x="-80.5" y="294.06" width="226.56" height="1.01" transform="translate(-198.69 109.46) rotate(-45)" style="fill: #466eaf; stroke-width: 0px;"/>
      <rect x="-80.5" y="290.06" width="226.56" height="1.01" transform="translate(-195.86 108.28) rotate(-45)" style="fill: #466eaf; stroke-width: 0px;"/>
      <rect x="-80.5" y="286.06" width="226.56" height="1.01" transform="translate(-193.03 107.11) rotate(-45)" style="fill: #466eaf; stroke-width: 0px;"/>
      <rect x="-80.5" y="282.06" width="226.56" height="1.01" transform="translate(-190.21 105.94) rotate(-45)" style="fill: #466eaf; stroke-width: 0px;"/>
      <rect x="-80.5" y="278.06" width="226.56" height="1.01" transform="translate(-187.38 104.77) rotate(-45)" style="fill: #466eaf; stroke-width: 0px;"/>
      <rect x="-80.5" y="274.06" width="226.56" height="1.01" transform="translate(-184.55 103.6) rotate(-45)" style="fill: #466eaf; stroke-width: 0px;"/>
      <rect x="-80.5" y="270.06" width="226.56" height="1.01" transform="translate(-181.72 102.43) rotate(-45)" style="fill: #466eaf; stroke-width: 0px;"/>
      <rect x="-80.5" y="266.06" width="226.56" height="1.01" transform="translate(-178.89 101.26) rotate(-45)" style="fill: #466eaf; stroke-width: 0px;"/>
      <rect x="-80.5" y="262.06" width="226.56" height="1.01" transform="translate(-176.06 100.08) rotate(-45)" style="fill: #466eaf; stroke-width: 0px;"/>
      <rect x="-80.5" y="258.06" width="226.56" height="1.01" transform="translate(-173.23 98.91) rotate(-45)" style="fill: #466eaf; stroke-width: 0px;"/>
      <rect x="-80.5" y="254.06" width="226.56" height="1.01" transform="translate(-170.41 97.74) rotate(-45)" style="fill: #466eaf; stroke-width: 0px;"/>
      <rect x="-80.5" y="250.06" width="226.56" height="1.01" transform="translate(-167.58 96.57) rotate(-45)" style="fill: #466eaf; stroke-width: 0px;"/>
      <rect x="-80.5" y="246.06" width="226.56" height="1.01" transform="translate(-164.75 95.4) rotate(-45)" style="fill: #466eaf; stroke-width: 0px;"/>
      <rect x="-80.5" y="242.06" width="226.56" height="1.01" transform="translate(-161.92 94.23) rotate(-45)" style="fill: #466eaf; stroke-width: 0px;"/>
      <rect x="-80.5" y="238.06" width="226.56" height="1.01" transform="translate(-159.09 93.05) rotate(-45)" style="fill: #466eaf; stroke-width: 0px;"/>
      <rect x="-80.5" y="234.06" width="226.56" height="1.01" transform="translate(-156.26 91.88) rotate(-45)" style="fill: #466eaf; stroke-width: 0px;"/>
      <rect x="-80.5" y="230.06" width="226.56" height="1.01" transform="translate(-153.44 90.71) rotate(-45)" style="fill: #466eaf; stroke-width: 0px;"/>
      <rect x="-80.5" y="226.06" width="226.56" height="1.01" transform="translate(-150.61 89.54) rotate(-45)" style="fill: #466eaf; stroke-width: 0px;"/>
      <rect x="-80.5" y="222.06" width="226.56" height="1.01" transform="translate(-147.78 88.37) rotate(-45)" style="fill: #466eaf; stroke-width: 0px;"/>
      <rect x="-80.5" y="218.06" width="226.56" height="1.01" transform="translate(-144.95 87.2) rotate(-45)" style="fill: #466eaf; stroke-width: 0px;"/>
      <rect x="-80.5" y="214.06" width="226.56" height="1.01" transform="translate(-142.12 86.02) rotate(-45)" style="fill: #466eaf; stroke-width: 0px;"/>
      <rect x="-80.5" y="210.06" width="226.56" height="1.01" transform="translate(-139.29 84.85) rotate(-45)" style="fill: #466eaf; stroke-width: 0px;"/>
      <rect x="-80.5" y="206.06" width="226.56" height="1.01" transform="translate(-136.47 83.68) rotate(-45)" style="fill: #466eaf; stroke-width: 0px;"/>
      <rect x="-80.5" y="202.06" width="226.56" height="1.01" transform="translate(-133.64 82.51) rotate(-45)" style="fill: #466eaf; stroke-width: 0px;"/>
      <rect x="-80.5" y="198.06" width="226.56" height="1.01" transform="translate(-130.81 81.34) rotate(-45)" style="fill: #466eaf; stroke-width: 0px;"/>
      <rect x="-80.5" y="194.06" width="226.56" height="1.01" transform="translate(-127.98 80.17) rotate(-45)" style="fill: #466eaf; stroke-width: 0px;"/>
      <rect x="-80.5" y="190.06" width="226.56" height="1.01" transform="translate(-125.15 79) rotate(-45)" style="fill: #466eaf; stroke-width: 0px;"/>
      <rect x="-80.5" y="186.06" width="226.56" height="1.01" transform="translate(-122.32 77.82) rotate(-45)" style="fill: #466eaf; stroke-width: 0px;"/>
      <rect x="-80.5" y="182.06" width="226.56" height="1.01" transform="translate(-119.49 76.65) rotate(-45)" style="fill: #466eaf; stroke-width: 0px;"/>
      <rect x="-80.5" y="178.06" width="226.56" height="1.01" transform="translate(-116.67 75.48) rotate(-45)" style="fill: #466eaf; stroke-width: 0px;"/>
      <rect x="-80.5" y="174.06" width="226.56" height="1.01" transform="translate(-113.84 74.31) rotate(-45)" style="fill: #466eaf; stroke-width: 0px;"/>
      <rect x="-80.5" y="170.06" width="226.56" height="1.01" transform="translate(-111.01 73.14) rotate(-45)" style="fill: #466eaf; stroke-width: 0px;"/>
      <rect x="-80.5" y="166.06" width="226.56" height="1.01" transform="translate(-108.18 71.97) rotate(-45)" style="fill: #466eaf; stroke-width: 0px;"/>
      <rect x="-80.5" y="162.06" width="226.56" height="1.01" transform="translate(-105.35 70.79) rotate(-45)" style="fill: #466eaf; stroke-width: 0px;"/>
      <rect x="-80.5" y="158.06" width="226.56" height="1.01" transform="translate(-102.52 69.62) rotate(-45)" style="fill: #466eaf; stroke-width: 0px;"/>
      <rect x="-80.5" y="154.06" width="226.56" height="1.01" transform="translate(-99.7 68.45) rotate(-45)" style="fill: #466eaf; stroke-width: 0px;"/>
      <rect x="-80.5" y="150.06" width="226.56" height="1.01" transform="translate(-96.87 67.28) rotate(-45)" style="fill: #466eaf; stroke-width: 0px;"/>
      <rect x="-80.5" y="146.06" width="226.56" height="1.01" transform="translate(-94.04 66.11) rotate(-45)" style="fill: #466eaf; stroke-width: 0px;"/>
      <rect x="-80.5" y="142.06" width="226.56" height="1.01" transform="translate(-91.21 64.94) rotate(-45)" style="fill: #466eaf; stroke-width: 0px;"/>
    </g>
  </g>
</svg>