<svg xmlns="http://www.w3.org/2000/svg" viewBox="0 0 1303.9 850.4" xmlns:v="https://vecta.io/nano"><style><![CDATA[.G{stroke:#ececec}.H{stroke-linecap:round}.I{fill:#1490ed}]]></style><g stroke-width=".5" stroke-linejoin="round"><use href="#B" class="G I"/><g fill="none"><path d="M868 586.4v1.7c-.4-.2-.8-.4-1.1-.4-1.7.2-3.3.5-5 .5-1.5 0-2.3.8-2.6 2.1-.3 1.4-.4 2.9-.4 4.4-.2 4.3-3.7 7.4-8.8 4-.4-.3-.9-.1-1.3-.1-.4-.5-.8-.9-1.2-1.3-1.4 0-2.7 0-4.1-.2-1-.2-2.2-.4-3-1.1-2.2-1.9-3.9-1.7-5.6-1.2-1.8.5-3.4 1.4-5.2 1.8-1.1.3-2.6.6-3.8 0-1.7-1-3.3-1.9-5.3-1.9 0 1.2.2 2.4.3 3.6.2 2.7-.1 4.9-2.4 6-2.2 1-5.6-1-6.7-3.8l.5-2.7c0-.6 0-1.2.2-1.7.4-1.1.6-2.4 1.2-3.3 1.3-2.1 1.1-3.4-1.5-5.7-1.7-1.5-3.1-3.2-3.8-5.2-.3-.9-.3-1.8-.4-2.6l-2.2-.8c-1.4 2-3 3.6-4 5.7-.9 1.8-2.3 3.2-2.3 5.7 0 1.7-1 2.9-2.7 3-.6 0-1.2.4-1.6.5.8 3.4 3.1 6.7 1.9 9.4-1.8.3-3.7-.4-4.6 1l-2.8-.6c-3.1-3.8-1.7-6.9-2.1-10.4-.9-.4-1.7-.9-2.5-1.2-3.7-1.5-6.6-4.1-7.5-7.7-.2-.7-1-1.5-1.7-2.5-.7 2.8-1.8 4.9-4 5.8-.9.3-1.7.8-2.4 1.1 1.3 3.4 2.3 6.3 1.5 8.7-.9 0-1.7-.3-2.4-.2-2.3.3-4.8-1.4-5.3-4-.5-2.3-.4-4.5-.5-7-2.5-1.6-4.6-4.3-5.8-7.6-.4-1-1.1-1.9-1.7-2.9-.4.3-.7.3-.8.5-1.8 2.5-3.3 5.2-7 5.3-1.1 0-1.5.9-1.4 2.1v5c0 1.3-.3 2.4-1.4 2.7-2.1.5-4.2 1.3-7-.7-.6-2.4-1.3-4.7-2-7.3l1.7-3.7-10.1-7.3h-.4c-2.2 0-3.5 1.7-5.2 2.5-.7.3-1.4.7-2.2.5-.7 0-1.9-.8-2.1-1.3-.5-1.1-.4-2.2-.6-3.8 2.7 1.7 4 .6 5.1-.4 2.6-2.2 5.8-2 9.6.8 2.3-2.4 2.5-3.3.7-6.5-1 0-2.2 0-3.2.1-1.3.2-2.5.6-3.8.8-3.1.5-5-.8-6.8-4.5-.4-.8-.9-1.5-1.4-2.3-1.5.3-3.1 0-2.8 2 .2 1 1 2 1.6 3 .1 0 .3 0 .4-.1.2 1.1.3 2.3.5 3.3-1.2.3-2.2.6-3.4 1-.2 3.5-.5 7-5.2 6.2.2 4.4.4 8.7-4.5 9.3l-4.8-4.2v-8.6c-.6-.4-1.3-1.2-2-1.4-2.2-.6-4.4-.8-6.6-1.5-1.7-.6-2.8-.4-3.8.5s-2.4 1.2-2.7 3c-.3 2.3-.5 2.2-2.9 2.6-.4 0-.7.3-1.1.5-.5-.4-1-.8-1.2-.9-2.3-4 1.3-4.3 1.7-6.5-1-.2-1.7-.4-2.5-.6-2.1-.5-2.9.8-2 3.1.8 2.2 2.2 4.7.3 6.3-1.3-.3-2.7-.6-4.1-1.1-1.3-.5-2.8-1.5-2.9-3-.2-1.6-.2-3.3.4-4.4.8-1.5-.2-2.7-1.3-3.9-.5-.6-1.2-.9-1.8-1.5-1-1.1-2.4-2.2-2.9-3.5-1.5-3.2-3.3-6.2-5.5-9.2-.7-1-1.6-2.2-2.6-2-.8.2-1.6.5-1.7 1.9-.2 2.5-.9 4.8-1.5 7-1.1 3.6-1.9 7.5-5.1 9.4-1.1.7-1.4 2.4-2.1 3.7l-1.9-.7c-.2-1.1-.4-2-.7-3.2l-11.3-7.2c.5-1.2.8-2.3 1.3-3.4-.3-.5-.7-1.1-1.1-1.9 3 .7 3.3.8 5.8 2.6l3.4-.3c1.7-2.4-.2-5.9-1.2-9.1l-2.8-1.6c-2.4 1.8-5.1 3-8.6-1-2-.7-2.4.6-2.4 1.7-.1 2.5-1.3 4.2-2.2 6.2-1 2.3-2.9 3.9-4.3 5.7l-2.4 4.9c-1.3-2.2-2.6-4.1-3.6-6.1-1-2.1-2.4-3.5-4.2-4.5-1.5-.9-3-1.7-4.4-2.5-.3-1.2-.5-2.1-.7-3 .1 0 .2.1.3.2.2-.9.3-1.9.6-3.1l4.8 1.7c-.2-3-1.7-5.6-2.6-7.8l-5.9-2.1c-1.7.6-3.8 1.3-5.8 2.1-1.6.6-3.7.5-4.3 2.6-.1.4-1.1.2-1.7.4-1.4.4-3.5-.6-4.4 1.2l2.5 8c-.3 0-.7-.1-1.3-.2v4.4c-.9.2-2 .5-3 .7-1.3-.2-2.7 1.3-4.5-.8.5 0 .9 0 1.4-.2-.2-.6-.5-1.1-.6-1.5-4.2-1.4-1.5-4.1-3.1-6.2-3.5.2-7-1.1-10.1-5.4-.4-.2-1.1-.5-1.7-1.1-2.7-2.6-5.7-4.5-8.6-6.5-3.5-2.3-5.6-1.6-5.6 2v1.4c-.3 2.4-1.3 4.2-3.4 4.7-2.5.7-7.2-4-7.4-7 0-2.1-.2-4.2-.3-6.3-3-2.9-6-5.6-7.3-9.5-.2-.5-.4-1.1-.8-1.5-.7-.6-1.7-1.4-2.1-1.3-.6.1-1.1 1.1-1 1.7.3 1.3.9 2.9 1.8 4 1.3 1.4 1.6 2.7 1.7 4.1.1 1.3 0 2.5 0 3.8 0 2.8-.6 3.2-3.4 2.8-.6-.1-1.2 0-2 .1l3.4 2.4-.6-.2c-.8.5-1.7 0-2.6-.7-1.7-1.5-3.4-3.1-5.2-4.2-1.4-.8-2.1-1.4-2.2-2.9 0-1.4-.3-2.8-.5-4.6-1 .9-1.7 1.6-2.5 2.4-1.8-.5-2.6-1.3-2.7-3.2 0-1-.4-1.8-1-2.8-2-3.1-3.9-6.3-4.5-9.8-.5-2.5-1.3-5.1-1.8-7.5-1-.4-2.1-1.1-2.7-.9-2.3.7-4.3-1-6.2-2.9l-3.6-3.6c-.6 1.2-1.2 2-1.6 2.9-.3.9-.5 2-.7 2.9.1 2.9 2.8 3.3 4.2 4.6l5.2 1.1c-.1.9-.2 1.5-.3 2.1.3.7.9 1.4.9 2 .2 1.7-.9 2.8-2.6 2.7-1.2 0-2.4-.5-3.6-.5-2.6 0-4.7.7-5.7 3.1-.2.6-1.1.7-1.8.9-.1 0-.9-.7-.9-1.1-.3-1.5-.5-3.1-.7-4.9-2.2-2.5-4-5.7-5.1-9-1.2-3.8-2-7.5-3.1-11.3-.2-.6-.6-1.2-1.1-2.1-1.3 1.3-2.8 2.1-3.4 3.5-.8 2-2.3 2.6-4.5 2.6-1 0-1.9.5-2.8.7 1.7 6.4 1.7 8.3-1.5 9.2l-4.1-1.5c-.7-1.6-1.5-3.1-2.2-4.7-.6-.7-1.4-1.9-2.1-2.1-1.8-.4-2-1.8-2.4-3-.3-.9-.2-1.8-.3-2.6l-5.1-7-9.5-3.5c-.1.7-.4 1.1-.3 1.7.2 1.1.8 2.4.7 3.5-.1 1.9.2 4.2-1.8 4.8-.7.2-1.5.2-2 .2l-5.2-4.8c-.4-2.6-.8-5.6-1.2-8.7-3.1-2.5-4.4-3-4.5-7.6 0-1.1.2-2.4-1.7-3.4-.8-.4-1.8-2.2-1.9-3.2-.2-1.2.2-2.3 1.7-2.4.9 0 1.6-.6 2.5-1l-6.3-7.4c-.8 1.2-1.4 2.2-2 3.2-1 1.4-3 1.8-4.4.8-1-.8-2-1.8-3-2.7-1.9-1.7-3.8-3.3-6-5.2-.5 1.3-1 2.3-1.4 3.4l2.1 3.7c2 .6 3.6 1.2 5.9 1.9 1.2 1.5 2.8 3.7 4.5 5.7 1.4 1.6 3.1 2.9 4.5 4.3-1.2 3-2.7 2.9-4.9 0l-5.5-7.1h-10.6c1.9 3.2 1.8 5.6 1 7.9-.4 1.1-.3 2.4-2.2 2.3-3.1-.2-6.6-3-7-6.6-.2-1.9-.3-3.7-.2-5.5 0-1.6-.4-2.7-2-3.8-1-.7-2-1.7-2.6-2.7-1.8-2.9-3.3-5.9-5-9-2.5 2.5-3 7.7-8.5 6.4 1.1 6.1-1.3 9.9-5.7 9.1-.4-.6-.9-1.4-1.4-2.2l-.6-.2c.3 0 .5 0 .9.1-2.7-4.3-1.2-6.8 1-9.1-2.8-2.6-5.3-5.2-5.9-8.7-.1-.8-.4-1.6-.4-2.3 0-1.1.5-2 .3-3.1-.2-2.1.8-3 2.2-3.6.7-.3 1.2-1 1.9-1.7l-2-1.6c-.2 0-.4 0-.5.1-1 2.4-2.9 3.7-4.8 5.1-.8.6-1.4 1.7-1.8 2.7-1.1 2.9-3.7 3.3-6.8 2.7-.9-.2-1.9-.4-3-.7v4c0 3.7-2.3 4.8-6 2.8-1.3-.7-2.4-1.8-3.4-2.5-1.5-3.6-.6-5.7.9-7.6.4-.5 0-1.7 0-2.6-2.7-1.8-3.9-3.9-3.6-6.5.2-1.9-1.6-3.5-2.2-5.3-1.4 1.1-2.7 2.2-3.8 3.1-3.2-1.2-6.1-4.4-7.1-7.6-.4-1.4-.4-2.9-2.3-3.9-1.5.4-3-.2-4.9-1.2-1.8-1-3.6-1.3-4.7-3.8-.3-.7-1.5-1.2-2.4-2-.7 1.3-1.3 2.3-1.8 3.4l3 5.6-2.7 2.4-2.3-.8c-.4-.7-.8-1.2-1.1-1.8-.4-.9-.8-1.8-.5-2.8.7-2.5 1.1-5.2 1.7-7.8.1-.7.7-1.1 1-1.7s.5-1.2.8-1.9c-2.5-1.8-3.3-.2-4.6.5-1.2.6-2.2 1.4-3.4 1.9-2.6 1.1-4.7.5-7.2-2.2-1.7-1.9-3.2-4-4.6-6.1-.9-1.3-1.9-2.2-3.2-3.2-3.6-2.7-7.1-5.7-10.4-8.8-1.4-1.4-2.6-1.1-3.8-1.5-.7-.2-1.3 0-2 .1-.3-1.2-.7-2.2-1-3.3 1.8-1.1 3.6-2.2 5.5-3.1v-3.1l356.3 129.5c.7.2 1.5.4 2.2.8l28 10.2c1 .4 2.1.7 3.2 1.1.4.1.7.3 1 .4l43.5 15.8v-.2l11.5 4.2c.9.3 1.9.5 2.8.8 4.5 1.7 8.9 3.6 13.4 5.3l20.5 7.5c1 .4 2.1.7 3.1 1.1.2 0 .4.2.6.2l105.8 38.5v3.5l-1.7-.6c.6.4 1.1.9 1.7 1.5 2.4-1.2 4.9-.3 7.6 2.3z" stroke="#666"/><g class="G H"><path d="M556.5 489.4h.1m-6.1-3.2l.1 1.2m0 0l5.6 2.1M545 459.7l.3 4.6"/><path d="M556.6 489.4l-.1-1.2m-5.9-2.3h0m5.6 3.6l-.1-1.2m.3-.1l.1 1.2m-.2-1.5l-5.7-2"/><path d="M550.6 485.9l5.6 2.1m-.1.3l-5.6-2.1m6 2h-.1m-.2-.2l.1-.1m-3.2-1.9h0m-6-3.2l.1 1.2m0 0l5.6 2.1"/><path d="M553.1 486v-1.3"/><path d="M553 484.8l.1 1.2m-19.6-5.9v.8m2.7 1.1v-1.2m-2.6-1.1h0m2.3 2.4l-.1-1.2m.3-.1l.1 1.3m-.4-1.2l-2.3-.8"/><path d="M533.6 479.7l2.3.9"/><path d="M535.9 480.5l-2.3-.8m2.6 1.1h-.1m-.2-.2v-.1m-2.7-2.5l.1.9m3.5 2.3l.1 1.2"/><path d="M536.9 481v.1m-27.8-47.9l.8 11.7m-.8-11.7l-.8-.3m.2 13.5l1.4-1.5m23.5 35v.9m2.7 1.4l.1-.1m-2.2-.6l1.9.7m.7-.1l.3.1m-3.4-3.1v.1"/><path d="M536.2 482.1v-.1m-2.2-.6l1.9.7m-.5-9l-2.1 4.7m9.6 6.8h.1m-5.9-2l5.6 2m.7 0l.3.1"/><path d="M539.5 481.2l.1-.1m-6.1-2l5.7 2.1m-4-4l.1.7m7.7 6.6h0m-6-3.2v1.2m0 0l5.6 2.1"/><path d="M543 484.5l-.1-1.3m-5.8-2.3l-.1.1"/><path d="M542.9 483.3l.1 1.2m-.4.1v-1.3m.1-.3l-5.6-2.1"/><path d="M537 481l5.7 2m-.1.3l-5.6-2m5.9 1.9v.1"/><path d="M542.7 483h0m-5.9-9.4l-.3.7m-.1.3l-1.1 2.3m4.2 4.2l.1-.1m-6.3-2.8l.1.8m0 0l5.8 2.1"/><path d="M539.6 481l-.1-1.2m-.3 1.3l-.1-1.2m.3 0l.1 1.2m13.3 5l-.1-1.3m4.5 3.8l.1 1.2m-4.2-5.1l-.1.1m-.3 0l-5.6-2"/><path d="M557.2 488.3v.1m-11.8-15.8l-1.5 1.7m-.1-1.5l.1 1.5m-7.5-5.9l.5 6.6m16.8 10.1l.1 1.2m-10.2-11.9l-.1-1.4m-.6.1l.1 1.5m-5.1-5.3l.5 7.2m21.4 12.1l.1-.1m-5.9-1.9l5.6 2m-20.4-11.8l-.5-7.2m.3 0l.5 7.4"/><path d="M539.5 477l-.5-7.4m.4.1l.5 7.2m.8.1l-.5-7.2m.4.1l.5 7.2m22.2 14.8h.1m-6.1-3.2l.1 1.2m0 0l5.6 2"/><path d="M563.4 491.9l-.1-1.3m-5.9-2.3v.1m5.6 3.5l-.1-1.2M537 475.6l-.4-7.1m7 5.9l-.6.2m-6.2-6l.5 7.2m.5.4l-.5-7.2m.2.1l.5 7.4m.1 0l-.5-7.4m25.6 22.9l.1-.1m-5.9-1.9l5.6 2m.7 0l.3.1m-17-9.4v1.2m9.5 5.6h.1m-6-2l5.6 2.1m.7-.1l.3.1"/><path d="M553 486.1h.1m-5.9-2l5.6 2m-9.2-2.5l.1 1.3m-4.2-5.1l-.1.1m-.3 0l-5.3-1.9"/><path d="M543.7 483.4l-.1.1m-7.3-8.4l.1.8m3.8 4.3l.1 1.2"/><path d="M540.2 480v.1M536 473l-2.2 4.7m0 0l5.4 1.9"/><path d="M539.2 479.6h0m-2.9-4.2l-.6 1.4m-.1 1.5l6.3 2.3m.6-.1l.1-.1m7.1 6.7l.1-.1"/><path d="M542.5 480.5h0m1.4 4.6l5.6 2m.7-.1l.3.1"/><path d="M546.2 483.7l.1-.1m-5.9-2l5.6 2.1m-10.5-6.3v.8m0 0l6.4 2.3"/><path d="M542.5 480.4l.6-.5m-1.2.6l-.1-.8m5-.7l.2-.6m-.2.6l14.3 5.2m5.5 6.8h.1m-5.9-2l5.6 2.1m3.7 3.3v-.1m-6-3.1l.1 1.2m0 0l5.6 2m.3-.1v-1.2"/><path d="M564.2 490.8h0m5.6 3.6l-.1-1.2m.3-.1l.1 1.3m-.3-1.6l-5.6-2"/><path d="M564.2 490.8l5.6 2.1m-.1.3l-5.6-2m6 1.9h-.1"/><path d="M569.8 492.9v-.1m4.4-22.5l-3.3 3.2m-29.2-10.6l29.2 10.6m-29.2-10.6l3.3-3.2m0 0l-46.6-17m9.9-9.8l-9.9 9.8m9.9-9.8L184.7 315.5m0 0l-13.9 13.7m0 0L536.6 462m-2.3 3.5l2.3-3.5m4.8 6l-7.1-2.5m8 1.9l-.9.6m22.6 7.3l-21.7-7.9m21.2 8.6l.5-.7m6.6 3.3l-7.1-2.6m11.2-.2l-4.1 2.8m4.1-2.8l376 136.5m-380-132.1l4.1-2.4m391 127l-.4-6m0 0l-.7-.3m-405.2-47.3L173.7 371.4M952.5 653L563.2 552.6m11.5-76.8l.1 2"/><path d="M574.4 478.4v-.4m-.6.9l.4 5.6m.7 1.4l-.1-.8m.1.8h.1m.4.5l.1.9m1.3.5l-1.3-.5m2.3 5.6l-.3-4.3m-40.8-15.4l-.7-.2M173.7 371.4l-2.9-42.2m779.9 283.1l14-13.8m0 0L630.8 477.4m0 0l-9.9 9.8m0 0l-46.7-16.9m-31.6 4.2l-.1-1.4m3.6-2l14.3 5.2m5 2l.1.5m6.5.6v.4m-2.3.5v-.4m-6.1-2.2l-.1-1.7"/><path d="M570.7 480.2l-7.1-2.5"/><path d="M570.7 480.2l-.1-1.6m-1.9 9l-.5-7.4m1.7 7.4l-.5-7.2m-.8-.1l.5 7.2m2.8-7.4l2.4-1.5m-2.9 1.7l.5 6.5m-2.1-6.3l.5 7.1m-28-20.2l.1 1.7m-.8.5v.1m-.5.1l.5 7.1m.5.6l.1.8m0 0l.4.2m.5.5v.9m0 0l21.3 7.7m1.2-.8l-.4-.1"/><path d="M565.6 486v.8m0-7.8l.5 6.8m-1.5-4.7l.1 1.5m-3.7 1.9l-14.3-5.2m30.8 9.3l-3.9 4m-27.4-21.3l14.3 5.2m3.8 4.4l-.1-.4"/><path d="M560.5 476.5h0m5.7 9.7l-.5-7.2m.3.2l.5 7.1m.5.5l-.5-7.2m.2.1l.5 7.4m.1 0l-.5-7.4m.3.1l.5 7.3m.8.3l-.5-7.3m.2.1l.5 7.4m5 5.9l.1-.1m.3.2v.2m-1.4-6.4v.8m-2.3.9l-.1-.9m1.5 2v.8"/><path d="M571.7 491l.7-.6m-8.2-9.9l.1 1.4m.1.5l-.1-.5m11.2 5.4l-3.1 3.1m-4.9-.6v.1m0 0l5.4 1.9m2-5.9l-2.3 2.3"/><path d="M569.3 489l1.9.7m-6.8-7.3l-.1-1.5m6.9 8.8l3.8-3.8m.4.5l-3.7 3.8m1.2 1.6l3.9-4m-19.9 1.6l.3.1"/><path d="M557.2 489.5l-.1-1.3m7.6-.2v.8m0 0l6.4 2.3m1.7 1l-5.4-1.9m0 0l.1 1.2m0 0l5.8 2.1"/><path d="M573.3 493.5l-.1-.8m-2.1-1.6l-.1-.8m-6.1-2.9l1.9.7m4.2 2.2l-6.3-2.3m1.3-1.4l.1 1m-1.9-7.2l.1 1.5m9.4 12.5v.1m0 0v.8"/><path d="M573.7 495.3l4.1-2.4m-4.2-.3v.9m-26.7-11.2l-.3-.1m0 0l.1 1.3m-.4.2h-.1m-6-2.6l-.1-1.2m-.3-.1l.1 1.2m-.4.2h0m-5.9-2v.1m0 0l2.4.9m.5.5l.1 1.3m0 0l.3.1"/><path d="M536.9 482.1l-.1-1.3m.4-.2l5.6 2.1m.5.5l.1 1.3m0 0l.2.1"/><path d="M543.6 484.6v-1.3m.4-.2l5.6 2m.4.6l.1 1.2m0 0l.3.2"/><path d="M550.4 487.1l-.1-1.3m.4-.3l5.7 2.1m.4.5l.1 1.3m6.7 1.2l.1 1.3m0 0l.3.1"/><path d="M564 492l-.1-1.3m.4-.2l5.6 2m.5.5l.1 1.3m0 0l.3.1"/><path d="M570.8 494.4l-.1-1.3m.4-.2l2.6 1"/><path d="M573.7 493.9v-.3m0 0h-.2m-6.2-2.7l-.1-1.2m-.2-.1v1.2m-.4.3v-.1m-6.1-2.5v-1.3m0 0l-.3-.1m0 0l.1 1.3m-.5.2h0m-6-2.6l-.1-1.3m0 0l-.3-.1m0 0l.1 1.3m-.4.2h-.1m-6-2.5l-.1-1.3m15.9-.6l-1.3 1.5"/><path d="M573.6 493.6l.1-.1m-6.2-2l5.8 2.1m-8.5-4.8l6.3 2.3"/><path d="M571.7 491.1l.1-.1"/><path d="M571.7 491.1h0m-10.6-6.9l.2-.6m-3.8 4.4l5.6 2m4.2.1l.1 1.2"/><path d="M567.4 489.8l-.1.1m6.3 5.7l4.1-2.4m-12.5-6.5l-.3.7m6 6.2v1.2m0 0l2.1.8"/><path d="M571 493.2v.1m2.4 2.1v-.9m.1-.3h0"/><path d="M571 493.3l2.5.9m-.1.3l-2.5-.9m2.6.6l-2.5-1m-7.8-2.5l.1 1.2m-.2-1.5l-5.7-2.1m0 .1l5.6 2m-.1.3l-5.6-2"/><path d="M563.3 490.6l-.1.1m-.2-.3h.1m-3.2-1.9v-.1m-6-3.1v1.2m0 0l5.6 2m.4-.1l-.1-1.2"/><path d="M559.8 487.3l.1 1.2m-.4 0v-1.2m4.5 3.7v1.2m-4.2-5v.1m-.3 0l-5.6-2m10.1 5.5v.1m-3.5-3.3l.1 1.2m-18.1-9.2v.8m-6.8-3.6l1.9.7m4.2 2.2l-6.3-2.3m4.6 1l1.9.7m0 0l.6-.6m.5.5l-.6.6m-5.7-3.6l.1 1m12.8 10l.1-.1m-6.1-3.1l.1 1.2m0 0l5.6 2m-8.3-8.5v-.9m8.7 9.3l-.1-1.2"/><path d="M543.9 483.4l-.1.1m5.6 3.5l-.1-1.2m.4 0v1.2m-.2-1.6l-5.6-2m-.1.1l5.6 2m-.1.3l-5.6-2m6 1.9v.1m-15.3-18.7l-.1-1.6m7.2 4.2l-7.1-2.6"/><path d="M541.5 469.7l-.1-1.7m1 1.1l-.9.6m25.1 21.2h.1m-6.1-3.2l.1 1.2m0 0l5.6 2.1m4.7 3.9l2.1.8"/><path d="M566.7 490.9l-.1-1.2m0 0v1.2m-.3.1l-.1-1.2m-1.8-2l.1.7m6.2 5l.1 1.2"/><path d="M566.6 489.7h0m-.4.1l-5.6-2.1m3.8-.1l-21.3-7.7m-2.7.1h0"/><path d="M540.4 480l5.6 2.1m0 0l.1-.1m-.9-10.8l-1.4 1.6m-7.5-5v.4"/><path d="M540.5 469.7v-.4m8 7.2l-1.3 1.5m-3.7-5l-.6.1m27.1 21.4l.1-.1m-5.9-1.9l5.6 2m.7-.1l.3.1M547.2 478l14.3 5.2m-.2.4l-14.3-5.2m2.4 7.1l.1-.1m-3.2-1.9h.1m-6.1-3.2l.1 1.3m0 0l5.6 2"/><path d="M546.4 483.5l-.1-1.2m-.1 0l.1 1.2m-.3.1l-.1-1.2m4.5 3.7l.1 1.2"/><path d="M546.3 482.3h-.1m-.3.1l-5.6-2.1m10.2 5.6l-.1.1m-3.7-4.1l.3.1m.2.4v.1m0 0l5.6 2"/><path d="M552.8 484.5h0m.7-.2l.3.1m.2.5v.1m0 0l5.6 2"/><path d="M559.6 487v-.1m.7-.1l.2.1m.3.4l-.1.1m0 0l5.6 2m0 0h.1m4.4 3.9v.1"/><path d="M564.8 486.8l-.3.7m-7.2 2.3c0 .1 0 .2.2.2m-3.7-3.7c0 .1 0 .2.2.2m-17.1-5.4v.1m-1 1h.2m-2.7-2.4v.1m3.5 2.5c0 .1 0 .2.2.2m-3.8-3.7c0 .1 0 .2.2.2m9.2 5.5h.2m-3.7-3.4h.2m4.3 3.7c0 .1 0 .2.2.2m-3.6-3.7c0 .1 0 .2.2.2m-5.2-4.7v.2m21.9 11.3v.1m2.4.1h.2m4.2 3.6c0 .1 0 .2.2.2m-3.6-3.6c0 .1 0 .2.2.2"/><path d="M553.8 485v.1m9.2 6.9h.2m-12.8-6v.1m-3.4-3.6v.1m9.2 7h.2m-3.6-3.5h.2m-9.4-2.6v.1m-3.4-3.5v.1m9.3 6.9h.2m-3.7-3.4h.2m4.3 3.6c0 .1 0 .2.2.2m15.7 3.6h.2m4.2 3.6c0 .1 0 .2.2.2m-3.6-3.6c0 .1 0 .2.2.2m5.7 2.1h.2m-9-6.1v.2m2.8 2.2v.1m-3.3.9v.1m-17-7.1c0 .1 0 .2.2.2m13.3 3.4v.1m9.3 6.9h.2"/><path d="M570.8 493.4v.1m-14.6-4h.3m-5.9-3.6s-.1.2 0 .3m5.5 2.1h.3"/><use href="#C"/><path d="M556.2 488s-.1.2 0 .3m-3.4-2.2h.3m-19.6-5.2c0 .2.2.4.5.5m1.9.7h.3m-2.6-2.4s-.1.2 0 .3"/><use href="#C" x="-20.3" y="-7.4"/><path d="M535.9 480.6s-.1.2 0 .3m-.1 0h.3m-2.8-2s0 .1.1.1m3.5 3.4s0 .1.1.1m-.2-1.3s0 .1.1.1"/><path d="M537 481h-.2m-.7 1.2v-.1m-2.5-2.4h-.2m0 .2s0 .1.1.1m9.4 4.6v-.1m-3.4-3.3v-.1m-4.2-3.2c0 .1.1.2.2.3m-.3-1c0 .1.1.2.2.3m7.2 7.1h.3M537 481s-.1.2 0 .3"/><path d="M542.7 483s-.1.2 0 .3m-.1 0h.3"/><use href="#C" x="-13.5" y="-4.9"/><path d="M535.7 476.8c-.2 0-.3 0-.4.1m-1.5 1.1c-.2 0-.4 0-.4.2m5.8 2.9h.3m4.2 3.8s0 .1.1.1m13.5 4.8s0 .1.1.1m-10.2-7.4s-.1.2 0 .3m5.5 2h.3"/><use href="#C" x="-3.4" y="-3.4"/><path d="M552.8 484.5s-.1.2 0 .3m4.4 3.8s0 .1.1.1m.1-.3h-.2m-3.4-2.1s0 .1.1.1m-10.3-12c.1 0 .2 0 .3-.2m0 .1c.1 1.5 1.6 3.2 3.2 3.8m12.7 10.5v-.1m-6.1-3.4s0 .1.1.1m.2-.2h-.2"/><path d="M543.6 474.4c.1 1.5 1.6 3.3 3.4 3.9m-4.4-3.8h.4m0 .1c.1 1.7 1.8 3.7 3.8 4.4m16.4 13v-.1m-12.8-5.8s0 .1.1.1m.1-.3h-.2m-3.4-2s0 .1.1.1"/><path d="M547 482.7s0 .1.1.1m.1-.3h-.2m9.5 7v-.1m-3.5-3.3v-.1"/><use href="#C" x="-17" y="-8.3"/><path d="M539.2 479.6s-.1.2 0 .3m-.1 0h.3m4.2 3.7s0 .1.1.1m.1-.2h-.2m-3.3-2.1s0 .1.1.1m-.2-1.3s0 .1.1.1"/><path d="M540.4 480h-.2m-3.8-4.1c0 .4.2.8.5 1.1m12.8 10.1v-.1m-3.5-3.3v-.1m-4.3-3.1h.6m24.1 10.5v-.1m3.2 3.5h.3m-5.9-3.6s-.1.2 0 .3m5.5 2.1h.3"/><use href="#C" x="13.6" y="4.9"/><path d="M569.8 492.9s-.1.2 0 .3"/></g></g><g class="I G"><use href="#B" x="706.4" y="256.4"/><use href="#B" x="444" y="161.2"/></g><g fill="none" class="G"><path d="M422.8 411.3c0 1.2 1.7 2.2 3.7 2.2s3.7-1 3.7-2.2-1.7-2.2-3.7-2.2-3.7 1-3.7 2.2zm-227.4-82.5c0 1.2 1.7 2.2 3.7 2.2s3.7-1 3.7-2.2-1.7-2.2-3.7-2.2-3.7 1-3.7 2.2z"/><path d="M559.5 551.2c1.2.6 2.5 1 3.7 1.4m12.2-66.2c0-.2-.2-.4-.5-.5m2.6 2.7c0-.3-.3-.7-.7-.8m.9 5.4c.1 0 .2-.2.1-.3M536 473c-.3 0-.5 0-.6.1" class="H"/><path d="M696.2 510.5c0 1.2 1.7 2.2 3.7 2.2s3.7-1 3.7-2.2-1.7-2.2-3.7-2.2-3.7 1-3.7 2.2z"/><ellipse cx="938.3" cy="597" rx="3.7" ry="2.2" transform="matrix(1 0 0 1 -.7 1.1)"/></g><use href="#B" x="255.9" y="92.9" class="G I"/><g fill="none" class="G"><g class="H"><path d="M546.1 471.1c-2.2-.8-3.8.1-3.7 2m22.2 8c-.1-1.9-2-4-4.1-4.8m-17.4 2.7c0-.2-.2-.4-.5-.5m22.6 8.2h-.4m-3.8-2.2c2.2.8 3.8-.1 3.7-2m-22.1-8c.1 1.9 2 4 4.1 4.8"/><path d="M546.1 471.1v.2m18.1 9.2c0-.3 0-.6-.2-.9m-3.6-3.3v.2"/><path d="M564.3 480.9c-.1-1.7-1.8-3.7-3.8-4.4m3.8 4.4s.1.2.2.2m9.5 12.5c0-.2-.1-.2-.3-.1m0 .9c.2-.2.3-.4.3-.6m-2.2-2.8l.6-.6m-2.1-1.3c.9 0 1.7-.3 2.3-.9m-3.3.8h1m-5.9-6.6s.1.2.2.2m7.1 7.6c0-.2-.2-.4-.5-.5"/><path d="M561.1,484.2c2,.7,3.5,0,3.4-1.8"/><path d="M561.1 484.2v.4m6.4 5.3s-.1.2 0 .3m3.6.9h.6m-6.8-3.7c-.1.2-.2.4-.2.6m8.5 4.7c0-.2-.2-.4-.5-.5m-6.6-4.6c.2.2.4.4.7.5m4.2 2.2h.6"/><path d="M571.2 489.7c-.1.2-.2.4-.2.6m-24.7-6.6c.2 0 .4 0 .4-.2m-6.5-2.4v.2m-.7-.1c.2 0 .4 0 .4-.2m-3.4-.3c0-.2-.2-.4-.5-.5m1.2.4c-.2 0-.4 0-.4.2m6.5 2.4c0-.2-.2-.4-.5-.5m1.2.4c-.2 0-.4 0-.4.2m6.4 2.4c0-.2-.2-.4-.5-.5m1.2.3c-.2 0-.4 0-.4.2m6.5 2.4c0-.2-.2-.4-.5-.5m8 2.9c-.2 0-.4 0-.4.2m6.5 2.3c0-.2-.2-.4-.5-.5m1.2.4c-.2 0-.4 0-.4.2m-3.4-2.2v.2m-.7 0c.2 0 .4 0 .4-.2m-6.5-2.4v.2m-.7-.1c.2 0 .4 0 .4-.2m-6.4-2.4v.2m-.7-.1c.2 0 .4 0 .4-.2m-6.5-2.3v.2m26.5 10.4s-.1.2 0 .3m.1-.9v-.1m-12.1-10.3c1.1.4 2 .3 2.5-.3m-2.5.3s-.1.2-.2.3"/><path d="M561.3 483.6c1.8.6 3.1 0 3-1.6m9 11.5h.3m-16.1-5.5c-.2 0-.4 0-.4.2m6.5 2.4c0-.2-.2-.4-.5-.5m4.3 1.2s0 .1.1.1m-.2-1.3s0 .1.1.1"/><path d="M567.5 489.9h-.2m5.7 5.7c.2 0 .4 0 .4-.2m-7.8-8.6c0 .3.2.5.5.7m4.9 5.8s-.1.2 0 .3m2.4.9h.3"/><use href="#C" x="17.3" y="6.3"/><path d="M563 491.9h.3m-5.9-3.5s-.1.2 0 .3m5.5 2h.3"/><use href="#C" x="6.8" y="2.5"/><path d="M563 490.4s-.1.2 0 .3m-3.5-2.2h.3m4.2 3.7s0 .1.1.1M554 485s-.1.2 0 .3"/><path d="M559.5 487.3h.3"/><use href="#C" x="3.4" y="-0.9"/><path d="M559.6 487s-.1.2 0 .3m4.4 3.7s0 .1.1.1m.1-.3h-.2m-3.4-2s0 .1.1.1m-.2-1.3s0 .1.1.1m-24.9-10.9c-.1.2-.2.4-.2.6m1.4-.4c.2.2.4.4.7.5m2.5.9h1m.7 1.3h.6m.1-.1c0-.2-.2-.4-.5-.5"/><path d="M542 479.1c-.1.2-.2.4-.2.6m-.7-1.2c.4 0 .7 0 1.1-.2m7.2 8.7h.3m-5.9-3.5s-.1.2 0 .3m22.5 7.2h.3m-2.1-2.5c0 .1.1.2.2.3m6.1 5.9s0 .1.1.1m-10.2-7.4s-.1.2 0 .3m-18.1-7.3c.2-.1.4-.3.6-.5m3.5 2c-.2 0-.5 0-.6.1m14.6 5.4h-.2m-17-14.4c.1 0 .2 0 .3-.2m.3-1.2c-.2.3-.3.7-.3 1.2m1.4-1.7c-1.1 0-1.7.8-1.7 1.8m2.5-1.7c-.3 0-.6-.1-.9 0m1.7 7.8v.4m.4-1.4s-.1.2-.2.3m23 16.2v-.1m-27.5-21.3h.4"/><path d="M546.2 471.3c-.3-.1-.6-.2-.9-.2m0 0c-1.5-.2-2.5.6-2.4 2.1m6.4 12.6h.3"/><use href="#C" x="-6.7" y="-2.4"/><path d="M549.4 485.5s-.1.2 0 .3m-3.4-2.2h.3m4.2 3.7s0 .1.1.1m-10.2-7.4s-.1.2 0 .3m5.5 2.1h.3"/><use href="#C" x="-10.2" y="-5.9"/><path d="M546 482.1s-.1.2 0 .3m1.2 0c0-.2 0-.4-.2-.5m6.5 2.4c-.2 0-.5 0-.6.1m1.1.5c0-.2 0-.4-.2-.5m6.5 2.4c-.2 0-.5 0-.6.1m1.1.4c0-.2 0-.4-.2-.5m5.6 3h.3"/><use href="#C" x="10.2" y="1.5"/><path d="M566.3 489.4s-.1.2 0 .3m4.4 3.8s0 .1.1.1m.2-.3h-.2m-6.4-5.5c0 .1.1.2.2.3m.3-.7c-.2 0-.3 0-.4.1m-7.9 1.9h0m-23-10.1h0m3.3 1.7h0m-.5 1.1h.2m-3.3-4.3h0m2 .1v.1h.1m7.7 6.5h.2m-3.7-3.5v.1h0 0 0 0 0 0 0 0 0 0 0 0 0 0m3.1 1.9h0m14.5 5.4h0M537 475.6h0m2.2 1.2h-.1-.3m21.1 11.6h0 0v.1h0 0 0 0 0 0 0 0 0 0 0 0M539.5 477h0m-3.7-9.4v.2c0 .2.2.3.3.4l.2.2m1.7 8.1h0m25.5 15.4h.2m-13.3-5.9h0m6.3 3.5h.2m-3.8-3.5h.1 0 0 0 0 0-.1 0 0 0 0v.1h0 0 0m-9.4-2.6h0m-6.9-9.3h0m.1-.1h-.3m-.1.1c-.1.3-.2.6-.2.9m13.6 11.9h.2m-3.7-3.5h0 0 0 0 0v.1h0 0 0 0 0 0-.1 0 0m20.4 7.3h0 0 0 0 0 0 0v.1h0 0 0 0 0 0 0m-2.2-2.5v.1h.1m9.8-10.2v.1m0 6.1h-.2m.2 0h.2c.1 0 0 0 .1.1v.3"/><path d="M572 479.8c.6-.3 1.1-.7 1.7-1 .2-.1.4-.3.7-.4m-7.9 1.2h0m.6.2h0m1 .4h0m.5.1h0m1.2.2h0m-4.3-1.6h.1m.1.2h0"/><path d="M572 479.8v.1m-2.3.6h.3m.1 0h.7m0-.1c.2 0 .5-.1.7-.2.2 0 .3-.1.4-.2"/><use href="#D"/><path d="M541.6 469.7v.1h-.1m.1 7.1a.76.76 0 0 1 .4.2s.1.1.1.2v.2m30 9.4l2.3-2.3m-9.4-6.4c.1.3.3.5.5.7m8.7 5.6l-2.3 2.3m2.9-1.7l-2.3 2.3m-.8 3.7s-.2 0-.3.1h-.3m-.9-3v-.1-.3m2.4-.4h0"/><path d="M572.6 487.4v-.1-.1c0-.1 0 0-.1-.1l-.1-.1m.5 4.8h0m-6.9-5.2v-.1-.3m4.2 2h-.1-.1-.1-.1-.1-.1-.3m4.2 6h0m.1-.7h0 0 0 0 0 0 0 0 0v.1h0 0 0 .1 0 0 0 0 0m-9.4-11.7v.3c0 .2 0 .3-.1.5 0 0 0 .2-.2.2m9.1 12.8h.5m-36-26.6h0m.3.2h0 0 0 .3m.8.3h0m.4.1h0 0 0 0 0m-3-1.4h.1m.1.2c.2.1.4.3.6.4m3.4 1h1m22.4 21h0m-26.4-13.4h.1.1.2.1.1.1.1.1.2.2.3.4m10.2 9.4h0m-7.3-6.4s-.2 0-.3.1h-.3"/><use href="#D" x="-29.2" y="-10.6"/><path d="M540.5 469.7h0m3.7 1.9v-.1c0-.1.2-.2.4-.3.1 0 .3-.1.5-.1h.1m25.1 23.3h.2M537 475.6v.1.3m4.1 1.6h-.1-.1-.1-.1-.5"/><path d="M541.1 477.1v.1.3m8.4 7.9h0m21.3 7.9h0m-134-208.5l4.3 1.5m1.8.7h.1m3.6 1.4l5.1 1.8m-16.2-13.8l-1.3 1.5m26.7 1.7l-14.9-5.4m16.2 13.8l1.3-1.5m60.8 153.7l13 4.8m-93.9-177.7l28 10.2m-47.7 2.5l9.2-10.5M382.8 354l6.3-7.3m2.2-2.5l.1-.1m24.2-27.8l6.4-7.4m90.6 139l1.9-2.2m99.1 14.2l-.1-1.4m-1.3 17.1l.1 1.4m.1 1.3l.1 1.1m507.6-41.4L346.7 157.3m-14 2.9l-3.7 4.3m160.1 260.2l-.1-1m-2.9 1l-.1-1m.6-1.7l-.6 1.7m2.4-1.7l.6 1.7m7.3 4.7l1.1.4m-1.1-.4l-.7-.2"/><path d="M496 428.3l-.6-.1m2 .6l-.7-.2m12.5 6.5l3.3 1.2m2.8 7.4l-.4-4.7m-2.4-2.7l-.8-.2m-20.3-12.4l.1.9m-9.3-3.3l-.1-1m0 0l-56.3-20.4m0 0l.1.9m-9.3-3.3l-.1-1m0 0l-27.1-9.8m0 0l.2 3.1M492 422l-.6 1.7m49.1 17.8l-49.1-17.8m23.1 22l-.3-4.8m0 0l-5 5.8"/><path d="M513.1 439.6l1.1 1.3m30 2.7v-.5m.4-1.4l-.2.4M419 396.8l-1.2 1m2.1 0l-.6 1.7m1.1.4l-1.1-.4m4.2 1.3l-.1-.9m-2.9 1l-.1-1m.6-1.7l-.6 1.7m2.4-1.7l.6 1.7m7.3 4.7l1.1.4m-1.1-.4l-.8-.2"/><path d="M430.3 404.5l-.6-.1m2.1.6l-.8-.2m-4.6-6.6l-.6 1.7m56.9 18.7l-.6 1.7m1.3 1.4v.9m1.6 1.7l1.1.4m-1.2-1.4l.1 1m-.4-3.7l-1.2 1.1"/><path d="M485.5 421.6l-.6 1.7m1.1.4l-1.1-.4m-98.7-75.1l.1 1m-2.7.2l.1.9m2.5-2.1l-1.2-1.3m-1.4 2.5l-.1-1.8m52.7-55.6l-.3-4.2m0 0L420 306.1m0 0l.1 1m-5.6 6.4l-.1-1m0 0l-27.3 31.4m0 0l.1.9m-5.6 6.4l-.1-.9m0 0l-1.1-1.4m1.1 1.4l-7.4 8.5m21.2-15.4l-1.1.6m-14.6 16.8l14.6-16.8m-18.7 27.7l.4 4.7m4.7-16.2l-1 .6m-5.5-2l.3 4.3m-.3-4.3l-1.1-1.4m17 27.6l-.6 1.7m27.7 8.1l-.6 1.7m1.3 1.3v1m1.6 1.7l1.1.4m-1.2-1.4l.1 1M302.5 187.2l-1 .6M189 317l112.5-129.2m98.3 149.7l27.3-31.3m1-.6l-1 .6M400.8 337l-1 .5m-2.9 1l-.6.3m-.1.2l-1 .6"/><path d="M394.5 340.3l.7-.7m-1.1 1.9v1"/><path d="M395.5 339.8l-1 .5m-.1 3v-1m20-29.8l-1.1-1.3M395.4 341l-1 1.3m-7.3 1.6l-1.1-1.4m1.4 4.7l-.1-.9m-1 2.9l.6-.8"/><path d="M386.9 348.4l-.1-.9m.2-2l-1.2-.6m1 2.6l-1.1-1.4m1.1 1.4l-.6.7m43.6-47.4l-.6.2m-.1.3l-1.1.5m-.6.8l.6-.8m-1.1 2l.1.9"/><path d="M428.4 302l-1 .6m-.1 2.9l-.1-.9m8.7-16.8l-1.1-1.4m-6.5 16.8l-1.1 1.4m-7.2 1.5l-1.2-1.3m1.4 4.7v-1m-1.1 2.9l.7-.7"/><path d="M419.8 310.7l-.1-1m.2-2l-1.3-.5m1.1 2.5l-1.1-1.3m1.1 1.3l-.6.8m0 0v.9m-2.6.2v1m2.6-2.1l-1.2-1.4m-1.4 2.5l-.1-1.8m45.1-22.2l2-1.1m-3.4 2.7l1.4-1.6m-37.8-7.6l-.3-4.7m48 2.2l-.3-4.8m-32.8 12.5l2.9 1m1.8.7h.1m3.8 1.4l6.2 2.3m-14.8-5.4l-1.5-.4m-13.4-9.5l-1.2-1.4m48.9-1.2l.6-1.7"/><path d="M460.1 289.2l2.1-1.2m-9.1 2.6l-1.4-.4m-25.7-8l-.7-.2m.7.2l9.1 3.3m1.5 6.1l-.3-4.8m-1.2-1.3l-.8-.2m8.6 3.6l-.6.2m2.3-.1l-.5-.2m29.6-9.2l1-.5m-10.2 11.1l9.2-10.6m-28.8 9.5l9.1 3.3m-9.8-3.5l.7.2m19.6 1.1l1-.5m-12.2 2.5l.7.2m-21.3 7.4l8.7-10m1-.6l-1 .6m-7.7 9.4l-1 .6M326.2 163.5l.4.1"/><path d="M326.2 163.5h0"/><path d="M301.5 187.8l24.7-24.3m112.1 121.7l-.5-6.1m0 0l-1.3 1.5"/><path d="M437.8 279.1l-2.3-2.7m9.3 1.2l.4 4.7m.2 2.7v.1m0 1.2l.1.1m-9-5.8l.3 3.7m8-6.7l1.2-3.4m13.7 8.8l-14.9-5.4m-11.9-8.1l-.3-4.8m10.8 2.6l-.3-4.7m-10.5 2.1l-1.2-1.3m1.2 1.3l-9.2 10.6m19.7-12.7l.6-1.7"/><path d="M471.1 272.7l-28-10.1m-6.6 18l-2.3-2.7m25.9 11.3l-.4-6.2m0 0l1.2-3.4M492 422l49.6 18m-97.9-179.1l28 10.1m3 8.1l-9.2 10.6m-12.2 2.5l-9.1-3.3m-1.8.3l-8.7 10m-4.6 2.1l-.7.7m-.3 3.6L400.8 337m-4.6 2l-.7.8m-.2 3.6l-14.7 16.8M390 385l27.1 9.8m2.8 3l1.1.4m5.4 0l56.3 20.4m2.8 3l1.1.4m309.3-31.3l194.7 70.6M302.5 187.2l788.7 286.3M302.5 187.2l-113.1 130m886.5 173.9l15.3-17.6m-581.4-30.2l3.3-3.7m-1.4-3.5l-2.5-.9m-12.5-6.6l-1.1-.4M431 404.8l-1.1-.4m-56.9-47l7.4-8.5"/><path d="M385 346.9l.7-.8m.3-3.6l27.3-31.3m4.6-2.1l.7-.7m.2-3.6l16-18.4m-.5-1.1l-9-3.3m-3.1-8.1l9.2-10.5m-104.8-99.8l-24.1 23.6m814.6 263.3l-1.8-.7m-24.1 23.7l24.1-23.7"/><path d="M1117.1 450.5h0M619.5 478l2.4.9m5.3 1.9h.1m188.4-72.7l174.9 63.5M700 501.3l85.4-98.2m208.3 66.3l-1.1.5m-90.7 104.2l90.7-104.2m-89.7 103.7l-1 .5"/><path d="M1117.1 450.5l-24.7 24.3m0 0l-1.2-1.3m-478.5-11.2l-10 11.5m391-4.4l-90.8 104.2m-281.3-90.2l-2.6 3.1m-17.5-6.3l.4-.5m.9-1l.3-.4m.9-1l6.7-7.8m8.8-1.8l70 25.4m8.7-1.7l85.5-98.2"/><path d="M612.5 459.6l.2 2.7m-10.2 8.9l.2 2.6m9.8-14.2l-10 11.6m9.7 4.4l-.3-4.7m0 0l-1.2-1.4m1.2 1.4l-7.1 8.2m-1 1.1l-.3.3m20.5 1.3l-.6.3m172-89.7l.5 8.5m0-10.2l-.5 1.7M990 463l-194.6-70.6M620.6 484l1-.6m-3 2.9l2-2.3m1.1-1l-1.4-.4m-1.3-.5l-1.1-.4m-2-.7l-2-.8m-6.3.7l.3-.3m2.9-3.3l1.4-1.7m378.4-4l-.6-8.6"/><path d="M990.6 461.3l-.6 1.7m-204.6-59.9l-.6-8.6m0 0l-85.4 98.2m84.3-99.5l1.1 1.3m-165.9 74.9l.6 8.6"/><path d="M619.5 467.7l-.6 1.7m70 25.4l-70-25.4m80.5 23.3l.6 8.6m-10.9-2.8l-.2-3.7m.6-1.7l-.6 1.7m9.3-3.4l1.2 1.3m415.9-42.9L326.6 163.6m107.6 114.3c-2.2 2.5-1 5.6 2.6 6.9h0m9.2-10.6c-3.6-1.3-8.3-.4-10.5 2.1m28 10.2c2.2-2.5 1-5.6-2.6-6.9h0m-85 96.8c.2 2.6 1.1 5.1 2.8 7.4m95.4-104.6c-.6-.7-1.6-1.3-2.7-1.7m-28-10.2c-3.6-1.3-8.3-.4-10.5 2.1m-9.2 10.6c-.1.2-.3.3-.4.5m-50.2 84.8c-2.1 2.9-3.3 6-3.6 9.2m145 71.2c.5-.6.8-1.3.7-1.9"/><path d="M618.9,469.4c-2.4-.9-5.6-.2-7,1.4"/></g><use href="#E"/><use href="#E" x="227.5" y="82.6"/><g class="H"><use href="#F"/><path d="M1074 434c0 .3 0 .6.2.9m7.6 2.7c1.7-.3 3.2-1.1 4.1-2.1M570 251.9c1.7-.3 3.2-1.1 4.1-2.1m0 0c.6-.7 1-1.6.9-2.4m0 0c-.2-2.3-3.1-4-6.7-3.8-3.5.2-6.2 2.3-6.1 4.7 0 .3 0 .6.2.9"/><use href="#F" x="-708.7" y="-257.2"/><path d="M365.4 176.8c0 .3 0 .6.2.9m7.5 2.8c1.7-.3 3.2-1.1 4.1-2.1m499 184.6c1.7-.3 3.2-1.1 4.1-2.1m0 0c.6-.7 1-1.6.9-2.4"/><path d="M881.2 358.5c-.2-2.3-3.1-4-6.7-3.8-3.5.2-6.2 2.3-6.1 4.7 0 .3 0 .6.2.9m256.2 81.9c-.6-1.8-2.3-3.3-4.7-4.2M346.7 157.3c-4.8-1.8-11.1-.5-14 2.9"/></g><use href="#G"/><g class="H"><path d="M486.1 424.7c.9.3 2 .3 3 0m2.3-1c-.7-.3-1.6-.3-2.4 0"/><path d="M486 423.7c.9.3 2 .3 3 0m7.3 4.7c-.1 0-.2 0-.3-.1m2.1.9c-.2-.1-.4-.2-.7-.3m16.8 12c1.5-1.7.7-3.7-1.7-4.6m-60.8-146.1c3.6 1.3 8.3.4 10.5-2.1m-44.4 109.7c0 .7.6 1.3 1.5 1.7m6.6 1.3c-.7-.3-1.6-.3-2.4 0m-3 .1c.9.3 2 .3 3 0"/><path d="M425.8 399.9c-.7-.3-1.6-.3-2.4 0m-3 0c.9.3 2 .3 3 0m7.3 4.7c-.1 0-.2 0-.3-.1m2 .9c-.2-.1-.4-.2-.7-.3m363.7-12.7c-3.6-1.3-8.3-.4-10.5 2.1m-301.5 28.1c0-.6-.5-1.1-1.2-1.3"/><path d="M483.4 421.7c0-.6-.5-1.1-1.2-1.3m1.2 2.2c0 .7.6 1.3 1.5 1.7"/><path d="M483.4 421.7c0 .7.6 1.3 1.5 1.7m6.6 1.2c-.7-.3-1.6-.3-2.4 0m-105.4-74.3c-.9 0-1.6.4-2.1.9m2-1.8c1.1 0 2-.5 2.6-1.1"/><path d="M383.6 349.4c-.9 0-1.6.4-2.1.9m-1.9 10.5c-8.2 9.4-3.8 21 9.8 25.9m-15.3-27.9c-7.4 8.5-6.5 18.9 2.2 26.2m41.5 13.8c0-.6-.5-1.1-1.2-1.3"/><path d="M417.8 397.8c0-.6-.5-1.1-1.2-1.3m1.2 2.3c0 .7.6 1.3 1.5 1.7m-2.8-88.9c-.9 0-1.6.4-2.1.9m-15.3 25.6c.3-.1.5-.3.7-.5m-3.5 1.2c-.5.2-.9.5-1.2.8m-1 2.9c0 .3.1.6.3.8m.1-3c-.5.6-.6 1.4-.2 2m.2 1.2s0-.1-.1-.2m-7.2 1.5c-.1.2-.2.3-.3.5"/><path d="M394.2 344c.4-.5.5-1.1.1-1.6m-7.2 1.5c-.4.5-.5 1.1-.1 1.6m-.1 2.9c.3-.4.5-.8.5-1.2"/><path d="M386.8 347.5c.5-.6.6-1.4.2-2m-3.3 4.8c1.1 0 2-.5 2.6-1.1m45.7-48.9c.3-.1.5-.3.7-.5m-3.5 1.2c-.5.2-.9.5-1.2.8m-1 2.9c0 .3.1.6.3.8m.1-2.9c-.5.6-.6 1.4-.2 2m.2 1.1s0-.1-.1-.2m-7.2 1.6c-.1.2-.2.3-.3.5"/><path d="M427.1 306.2c.4-.5.5-1.1.1-1.6m-7.2 1.5c-.4.5-.5 1.1-.1 1.6m-.1 3c.3-.4.5-.8.5-1.2"/><path d="M419.7 309.7c.5-.6.6-1.4.2-2m-3.4 4.9c1.1 0 2-.5 2.6-1.1m-2.6 1.1c-.9 0-1.6.4-2.1.9"/><path d="M416.5 311.6c1.1 0 2-.5 2.6-1.1m42.4-22.9c1.5-1.7.7-3.7-1.7-4.6h0m-36.4-7.7c-2.2 2.5-1 5.6 2.6 6.9h0m47.7-2.6c2.2-2.5 1-5.6-2.6-6.9h0m-12.3 17.5c.6-.3 1-.6 1.4-1.1m-24.3-1.3c.7-.8.3-1.9-.9-2.3h0m7.3 3.6c-.4.2-.7.4-.9.6m3.5-.6h-.3m9.4 3.3c.2 0 .3.1.5.2m7.5-.6c1-.5 1.9-1.1 2.5-1.8m-21.4-27.6c-3.6-1.3-8.3-.4-10.5 2.1m12.2 12.9c-2.4-.9-5.6-.2-7 1.4m-1.3 1.6c-1.5 1.7-.7 3.7 1.7 4.6h0M492 422c-1.1-.4-2.4-.4-3.6 0m-44.7-161.1c-4.2-1.5-9.7-.4-12.3 2.5m43.3 15.7c2.5-2.9 1.2-6.5-3.1-8.1h0"/><path d="M453.3 292.2c4.2 1.5 9.7.4 12.3-2.5m-21.4-.8c-.6-.2-1.4 0-1.8.4m-11.8 11.3c1.3 0 2.4-.6 3.1-1.4m-3.1 1.4c-.6 0-1.2.3-1.5.7m-.7.7c-.3.4-.4.8 0 1.2m-.3 2.4c.7-.8.7-1.7.2-2.4m-30.6 35.1c1.3 0 2.4-.6 3.1-1.4m-3.1 1.4c-.6 0-1.2.3-1.5.7m-.7.8c-.3.4-.4.8 0 1.2m-.2 2.4c.7-.8.7-1.7.2-2.4m-14.9 19.2c-7.8 9-3.6 20.1 9.4 24.8m29 11.8c0-.9-.8-1.6-1.9-2m1.9 2c0 .4.4.8.9 1m1.1.4c.5.2 1.2.2 1.8 0m3.6 0c-1.1-.4-2.4-.4-3.6 0m61.8 22.4c0-.9-.8-1.6-1.9-2m1.9 2c0 .4.4.8.9 1m1.1.4c.5.2 1.2.2 1.8 0m505.3 47.4c2.5-2.9 1.2-6.5-3.1-8.1m-477.5-21.7c1.1-1.3.5-2.8-1.3-3.5m-14.9-7.3s-.2 0-.3-.1m-1-.5h-.3m-64-23.2s-.2 0-.3-.1m-1.1-.5h-.3m-56.6-47c-7.7 8.8-6.8 19.6 2.3 27.2m8.2-37c-1.3 0-2.4.6-3.1 1.4"/><path d="M383.5 347.6c.6 0 1.2-.3 1.5-.7m.7-.8c.3-.4.4-.8 0-1.2m.3-2.4c-.7.8-.7 1.7-.2 2.4m30.6-35.1c-1.3 0-2.4.6-3.1 1.4m3.1-1.4c.6 0 1.2-.3 1.5-.7m.7-.7c.3-.4.4-.8 0-1.2m.2-2.4c-.7.8-.7 1.7-.2 2.4m16.2-20.8c.4-.4.2-.9-.4-1.2h0m-12.2-11.3c-2.5 2.9-1.2 6.5 3.1 8.1h0m194.2 196c-.7-.3-1.5-.4-2.3-.4m-3.5.9c-.5.3-.9.6-1.2 1m378.5-7.7a.76.76 0 0 1-.4-.2m-194.7-70.7c-.2 0-.4-.1-.6-.2m-8.2 1c-.7.4-1.2.8-1.6 1.3m-86.1 98.8l.6-.6m200.6 74.1c.5-.3.9-.7 1.3-1.1M212.7 325.6v-.3m0 0c-.2-2.3-3.1-4-6.7-3.8-1 0-2 .3-2.8.6m753.2 273.4c0-2.4-2.7-4.2-6.2-4.1-1.1 0-2.3.3-3.3.7"/><path d="M612.7 462.3c.6-.7 1-1.6.9-2.4M598.3 476c.4 0 .8-.1 1.2-.3m1.7-.7c.6-.3 1.1-.7 1.5-1.2m298 101.5c.9-.5 1.6-1.1 2.2-1.7M627 481.2c-2.2.1-4.2 1-5.3 2.3m-2.2-15.8c-3-1.1-6.9-.3-8.8 1.8m78.8 23.6c3 1.1 6.9.3 8.8-1.8m97.6-100.6c-4.2-1.5-9.7-.4-12.3 2.5"/></g><use href="#G" x="-238.4" y="-86.5"/><g class="H"><path d="M623.4 482.1c-1.1.5-2.1 1.1-2.8 1.9m-8.8-5.4c.4.7 1.2 1.3 2.2 1.7m-1.8-4.7c-.4.5-.7 1-.7 1.5m381.1-7.2c2.2-2.5 1-5.6-2.6-6.9m-301.1 31.8c3.6 1.3 8.3.4 10.5-2.1M369.3 174.5l-.2.1m5.1-.4l-.2-.1m-3.6 3.6l-.1-1.7m-1.4 1.6v.2m4.6-1.9l.1 1.7m1.2 0v-.2m-1.4.1l-.1-1.7m-2.8.1l.2 1.7m707.2 254l-.2.1m5.2-.3l-.3-.1m-.5 1.7l.2 1.8m1.2-.1v-.1M923.1 591.3l-.1-1.7m-2.7 0l.1 1.8m-.2.1l-.2-1.8m-1.4 1.6l.1.3m4.5-2l.1 1.8m1.3 0v-.2M872.3 357l-.2.1m5.2-.3l-.3-.1m-408.6 68l-.2.1m5.2-.3l-.2-.1m403.2-64.3l-.1-1.8m-2.7.1l.1 1.7m-.2.1l-.1-1.7m-1.5 1.6l.1.3m4.5-2l.2 1.8m1.2-.1v-.1m-405.2 66.1l.1 1.8m1.2 0v-.2m-1.4.1l-.1-1.7m-2.8 0l.1 1.8m-.2.1l-.1-1.8m-1.4 1.6v.3m193.4 64.6h-.2m-.5 1.7l.1 1.7m1.2 0v-.2m-5.6-2.9l-.2.1m4.4 3l-.2-1.8m-2.7.1l.1 1.7m-.2.1l-.1-1.7m-1.4 1.6v.3m425.8-61.7l-.1-1.8m-2.7.1l.1 1.8m-.2 0l-.2-1.7m-1.4 1.6l.1.3m-531.1 24.3h0m-4.1-1.2v-1m-1.6 0v1m-.2 0l-.1-.9m2.1 0l.1 1m.7 0v-.1M212.5 331.9l-.2.1m5.2-.4h-.2m-.6 3.3l-.1-1.7m-2.8.1l.1 1.7m-.2.1l-.1-1.7m-1.4 1.6v.2m4.6-1.9l.1 1.7m1.2 0v-.2M591.9 466v.1m9.7-.7h0m-6.8-1.1l.1.2m3.6-.2v-.1m-.9 0l-.1-1m-1.6 0l.1 1m-.3.1v-1m2 0l.1 1M571.7 249v-.2m-5.6-2.9l-.2.1m5.2-.4h-.3M556 437.8v.1m9.7-.7h0m4.5-188.2l-.1-1.8m-2.7.1l.1 1.7m-.2.1l-.1-1.7m-1.5 1.6l.1.3m4.5-2l.2 1.7M559 436.1v.2m3.6-.2v-.1m39.4 18.5v.1"/><path d="M611.7 453.9l-.1-.1M561.7 436l-.1-1m-1.6 0l.1 1m-.3.1v-1m2 0l.1 1m43.9 16.7l-.1-1m2.1-.1v1m-2.9 0v.3m3.6-.2v-.2m-.9 0l-.1-.9m-1.6 0l.1 1m313 135.5l-.2.1m5.2-.3l-.3-.1"/></g><use href="#H"/><path d="M375.3,177.1c0-1.3-1.7-2.2-3.6-2s-3.4,1.3-3.3,2.5c0,1.3,1.7,2.2,3.6,2,1.9-.1,3.4-1.3,3.3-2.5Z"/><g class="H"><use href="#I"/><path d="M366.9 177.7c0 .2 0 .4.1.6m6 2.1c1.3-.3 2.3-.8 3-1.6m1.8-1.2v-.2m-1.7 1.9l.3-.3m-.1.1c.5-.6.8-1.3.7-2"/><use href="#J"/><path d="M367 176c-.5.6-.8 1.3-.8 1.9m11.4 0c.2-1.6-1.1-3.1-3.3-3.7m-5.2.4c-.9.4-1.6.9-2.1 1.4m3.7 1.6h-.2m3.1 0h-.2m711.3 258.9l.3-.3m0 0c.5-.6.8-1.3.7-2"/><use href="#J" x="708.6" y="257.1"/><path d="M1075.6 433.1c-.5.6-.8 1.3-.8 1.9m11.4.1c.2-1.6-1.1-3.1-3.3-3.7m-5.2.3c-.9.4-1.6.9-2.1 1.4"/></g><use href="#H" x="708.6" y="257.1"/><path d="M1083.9,434.2c0-1.3-1.7-2.2-3.6-2s-3.4,1.3-3.3,2.5c0,1.3,1.7,2.2,3.6,2,1.9-.1,3.4-1.3,3.3-2.5Z"/><g class="H"><use href="#I" x="708.7" y="257.2"/><path d="M1075.6 434.8c0 .2 0 .4.1.6m6 2.2c1.3-.3 2.3-.8 3-1.6m1.7-1.2v-.2m-166 156.8h-.2m3.1 0h-.2"/></g><use href="#H" x="503" y="182.5"/><path d="M878.3,359.6c0-1.3-1.7-2.2-3.6-2-1.9.1-3.4,1.3-3.3,2.5,0,1.3,1.7,2.2,3.6,2,1.9-.1,3.4-1.3,3.3-2.5Z"/><g class="H"><use href="#I" x="503.1" y="182.6"/><path d="M870 360.2c0 .2 0 .4.1.6m6 2.2c1.3-.3 2.3-.8 3-1.6m1.7-1.2v-.2m-1.7 1.9l.3-.3m0 0c.5-.6.8-1.3.7-2"/><use href="#J" x="503" y="182.5"/><path d="M870 358.5c-.5.6-.8 1.3-.8 1.9m11.4.1c.2-1.6-1.1-3.1-3.3-3.7m-5.2.3c-.9.4-1.6.9-2.1 1.4m3.7 1.6h-.2m3.2.1h-.2m-408.2 66.5c-.3.4-.5.8-.4 1.2m0 0c0 .5.4 1 .9 1.3"/><use href="#K"/><path d="M473.5 429.1c.2-.1.3-.3.5-.4m0 0c.3-.4.5-.9.5-1.3m-.1-.1c0-1.3-1.7-2.2-3.6-2-1.9.1-3.4 1.3-3.3 2.5 0 .5.3.9.7 1.3m7.6-1.1c.5-1.8-1.2-3.4-3.9-3.7-2.7-.2-5.2 1-5.7 2.8 0 .3-.1.5 0 .8m-.1 0v.3m10.2-.6v-.3"/><path d="M476.3 427.3c-.1-1.9-2.6-3.3-5.5-3.1-2.8.2-5 1.8-5 3.7m.3-1.6c-.4.4-.6.9-.7 1.3"/><path d="M476.7 427.2c-.3-1.2-1.6-2.3-3.3-2.7m-5.2.3c-.9.4-1.6.9-2.1 1.4m3.7 1.7h-.2m3.2 0h-.2m183.8 67c-.3.4-.5.8-.4 1.2m0 0c0 .5.4 1 .9 1.3"/><use href="#K" x="188.1" y="68.3"/><path d="M661.6 497.3c.2-.1.3-.3.5-.4m0 0c.3-.4.5-.9.5-1.3m-.1 0c0-1.3-1.7-2.2-3.6-2-1.9.1-3.4 1.3-3.3 2.5 0 .5.3.9.7 1.3m7.6-1.1c.5-1.8-1.2-3.4-3.9-3.7-2.7-.2-5.2 1-5.7 2.8 0 .3-.1.5 0 .8m-.1 0v.3m10.2-.6v-.3"/><path d="M664.4 495.6c-.1-1.9-2.6-3.3-5.5-3.1-2.8.2-5 1.8-5 3.7m.3-1.7c-.4.4-.6.9-.7 1.3m11.3-.4c-.3-1.2-1.6-2.3-3.3-2.7"/><path d="M656.3 493.1c-.9.4-1.6.9-2.1 1.4m3.7 1.6h-.2m3.2 0h-.2m418.6-61.3h-.2m3.2 0h-.2m-538.8 23.8c.6-.7.3-1.5-.7-1.8s-2.2 0-2.8.6c0 0-.2.2-.2.3m3.4 1.2c.1 0 .2-.2.3-.3"/><path d="M543.1 459c.1 0 .3-.2.3-.3m.1 0c.2-.3.3-.6.3-.9m0 0c0-.8-1.1-1.5-2.4-1.4-1 0-1.8.5-2.1 1.2m6.5 3.6c.5-.6.8-1.3.7-1.9"/><path d="M545.2 461.7l.6-.6m-3.1-2.9h-.2M212.4 333.8c-.3.4-.5.8-.4 1.2m0 0c0 .5.4 1 .9 1.3"/><use href="#K" x="-255.9" y="-92.9"/><path d="M217.6 336.2c.2-.1.3-.3.5-.4m0 0c.3-.4.5-.9.5-1.3m-.1 0c0-1.3-1.7-2.2-3.6-2-1.9.1-3.4 1.3-3.3 2.5 0 .5.3.9.7 1.3m7.6-1.1c.5-1.8-1.2-3.4-3.9-3.7-2.7-.2-5.2 1-5.7 2.8 0 .3-.1.5 0 .8m-.1 0v.3m10.2-.6v-.3"/><path d="M220.4 334.5c-.1-1.9-2.6-3.3-5.5-3.1-2.8.2-5 1.8-5 3.7m.3-1.7c-.4.4-.6.9-.7 1.3m11.3-.4c-.3-1.2-1.6-2.3-3.3-2.7"/><path d="M212.3 332c-.9.4-1.6.9-2.1 1.4m3.7 1.6h-.2m3.2 0h-.2"/></g><path d="M594.6,464.2c0,.7,1,1.3,2.1,1.2,1.1,0,2-.7,1.9-1.5,0-.7-1-1.3-2.1-1.2-1.1,0-2,.7-1.9,1.5Z"/><path d="M598.9,463.9c0-.8-1.1-1.5-2.4-1.4-1.3,0-2.2.8-2.2,1.7,0,.8,1.1,1.5,2.4,1.4,1.3,0,2.2-.8,2.2-1.7Z"/><path d="M600.9 467.3c.5-.6.8-1.3.7-1.9m-9.7.7c0 .2 0 .4.1.6m3.2 2.2c.3 0 .7.1 1.1.1m3-.6c.7-.3 1.2-.7 1.6-1.2m-4.9-3h-.2m2 .1h-.2" class="H"/><use href="#H" x="196.8" y="71.4"/><path d="M572.1,248.5c0-1.3-1.7-2.2-3.6-2-1.9.1-3.4,1.3-3.3,2.5,0,1.3,1.7,2.2,3.6,2,1.9-.1,3.4-1.3,3.3-2.5Z"/><g class="H"><use href="#I" x="196.9" y="71.5"/><path d="M563.8 249.1c0 .2 0 .4.1.6m6 2.2c1.3-.3 2.3-.8 3-1.6m1.7-1.2v-.2m-1.7 1.9l.3-.3m0 0c.5-.6.8-1.3.7-2"/><use href="#J" x="196.8" y="71.4"/><path d="M563.8 247.4c-.5.6-.8 1.3-.8 1.9m11.4.1c.2-1.6-1.1-3.1-3.3-3.7m-5.2.3c-.9.4-1.6.9-2.1 1.4m1.2 191.7c.5-.6.8-1.3.7-1.9m-9.7.7c0 .5.3 1 .6 1.4m2 1.2c2.3.7 5.1.1 6.5-1.4m2.4-190.1h-.2m3.2 0h-.2"/></g><path d="M558.7,436c0,.7,1,1.3,2.1,1.2,1.1,0,2-.7,1.9-1.5s-1-1.3-2.1-1.2c-1.1,0-2,.7-1.9,1.5Z"/><path d="M563.1 435.7c0-.8-1.1-1.5-2.4-1.4s-2.2.8-2.2 1.7c0 .8 1.1 1.5 2.4 1.4 1.3 0 2.2-.8 2.2-1.7zm41.6 17c0 .7 1 1.3 2.1 1.2 1.1 0 2-.7 1.9-1.5 0-.7-1-1.3-2.1-1.2-1.1 0-2 .7-1.9 1.5z"/><path d="M609,452.4c0-.8-1.1-1.5-2.4-1.4-1.3,0-2.2.8-2.2,1.7,0,.8,1.1,1.5,2.4,1.4,1.3,0,2.2-.8,2.2-1.7Z"/><g class="H"><path d="M611 455.7c.5-.6.8-1.3.7-1.9m-9.7.8c.1 1.8 2.4 3.1 5.1 2.9 1.6-.1 3.1-.8 3.9-1.7M560.1 436h-.2m2 .1h-.2"/><path d="M606 452.7h-.2m2 0h-.2m311.3 137.5c-.3.4-.5.8-.4 1.2m-.1 0c0 .5.4 1 .9 1.3"/><use href="#K" x="450.6" y="163.5"/><path d="M924 592.6c.2-.1.3-.3.5-.4m0 0c.3-.4.5-.9.5-1.3m0-.1c0-1.3-1.7-2.2-3.6-2-1.9.1-3.4 1.3-3.3 2.5 0 .5.3.9.7 1.3m7.6-1.1c.5-1.8-1.2-3.4-3.9-3.7-2.7-.2-5.2 1-5.7 2.8 0 .3-.1.5 0 .8m-.1 0v.3m10.1-.6v-.3"/><path d="M926.8 590.8c-.1-1.9-2.6-3.3-5.5-3.1-2.8.2-5 1.8-5 3.7m.4-1.6c-.4.4-.6.9-.7 1.3"/><path d="M927.2 590.7c-.3-1.2-1.6-2.3-3.3-2.7m-5.1.3c-.9.4-1.6.9-2.1 1.4"/><use href="#L"/><use href="#M"/><use href="#N"/><path d="M373.3,175.8c-.5.1-.9.2-1.4.2-.4,0-.9,0-1.4-.1"/><path d="M373.2 175.5v.3m-3.5 3l.7-1m-.1-1.8c-.2.4-.5.7-.7.9-.2.3-.5.5-.7.7m1.3-1.8l.2.2m3.2 1.6c.2.3.4.6.6.8"/><path d="M368.9 177.7v-.1c0-.1 0 0 0 0m-.1-.3v.2m4.7-1.6s0-.1.1-.2m1.2 1.7c-.2-.2-.4-.4-.7-.6-.2-.2-.4-.5-.7-.9"/><path d="M374.8 177.4v-.2m-.7 1.4s-.1-.2-.2-.2"/><use href="#O"/><use href="#P"/><path d="M368.8 177.7h.1m4.2 1.5h0"/><use href="#Q"/><path d="M370.1 179.1l-.2-.2-.6-.6m-.5-1v.3m0-.3l.2-.2.6-.6m1-.9h-.2s-.1 0-.2.2"/><use href="#R"/><use href="#S"/><path d="M373.6 175.7l.2.2.6.6m-3.7 1.1v.2m2.7-.3h0 0v.1h0 0 0 0 0 0 0 0 0 0v.1h0 0 0 .1 0 0 0 0 0 0 0 0 0v.1h0 0 0 0 0m-3.2-1.8h.1m3.1-.1h0v-.1h0 0 0-.1 0 0 0 0 0 0 0 0 0 0-.1 0 0 0 0m-2.9 1.9h0 0 0 0 0 .1 0 0 0v.1h0 0 0 0 0 0 0 0 0 0 0 0 0 0 .1 0 0 0 0 0 0v.1"/><use href="#T"/><path d="M370.6 175.6v.2"/><use href="#N" x="708.6" y="257.1"/><path d="M1078.8 432.9l.2.2m3.3 1.7c.2.3.4.6.6.8m-5.4-.7v-.1c0-.1 0 0 0 0m-.1-.3v.2m4.7-1.7s0-.1.1-.2m1.3 1.8c-.2-.2-.4-.4-.7-.6s-.4-.5-.7-.9"/><path d="M1083.5 434.6v-.2m-.8 1.3s-.1-.2-.2-.2"/><use href="#O" x="708.6" y="257.1"/><use href="#P" x="708.6" y="257.1"/><path d="M1077.4 434.8h.1"/><use href="#Q" x="708.6" y="257.2"/><path d="M1078.7 436.3l-.2-.2-.6-.6m-.5-1v.3"/><use href="#U"/><path d="M1079.2 432.8h-.2s-.1 0-.2.2"/><use href="#R" x="708.6" y="257.2"/><use href="#S" x="708.7" y="257.1"/><path d="M1082.3 432.8l.2.2.6.6"/><use href="#L" x="708.6" y="257.2"/><use href="#M" x="708.7" y="257.1"/><path d="M920.4 591.4v.2m2.7-.3h0 0 0 0 0l.1.1h0 0 0 0 0 0 0 0 0 0 0v.1h0 0 0 0 0 0 0 0 0 0 0 0 0 0 0 0v.1m-3.2-1.9h.1m3.1-.1h0 0 0 0 0 0 0 0 0-.1 0 0v-.1h0 0 0 0 0 0-.1v.1m-2.8 1.9h0 0 0 0 0 0 0 0 0 0 0 0 0 0v.1h0 0 .1 0 0 0 0 0 0 0 0 0 0 0 0 0"/><path d="M923.2 591.6h0m-2.8-.2c.5 0 1 .1 1.4.1s.9 0 1.4-.2m-2.9-1.9v.2"/><path d="M923,589.6c-.5.1-.9.2-1.4.2-.4,0-.9,0-1.4-.1"/><path d="M922.9 589.3v.3m-3.5 2.9l.7-1m-.1-1.8c-.2.4-.5.7-.7.9-.2.3-.5.5-.7.7"/><path d="M919.9 589.6l.2.2m3.2 1.6c.2.3.4.6.6.8m-5.3-.7v-.1m-.1-.3v.2m4.7-1.7s0-.1.1-.2m1.3 1.8c-.2-.2-.4-.4-.7-.6s-.4-.5-.7-.9"/><path d="M924.6 591.2v-.2"/><use href="#O" x="503" y="182.5"/><use href="#P" x="503" y="182.5"/><path d="M871.8 360.2h.1"/><use href="#Q" x="503.1" y="182.6"/><path d="M873.1 361.7l-.2-.2-.6-.6m-.5-1v.3"/><use href="#U" x="-205.6" y="-74.6"/><path d="M873.6 358.2h-.2s-.1 0-.2.2"/><use href="#R" x="503" y="182.6"/><use href="#S" x="503.1" y="182.5"/><path d="M876.7 358.2l.2.2.6.6"/><use href="#L" x="503" y="182.5"/><use href="#M" x="503.1" y="182.5"/><use href="#N" x="503.1" y="182.5"/><path d="M873.7 360.1v.2m2.7-.2h0 0 .1 0 0 0 0 0v.1h0 0 0 0 0 0 0 0 0 0 0v.1h0 0 0 0 0 0 0 0 0 0 0 0m-3.1-1.8h.1m3-.1h0 0 0 0 0 0 0v-.1h0 0-.1 0 0 0 0 0 0 0 0 0-.1m-2.8 1.9h0 0v.1h0 0 0 0 0 0 0 0 0 0 0 0 .1 0 0v.1h0 0 0 0 0 0 0 0 0 0 0 0"/><use href="#T" x="503" y="182.5"/><path d="M873.6 358.2v.2"/><path d="M876.3 358.3c-.5.1-.9.2-1.4.2-.4 0-.9 0-1.4-.1m2.8-.3v.3m-3.6 2.9l.7-1m0-1.8c-.2.4-.5.7-.7.9l-.7.7m1.2-1.8l.2.2m3.3 1.7c.2.3.4.6.6.8m-5.4-.7v-.1m-.1-.3v.2m4.7-1.7s0-.1.1-.2m1.3 1.8c-.2-.2-.4-.4-.7-.6-.2-.2-.4-.5-.7-.9"/><path d="M877.9 360v-.2m-.8 1.3s-.1-.2-.2-.2m-407.6 65.2l.2.2m3.3 1.6c.2.3.4.6.6.8m-5.3-.7v-.1m-.1-.3v.2m4.7-1.7s0-.1.1-.2m1.2 1.8c-.2-.2-.4-.4-.7-.6s-.4-.5-.7-.9"/><path d="M474 427.7v-.2m-.8 1.4s-.1-.2-.2-.2"/><use href="#O" x="99.1" y="250.3"/><use href="#P" x="99.2" y="250.2"/><path d="M468 427.9h.1m1 1.4l-.2-.2-.6-.6m-.3-.9v.3"/><use href="#U" x="-609.4" y="-6.9"/><path d="M469.8 425.9h-.2s-.1 0-.2.2"/><use href="#R" x="99.2" y="250.3"/><use href="#S" x="99.2" y="250.3"/><path d="M472.8 426l.2.2.6.6"/><use href="#L" x="99.2" y="250.3"/><use href="#V"/><path d="M466 426.5c-.2.2-.3.4-.4.6a.76.76 0 0 1-.2.4m4.4.4v.2m2.8-.3h0 0 0 0 0v.1h0 0 0 0 0 0 0 0 0 0 0v.1h0 0 0 0 0 0 0 0 0 0 0 0 0 0 0 0v.1m-3.1-1.9h.1m3.1-.1h0 0 0-.1 0 0 0 0 0 0 0 0v-.1h0-.1 0 0 0 0 0v.1"/><path d="M469.6 428h0 0 0 0 0 0 0 0 0 .1 0 0 0 0v.1h0 0 0 0 0 0 0 0 0 0 0 0 0 .1 0 0 0 0m0-.2c.5 0 1 .1 1.4.1s.9 0 1.4-.2m-2.8-1.9v.2"/><path d="M472.5,426.1c-.5.1-.9.2-1.4.2-.4,0-.9,0-1.4-.1"/><path d="M472.4 425.8v.3m-3.6 2.9l.7-1m0-1.8c-.2.4-.5.7-.7.9-.2.3-.5.5-.7.7m192.8 68.3c.2.3.4.6.6.8m-5.3-.6v-.1m-.1-.3v.2m4.7-1.7s0-.1.1-.2m1.2 1.7c-.2-.2-.4-.4-.7-.6-.2-.2-.4-.5-.7-.9"/><path d="M662.1 495.9v-.2m-.8 1.4s-.1-.2-.2-.2"/><use href="#O" x="287.2" y="318.5"/><use href="#P" x="287.3" y="318.5"/><path d="M656.1 496.2h.1m.9 1.3l-.2-.2-.6-.6m-.2-.8v.3"/><use href="#U" x="-421.3" y="61.4"/><path d="M657.9 494.1h-.2s-.1 0-.2.2"/><use href="#R" x="287.3" y="318.5"/><use href="#S" x="287.3" y="318.5"/><path d="M660.9 494.2l.2.2.6.6"/><use href="#L" x="287.3" y="318.5"/><use href="#V" x="188.1" y="68.3"/><path d="M654.1 494.7c-.2.2-.3.4-.4.6 0 .1-.1.2-.2.4m4.4.4v.2m2.8-.2h0 0 0 0 0 0 0 0 0 0v.1h0 0 0 0 0 0 0 0 0 0 0 0v.1h0 0 0 0 0 0 0 0 0m-3.1-1.8h.1m3.1-.1h0 0-.1 0v-.1h0 0 0 0 0 0 0 0-.1 0 0 0 0 0 0 0 0-.1m-2.8 1.9h0 0 0 0v.1h0 0 0 0 0 .1 0 0 0 0 0 0 0 0 0 0 0 0v.1h0 0 0 0 0 .1 0"/><path d="M660.7 496.3h0"/><use href="#T" x="287.2" y="318.5"/><path d="M657.9 494.1v.2"/><path d="M660.5 494.3c-.5.1-.9.2-1.4.2-.4 0-.9 0-1.4-.1m2.8-.3v.3m-3.6 2.9l.7-1m0-1.8c-.2.4-.5.7-.7.9-.2.3-.5.5-.7.7m1.2-1.8l.2.2m421.7-59.7v.2m2.7-.3h0 0 0 0 .1 0 0v.1h0 0 0 0 0 0 0 0 0 0 0v.1h0 0 0 0 0 0 0 0 0 0 0 0 0m-3.2-1.8h.1m3.1-.1h0 0 0 0 0 0 0 0v-.1h0-.1 0 0 0 0 0 0 0 0-.1 0m-2.8 1.9h0v.1h0 0 0 0 0 0 0 0 0 0 0 0 0 0 .1v.1h0 0 0 0 0 0 0 0 0 0 0 0 0"/><use href="#T" x="708.6" y="257.2"/><path d="M1079.2 432.8v.2"/><path d="M1081.9,432.9c-.5.1-.9.2-1.4.2-.4,0-.9,0-1.4-.1"/><path d="M1081.8 432.7v.3m-3.5 2.9l.7-1m-.1-1.8c-.2.4-.5.7-.7.9-.2.3-.5.5-.7.7m-531.8 26.7a1.38 1.38 0 0 0 .3-.4c.1-.2.3-.5.3-.7s.1-.5.1-.7v-.3m-1.2 2.6c.1 0 .2-.2.3-.3l.2-.2m.8-2.2v.1"/><path d="M546.5 459.3v.6c0 .2-.1.4-.2.6s-.2.4-.4.6-.3.4-.6.5m-6-4.4c-.1.1-.2.2-.2.4m4.3 1.5c.1 0 .2-.2.3-.3 0 0 .2-.2.2-.3s0-.2.1-.3v-.7c0-.2-.2-.4-.4-.6-.1 0-.2-.2-.3-.2a.76.76 0 0 1-.4-.2c-.3-.1-.6-.2-.9-.2h-1c-.3 0-.6.2-.9.3s-.5.3-.7.5"/><path d="M546.5 459.3c0-.4-.1-.8-.3-1.1-.1-.3-.3-.5-.6-.8l-.5-.5c-.2-.1-.4-.3-.6-.4s-.5-.3-.8-.3c-.3-.1-.6-.2-.9-.2-.6-.1-1.3-.1-2 0-.3 0-.6.1-1 .2-.3.1-.6.2-.9.4s-.6.4-.8.6m4.4 1.1v-.2m.1-.9h0 0v-.1h0-.1 0 0 0 0 0 0 0 0 0 0-.1 0 0 0 0 0m-1.6 1h.8c.2 0 .5 0 .8-.1"/><path d="M540.8 456.9v.2m1.6 0h-1.6m1.5-.3v.2m-1.8.2c-.1.2-.3.4-.4.5m2.6.5c.1.2.3.4.4.5"/><use href="#W"/><path d="M543.4 457.8v.2"/><use href="#X"/><path d="M542.9 458.8l-.1-.1m-.3-.4h-.4m-2.3-.5h0"/><use href="#O" x="-156.8" y="157.4"/><use href="#P" x="-156.7" y="157.4"/><path d="M212.1 335.1h.1m1 1.3l-.2-.2-.6-.6m-.3-.9v.3"/><use href="#U" x="-865.3" y="-99.8"/><path d="M213.9 333h-.2s-.1 0-.2.2"/><use href="#R" x="-156.7" y="157.4"/><use href="#S" x="-156.7" y="157.4"/><path d="M216.9 333.1l.2.2.6.6"/><use href="#L" x="-156.7" y="157.4"/><use href="#V" x="-255.9" y="-92.8"/><path d="M210.1 333.6c-.2.2-.3.4-.4.6a.76.76 0 0 1-.2.4m4.4.4v.2m2.8-.3h0v.1h0 0 0 0 0 0 0 0 0 0v.1h0 0 0 0 0 0 0 0 0 0 0 0v.1h0 0 0 0 0 0 0m-3.1-1.8h.1m3.1-.1h0 0v-.1h-.1 0 0 0 0 0 0 0 0 0 0-.1 0 0 0 0 0 0m-2.9 1.9h0 0 0 0 0 0 0v.1h0 .1 0 0 0 0 0 0 0 0 0 0 0 0 0 0 0 0 0 .1v.1h0 0"/><path d="M216.7 335.2h0"/><use href="#T" x="-156.8" y="157.4"/><path d="M213.9 333v.2"/><path d="M216.6,333.2c-.5.1-.9.2-1.4.2-.4,0-.9,0-1.4-.1"/><path d="M216.5 332.9v.3m-3.6 3l.7-1m0-1.8c-.2.4-.5.7-.7.9-.2.3-.5.5-.7.7m1.2-1.8l.2.2m3.3 1.6c.2.3.4.6.6.8"/><path d="M212.2 335.2v-.1m-.1-.4v.2m4.7-1.6s0-.1.1-.2m1.2 1.7c-.2-.2-.4-.4-.7-.6-.2-.2-.4-.5-.7-.9"/><path d="M218.1 334.8v-.2m-.8 1.4s-.1-.2-.2-.2m384.5 129.5v.1m0 0v.6c0 .2-.1.4-.2.6s-.2.4-.4.6-.4.4-.6.5c-.2.2-.5.3-.7.5a.76.76 0 0 0-.4.2m-2.9.5h-.4c-.3 0-.6 0-.9-.1-.2 0-.4 0-.6-.1m-2.4-1.9c0-.2-.1-.4-.1-.6m-.1-.2v-.1"/></g><use href="#Y"/><g class="H"><use href="#Z"/><use href="#W" x="55.1" y="6.1"/><path d="M594.8 464.3v-.2"/><path d="M594.8 464.3h0 0 0 0 0 0 0 0 0 0 0 0v.1"/><use href="#X" x="51.4" y="6.3"/><path d="M598.6 463.9v.2"/><use href="#X" x="55.1" y="6.1"/><path d="M598 464.9l-.1-.1m-.3-.4h-.2-.6m-.9.1s0 .1-.1.1l-.1.1m1.7.6h0"/><use href="#a"/><path d="M591.9 466v.7m7.4 1.9l.6-.3c.3-.2.5-.4.7-.6l.2-.2m-3.2-3.1v-.2m-1.6 0v.2m1.7-1.1h0 0v-.1h0 0 0 0 0-.1 0 0 0 0 0 0 0 0 0-.1 0 0m-1.5 1h.8c.2 0 .5 0 .8-.1m-1.7-1.1v.2"/><path d="M597.5 463.2h-1.6m1.5-.3v.2m-2.2 1.9l.1-.1c.1-.1.3-.3.4-.6m0-1c-.1.2-.3.4-.4.5-.1.2-.3.3-.4.4m2.9.1c.1.2.3.4.4.5m-26.5-216v-.2m-.8 1.4s-.1-.2-.2-.2"/><use href="#O" x="196.8" y="71.4"/><use href="#P" x="196.8" y="71.4"/><path d="M565.6 249.1h.1m4.3 1.6h0"/><use href="#Q" x="196.9" y="71.5"/><path d="M566.9 250.6l-.2-.2-.6-.6m-.5-1v.3"/><use href="#U" x="-511.8" y="-185.7"/><path d="M567.4 247h-.2s-.1 0-.2.2"/><use href="#R" x="196.8" y="71.4"/><use href="#S" x="196.9" y="71.4"/><path d="M570.5 247.1l.2.2.6.6"/><use href="#L" x="196.8" y="71.4"/><use href="#M" x="196.9" y="71.4"/><use href="#N" x="196.8" y="71.4"/><path d="M565.7 437.1v.1m0 0v.6c0 .2-.1.4-.2.6s-.2.4-.4.6-.4.4-.6.5c-.2.2-.5.3-.7.5-.3.1-.5.3-.8.4s-.6.2-.9.2-.6.1-.9.1h-.9c-.3 0-.6 0-.9-.1-.2 0-.5-.1-.7-.2m-1.9-1a1.38 1.38 0 0 1-.3-.4l-.3-.6c-.1-.2-.1-.4-.1-.6m-.1 0v-.1"/></g><use href="#Y" x="-35.9" y="-28.2"/><g class="H"><use href="#Z" x="-35.9" y="-28.2"/><path d="M567.5 249v.2m2.7-.2h0 0 0 .1 0 0 0 0 0 0v.1h0 0 0 0 0 0 0 0 0 0 0v.1h0 0 0 0 0 0 0 0 0 0m-3.1-1.8h.1m3-.1h0 0 0 0 0v-.1h0 0 0 0-.1 0 0 0 0 0 0 0 0 0-.1m-2.8 1.9h0 0 0 0v.1h0 0 0 0 0 0 0 0 0 0 .1 0 0 0 0 0 0v.1h0 0 0 0 0 0 0 0"/><path d="M570.3 249.2h0"/><use href="#T" x="196.8" y="71.4"/><path d="M567.4 247v.2"/><path d="M570.1 247.2c-.5.1-.9.2-1.4.2-.4 0-.9 0-1.4-.1m2.8-.3v.3m-3.6 2.9l.7-1m0-1.8c-.2.4-.5.7-.7.9-.2.3-.5.5-.7.7m1.2-1.8l.2.2m3.3 1.6c.2.3.4.6.6.8m-5.4-.6v-.1m-.1-.3v.2m4.7-1.7s0-.1.1-.2"/><path d="M571.7 248.8c-.2-.2-.4-.4-.7-.6-.2-.2-.4-.5-.7-.9m-8.4 188.8c.1.2.3.4.4.5"/><use href="#W" x="19.2" y="-22.1"/><path d="M559 436.1v-.2m0 .2h-.1 0 0 0 0 0 0 0 0 0 0 0v.1"/><use href="#X" x="15.5" y="-21.9"/><path d="M562.7 435.7v.2"/><use href="#X" x="19.2" y="-22.1"/><path d="M562.1 436.7l-.1-.1m-.2-.4h-.2-.6m-1 .1s0 .1-.1.1l-.1.1m2.9-.4h0m-2.7 1.1h0"/><use href="#a" x="-35.9" y="-28.2"/><path d="M556 437.8v.6c0 .2.2.5.3.7 0 0 .1.2.2.2m2.1 1.3c.2 0 .5.1.7.2.3 0 .6.1 1 .1h1c.3 0 .7 0 1-.2.3 0 .6-.2.9-.3s.6-.3.8-.4c.3-.2.5-.4.7-.6l.2-.2"/><use href="#a" x="10" y="-11.5"/><path d="M602 454.5v.6c0 .2.2.5.3.7s.3.4.5.6.4.4.7.5c.2.2.5.3.8.4l.9.3c.3 0 .6.1 1 .1h1c.3 0 .7 0 1-.2.3 0 .6-.2.9-.3s.6-.3.8-.4c.3-.2.5-.4.7-.6l.2-.2m.8-2.3v.1m0 0v.6c0 .2-.1.4-.2.6s-.2.4-.4.6-.4.4-.6.5c-.2.2-.4.3-.7.5-.3.1-.5.3-.8.4s-.6.2-.9.2-.6.1-.9.1h-.9c-.3 0-.6 0-.9-.1-.3 0-.6-.1-.9-.2l-.8-.3c-.2-.1-.4-.3-.6-.4-.2-.2-.4-.3-.5-.5l-.3-.6c-.1-.2-.1-.4-.1-.6"/><path d="M602 454.5v-.1"/></g><path d="M604.5 451.7c-.2.2-.3.4-.3.6v.7c0 .2.2.4.4.6s.4.3.7.4.6.2.9.2h1c.2 0 .3 0 .5-.1h.2s.1 0 .2-.1c.3-.1.5-.3.7-.5 0 0 .2-.2.2-.3s0-.2.1-.3v-.7c0-.2-.2-.4-.4-.6-.1 0-.2-.2-.3-.2a.76.76 0 0 1-.4-.2c-.3-.1-.6-.2-.9-.2h-1c-.3 0-.6.2-.9.3s-.5.3-.7.5z"/><g class="H"><use href="#Z" x="10" y="-11.6"/><path d="M561.8 436.2v-.2m-1.7 0v.2m-.3-.1h0m2-1h0 0v-.1h0 0 0 0 0 0-.1 0 0 0 0 0 0 0 0 0-.1 0m-1.5 1h.8c.2 0 .5 0 .8-.1m-1.7-1.1v.2"/><path d="M561.6 435H560m1.5-.3v.2m-2.2 1.9l.1-.1c.1-.1.3-.3.4-.6m0-1c-.1.2-.3.4-.4.5-.1.2-.3.3-.4.4m48.5 15.7h-1.6"/><path d="M607.5 451.4v.2m-2.2 1.9l.1-.1c.1-.1.3-.3.4-.6m-.1-1c-.1.2-.3.4-.4.5-.1.2-.3.3-.4.4m2.9 0c.1.2.3.4.4.5"/><use href="#W" x="65.1" y="-5.5"/><path d="M604.9 452.7v-.2"/><path d="M604.9 452.7h0v.1h0 0 0 0 0-.1 0 0 0"/><path d="M604.8 452.8h0 0 0 .1v.1h0 0 0 0m3.7-.5v.2m0 .1h0 0 0 0 0 0 0 0-.1 0v-.1m-.4.8l-.1-.1m-.3-.4h-.2-.6m-1 0s0 .1-.1.1l-.1.1"/><path d="M608.6 452.7h0m-.9.2v-.2m-1.7 0v.2m-.2-.1h0m2-1.1h0-.1 0 0 0 0 0 0 0 0 0 0 0-.1v-.1h0 0 0 0v.1h0 0-.1m-1.5 1h.8c.2 0 .5 0 .8-.1m-1.6-1.2v.2m317.8 140.8s-.1-.2-.2-.2"/><use href="#O" x="549.7" y="413.8"/><use href="#P" x="549.7" y="413.7"/><path d="M918.5 591.4h.1m1 1.4l-.2-.2-.6-.6m-.3-.9v.3m0-.3l.2-.2.6-.6m1-.9h-.2s-.1 0-.2.2"/><use href="#R" x="549.7" y="413.8"/><use href="#S" x="549.8" y="413.8"/><path d="M923.4 589.5l.2.2.6.6"/><use href="#L" x="549.7" y="413.8"/><use href="#V" x="450.6" y="163.5"/><path d="M916.5 590c-.2.2-.3.4-.4.6a.76.76 0 0 1-.2.4M555.4 459.3l.1.1m260.2-51v-.6m-85.3 95.9l77-88.5m-77 88.6l77-88.5m-219.6 50.8l-1.3-.5m-.1.1l.1-.1m-5.7 6.8l-.2.2m1.3-1.7l-.7.8m2-.3l-1.3-.5"/><path d="M580.8 472.4l-.2-2.9m.7 3.1l-.5-.2m13.7-4.8l.1 1.1m-4.6 6v1.1m.2-1.3l-.2.2m0 1.1l.1-.1m-9.5-6.2l3.3 1.2m0 0l-.7.8m6 2.2l5.3-6.1m0 0l-6-2.2m-.7.8l.7-.8m-3.9-.4l3.2 1.2"/><path d="M584.6 465l-4 4.5m8.6 4.2l.2 2.1m-6.2-4.3l6 2.2m-6-2.2l-.6.7m0 0l-1.4-.5m0 0l.1 1.1m-35.9.4l-.1-1.5m2.9 4.7l6.5 2.4m12.9-15.8l-1 1.1m1-1.1l-5.9-2.2m0 0l-1 1.2m.3.1l-.3-.1m-3.1-.4l2.8 1.1m6.3 4.9l.7-.8m-3.5-.2l2.8 1"/><path d="M564.6 465.7l-.7.9m3.5.2l-2.8-1.1m-8.6-2l2.8 1m-2.1-1.8l-.7.8"/><path d="M559.5 463.9l-2.8-1m2.1 1.8l.7-.8m14.3 2.1l-.5.6m-7.7 5l6.2-7.1m2 4.1l-4 4.6m-15.1 5.6v-.3m0 0l-6.5-2.4m-2.4-2.8l-.1-1.5m2.1-1.1l14.3 5.2m.4 5.4l-7.6-2.7m0 .2v-.2m0 .2l7.6 2.8"/><path d="M549.6 472.8v-.3m12.3 4.8l-12.3-4.5"/><path d="M561.9 477.2v.1"/><path d="M561.9 477.3h0"/><path d="M562 477.3h-.1m0 0l-2.4-.8m-.2.1l.2-.1m-.2.1l2.8 1m0 0l.2-.1m-.2.5v-.4"/><path d="M562.6 477.8l-.5.2m1.8 1.4l-1 1.2m0 0l-.4.7m11.6-12.4l.5-.6m-.8.3v.2m-2.9 4.7l1.8-2.1m0-.1v.1m.5-.7v.5m1.4-2.9l.1 2.2m-16-10.7l-1.2 1.4m1.2-1.4l-1.2-.5m0 0l-6.2 7.1m20.5-1.9l-1.3-.5m-1.2 1.5l1.2-1.5m-4.7.6l2.8 1"/><path d="M566.3 464l.3.1m6.6 3l.7.2m-26.4 4.5l-1 1.2m19.5-5.8h.1m-19.6 5.8l-.7.3"/><path d="M546.4 471.5l.1 1.5m19.5-5.8l-.1.1m-.7-.3l.3-.3m-.1-.1l.1.1m-.9.2l.6-.7m.8 1.2l.1-.2m.6-.1l-1.3-.5"/><path d="M565.2 466.2l.2.4m-8.3 10.2v-.4m.8 1.2l-.1-.3m.5.2v-.2m-3.4 1.2l-.2.3m1.5-2.1v-.3m-7.6-1l-.4.7m6.8 1.6l-.3.8m12.2-11.7l-.6.7m-17.2 5.8v-.4m0 .4l2.8 1"/><path d="M549.1 472.9l.1-.5m2.7 1.5l-2.8-1m2.8 1.4l.2-.1"/><path d="M551.9 473.9l.1-.1m-4-21.5v.2m.3.1h0"/><path d="M548.3 452.6v-.8m-1.1 1.2l.1.8m.3-.4l-.3.4"/><path d="M547.6 453.4v-.6m5.6-14.7l-11.3 13m5.3 1.9l-5.3-1.9m6.4.7l-1.1 1.2m1.6-1l-.5-.2m9.7-10.4l-9.2 10.6"/><path d="M557.5 441.2l.5.2m.5-1.4l-1 1.2m-4.3-3.1l5.3 1.9m-1.1 2.4v.6"/><path d="M557.4 443l.7-.8m-9.2 10.5l-.6-.1"/><path d="M548.8 452l.1.7m-1.5 1.3l-.4.4"/><path d="M547.4 453.7v.3m1.1-1.4v.1m-.9.6v-.5m.7 2.9l-.6-.2"/><path d="M548.3 455.7l-.1-.6m0-.4l.2-.1m0-1.6l.1 1.4m0 0l.3-.3m-.1-1.4l.1 1.4m-.4-1.1l-.8-.3"/><path d="M548.7 452.7l-.3.3m-.5-.6l.8.3m-1.4 1.8l.1 1.5m-.1-1.5l-.3-.1m0 0l-.1-.8"/><path d="M546.9 453.6l.4.2m-5.4-2.7l.2 3.3m.4.1l-.4-.1"/><path d="M542.5 454.3v.2m4.9 1.5l-4.9-1.7m5.1-1.5v-.1m0 0l.3-.3m0 0l.1-.1m5.2-5.1v.6"/><path d="M553.2 447.8l.6-.7m0 0l-.1-.5m.2-.2l-.2.2m.2.7v-.9m0 .9l.2-.2"/><path d="M554.1 447.1v-.9m.1-.2l-.1.2m.1-.2v.6"/><path d="M554.2 446.6l.6-.7m0 0v-.5m.1-.2l-.1.2m.2.7l-.1-.9m.1.9l.2-.2"/><path d="M555.2 445.9l-.1-.9m.2-.2l-.2.2m.2-.2v.6"/><path d="M555.3 445.4l.6-.7m0 0l-.1-.5m.2-.2l-.2.2m.2.7v-.9m0 .9l.2-.2"/><path d="M556.2 444.7v-.9m.1-.2l-.1.2m.1-.2v.6"/><path d="M556.3 444.2l.6-.7m0 0v-.6m.1-.1l-.1.1m.2.8l-.1-.9m.1.9l.2-.2m0 0l-.1-.9m.2-.2l-.2.2m-8.3 10.1l.7-.7m8.5-9.8l-.1-.8"/><path d="M549.6 452l-.1-.6m.2-.2l-.2.2m.2-.2v1m0 0l.2-.2m0-1v1m.1-1.2l-.1.2m.1-.2v.6"/><path d="M550 451.4l.6-.6m0 0v-.6m.1-.2l-.1.2m.1-.2l.1 1m0 0l.2-.3"/><path d="M550.9 449.8l.1.9m0-1.1l-.1.2m.1-.2l.1.6m0 0l.6-.6m0 0l-.1-.6m.2-.2l-.2.2m.2-.2v1m0 0l.2-.3"/><path d="M552 448.6v.9m.1-1.1l-.1.2m.1-.2v.6"/><path d="M552.1 449l.6-.7m0 0v-.5m.1-.2l-.1.2m.1-.2l.1 1m0 0l.2-.3"/><path d="M553 447.4l.1.9m.1-1.1l-.2.2m-4.6 8.3h-.1"/><path d="M548.4 455.1v.6"/><path d="M548.4 455.1h0m.1-.3l.5.2m.7-.7l-.1-1.6"/><path d="M548.9 453.5l.1 1.5m.7-.7l-.7.7m-.5-.2v-.3"/><path d="M549.7 454.3h0m-.1-1.6v-.5m0 0h.1m-1.2 2.8l-.1.1m.3-1.7l.2.1m.7-.8l-.7.8"/><path d="M549.6 452.7l-.1-.2m-.3-.1l.3.1m-1.8 3.2l-.1-1.5m.9.3l.2-.3m-1.1 0l-.1-.2m-.1 0h0m0 2l.3-.2"/><path d="M547.7 455.8l-.1-1.5m-.3.2l.3-.2m4.5-5.3h-.1m-.3 1.3l-.6.7"/><path d="M551.7 450.3l-.1-.2m-.3-.1l.3.1m-.4 2.4l-.3.1m-.1-1.6h.3"/><path d="M551.1 451l.1 1.5m.6-.6v-.1m-.1-1.5v-.5m0 0h.1m-.8 3.1l-.2-2m0 2.2l.2-.2m-.2.1l-.6.7"/><path d="M550.8 453l-.1-1.5m.4-1.3h-.2m-.7 3.5l-.3.1"/><path d="M550.1 452.2l.1 1.5m-.4-1.5h.3m.6-.7l-.6.7m.6-.7l-.1-.2m-.4-.1l.4.1m.2 1.8h0m-.1-1.6l-.1-.5m0 0h.2m-8.3 3.5l.2-.2m7.2-.2l-.1-2m-.1 2.2l.2-.2m-1.3 1.5l-.2.1"/><path d="M548.6 455.6l-.1-.6m0 0l-.1.1"/><path d="M548.5 455h0m1.5-3.6h-.1m4.3-4.8h-.1m-.3 1.3l-.6.6"/><path d="M553.8 447.9l-.1-.2m-.3-.1l.3.1m-.3 2.4h-.4m-.1-1.5l.3-.1"/><path d="M553.2 448.5l.2 1.6m.4-2.8v.6m.1 1.5v.1m-.1-2.2h.1m-.8 3.2l-.2-2m0 2.2l.2-.2m-2.4 2.7l.2-.2m2-2.4l-.6.7"/><path d="M552.9 450.6l-.1-1.5m.4-1.3h-.2m-.7 3.5h-.3"/><path d="M552.2 449.8l.1 1.5m-.4-1.5h.3m.6-.7l-.6.7m.6-.7l-.1-.2m-.4-.1l.4.1m.2 1.8v-.1m-.1-1.5l-.1-.5m0 0h.2m-.9 3.1l-.1-2m-.1 2.2l.2-.2m-2.3 2.7l.2-.2m1.9-2.4l-.6.7"/><path d="M551.8 451.8l-.1-1.5m4.6-6.1h-.1m-.3 1.3l-.1-.2m-.3-.2l.3.2m.1.2l-.6.6m.2 1.6h-.4"/><path d="M555 446.2l.3-.1m0 0l.2 1.6m.4-2.8v.6m.1 1.5v.1m-.1-2.2h.1"/><path d="M555 446.1l.2 1.9m-.2.3l.2-.3m-2.4 2.8l.2-.2m2-2.4l-.6.7"/><path d="M555 448.2l-.1-1.5m.4-1.3h-.2m-.7 3.5h-.3"/><path d="M554.3 447.3l.1 1.6m.5-2.2l-.1-.2m-.3-.2l.3.2m-.8.9l.3-.1"/><path d="M554.9 446.7l-.6.6m.5-1.2l.1.6m.1 1.5v.1m-.2-2.2h.2m-1 1.2l.1 2m-.2.2l.2-.2m-2.3 2.7l.2-.2m1.9-2.4l-.5.7"/><path d="M553.9 449.4l-.1-1.5m3.3-4.1l.4-.1m.6-.8l-.6.8m.6-.8l-.5-.2m1-1.9h0m-.8.2h.1m0 0l.2-.3m0 0l.1-.1m0 0v.1"/><path d="M558.6 440.8l-.1-.8m-.7 1.3v-.3m-.7 2.7l.2 1.9m-.2.3l.2-.3m-2.4 2.8l.2-.3m2-2.3l-.6.6"/><path d="M557.1 445.8l-.1-1.5m.4-1.3h-.2m-.7 3.4l-.3.1"/><path d="M556.4 444.9l.1 1.5m.5-2.1l-.1-.3m-.3-.1l.3.1m-.8 1l.3-.1"/><path d="M557 444.3l-.6.6m.5-1.2l.1.6m.1 1.5v.1m-.2-2.2h.2m-1 1.2l.1 1.9m-.2.3l.2-.3m-2.3 2.8l.2-.3m1.9-2.3l-.5.7"/><path d="M556 447l-.1-1.5m2.8-1.6l-.2.1m.2-.6v.5m0-.9v-.3m.1.5l-.2.2m-.7-.6l-.1-.3m-.8 3.4l.2-.2m1.5-2.9l.3-.3m-1.2.3v-.3m.1-1.1l-.1-.4m-1.8 6.2l.2-.3m2-2.4l-.6.7"/><path d="M558.2 444.5l-.1-1.6m.9-.6l-.1-1.4m-.2 1.7l.3-.3"/><path d="M558.9 440.9l-.2.3m-.6-.5l.8.2m-.4 3.1l-.3-.2"/><path d="M558.5 444v-.7m-.1-.4l.3-.1m0-.2v-1.4m0 0l-.8-.2m-.3 4.2l-.4.1"/><path d="M557.5 443.7l.1 1.5m1.2-1.4l-.1.1m.1-.1v-.6"/><path d="M558.8 443.2l-.1.2"/><path d="M558.8 443.2h0m-.2.2h.1m56.1 13l-.2-3m-18.3 24.9l1.1-1.3m.9-1.1l.5-.5m.9-1l14.8-17"/><path d="M614.5 457.4l-.2-3.1M560.9 433l52.5 19m-76.1 4.8l2.7-3.1m13.5-15.5l3.9-4.5m56.9 20.6l-14.7 16.9m-7 4.7l-1.3-.5m8-6.6l-6 6.9"/><path d="M597.8 467.9l1.3.4m-2-.3l-.8.9m-2.3-.4l1.6.6m-3 7.8v-1m.7-.2l.1 1.5m5-1.8v-.1m1.3-2l-.3-4.7m-1.6 6.6l-1.2-.4m-1.3 1.5l1.1.4m-6.3-3.7l.1 1.6m-.2 1.1h.2m0 0l.1.4m.7-1l.1 1.3m6.3-.8l.4-.4"/><path d="M596.7 475.3l-.2-2.2m1.1-1.1l-1.1 1.1m1.3 2.1v-.1m-.1-1.4l-.1-1.7m-1.5 6.2l1.2-1.3m.9-1l.2-.3"/><path d="M598.4 475.6l-.1-.3m.7-1.1l.6-.7m0 0l-.3-4.7m-3.9 9.1l1-1.2m-1.2-2l.2 3.2"/><path d="M596.2 473.5l-1 1.2m1-1.2l.1 1.7m.1 1.4v.1m-5.1-1.3v1.1m-32.5-12.3l-1.3-.5m-.2-.3l.2.3m1.5.3l-.5.6m16.1 3.7h-.1m-5.8-2.7l.2-.1m0 0l.5-.6m-.1-.6l-.8-.8m-1 1.2l1-1.2m1.4 1.3l-.4-.2m-3.2 0l.3.1m1.7.7l-.8-.7m-.1.5l-.1-.1m1 .3l-.1.1m5.8 3.3l.1.1m-.9 1.8l-.3-.1m1.8-4.2l-.9-.4m.1 1.3l.8-.9"/><path d="M574 468.8l.5-.5m0 0l.3-.4m-.1-1.5l.1 1.5m-20.3-7.6l.9-1m-.9 1h.2m4.3-.3l.1.9m-.2 1.2h.1m-.2-1.8l-1.2 1.3"/><path d="M558.7 459.8l.1.5m.9.8l-.6-.2m-.9 1l.9-1m1 0l.7-.2m-1.8 1.2l.5-.6m-2-.1v.4"/><path d="M559.8 461.9l1-1.2m.2 1.9l-.3-.1m-1.6-.4l.7-.2m-.7.2l.1.1m.8.3h.1m-1.9 1.9l-.1-.1m-.1.2l.1-.2m-.5-.5l-.3.4"/><path d="M557.5 463.7l.1.1m-.3-.4l-.6.6m1.5.4l-.1.1m-6.2 9.8v-.4m14.6-9.3l-.2.2m-5.4-2.1v-.1m-2.1-2.3l.2-.3m0 0l-.3-.1m-10.1 15.5l1.5-1.8m-1.5 1.8l6.4 2.3m1.2-1.3l-1.2 1.3m2.8-.4l-.7-.9m1.7.3l-.5.6m-11.9-5.8l.1-.1m-.1.1l-.7.3M555 460l.5-.6m-1 1.1l-4.7 5.4m6.6 10.6l-1.1 1.3m3.7-1l-.5.6m-.9 0l-.8-.9m-1.9 2.1l.4-.8m0 0l7.6 2.8m-13.3-7.8v.1"/><path d="M552 473.8l-2.4-.9m2.5 1.3l-.1-.4m0 .4l7.3 2.7m2.8 1.1l-2.8-1"/><path d="M559.3 477v-.4m-13.9-3.4c0 1.3 1.3 2.7 2.8 3.2m12.2-13.7c.2 0 .6 0 .7-.1.1-.2 0-.4-.2-.5m-3.4-.9c-.1.2 0 .4.2.5m16.1 4.3c-.5-.7-1.3-1.2-2-1.5m2 4.1c0-.4-.2-.9-.5-1.3"/><path d="M545.8 473.3c0 1.1 1.2 2.4 2.4 2.8m-.4-5.4c-1.3-.5-2.2 0-2.2 1.2m16.9 9.4c.7.2 1.3.2 1.7 0m-1.7.3c.7.2 1.3.3 1.7 0m-1.3-1c.5.2 1 .2 1.3 0m9.6-11.8c0 .2.1.2.3 0m-1.2 1.8c-.1.2-.3.5-.2.7m.5-.6c0-.2-.1-.2-.3 0m-4.3-5.1c.2 0 .6 0 .7-.1m-3-1.5c-.2 0-.6 0-.7.1-.1.2 0 .4.2.5m-19.3 8.4c0 .9 1 2 2.1 2.4m16.9-8.7c.1.2.4.4.6.5m0 0h.4m-1.3-1c-.1-.2-.4-.4-.6-.5m2.8 1.1h-.5"/><path d="M572.7 471.8v-.3m-24.5-16.8c-.1 0 0 .2 0 .4m.2-.5v-.2m1.1 0s.2 0 .2-.1m-1.3.3s0 .2.1.2"/><path d="M548.5 454.8v.1m-.3.2h.1m.4-.9v-.1m3-2.1s.2 0 .2-.1m-1.3 1.3s.2 0 .2-.1m3-3.5s.2 0 .2-.1m-1.3 1.3s.2 0 .2-.1m3-3.5s.2 0 .2-.1m-1.3 1.3s.2 0 .2-.1m1.9-2.3s.2 0 .2-.1m1.5-3.1s0 .2.1.2"/><path d="M558.7 443v.1m-.2.2h.1m.4-.8v-.1m-.6.5c-.1 0 0 .2 0 .4m.3-.5v-.2"/></g><path d="M574.7,468.4c0,.2.3.3.5.3.3,0,.5-.2.5-.4s-.3-.3-.5-.3-.5.2-.5.4Z"/><path d="M614.5 457.4c.3-.3.4-.6.4-1m-54-23.4c-1.2-.4-2.8-.1-3.5.7m56.9 20.6c.7-.8.3-1.9-.9-2.3" class="H"/><path d="M563.8 444.4c0 .2.3.3.5.3.3 0 .5-.2.5-.4s-.3-.3-.5-.3c-.3 0-.5.2-.5.4zm3.1 15.7c0 .2.3.3.5.3.3 0 .5-.2.5-.4s-.3-.3-.5-.3-.5.2-.5.4zm-4.6-14c0 .2.3.3.5.3s.5-.2.5-.4-.3-.3-.5-.3c-.3 0-.5.2-.5.4zm4-.8c0 .2.3.3.5.3s.5-.2.5-.4-.3-.3-.5-.3c-.3 0-.5.2-.5.4zm-1.5 1.7c0 .2.3.3.5.3.3 0 .5-.2.5-.4s-.3-.3-.5-.3-.5.2-.5.4zm7.5 12.5c0 .2.3.3.5.3s.5-.2.5-.4-.3-.3-.5-.3-.5.2-.5.4z"/><g class="H"><path d="M591 475.1c0 .1.1.2.2.3m8.1-6.6c.1-.2 0-.4-.2-.5m-1.3-.4c-.2 0-.6 0-.7.1m-1.5 1.1c.2 0 .6 0 .7-.1m-3.7 6.9c.2 0 .6 0 .7-.1m5.1-.2v-.2m1.2-1.9v-.2m-42.3-9.9c-.1-.2-.4-.4-.6-.5m2.8 1h-.5m9.5-.4c-.3-.3-.6-.4-.9-.6m-1.3 1.7h-.6m3.7.3c.1-.2 0-.5-.1-.7m-1 1.2c.2.2.5.2.6 0m-1.4-.7c-.3-.3-.6-.4-.9-.6m.7 1c-.2-.2-.5-.3-.7-.4m7.2 4.2l.1-.1m0-1.5c-.1.1-.2.4-.2.6m-19.2-7.6s-.2.2-.2.4"/><path d="M559 461.9c-.1.2-.1.3 0 .2m1.1-1.2c-.2 0-.5.2-.6.4m2.2-.5c-.3-.1-.6-.1-.9 0m-.1 1.7c-.2 0-.5-.1-.7 0m.7-.5c-.3-.1-.6-.1-.9 0m-2.2 1.8c.1.2.4.4.6.5m0 .1h.5m-1.6 12c-.1-.2-.4-.2-.7-.1 0 0-.1 0-.2.1m1.6.9s.2.1.3 0m-11.7-6v.2m11.1-12.2c-.8-.3-1.5-.3-1.9 0m2 18.1c.1.2.4.2.7.1 0 0 .1 0 .2-.1"/><path d="M556.8 476.5s-.2-.1-.3 0m224.6-67.7l2.2-2.6c.4-.4.7-.9 1.1-1.3s.7-.8 1.1-1.3l1.1-1.2.6-.6.6-.6.6-.6.3-.3.3-.3.3-.3.3-.3m17 4.6c-.4-.2-.8-.3-1.2-.5l-.8-.3c-.4-.2-.8-.3-1.2-.5l-1.7-.6c-.8-.3-1.7-.5-2.5-.7-.4 0-.9-.2-1.3-.3l-1.7-.3c-.3 0-.6 0-.8-.1-.3 0-.7-.1-1-.2-.4 0-.8-.2-1.2-.2l-1.6-.4-1.8-.6m8.7 12.7l1.8-2c.6-.6 1.2-1.4 1.8-2l1.7-1.8.7-.7.6-.6c.2-.2.4-.3.5-.4.2-.1.3-.2.4-.3.2-.1.4-.2.5-.2m9 3.2l-8.9-3.2m-25.5 4.8l-4.8 5.6-4.8 5.5-4.8 5.5-4.8 5.5-9.6 10.9-9.6 10.9-4.8 5.4-4.8 5.5-4.8 5.5-4.8 5.5-4.8 5.5-14.4 16.5m94.2-84.6c-.2 0-.4-.1-.5-.2-.2 0-.4-.1-.5-.2-.2 0-.4-.1-.5-.2-.2 0-.4-.1-.5-.2-.2 0-.3-.1-.5-.2-.2 0-.3-.1-.5-.2-.2 0-.3-.1-.5-.2-.2 0-.3-.1-.5-.2-.2 0-.3 0-.5-.1-.2 0-.3 0-.5-.1-.2 0-.3 0-.5-.1-.2 0-.3 0-.5-.1-.2 0-.3 0-.5-.1h-.5-.4-.4-.4-.4-.4-.8-.7-.6-.6-.6-.5-.5-.5-.5-.5-.2-.3-.3-.4-.2-.2-.2-.1-.1-.1-.3m-59.6 90.7l4.4-5.1 4.9-5.6 4.9-5.6 4.9-5.6 4.9-5.6 4.9-5.6 4.9-5.6 4.9-5.6 9.7-11.2 9.7-11.2 4.9-5.6 4.9-5.6 4.9-5.6 4.4-5.1"/><path d="M807.4 415.2l-8.9-3.2m-93.8 84.5h.1.1.1.1.1.1.1.1.1.1.1.1.1.1.1.1.1.1.1.1.1.1.2.2.2.2.5.5.6c.2 0 .5 0 .7.1.3 0 .6 0 .8.1.3 0 .5 0 .8.2.2 0 .5.1.7.2.2 0 .5.1.7.2.2 0 .4.1.6.2.2 0 .4.1.6.2a.9.9 0 0 1 .5.1c.1 0 .3 0 .4.1.2 0 .3 0 .5.1.2 0 .5.1.7.2l1 .3c.4.1.8.3 1.2.4.5.2 1 .4 1.5.5m-20.3 2.9c.3-.3.5-.6.8-1l2.1-2.4 2.2-2.4m16.9 4.1l8.7 3.1"/><use href="#b"/><path d="M815.7 407.8v-.4c0-.1-.1-.2-.2-.2s-.3 0-.5.2c-.2.1-.5.4-.9.7l-.6.6-.7.7-1.7 1.8-3.6 4"/><use href="#b" x="8.7" y="3.1"/><path d="M730.4 503.8l-1.7 2-1.7 2-1.5 1.9c-.4.6-.8 1.1-1.2 1.6m91-103.1v-.4c0-.1-.1-.2-.2-.2s-.3 0-.5.2c-.2.1-.5.4-.9.7s-.8.7-1.2 1.2l-1.6 1.7c-.6.6-1.1 1.3-1.7 1.9l-1.7 2m-210.9 59.4l2.5.9m.5-1.2l-2.6-1h-.4"/><path d="M599.1 475.6h0v-.1h0 0 0-.1 0 0v-.1h0 0 0v-.1h0 0 0v-.1h0 0v-.1h0v-.1h0 .1v-.1h0 0v-.1h0v-.1h.1 0v-.1h0 0 0l.1-.1h0 0 0 0v-.1h.1 0 0 0 0 .1 0 0 0"/><path d="M599.1 475.6l1.6.6c.2.1.5.2.7.4.2.1.4.3.6.4s.3.3.4.4c.2.2.4.4.5.6l.3.6c.2.5.4.9.5 1.4 0 .3.1.7.2 1m1.4.5v-.5c0-.4-.1-.8-.2-1.1-.1-.5-.2-.9-.4-1.3-.1-.4-.3-.8-.5-1.1-.1-.2-.3-.4-.4-.6l-.6-.6c-.2-.2-.5-.4-.8-.6s-.6-.4-.9-.5c-.3-.2-.6-.3-.9-.4s-.6-.3-1-.4m100.9 27.1c-.5.2-1 .3-1.5.4h-.3m-82.8-16.5v-.1m.8-2.5c0-.3.2-.7.3-1l.5-1.7c.1-.5.2-.9.2-1.4 0-.2 0-.5-.2-.7 0-.2-.2-.4-.4-.6-.1-.1-.3-.2-.4-.3-.2-.1-.3-.2-.5-.3-.3-.1-.5-.2-.8-.2h-1.1c-.4 0-.7 0-1.1.1-.4 0-.7.2-1.1.3m-4.8 4.5c-.1.3-.2.5-.3.7m10.4 3.7c.4-.7.9-1.4 1.5-2.1.3-.3.6-.6 1-.9.3-.3.6-.5.9-.7l.8-.5c.3-.2.5-.3.7-.4l.6-.3c.1 0 .3-.1.4-.1h.3s.2 0 .3.1l.7.7m1.4-.4c-.3-.3-.5-.5-.7-.8-.2-.2-.4-.4-.7-.6l-.6-.3h-.5-.5c-.4 0-.9.3-1.3.5-.3.2-.6.3-.8.5l-.9.6a11.92 11.92 0 0 0-1.8 1.5l-.3.3m-1.4 1.9l-.3.6m-8-2.9c.2-.5.4-1.1.8-1.6.3-.5.7-1 1.2-1.4s1-.7 1.6-1c.2 0 .4-.1.5-.2m3.9.1s0 .2.1.3v.4c0 .2 0 .5-.2.8 0 .3-.2.7-.3 1.1l-.3 1.3-.5 1.8v.2m-19.7-8.2c.2 0 .3.1.5.2.7.2 1.3.5 2 .7m.4-1.2l-1.6-.6-1.4-.5"/><path d="M597.8 477.1h0 0-.1 0v-.1h0 0 0 0v-.1h0 0 0v-.1h0 0 0v-.1h0 0v-.1h0v-.1h0 0v-.1h.1 0v-.1h0v-.1h0 .1 0v-.1h0 0v-.1h.1 0 0 0 0l.1-.1h0 0 0 0 0 .1 0"/><path d="M597.8 477.1l1.5.6a4.67 4.67 0 0 1 1 .5c.2.1.4.3.6.4.1 0 .3.2.4.3l.2.2.2.2c.1.2.2.3.3.5s.2.5.3.7m1.3.4v-.4c0-.3-.2-.6-.3-1-.1-.3-.2-.6-.4-.9-.1-.2-.2-.3-.4-.5s-.3-.4-.5-.5c-.2-.2-.5-.3-.7-.5-.3-.2-.6-.3-.8-.5-.3-.2-.7-.3-1-.4-.4-.2-.8-.3-1.1-.4m17.4 9.5c.4-.2.7-.4 1-.7.4-.3.6-.6.8-.9a1.93 1.93 0 0 0 .3-1c0-.4 0-.8-.1-1.2 0-.4-.2-.8-.4-1.2m-1.2-1.9c-.2-.2-.4-.3-.6-.5-.3-.2-.6-.4-.9-.5l-1-.3c-.4 0-.7-.1-1.1-.1-.7 0-1.5 0-2.1.3-.7.2-1.3.5-1.9.9a6.73 6.73 0 0 0-1.5 1.4c-.4.6-.8 1.2-1 1.8 0 .1 0 .2-.1.3m12.5 4.7l.6-1.6 1-2.1m7.1-1.8s0-.1-.1-.2l-1.2-1.2c-.3-.3-.7-.5-1-.7-.4-.2-.9-.3-1.3-.4h-.8c-.3 0-.5.1-.8.3-.3.1-.5.3-.8.5s-.5.4-.7.7c-.5.6-1 1.2-1.3 1.8v.1m-12.1.4c.2-.6.5-1.1.8-1.7.4-.5.8-1 1.4-1.3.6-.4 1.2-.6 1.8-.8.3 0 .7-.1 1-.1h1a1.93 1.93 0 0 1 1 .3c.3.1.6.3.8.5l.6.6c.2.2.3.4.4.7m.8 2.4c0 .1 0 .2-.1.3-.1.2-.3.4-.6.6l-1.3.8c-.1 0-.3.2-.4.2m-48-20.1v-.6m396.9 31.1l.2.1.2.1.2.1h.2l.2.1.2.1.2.1.2.1.2.1h.2l.2.1.2.1.1.1.2.1.1.2.2.1.1.1.2.1.1.1.1.1.1.1.1.2.1.1v.1l.1.1.1.2v.1l.1.1v.2.1l.1.1v.1.4m3.2-24.4l-161-58.4m0 0l-1.1-.4c-.4-.1-.8-.3-1.1-.4m-77.1 88.5c.3.1.7.3 1.2.4.2 0 .6.2 1.1.4M917 548.2l46.2-53.1"/><path d="M963.2 495.1l5-5.8 4.5-5.3 3.2-4.1c.3-.4.5-.8.7-1 0-.1.1-.3.2-.3v-.2c0-.2 0-.4-.1-.5-.2-.4-.6-.9-1.3-1.3l-1-.6c-.3-.2-.7-.3-1.2-.5-.4-.2-.9-.3-1.5-.6-.2 0-.6-.2-1.1-.4m-238 30.1l161 58.4m-161-58.4l-.3.3-.3.4-.3.3-.3.3-.3.4-.3.3-.3.4-.3.3-.3.4-.3.3-.3.4-.2.3-.3.3-.3.4-.2.3-.3.3-.2.3-.3.3-.2.3-.2.3-.6.9m173.7 63l.1-.1.1-.1h.1l.1-.1.1-.1.1-.1.2-.1h.1l.1-.1.1-.1.1-.1.1-.1.2-.1.1-.1h.1l.1-.1.1-.1.1-.1.2-.1.1-.1.1-.1.1-.1.2-.1m14.1-24.9l.2.1.2.1h.2l.2.1.2.1.2.1.2.1h.2l.2.1.2.1.2.1.1.1.2.1.2.1.1.1.2.1.1.2.1.1.2.1.1.1.1.1.1.2.1.1v.1l.1.1v.2l.1.1v.1l.1.1v.2.1l.1.1v.4"/><path d="M893.6 563l1.1.4 1.5.5c.5.2.9.3 1.3.4l1.3.3c.9.2 1.7.2 2.4 0 .3 0 .5-.1.8-.2.1 0 .2 0 .3-.1 0 0 .2-.1.3-.3.3-.2.6-.5 1-.9 1-.9 2.2-2.2 3.8-3.9l4.7-5.2 5-5.8M893.6 563l-.3.3-.3.4-.3.3-.3.4-.3.3-.3.4-.3.3-.3.3-.3.4-.3.3-.3.4-.3.3-.2.4-.3.3-.3.3-.2.3-.3.4-.2.3-.2.3-.2.3-.2.2-.4.6m23.1-6.4l-.3.4-.4.4-.4.5-.4.4-.4.4-.3.3-.4.4-.4.4-.3.4-.4.3-.4.4-.3.3-.4.4-.3.3-.4.3-.3.4-.4.3-.3.3-.3.3-.4.3-.3.3-.3.2-.3.3-.4.3-.3.2-.3.2-.3.3-.3.2-.3.2-.3.2-.3.2-.3.2-.3.2-.3.2-.3.1m-81.6-165.7l-2.4-.8c-.1 0-.3 0-.4-.1m-4.8 8.1l1.3-1.5.6-.7.4-.4.3-.3.3-.4.3-.3.3-.3.3-.4.3-.3.3-.3.3-.2.1-.2.1-.1.2-.1.1-.2.1-.1.1-.1.1-.1.2-.1.1-.1.1-.1.1-.1.1-.1.1-.1h.1l.1-.1.1-.1h.1v-.1l.1-.1h.1.1v-.1h.1l.1-.1h0 .1 0 .1.1 0 .2m160.9 58.4l-10.8-3.9-10.1-3.7-9.4-3.4-8.7-3.1-7.9-2.9-7.2-2.6-6.5-2.4-5.4-1.9-4.8-1.7-4.3-1.6-4.2-1.5-4.1-1.5-4-1.4-8.7-3.1-8.3-3-8.3-3-2.5-.9-3-1.1-3.5-1.3-4-1.5-4.6-1.7-5.1-1.9-5.6-2-6.2-2.2-6.7-2.4-7.3-2.6m168.2 69.6c0-.1 0-.2.1-.3 0-.1 0-.2.1-.3 0-.2 0-.3.1-.4 0-.3.2-.7.2-1s0-.7.1-1v-.9"/><path d="M984 479.9l.1-.2.1-.2.1-.1.1-.2.1-.2.1-.2.1-.1v-.2l.1-.2.1-.2.1-.1.1-.2v-.1l.1-.2v-.2l.1-.1.1-.2v-.1l.1-.2v-.1-.2l.1-.1v-.1-.2l.1-.1v-.1-.2-.1-.1l.1-.1v-.2-.1-.3m0 0v-1.2m-15.2 1l1.3-1.5.6-.7.3-.3.3-.4.4-.3.3-.4.3-.3.3-.3.3-.3.3-.3.2-.3.2-.2.1-.1.1-.1.2-.1.1-.2.1-.1.1-.1.1-.1.2-.1.1-.1.1-.1.1-.1.1-.1h.1l.1-.1v-.1h.1l.1-.1h.1l.1-.1h0l.1-.1h.1 0l.1-.1h.1 0 .1 0 .1.1m7.6 6v.3.3.1.2l-.1.1v.2.1.2l-.1.1v.2l-.1.1v.2l-.1.2v.2l-.1.1v.2l-.1.2-.1.2-.1.1v.2l-.1.2-.1.2-.1.2-.1.2-.1.2-.1.2-.2.2-.1.2-.2.5-.3.4-.3.4-.3.5-.3.5-.3.5-.4.4-.3.5-.4.6-.4.5-.4.5-.4.5-.4.6-.5.5-.4.6-.5.6-.4.5m7.9-13.6c0-.3 0-.6-.1-.9 0-.3-.2-.6-.3-.9s-.3-.6-.6-.9c-.2-.3-.5-.6-.8-.8-.5-.4-1-.7-1.5-.9l-1.9-.9-2.3-.9M561 462.6v-.6m441.6 113.8l-3.4 3.4m16.7-16.5l-3.4 3.4m16.7-16.5l-3.4 3.4m-58.9 60.6l2.7 38.7m-3.9 1.7v.6m-15.9-40.5l2.8 41.2m-.6-39l2.8 41m0 0l.5.1m10.3-2.7l-2.8-39.6"/><path d="M955.3 657.4l-2.9-40.9m87-77l-.3.4m2.2-1.5l-6-2.1m0 0l-71.2 70.1m-13.6 6.1l4.2-4.2m-2.7 8l.4.2m23.6-14.4l-3.4 3.3m16.7-16.4l-3.4 3.3m158.8-133l-1.6-23.3m-95 93.6l95-93.6m-95 93.6l2.5 36.7m0 0l-78.4 90m0 0l.7 9.5m0 0l156.8-180.1"/><path d="M1129.7 485.7v-3m5-5.8l-5 5.8m5-5.8v-3.1m5.1-5.9l-5.1 5.9m5.1-5.9v-3.1m0 0l4.9-5.5m-130 138.4l3.3-3.9m-16.5 19l3.4-3.9m-16.5 19l3.3-3.9"/><path d="M991.7 624l-2.4-35m-3.4 3.3l2.5 35.6m.1 4.7l-2.4-36.1m-5.9 4l2.5 36.7m-7.5 5.8l3.4-3.9"/><path d="M978.6 639.1l-2.6-37m-3.4 3.3l2.6 37.6m.2 4.7l-2.6-38.1m28.9 7.9l-2.4-34.1m-5.8 4l2.4 34.7M158 361.9l4.6 1.7m809 292.5l-5.9-2.1m84.9-87.7l-1.9-.7m-7.4 1.5l-.3.4m-13.2 15.1l3.4-3.9m-32 .5l2.3 33.6m5.3-38.5l2.2 32.7m-4.1 1.9l-2.3-33.1m12.2 26.6l-2.2-32.1m-.1-4.2l2.2 31.6m5.3-36.5l2.2 30.7m-4.2 1.9l-2.1-31.1M170.8 314.4l3.4-3.3m-10.5 19.2l.5.1m10.5-5.1l-4.2 4.2M1140.2 467v-2.6m-5.1 11.6v-2.6M346.6 155.3l.1 2M1120 435.9L346.6 155.3m783.5 329.6v-2.7M338.2 142.1v4.1m807.6 310.3l-1.6-23.1m-8.6 2.2v-4.1m-15.5 6.5l-.1-2.1m-946.6-64.2l.3-.3M160 326.5l2.9 41.2"/><path d="M163.7 330.3l2.9 42m.5.2l-.5-.2m3.9-42.8l2.9 42.2"/><path d="M167.1 372.5l-2.9-42.1m80.2-81.1l-71.2 70.1m71.2-70.1l-6-2.2"/><path d="M237.2 248.9l.4-.3M224 262l3.3-3.3m-16.6 16.4l3.4-3.3m-16.7 16.4l3.4-3.3m-16.7 16.4l3.4-3.3m143.7-150.7v-4.1m-98 90.7l1.1 16.4m1.9-.6l-.6-7.7m0 0l10.1 3.7"/><path d="M245.5 243l-1.1-1.3m-6.8-6.2l.2 3.8m-10.6 15.1l.3 4.1m.4-.5l-.2-2.2m-13.8 11.7l.3 4.1m.4-.5l-.2-2.2m-13.8 11.7l.3 4.1m.4-.5l-.2-2.2m-13.7 11.7l.2 4.1m-30.2 63.8l4.7-5.3m25.9-59l-.2-2.2m-13.7 11.7l.3 4.1m.3-.5l-.1-2.2m71.1-62.5l-.2-2.7m87.2-82.8l-.2-2.9m0 0l-87 85.7"/><path d="M160.8 319.9l.3 4.1m.3-.5l-.1-2.2m866.7 266l-2.1-30.1m-.1-4.2l2 29.6m13.3-10.4l-1.9-28.1m-5.9 4l2 28.7m-4.1 1.9l-2-29.1m7.2-19.6l.2 2.7m0 0l10.1 3.6m0 0l2 29.3"/><path d="M1043.7 528l.3 3.8"/><path d="M1044 531.8l-6.6-2.3m0 0l-1 .5m104.1-100.3l-801.8-291m-10.6 1.5l-94.9 93.7m0 0l4.4 1.6m93.6-92.3l-93.6 92.3m898 196L338.2 142.1M1043.7 528l93.7-92.3m-93.7 92.3l4.4 1.6"/><path d="M1036.4 530l87-85.7m12.2-8.7L338.2 146.2m-100.4 93.1l93.4-92m-86.8 94.4l-6.6-2.4m6.6 2.4l87-85.9m15.8-2.3l773.4 280.7m3.9 9.4l-87.1 85.9m3.9 37.6l-1.9-27.6m-.3.4l1.9 27.6m-34.2 6.8c-1.7 0-3.3.7-4.2 1.5m4.2-1.5c3.5-.2 6.1-2 5.9-4.1 0-.4-.2-.8-.5-1.2m.3-2.9c-.9.9-1 2-.4 2.9m7.9-7.8c-1.7 0-3.3.7-4.2 1.5m4.2-1.5c3.5-.2 6.1-2 5.9-4.1 0-.4-.2-.8-.5-1.2"/><path d="M1025.8 553c-.9.9-1 2-.4 2.9m7.9-7.8c-1.7 0-3.3.7-4.2 1.5m4.2-1.5c3.5-.2 6.1-2 5.9-4.1 0-.4-.2-.8-.5-1.2m.4-2.9c-.9.9-1 2-.4 2.9m-69.1 109.5c-1.5.1-3 .7-3.9 1.6m0 .7l-.2.2m-12.9.5c0 .9.9 1.7 2.2 2.1"/><path d="M955.3 657.4c3.5.9 8.1-.3 10.3-2.7m75.7-116.3c-.8.3-1.4.6-1.9 1.1m-84.7 68.8c3.5.8 7.5 0 9.4-1.9m-13.6 6.1c-1.3 1.3-.6 3 1.5 3.8m.4.2c3.5 1.3 8.1.7 10.4-1.4m4.1-1.5c-1.7 0-3.1.6-4.1 1.4m4.1-1.4c3.5-.2 6.1-2 5.9-4.1 0-.4-.2-.8-.5-1.2m.3-2.9c-.9.9-1 2-.4 2.9m8-7.8c-1.7 0-3.3.7-4.2 1.5m4.2-1.5c3.5-.2 6.1-2 5.9-4.1 0-.4-.2-.8-.5-1.2m.3-2.9c-.9.9-1 2-.4 2.9m8-7.8c-1.7 0-3.3.7-4.2 1.5m4.2-1.5c3.5-.2 6.1-2 5.9-4.1 0-.4-.2-.8-.5-1.2m.3-2.9c-.9.9-1 2-.4 2.9m29 .5s-.1.1-.1.2m-5.5 9.1c3.4-.3 6-2.4 5.8-4.7m-5.8 4.7c-1.7.2-3.2.9-4.1 1.9m-3.4 3.9s-.1.1-.1.2m-5.6 9.1c3.4-.3 6-2.4 5.8-4.7m-5.8 4.7c-1.7.2-3.2.9-4.1 1.9m-3.4 3.9s-.1.1-.1.2m-5.5 9.1c3.4-.3 6-2.4 5.8-4.7m-5.8 4.7c-1.7.2-3.2.9-4.1 1.9m-3.4 3.9s-.1.1-.1.2m-5.6 9.1c3.4-.3 6-2.4 5.8-4.7m-5.8 4.7c-1.7.2-3.2.9-4.1 1.9m-3.4 3.9s-.1.1-.1.2m-5.5 9.1c3.4-.3 6-2.4 5.8-4.7m73.3-82c-2.5-.9-5.8-.2-7.4 1.5m-.3.4s-.1.1-.1.2m-5.6 9.1c3.4-.3 6-2.4 5.8-4.7m-5.8 4.7c-1.7.2-3.2.9-4.1 1.9M166.7 316c1.7 0 3.3-.7 4.2-1.5m-4.2 1.5c-3.5.2-6.1 2-5.9 4.1 0 .4.2.8.5 1.2m-.3 2.8c.8-.9.9-1.9.3-2.8m-.3 2.8c-2 2.2-.8 4.9 2.7 6.2m.5.1c2.2.8 5 .4 6.3-.9m2.7-10.1c-1.9 1.9-1.3 4.4 1.5 5.9m965.1 142.6c.2-.3.4-.6.4-.9m-5.5 9.9c.2-.3.4-.6.4-.9m-5.4 9.7c.2-.3.4-.6.4-.9m14.6-25.5c.8-.9 1.2-1.9 1.1-2.8m-982.9-88.8c.1 1.8 1.5 3.6 3.7 4.6m.5.2c2.2 1 5 .6 6.3-.9m64.2-123c.5-.5.7-1 .8-1.5m-5.3 3.4c1.7 0 3.3-.7 4.2-1.5m-4.2 1.5c-3.5.2-6.1 2-5.9 4.1 0 .4.2.8.5 1.2m-.4 2.9c.9-.9 1-2 .4-2.9m-7.9 7.8c1.7 0 3.3-.7 4.2-1.5m-4.2 1.5c-3.5.2-6.1 2-5.9 4.1 0 .4.2.8.5 1.2m-.3 2.9c.9-.9 1-2 .4-2.9m-8 7.8c1.7 0 3.3-.7 4.2-1.5m-4.2 1.5c-3.5.2-6.1 2-5.9 4.1 0 .4.2.8.5 1.2m-.3 2.9c.9-.9 1-2 .4-2.9m-8 7.8c1.7 0 3.3-.7 4.2-1.5m-4.2 1.5c-3.5.2-6.1 2-5.9 4.1 0 .4.2.8.5 1.2m-.3 2.9c.9-.9 1-2 .4-2.9m-8 7.8c1.7 0 3.3-.7 4.2-1.5m-4.2 1.5c-3.5.2-6.1 2-5.9 4.1 0 .4.2.8.5 1.2m-.3 2.9c.9-.9 1-2 .4-2.9m69.8-58.9c.7-.7 1.3-2.2 1.3-3.4v-.2m93-107c-3.6-1.3-8.3-.6-10.5 1.5M1143.1 436c2.2-2.2 1-5-2.6-6.3"/><path d="M1035.3 536.3c.7-.7 1.3-2.2 1.3-3.4v-.2m84-98.5l-.7 1.8m3.5 8.3h0v-.5-.5-.5-.5c0-.1 0-.3-.1-.4h-.1-.1-.1-.1-.1-.1-.1-.1-.1-.1-.1-.1-.1-.1-.1-.1-.1-.1-.3m-774-288.4l-.7 1.8m.1 0h0 0c-.3 0-.6 0-.9.2-.3 0-.6.1-.9.2-.3 0-.6.2-.9.3l-.9.3M235.6 242l.1.1.3.3c.2.2.4.4.5.6s0 .1.1.2 0 .1.1.2c0 .1.2.2.2.3.1.2.3.4.4.7 0 .1.1.2.2.3v.2.2c0 .2.2.5.3.7v.3.2.8m93.6-91.3c.4.5.7 1 1.1 1.4M173.2 319.4v1c0 1.3.2 2.6.3 4m164.7-182.3c-1.1-.4-2.6-.5-3.9-.4-1.3.2-2.5.7-3.2 1.4m806.3 292.6c.7-.7.9-1.5.6-2.3s-1.2-1.5-2.3-1.9"/><path d="M1124.5 443.6l-1.1.6M331.2 147.3c.7-.7 1.9-1.2 3.2-1.4s2.7 0 3.9.4m-6.9 9.5c.4-.4.8-.7 1.4-1.1s1.1-.6 1.7-.9 1.3-.5 1.9-.7l2.1-.5c.7-.2 1.5-.2 2.2-.2h2.3c.8 0 1.5.2 2.2.3.7.2 1.4.3 2 .6m773.4 280.9c.6.2 1.2.5 1.8.8s1.1.6 1.5 1l1.1 1.2c.3.4.6.8.7 1.3a3.08 3.08 0 0 1 .3 1.3c0 .5 0 .9-.1 1.3a3.79 3.79 0 0 1-.6 1.3c-.3.4-.6.8-1 1.2m11.3-8c.5.2.9.4 1.2.6m-95.5 102.2c.1 0 .2 0 .4-.1s.2 0 .4-.1h.2.2c.1 0 .2-.1.4-.2s.5-.2.7-.3h.2.2c.1 0 .2 0 .3-.1.2 0 .5-.2.7-.3s.2 0 .3-.1h.2.2c.2 0 .4-.1.6-.2h.4m-489.9 30.7l403 104M157.4 372.3l397 185m-397-185l.7 9.5m0 0l398.7 185.9"/><path d="M959.8 671.7l-.7-9.6m10.5-2.8l.7 9.6m1.9-12.6l-2.6 3m2.6-3l-6.5-1.7m-402.6-102l-5.3 6m0 0l401.3 103.5M153.7 367.7l.6 9.6m3.1-15.7l5.2 2.5m391.8 193.2l5.2-6M157.4 361.6l-2.7 3m817.5 291.7l.7 9.5m0 0l-2.6 3.1"/><path d="M554.4 557.3c1.2.5 2.3 1 3.5 1.3m401.9 113.1c3.6.9 8.3-.3 10.5-2.9m-11.2-6.7c3.6.9 8.3-.3 10.5-2.9M154.3 377.3c.1 1.8 1.5 3.6 3.7 4.6m-3.3-17.3c-2.2 2.5-1 5.9 2.7 7.6M441 289.9h0m101 163l-.9-.3m1.5-2.5v.1m9.5-10.9l-.1-.1m-11.5 13.6l-.1-1.6m0 0l.9-1m0-.6v.6"/><path d="M541.4 452.3l-1.3 1.5m1.3-2.1v.6"/><path d="M541.4 451.7l-.9 1.1m-2.1.4l-.2-2.7m1.9 3.3l-1.7-.6"/><path d="M540.1 453.8l-.1-2.7m-1.8-.6l12.1-13.9M540 451.1l-1.8-.6m1.8.6l1.3-1.5m0 0l1.3.5m0 0l9.4-10.9"/><path d="M552 439.2l-1.3-.5m0 0l1.3-1.5m-1.7-.6l1.7.6"/><path d="M551.7 438.3l.1.8m.2-1.9l.2 2m-1.1-.3l.6-.6m-11.3 13l1 .4M440.6 289.1h-.2m.6.8c.1-.1.1-.4 0-.6 0-.1-.2-.2-.3-.2m91.4 163.3c-.1.3-.1.5 0 .6m.4-1s-.2.1-.3.3"/><path d="M540.6 447.1v-.5m.2-1v-.6m.1-1v-.4m.2-1v-.2m.7-1c.1 0 .3-.1.5-.2h.4.5c.2 0 .5.1.7.2.3.1.7.2 1 .4m.5-1c-.4-.2-.8-.3-1.2-.4-.3 0-.7-.2-1-.2h-.7-.6c-.3 0-.5.2-.7.4-.2.1-.3.3-.5.5 0 .1-.2.3-.2.5m-.7 3.2v.4m-.1 1.1v.5"/><path d="M545 441.8h0 0 0 0v-.1h-.1 0 0 0 0v-.1h0 0 0 0v-.1h0 0 0v-.1h0 0l.1-.1h0 0 0v-.1h0 0v-.1h0 .1 0v-.1h0 0 0v-.1h.1 0 0 0 0 0 0l.1-.1h0 0 0 0 .1"/><path d="M545 441.8c.2 0 .4.1.6.2m.7-.8l-1-.3M444.9 283s0-.1-.1-.2l-.2-.2s-.2 0-.3-.1h-.3c-.1 0-.2.1-.3.2a1.38 1.38 0 0 0-.3.4c-.1.2-.2.3-.3.5s-.3.5-.5.8c-.2.2-.3.5-.5.8s-.5.7-.8 1c-.3.4-.7.8-1.1 1.3l-1.4 1.6m5.5-3.4v.2"/><path d="M438.8 289h0 0 0 0 0 0 .1 0v-.1h0 0 0 0 0 0 0 0 .1 0 0 0 0 0 0v.1h.1 0 0 0 0 0 0 .1"/><path d="M438.8 289l-1.3 1.6m-16.1 22.2c-.4.3-.8.5-1.2.8-.6.3-1.2.6-1.7 1-.6.3-1.3.7-1.9 1.1-.7.4-1.3.9-1.9 1.4-.7.6-1.4 1.3-2 2l-.9 1.2M395 339.8c-.3.2-.7.3-1 .5l-1.4.9c-.4.3-.7.6-1 .9s-.5.7-.7 1l-.6 1.2c-.2.5-.3 1-.5 1.5-.2.6-.3 1.2-.6 1.8-.2.6-.6 1.3-1 1.9-.2.2-.3.5-.5.7M372.5 372v.3c-.1.5-.3 1.1-.3 1.7 0 .7-.1 1.3-.1 2 0 .6 0 1.1.1 1.7 0 .6.2 1.2.4 1.9.2.6.4 1.3.7 1.9m142.5 56.3h-.3M373 377.4v-1.1c0-.7 0-1.3.1-1.9 0-.6.2-1.2.4-1.8l1-2.6 1.4-2.5c.1-.2.2-.4.3-.5m8.9-12.7l.2-.2m24.4-29.1s0-.2.1-.2m15.8-16.9c0-.1 0-.2.1-.3 0-.3.2-.5.4-.8s.4-.6.6-.8.3-.4.5-.5m8.2-10s0-.2.1-.2m83.5 144h0 0 0v-.1h0 0 0 0 0v-.1h0 0 0 0v-.1h0 0 0 0v-.1h0 0 0 0v-.1h0 0 0 0v-.1h.1 0 0m7.4 5.6c.2.2.4.5.6.7.3.3.5.6.8.9.4.3.7.6 1.2.9l1.6.9c.6.3 1.3.5 2 .8m.3-1c-.7-.2-1.3-.5-2-.8-.5-.3-1.1-.5-1.5-.8-.6-.4-1.1-.8-1.5-1.3-.3-.4-.7-.7-.9-1.1-.2-.3-.4-.6-.7-.9-.2-.2-.4-.5-.6-.7-.3-.3-.6-.7-.9-1-.2-.2-.3-.3-.5-.4"/><path d="M532.7 448.4h0 0-.1 0 0 0 0 0v-.1h0 0 0 0v-.1h0 0 0v-.1h0 0 0v-.1h0 0v-.1h0 .1 0v-.1h0 0v-.1h0 0 .1v-.1h0 0 0 0 .1v-.1h0 0 0 0 0 .1 0 0 0"/><path d="M532.7 448.4l1.4.5m.5-.8l-1.6-.6m-81.6-158.1v.6m1.1.4v-.7"/><path d="M451.4 289.4h0 0 0v.1h.1 0 0 0v.1h0 .1 0 0 0 0 .1v.1h0 0 .1 0 0 0 .1 0 0 .1 0 0 .1 0 0v-.1h.1 0 0 .1 0 0 0v-.1h.1 0 0 0v-.1h0 0 0 0 0v-.1m-8.6-.5c.5-.4 1-.8 1.6-1.1.4-.3.9-.5 1.3-.8.3-.2.6-.3 1-.4l.9-.3c.2 0 .4 0 .6-.1h.6c.3 0 .6.1.8.3 0 0 .2.1.2.2s.2.3.3.4"/><path d="M451.4 288.9v.5m.8-2v-.2c0-.2-.1-.4-.2-.6s-.2-.4-.4-.6l-.4-.4c-.3-.2-.7-.4-1.1-.5h-.7-.7c-.3 0-.6.2-1 .3-.3.1-.6.2-.9.4s-.7.3-1 .5c-.2.1-.5.3-.7.4m-3.8 3.2h0 0v-.1h0-.1 0 0 0 0 0-.1 0 0 0 0m75.4 148.4l-2.2-1.2-3.6-2.1-1.6-.9m-4.8-2.6l-1.5-1c-.6-.4-1.1-.7-1.8-1-.2 0-.4-.2-.6-.3m-119.5-42.4l-.2-.2a22.53 22.53 0 0 1-2.1-2.4c-.6-.7-1.1-1.4-1.5-2.1l-1.1-1.8-.9-1.6c0-.2-.2-.4-.3-.6m35.6-53.6c.1-.1.3-.2.4-.3l1.9-1.5s.2-.1.3-.2m27.9-32.6c-.8.7-1.7 1.3-2.6 2l-2.5 1.9-2.3 1.9-2.1 1.8-1.9 1.6c-.6.4-1.1.9-1.7 1.3 0 0-.2.2-.3.2m-12.8 19.3c-.7.5-1.3 1-2 1.6l-3.4 2.7c-1 .8-2.1 1.7-3 2.7-.9.8-1.7 1.7-2.5 2.6l-1.6 1.9c0 .1-.2.2-.3.3M387 352.3l-1.9.9c-1 .5-1.9 1-2.8 1.6l-2.3 1.9c-.7.6-1.3 1.3-1.9 2-.6.6-1.1 1.3-1.6 1.9-.1.2-.2.3-.4.5m-3.8 11.6v.4m142.5 65.4l3 1.6"/><path d="M517.8 439.6v.1h0 0v.1h0 0v.1h0 0v.1h0 0 0 0v.1m.3-.9v.1h-.1 0 0v.1h0 0-.1 0v.1h0 0 0v.1h0-.1m11 12.7c-.4-.1-.9-.3-1.3-.5-.3-.1-.7-.3-1-.4s-.5-.3-.7-.4-.4-.3-.5-.4c-.3-.2-.5-.5-.6-.8l-.3-.6c-.2-.4-.3-.8-.3-1.2 0-.3 0-.5-.1-.8m-6.2-7.1l1.6.8a9.13 9.13 0 0 1 1.3.8c.3.3.6.5.9.8s.4.5.6.8l.3.6m.7 4.9c0 .3.2.6.3 1 .1.3.3.6.6.9l.9.9c.4.3.9.6 1.4.8.6.3 1.3.6 2 .8"/><path d="M528.4 452.8h0 0v.1h0v.1h0 0v.1h0v.1h0 0 0 0v.1h.1m.3-1h0 0 0 0 0 0-.1 0 0 0 0v.1h0 0-.1 0 0 0 0v.1h0 0-.1 0v.1h0 0 0 0v.1h0 0-.1 0v.1m3 .5l-2.6-.9m-.3.9l2.6.9"/><path d="M531 453.7h0v.1h0v.1h0 0v.1h0v.1h0 0 0v.1h0 .1m.3-.9h0 0 0 0-.1 0 0 0 0 0 0 0 0-.1 0 0 0v.1h0 0 0-.1v.1h0 0 0 0v.1h0 0-.1 0v.1m10.2-8c-.4-.2-.8-.3-1.2-.4-.3 0-.6-.2-.9-.2h-.7-.7c-.2 0-.3.1-.5.2-.1 0-.2.1-.3.2l-.2.2c0 .1-.2.2-.2.3s-.1.2-.2.3m-.6 2.2v2"/><path d="M533.4 453.9c-.2 0-.4 0-.6-.1-.5-.1-.9-.3-1.4-.5m-.3.9l1.4.5c.3 0 .5.1.8.2m1.7-.2h.2s.1 0 .2-.2c.2-.1.3-.3.4-.4.2-.3.3-.6.4-.9l.3-1.2c0-.4.1-.9.1-1.3v-2m.3-1.3v-.2m.7-1s.1 0 .2-.1h.5.4.5c.2 0 .5.1.7.2l1 .3"/><path d="M540.8 446.1v.1h-.1 0v.1h0v.1h0 0v.1h0 0v.1h0 .1 0m.3-.9h0 0 0 0 0 0 0 0 0-.1 0 0 0 0 0 0v.1h-.1 0 0 0 0v.1h0 0-.1 0v.1h0 0 0 0v.1"/><path d="M542.1 446l-1-.3m-.3.9c.2 0 .4.1.6.2m-18.3-5.2h.1m4.7 2.9l1 .6c.6.4 1.3.7 2.1 1.1l2.7 1.1m.4-1c-1-.3-2-.7-2.8-1.1-.7-.3-1.4-.7-2-1l-1.4-.9-.9-.6c-.4-.2-.7-.5-1.1-.7"/><path d="M533.7 447.2h0 0 0 0 0 0 0v-.1h-.1 0 0 0v-.1h0 0 0 0v-.1h0 .1v-.1h0 0 0v-.1h0 0v-.1h0 0 .1v-.1h0 0 0v-.1h0 .1 0 0v-.1h0 0 .1 0 0 0 0 0 0 .1"/><path d="M533.7 447.2l1.4.5m.6-.8l-1.6-.6m7.6-.4v-.5m.1-1.1v-.5m.1-1v-.4m.3-1v-.2m.6-1c.1 0 .3-.1.5-.2h.9c.2 0 .5.1.7.2l1 .3m.5-.9c-.4-.2-.8-.3-1.2-.4-.3 0-.6-.2-1-.2h-.8-.6c-.3 0-.5.2-.8.4-.2.2-.4.3-.5.5s-.2.3-.3.5m-.3 3.3v.4"/><path d="M546.1 440.6h0-.1 0 0v-.1h0 0 0 0 0v-.1h0 0 0v-.1h0 0 0v-.1h0 0 0v-.1h0 0 0v-.1h.1 0v-.1h0 0 0v-.1h.1 0 0v-.1h0 0 0 .1 0 0v-.1h0 0 0 .1 0 0"/><path d="M546.1 440.6c.2 0 .4.1.6.2m.7-.8l-1-.3M443.7 286.4v-.3"/><path d="M443.7 286.1v.1h0 0 0 0 0 0 0v.1h0 0 0-.1 0 0 0 0v.1h0 0 0 0-.1 0 0 0 0 0l-.1.1h0 0 0 0 0-.1m2.6-3.4h.3.1v-.1-.1s-.1 0-.2.2c-.1 0-.3.2-.4.3a3.04 3.04 0 0 0-.7.5c-.3.2-.6.5-.9.8-.4.3-.7.7-1.1 1.1l-1.4 1.4c-.6.6-1.2 1.1-1.9 1.7m2.4-1.2l1.5-1.5 1.2-1.1c.4-.3.7-.6 1.1-.8.3-.2.6-.4.8-.6s.4-.3.5-.5c0-.1.1-.2 0-.4 0 0 0-.2-.1-.3l-.2-.2c-.1 0-.3-.1-.4-.1h-.8c-.4 0-.8.2-1.2.4"/><path d="M439.5 288.7h0 0 0 0 0 .1 0 0 0 0 0 .1 0 0 0 0 .1 0v.1h0 0 .1 0 0 0l.1.1h0 0 0 0 0l.1.1h0 0 0 0v.1h0 0 .1v.1h0 0 0 0v.1h0 0 0 0v.1"/><path d="M439.5 288.7l-2.7 2.6-2.4 2.8s-.1.2-.2.2m-14.6 20.5l-1.1.5c-.8.4-1.6.7-2.3 1.2-.7.4-1.3.8-1.9 1.3l-1.7 1.5-1.9 1.9-2 2.3c-.1.2-.3.3-.4.5m-16.2 19c-.2.2-.3.4-.5.7-.3.5-.5 1.1-.7 1.6l-.7 1.8c-.2.5-.6 1.1-1 1.6-.3.4-.8.9-1.2 1.3s-.9.7-1.3 1.1l-1.4 1.1-1 .7m-11.4 23.4c0 .4 0 .9.1 1.4 0 .7.2 1.4.4 2.2s.5 1.6.8 2.4c.2.6.5 1.1.9 1.7m125.1 45.9c-.3-.2-.5-.5-.8-.7-.5-.4-1-.7-1.6-1l-1.6-.6c-.5-.1-1-.3-1.6-.3s-1.3-.1-1.9-.2h-.2m-115.1-41.7c-.4-.4-.7-.9-1-1.3-.4-.6-.8-1.3-1.1-1.9l-.8-2-.5-2c-.2-1-.2-1.9-.2-2.9 0-.9.1-1.7.3-2.6.1-.8.3-1.6.6-2.4.2-.8.5-1.6.8-2.4m5.2-9.6s0-.1.1-.2m10.3-10.7l.3-.8.6-1.6c.2-.5.5-.9.8-1.4.3-.4.8-.8 1.3-1.1m53.8-54.3v.5m1.1.4v-.8m-8.3 1.8s0-.1.1-.2m6.3-4.9s.2.2.3.4m.3 1v.3m1.1 0v-.6m-.4-1s0-.2-.1-.3c0-.1-.2-.3-.3-.4m-1-.6h-.4m72.7 153.4l-2.8-.9h-.3m-78.9-29.2c-.4-.4-.9-.7-1.3-1.1-.6-.4-1.1-.8-1.8-1.1-.6-.3-1.3-.6-2-.8-.3 0-.7-.2-1-.2M374.7 366c.3-.4.7-.8 1.1-1.2l1.5-1.4c.3-.2.5-.4.8-.7m23.1-27.4c.3-.2.6-.5.9-.7.3-.3.7-.5 1-.8m19.3-22.2c.4-.7.7-1.4.9-2.1l.6-1.9c.2-.5.4-1.1.7-1.6l.9-1.1c.4-.3.8-.7 1.2-.9 0 0 .1 0 .2-.1m.7-1.5c-.4.2-.8.4-1.2.7-.5.3-1 .7-1.4 1-.4.4-.8.8-1.1 1.3a11.94 11.94 0 0 0-.8 1.6l-.6 1.9c-.2.7-.4 1.3-.8 2a6.57 6.57 0 0 1-1.2 1.7c-.1.2-.3.3-.4.5M404 331.8l-1.6 1.2c-.7.5-1.3 1-2 1.6l-2.1 1.5c-.7.5-1.5.9-2.3 1.4-.2.1-.4.3-.6.4"/><path d="M389.5 344.8c0 .4-.1.8-.2 1.3v1.2m-11.2 14.2c-.1 0-.3.2-.4.3-.9.7-1.9 1.5-2.7 2.4-.8.8-1.4 1.6-2 2.6-.3.5-.6 1-.8 1.5a12.2 12.2 0 0 0-.7 1.7c-.2.6-.4 1.3-.5 1.9-.1.7-.2 1.3-.2 2s0 1.3.1 2c0 .7.2 1.3.4 2 .1.5.3.9.5 1.4m147.5 57.9h0-.1 0 0 0-.1 0 0-.1v.1h0 0l-.1.1h0 0v.1"/><path d="M530.9 449.9c-.7-.2-1.4-.5-2.1-.8-.5-.3-1-.5-1.4-.9-.3-.2-.6-.5-.8-.8-.2-.2-.3-.4-.4-.6-.3-.4-.5-.9-.7-1.4l-.6-1.9c-.1-.4-.3-.8-.4-1.2-.1-.3-.2-.6-.4-.9-.1-.2-.2-.4-.3-.7-.1-.2-.2-.4-.4-.6-.2-.3-.5-.6-.7-.9-.2-.2-.5-.5-.8-.7-.4-.3-.7-.5-1.1-.7-.5-.3-1-.5-1.6-.7m3.6 3.8s0 .2.1.3c0 .1.2.3.2.5s.2.4.3.6l.3.8.3 1c.1.4.3.9.4 1.3.1.3.3.7.4 1 .1.2.2.5.4.7a3.04 3.04 0 0 0 .5.7c.3.4.6.7.9 1s.6.5 1 .7c.4.3.9.5 1.3.7l1.6.6m.1-.5h-.1 0v.1h0 0 0 0v.1h0 0 0v.1h0 0 0 0v.1h0 0 0 0 0v.1h0 0 0 0 0 0 0 0v.1h.1"/><path d="M530.9 449.9h0 0 0-.1 0 0v.1h-.1 0 0v.1h-.1 0v.1h0v.1m2.9.5l-2.6-.9m-.3 1l2.6.9"/><path d="M533.1 451.2v.1h0 0 0 0v.1h0 0 0 0v.1h0 0 0v.1h0 0 0 0 0v.1h0 0 0 0 0 0v.1h0 0 0 0 .1"/><path d="M533.5 450.8h0 0-.1 0v.1h0 0-.1 0v.1h0-.1v.1h0v.1h0-.1m10.2-7.9c-.5-.2-1-.4-1.5-.5-.4 0-.7-.2-1-.2h-.8c-.2 0-.4 0-.5.2-.3.1-.5.3-.7.5s-.3.3-.4.5c0 .1-.1.2-.2.3m-.5 3.1v.3m-4.5 4.3c.1 0 .2 0 .4.1m3.5.3c.1 0 .3-.2.4-.3.2-.2.4-.4.5-.7 0-.2.2-.4.2-.5m.2-.3c0-.2 0-.4.1-.6 0-.3 0-.5.1-.8m.1-1v-.5m.1-1.1v-.4m.2-1v-.2m.7-1s.1 0 .2-.1c.1 0 .3 0 .5-.1.3 0 .6 0 .9.1.2 0 .5.1.7.2.3 0 .6.2.9.3"/><path d="M542.9 443.6v.1h0l-.1.1h0v.1h0 0v.1h0v.1h0 0 0l.1.1h0m.4-.9l-.1-.1h0 0v.1h0-.1 0 0 0l-.1.1h0 0v.1h-.1v.1m1.3 0l-1-.3m-.3.9c.2 0 .4.1.6.2m-87.6-153.7c0-.4-.2-.7-.4-1-.2-.4-.4-.7-.7-1s-.6-.5-1-.7-.7-.4-1.1-.5-.8-.3-1.3-.4c-.9-.2-1.8-.3-2.7-.4h-1.6m-6.4 3.3s0 .1-.1.2m12.6-1.4c.2.1.4.3.6.4.2.2.4.3.5.5.2.2.3.4.4.7v.3m-21.6 7.7c-.6.4-1.3.9-2.1 1.3-.7.4-1.5.7-2.3 1.1-.7.3-1.3.6-2 1l-1.5 1c-.4.3-.8.6-1.1 1-.3.3-.5.6-.7.9-.2.4-.5.8-.6 1.2-.2.5-.4 1-.5 1.5l-.3 1.8-.4 1.9m-13.7 16.4h-.1l-1.5 1.2c-.6.5-1.2.9-1.9 1.4-.7.6-1.5 1.1-2.2 1.8l-2.1 1.9-1.8 1.7c-.5.5-1.1.9-1.7 1.4l-1.1.9M383.8 356c-.2 0-.3.2-.4.3l-2.1 1.6-2.2 1.7c-.7.5-1.3 1-2 1.6s-1.5 1.3-2.1 2c-.6.6-1.1 1.3-1.6 1.9-.4.6-.8 1.3-1.1 1.9s-.6 1.3-.8 1.9-.4 1.2-.5 1.9c-.1.6-.2 1.2-.2 1.8v.4m148.1 64.4l-3.7-1.7c-1.2-.5-2.5-1-3.8-1.3-.2 0-.4-.1-.6-.2m-75.7-27.9c-.2-.2-.5-.4-.8-.6-.3-.3-.7-.5-1-.7l-1.2-.6c-.4-.2-.9-.4-1.4-.5-.8-.2-1.6-.3-2.5-.4H427m-42.3-15.4l-1.9-1.1-1.1-.6m9.4-41.7v-.2"/><path d="M427 302.8c.1 0 .2-.1.3-.2m4.6-2.3c.3-.2.6-.3.9-.5m85.6 138.6v-.1h0-.1 0 0 0 0v-.1h0 0 0 0v-.1h0 0 0v-.1h0 0 0v-.1h0 0 .1v-.1h0 0v-.1h0 0 .1v-.1h0 0 0 .1v-.1h0 0 0 0 .1 0 0v-.1h0 .1 0 0 0 .1m-.5 1c.5.2 1 .5 1.4.8.4.2.7.5 1 .8.3.2.5.5.7.7s.3.4.4.7c.1.2.2.5.3.8 0 .2 0 .4.1.6v.4.9c0 .4 0 .8-.1 1.2 0 .5-.2 1-.3 1.6l-.3 1.6c0 .5-.2.9-.2 1.4v1.3"/><path d="M522.4 451.5v-.2-.7-1.1c0-.5.1-.9.2-1.4.1-.6.2-1.1.4-1.7l.3-1.5c0-.4 0-.8.1-1.2v-1c0-.3 0-.6-.1-.9-.1-.4-.3-.9-.5-1.3-.1-.3-.3-.5-.5-.8s-.5-.6-.8-.8a4.44 4.44 0 0 0-1.1-.8c-.5-.3-.9-.6-1.4-.8m15 18.4v-.2c0-.3.2-.6.2-.9 0-.4.1-.8.1-1.2 0-.5 0-1 .1-1.5 0-.5 0-.9.1-1.4 0-.3.1-.6.2-.9 0-.1 0-.3.2-.4 0-.2.2-.3.3-.4 0 0 .2-.2.3-.2s.3-.1.5-.1h.9c.2 0 .5.1.7.2l1 .3m.4-.9c-.4-.2-.8-.3-1.3-.4-.3 0-.7-.2-1-.2h-.8-.6c-.3 0-.5.2-.8.4-.2.1-.3.3-.4.5-.2.2-.3.5-.4.8l-.3 1.1c0 .5-.1 1-.2 1.6 0 .5 0 1-.1 1.5 0 .4 0 .8-.2 1.1 0 .3-.1.5-.2.8"/><path d="M538.7 449h0 0 0 0-.1 0 0 0v-.1h0 0 0 0v-.1h0 0 0v-.1h0 0 0v-.1h0 0l.1-.1h0 0v-.1h0 0 0v-.1h.1 0 0v-.1h0 0 .1 0v-.1h0 0 0 0 .1 0 0 0 0 0"/><path d="M538.7 449c.2 0 .4.1.6.2m.7-.8l-1-.3m-88.4-161.3v-.5m-.2-1.1c0-.2 0-.5-.2-.7 0-.2-.1-.4-.2-.6s-.2-.3-.4-.5c-.1 0-.2-.2-.4-.2s-.5-.1-.8 0c-.3 0-.6.1-.9.3-.2.1-.4.2-.6.4l-.8.5c-.3.2-.7.5-1 .8-.4.3-.8.7-1.3 1l-1.6 1.3c-.7.5-1.3 1.1-2 1.6m62.3 141.7c-.3-.3-.6-.5-.9-.8-.5-.4-1.1-.9-1.8-1.2-.5-.3-1.1-.6-1.8-.8-.6-.2-1.2-.3-1.9-.4h-.6M379 386a6.42 6.42 0 0 1-1-1.3c-.6-.9-1.2-1.8-1.6-2.7-.4-.8-.8-1.7-1-2.5l-.7-2.5c-.2-.9-.3-1.7-.4-2.6v-1.6m18.4-27c.1-.5.3-.9.5-1.3.3-.5.6-.9 1.1-1.3m46-54.1l-3.3 2.6c-1 .8-2 1.7-2.9 2.7a28.48 28.48 0 0 0-2.3 2.6c-.3.3-.5.6-.8.9m-13 18.7h-.2c-.9.4-1.8.9-2.6 1.5-.9.6-1.7 1.3-2.5 1.9l-2.7 2.3c-.9.8-1.8 1.7-2.6 2.6l-2.1 2.5s-.1.2-.2.3m-14 19.7c0 .2-.1.3-.2.5M389 350c-.3.3-.7.5-1.1.8-.6.4-1.3.8-2.1 1.2s-1.6.9-2.4 1.4-1.5 1.1-2.1 1.7-1.1 1.2-1.6 1.8c-.1.2-.3.4-.4.5m-3.7 25.3c.3.5.5 1 .8 1.5.2.4.5.7.7 1.1m137.9 54l3.1 1.2"/><path d="M518.1 440.2h0v.1h0 0 0 0 0 0 0v.1h0 0 0 0-.1.1 0 0v.1h0 0 0 0 0 0 0 0 0 0 0 0 0 0m11.8 10.6l-1.4-.5-1.1-.5-.8-.5c-.2-.2-.4-.3-.5-.5-.3-.3-.5-.6-.6-.8l-.3-.6c0-.2-.2-.4-.2-.6 0-.3-.1-.5-.2-.8 0-.2 0-.4-.1-.5m-.9-2.8c-.1-.2-.2-.4-.4-.6 0 0-.1-.2-.2-.2m-5.1-1.7l1.4.5c.2 0 .4.1.5.2m4 6.1c0 .3.2.7.4 1 .1.3.3.6.5 1 .3.4.6.7.9 1 .4.4 1 .7 1.5 1l2.1.9m.1-.8v.1h0 0 0 0v.1h0 0 0v.1h-.1 0 0v.1h0 0 0v.1h0 0 0 0v.1h0 0 .1 0 0 0 0 0v.1"/><path d="M529.9 451.1h0-.1 0 0 0 0-.1v.1h0 0-.1v.1h0 0v.1h-.1"/><path d="M532.5 452l-2.6-.9m-.4 1l2.6.9m10.1-8.5c-.4-.2-.8-.3-1.2-.4-.3 0-.6-.2-.9-.2h-.7-.6c-.3 0-.6.2-.8.4s-.4.4-.5.6a.76.76 0 0 1-.2.4m-3.8 7.1c-.3-.1-.7-.2-1-.4m-.4 1c.3.1.7.2 1 .4h.3m.8.2h.2m1.7-.2s.2-.1.3-.2l.6-.6c.2-.3.3-.6.4-1 0-.4.2-.7.2-1.1s0-.9.1-1.3c0-.5 0-1 .1-1.4v-.6m.2-1v-.2m.6-1s.2-.1.3-.1h.5c.3 0 .6 0 .9.1.2 0 .5.1.7.2.3 0 .6.2.9.3"/><path d="M541.9 444.8h0-.1 0v.1h0 0 0v.1h0 0 0v.1h0 0 0v.1h0 0 0 0v.1h0 0 0 0 0v.1h0 0 0 0 0 .1m.3-.9h0 0 0-.1 0 0 0-.1 0v.1h0 0-.1v.1h0 0v.1"/><path d="M543.2 444.8l-1-.3m-.3.9c.2 0 .4.1.6.2m-92.8-157.2v.9m1.1.4v-1.1m-.2-1.6v-.2m-9.6 3.1l2-1.5 1.6-1.3c.4-.3.8-.7 1.2-1 .3-.3.6-.5.9-.8a3.04 3.04 0 0 1 .7-.5c.2-.1.4-.2.5-.3l.6-.3h.4.1l.2.2s0 .2.1.3v.3m.2 1v.8m-13.3 7.9l-2.5 1.9c-.7.6-1.5 1.1-2.3 1.7l-2.1 1.3-1.8 1.1-1.4.9c-.4.3-.7.5-1 .8l-.7.7c-.3.3-.6.6-.8 1a9.13 9.13 0 0 0-.8 1.3c-.3.6-.4 1.2-.5 1.8v.7m-11.7 16.3l-1.8 1.4-2.6 2-2.7 2.3a29.49 29.49 0 0 0-2.5 2.5c-.8.8-1.5 1.7-2.2 2.6m-7.8 10v.2m-5.7 8.9c-.5.2-.9.4-1.4.7l-2 1.2-2.1 1.6-2.1 1.8c-.7.6-1.3 1.2-1.9 1.9s-1.2 1.3-1.7 2.1l-1.2 2c-.1.3-.3.6-.4.9m140.8 70.3l1.8 1 2.9 1.6"/><path d="M517.9 438.8h0v.1h0 0v.1h0 0 0 0v.1h0 0 0 0 0v.1m.5-.9h0 0 0 0 0-.1 0 0 0 0 0 0-.1 0 0v.1h0-.1 0 0v.1h0 0-.1v.1h0 0 0v.1h-.1 0v.1h0m7.6 13.8h-.2l-.8-.5c-.3-.3-.6-.6-.8-.9-.2-.4-.4-.8-.5-1.2 0-.4-.1-.8-.1-1.2v-1.3-2.9m-5.2-5.4l1.4.9c.4.2.7.5 1 .7s.5.4.7.7c.3.3.5.6.7.9.1.3.3.6.3.8 0 .3.2.6.2 1v.3m.1 5.4c0 .3.1.6.2.8.1.3.2.6.4.9m17.2-4.7c-.4-.1-.7-.3-1.1-.4-.3 0-.6-.2-.9-.2h-.7-.8c-.2 0-.4.1-.5.2-.2.1-.5.3-.6.5-.1.1-.2.3-.3.4 0 0 0 .2-.1.3m-2 7.4h-.9m2 .6s.2-.1.2-.2l.2-.2s.1-.2.2-.2c.1-.2.2-.5.3-.7l.3-1.1c0-.4.1-.9.1-1.4 0-.7 0-1.3.1-2 0-.5.1-1 .2-1.4m.7-1.1h.1c.1 0 .2 0 .4-.1h.6c.3 0 .6 0 .8.2.4.1.8.3 1.3.4"/><path d="M539.7 447.4h0v.1h0 0v.1h0 0v.1h0 0v.1h0 0 0 .1m.3-.9h0 0 0 0-.1 0 0 0 0 0 0 0-.1 0v.1h0 0 0 0l-.1.1h0 0 0 0v.1h0 0-.1v.1h0 0 0v.1"/><path d="M541.1 447.2l-1-.3m-.3.9c.2 0 .4.1.6.2m-95.9-159.1c.2 0 .3-.1.5-.2.4-.1.8-.3 1.3-.3s1-.2 1.5-.2h1.2c.3 0 .6 0 .9.1.2 0 .4 0 .6.1.2 0 .3.1.5.2a.76.76 0 0 1 .4.2c.2 0 .3.2.5.2.2.1.4.2.6.4s.4.3.5.5l.3.6m.9.2c0-.2-.1-.4-.2-.6 0-.3-.2-.5-.3-.7s-.2-.3-.4-.5-.5-.4-.7-.6c-.3-.2-.6-.4-1-.5-.2 0-.4-.2-.7-.2s-.5-.2-.8-.2-.7-.1-1.1-.2h-1.4c-.6 0-1.1.1-1.7.2h-.4m72.9 150.9l-2.7-1.6-2.9-1.6-3-1.4c-.2 0-.4-.2-.7-.3m-126-45.9l-1.7-1.4-2.3-2-1.5-1.4m-5.2-9.9v-.2m10-15.6l1.1-.8m24.3-28.5c.2-.2.4-.3.6-.5l1.3-1m23.3-27.7c.1 0 .3-.2.4-.3l2.1-1.6"/><path d="M447.3 288.5v-.2m-1.3-2.5v.2m1-.4v-.5m-8.1 122.6l-1.4-.9c-.4-.2-.8-.5-1.2-.7-.2-.1-.4-.2-.7-.3m-62.9-34.1c.2-.6.4-1.2.7-1.7.3-.7.7-1.4 1.2-2.1l1.5-1.9.9-.9m21.3-26.8c.1 0 .2-.1.3-.2l1.6-.9m24.1-27.7c0-.2.2-.4.2-.6.1-.4.3-.7.4-1 .2-.4.3-.8.5-1.2l.6-.9c.2-.3.5-.5.8-.7l.2-.2m-.1-1.1c-.3.2-.5.4-.8.5-.3.3-.7.6-.9.9-.3.3-.5.6-.7 1-.2.3-.3.7-.5 1.1l-.3.9-.3.9c-.1.3-.3.6-.4.9-.2.3-.3.6-.6.9-.3.4-.6.7-1 1.1a7.55 7.55 0 0 1-1.4 1.1l-1.8 1.3c-.7.5-1.5 1-2.1 1.6m-15.4 19.6l-1 .7a12.81 12.81 0 0 1-2 1.1l-1.9.9c-.6.3-1.3.6-1.9 1l-1.4.9c-.5.4-.9.8-1.3 1.2l-1.1 1.5c-.3.6-.6 1.3-.7 2-.2.8-.3 1.6-.4 2.4 0 .4-.1.8-.2 1.1m-3.6 5.8l-.2.2m-10.6 11.9c-.4.5-.7.9-1 1.4-.4.7-.8 1.4-1.1 2.2-.3.7-.6 1.5-.7 2.2a8.33 8.33 0 0 0-.3 2.2v2.3c0 .6.2 1.2.3 1.8l.6 1.8v.1m146.4 58.2h.2m13.2 10.2c-.7-.2-1.3-.5-1.9-.8-.5-.3-1-.5-1.4-.9-.5-.4-.9-.8-1.2-1.2s-.5-.8-.8-1.2c-.2-.3-.3-.7-.5-1-.1-.3-.2-.5-.4-.8-.1-.3-.2-.5-.4-.8l-.7-1.3-.9-1.2c-.2-.2-.4-.4-.7-.6l-.9-.6c-.2-.1-.5-.2-.8-.3m3.7 5.8c.1.3.2.5.4.8.2.4.4.8.7 1.2.2.4.5.7.8 1.1s.7.7 1.2 1l1.6.9c.6.3 1.2.6 1.9.8"/><path d="M531.6 449h0 0v.1h0 0 0v.1h0 0 0v.1h-.1 0 0v.1h0 0 0v.1h0 0 0 0 0v.1h.1 0 0 0 0 0 0 0v.1m.4-1h0-.1 0 0 0 0-.1 0v.1h0 0-.1v.1h0 0v.1h-.1"/><path d="M533.9 449.4l-1.9-.7m-.4 1c.7.2 1.4.5 2 .7m10.7-8.4c-.4-.1-.8-.3-1.1-.4-.3 0-.6-.2-.9-.2h-.7-.7c-.2 0-.4 0-.5.2-.2.1-.4.2-.6.4-.1.1-.3.3-.4.5 0 .1-.1.2-.2.4m-.4 3.1v.3m-.1 1.2v.4m-.5 3.1h.1m1.3-2.7v-.5m.1-1.1v-.5m.2-1v-.4m.2-1v-.2m.7-1h.1.3.5c.3 0 .5 0 .8.2.4.1.9.3 1.4.5"/><path d="M544 442.4h0 0-.1 0v.1h0 0 0v.1h0 0 0v.1h0 0 0v.1h0 0 0 0v.1h0 0 0 0 0v.1h0 0 0 0 .1m.3-1h0 0 0-.1v.1h0 0 0-.1 0v.1h0-.1v.1h0 0v.1m1.3 0l-1-.3m-.3.9c.2 0 .4.1.6.2"/></g></g></g><g class="I"><path d="M905.8 722.5l-8.2 2.1-4.8-14.6-24.3 5.7-2.1-6.5 32.4-7.8 7 21.1zm25.5-28.9l-8.2 2.2-4.8-14.6-24.3 5.6-2.1-6.5 32.4-7.8 7 21.1zM159 454.4l-8.1 2.1-4.8-14.5-24.3 5.6-2.2-6.5 32.5-7.8 6.9 21.1zm25.5-28.9l-8.1 2.2-4.8-14.6-24.3 5.6-2.2-6.5 32.5-7.8 6.9 21.1z"/><circle cx="849.2" cy="688.4" r="12"/></g><path d="M851.3 691.4c.2 0 .5 0 .6.3s.3.4.3.6 0 .5-.3.6c-.2.2-.4.3-.6.3h-4.1c-.2 0-.4 0-.6-.3-.2-.2-.3-.4-.3-.6s0-.4.3-.6.4-.3.6-.3h1.2v-6.8l-.6.3c-.2.1-.5.1-.7 0-.2 0-.4-.2-.5-.5v-.7c0-.2.2-.4.5-.5l1.9-.8h.4c.1 0 .3 0 .4.1.3.2.4.4.4.7v8.2h1.2z" fill="#fff"/><circle cx="215.4" cy="310.4" r="12" class="I"/><use href="#c" fill="#fff"/><circle cx="471.2" cy="403.4" r="12" class="I"/><use href="#c" x="255.9" y="93" fill="#fff"/><circle cx="659.3" cy="472" r="12" class="I"/><use href="#d" fill="#fff"/><circle cx="921.8" cy="567.1" r="12" class="I"/><use href="#d" x="262.5" y="95.2" fill="#fff"/><defs ><path id="B" d="M208.6 332.7c0 2.1 2.9 3.8 6.4 3.8s6.4-1.7 6.4-3.8-2.9-3.8-6.4-3.8-6.4 1.7-6.4 3.8z"/><path id="C" d="M556.4 488.2s-.1-.2-.2-.3"/><path id="D" d="M565.5 478.8h.1.1.1.1.1.1.1.1.1.1.1.1.1.1.1.1.3"/><path id="E" d="M355.8 169.7c0 1 1.3 1.7 2.8 1.6s2.6-1 2.6-2-1.3-1.7-2.8-1.6-2.6 1-2.6 2z"/><path id="F" d="M1085.9 435.5c1.8-2.1.8-4.7-2.2-5.8s-6.9-.3-8.8 1.8c-.6.7-1 1.6-.9 2.4"/><path id="G" d="M1100.5 437.6c0-1-1.3-1.7-2.8-1.6s-2.6 1-2.6 2 1.3 1.7 2.8 1.6 2.6-1 2.6-2z"/><path id="H" d="M368.7 177.6c0 1.2 1.6 2 3.3 1.9s3.1-1.2 3-2.3c0-1.2-1.6-2-3.3-1.9s-3.1 1.2-3 2.3z"/><path id="I" d="M376 178.8c1.4-1.6.6-3.6-1.7-4.4s-5.3-.2-6.7 1.4c-.5.6-.7 1.2-.7 1.9"/><path id="J" d="M377.1 177.1c-.1-1.9-2.6-3.3-5.5-3.1s-5.1 1.9-5 3.9v.3"/><path id="K" d="M473 429.2c1.3-.8 1.5-2.1.4-3s-3.1-.9-4.5-.1c-.3.2-.5.4-.7.6"/><path id="L" d="M374.9 177.5s-.1.2-.2.2l-.6.6"/><path id="M" d="M377.7 177.4c0-.3-.1-.5-.2-.7s-.2-.5-.4-.7l-.1-.1"/><path id="N" d="M366.8 176.2c-.2.2-.3.4-.4.6l-.3.8v.3"/><path id="O" d="M373.5 177.8h-.4-.4-.4-.4-.1-.1-.1-.3"/><path id="P" d="M370.6 177.9s-.1.2-.2.2c0 0-.1.2-.2.2"/><path id="Q" d="M373.1 179.2h-.3-.3-.3-.3-.1-.1-.1-.3"/><path id="R" d="M370.6 175.6h.3.3.3.3.1.1.1.3"/><path id="S" d="M373.6 175.7s-.1-.1-.2-.1h-.2"/><path id="T" d="M370.7 177.6c.5 0 1 .1 1.4.1s.9 0 1.4-.2"/><path id="U" d="M1077.4 434.5l.2-.2.2-.2h0l.4-.4"/><path id="V" d="M476.7 427v-.2c-.1-.2-.2-.5-.4-.7l-.1-.1"/><path id="W" d="M543.4 458.1c-.1-.1-.3-.2-.4-.4s-.3-.3-.4-.5"/><path id="X" d="M543.4 458.1h0 0 0 0 0 0 0 0 0"/><path id="Y" d="M594.5 463.3c-.2.2-.3.4-.3.6v.7c0 .2.2.4.4.6s.4.3.7.4.6.2.9.2h1c.3 0 .3 0 .5-.1h.2s.1 0 .2-.1c.3-.1.5-.3.7-.5 0 0 .2-.2.2-.3s0-.2.1-.3v-.7c0-.2-.2-.4-.4-.6-.1 0-.2-.2-.3-.2a.76.76 0 0 1-.4-.2c-.3-.1-.6-.2-.9-.2h-1c-.3 0-.6.2-.9.3s-.5.3-.7.5z"/><path id="Z" d="M601.6 465.4c0-.4-.1-.8-.3-1.1-.1-.3-.3-.5-.6-.8l-.5-.5c-.2-.1-.4-.3-.6-.4s-.5-.3-.8-.3c-.3-.1-.6-.2-.9-.2-.6-.1-1.3-.1-2 0-.3 0-.6.1-1 .2-.3.1-.6.2-.9.4a4.44 4.44 0 0 0-1.1.8l-.4.4c-.1.2-.3.4-.4.6s-.2.5-.3.7v.8"/><path id="a" d="M600.9 467.4c.1-.1.2-.2.3-.4s.3-.5.3-.7.1-.5.1-.7v-.3"/><path id="b" d="M721.7 500.6l-1.8 2-1.8 2.1-1.6 2c-.3.3-.5.6-.7.9-.1.1-.2.3-.3.4"/><path id="c" d="M218.3 313.4c.2 0 .5 0 .6.3s.3.4.3.6 0 .5-.3.6-.4.3-.6.3h-5.9c-.2 0-.4 0-.5-.2-.1-.1-.3-.2-.3-.4v-.5c0-.2.1-.3.3-.4l1.6-1.5c.5-.4.9-.9 1.5-1.4s1-1 1.5-1.4c.3-.3.6-.7.7-1.1s.1-.8 0-1.1-.3-.6-.6-.8-.6-.3-1.1-.3-.8 0-1.1.3c-.3.2-.5.4-.6.6a2.47 2.47 0 0 0-.4.9c0 .2-.1.4-.3.6-.2.1-.4.2-.7.2-.2 0-.4-.1-.6-.3-.1-.2-.2-.4-.2-.7.1-.6.3-1.1.6-1.6.1-.2.3-.4.5-.6s.4-.4.7-.5.6-.3.9-.4.7-.1 1.1-.1.8 0 1.2.2c.4.1.7.3 1 .5s.5.4.7.7.3.6.4.9.2.6.2 1c0 .3 0 .7-.1 1 0 .3-.2.7-.4 1s-.4.7-.8 1c-.5.4-.9.9-1.4 1.4l-1.5 1.4h3.7z"/><path id="d" d="M662.3 474.9c.2 0 .5 0 .6.3.2.2.3.4.3.6s0 .5-.3.6c-.2.2-.4.3-.6.3h-5.9c-.2 0-.4 0-.5-.2-.1-.1-.3-.2-.3-.4v-.5c0-.2.1-.3.3-.4l1.6-1.5c.5-.4.9-.9 1.5-1.4l1.5-1.4c.3-.3.6-.7.7-1.1s.1-.8 0-1.1-.3-.6-.6-.8-.6-.3-1.1-.3-.8 0-1.1.3c-.3.2-.5.4-.6.6a2.47 2.47 0 0 0-.4.9c0 .2-.1.4-.3.6-.2.1-.4.2-.7.2-.2 0-.4-.1-.6-.3-.1-.2-.2-.4-.2-.7.1-.6.3-1.1.6-1.6.1-.2.3-.4.5-.6s.4-.4.7-.5.6-.3.9-.4c.3 0 .7-.1 1.1-.1s.8 0 1.2.2c.4.1.7.3 1 .5s.5.4.7.7.3.6.4.9.2.6.2 1 0 .7-.1 1c0 .3-.2.7-.4 1s-.4.7-.8 1c-.5.4-.9.9-1.4 1.4l-1.5 1.4h3.7z"/></defs></svg>