<svg xmlns="http://www.w3.org/2000/svg" viewBox="0 0 1303.9 850.4" xmlns:v="https://vecta.io/nano"><style><![CDATA[.E{stroke-linejoin:round}.F{stroke-width:.5}.G{stroke-linecap:round}]]></style><g fill="none" stroke="#000" class="E F"><g class="G"><path d="M369.2 126l376.5 54.4m-391.9-49.3l3.7-2.4m796 236.9l-1.8-12.6m-3.9 18.3l3.7-2.4"/><path d="M1151.5 368.9l-1.8-12.5m-1.9 14.9h-.1m.1 0l-1.8-12.5M353.8 131.1l382.7 55.3M1146 358.8l3.7-2.4m-404-176l403 169.6M736.5 186.4l9.2-6m-9.2 6L1146 358.8M751.9 518.7l-.2-1.3m-1.7.1l.2 1.4m-.3.1l-.2-1.5M534 416h0m-1.8 5.6v-.1"/><path d="M532.2 421.6v-.1M395.1 178.2l30.3-19.7m8.2-1.9l74.7 10.8M308.2 300.9l-173.5-25.1m284.1 61.4l-109.5-36m44.5-170.1L134.5 274.3m399.3 70.9l.1 2.4m-73.5 44l-.7-.4m77.2 22.2l-76.5-21.8"/><path d="M533.8 345.2l-1.3-1.5m13.6 93.4l-2.2-14.8m2.2 14.8l.1.5m-7.7-23L462 392.7m83.7 43.1l-2.2-15m-77.8-3.1l76.5 21.8m-83.7-43l2.2 15m-3.9-15.5l2.2 15m6.9 8.7l76.6 21.8"/><path d="M543.9 422.5l.1.2m358.4-124.6l-142.5-36.4m302.7 102.5l-134.8-56.7m.7 14.7l120.7 50.8m-288.7-96.7L903 312.8m-203.4-52.1l31 8m-76.4 17.2l28.6-18.7m-57.7 67.6l-26.5-11.1m-46.2 28.7l23-15M544 431.7l-2.1-14.2m-66.2-20.8l2.4 16.2m536.5 156.7l-.1-1.3m-1.8.1l.2 1.4M497.6 407.4l-1.4.9m5.9-1.4h0m-23.6-9.5l2.3 16m0 0l61.7 17.6"/><path d="M542.5 431l-2.3-15.5m-14.6-.3l1.4-.9m-1-2.3l-.8.5m2.7 4.8l1.4-.9m-2.2-1.9l-1.4.9m3.8 1.1l-1.4.9m602.5 12.4l4.8-2.4m0 0l-6.5-43.8m-217 283.7L160.3 452.6"/><path d="M161 450.7l-.7 1.9m767.9 212l.6 4m-.6-4l-1.2-1.5M161 450.7l751.6 214.8m14.4-2.4l7.3-4.8m0 0l-766.4-219"/><path d="M167.9 439.3l-7.4 4.8M923 667l.5 3.3m-11.2-.2l-.4-2.8m0 0l.7-1.8m146.8-51l-132.3 66.1"/><path d="M1059.4 614.5l-.5-3.8m-139.8 70.6L144.2 459.9m-.3-3.9l.3 3.9m913.4 149.3l1.3 1.5m0 0l-132 66"/><path d="M918.9 677.4L143.9 456m793.4 208.3l-8.5 4.3M288.7 193.5l-4.5-.7"/><path d="M284.2 192.8l3.5 14m8.3-.2l30.3-19.8m-3.4-14l3.4 14"/><path d="M322.9 172.8l-30.3 19.8m-3.3-1l-.6 1.9m2.6-2.4l1.3 1.5m0 0l3.4 14m-7.3-13.1l3.4 14m96.6-29.5l-.6 1.9m37.3-21.4l1.3 1.4M396 194.6l-4.5-.7m1.1-13.4l-4.5-.6"/><path d="M388.1 179.9l3.4 14m38.7-20l-30.3 19.8m26.8-33.8l3.5 14"/><path d="M426.7 159.9l-30.2 19.7m-3.3-.9l-.6 1.8m2.5-2.3l1.4 1.4m0 0l3.4 14.1m-7.3-13.2l3.4 14.1m-52.1 4.9l-.7 1.9m310.5 81.3l.6 13.2M454.3 397l1.2-.1m198.2-114.2l-1.3-1.5m1.3 1.5L632 304.6m0 0l.6 13.2m-.6-13.2l-1.3-1.5m-18 11.3l16.1 4.1"/><path d="M628.2 305.3l.6 13.2m-16.7-17.3l.6 13.2"/><path d="M628.2 305.3l.6-1.9m-16.7-2.2l.7-1.9m15.4 6l-16.1-4.1m345.4-1.2l.6 13.2m-48.2-20.8l46.8 19.7"/><path d="M956.7 312.1l-.6-13.3m-46.8-19.7l.6 13.3m49 6.2l-1.4 1.4m-47.3-22.7l-.9 1.8m46.8 19.7l-46.8-19.7"/><path d="M957 297l-.9 1.8M584.4 338l22.2-22.4"/><path d="M606 302.4l.6 13.2m-.6-13.2l-1.3-1.6M500.4 412.4h0m-.1.1l.1-.1m-341.6 33.1l-1.1 1.1m-1.3 2.8l.5 3.2M547.1 470v.2m9.9 14l-.1-.2m10.3 59l-.1.6m-5.4-.2l.1.7m-3.7 1.9l4.5-2.3m3.7-.3l5.2 1.5m0 0l-6.3 3.1m6.3-3.1l.3.8m-6.6 2.3l-7.1-2m0 0l-.2.6m7.3 1.4l.1.8m13.5-.8l-.2-.7m-.5.6l.4.6m-18.2 2.9h0m10.9-5.4l.6-.3m-7.4 3l.7.2m3.9 1.3l2.5-3.8m-3 3.9l.5-.1m-2 3.1l1.7-2.6"/><path d="M578.3 548.2l.5-.1m-22.3-61.7v-.3m587.6 72.1l-3.2-21.5m-89.7 70.6h0m-79.1 39.6l168.8-110.2"/><path d="M1021.8 502.7l119.1 34m-381.8-17.6l-12.2 8M727 530l-3.5-1m-171.4-48.9l-3.6-1.1m-1.4-9l12.2-8m-284.4-81.3l-71.4 46.6m733.8 237l-.8-5.1M160.3 452.6l.4 2.8m773.6 202.9l2.2.9m0 0l-8.3 5.4M578.5 546.2v.9m-26.8 1.3l.1.6m19.3-3.1l.4.5m-1.2 2.7l2.5-3.8m0 0l4.9 1.4m.9.6l-8.3 1.8m0 0l-.1.5m-17.6-.9l4.6-2.3m0 0l7.2 2.1m0 0l-5.3 2.6m5.3-2.6l.2.6m-4.2 2.1l10.7-5.3m0 0l-2.3 3.5m0 0l-8.4 1.8m0 0l-.1.2m8.5-2l.2.8m8.9-2.1l.2.7m-10.5 4.4l2.3-3.5m8-1.6l-10 5"/><path d="M578.1 547.9l-.2.2m-8 1.6l8.2-1.8m-10.2 5.2l-.3.1m0 0v.3m.3-.4l.1.5m.4-3.6l.3.7m-7.7.9l7.4-1.6m0 0l-2 3.1m12.1-6l-.1-.1m-5.7-1.6l-1.1-.3m-13.6 1l-.6.4m-20.5-133.1l-.7-.4M959 314l109.8 46.2m8.7-9.3l.2 3.5m-119.2-53.6l.5 13.2m192.1 104.1l-6.6-44.7M959.3 299l-.8 1.8"/><path d="M1077.5 350.9l-119-50.1m119.9 48.3l-.9 1.8m-328 20.1l-1 .8m394 3l6.7 45.7m-1 2.5l-7-47.4m-7.6 4.9l6.8 45.9m-233.6-125l.6 14.6m14.4 5.4l-.7-14.7m-296 28.1l-.6-14.6m21.6 8.7l-.6-14.7m-35.3 0l14.3 6m278.5-7.4l-.6-14.7m-142.5-36.4l.6 14.6m-2.3-22.3v.4M478.1 412.9l2-1.3m-196-202.4l-50.8 33.1m321.4-29.2l81.6 27m-232.2-49.2l127.1 18.4m-47.9 205.4l-1.2.8m61.2 17.5l.7-.5m383.8-125l.7 14.7m-170.3-67.8l156.9 40.2m-196.8-50.4l24.1 6.2M730 254l-19-4.8m301.7 320.6l-.2-1.4m-1.2.8v.3m3.4-1.1l.1 1m4.1-1h0m-11.3 1.7h0M373.7 164.3l.3 1.4m-7.3 4.8l.7 3.2m14.5-6.8l-.5-2.4m-11.8 9.8l-.9-3.5m-21 15.8l.5 2m23.3-14.8l1.1 4.4m20.5-11l-.2-1m-8.4-1.2l.5 1.8m-34.8 20.5l-2.5-.7m21.9-12.3l-2.2-.6m-59.8 30.5l.7 2.7m29.2-11.3l-1.8-7.2m0 0l4.2-2.8m-39.1 17.9l1.1 4.4m-14.3 8.2l-2.2-8.9m12.1 2.3l-.8-3.4m10.9-1.9l-5.7 3.7m236.7-18.4l-.8-3.1"/><path d="M531.2 209.3l-3.8-15.5m2.8 2.3l3.8 15.6m-235 9.2l-.6 1.9m37.3-21.4l1.3 1.4m-30.7 34.7l-4.5-.7m1-13.3l-4.4-.7m0 0l3.4 14m38.6-20l-30.2 19.8"/><path d="M337 202.8l3.4 14m-3.4-14l-30.2 19.8m-3.3-1l-.7 1.9m2.6-2.4l1.4 1.5m0 0l3.4 14m-7.4-13.1l3.5 14m-47.9 20.2l6.1.9m247.8-91.3l-.6 1.8m39.3 19.2l-35.9-5.1"/><path d="M547.5 174.3l-35.8-5.2m0 0l3.4 14.1m-381.3 92l.3 3.9M551 188.3l-3.5-14"/><path d="M547.5 174.3l.7-1.9m1.3 2.5l-1 1.4m-.1.4l3.4 14.1m-424.8 93l.3 3.9m-7.1 4.7l.3 3.9m446.4 168.3l.2 1.3m-1.7.2l-.3-1.4m-.2 0l.2 1.5m-1.3-.3l-.1-.4m3.6.2l-.2-1M544 279.2l9.8 3.2m-1.2 3.5l-37.8 18.9m0 0l12.2 4m-1.3 3.5L488.2 331m-8.1 1.2l-105.6-34.9"/><path d="M375.7 293.8l36.7-18.3m.3-.8l-34.3-11.4m-.2 0l-18.8-2.7m-1.9.4l-30.3 19.8m-8.2 1.9l-93.8-13.6m-.4-3.2l66-43.1m8.2-1.9l4.5.7m1.9-.5l30.3-19.7m8.2-1.9l4.4.6m2-.4l30.2-19.8m8.2-1.9l4.5.7"/><path d="M226.1 267.4l.5 1.9m-1.8-3.4l1.3 1.5m126.3-89.8l1.7 7m14.4-6.6l-2.3-9.4m-36.5.9l-.6 1.9m37.3-21.5l1.3 1.4m-35.2 34.1l4.5.6m-3.4-14l-4.5-.6"/><path d="M329.1 171.4l3.4 14m8.4-.3l30.3-19.7m-3.5-14.1l3.5 14.1"/><path d="M367.7 151.3l-30.2 19.8m-3.3-1l-.6 1.9m2.5-2.3l1.4 1.4m0 0l3.4 14m-7.3-13.1l3.4 14m37.6-38l-.6 1.9m3.4 14l16.9 2.5"/><path d="M408.8 154.9l-34.8-5m0 0l3.4 14m31.4-9l.4 1.7"/><path d="M408.8 154.9l.6-1.8m-124.5 37.8l-.7 1.9m37.3-21.4l1.4 1.4m-35.2 34l4.4.7m72.2-29.4L334 197.9m-8.2 1.9l-4.5-.6m-1.9.4l-65.3 42.6m-8.2 1.9l-34.8-5m-.5-3.1l66.1-43.2"/><path d="M284.9 190.9l4.4.7m2-.5l30.2-19.7m8.2-1.9l4.5.6m1.9-.4l30.3-19.8m145.9 17.4l35.9 5.1m1.5 2.9l126.8 42m-1.3 3.5l-37.5 18.7m-8.1 1.2l-12.1-4m-2 .3l-35.7 17.8m-.3.9l2.7.9m-1.2 3.5l-36.7 18.3m-2.5-91.4l.6 2.3m5 24l-3.8-15.5m-257.3 20.3l-5.7 3.7"/><path d="M286.3 218.1l-2.2-8.9m-2.9 15.3l-.6-2.7m270.3-24.2l3.8 15.5m93.3 19.8l-.8-3.5m.7 4.6l.1.4m-.8-5l-96.3-31.8m-12.3-8.1l-108.3-15.7m-48.4-6.9l-7.9-1.2m-7.3 4.8l2 .3m54.2 7.8l104.5 15.2m215 56.6v-.5m-11.8 18.8L730 254m22.9 22.4l-.6-14.6m-18-4.6l.7 14.6M560.1 466.4h0m-13 3.8l12.5-8.1m-65.9-56l1.4-1m-1-2.2l-.8.5m2.7 4.8l1.4-.9m-2.2-1.9l-1.4.9m418.5 263.8L160.7 455.4"/><path d="M236 406.1l-67 33.5m-6.9 3.4l-17.7 8.9m.4 2.3l774.9 221.4m6-.5l131.9-65.9"/><path d="M1057.6 609.2l-6.4-1.9m0 0l-79.1 39.6M203.5 427.3l768.6 219.6M567.2 543l11.3 3.2m.4 2.2l-10 5m-17.2-5l10-5m365.2 133.3l.2 3.9m-8 .7l-.2-3.9M478 397.3l2.3 15.7"/><path d="M481.3 414.2l61.7 17.6m319.5-151.6l46.6 11.9"/><path d="M908.5 278.9l.6 13.2M861.9 267l.6 13.2"/><path d="M908.5 278.9l.6-1.9m-47.2-10l.6-1.9m46 13.8L861.9 267m-348.7 39.3l1.6-1.5m-57.1 107l1.3-.8m7.1-17.1l1.9 12.8m-7.3 4.8l7.3-4.8m58.2-96.1l-13-4.3m0 0l2.6 10.9M456.5 412l1.2-.2"/><path d="M455.5 396.9l2.2 14.9m-117-96.5L310 305.1m30.7 10.2l.2.7m0 0l.5 3.2m30.8 10.2l-30.8-10.2m30.8 10.2l.1.7m0 0l.5 3.2m44.8 14.8l-44.8-14.8m-63.5-32.1l.7 3.9m216.2 5.5l.3 1.2m-63 81.4l-5 3.3m67.7-85.9l.8-1.8"/><path d="M455.5 396.9l1.3-.9m175.8-78.2l21.7-21.9m-48.3 6.5l-22.2 22.4m0 0l.6 13.2m-.6-13.2l-1.3-1.5m-19.2 11l17.2 4.4"/><path d="M579.9 325.5l.6 13.2m-17.8-17.6l.6 13.2"/><path d="M579.9 325.5l.7-1.9m-17.9-2.5l.6-1.9m16.6 6.3l-17.2-4.4M473 412.9l72.4 20.6M473 412.9l-7.3 4.8m-1 2.8l1.2-.8m-1.2.8l76.5 21.9m-77-20.8l.5-1.1m77.5 19l3.5-2.3m-4.5 5.2l1.3-.9m-1.8 2l.5-1.1m1.6-92.5l14.3-14.4"/><path d="M556.6 322.3l.5 13.2m-.5-13.2l-1.3-1.6m1.3 1.6l-22.8 22.9m-180-214.1l382.7 55.3M374.6 148l34.8 5.1m.5 3.1l-31 20.2m-8.2 1.9l-4.5-.6m-91.6 203.2l-2.2-.6m.3 1.8l-.3-1.8m-1.6 3.1l-.2-1.5m781.6 216.9l85.1-42.6m-109.9-56.3l142.7 40.8m4 19.8l-110.4 55.2"/><path d="M1174.1 560.5l-.5-7.8m-111 55.5l111-55.5m-903-170.8l1.9-.9m-.2 1.4l-1.7-.5m791.2 219.6l109.3-54.6m.4 5.2l-111 55.5m111-55.5l-.4-5.2m-118.9 51.9l9.6 2.7m-11.3 1.1l.7 4.7m8.2 7.2l4.3 1.2"/><path d="M1063.7 615.7l-1.1-7.5m0 0l-2.1-.6m0 0l-.3-2.3m0 0l-9.7-2.7M923 506.2l-.3-3.9m-191-80.4l-.1 3.8m48.9-14.1l30.2-19.7m-.1-1.1l-29.7-12.5m141.8 124l-191-80.4m414.3-63.1L926.7 502M736.5 186.4L1146 358.8M736.5 186.4L489.9 347.5m74.4 31.3l-74.4-31.3m240.3 73.9l-165.9-42.6"/><path d="M690.5 253.2l22.2-22.4m8.1-1.5l138 35.3m.3.1l1.9.1m1.5.3l46.6 11.9m1.1.3L957 297m2.3 2l119.1 50.1m.6 4.4l-30.2 19.8m.1 1l4.7 2m.7 4.4l-30.3 19.8m.2 1l4.6 2m.7 4.4l-30.3 19.8m.2 1l4.6 2m.7 4.4l-31 20.2m-8.4.7l-25.1-10.6m-2 .1l-30.3 19.8m-8.4.6L781.1 416m-321.4-24.8l76.5 21.8m7.8 9.7l2.2 14.9m-5.5 5.9l-76.5-21.9m449.2 101.5l-6.8 4.4m2.8-4.1L638.3 409.3m-1.5-.5l-67.9-17.5"/><path d="M1003.2 432.5l.1 3.5m.7-5.3l-.8 1.8m-4.7-2l.4 8.4m-268.7-13.7v-3.8m-93.4-12.6l.1-3.1m0 0v-.7m46.6 12v-3.1m0 0v-.7m315.9 15.5l-.9 1.8m4.7 2l-4.7-2m-1-1.1l.5 10.1m1.2-11.8l-1.1.8m56.2 41.4l-5.1-34.2m-7.5 4.9l4.8 32.7m4.1-38.6l4.9 32.7m0 0l4.8-2.4"/><path d="M1060.3 465l-5-33.3m17.8 28.9l-5.5-37m-7.5 5l5.2 35.3m-36.5-60.4l-.8 1.8m0 0l.1 3.5m-247.6 2.8l1.1 1.7m241.7-10l.4 8.4m45.3 11l5.2 35.3m-292.6-44.7l.1 3m242.5-14.8l-.9 1.8m4.7 2l-4.7-2m.7-2.8l-1.1.8m-231.4 19.1l20.9-13.7m-.6-13.2l.6 13.2"/><path d="M811.8 393.5l-30.2 19.8m29.1-21.4l1.1 1.6m262.4 64.5l4.8-2.4"/><path d="M1079 455.6l-5.3-36m-51.4-17.4l.4 10.1m69.1 38.9l-5.8-39.6m-7.5 5l5.6 37.9m3.3-43.8l5.6 37.9m0 0l4.8-2.4"/><path d="M1097.8 446.2l-5.7-38.6m18.5 34.2l-6.2-42.2m-7.5 4.9l5.9 40.6m3-46.4l6 40.5m-58.2-62.9l-.9 1.8m-239.6 27.6l-.6-13.2m-.6-.9l-1.2-.7m-84.5 3.4l1-.8M456.5 412l-2.2-15m35.6-49.5l-71.1-10.3m-1.2 10.9l1.2-10.9m-1.2 10.9l-302.5-43.8m0 0l4.8 32.1M899.1 559L119.9 336.4"/><path d="M899.1 559l-4.5-30.6m0 0L568.9 391.3m0 0l-4.6-12.5m216.4-.5l-29.4-7.5"/><path d="M749.4 371.1l-22.2 22.4m-8.1 1.6l-184.2-47.2m-2.4-4.2l22.8-23m8-1.5l17.3 4.4m1.9-.3l22.2-22.5m8.1-1.5l16 4.1m1.9-.3l21.7-21.9m-.5-1l-7.1-1.8m-2.4-4.2l22.8-23m8-1.5l15.4 3.9m359.5 122.5l.3 8.4m.5-10.2l-.8 1.8m4.6 2l-4.6-2m63.7 63.1l4.8-2.4"/><path d="M1116.6 436.8l-6.1-41.2M748.2 372l1.2-.9m-23.3 23.3l22.1-22.4m304.5 6.1l.2 3.5M290.8 222.8l1.3 1.5m3.5 14l-31.1 20.3"/><path d="M292.1 224.3l3.5 14m-3.5-14l-66 43.1m37.4-13l-25.4 16.5m26.4-12.3l-1-4.2M1047.1 375l.4 10.1m1.2-11.8l-1 .8m81.7 58.3l-6.6-44.8m-7.6 4.9l6.4 43.3m2.6-49.1l6.4 43.1m-382 88.5v.4m3.3-1.2l.2 1m-7.2.7h0m402.9-147.9l-1.8-12.5M926.7 502l.3 3.9m-7.1 4.7l.3 3.9m-7.1 4.7l.3 3.9m2.9-8.3l-.4-4M685 413.7l-.1 3.8m.1-3.8l230.9 97.1m4-.2l7.1-4.7"/><path d="M923 506.2l-191.4-80.5m-1.4-.5l-46.7-12m225.9 110.2l-.3-4M638.3 405.5v3.8m0-3.8l270.8 113.9m4-.2l7.1-4.7"/><path d="M916.3 514.8l-231.4-97.3m-1.4-.5l-46.6-12m-265.2-71.9l-250.3-36.2m-.9-1l-6.1 3.9m-2.1 2.8l4.7 31.7m789.6 193.2l4.5 30.5m134.2-67l-134.2 67"/><path d="M1045.3 491l-7.1-48.1m0 0l109.6-71.6m-493.1-76.2l-.6-13.2m-.7-.9l-1.1-.7m68.5-35.9l137.9 35.3"/><path d="M858.1 266.5l.6 13.2m-138.5-48.5l.6 13.2"/><path d="M858.1 266.5l.7-1.9m-138.6-33.4l.6-1.9m137.3 37.2l-137.9-35.3m-177 49.8l.8-1.8m9 5.1l-9.8-3.3m0 0l2.1 8.5m7.7-5.2l.3 1.2m-.3-1.2l.8-1.9m98.8-1.9l14.5-14.6"/><path d="M666.5 252.7l.6 13.2m-.6-13.2l-1.3-1.5m1.3 1.5l-22.8 23m215.8 4.1l1.8.2m-2.4-13.4l.6 13.2"/><path d="M860.7 266.8l.6 13.2m-2.4-13.4l.2-1.9m1.6 2.1l-1.8-.2"/><path d="M860.7 266.8l.3-2m-217.3 10.9l.1 2.3m-.1-2.3l-1.3-1.5m30.8-9.4l15.4 3.9m-.6-13.2l.6 13.2m-16-17.1l.6 13.2m14.8-9.3l.6-1.9m-16-2l.6-1.9"/><path d="M688 255.5l-15.4-3.9m-128.8 27.1l-1 1.4m-.1.5l2.2 9.1M714 232.3l-22.2 22.5M340.2 319l-212-30.7m-7.3 3.2l6.4-4.2m-6.2 5.7L371 329.1m320.8-74.3l.6 13.2m-320.7 65.1l-.7-4m320.8-74.3l-1.3-1.6m1.9 14.8l22.2-22.5"/><path d="M714 232.3l.6 13.2M121.1 293l.3 3.9M714 232.3l-1.3-1.5m-131.3 27.6l.3 1.3m-.3-1.3l.8-1.8m-2.9-1.4l-1 1.4m-.2.5l1 3.9m-.4-3.5l.8-1.8m1.9 2.7l-2.7-.9"/><path d="M578.7 257.5l.8 3.3m-451.6 23.6l.3 3.9m180.6 16.6L135 279.7m-.9-1l-6.4 4.2m.2 1.5L339.6 315m.6 4l-.6-4m73.9-38l-1.1-1.5m-35.5 19.8l-1.2-1.5m41.2-2.7l-24.3 12.1"/><path d="M413.5 277l3.4 14.1m-3.4-14.1l-36.6 18.3m0 0l.7 3m298.1-79.2l.3 1.3m-.3-1.3l.8-1.8m-127.6-40.1l.8-1.9m2.6 15.9l109.6 36.2"/><path d="M675.7 219.1l-126.8-41.9m0 0l3.4 14m-138 84.3l-1.5-.8m-104 30.2l-.6-4m109.9-11.1l-3.5-14m-279.9 0l.3 3.9m245.5-99.8l1.4 1.4M351.1 216l-4.4-.6m1-13.4l-4.5-.6"/><path d="M343.2 201.4l3.5 14m38.6-20l-30.2 19.7m26.8-33.8l3.4 14.1"/><path d="M381.9 181.3l-30.3 19.8m-3.3-1l-.6 1.9m2.6-2.3l1.3 1.4m0 0l3.5 14m-7.4-13.1l3.4 14m-74.4-23.2l1.3 1.5m-47.9 47.5l51.3-33.5"/><path d="M278 194.3l3.4 14m-3.4-14l-66 43.1m0 0l.4 1.9m-1.8-3.3l1.4 1.4m221.6-80.8l-.6 1.8m78.2 24.9l-74.8-10.8"/><path d="M507.7 169.3L433 158.4m0 0l3.4 14.1m71.9-5.1l-.6 1.9m0 0l3.5 14"/><path d="M509.1 167.4l.2 1.8m3.4 14l-3.4-14M543 431.8h1M480.3 413c0 .6.5 1 1 1.2"/></g><path d="M1008 569.6c.2 1.3 2.7 2 5.5 1.6 2.9-.4 5-1.8 4.8-3.1s-2.7-2-5.5-1.6c-2.9.4-5 1.8-4.8 3.1h0z"/><g class="G"><path d="M369.2 126c-3.4-.5-8.7.7-11.8 2.7m794.1 240.2c1.5-.9 2.2-2.1 2-3.3m-3.8-9.2c3-2 2.6-4.8-1-6.3M750.2 518.9h-.3M530 415.3c-.2-1.4-1.1-2.8-2.3-3.5"/><path d="M527.7 411.8c-1.5-.9-2.8-.4-3 1.1s.9 3.5 2.3 4.4c.8.5 1.7.6 2.3.2m0 0c.6-.4.9-1.2.7-2.2"/></g><path d="M525.2 411.4c-1.1.7-1.1 2.7 0 4.5 1.2 1.8 3 2.6 4.1 1.9s1.1-2.7 0-4.5-3-2.6-4.1-1.9h0z"/><g class="G"><path d="M534 416.1v-.2"/><path d="M534 416.3c0-.4-.1-.8-.2-1.2m-1.6 6.4c1.4-.9 2.1-2.9 1.7-5.3m-12.6-6.5c0 .3-.2.7-.2 1.1"/><path d="M528.4 421.8c3.5 1.2 6.1-1.1 5.7-5.2 0-.6-.2-1.2-.4-1.8m-12.5-1.9c.6 3.9 3.8 7.9 7.1 8.8 1.3.4 2.5.2 3.4-.3"/><path d="M531.7 421.4c1.2-.8 1.8-2.3 1.7-4.2m0 0c0-1.4-.5-3-1.3-4.4m-10.6-3.1c-.3.9-.4 2-.2 3.2m-87.7-256.3c-2.4-.3-6.1.5-8.2 1.9m82.9 8.9h.8M134.5 274.3c-1 .7-.9 1.3.2 1.5m174.6 25.4c-.3-.1-.7-.2-1.2-.3m225.7 44.3c-.7.8-.7 1.6 0 2.3M462 392.7c-2.3-.7-3.9 1-3.5 3.8m85 24.3v-.3m-3.4-5.2c-.5-.4-1-.6-1.6-.8m3.7 25c2.3.7 3.9-1 3.5-3.8m-85-24.2c.4 2.8 2.6 5.5 5 6.2m-7.9-26.1c-.9 1-1.3 2.6-1 4.4m2.2 15c.6 3.9 3.7 7.7 7 8.7m76.5 21.8c.9.3 1.8.3 2.6 0m189.2-184.3c1 3.7 7.5 6 14.5 5.2 1.2-.1 2.4-.4 3.5-.7m7.6 0c-2.4-.6-5.2-.6-7.6.1m154.5 39.6c-.4-1.4-2-2.6-4.4-3.2m4.4 3.2c.9 3.7 7.4 6.1 14.3 5.3m6.7.8c-1.8-.8-4.3-1.1-6.7-.8m7.4 15.5c-1.8-.8-4.3-1.1-6.7-.8m-14.4-5.4c.9 3.7 7.4 6.1 14.3 5.3m-14.3-5.3c-.4-1.4-2-2.6-4.4-3.2m-142.5-36.5c-2.4-.6-5.2-.6-7.6.1m-17.9-4.6c1 3.7 7.5 6 14.5 5.2 1.2-.1 2.4-.4 3.5-.7m-18-4.5c-.4-1.4-2-2.6-4.4-3.2m-105.5 66.2c5.4 2.3 13.4 1.7 18-1.3 2-1.3 3.1-3 3-4.6M543.8 433.1c.2-.4.2-.9.2-1.4m-65.9-18.8c0 .5.3 1.1.6 1.6m534.2 155.3h-.3M498.1 406.2c-.2-1.4-1.1-2.8-2.3-3.5"/><path d="M495.8 402.7c-1.5-.9-2.8-.4-3 1.1s.9 3.5 2.3 4.4c.8.5 1.7.6 2.3.2m0 0c.6-.4.9-1.2.7-2.2"/></g><path d="M493.3,402.3c-1.1.7-1.1,2.7,0,4.5,1.2,1.8,3,2.6,4.1,1.9s1.1-2.7,0-4.5c-1.2-1.8-3-2.6-4.1-1.9h0Z"/><g class="G"><path d="M518.3 408.8c-1.4 4.1 1 10.4 5.4 14 3 2.5 6.3 3.2 8.5 1.7m0 0c1.1-.7 1.9-2 2.2-3.5"/><path d="M534.3 421c.5-2.3-.1-5.3-1.6-8m-47.3-13.6c-1.5 4.5 1.2 11.4 6 15.2 4.8 3.9 9.9 3.3 11.3-1.2.8-2.6.3-6.1-1.4-9.4m15.9 4.5c-1.5 4.5 1.2 11.4 6 15.2 4.8 3.9 9.9 3.3 11.3-1.2.8-2.6.3-6.1-1.4-9.4m9.4 17.9c.4.1.9 0 1.4 0"/><path d="M527 414.3s0 .2.1.2m2.2 1.9h.2M923 667c2-.6 3.8-1.4 5.2-2.4m-5.9.6c1.8-.6 3.4-1.3 4.7-2.1m-766.5-219c-1.3.8-2.2 1.8-2.7 2.7m0 0c-.7 1.7.6 3.2 3.2 3.9"/></g><use href="#B"/><use href="#C"/><use href="#C" x="-231.7" y="-66.2"/><use href="#B" x="221.1" y="63.1"/><g class="G"><path d="M911.9 667.3c3 .9 7.3.8 11.1-.3m-10.4-1.5c2.7.8 6.3.7 9.7-.3M156.9 452.6c.2 1.2 1.5 2.2 3.8 2.8m131.4-247.9c1.1.2 2.9-.2 3.9-.9m-7.3-13.1c1.1.2 2.9-.2 3.9-.9m143.8-20.1c-1.8-.3-4.6.4-6.2 1.4m2.8-15.5c-1.8-.3-4.6.4-6.2 1.4m-35.3 34.1c-1.8-.3-4.6.4-6.2 1.4m2.8-15.4c-1.8-.3-4.6.4-6.2 1.4m14.1 13.3c1.1.2 2.9-.2 3.9-.9m-7.3-13.2c1.1.2 2.9-.2 3.9-.9m-49.8 35.8c-1.8-.3-4.6.4-6.2 1.4m2.7-15.4c-1.8-.3-4.6.4-6.2 1.4m123.4 188.8c-3.3-.9-5.5 1.4-4.9 5.3m173.3-78.4c1.4.4 3.1 0 3.8-.7m-4.4-12.5c1.4.4 3.1 0 3.8-.7m326.1 8.6c-.2-.5-.7-.9-1.4-1.2m1.4 1.2c.1.3.5.6.9.7m-1.5-13.9c-.2-.5-.7-.9-1.4-1.2"/><path d="M957.5 300c.1.3.5.6.9.7m-395.1 33.6c-2.2-.6-5 0-6.1 1.2m5.5-14.4c-2.2-.6-5 0-6.1 1.2M502.2 407v-.2m-.1.3c0-.4-.1-.8-.2-1.2m-1.5 6.5c1.4-.9 2.1-2.9 1.7-5.3m-12.7-6.5c0 .3-.2.7-.2 1.1"/><path d="M496.5 412.7c3.5 1.2 6.1-1.1 5.7-5.2 0-.6-.2-1.2-.4-1.8m-12.4-1.9c.6 3.9 3.8 7.9 7.1 8.8 1.3.4 2.5.2 3.4-.3m-.1 0c1.2-.8 1.8-2.3 1.7-4.2m.1 0c0-1.4-.5-3-1.3-4.4m-10.7-3.1c-.3.9-.4 2-.2 3.2m-331.7 42.8c-.5.5-.8 1-1.1 1.5m0 0c-.8 1.9.6 3.7 3.7 4.5"/><use href="#D"/><path d="M181.3 452.9h-.1"/><use href="#D" x="221" y="63.1"/><path d="M402.4 516h-.1m164 27.4c-1.1-.3-2.7-.2-3.7.3m17.1 4.1c-.2-.3-.6-.5-1.2-.7m95.5 44c-1.6-.5-4.2-.2-5.8.7 0 0-.2.1-.3.2"/></g><path d="M1019.6 567.7c-.2-1.6-3.3-2.5-6.9-2s-6.3 2.3-6 3.9c.2 1.6 3.3 2.5 6.9 2s6.3-2.3 6-3.9h0z"/><g class="G"><path d="M727 530c5.9 1.7 14.7.3 19.8-3m-23.3 2c-4-1.2-9.7-.9-14.6.6m-152.4-43.5c-15.5 29.7 20.6 54 80.7 54.2 23.8 0 48.9-3.7 71.6-10.7m-152.3-43.5c1.3-2.6-.4-4.9-4.4-6.1m-5-10c-5.1 3.3-4.4 7.4 1.4 9m351.3 179.1h-.1"/><use href="#D" x="718.4" y="205.2"/><path d="M578.6 547.3c0-.3-.4-.5-.9-.6m-25.1 2c-.2.1-.4.2-.5.4m-13.5-134.9l-1.7-.8m541.6-59.6c1-1 .6-2.3-1-2.9m71.7 69.6c1.4-.7 2-1.6 1.9-2.4m-402.6-46.3s-.2.1-.2.2m400.9 48.5c-.6.3-1.1.7-1.2 1.1"/><use href="#E"/><path d="M1140.4 426.4c-1.9 0-3.8.4-5 1.1M624.3 317.4s-.1.2-.2.2m17.6-.8c-1.2-1.2-3.3-2-5.8-2.3m292.4-12.4c-2.6-2.5-8.6-3.2-13.4-1.7-1.1.3-2 .8-2.8 1.3m0 0c-.5.4-1 .7-1.4 1.2m-286.2 17.3c5.4 2.3 13.4 1.7 18-1.3s3.9-7.2-1.4-9.5m-17.4 7.8c2.2 2.6 8.1 3.6 13.1 2.3 1.4-.4 2.6-.9 3.5-1.5"/><path d="M640.3 318c1.6-1 2.4-2.3 2.4-3.6m0 0c0-1.4-1.2-2.7-3.1-3.6M284.1 209.2c1.1-.7 1.6-1.5 1.3-2.1m-.1-.2v.2m269.4 6c-1.7-.6-4.5-.5-7.3.2m-13.4-1.6c.6 2.6 6.6 3.3 13.4 1.7m-13.7-2.9c-.4-.6-1.3-1-2.5-1.1m385.3 85.7c-5.2 1-8.2 4.1-6.5 6.8 1.6 2.7 7.2 4.1 12.4 3.1 3.7-.7 6.3-2.5 6.9-4.5m-173.2-47.1c.5.4 1.2.7 2.1 1m-12.9-3.7c-5.4.7-9 3.5-8.1 6.3s6 4.6 11.4 3.9 9-3.5 8.1-6.3c-.1-.4-.4-.8-.7-1.2m-13.6-3c.8.2 1.8.3 2.8.3m-10.9 6.5c-.4-1.4-2-2.6-4.4-3.2m285 315.4c.8-.5.7-1.2-.2-1.4-.9-.3-2.4 0-3.2.5-.4.3-.6.5-.5.8m0 0c0 .3.5.6 1.1.7m2.4-.4a.76.76 0 0 0 .4-.2"/></g><path d="M1015.7 568.5c0-.6-1.3-1-2.7-.8s-2.4.9-2.4 1.5 1.3 1 2.7.8 2.4-.9 2.4-1.5h0z"/><g class="G"><path d="M1007.9 570.7c.1.2.2.3.4.5m10-1.3c.5-.5.7-1 .6-1.4"/><path d="M1007.6 570.1c0 .5.4.9 1 1.2m9.6-1.4c.5-.5.7-1 .7-1.4"/><path d="M1007.6 570.1c0 .5.5.9 1.1 1.3M385.8 171.9c-3 .5-5.9 1.6-7.9 2.9m0 .1s-.2.1-.3.2m-5 3.1v.2m-.7-2.9c-.5-.5-1.3-.9-2.3-1.2m-21.9 12.3c-3.5-1-8.9-.2-11.9 1.8m-41.2 27.4a22.83 22.83 0 0 0-3.5 1.7m.1 0s-.2.1-.3.2m6.6-8.2c1.7-.3 3.3-.9 4.4-1.6m-14.3 8.2c.4.9 1.9 1.5 4 1.7"/><path d="M304.4 209.4c-1.7-.4-4.2-.4-6.9.1m-11.2 8.6c1-.7 1.5-1.4 1.4-1.9m2 2.8c-3.2.2-6.8 1.3-9.1 2.8m27-17.6c-2.3 1.5-2.7 3.1-1.2 3.9m243.7-14.2c-4-.5-10 .9-13.5 3.2m0 0s-.2.1-.3.2m-234.5 39.5c-1.8-.3-4.6.4-6.2 1.4m2.8-15.4c-1.8-.3-4.6.4-6.2 1.4m14.1 13.3c1.1.2 2.9-.2 3.9-.9m-7.4-13.1c1.1.2 2.9-.2 3.9-.9m244.5-34.2h-.3m-2-12.7c.3-.7-.2-1.2-1.4-1.4m4.3 16.5c0 .2.2.3.5.4"/><path d="M548.5 176.3c-.3.4-.1.7.4.9m16.5 288.9h-.3m-20.8-187.7c-.6.3-.7.7-.3.8m8.6 6.7c2.6-1.3 3.1-2.8 1.2-3.5m-28.1 29.9c2.6-1.3 3.1-2.8 1.2-3.5m-46.8 23.4c1.9.6 5.5 0 8.1-1.2m-112.5-37.2c-2.6 1.3-3.1 2.8-1.2 3.5m37.9-21.8c.6-.3.7-.7.3-.8m-34.3-11.4h-.2m-18.8-2.7c-.6 0-1.4.1-2 .5M319 282.7c2.4.3 6.1-.5 8.2-1.9m-102.4-14.9c-2.1 1.4-1.9 2.8.5 3.1m73.7-48.1c-2.4-.3-6.1.5-8.2 1.9m12.7-1.2c.6 0 1.4-.1 2-.5m38.4-21.6c-2.4-.3-6.1.5-8.2 1.9m12.6-1.3c.6 0 1.4-.1 2-.5m38.4-21.6c-2.4-.3-6.1.5-8.2 1.9m12.7-1.2c.6 0 1.4-.1 2-.5"/><path d="M226.1 267.4c-.9.6-1.3 1.2-1 1.7m152.3-105.2c-1.8-.3-4.6.4-6.2 1.4m2.8-15.4c-1.8-.3-4.6.4-6.2 1.4m-35.3 34.1c-1.8-.3-4.6.4-6.2 1.4m2.8-15.4c-1.8-.3-4.6.4-6.2 1.4M337 186c1.1.2 2.9-.2 3.9-.9m-7.3-13.1c1.1.2 2.9-.2 3.9-.9m72.8-15.2c0-.5-.5-.9-1.5-1m-121.1 51.9c-1.8-.3-4.6.4-6.2 1.4m2.7-15.4c-1.8-.3-4.6.4-6.2 1.4m47.8 5.6c2.4.3 6.1-.5 8.2-1.9m-12.7 1.3c-.6 0-1.4.1-2 .5m-73.4 44.4c2.4.3 6.1-.5 8.2-1.9m-43.5-6.2c-2.1 1.4-1.9 2.8.5 3.1m73.8-48.2c-2.4-.3-6.1.5-8.2 1.9m12.6-1.2c.6 0 1.4-.1 2-.5m38.4-21.6c-2.4-.3-6.1.5-8.2 1.9"/><path d="M334.2 170.1c.6 0 1.4-.1 2-.5m176.1-2.3c-.9-.1-2 0-3.2.1m40.5 7.4c1.1-1.1.5-2.1-1.4-2.4m1.4 2.4c-.2.2-.2.4.1.5m125.5 45.5c2.6-1.3 3.1-2.8 1.2-3.5m-46.8 23.4c1.9.6 5.5 0 8.1-1.2m-20.2-2.8c-.5-.1-1.3 0-1.9.3m-35.8 17.8c-.6.3-.7.7-.3.8m1.5 4.5c2.6-1.3 3.1-2.8 1.2-3.5m-31.3-59c-1.7-.6-4.5-.5-7.3.2m104.8 34.3c.8-1.1.3-2.1-1.3-2.6m1.3 2.6c-.5.8-.7 1.6-.4 2.3m12.8-7.3c-5.3 1-9.9 3.6-10.1 5.8v.2m-97.9-41.8c.3.2.7.3 1.2.4m-11.6-2.4c-5.3 1.2-9.6 3.8-9.5 5.9s4.6 2.8 9.9 1.7c5.1-1.1 9.3-3.6 9.5-5.7m-13.7-1.7c1 .2 2.4 0 3.8-.2M385 166.8c-5.3.9-10.1 3.4-10.7 5.6-.5 1.9 2.3 3.1 6.7 2.7"/><path d="M381.9 166.9c.8.1 1.9 0 3 0m-10.9-1.2c-1-.1-2.1-.1-3.3 0m.8 7.3c.2-1.1-.8-1.9-2.7-2.2m2.7 2.2c-.5 2.2 2.6 3.6 7.5 3.4m151.2 19.2c0-.9-1-1.6-2.8-1.9m2.8 1.9c0 2.7 5.5 3.8 12.4 2.4.3 0 .7-.1 1-.2m212.3 60c-2.6-2.5-8.6-3.2-13.4-1.7-1.1.3-2 .8-2.8 1.3m-.1 0c-.5.4-1 .7-1.4 1.2m-171 207.2c.4-.3.7-.6.6-.9m.1 0c0-.6-1.2-.9-2.4-.7-.6 0-1.2.3-1.5.5m2.9 1.2c.1 0 .2-.1.3-.2m-2.6.6h.2m-.9-1.5c-.8.5-.7 1.2.2 1.4h.4m3-.5c.6-.4.8-.9.4-1.3m-1.6-.4c-1.4 0-2.7.5-3.1 1.2v.4"/><path d="M563.1 465.5c0 .6 1.3 1 2.7.8.7 0 1.3-.3 1.7-.6m-7.2 1.3c.1.2.3.4.5.6m10.1-1.5c.2-.2.3-.5.4-.7m-.9 1c.4-.3.7-.7.8-1.1m-11.1 1.1c0 .6.6 1 1.4 1.4m8.7-1.2c.5-.4.9-.8 1-1.2"/><path d="M560.1 466.5c.1.6.7 1 1.6 1.4m1.9-4.7c-2.6.8-3.9 2.4-2.7 3.5 1.1 1.1 4.2 1.3 6.8.5.7-.2 1.4-.5 1.9-.9m0 0c.5-.3.9-.7 1.1-1.1m-23.6 5c-2.4 1.5-3.6 3.3-3.4 5m12.8 11.2a3.19 3.19 0 0 0 .4-2.1m-.4 2.1c-3 5.7-4.1 11.4-3.3 16.8m194.4 12.6c-3 1.1-4.2 3-2.6 4.2s5.3 1.3 8.3.2c.7-.2 1.3-.5 1.8-.9m0 0c.5-.3.9-.7 1.2-1.1"/><path d="M562.8 463c-3 1.1-4.2 3-2.6 4.2s5.3 1.3 8.3.2c.7-.2 1.3-.5 1.8-.9m0 0c.5-.3.9-.7 1.2-1.1m-76.4-60.3s0 .2.1.2m2.2 2h.2m425.9 263c2-.4 3.9-1 5.3-1.8m-16.5 1.6c3 .9 7.3 1 11.2.2M567.2 543c-1.6-.5-4.1-.3-5.5.4m17.2 5c1.4-.7 1.3-1.7-.4-2.1m-10.4 7.4c.3 0 .5-.2.8-.3m-17.2-5c-.2.1-.4.2-.6.4M480.3 413c0 .2.2.3.5.4m14.9 2.5c1.7.5 3.3.3 4.6-.5m0 0c1.1-.7 1.9-2 2.2-3.6"/><path d="M502.5 411.8c.4-2.3-.1-5.2-1.6-8m-14.5-4.1c-1.4 4.1 1 10.4 5.4 14 1.3 1.1 2.6 1.8 4 2.2m-15-2.5c0 .4.3.7.5.8m61.2 16.8c0 .4.3.7.5.8m-75-25.1c.4 2.8 2.6 5.5 5 6.2m-15.3-1.1c.6 3.9 3.7 7.7 7 8.7m148-106.1c-2.2-.6-5 0-6.1 1.2m5.5-14.4c-2.2-.6-5 0-6.1 1.2m-79 9.1c0-.4-.3-.7-.9-.8m54.4 28c1.4.4 3.1 0 3.8-.7m-4.4-12.5c1.4.4 3.1 0 3.8-.7m-42.5 117.6c3.3.9 5.5-1.4 4.9-5.3M374.6 148c-2.4-.3-6.1.5-8.2 1.9m43.5 6.3c2.1-1.4 1.9-2.8-.5-3.1m-38.7 25.2c2.4.3 6.1-.5 8.2-1.9m-12.7 1.3c-.6 0-1.4.1-2 .5M272.4 380v.3m779.8 218.5c-1 .5-1.8 2.1-1.7 3.5v.3m11.3-1.1c-1 .5-1.8 2.1-1.7 3.5v.3m-161-46.3c3.5 1 8.9.6 12-1M780.5 411.6c-2.1 1.4-1.8 3.4.7 4.4m29.5-24.1c.5-.3.4-.8-.2-1.1m112.2 111.5c1.2.5 3 .4 4-.3m-195-80.1c-.4-.2-.9-.3-1.4-.5m-9.5-192.1c-2.9-.7-6.5 0-8.1 1.5m146.1 33.8h.4m3.3.5l-1.5-.3"/><path d="M910.2 277.3l-1-.3m49.7 21.6c-.3-.6-1-1.2-1.9-1.6m1.9 1.6c0 .1.2.3.5.4m119.6 54.5c2.1-1.4 1.8-3.4-.7-4.4m-29.5 24.2c-.5.3-.4.8.2 1.1m5.3 6.3c2.1-1.4 1.8-3.4-.7-4.4m-29.6 24.2c-.5.3-.4.8.2 1.1m5.3 6.3c2.1-1.4 1.8-3.4-.7-4.4m-29.6 24.2c-.5.3-.4.8.2 1.1m5.3 6.3c2.1-1.4 1.8-3.4-.7-4.4M965.3 456c2.5 1.1 6.3.8 8.4-.6m-33.5-10c-.6-.3-1.5-.2-2 .1m-38.7 20.4c2.5 1.1 6.3.8 8.4-.6m-448.2-74.1c-3.6-1-6.1 1.6-5.4 5.9m89.7 25.6c-.6-4.3-4.1-8.6-7.7-9.6m4.4 30.4c3.6 1 6.1-1.6 5.4-5.9M456.5 412c.6 4.3 4.1 8.6 7.7 9.6m430.4 106.8c3.6 1.5 9 1.1 12-.9m2.8-4.1c1.2.5 3 .4 4-.3M638.3 409.3c-.4-.2-.9-.3-1.4-.5m367.3 26.6c1-1 .6-2.3-1-2.9m-5.1-4c-.9.7-.7 1.6.4 2"/><use href="#E" x="-93.9" y="46.9"/><path d="M1046.5 473.3c-1.3 0-2.6.2-3.8.6m12.8-6.5c-.7.4-1.2.8-1.4 1.2"/><use href="#E" x="-75.1" y="37.5"/><path d="M1065.3 463.9c-1.9 0-3.8.4-5 1.1m-31.3-56.8c1-1 .6-2.3-1-2.9m-246.4 8c-1.2.8-1.4 1.9-.5 2.8m293.1 41.9c-.7.4-1.2.8-1.4 1.2m-49.9-57.9c-.9.7-.7 1.6.4 2"/><use href="#E" x="-56.3" y="28.1"/><path d="M1084.1 454.5c-1.9 0-3.8.4-5 1.1m13.9-7c-.7.4-1.2.8-1.4 1.2m20.2-10.6c-.7.4-1.2.8-1.4 1.2m-56.6-59.4c1-1 .6-2.3-1-2.9m-240.4 28.6c.5-.3.7-.7.7-1m-1.3-12.2c.9-.6.9-1.4 0-1.9m-30.9-13.3h-.2m-29.4-7.5c-.7-.2-1.5 0-1.9.4m-30.3 23.9c2.9.7 6.5 0 8.1-1.5m-194.7-49.9c-1.6 1.6-.5 3.5 2.4 4.2m28.4-28.7c-2.9-.7-6.5 0-8.1 1.5m25.4 2.9c.7.2 1.5 0 1.9-.4m30.3-23.9c-2.9-.7-6.5 0-8.1 1.5m24.1 2.6c.7.2 1.5 0 1.9-.4m21.7-21.8c.4-.4.1-.8-.6-1m-9.4-6c-1.6 1.6-.5 3.5 2.4 4.2m28.4-28.7c-2.9-.7-6.5 0-8.1 1.5m23.5 2.4c.7.2 1.5 0 1.9-.4m357.2 120.9c-.9.7-.7 1.6.4 2"/><use href="#E" x="-18.8" y="9.4"/><path d="M1121.6 435.8c-1.9 0-3.8.4-5 1.1m14-7.1c-.7.4-1.2.8-1.4 1.2m-377 87.5c.8-.5.7-1.2-.2-1.4-.9-.3-2.4 0-3.2.5-.4.3-.6.5-.5.8m-.1 0c0 .3.5.6 1.1.7m2.5-.4a.76.76 0 0 0 .4-.2m-1.1-1.7c-.9 0-1.9.3-2.6.7"/><path d="M748.5,517.4c-.9.6-.8,1.3.3,1.6s2.7,0,3.6-.5c.4-.3.7-.6.6-.9"/><path d="M753 517.6c0-.1 0-.3-.2-.4m-7.6 2.6c.1.2.3.4.5.6m9.5-1.2c.4-.3.7-.7.8-1.1"/><path d="M744.9 519.2c0 .6.6 1 1.4 1.4m8.7-1.2c.5-.4.9-.8 1-1.2"/><path d="M744.9 519.2c0 .6.6 1.1 1.6 1.5m0-3.9c-.9.6-1.3 1.3-1.3 1.9m.1 0c.2 1.3 2.7 2 5.5 1.6 2.2-.3 4.1-1.3 4.7-2.3m-7.1-2c-.7.2-1.4.5-1.9.9m169.4-6.1c1.2.5 3 .4 4-.3m3.1-4.3c1.2.5 3 .4 4-.3m-242-92.2c-.4-.2-.9-.3-1.4-.5m225.5 106.2c1.2.5 3 .4 4-.3m3.2-4.3c1.2.5 3 .4 4-.3m-235.4-97c-.4-.2-.9-.3-1.4-.5m-45.2-11.5c-.4-.2-.9-.3-1.4-.5M120.5 296.3c0 .3.4.5.9.6m-7 2.9c-3 2-2.7 4 .7 4.5m257.7 29c-.3-.1-.7-.2-1.2-.3M117 334.3c.1.9 1.2 1.6 2.9 2.1m523.8-60.7c-.7.8-.7 1.6 0 2.3m10.6 17.9c.2-.2.4-.5.3-.8m-.9-12.4c.6-.6.4-1.2-.3-1.7"/><path d="M909.9 292.4c-.2-.1-.5-.2-.8-.3m.2-13c-.2-.1-.5-.2-.8-.3m-354.6 6.3c0-.4-.3-.7-.9-.8m305.7-4.6c.2 0 .5.1.7.1m-1.3-13.3c.2 0 .5.1.7.1m3.7 13.6c-.4 0-.8-.2-1.2-.2m.6-13c-.4 0-.8-.2-1.2-.2m-317.9 13.3c-.3.4-.1.7.4.9m-415.9 6.7c0 .3.4.5.9.6m-7.3 3.2c-1 .7-.9 1.3.2 1.5m220.3 26.2c-.3-.1-.7-.2-1.2-.3m348.4-50.2c1.4.4 3.1 0 3.8-.7m-320.2 61.4c-.3-.1-.7-.2-1.2-.3m317-73.6c1.4.4 3.1 0 3.8-.7m-18.6 10c-2.2-.6-5 0-6.1 1.2m5.5-14.4c-2.2-.6-5 0-6.1 1.2m-84.2 6.5c0-.4-.3-.7-.9-.8m138.8-27.3c-2.2-.6-5 0-6.1 1.2m-135.8 24.2c-.3.4-.1.7.4.9m142.1-13.1c-2.2-.6-5 0-6.1 1.2m-580.6 33.5c0 .3.4.5.9.6m-7.3 3.2c-1 .7-.9 1.3.2 1.5M310 305.1c-.3-.1-.7-.2-1.2-.3m31.9 10.5c-.3-.1-.7-.2-1.2-.3m37.4-19.7c-1.4.7-2.1 1.6-1.7 2.2M676.5 220c0-.4-.3-.7-.9-.8m-258.7 71.9c.8-.4 1.2-.9 1.1-1.2m-4.5-12.9c1.1-.6 1.5-1.2.8-1.6M351.1 216c1.1.2 2.9-.2 3.9-.9m-7.3-13.1c1.1.2 2.9-.2 3.9-.9M212 237.4c-.9.6-1.3 1.2-1 1.7m300.2-55.8h1.5m-5-14h1.5m5.9 13.9h-2.4m-1-14.1h-2.4m54.2 294.1c-.3.1-.7.2-1 .4-.3.1-.6.3-.9.5s-.5.3-.7.5-.4.4-.5.6l-.3.6v.8"/><use href="#F"/><path d="M489.2 401.8v1.9"/><use href="#F" x="31.9" y="9.1"/><path d="M521.1 410.9v1.9m488 155h-.1"/><use href="#G"/><path d="M1018.9 568.5c0-.2 0-.4-.2-.6-.1-.2-.2-.3-.4-.5s-.4-.3-.6-.4-.5-.2-.8-.3c-.3 0-.6-.2-.9-.2s-.7 0-1-.1h-1.1c-.4 0-.8 0-1.1.1h-.2m-.1 0c-.3 0-.6.1-.9.2-.4 0-.7.2-1 .3s-.7.3-.9.4c-.2 0-.3.2-.4.3m-.1 0l-.1.1m-262.8-50.9l-.1.1"/><use href="#G" x="-262.8" y="-50.8"/><path d="M748.3 516c-.2 0-.3.1-.5.2-.3.1-.7.3-.9.4-.2 0-.3.2-.4.3m-.1-.1l-.1.1m3.7.6v-.2"/><path d="M751.7 517.4c-.3 0-.6.1-.9.1h-.9m1.8-.4v.2m-2.1 1.9l.3-.3"/><path d="M749.7 517.5v-.1c0-.1 0 0-.1-.1m-221.5-99.9c.4-.2.7-.4 1-.5l.8-.3"/><path d="M528.1 417.4v.1m1.6-.6v-.2m-4.5-4.4h-.2m2-.8c-.2 0-.4.2-.7.3s-.6.3-1 .5"/><path d="M526.8 411.5h.2m-.1.1v.3.3.4.4.1.1.1.3m.4.6c.1 0 .2.2.3.2s.2.2.3.2l.6.6m1-1.3v.3.3.3.3.1.1.3m.3 1.3h-.2-.2-.2s-.2 0-.2.1m-1.4.5s.1.1.2.1h.2"/><use href="#H"/><path d="M525.3 415.2v-.3-.9m-.2-1.7s-.1 0-.2.1v.2m.2-.3s.2 0 .2-.1h.6"/><use href="#I"/><path d="M1012.7 568.4v-.2"/><path d="M1014.5 568.3c-.3 0-.6.1-.9.1h-.9"/><path d="M1014.4 568v.2M493.8 406.3c.5.3.9.6 1.2.9s.7.6 1 1m-2.7-4.8h-.2m.2 0v-.1m0-.1h0m4.3 3.9v.1m.4 0a.76.76 0 0 0-.4.2m-1.4.9c.4-.2.7-.4 1-.5l.8-.3"/><path d="M496.2 408.3v.1m1.7-.7v-.2m-4.5-4.3h-.2m1.9-.8c-.2 0-.4.2-.7.3s-.6.3-1 .5"/><path d="M494.9 402.4h.2"/><path d="M495 402.4v.3.3.4.4.1.1.1.3m.4.7c.1 0 .2.2.3.2s.2.2.3.2l.6.6m1-1.3v.3.3.3.3.1.1.3m.3 1.2h-.2-.2-.2s-.2 0-.2.1m-1.3.6s.1.1.2.1h.2"/><use href="#H" x="-31.8" y="-9.1"/><path d="M493.4 406.1v-.3-.9m-.2-1.8s-.1 0-.1.1v.2m.1-.3s.2 0 .2-.1h.6"/><use href="#I" x="-31.9" y="-9.1"/><path d="M527 414.3h.3m2.2 1.9h0m-1.4 1.2h-.1m-1-3.1v-1.4c0-.4-.2-.8-.4-1.2m2.7 4.7l-.9-1.1c-.3-.3-.8-.6-1.2-.8m-1.6.7h-.3"/><path d="M525.2 412.5c.2.4.3.8.3 1.3v1.4m.2.2v.2m2.2 1.7s-.2 0-.2.2"/><path d="M525.7 415.4c.5.3.9.6 1.2.9s.7.6 1 1m-2.7-4.8h-.2m.2 0v-.1m0-.1h0m4.3 3.9v.1m.4 0a.76.76 0 0 0-.4.2M923 667l-.7-1.8M143.9 456l.9-1.8m-.6 5.7c-1.1-.3-1.8-.8-1.9-1.4"/><path d="M142 454.5l.3 3.9"/><path d="M143.9,456c-1.1-.3-1.8-.8-1.9-1.4,0-.3,0-.7.4-1"/><path d="M143.6 452.4l-1.2 1.2m15.4-6.8l-1.2 1.3m422 99.2c0 .3.1.5.2.8m433.6 22l.3-.3"/><path d="M1012.5 568.4v-.1l-.1-.1m.1.2c-.2.2-.4.3-.6.5l-.6.3"/><path d="M1011.3 569.2v-.2m3.5-.9v.2"/><path d="M1015.3 569.1s-.2-.1-.3-.3c0-.1-.2-.3-.3-.4"/><path d="M1015.3 568.8v.2m-4.1.3v-.1h-.1m1.2.8h-.2m.7-1.9h0"/><path d="M1012.8 568.1h.3"/><use href="#J"/><path d="M566.8 464.3v.2m-1.6-.1v.2"/><path d="M565.1 464.7h.9c.3 0 .6 0 .9-.1m-2.2-.1l.1.1v.1"/><path d="M563.7 465.5c.2 0 .4-.2.6-.3s.4-.3.6-.5m-1.3.5v.2m3.6-.9v.2"/><path d="M567.1,464.7c.1.2.2.3.3.5,0,.1.2.2.3.3"/><path d="M567.7 465.4v-.2m-4.2.3h.1c.1 0 0 0 0 .1m3.2-1.3h-.1-.5m.6 1.7h.2m-2.3-1.5h-.2"/><path d="M567.3 465.7s-.1 0-.2.1c-.2 0-.3.2-.5.2s-.4.1-.7.2h-1m-69.8-61.1h.3m-.2.3h0m1 2.9h-.1m-1-3.2v-1.4c0-.4-.2-.8-.4-1.2m2.7 4.8l-.9-1.1c-.3-.3-.8-.6-1.2-.8m-1.6.7h-.3m-.1-2.7c.2.4.3.8.3 1.3v1.4m.2.2v.2"/><path d="M496 408.2s-.2 0-.2.2m-351.4 43.5c-.4.2-.6.4-.8.6s-.3.4-.2.7c0 .2.2.4.4.6s.6.3 1 .5m782.3 226.3c-1 .5-2.4.8-3.9 1-1.5.1-3 0-4.1-.3"/><path d="M926.9 676.7l-1.2-1.6"/><path d="M919.7 675.6c.4.1.9.2 1.4.2h1.6a4.53 4.53 0 0 0 1.6-.3c.5-.1 1-.3 1.4-.5m-6.8 2.4l.8-1.8m7.2 1.1c-1 .5-2.4.8-3.9 1-1.5.1-3 0-4.1-.3m255.4-128.5l-.3-5.2m3.7 12.8c0 1.4-1.2 2.8-3.5 4"/><path d="M1177.7 556.5l-.6-7.8m-6-1.8c2-1 3-2.2 2.8-3.4-.2-1.1-1.6-2.2-3.8-2.8m1.4 11.4c1.9-.9 2.9-2.1 2.8-3.2"/><path d="M1173.6 552.7c2.5-1.2 3.8-2.8 3.5-4.2-.2-1.1-1.2-2.1-3-2.9m-820-360.9v-.2m395.6 333c-.2.2-.4.3-.6.5l-.6.3"/><path d="M748.6 518.3v-.2m3.5-.8v.2"/><path d="M752.5 518.2s-.2-.1-.3-.3c0-.1-.2-.3-.3-.4m.7.4v.2m-4.1.3v-.1h-.1m1.1.8h-.2m-.4-.2h0"/><path d="M748.4 518h0m1.6-.8h0"/><path d="M750 517.2h.1.3"/><use href="#J" x="-262.7" y="-50.9"/><use href="#E" x="-37.6" y="18.7"/><path d="M1102.8,445.1c-1.9,0-3.8.4-5,1.1"/></g></g><circle cx="493" cy="578.5" r="12" fill="#1490ed"/><path d="M495.6 577.7c.4.3.7.7.9 1.1a3.08 3.08 0 0 1 .3 1.3c0 .4 0 .8-.2 1.1-.2.4-.4.7-.7 1s-.7.6-1.3.7c-.5.2-1.1.3-1.8.3a4.99 4.99 0 0 1-2.1-.5c-.6-.3-1.1-.8-1.5-1.3-.1-.2-.2-.4-.1-.7 0-.2.2-.4.4-.5s.4-.2.7-.1.4.2.6.4a2.36 2.36 0 0 0 .9.8c.4.2.8.3 1.2.3.7 0 1.3-.1 1.7-.4s.6-.6.6-1-.2-.7-.6-1-.9-.4-1.6-.4h0c-.2 0-.5 0-.6-.3-.2-.2-.3-.4-.3-.6s0-.4.3-.6c.2-.2.4-.3.6-.3.5 0 .9-.1 1.2-.3s.5-.4.6-.7v-.6c0-.2-.2-.4-.3-.6-.2-.2-.4-.3-.6-.4-.3-.1-.5-.2-.9-.2s-.8 0-1.1.3c-.3.2-.5.5-.7.8-.1.2-.3.3-.5.4h-.7c-.2-.1-.3-.3-.4-.5s0-.5 0-.7c.4-.6.8-1.1 1.3-1.4s1.2-.5 2-.5 1.1 0 1.5.3c.4.2.8.4 1.1.7s.5.6.7 1 .3.7.3 1.1 0 .8-.2 1.2c-.1.4-.3.7-.6 1z" fill="#fff"/><path d="M164.8 416.5l5.8-5.7 13.5 13.5 13.5-13.5 5.7 5.7-19.2 19.2-19.3-19.2zm0-38.5l5.8-5.7 13.5 13.5 13.5-13.5 5.7 5.7-19.2 19.3-19.3-19.3zm718.5 242.7l5.7-5.7 13.5 13.5L916 615l5.7 5.7-19.2 19.3-19.2-19.3zm0-38.4l5.7-5.8 13.5 13.5 13.5-13.5 5.7 5.8-19.2 19.2-19.2-19.2z" fill="#1490ed"/><defs ><path id="B" d="M188.1 450.7c-.2-1-2.1-1.6-4.3-1.3s-3.9 1.4-3.8 2.5c.2 1 2.1 1.6 4.3 1.3s3.9-1.4 3.8-2.5h0z"/><path id="C" d="M898.4 657.1c.2 1 2.1 1.6 4.3 1.3s3.9-1.4 3.8-2.5c-.2-1-2.1-1.6-4.3-1.3s-3.9 1.4-3.8 2.5h0z"/><path id="D" d="M187.3 452.1c-1.6-.5-4.2-.2-5.8.7h-.1"/><path id="E" d="M1140.4 426.4c3.9 0 7.4-1.4 7.7-2.9v-.4"/><path id="F" d="M489.2 403.7c0 .2 0 .4.1.7 0 .4.2.9.4 1.3.1.4.3.9.5 1.3s.4.8.7 1.2c.2.4.5.8.8 1.2s.6.7.9 1 .7.6 1 .9.7.5 1.1.8l1.1.6c.2 0 .3.1.5.2"/><path id="G" d="M1009 567.8s-.2.1-.3.2l-.6.6c-.1.2-.3.4-.3.6s-.1.4-.1.6v.2"/><path id="H" d="M527.6 417.5l-.2-.2s-.2-.2-.3-.2c0 0-.2-.2-.3-.2 0 0-.2-.1-.3-.2h-.1-.3"/><path id="I" d="M527.2 411.6a1.44 1.44 0 0 0 .6.4s.2.2.3.2l.2.2"/><path id="J" d="M1015 569.3c-.1 0-.3.2-.4.2-.2 0-.4.1-.6.2-.2 0-.4.1-.7.1h-1.1"/></defs></svg>