<svg xmlns="http://www.w3.org/2000/svg" viewBox="0 0 1303.94 850.39" xmlns:v="https://vecta.io/nano"><style><![CDATA[.B{stroke-linejoin:round}.C{stroke-width:.5}.D{stroke-linecap:round}.E{fill:#1490ed}]]></style><g fill="none" stroke="#000" class="B C"><g class="D"><path d="M369.23 125.98l376.48 54.46M353.8 131.09l3.67-2.41m796.06 236.94l-1.86-12.57m-3.82 18.3l3.68-2.4"/><path d="M1151.53 368.95l-1.86-12.57m-1.82 14.97l-.1-.05m.1.05l-1.85-12.57M353.8 131.09l382.71 55.35M1146 358.78l3.67-2.4M745.71 180.44l402.97 169.59M736.51 186.44l9.2-6m-9.2 6L1146 358.78M751.9 518.66l-.19-1.24m-1.73.05l.2 1.41m-.26.07l-.21-1.41M534.02 416.05l-.01-.07m-1.77 5.57h0"/><path d="M532.23 421.56l.01-.01m-137.1-243.33l30.25-19.76m8.2-1.9l74.76 10.82M308.17 300.89L134.71 275.8m284.06 61.38l-109.45-36.03m44.48-170.06L134.48 274.31m399.31 70.92l.1 2.35m-73.5 43.99l-.66-.39m77.18 22.25l-76.52-21.86"/><path d="M533.79 345.23l-1.3-1.52m13.61 93.38l-2.18-14.77m2.18 14.77l.09.54m-7.7-23.04l-76.52-21.86m83.72 43.03l-2.21-14.97m-77.83-3.12l76.52 21.87m-83.71-43.04l2.21 14.97m-3.91-15.45l2.21 14.96m6.98 8.69l76.52 21.86m1.48-19.08l.03.21m358.4-124.52l-142.52-36.48m302.74 102.57l-134.76-56.71m.65 14.65l120.72 50.81M760.5 276.32l142.53 36.47m-203.45-52.07l31.05 7.95m-76.39 17.24l28.6-18.67m-57.73 67.61l-26.55-11.18m-46.12 28.73l22.96-14.99m-31.41 94.31l-2.09-14.19m-66.19-20.88l2.39 16.24m536.54 156.67l-.18-1.24m-1.74.04l.21 1.41M497.61 407.35l-1.4.92m5.93-1.33l-.01-.07m-23.67-9.43l2.36 15.95m0 0L542.46 431"/><path d="M542.46 431l-2.3-15.55m-14.59-.28l1.4-.92m-1-2.28l-.8.52m2.71 4.83l1.4-.92m-2.17-1.9l-1.41.91m3.79 1.05l-1.4.92m602.48 12.46l4.79-2.4m0 0l-6.46-43.82M911.91 667.3L160.3 452.58"/><path d="M161.04 450.73l-.74 1.85m767.92 212.05l.58 3.93m-.58-3.93l-1.24-1.55M161.04 450.73l751.6 214.72m14.34-2.37l7.35-4.81m0 0L167.85 439.3"/><path d="M167.85 439.3l-7.36 4.8m762.5 222.89l.49 3.35m-11.16-.22l-.41-2.82"/><path d="M911.91 667.3l.73-1.85m146.78-50.97l-132.29 66.15m132.29-66.15l-.55-3.76m-139.75 70.57L144.18 459.9m-.26-3.91l.26 3.91"/><path d="M1057.62 609.16l1.25 1.56m0 0l-132.01 66m-8 .66L143.92 455.99"/><path d="M937.25 664.33l-8.45 4.23m-640.09-475.1l-4.47-.64"/><path d="M284.24 192.82l3.44 14.02m8.37-.25l30.25-19.76m-3.43-14.03l3.43 14.03"/><path d="M322.87 172.8l-30.26 19.76m-3.29-.97l-.61 1.87m2.56-2.32l1.34 1.42m0 0l3.44 14.03m-7.34-13.13l3.43 14.03m96.58-29.47l-.61 1.88m37.28-21.44l1.35 1.42m-30.73 34.69l-4.46-.65m1.03-13.38l-4.47-.64"/><path d="M388.11 179.9l3.44 14.02m38.62-20.01l-30.25 19.76m26.82-33.79l3.43 14.03"/><path d="M426.74 159.88l-30.26 19.76m-3.29-.97l-.61 1.87m2.56-2.32l1.34 1.42m0 0l3.44 14.03m-7.34-13.13l3.43 14.03m-52.15 4.91l-.61 1.87m310.48 81.35l.58 13.21M454.28 397.03l1.19-.17M653.73 282.7l-1.3-1.52m1.3 1.52l-21.69 21.88m0 0l.59 13.21m-.59-13.21l-1.29-1.52m-18.02 11.35l16.06 4.11"/><path d="M628.2 305.3l.59 13.22m-16.64-17.33l.58 13.22"/><path d="M628.2 305.3l.63-1.88m-16.68-2.23l.62-1.88m15.43 5.99l-16.05-4.11m345.39-1.16l.59 13.22m-48.26-20.89l46.81 19.7"/><path d="M956.68 312.06l-.59-13.22m-46.8-19.69l.58 13.21m48.99 6.24l-1.32 1.43m-47.39-22.69l-.86 1.81m46.8 19.69l-46.8-19.69"/><path d="M956.96 297.04l-.87 1.8m-371.73 39.15l22.23-22.42"/><path d="M606 302.36l.59 13.21m-.59-13.21l-1.3-1.52m-104.34 111.6h0m-.02.01l.02-.01m-341.57 33.03l-1.06 1.1m-1.29 2.86l.46 3.13m390.17 17.42l.03.25m9.85 14.01l-.03-.25m10.24 58.99l-.04.66m-5.45-.21l.14.7"/><path d="M558.07 546l4.57-2.29m3.67-.3l5.2 1.49m0 0l-6.28 3.14m6.28-3.14l.27.76m-6.55 2.38l-7.16-2.04m0 0l-.13.63m7.29 1.41l.05.74m13.48-.74l-.2-.77m-.43.67l.4.6m-18.25 2.87l.06-.03m10.83-5.41l.61-.31m-7.34 3l.68.2m3.86 1.36l2.48-3.81m-2.95 3.91l.47-.1m-2.01 3.1l1.7-2.62m9.64-2.49l.46-.1m-22.23-61.75l-.04-.25m587.55 72.14l-3.18-21.56m-89.63 70.64v.01m-79.12 39.56l168.75-110.21"/><path d="M1021.83 502.68l119.04 34.01m-381.73-17.64l-12.27 8.01m-19.82 2.97l-3.59-1.02m-171.37-48.96l-3.59-1.03m-1.43-9.04l12.27-8.01m-284.45-81.26l-71.38 46.61m733.74 237.01l-.75-5.11M160.3 452.58l.42 2.81m773.61 202.88l2.17.95m0 0l-8.28 5.41M578.54 546.24l-.04.83m-26.83 1.36l.11.55m19.33-3.11l.35.54m-1.16 2.67l2.49-3.82m0 0l4.9 1.4m.88.64l-8.27 1.78m0 0l-.1.57m-17.56-.94l4.57-2.29m0 0l7.16 2.05m0 0l-5.23 2.61m5.23-2.61l.23.65"/><path d="M560.43 551.2l10.68-5.33m0 0l-2.3 3.53m0 0l-8.38 1.8m0 0l-.11.22m8.49-2.02l.17.82m8.94-2.14l.15.69m-10.44 4.42l2.26-3.48m8.03-1.63l-9.98 4.99"/><path d="M578.13 547.94l-.21.14m-8.03 1.63l8.24-1.77m-10.19 5.13l-.31.12m0 0l-.07.3m.38-.42l.1.56m.36-3.6l.27.67m-7.66.92l7.39-1.59m0 0l-2.03 3.12m12.13-6.08l-.07-.02m-5.74-1.64l-1.11-.32m-13.54 1.06l-.66.32m-20.47-133.04l-.66-.39m422.78-99.05l109.77 46.19m8.7-9.3l.15 3.52m-119.2-53.62l.58 13.21m192.1 104.12l-6.6-44.7m-185.21-74.43l-.87 1.8"/><path d="M1077.5 350.88l-119.05-50.1m119.91 48.3l-.86 1.8m-327.96 20.13l-1.08.78m394 2.97l6.75 45.76m-1.05 2.49l-6.99-47.4m-7.53 4.92l6.76 45.84M906.75 301.36l.65 14.65m14.39 5.34l-.64-14.65m-296.04 28.15l-.64-14.65m21.66 8.68l-.64-14.65m-35.27-.03l14.25 6m278.56-7.41l-.65-14.65m-142.52-36.48l.64 14.66m-2.32-22.36l.02.44M478.1 412.89l2.02-1.32M284.07 209.16l-50.77 33.15m321.42-29.18l81.54 26.98M404.1 190.93l127.09 18.39m-47.9 205.39l-1.17.76m61.21 17.49l.68-.44m383.83-125l.65 14.65M758.2 254.4l156.9 40.16m-196.83-50.38l24.18 6.19m-12.47 3.64l-18.95-4.84m301.63 320.68l-.2-1.41m-1.16.75l.05.35m3.32-1.16l.15 1.03m4.04-.98v-.02m-11.22 1.65l.01.03m-633.98-405.8l.35 1.42m-7.36 4.8l.78 3.17m14.5-6.83l-.57-2.35m-11.79 9.79l-.85-3.48m-21.06 15.78l.5 2.06m23.31-14.82l1.08 4.4m20.54-11.08l-.24-.98m-8.31-1.21l.44 1.8m-34.77 20.55l-2.55-.72m21.91-12.3l-2.14-.61m-59.85 30.47l.66 2.72m29.25-11.25l-1.77-7.27m0 0l4.17-2.72m-39.07 17.83l1.08 4.4m-14.28 8.28l-2.18-8.93m12.1 2.29l-.82-3.36m10.86-1.99l-5.68 3.71m236.67-18.35l-.75-3.07"/><path d="M531.19 209.32l-3.81-15.56m2.83 2.33l3.81 15.56m-235.03 9.28l-.61 1.88m37.28-21.44l1.34 1.43m-30.72 34.68l-4.47-.65m1.04-13.38l-4.47-.64"/><path d="M298.38 222.81l3.43 14.02m38.63-20.01l-30.26 19.76M337 202.8l3.44 14.02"/><path d="M337 202.8l-30.25 19.75m-3.3-.97l-.6 1.87m2.56-2.32l1.34 1.42m0 0l3.43 14.03m-7.33-13.13l3.43 14.03m-47.91 20.21l6.12.89m247.83-91.33l-.61 1.88m39.27 19.21l-35.83-5.18"/><path d="M547.54 174.31l-35.83-5.18m0 0l3.44 14.03m-381.36 92.05l.31 3.93m416.88-90.8l-3.44-14.03"/><path d="M547.54 174.31l.61-1.87m1.36 2.44l-.99 1.38m-.14.48l3.43 14.02m-424.82 93.03l.31 3.92m-7.11 4.65l.31 3.93m446.39 168.33l.18 1.23m-1.71.23l-.21-1.41m-.27.07l.21 1.41m-1.31-.3l-.05-.35m3.52.21l-.15-1.03m-23.07-185.49l9.78 3.24m-1.24 3.47l-37.76 18.86m0 0l12.15 4.02m-1.24 3.48l-37.54 18.75m-8.12 1.2l-105.57-34.94"/><path d="M375.73 293.8l36.65-18.31m.3-.82l-34.31-11.36m-.2-.04l-18.73-2.71m-1.95.45l-30.25 19.75m-8.2 1.9l-93.8-13.57m-.47-3.15l66.02-43.11m8.2-1.9l4.46.65m1.96-.45l30.25-19.76m8.2-1.89l4.46.64m1.95-.45l30.25-19.75m8.2-1.9l4.47.65"/><path d="M226.12 267.37l.46 1.92m-1.81-3.35l1.35 1.43m126.26-89.73l1.69 6.92m14.4-6.54l-2.3-9.38m-36.45.85l-.61 1.87m37.28-21.44l1.34 1.43m-35.19 34.04l4.47.64m-3.43-14.02l-4.47-.65m0 0l3.43 14.03m8.37-.26l30.26-19.76"/><path d="M367.73 151.35l3.44 14.02m-3.44-14.02l-30.25 19.75m-3.3-.97l-.6 1.88m2.56-2.33l1.34 1.42m0 0l3.43 14.03m-7.33-13.12l3.43 14.02m37.58-38l-.61 1.87m3.43 14.03l16.88 2.44"/><path d="M408.77 154.94l-34.79-5.04m0 0l3.43 14.03m31.36-8.99l.42 1.7"/><path d="M408.77 154.94l.61-1.88m-124.53 37.88l-.61 1.88m37.28-21.44l1.35 1.42m-35.19 34.04l4.46.65m72.11-29.34L334 197.9m-8.2 1.9l-4.46-.65m-1.96.45l-65.28 42.64m-8.2 1.89l-34.79-5.03m-.48-3.15l66.02-43.11"/><path d="M284.85 190.94l4.47.65m1.95-.45l30.25-19.76m8.2-1.89l4.46.64m1.96-.45l30.25-19.76m145.93 17.33l35.83 5.19m1.56 2.9l126.76 41.95m-1.24 3.48l-37.54 18.74m-8.12 1.2l-12.12-4.01m-1.93.29l-35.76 17.86m-.3.82l2.76.92m-1.24 3.47l-36.65 18.3m-2.5-91.34l.56 2.25m5 24.06l-3.81-15.56m-257.33 20.31l-5.68 3.71"/><path d="M286.25 218.08l-2.18-8.92m-2.83 15.36l-.67-2.73m270.35-24.21l3.8 15.55M648 232.88l-.85-3.46m.78 4.62l.08.32m-.86-4.94l-96.23-31.84m-12.34-8.07l-108.31-15.66m-48.33-7l-7.92-1.14m-7.36 4.8l2.07.3m54.18 7.84l104.47 15.11m215.07 56.61l-.02-.44m-11.8 18.74l-.65-14.66m22.93 22.41l-.65-14.65m-17.93-4.59l.65 14.65M560.07 466.37l.01.02m-12.98 3.84l12.53-8.18m-65.95-55.99l1.41-.92m-1-2.28l-.8.52m2.71 4.83l1.4-.92m-2.18-1.9l-1.4.91m418.5 263.82l-751.6-214.73"/><path d="M235.98 406.11l-67.01 33.51m-6.86 3.43l-17.71 8.85m.37 2.32l774.94 221.39m6.01-.5l131.9-65.95"/><path d="M1057.62 609.16l-6.38-1.82m0 0l-79.12 39.56M203.51 427.32L972.12 646.9M567.16 542.98l11.38 3.26m.36 2.12l-10 4.99m-17.23-4.92l10-5m365.19 133.29l.27 3.91m-8.01.66l-.26-3.91M478.02 397.31l2.31 15.68"/><path d="M481.35 414.15l61.64 17.61m319.52-151.58l46.58 11.92m-.58-13.21l.58 13.21m-47.17-25.14l.59 13.22m46-1.29l.62-1.89m-47.21-10.04l.62-1.88"/><path d="M908.51 278.89l-46.59-11.93m-348.73 39.36l1.62-1.56m-57.13 107.07l1.29-.85m7.17-17.06l1.88 12.75m-7.35 4.8l7.35-4.8m58.14-96.05l-12.97-4.3m0 0l2.66 10.87M456.49 412l1.19-.17"/><path d="M455.47 396.86l2.21 14.97m-116.94-96.58l-30.75-10.12m30.75 10.12l.12.73m0 0l.55 3.25m30.75 10.13l-30.75-10.13m30.75 10.13l.12.72m0 0l.54 3.26m44.82 14.75l-44.82-14.75m-63.5-32.19l.67 3.98m216.17 5.49l.3 1.23m-62.91 81.33l-5.09 3.32m67.7-85.88l.8-1.84"/><path d="M455.47 396.86l1.29-.84m175.87-78.23l21.68-21.88M606 302.36l-22.22 22.42m0 0l.58 13.21m-.58-13.21l-1.3-1.52m-19.2 11.05l17.24 4.41"/><path d="M579.94 325.51l.58 13.21m-17.82-17.63l.58 13.22"/><path d="M579.94 325.51l.62-1.89m-17.86-2.53l.62-1.88m16.62 6.3l-17.24-4.42m-89.69 91.78l72.35 20.67m-72.35-20.67l-7.36 4.8m-.99 2.84l1.29-.84m-1.29.84l76.52 21.86m-76.96-20.75l.44-1.11m77.51 19.03l3.54-2.31m-4.53 5.14l1.29-.84m-1.73 1.95l.44-1.11m1.62-92.44l14.34-14.46"/><path d="M556.55 322.26l.59 13.21m-.59-13.21l-1.3-1.52m1.3 1.52l-22.76 22.97M353.8 131.09l382.71 55.35m-361.92-38.41l34.79 5.03m.47 3.15l-30.98 20.24m-8.2 1.89l-4.47-.64m-91.62 203.2l-2.16-.61m.27 1.85l-.27-1.85m-1.59 3.06l-.21-1.42m781.59 216.85l85.11-42.55m-109.96-56.32l142.76 40.79m3.99 19.82l-110.39 55.19"/><path d="M1174.11 560.52l-.52-7.82m-110.98 55.49l110.98-55.49M270.62 381.93l1.9-.95m-.23 1.42l-1.67-.47m791.2 219.6l109.29-54.65m.35 5.22l-110.97 55.48m110.97-55.48l-.35-5.22m-118.9 51.9l9.61 2.75m-11.28 1.06l.7 4.75m8.18 7.14l4.3 1.23"/><path d="M1063.72 615.71l-1.11-7.52m0 0l-2.12-.61m0 0l-.33-2.25m0 0l-9.62-2.74m-127.52-96.37l-.31-3.93m-191.04-80.4l-.05 3.78m48.85-14.05l30.25-19.75m-.16-1.06l-29.61-12.46m141.76 123.94l-191.04-80.4M1146 358.78L926.68 502.01M736.51 186.44L1146 358.78M736.51 186.44L489.93 347.48m74.35 31.29l-74.35-31.29m240.3 73.93l-165.95-42.64"/><path d="M690.51 253.24l22.23-22.42m8.06-1.53l137.96 35.31m.37.06l1.87.16m1.54.26L909.13 277m1.02.34l46.81 19.7m2.36 1.94l119.04 50.1m.67 4.42l-30.25 19.76m.15 1.05l4.66 1.97m.67 4.42L1024 400.46m.16 1.05l4.66 1.96m.66 4.43l-30.25 19.75m.16 1.06l4.66 1.96m.66 4.43l-30.99 20.23m-8.38.62l-25.18-10.6m-2 .15l-30.25 19.76m-8.39.61l-118.39-49.82m-321.4-24.87l76.52 21.86m7.73 9.62l2.21 14.97m-5.45 5.85l-76.52-21.86M913.4 523.08l-6.8 4.44m2.82-4.15L638.27 409.25m-1.45-.48l-67.95-17.46"/><path d="M1003.18 432.47l.16 3.52m.71-5.32l-.87 1.8m-4.66-1.96l.37 8.39m-268.72-13.71l.06-3.78m-93.41-12.64l.04-3.08m0 0l.01-.69m46.63 11.98l.04-3.09m0 0l.01-.69m315.84 15.51l-.87 1.8m4.66 1.96l-4.66-1.96m-.99-1.08l.45 10.07m1.2-11.81l-1.07.78m56.17 41.48l-5.06-34.29m-7.53 4.91l4.83 32.74m4.13-38.59l4.82 32.67m0 0l4.79-2.4"/><path d="M1060.26 464.99l-4.92-33.33m17.71 28.9l-5.44-36.91m-7.53 4.91l5.21 35.36m-36.47-60.45l-.87 1.8m0 0l.16 3.53m-247.64 2.82l1.13 1.66m241.7-9.97l.37 8.39m45.37 11.01l5.2 35.29M781.6 413.28l.13 3.02m242.43-14.79l-.86 1.8m4.65 1.96l-4.65-1.96m.65-2.82l-1.07.78m-231.39 19.14l20.94-13.68m-.58-13.21l.58 13.21"/><path d="M811.85 393.52l-30.25 19.76m29.12-21.41l1.13 1.65M1074.24 458l4.79-2.4"/><path d="M1079.03 455.6l-5.3-35.95m-51.43-17.41l.45 10.06m69.08 38.87l-5.83-39.53m-7.53 4.92l5.6 37.97m3.36-43.83l5.59 37.91m0 0l4.79-2.39"/><path d="M1097.81 446.22l-5.69-38.58m18.49 34.14l-6.22-42.15m-7.53 4.92l5.99 40.6m2.97-46.46l5.98 40.53m-58.21-62.94l-.86 1.8M813.11 405.7l-.58-13.21m-.66-.91l-1.14-.69m-84.57 3.41l1.04-.76M456.49 412l-2.21-14.97m35.65-49.55l-71.16-10.3m-1.13 10.91l1.13-10.91m-1.13 10.91l-302.52-43.76m0 0l4.74 32.09m779.23 222.62L119.86 336.42"/><path d="M899.09 559.04l-4.52-30.66m0 0l-325.7-137.07m0 0l-4.59-12.54m216.42-.5l-29.36-7.52"/><path d="M749.42 371.11l-22.22 22.43m-8.07 1.52l-184.25-47.15m-2.39-4.2l22.76-22.97m8.07-1.53l17.24 4.41m1.92-.36l22.22-22.42m8.07-1.53l16.06 4.11m1.92-.36l21.68-21.88m-.57-1l-7.05-1.81m-2.39-4.2l22.76-22.97m8.07-1.52l15.34 3.92m359.48 122.52l.37 8.38m.49-10.19l-.86 1.81m4.66 1.96l-4.66-1.96m63.73 63.1l4.79-2.39"/><path d="M1116.59 436.83l-6.08-41.2M748.23 372l1.19-.89m-23.35 23.24L748.23 372m304.5 6.08l.15 3.52M290.79 222.83l1.35 1.42m3.43 14.03l-31.08 20.3"/><path d="M292.14 224.25l3.43 14.03m-3.43-14.03l-66.02 43.12m37.34-13l-25.39 16.58m26.42-12.37l-1.03-4.21m783.61 120.67l.45 10.06m1.21-11.81l-1.08.79m81.73 58.32l-6.6-44.78m-7.53 4.92l6.37 43.22m2.59-49.08l6.36 43.16M748.55 518.3l.06.35m3.32-1.17l.15 1.04m-7.18.65v.02m402.94-147.94l-1.84-12.47M926.68 502.01l.32 3.92m-7.08 4.62l.32 3.93m-7.16 4.67l.32 3.93m2.86-8.31l-.31-3.93M685 413.69l-.06 3.77m.06-3.77l230.95 97.15m3.97-.29l7.08-4.62"/><path d="M923.02 506.22l-191.4-80.55m-1.45-.48l-46.62-11.99m225.87 110.17l-.31-3.93M638.32 405.48l-.05 3.77m.05-3.77l270.79 113.96m3.97-.29l7.16-4.67"/><path d="M916.26 514.77l-231.32-97.31m-1.44-.48L636.87 405m-265.2-71.93l-250.24-36.19m-.96-1.02l-6.07 3.97m-2.07 2.79l4.67 31.67m789.6 193.23l4.5 30.52m134.18-67.08L911.1 558.04"/><path d="M1045.28 490.96l-7.09-48.1m0 0l109.65-71.61m-493.19-76.1l-.58-13.22m-.66-.9l-1.14-.69m68.49-35.95l137.96 35.31"/><path d="M858.14 266.48l.58 13.22m-138.54-48.53l.58 13.22"/><path d="M858.14 266.48l.62-1.88m-138.58-33.43l.62-1.88m137.34 37.19l-137.96-35.31m-176.95 49.85l.8-1.83m8.98 5.07l-9.78-3.24m0 0l2.08 8.51m7.7-5.27l.3 1.23m-.3-1.23l.8-1.83m98.78-1.89l14.48-14.61"/><path d="M666.48 252.72l.59 13.21m-.59-13.21l-1.3-1.52m1.3 1.52l-22.76 22.97m215.74 4.13l1.87.16m-2.46-13.37l.59 13.21"/><path d="M860.74 266.77l.59 13.21m-2.46-13.37l.26-1.95m1.61 2.11l-1.87-.16"/><path d="M860.74 266.77l.26-1.95m-217.28 10.87l.1 2.36m-.1-2.36l-1.3-1.52m30.79-9.4l15.35 3.93m-.59-13.21l.59 13.21m-15.93-17.14l.58 13.21m14.76-9.28l.62-1.89m-15.96-2.04l.62-1.88"/><path d="M687.97 255.49l-15.34-3.93m-128.79 27.17l-1 1.37m-.13.48l2.23 9.13m169.09-57.37l-22.22 22.42m-351.56 64.21L128.23 288.3m-7.35 3.16l6.39-4.17m-6.15 5.66L371 329.1m320.81-74.34l.59 13.21m-320.73 65.1l-.67-3.97m320.81-74.34l-1.3-1.52m1.89 14.73l22.22-22.42"/><path d="M714.03 232.34l.59 13.21m-593.5 47.4l.31 3.93m592.6-64.54l-1.29-1.52m-131.32 27.6l.3 1.23m-.3-1.23l.8-1.83m-2.95-1.38l-1 1.37m-.14.49l.97 3.93m-.44-3.5l.8-1.83m1.96 2.75l-2.76-.92"/><path d="M578.66 257.5l.81 3.32m-451.55 23.56l.31 3.92m180.6 16.57l-173.8-25.14m-.96-1.01l-6.39 4.17m.24 1.49l211.66 30.61m.67 3.98l-.67-3.98m73.93-37.95l-1.13-1.55m-35.52 19.85l-1.13-1.54m41.22-2.74l-24.4 12.19"/><path d="M413.51 277.04l3.44 14.02m-3.44-14.02l-36.65 18.3m0 0l.72 2.95m298.09-79.17l.3 1.24m-.3-1.24l.8-1.83m-127.56-40.12l.8-1.83m2.63 15.86l109.52 36.24"/><path d="M675.67 219.12l-126.76-41.95m0 0l3.43 14.03m-138.05 84.26l-1.52-.76m-103.94 30.17l-.66-3.98m109.89-11.04l-3.43-14.03m-279.92-.02l.32 3.93m245.49-99.81l1.35 1.42m-30.72 34.68l-4.47-.64m1.03-13.38l-4.46-.65"/><path d="M343.25 201.35l3.43 14.03m38.62-20.01l-30.25 19.75m26.82-33.78l3.43 14.03"/><path d="M381.87 181.34l-30.25 19.76m-3.3-.98l-.61 1.88m2.56-2.33l1.35 1.43m0 0l3.43 14.02M347.71 202l3.44 14.02m-74.5-23.18l1.35 1.42m-47.95 47.58l51.38-33.55"/><path d="M278 194.26l3.43 14.03M278 194.26l-66.02 43.12m0 0l.47 1.92m-1.82-3.35l1.35 1.43m221.61-80.82l-.61 1.88m78.19 24.84l-74.76-10.81"/><path d="M507.74 169.25l-74.76-10.81m0 0l3.43 14.03m71.94-5.09l-.61 1.87m0 0l3.43 14.03"/><path d="M509.11 167.35l.16 1.86m3.43 14.02l-3.43-14.02m33.72 262.55c.33.1.69.07 1-.08m-63.66-18.69c.08.55.48 1 1.01 1.16"/></g><path d="M1008.01,569.63c.19,1.31,2.67,2.03,5.54,1.6,2.87-.42,5.03-1.83,4.84-3.13-.19-1.31-2.67-2.03-5.54-1.6-2.87.42-5.03,1.83-4.84,3.13h0Z"/><path d="M369.23 125.98c-3.45-.5-8.71.71-11.76 2.7m794.06 240.27c1.45-.95 2.17-2.15 2-3.33m-3.86-9.24c3.05-1.99 2.6-4.83-1-6.34M750.18 518.88a.57.57 0 0 0-.27.07M529.99 415.34c-.2-1.36-1.14-2.78-2.31-3.5m.01 0c-1.47-.9-2.81-.4-2.99 1.12s.86 3.47 2.33 4.37c.84.51 1.67.59 2.26.2m-.01 0c.6-.39.86-1.2.71-2.19" class="D"/><use href="#B"/><g class="D"><path d="M534.04 416.15c0-.06-.02-.12-.03-.18m-.04.28l-.24-1.16m-1.49 6.46c1.44-.94 2.08-2.91 1.73-5.3m-12.65-6.57c-.09.34-.15.7-.19 1.07"/><use href="#C"/><path d="M521.24 412.89c.58 3.93 3.76 7.89 7.11 8.84 1.28.37 2.46.25 3.37-.35m0 0c1.18-.77 1.81-2.28 1.72-4.18m0 .01c-.06-1.42-.52-2.97-1.3-4.43m-10.67-3.06c-.32.9-.4 1.99-.23 3.17m-87.65-256.33c-2.39-.35-6.07.5-8.2 1.89m82.96 8.93c.21.03.48.02.76-.02M134.48 274.31c-1.01.66-.91 1.33.23 1.49m174.61 25.35c-.34-.11-.73-.2-1.16-.26m225.63 44.34c-.74.75-.73 1.63.04 2.33m-71.86 45.17c-2.35-.67-3.92 1.02-3.52 3.78m85.03 24.28l-.04-.26m-3.39-5.19c-.51-.35-1.04-.61-1.56-.76m3.68 24.96c2.35.67 3.92-1.02 3.52-3.78m-85.02-24.29c.41 2.76 2.64 5.53 4.99 6.2m-7.88-26.1c-.93.99-1.29 2.59-1.02 4.45m2.21 14.96c.57 3.86 3.69 7.75 6.98 8.69m76.52 21.86c.95.27 1.85.27 2.61 0m189.25-184.35c1.03 3.66 7.51 6.01 14.47 5.24a22.52 22.52 0 0 0 3.46-.65m7.6-.11c-2.35-.6-5.17-.56-7.6.11m154.49 39.59c-.36-1.41-1.99-2.61-4.37-3.22"/><use href="#D"/><path d="M927.84 307.52c-1.85-.78-4.28-1.08-6.69-.82m7.34 15.47c-1.85-.78-4.28-1.08-6.69-.82"/><use href="#D" x="0.65" y="14.65"/><path d="M907.4 316.01c-.36-1.41-1.99-2.61-4.37-3.22M760.5 276.32c-2.35-.6-5.17-.56-7.6.11m-17.92-4.6c1.03 3.66 7.51 6.01 14.47 5.24a22.52 22.52 0 0 0 3.46-.65m-17.93-4.59c-.39-1.39-2-2.56-4.35-3.17m-105.52 66.19c5.35 2.25 13.4 1.66 17.97-1.32 2.04-1.33 3.12-2.98 3.05-4.64M543.84 433.11c.18-.37.24-.86.16-1.39m-65.9-18.83a4.53 4.53 0 0 0 .6 1.61m534.23 155.27a.57.57 0 0 0-.27.07M498.11 406.23c-.2-1.36-1.14-2.78-2.31-3.5"/><path d="M495.8 402.73c-1.47-.9-2.81-.4-2.99 1.12s.86 3.47 2.33 4.37c.84.51 1.67.59 2.26.2m0 0c.6-.39.86-1.2.71-2.19"/></g><use href="#B" x="-31.89" y="-9.11"/><g class="D"><path d="M518.28 408.81c-1.4 4.1 1 10.36 5.37 13.96 3.01 2.49 6.32 3.15 8.52 1.71m-.01.01c1.12-.73 1.88-1.96 2.18-3.53m.01 0c.46-2.34-.11-5.25-1.56-8"/><use href="#E"/><use href="#E" x="31.88" y="9.11"/><path d="M542.46 431c.39.11.94.09 1.42-.05m-16.91-16.7c.01.09.07.18.14.25m2.17 1.9c.07.06.15.09.21.06m393.5 250.53c2.01-.62 3.81-1.43 5.23-2.36m-5.92.56c1.8-.56 3.4-1.28 4.67-2.12M160.49 444.1c-1.28.83-2.19 1.75-2.68 2.69m0 0c-.66 1.68.57 3.18 3.22 3.94"/></g><use href="#F"/><use href="#G"/><use href="#G" x="-231.69" y="-66.19"/><use href="#F" x="221.05" y="63.15"/><g class="D"><path d="M911.91 667.3c3.05.87 7.28.75 11.08-.31m-10.35-1.54c2.66.76 6.34.66 9.66-.26M156.9 452.56c.17 1.17 1.55 2.19 3.82 2.84m131.42-247.91c1.14.16 2.89-.24 3.9-.9m-7.33-13.13c1.14.16 2.89-.24 3.9-.9m143.8-20.09c-1.82-.26-4.62.38-6.25 1.44m2.82-15.47c-1.82-.26-4.62.38-6.25 1.44m-35.18 34.04c-1.82-.26-4.62.38-6.25 1.44m2.81-15.46c-1.82-.26-4.62.38-6.25 1.44m14.15 13.23c1.14.16 2.89-.24 3.9-.9m-7.33-13.13c1.14.16 2.89-.24 3.9-.9m-49.8 35.74c-1.82-.26-4.62.38-6.25 1.44m2.82-15.47c-1.82-.26-4.62.38-6.25 1.44m123.39 188.78c-3.29-.94-5.49 1.43-4.92 5.29m173.32-78.34c1.38.35 3.09.03 3.84-.73m-4.43-12.49c1.38.35 3.09.03 3.84-.73m326.09 8.68c-.23-.47-.74-.89-1.45-1.19m1.45 1.19c.14.3.46.56.91.74m-1.5-13.96c-.23-.47-.74-.89-1.45-1.19"/><path d="M957.54 300.03c.14.3.46.56.91.74m-395.17 33.54c-2.2-.56-4.95-.04-6.15 1.16m5.57-14.38c-2.2-.56-4.95-.04-6.15 1.16m-54.4 84.79c0-.06-.02-.12-.03-.18m-.03.28l-.24-1.16m-1.49 6.46c1.44-.94 2.08-2.91 1.73-5.3m-12.66-6.57c-.09.34-.15.7-.19 1.07"/><use href="#C" x="-31.88" y="-9.11"/><path d="M489.36 403.78c.58 3.93 3.76 7.88 7.11 8.84 1.28.37 2.46.25 3.37-.35m0 .01c1.18-.77 1.81-2.28 1.72-4.18"/><path d="M501.56 408.1c-.06-1.42-.52-2.97-1.3-4.43m-10.67-3.05c-.32.9-.4 1.99-.23 3.17m-331.63 42.78c-.47.49-.84.98-1.1 1.48m0 0c-.78 1.93.63 3.66 3.68 4.53"/><use href="#H"/><path d="M181.34,452.88s-.08.05-.11.08"/><use href="#H" x="221.05" y="63.15"/><path d="M402.4 516.03s-.08.05-.11.08m164.02 27.3c-1.08-.31-2.72-.17-3.67.3m17.04 4.07c-.17-.29-.59-.54-1.18-.71m.27 1.04s0-.05-.01-.07M674 591.13c-1.62-.54-4.2-.22-5.76.72l-.26.17"/></g><path d="M1019.61 567.66c-.24-1.63-3.32-2.52-6.88-1.99s-6.26 2.27-6.02 3.9 3.32 2.52 6.88 1.99 6.26-2.27 6.02-3.9h0z"/><g class="D"><path d="M727.05 530.03c5.87 1.68 14.74.35 19.82-2.97m-23.41 1.95c-4.04-1.15-9.71-.91-14.63.62M556.5 486.11c-15.52 29.73 20.63 54.01 80.75 54.24 23.78.09 48.92-3.68 71.58-10.72M556.5 486.11c1.33-2.56-.37-4.9-4.41-6.06m-5.02-10.07c-5.08 3.32-4.44 7.36 1.43 9.04m351.28 179.11s-.08.05-.11.08"/><use href="#H" x="718.43" y="205.25"/><path d="M578.57 547.3c-.05-.26-.36-.49-.88-.64m-25.05 2.05c-.23.11-.4.24-.51.37M538.64 414.2c-.57-.35-1.16-.6-1.73-.77m541.62-59.6c1.03-1.03.6-2.26-1.04-2.95m71.72 69.64c1.36-.72 2.04-1.58 1.92-2.41m-402.67-46.32a1.59 1.59 0 0 0-.24.2m400.99 48.53c-.63.34-1.06.72-1.25 1.12m-7.56 4.73c3.9-.08 7.36-1.4 7.74-2.94a1.19 1.19 0 0 0 .02-.42m-7.76 3.36c-1.9.04-3.77.44-5.04 1.07M624.25 317.35l-.22.23m17.63-.78c-1.23-1.16-3.3-1.99-5.76-2.32m292.4-12.41c-2.62-2.47-8.64-3.22-13.45-1.67-1.06.34-2.01.78-2.8 1.29m.01 0c-.55.36-1.01.75-1.38 1.16M624.47 320.2c5.35 2.25 13.4 1.66 17.97-1.32s3.93-7.23-1.42-9.48c-.01 0-.03-.01-.04-.02"/><path d="M623.68 317.21c2.22 2.59 8.07 3.6 13.08 2.27 1.36-.36 2.56-.88 3.53-1.51m-.01-.01c1.58-1.03 2.43-2.32 2.37-3.61m0 0c-.06-1.39-1.17-2.68-3.07-3.58M284.07 209.16c1.1-.72 1.59-1.48 1.33-2.08"/><path d="M285.34 206.9l.06.18m269.32 6.05c-1.7-.56-4.47-.49-7.34.2m-13.36-1.68c.63 2.55 6.58 3.3 13.37 1.68m-13.66-2.87c-.4-.56-1.29-.96-2.54-1.14m385.26 85.81c-5.23 1.02-8.16 4.06-6.54 6.78s7.17 4.1 12.4 3.07c3.66-.72 6.34-2.47 6.88-4.5m-173.08-47.05c.52.42 1.23.75 2.08.97m-12.9-3.74c-5.4.66-9.03 3.49-8.12 6.32.92 2.83 6.04 4.6 11.43 3.94 5.4-.66 9.03-3.49 8.12-6.32-.13-.41-.36-.81-.68-1.19m-13.59-3.04c.85.22 1.8.31 2.77.28m-10.89 6.53c-.39-1.39-2-2.56-4.35-3.17"/><use href="#I"/><path d="M1010.97 569.26c.05.34.46.6 1.11.7m0 0s.06 0 .09.01m2.33-.34c.15-.07.28-.14.4-.22"/></g><path d="M1015.72 568.49c-.09-.64-1.3-.99-2.69-.78s-2.45.89-2.35 1.53c.09.64 1.3.99 2.69.78s2.45-.89 2.35-1.53h0z"/><g class="D"><path d="M1007.91 570.69a1.81 1.81 0 0 0 .44.49m9.91-1.31c.46-.48.67-.97.6-1.44m-11.21 1.66c.07.46.41.88.99 1.2"/><path d="M1018.87 568.48v-.07m-.7 1.52c.5-.47.74-.98.69-1.45m-11.22 1.58c.07.49.45.93 1.09 1.25m-1.1-1.33v.08M385.76 171.94c-2.98.54-5.88 1.62-7.87 2.91"/><path d="M377.9 174.86l-.26.18m-5.08 3.19c.01.05.03.11.05.16m-.71-2.87c-.51-.52-1.3-.94-2.32-1.23m-21.91 12.3c-3.55-1.01-8.89-.22-11.94 1.77m-41.09 27.4c-1.33.5-2.52 1.08-3.47 1.71m0 0l-.26.18m6.64-8.15c1.66-.32 3.26-.92 4.36-1.64"/><path d="M287.61 216.06c.45.92 1.9 1.51 4.04 1.65m12.78-8.34c-1.75-.43-4.23-.38-6.88.13m-11.3 8.58c1.02-.67 1.52-1.37 1.38-1.95m2.05 2.88c-3.21.19-6.82 1.3-9.1 2.79m27.01-17.65c-2.28 1.49-2.75 3.05-1.19 3.93m243.69-14.15c-4.01-.5-9.98.91-13.47 3.18"/><path d="M536.63 197.12l-.26.18m-234.56 39.53c-1.82-.26-4.62.38-6.25 1.44m2.82-15.46c-1.82-.26-4.62.38-6.25 1.44m14.15 13.23c1.14.16 2.89-.24 3.9-.9m-7.33-13.13c1.14.16 2.89-.24 3.9-.9m244.48-34.17c-.08-.02-.17-.03-.25-.04m-2.04-12.67c.3-.67-.23-1.19-1.4-1.36m4.27 16.45c.05.19.23.34.53.44m-3.82-14.94c-.29.4-.14.74.39.92m16.45 288.9a.57.57 0 0 0-.27.07m-20.76-187.79c-.62.31-.75.68-.3.83m8.54 6.71c2.58-1.29 3.14-2.85 1.24-3.47m-28.09 29.83c2.58-1.29 3.14-2.85 1.24-3.47m-46.9 23.42c1.9.63 5.53.09 8.12-1.2M375.73 293.8c-2.58 1.29-3.14 2.85-1.24 3.47m37.89-21.78c.62-.31.75-.68.3-.83m-34.31-11.35c-.06-.02-.12-.03-.19-.04m-18.74-2.71c-.57-.08-1.44.12-1.95.45m-38.45 21.65c2.39.35 6.07-.5 8.2-1.89m-102.47-14.83c-2.13 1.39-1.92 2.8.47 3.15m73.75-48.16c-2.39-.35-6.07.5-8.2 1.89"/><path d="M303.45 221.58c.57.08 1.44-.12 1.95-.45m38.46-21.65c-2.39-.35-6.07.5-8.2 1.89m12.66-1.25c.57.08 1.44-.12 1.95-.45m38.45-21.65c-2.39-.35-6.07.5-8.2 1.89m12.67-1.24c.57.08 1.44-.12 1.95-.45m-169.02 89.15c-.9.59-1.29 1.22-1.05 1.7m152.34-105.14c-1.82-.26-4.62.38-6.25 1.44m2.82-15.47c-1.82-.26-4.62.38-6.25 1.44m-35.19 34.05c-1.82-.26-4.62.38-6.25 1.44m2.82-15.47c-1.82-.26-4.62.38-6.25 1.44"/><path d="M337.01 186.03c1.14.16 2.89-.24 3.9-.9m-7.33-13.12c1.14.16 2.89-.24 3.9-.9m72.77-15.18c0-.5-.55-.86-1.48-.99m-121.09 51.9c-1.82-.26-4.62.38-6.25 1.44m2.81-15.46c-1.82-.26-4.62.38-6.25 1.44m47.81 5.54c2.39.35 6.07-.5 8.2-1.89m-12.66 1.24c-.57-.08-1.44.12-1.95.45m-73.49 44.53c2.39.35 6.07-.5 8.2-1.89m-43.47-6.29c-2.13 1.39-1.92 2.8.47 3.15m73.75-48.16c-2.39-.35-6.07.5-8.2 1.89m12.67-1.24c.57.08 1.44-.12 1.95-.45m38.45-21.65c-2.39-.35-6.07.5-8.2 1.89"/><path d="M334.18 170.13c.57.08 1.44-.12 1.95-.45m176.19-2.43c-.9-.13-2.02-.09-3.21.1m40.46 7.47c1.07-1.14.49-2.11-1.41-2.38m1.41 2.38c-.21.22-.16.42.14.52m125.52 45.43c2.58-1.29 3.14-2.85 1.24-3.47m-46.9 23.41c1.9.63 5.53.09 8.12-1.2m-20.24-2.81c-.45-.15-1.32-.02-1.93.29m-35.76 17.86c-.62.31-.75.68-.3.83m1.52 4.38c2.58-1.29 3.14-2.85 1.24-3.47m-31.3-59.01c-1.7-.56-4.47-.49-7.34.2m104.83 34.28c.76-1.15.29-2.12-1.26-2.64m1.26 2.64c-.55.83-.67 1.61-.37 2.29m12.73-7.27c-5.34 1.01-9.87 3.59-10.11 5.76 0 .07-.01.14-.01.2m-97.87-41.69c.29.18.69.31 1.17.39m-11.56-2.47c-5.34 1.16-9.58 3.8-9.46 5.89s4.55 2.85 9.89 1.69c5.13-1.11 9.28-3.6 9.45-5.67m-13.69-1.67c1.05.15 2.4.07 3.8-.24m-157.39-22.51c-5.31.86-10.11 3.37-10.72 5.6-.53 1.94 2.29 3.07 6.73 2.7"/><path d="M381.94 166.85c.85.12 1.91.09 3.04-.09m-10.96-1.05c-.96-.14-2.09-.15-3.33-.02m.79 7.28c.22-1.08-.8-1.88-2.75-2.16m2.75 2.16c-.45 2.22 2.59 3.58 7.54 3.38m151.14 19.29c0-.94-1.01-1.63-2.78-1.88m2.78 1.88c-.01 2.73 5.55 3.78 12.42 2.35l1-.22m212.28 60.04c-2.62-2.47-8.64-3.22-13.45-1.67-1.06.34-2.01.78-2.8 1.29m.01-.01c-.55.36-1.01.75-1.38 1.16m-171.01 207.2c.45-.26.68-.58.64-.87m0 0c-.08-.56-1.15-.87-2.39-.69-.6.09-1.15.28-1.54.54m2.99 1.18l.31-.16m-2.64.5c.07 0 .15.02.23.02m-.89-1.55c-.81.53-.71 1.17.23 1.44a2.72 2.72 0 0 0 .43.09m2.94-.57c.63-.41.79-.91.41-1.28m-1.67-.47c-1.35-.01-2.74.52-3.1 1.19-.07.13-.1.27-.08.39"/><path d="M563.1 465.54c.09.64 1.3.99 2.69.78.67-.1 1.3-.32 1.74-.61m-7.19 1.28a1.81 1.81 0 0 0 .54.57m9.98-1.47c.19-.24.31-.48.36-.72"/><path d="M570.39 466.45c.41-.34.69-.7.83-1.06m-11.14 1c.08.56.56 1.04 1.36 1.38m8.77-1.21c.51-.38.85-.79 1-1.2m-11.14 1.01a.84.84 0 0 0 .02.1"/><path d="M560.09 466.47c.13.56.68 1.04 1.55 1.36m1.94-4.65c-2.64.83-3.86 2.39-2.73 3.49 1.13 1.09 4.19 1.31 6.83.48.72-.23 1.37-.52 1.89-.86m-.01 0c.52-.34.89-.71 1.09-1.09m-23.55 5.03c-2.36 1.54-3.58 3.32-3.41 4.98m12.85 11.15c.38-.72.52-1.43.41-2.12m-.41 2.12c-2.98 5.71-4.11 11.39-3.33 16.83m194.38 12.56c-3.03 1.09-4.2 2.96-2.62 4.18s5.31 1.33 8.34.25c.69-.25 1.31-.55 1.82-.88m0 .01c.51-.33.9-.69 1.16-1.07"/><path d="M562.77 462.95c-3.03 1.09-4.2 2.96-2.62 4.18s5.31 1.33 8.34.25c.69-.25 1.31-.55 1.82-.88m-.01 0c.51-.33.9-.69 1.16-1.07m-76.37-60.29c.01.09.07.18.14.25m2.17 1.9c.07.06.15.09.21.06m425.87 262.99c2.04-.44 3.86-1.05 5.32-1.78m-16.48 1.56c3.05.87 7.31.95 11.16.22M567.16 542.98c-1.62-.46-4.07-.26-5.49.45m17.23 4.93c1.42-.71 1.26-1.66-.36-2.12m-10.4 7.42a6.02 6.02 0 0 0 .76-.3m-17.23-4.93c-.22.11-.41.23-.56.36m-70.78-135.8c.03.17.2.31.48.39m14.92 2.47c1.74.5 3.33.33 4.56-.47m-.01 0c1.12-.73 1.88-1.97 2.19-3.55"/><path d="M502.47 411.83c.45-2.33-.12-5.24-1.56-7.98m-14.52-4.15c-1.41 4.1 1 10.36 5.37 13.96 1.28 1.06 2.64 1.81 3.96 2.18m-14.9-2.45c.06.4.26.68.53.76M542.46 431c.06.4.26.68.53.76m-74.97-25.09c.41 2.76 2.64 5.53 4.99 6.2m-15.33-1.04c.57 3.86 3.69 7.75 6.98 8.69m148.07-106.11c-2.2-.56-4.95-.04-6.15 1.16m5.57-14.38c-2.2-.56-4.95-.04-6.15 1.16m-78.98 9.12c0-.37-.31-.67-.86-.85m54.36 28.1c1.38.35 3.09.03 3.84-.73m-4.42-12.48c1.38.35 3.09.03 3.84-.73m-42.6 117.59c3.29.94 5.49-1.43 4.92-5.29M374.59 148.03c-2.39-.35-6.07.5-8.2 1.89m43.46 6.29c2.13-1.39 1.92-2.8-.47-3.15m-38.71 25.28c2.39.35 6.07-.5 8.2-1.89m-12.67 1.25c-.57-.08-1.44.12-1.95.45m-91.86 201.84c0 .1.02.2.03.29m779.79 218.5c-1.03.52-1.79 2.1-1.69 3.54 0 .09.02.18.03.27m11.27-1.06c-1.03.52-1.79 2.1-1.69 3.54 0 .09.02.18.03.27m-161.07-46.3c3.52 1.01 8.9.56 12.01-.99M780.47 411.62c-2.13 1.39-1.84 3.37.66 4.43m29.59-24.18c.51-.33.44-.8-.16-1.05m112.15 111.47c1.19.5 2.96.37 3.97-.29"/><use href="#J"/><path d="M720.8 229.29c-2.89-.74-6.5-.06-8.07 1.52m146.03 33.79a2.2 2.2 0 0 0 .37.06m3.41.42a10.66 10.66 0 0 0-1.55-.26m49.16 12.52c-.32-.13-.66-.25-1.03-.34m49.74 21.6c-.3-.62-.97-1.17-1.9-1.56m1.9 1.56c.07.15.23.28.45.37m119.72 54.53c2.13-1.39 1.84-3.37-.66-4.43m-29.59 24.19c-.51.33-.44.8.16 1.05m5.32 6.39c2.13-1.39 1.84-3.37-.66-4.43m-29.6 24.19c-.51.33-.44.8.16 1.05m5.32 6.39c2.13-1.39 1.84-3.37-.66-4.43m-29.59 24.18c-.51.33-.44.8.16 1.05m5.32 6.4c2.13-1.39 1.84-3.37-.66-4.43m-38.71 25.28c2.5 1.05 6.25.77 8.39-.62m-33.57-9.98c-.59-.25-1.49-.18-2 .15m-38.64 20.37c2.5 1.05 6.25.77 8.39-.62m-448.18-74.07c-3.64-1.04-6.08 1.58-5.45 5.85m89.7 25.63c-.63-4.27-4.09-8.58-7.73-9.62m4.49 30.44c3.64 1.04 6.08-1.58 5.45-5.85M456.49 412c.63 4.27 4.09 8.58 7.73 9.62m430.35 106.76c3.6 1.51 8.98 1.13 12.03-.86m2.82-4.15c1.19.5 2.96.37 3.97-.29"/><use href="#J" x="-93.4" y="-12.64"/><path d="M1004.22 435.42c1.03-1.03.6-2.26-1.04-2.95m-5.07-4c-.91.66-.73 1.56.41 2.04m48 42.8c3.9-.08 7.36-1.4 7.74-2.94a1.19 1.19 0 0 0 .02-.42m-7.76 3.36c-1.32.03-2.64.23-3.76.57m12.71-6.49c-.71.36-1.19.77-1.39 1.19m11.21-4.66c3.9-.08 7.36-1.4 7.74-2.94a1.19 1.19 0 0 0 .02-.42m-7.76 3.36c-1.9.04-3.77.44-5.04 1.07m-31.26-56.77c1.03-1.03.6-2.26-1.04-2.95m-246.35 8.01c-1.24.81-1.44 1.91-.5 2.76M1074.24 458c-.71.36-1.19.77-1.39 1.19m-49.97-57.92c-.91.66-.73 1.56.41 2.04m60.78 51.22c3.9-.08 7.36-1.4 7.74-2.94a1.19 1.19 0 0 0 .02-.42m-7.76 3.36c-1.9.04-3.77.44-5.04 1.07m13.99-6.99c-.71.36-1.19.77-1.39 1.19m20.17-10.58c-.71.36-1.19.77-1.39 1.19m-56.65-59.39c1.03-1.03.6-2.26-1.04-2.95m-240.29 28.66c.45-.3.69-.66.68-1.03m-1.26-12.18c.9-.59.9-1.41.02-1.94m-30.92-13.23l-.24-.08m-29.37-7.52c-.69-.18-1.55-.01-1.92.36m-30.29 23.95c2.89.74 6.5.06 8.07-1.52m-194.71-49.83c-1.57 1.58-.5 3.46 2.39 4.2m28.44-28.7c-2.89-.74-6.5-.06-8.07 1.52m25.31 2.89c.69.18 1.55.01 1.92-.36m30.29-23.95c-2.89-.74-6.5-.06-8.07 1.52m24.13 2.59c.69.18 1.55.01 1.92-.36m21.68-21.88c.37-.38.12-.82-.57-1m-9.44-6.01c-1.57 1.58-.5 3.46 2.39 4.2m28.44-28.69c-2.89-.74-6.5-.06-8.07 1.52m23.41 2.4c.69.18 1.55.01 1.92-.36"/><path d="M1047.65 374.08c-.91.66-.73 1.56.41 2.04m73.56 59.64c3.9-.08 7.36-1.4 7.74-2.94a1.19 1.19 0 0 0 .02-.42m-7.76 3.36c-1.9.04-3.77.44-5.04 1.07m13.99-6.99c-.71.36-1.19.77-1.39 1.19"/><use href="#I" x="-262.74" y="-50.9"/><path d="M748.23 518.37c.05.34.46.6 1.11.7m-.01 0s.06 0 .09.01m2.33-.34c.15-.07.28-.14.4-.22m-1.04-1.76c-.94 0-1.93.25-2.57.66m0 0c-.91.6-.8 1.33.26 1.63s2.65.06 3.57-.53c.44-.28.66-.62.61-.92"/><path d="M752.98 517.6c-.02-.13-.09-.25-.2-.36m-7.61 2.56a1.81 1.81 0 0 0 .54.57m9.5-1.12c.42-.35.7-.71.83-1.08"/><path d="M744.9 519.19c.08.56.56 1.04 1.36 1.38m8.77-1.2c.51-.38.85-.79 1-1.2m-11.13 1c.09.61.65 1.12 1.57 1.46m-1.58-1.54v.08m1.63-2.32c-.9.59-1.35 1.26-1.26 1.89m0-.01c.19 1.31 2.67 2.03 5.54 1.6 2.22-.33 4.1-1.27 4.68-2.33m-7.07-2.01c-.73.23-1.37.52-1.89.86m169.43-6.01c1.19.5 2.96.37 3.97-.29m3.1-4.33c1.19.5 2.96.37 3.97-.29"/><use href="#J" x="-46.67" y="-8.2"/><path d="M909.11 519.44c1.19.5 2.96.37 3.97-.29m3.18-4.38c1.19.5 2.96.37 3.97-.29"/><use href="#J" x="-46.73" y="-4.43"/><use href="#J" x="-93.35" y="-16.41"/><path d="M120.5 296.29c.02.29.36.51.93.59m-7.03 2.95c-3.05 1.99-2.72 4.01.72 4.51m257.7 29c-.34-.11-.73-.2-1.16-.26M117 334.29c.13.88 1.16 1.64 2.86 2.13m523.86-60.73c-.74.75-.73 1.63.04 2.33m10.55 17.89c.24-.24.35-.5.34-.76m-.92-12.45c.55-.56.43-1.22-.32-1.67m256.46 11.33c-.24-.1-.5-.19-.78-.26m.2-12.95c-.24-.1-.5-.19-.78-.26m-354.64 6.22c0-.37-.31-.67-.86-.85m305.71-4.56c.23.06.48.1.74.12m-1.32-13.34c.23.06.48.1.74.12m3.63 13.58c-.37-.09-.77-.16-1.18-.2m.59-13.02c-.37-.09-.77-.16-1.18-.2m-317.9 13.34c-.29.4-.14.74.39.92m-415.93 6.69c.02.29.36.51.93.59m-7.35 3.16c-1.01.66-.91 1.33.23 1.49m220.3 26.28c-.34-.11-.73-.2-1.16-.26m348.31-50.27c1.38.35 3.09.03 3.84-.73m-320.24 61.39c-.34-.11-.73-.2-1.16-.26m316.97-73.61c1.38.35 3.09.03 3.84-.73m-18.6 10.01c-2.2-.56-4.95-.04-6.15 1.16m5.57-14.37c-2.2-.56-4.95-.04-6.15 1.16m-84.2 6.55c0-.37-.31-.67-.86-.85m138.76-27.25c-2.2-.56-4.95-.04-6.15 1.16m-135.76 24.25c-.29.4-.14.74.39.92m142.1-13.11c-2.2-.56-4.95-.04-6.15 1.16M134.1 279.14c.02.29.36.51.93.59m-7.35 3.16c-1.01.66-.91 1.33.23 1.49m182.08 20.75c-.34-.11-.73-.2-1.16-.26m31.91 10.38c-.34-.11-.73-.2-1.16-.26m37.28-19.65c-1.42.71-2.08 1.55-1.7 2.15m301.37-77.52c0-.37-.31-.67-.86-.85m-258.72 71.94c.78-.39 1.21-.85 1.12-1.22m-4.56-12.8c1.13-.56 1.46-1.24.77-1.58m-63.13-59.44c1.14.16 2.89-.24 3.9-.9M347.71 202c1.14.16 2.89-.24 3.9-.9m-139.63 36.28c-.9.59-1.29 1.22-1.05 1.7m300.24-55.8c.43.06.96.04 1.53-.05m-4.96-13.98c.43.06.96.04 1.53-.05m5.88 13.96c-.68-.1-1.54-.07-2.44.08m-1-14.11c-.68-.1-1.54-.07-2.44.08m54.22 293.95l-.08.03c-.35.11-.68.24-.99.38s-.6.3-.86.46a4.97 4.97 0 0 0-.7.54c-.2.19-.38.39-.51.61a2.2 2.2 0 0 0-.25.57c-.05.19-.08.39-.04.57.01.06.03.12.06.17m-70.9-62.83l.12.67c.09.42.21.85.36 1.28s.33.85.53 1.27.43.83.68 1.23.52.79.81 1.15a11.52 11.52 0 0 0 .92 1.05 12.09 12.09 0 0 0 1 .91c.34.28.7.53 1.06.75a8.14 8.14 0 0 0 1.09.57 5.08 5.08 0 0 0 .51.17"/><use href="#K"/><path d="M521.1 412.77l.12.67c.09.42.21.85.36 1.28s.33.85.53 1.27.43.83.68 1.23.52.79.81 1.15a11.52 11.52 0 0 0 .92 1.05 12.09 12.09 0 0 0 1 .91c.34.28.7.53 1.06.75a8.14 8.14 0 0 0 1.09.57c.17.07.34.12.51.17"/><use href="#K" x="31.88" y="9.11"/><path d="M1009.09 567.76l-.13.09"/><use href="#L"/><path d="M1018.86 568.5v-.04c0-.2-.08-.39-.18-.57s-.23-.34-.38-.48c-.16-.15-.35-.29-.57-.41a4.15 4.15 0 0 0-.77-.33c-.29-.09-.6-.17-.94-.22-.33-.06-.68-.09-1.04-.11s-.73-.01-1.11 0c-.38.02-.76.05-1.13.12l-.21.04"/><path d="M1012.52 566.51l-.9.19c-.36.09-.71.2-1.05.33s-.65.26-.94.42c-.16.08-.3.17-.44.26m0-.01l-.1.06m-262.75-50.9l-.12.09"/><use href="#L" x="-262.74" y="-50.9"/><path d="M748.33 515.96l-.5.17c-.34.13-.65.26-.94.42-.16.08-.3.17-.44.26"/><path d="M746.44 516.81l-.1.05m3.37.68c.01-.01.01-.01.02-.01h.03.17"/><use href="#M"/><path d="M749.98 517.47l.02-.14c0-.05.02-.1.03-.14"/><path d="M751.71 517.42c-.28.07-.56.11-.86.12s-.59-.02-.88-.07m1.68-.33s0 .09.02.14c.01.05.03.1.04.14m-2.06 1.81a2.42 2.42 0 0 0 .27-.28m-.21-1.41s-.04-.08-.07-.12-.07-.07-.11-.1m-221.44-99.94l1.02-.47.76-.3m-1.78.77s-.04.05-.05.09v.13"/><path d="M529.75 416.85c0-.05 0-.1.03-.15.02-.04.05-.08.09-.1m0-.14v.09c0 .02 0 .04-.01.05m-4.61-4.3c-.05.04-.12.02-.19-.04m1.91-.71c-.21.07-.44.17-.7.28l-1.02.47"/><path d="M526.76,411.51s.09.04.13.05c.05,0,.09,0,.13-.03"/><use href="#N"/><path d="M526.91 411.61a.47.47 0 0 0 .02.05c0 .02.01.04.02.06 0 .02.01.04.02.06 0 .02.01.04.02.06s.01.04.02.06c0 .02.01.04.02.06 0 .02.01.04.02.06 0 .02.01.04.02.06l.08.33.06.35c.02.12.03.24.04.36l.02.38v.12.13.13.39"/><path d="M527.25 414.25s.04.03.07.04c.02.01.04.03.06.04s.04.03.06.04.04.03.06.04.04.03.06.04.04.03.06.04.04.03.06.04.04.03.06.04.04.03.06.04.04.03.06.04.04.03.06.04l.32.23.3.25c.1.08.19.17.28.26l.26.27c.03.03.05.06.08.09s.05.06.08.09.05.06.08.09.05.06.07.09.05.06.07.1l.07.1m0-.02l.06-.03c.02 0 .04-.02.06-.03.02 0 .04-.02.06-.03.02 0 .04-.02.05-.02.02 0 .04-.02.05-.02.02 0 .04-.02.05-.02s.02-.01.04-.02"/><use href="#O"/><path d="M529.75 416.85v-.03-.03-.03-.03-.03-.03-.09"/><path d="M529.75 416.85h-.03-.03c-.01 0-.02 0-.03.01-.01 0-.02 0-.03.01-.01 0-.02 0-.03.01s-.02 0-.03.01c-.01 0-.02 0-.03.01-.01 0-.02 0-.03.01-.01 0-.02 0-.03.01-.01 0-.02 0-.03.01l-.19.07-.2.09-.22.1-.24.11c-.03.01-.05.03-.08.04s-.06.03-.08.04c-.03.01-.06.03-.09.04s-.06.03-.09.04-.06.03-.09.05-.06.03-.09.05m-.44-.08c.05.07.12.12.19.14s.15.01.22-.02m-.41-.12l-.04-.05c-.01-.02-.03-.04-.04-.05-.01-.02-.03-.04-.04-.05-.01-.02-.03-.04-.04-.05-.01-.02-.03-.03-.04-.05s-.03-.03-.04-.05-.03-.03-.04-.05-.03-.03-.04-.05-.03-.03-.04-.05-.03-.03-.04-.05l-.24-.25-.25-.23-.27-.22-.29-.21c-.03-.02-.07-.04-.1-.07-.03-.02-.07-.04-.1-.07l-.1-.06-.1-.06-.22-.12m-.28-.51v.04c0 .05 0 .08.01.11 0 .03.02.05.03.08.01.02.02.05.04.07 0 .01.01.02.02.03 0 .01.02.02.02.03l.03.03.03.03s.02.02.03.02c0 0 .02.01.03.02.01 0 .02.01.03.02m-.27-.48v-.07-.07-.07-.07-.07-.07-.07-.07-.07-.07c0-.11 0-.23-.02-.34 0-.11-.02-.22-.04-.33l-.06-.32a3.53 3.53 0 0 0-.08-.31c0-.03-.02-.07-.03-.1 0-.03-.02-.06-.03-.1l-.03-.1-.03-.1c-.01-.03-.02-.06-.04-.1-.01-.03-.03-.06-.04-.1"/><path d="M525.05,412.26c-.07.03-.12.08-.15.15-.02.06-.02.14,0,.21"/><use href="#P"/><use href="#Q"/><use href="#R"/><path d="M1012.46 568.44c.02-.01.01-.01.02-.01h.03.03.04.09"/><use href="#M" x="262.75" y="50.9"/><path d="M1012.72 568.36l.02-.14c0-.05.02-.1.03-.14m1.69.24c-.28.07-.56.11-.86.12a5.22 5.22 0 0 1-.88-.07m1.68-.34s0 .09.02.14c.01.05.03.1.04.14M493.82 406.3c.47.28.88.56 1.22.87s.66.65.95 1.04m-2.7-4.83s-.07.06-.12.08-.1.04-.15.04m.27-.12s-.03-.07-.02-.1.05-.06.09-.09"/><path d="M493.32 403.22l.02-.01m4.31 3.92a.55.55 0 0 0 0 .13c0 .04-.02.07-.05.09m.43-.2l-.41.2m-1.41.92l1.02-.47.76-.3m-1.78.77s-.04.05-.05.09v.13m1.71-.74c0-.05 0-.1.03-.15.02-.04.05-.08.09-.1m0-.15v.09c0 .02 0 .04-.01.05m-4.62-4.3c-.06.04-.12.02-.19-.04m1.92-.71c-.21.07-.44.17-.7.28l-1.02.47"/><path d="M494.87,402.41s.09.04.13.05.09,0,.13-.03"/><use href="#N" x="-31.89" y="-9.11"/><path d="M495 402.43c0 .02.01.04.02.06s.01.04.02.06.01.04.02.06c0 .02.01.04.02.06 0 .02.01.04.02.06 0 .02.01.04.02.06 0 .02.01.04.02.06 0 .02.01.04.02.06 0 .02.01.04.02.06l.08.33.06.35c.02.12.03.24.04.36l.02.38v.12.13.13.39m-.01-.02s.04.03.07.04c.02.01.04.03.06.04s.04.03.06.04.04.03.06.04.04.03.06.04.04.03.06.04.04.03.06.04.04.03.06.04.04.03.06.04.04.03.06.04.04.03.06.04l.32.23.3.25c.1.08.19.17.28.26l.26.27c.03.03.05.06.08.09s.05.06.08.09.05.06.08.09a.55.55 0 0 1 .07.09c.02.03.05.06.07.1l.07.1m0-.02l.06-.03c.02 0 .04-.02.06-.03l.06-.03c.02 0 .04-.02.05-.02.02 0 .04-.02.05-.02.02 0 .04-.02.05-.02s.02-.01.04-.02"/><use href="#O" x="-31.88" y="-9.11"/><path d="M497.87 407.75v-.03-.03-.03-.03-.03-.03-.09"/><path d="M497.87 407.75h-.03-.03c-.01 0-.02 0-.03.01-.01 0-.02 0-.03.01-.01 0-.02 0-.03.01s-.02 0-.03.01c-.01 0-.02 0-.03.01s-.02 0-.03.01c-.01 0-.02 0-.03.01s-.02 0-.03.01l-.19.07-.2.09-.22.1-.24.11c-.03.01-.05.03-.08.04s-.06.03-.08.04c-.03.01-.06.03-.09.04s-.06.03-.09.04-.06.03-.09.05-.06.03-.09.05m-.45-.09c.05.07.12.12.19.14s.15.01.22-.02m-.41-.12s-.03-.04-.04-.06-.03-.04-.04-.05c-.01-.02-.03-.04-.04-.05-.01-.02-.03-.04-.04-.05-.01-.02-.03-.03-.04-.05s-.03-.03-.04-.05-.03-.03-.04-.05-.03-.03-.04-.05-.03-.03-.04-.05-.03-.03-.04-.05l-.24-.25-.25-.23-.27-.22-.29-.21c-.03-.02-.07-.04-.1-.07-.03-.02-.07-.04-.1-.07l-.1-.06-.1-.06-.22-.12m-.28-.5v.04c0 .05 0 .08.01.11 0 .03.02.06.03.08s.02.05.04.07c0 .01.01.02.02.03s.02.02.02.03l.03.03.03.03s.02.02.03.02c0 0 .02.01.03.02.01 0 .02.01.03.02m-.27-.48V406v-.07-.07-.07-.07-.07-.07-.07-.07-.07c0-.11 0-.23-.02-.34a1.86 1.86 0 0 0-.04-.33l-.06-.32a3.53 3.53 0 0 0-.08-.31c0-.03-.02-.07-.03-.1 0-.03-.02-.06-.03-.1l-.03-.1-.03-.1c-.01-.03-.02-.06-.04-.1-.01-.03-.03-.06-.04-.1"/><path d="M493.17,403.15c-.07.03-.12.08-.15.15-.03.06-.02.14,0,.21"/><use href="#P" x="-31.88" y="-9.11"/><use href="#Q" x="-31.88" y="-9.11"/><use href="#R" x="-31.88" y="-9.11"/><use href="#S"/><path d="M526.97 414.25l.13-.01h.15m2.28 2h0c0 .02 0 .02-.01.03l-.02.02c-.01.01-.02.01-.03.02 0 0-.01 0-.02.01 0 0-.01 0-.02.01 0 0-.01 0-.02.01 0 0-.02 0-.02.01h-.04m-1.26 1.03s-.09.03-.13.02-.07-.04-.09-.08"/><use href="#T"/><path d="M529.28 416.4c-.28-.41-.59-.76-.93-1.06s-.75-.58-1.25-.85m-1.53.68s-.08.02-.13.02h-.15m-.12-2.7a5.63 5.63 0 0 1 .33 1.25c.06.42.08.9.06 1.43m.14.24l-.08.11c-.03.04-.05.09-.08.13m2.34 1.67c-.09.03-.17.08-.24.16m-1.94-2.07c.47.28.88.56 1.22.87s.66.65.95 1.04m-2.7-4.83s-.07.06-.12.08-.1.04-.15.04m.27-.12s-.03-.07-.02-.1.05-.06.09-.09"/><path d="M525.21 412.33l.01-.01m4.31 3.92a.55.55 0 0 0 0 .13c0 .04-.02.07-.05.09m.43-.2l-.41.2m393.49 250.53l-.69-1.8m-778.38-209.2l.85-1.77m-.59 5.68c-1.12-.32-1.81-.84-1.91-1.41v-.08"/><path d="M142.01 454.5l.26 3.91"/><path d="M143.92,455.99c-1.12-.32-1.81-.84-1.91-1.41-.05-.32.09-.66.4-.98"/><path d="M143.65 452.42l-1.23 1.18m15.39-6.81l-1.19 1.26m421.95 99.25l.21.81m433.61 22.02a2.42 2.42 0 0 0 .27-.28m-.2-1.41s-.04-.08-.07-.12-.07-.07-.11-.1m.18.22c-.18.19-.37.35-.57.47-.19.13-.39.22-.59.28m0 0s0-.1-.03-.15a.36.36 0 0 0-.08-.12"/><path d="M1011.25 569.33c.01-.01.01-.01.02-.01h.03m3.5-1.17l-.1.11c-.03.04-.03.08-.03.12m.58.71c-.09-.06-.18-.14-.28-.26a2.92 2.92 0 0 1-.3-.45m.67.43s-.07.08-.08.13c-.02.05-.02.1 0 .15"/><use href="#U"/><path d="M1011.24 569.33s-.02-.07-.04-.1c-.03-.03-.06-.04-.11-.05m4.15-.12c0-.01.01-.02.01-.03 0 0 0-.01.01-.02 0 0 0-.01.01-.02 0 0 0-.01.01-.02 0 0 0-.01.01-.02v-.04-.09m-.05.24l-.04.04-.04.04c-.01.01-.02.02-.04.03-.01.01-.02.02-.04.03-.01.01-.02.02-.04.03-.01.01-.02.02-.04.03-.01.01-.02.02-.04.03-.01 0-.02.02-.04.03-.01 0-.02.02-.04.03-.01 0-.02.02-.04.03-.01 0-.02.02-.04.03-.01 0-.02.02-.04.03s-.02.02-.04.03c-.01 0-.02.02-.04.02-.01 0-.02.02-.04.02-.02.01-.05.03-.07.04s-.04.03-.07.04c-.02.01-.04.02-.07.04-.02.01-.04.02-.07.03-.02 0-.04.02-.05.02"/><use href="#V"/><path d="M1011.64 569.84h.04.04.03.03.1"/><path d="M1011.64 569.84s-.01 0-.02-.01c0 0-.01 0-.02-.01s-.01 0-.02-.01-.01 0-.02-.01c0 0-.01 0-.02-.01 0 0-.01 0-.02-.01 0 0-.01 0-.02-.01l-.02-.02-.02-.02-.02-.02-.02-.02-.02-.02-.02-.02-.02-.02-.02-.02c-.01-.01-.02-.03-.03-.04s-.02-.03-.03-.05-.02-.03-.04-.05c-.01-.02-.02-.03-.04-.05-.01-.02-.02-.04-.04-.05-.01-.02-.03-.04-.04-.06s-.03-.04-.04-.06-.03-.04-.04-.06"/><path d="M1011.19 568.92h-.03c-.01.01-.01.01-.01.02v.03.04c0 .02 0 .04.01.04m.03-.13s.03 0 .04-.01c.01 0 .03 0 .04-.01.01 0 .03 0 .04-.01.01 0 .03 0 .04-.01.01 0 .03 0 .04-.01.01 0 .03 0 .04-.02.01 0 .02-.01.04-.02.01 0 .02-.01.04-.02.01 0 .02-.01.04-.02.01 0 .02-.01.04-.02.01 0 .02-.01.04-.02.01 0 .02-.01.04-.02.01 0 .02-.01.04-.02.01 0 .02-.01.04-.02.01 0 .02-.02.04-.02.02-.02.05-.03.07-.05s.04-.03.07-.05c.02-.02.04-.03.06-.05s.04-.04.06-.05l.06-.06.06-.06.06-.06c.02-.02.04-.05.07-.07m.47-.14h-.04-.04-.04-.04-.03-.03-.01-.04-.04s-.01 0-.02.01c0 0-.02 0-.02.01 0 0-.02 0-.02.02 0 0-.02.01-.02.02 0 0-.02.01-.02.02l-.02.02"/><use href="#W"/><path d="M1014.8 568.15v-.03h-.04-.04-.05-.1"/><path d="M1014.8 568.15l.02.04c0 .01.01.02.02.03 0 .01.01.02.02.03 0 .01.01.02.02.03 0 .01.01.02.02.03s.01.02.02.03c0 0 .01.02.02.03 0 0 .01.02.02.03 0 0 .01.02.02.03 0 0 .01.02.02.03s.01.02.02.03c0 0 .01.02.02.02s.01.02.02.02c0 0 .01.02.02.02 0 0 .01.02.02.02.01.01.02.03.03.04s.02.02.03.04l.03.03.03.03c.01 0 .02.02.03.03.01 0 .02.02.03.02s.02.02.03.02.02.01.03.02"/><use href="#X"/><path d="M565.15 464.67h-.03-.03-.03-.09m2.13.01c-.02-.01-.01-.01-.02-.01h-.06m-.19-.33s0 .09.02.14c.01.05.03.1.04.14m-1.69-.24l-.03.14c0 .05-.02.1-.02.14"/><path d="M565.15 464.67c.29.05.59.08.88.07a3.42 3.42 0 0 0 .85-.12m-1.79 1.53l-.03.03c-.01.01-.02.02-.03.04-.01.01-.02.03-.04.04l-.04.04-.11.11m-.14-1.89s.08.06.11.1.06.08.07.12m-1.15.76a2.44 2.44 0 0 0 .59-.28 3.99 3.99 0 0 0 .56-.47m-1.26.48s.06.08.08.12a.4.4 0 0 1 .03.15m3.5-1.05l-.1.11c-.03.04-.03.08-.03.12m0 0c.1.18.21.33.3.45.1.12.19.2.28.26"/><path d="M567.68 465.39v-.15c.02-.05.04-.09.08-.13"/><use href="#U" x="-447.57" y="-103.7"/><path d="M563.52 465.48a.31.31 0 0 0 .11.05c.03.03.04.06.05.1m1.02-1.11l.02-.02.02-.02c.01-.01.01-.01.02-.01h.04.04.04.04.03.03.03.03.03.12m1.64-.13s-.03 0-.04.01-.03 0-.04.01c-.01 0-.03 0-.04.01-.01 0-.03 0-.04.01s-.03 0-.04 0h-.04-.04-.05-.05c-.02 0-.05 0-.07.01-.03 0-.06 0-.09.01h-.11-.13-.21c-.06 0-.13 0-.19-.01h-.09c-.03 0-.06 0-.08-.01s-.06 0-.08-.01c-.03 0-.06 0-.08-.01-.03 0-.06-.01-.08-.02m1.59 0h.04.04.04.04.04.04.03.03s.02 0 .02.01c0 0 .01 0 .02.01s.01 0 .02.01l.02.02.02.02s.01.01.01.02c0 0 0 .01.01.02m.52.67h-.03c-.01 0-.01 0-.02-.01 0 0-.01 0-.02-.01 0 0-.01 0-.02-.01s-.01 0-.02-.01c0 0-.01 0-.02-.01 0 0-.02-.01-.02-.02-.01 0-.02-.02-.03-.03s-.02-.03-.04-.04c-.01-.02-.03-.03-.04-.05-.02-.03-.05-.06-.07-.09l-.06-.09c0-.01-.02-.03-.03-.05 0-.02-.02-.03-.03-.05s-.02-.03-.03-.05c0-.02-.02-.03-.03-.05 0-.02-.02-.03-.03-.05"/><path d="M567.77 465.12v.04s0 .01-.01.02c0 0 0 .01-.01.02l-.02.02-.06.06m-.86.71c.03 0 .04 0 .05-.01.02 0 .03-.02.05-.02l.06-.03c.02-.01.05-.03.07-.04.03-.02.06-.03.08-.05.05-.03.1-.06.14-.1l.13-.1c.02-.02.04-.03.06-.05s.04-.03.05-.05c.02-.02.04-.03.05-.05.02-.02.04-.03.05-.05l.05-.05m-3.19.87h.05.05.15m-.25 0h-.04-.04-.04-.04-.04-.04-.03-.04-.11m-.52-.78s.01.02.02.03.01.02.02.03c0 0 .01.02.02.03s.01.02.02.03c0 0 .01.02.02.03 0 0 .01.02.02.03 0 0 .01.02.02.03 0 0 .01.02.02.02 0 0 .01.02.02.02 0 .01.02.03.03.04.01.02.02.03.03.04.01.02.03.03.04.05s.03.04.04.05a.57.57 0 0 0 .07.08l.06.06s.02.02.03.02c0 0 .02.01.02.02 0 0 .02.01.02.02 0 0 .02.01.02.02l.02.02"/><path d="M563.52 465.48v-.03-.03-.03c0-.03 0-.03.01-.03l.02-.02s.01 0 .02-.01c0 0 .01 0 .02-.01h.04"/><path d="M564.7 464.52l-.03.03-.03.03-.03.03-.03.03-.03.03-.03.03-.03.03-.03.03-.03.03c-.02.01-.03.03-.05.04-.02.02-.04.03-.06.05s-.05.04-.07.05c-.03.02-.06.04-.08.06l-.14.09-.13.07c-.02 0-.04.02-.06.03-.02 0-.04.02-.06.02s-.04.01-.06.02c-.02 0-.04.01-.06.02-.02 0-.04.01-.06.02m3.7.48a1.71 1.71 0 0 1-.23.13 3.5 3.5 0 0 1-.55.22c-.21.07-.43.12-.66.16a4.11 4.11 0 0 1-.69.06c-.12 0-.24 0-.35-.02"/><use href="#S" x="-31.88" y="-9.11"/><path d="M495.09 405.14l.13-.01h.15m-.15.26h0v-.04m2.43 1.78l-.02.02-.02.02s-.01 0-.02.01c0 0-.01 0-.02.01 0 0-.01 0-.02.01 0 0-.01 0-.02.01 0 0-.02 0-.02.01h-.04m-1.26 1.05s-.09.03-.13.02-.07-.04-.09-.08"/><use href="#T" x="-31.88" y="-9.11"/><path d="M497.4 407.29c-.28-.41-.59-.76-.93-1.06-.34-.29-.75-.58-1.25-.85m-1.54.68s-.08.02-.13.02h-.15m-.11-2.7a5.63 5.63 0 0 1 .33 1.25c.06.42.08.9.06 1.43m.14.24l-.08.11c-.03.04-.05.09-.08.13m2.34 1.67c-.09.03-.17.08-.24.16M144.4 451.9c-.36.18-.64.38-.83.6s-.27.44-.23.66c.03.22.17.42.41.6.25.19.59.34 1.02.46"/><use href="#Y"/><path d="M926.86 676.72l-1.14-1.61m-6.01.5c.41.12.89.2 1.43.24a11.22 11.22 0 0 0 1.64 0c.54-.04 1.07-.13 1.58-.25.53-.13.98-.29 1.36-.48m-6.86 2.26l.85-1.77"/><use href="#Y" x="-0.27" y="-3.91"/><path d="M1174.3 548.89l-.35-5.21m3.71 12.83c.09 1.37-1.2 2.83-3.55 4.01"/><path d="M1177.66 556.51l-.52-7.82m-6.03-1.81c1.97-.99 3-2.22 2.82-3.37-.18-1.14-1.58-2.18-3.81-2.82m1.34 11.41c1.88-.94 2.91-2.11 2.84-3.21"/><path d="M1173.59 552.7c2.46-1.23 3.76-2.78 3.53-4.21-.18-1.1-1.25-2.12-3-2.89M354.13 184.74l-.06-.18m395.64 332.98c-.18.19-.37.35-.57.47-.19.13-.39.22-.59.28m0 .01s0-.1-.03-.15a.36.36 0 0 0-.08-.12"/><path d="M748.5 518.43c.02-.01.01-.01.02-.01h.03m3.5-1.17l-.1.11c-.02.04-.03.08-.03.12m.59.71c-.09-.06-.18-.14-.28-.26a2.92 2.92 0 0 1-.3-.45m.67.44s-.07.08-.08.13c-.02.05-.02.1 0 .15"/><use href="#U" x="-262.75" y="-50.9"/><path d="M748.5 518.43s-.02-.07-.04-.1c-.03-.03-.06-.04-.11-.05m4.15-.11c0-.01.01-.02.01-.03 0 0 0-.01.01-.02 0 0 0-.01.01-.02 0 0 0-.01.01-.02 0 0 0-.01.01-.02v-.04-.03-.03c0-.02 0-.02-.01-.02m-.04.23l-.04.04-.04.04c-.01.01-.02.02-.04.03-.01.01-.02.02-.04.03-.01.01-.02.02-.04.03-.01.01-.02.02-.04.03-.01.01-.02.02-.04.03-.01 0-.02.02-.04.03-.01 0-.02.02-.04.03-.01 0-.02.02-.04.03-.01 0-.02.02-.04.03-.01 0-.02.02-.04.03s-.02.02-.04.03c-.01 0-.02.02-.04.02-.01 0-.02.02-.04.02-.02.01-.05.03-.07.04s-.04.03-.07.04c-.02.01-.04.02-.07.04s-.04.02-.07.03c-.02 0-.04.02-.05.02"/><use href="#V" x="-262.75" y="-50.89"/><path d="M748.89 518.95h0 .04.04.03.03.1"/><path d="M748.89 518.95s-.01 0-.02-.01-.01 0-.02-.01c0 0-.01 0-.02-.01s-.01 0-.02-.01c0 0-.01 0-.02-.01 0 0-.01 0-.02-.01 0 0-.01 0-.02-.01l-.02-.02-.02-.02-.02-.02-.02-.02-.02-.02-.02-.02-.02-.02-.02-.02c-.01-.01-.02-.03-.03-.04s-.02-.03-.03-.05-.02-.03-.04-.05c-.01-.02-.02-.03-.04-.05-.01-.02-.02-.04-.04-.05-.01-.02-.03-.04-.04-.06s-.03-.04-.04-.06-.03-.04-.04-.06m.16-.27h-.03-.01v.03.03.04c0 .02 0 .03.01.04"/><path d="M748.45 518.03s.03 0 .04-.01c.01 0 .03 0 .04-.01.01 0 .03 0 .04-.01.01 0 .03 0 .04-.01.01 0 .03 0 .04-.01.01 0 .03 0 .04-.02.01 0 .02-.01.04-.02.01 0 .02-.01.04-.02l.04-.02c.01 0 .02-.01.04-.02.01 0 .02-.01.04-.02.01 0 .02-.01.04-.02.01 0 .02-.01.04-.02.01 0 .02-.01.04-.02s.02-.02.04-.02c.02-.02.05-.03.07-.05s.04-.03.07-.05c.02-.02.04-.03.06-.05s.04-.04.06-.05l.06-.06.06-.06.06-.06c.02-.02.04-.05.07-.07m.47-.15h-.04-.04-.04-.04-.03-.02-.02 0-.04-.04s-.01 0-.02.01c0 0-.02 0-.02.01 0 0-.02 0-.02.02 0 0-.02.01-.02.02 0 0-.02.01-.02.02l-.02.02"/><use href="#W" x="-262.74" y="-50.89"/><path d="M752.05 517.25v-.03h-.04-.04-.05-.1"/><path d="M752.05 517.25l.02.04c0 .01.01.02.02.03 0 .01.01.02.02.03 0 .01.01.02.02.03 0 .01.01.02.02.03 0 .01.01.02.02.03 0 0 .01.02.02.03 0 0 .01.02.02.03s.01.02.02.03c0 0 .01.02.02.03 0 0 .01.02.02.03 0 0 .01.02.02.02s.01.02.02.02.01.02.02.02c0 0 .01.02.02.02.01.01.02.03.03.04s.02.02.03.04.02.02.03.03l.03.03c.01 0 .02.02.03.03.01 0 .02.02.03.02s.02.02.03.02.02.01.03.02"/><use href="#X" x="-262.75" y="-50.89"/><path d="M1102.85 445.15c3.9-.08 7.36-1.4 7.74-2.94a1.19 1.19 0 0 0 .02-.42m-7.76 3.36c-1.9.04-3.77.44-5.04 1.07"/></g></g><circle cx="493" cy="578.53" r="11.96" class="E"/><text fill="#fff" font-family="Boldena-Bold, Boldena" font-size="15.4" font-weight="700"><tspan x="488.65" y="583.36">3</tspan></text><g opacity=".96" class="E"><path d="M164.82 416.49l5.73-5.72 13.51 13.5 13.5-13.5 5.73 5.72-19.23 19.24-19.24-19.24zm0-38.46l5.73-5.73 13.51 13.5 13.5-13.5 5.73 5.73-19.23 19.23-19.24-19.23z"/></g><g opacity=".96" class="E"><use href="#Z"/><use href="#Z" y="-38.47"/></g><defs ><path id="B" d="M525.22 411.43c-1.11.73-1.08 2.75.07 4.51s2.99 2.6 4.1 1.87 1.08-2.75-.07-4.51-2.99-2.6-4.1-1.87h0z"/><path id="C" d="M528.35 421.82c3.55 1.22 6.08-1.1 5.65-5.17a9.86 9.86 0 0 0-.36-1.78"/><path id="D" d="M906.75 301.36c.94 3.67 7.36 6.06 14.33 5.34h.06"/><path id="E" d="M485.36 399.41c-1.46 4.54 1.24 11.36 6.04 15.23s9.87 3.32 11.32-1.22c.84-2.61.32-6.11-1.39-9.45"/><path id="F" d="M188.13 450.67c-.15-1.03-2.09-1.59-4.34-1.26s-3.94 1.43-3.79 2.46 2.09 1.59 4.34 1.26 3.94-1.43 3.79-2.46h0z"/><path id="G" d="M898.43 657.11c.15 1.03 2.09 1.59 4.34 1.26s3.94-1.43 3.79-2.46-2.09-1.59-4.34-1.26-3.94 1.43-3.79 2.46h0z"/><path id="H" d="M187.26 452.07c-1.62-.54-4.2-.22-5.76.72l-.15.09"/><path id="I" d="M1014.9 569.42c.81-.53.71-1.17-.23-1.44s-2.35-.06-3.16.47c-.39.25-.58.54-.54.81"/><path id="J" d="M731.67 421.89a9.86 9.86 0 0 0-1.45-.48"/><path id="K" d="M489.17 401.8a2.71 2.71 0 0 0-.04.4c-.02.37 0 .76.05 1.15l.04.31"/><path id="L" d="M1008.96 567.85l-.26.18a3.25 3.25 0 0 0-.59.58c-.15.18-.26.37-.35.57-.08.19-.14.38-.14.57 0 .07.01.13.03.2"/><path id="M" d="M751.71 517.42h.03.03.03.04s.01 0 .02.01.01.02.02.03c0 0 0 .01.01.02"/><path id="N" d="M526.95 411.56h.05c.02 0 .04.01.06.02.03.01.06.03.09.04.01 0 .02.01.03.02"/><path id="O" d="M529.51 413.93s.01.04.02.06c0 .02.01.04.02.06 0 .02.01.04.02.06 0 .02.01.04.02.06 0 .02.01.04.02.06 0 .02.01.04.02.06 0 .02.01.04.02.06 0 .02.01.04.02.06 0 .02.01.04.02.06 0 .02.01.04.02.06.03.1.05.2.07.31l.06.32c.02.11.03.22.04.33l.02.34v.14.14.43"/><path id="P" d="M525.05 412.26l.06-.03c.02 0 .04-.02.06-.03.02 0 .04-.02.05-.02.02 0 .04-.02.05-.02.02 0 .04-.02.05-.02.02 0 .03-.02.05-.02s.03-.02.05-.02.03-.02.05-.02.03-.01.05-.02c.02 0 .03-.01.05-.02l.24-.11c.08-.03.15-.07.22-.1l.21-.09.19-.08c.02 0 .04-.02.06-.02s.04-.02.06-.02.04-.01.05-.02c.02 0 .04-.01.05-.02.02 0 .03-.01.05-.02.02 0 .03-.01.05-.02"/><path id="Q" d="M527.16 411.63h-.04-.04-.04-.04-.04-.04-.03-.04-.03-.11"/><path id="R" d="M527.16 411.63s.04.03.06.04.04.03.06.04.04.03.06.04.04.03.06.04.04.03.06.04.04.03.06.04.04.03.06.04.04.03.06.04.04.03.06.04.04.03.06.04l.29.21.27.22.25.23.24.25c.02.03.05.05.07.08a.57.57 0 0 0 .14.16c.02.03.05.06.07.09s.05.06.07.09.05.06.07.09"/><path id="S" d="M525.7 415.41h-.03c-.02-.02-.04-.04-.04-.06v-.09"/><path id="T" d="M526.97 414.25c.04-.55.02-1.03-.04-1.44s-.18-.83-.36-1.24"/><path id="U" d="M1015.27 569.01s0 .01-.01.02l-.03.03s-.01.02-.02.02"/><path id="V" d="M1012.28 569.99h-.03c-.04 0-.07 0-.11-.02-.04 0-.07-.01-.11-.02"/><path id="W" d="M1012.77 568.08s.04 0 .06.01c.02 0 .04 0 .06.01h.06.06.06.05.05.05.05.05.05.05.05.05.05.1.1c.03 0 .07 0 .1-.01.03 0 .07 0 .1-.01.03 0 .07-.01.1-.02.03 0 .07-.01.1-.02.03 0 .07-.02.1-.02s.07-.02.1-.03"/><path id="X" d="M1015 569.33s-.05.05-.08.07c-.1.08-.26.16-.43.24-.18.08-.38.15-.59.2-.22.06-.45.1-.68.13s-.47.04-.68.03a2.14 2.14 0 0 1-.45-.05"/><path id="Y" d="M927.13 680.63c-.99.49-2.42.85-3.9.97s-2.99 0-4.11-.31"/><path id="Z" d="M883.26 620.73l5.73-5.72 13.5 13.5 13.51-13.5 5.73 5.72-19.24 19.24-19.23-19.24z"/></defs></svg>