<svg xmlns="http://www.w3.org/2000/svg" viewBox="0 0 1303.9 850.4" xmlns:v="https://vecta.io/nano"><style><![CDATA[.G{stroke:#ececec}.H{stroke-linecap:round}.I{stroke-width:.5}.J{stroke-width:.4}.K{fill:#1490ed}]]></style><g class="K"><use href="#B"/><use href="#B" x="-274.8" y="-58.5"/><use href="#B" x="-471.8" y="-100.5"/><use href="#B" x="-739.8" y="-157.7"/></g><g fill="none" stroke-linejoin="round"><g class="I"><path d="M883 569.3v1.9c-.5-.1-.9-.3-1.2-.2l-5.5 1.4c-1.6.3-2.5 1.2-2.8 2.7-.3 1.6-.4 3.3-.5 5-.2 4.7-4.1 8.7-9.7 5.9-.4-.2-1 0-1.5 0-.5-.4-.9-.8-1.3-1.2-1.6.2-3 .4-4.5.4-1 0-2.4-.1-3.3-.7-2.4-1.7-4.3-1.2-6.2-.3-2 .9-3.8 2.1-5.8 2.9-1.2.5-2.9 1.1-4.1.6-1.9-.8-3.7-1.5-5.8-1.2 0 1.3.2 2.6.3 4 .2 3-.2 5.5-2.6 6.9s-6.1-.2-7.4-3.1c.2-1.2.4-2.1.5-3 0-.6 0-1.3.2-1.9.4-1.3.7-2.7 1.3-3.9 1.4-2.5 1.2-3.9-1.6-6-1.8-1.4-3.4-3-4.1-5.1-.3-1-.3-2-.4-2.8l-2.4-.5c-1.6 2.4-3.3 4.5-4.4 6.9-1 2.1-2.5 3.9-2.6 6.7 0 1.8-1.1 3.3-3 3.8-.7.2-1.3.6-1.8.9.9 3.6 3.4 6.9 2.1 10-2 .6-4.1.1-5.1 1.8-1.1 0-2.2-.1-3.1-.2-3.5-3.7-1.9-7.3-2.3-11.1-1-.3-1.9-.7-2.8-.9-4.1-1-7.3-3.5-8.2-7.2-.2-.7-1.1-1.4-1.9-2.5-.8 3.2-1.9 5.7-4.4 7-.9.5-1.8 1.1-2.6 1.6 1.4 3.6 2.6 6.6 1.7 9.4-1 0-1.9 0-2.6.2-2.5.7-5.2-.7-5.9-3.5-.5-2.4-.4-4.9-.6-7.6-2.8-1.4-5-4-6.4-7.5-.4-1-1.2-1.9-1.9-2.9-.5.4-.8.5-.9.7-1.9 3-3.6 6.2-7.7 6.9-1.2.2-1.6 1.2-1.6 2.5v5.5c0 1.4-.3 2.7-1.6 3.2-2.3.9-4.6 2.2-7.7.3l-2.2-7.7c.5-1.3 1.2-2.7 1.9-4.4l-11.1-6.4s-.2 0-.5.1c-2.4.5-3.8 2.4-5.7 3.6-.7.4-1.5 1-2.4 1-.7 0-2.1-.6-2.3-1.1-.5-1.1-.4-2.3-.7-4 3 1.4 4.3 0 5.6-1.3 2.9-2.9 6.3-3.2 10.5-.7 2.6-3 2.7-4 .8-7.3-1.1.2-2.4.3-3.5.7-1.4.4-2.8 1-4.2 1.5-3.4 1-5.5 0-7.5-3.8-.4-.8-1-1.5-1.5-2.3-1.6.5-3.4.6-3 2.7.2 1 1.1 2 1.7 3.1a.76.76 0 0 0 .4-.2l.6 3.6-3.8 1.7c-.2 3.9-.6 7.8-5.7 7.6.2 4.8.5 9.5-5 11-1.7-1.3-3.7-2.7-5.3-3.9v-9.4c-.7-.4-1.5-1.1-2.2-1.2-2.4-.3-4.8-.1-7.3-.6-1.9-.4-3.1 0-4.2 1.2-1.1 1.1-2.7 1.7-2.9 3.8-.3 2.6-.6 2.5-3.2 3.3-.4.1-.7.4-1.2.7l-1.3-.8c-2.5-4 1.4-4.9 1.9-7.4-1.1-.1-1.9-.2-2.7-.2-2.3-.2-3.1 1.4-2.2 3.7s2.4 4.8.3 6.9c-1.4-.2-2.9-.2-4.5-.5-1.5-.3-3-1.2-3.2-2.9s-.2-3.6.5-4.9c.9-1.8-.3-2.9-1.4-4.1-.5-.5-1.4-.8-2-1.3-1.1-1.1-2.6-2.1-3.2-3.4-1.6-3.3-3.6-6.3-6-9.2-.8-1-1.7-2.2-2.8-1.8-.9.3-1.8.8-1.9 2.4-.2 2.8-1 5.4-1.7 8-1.2 4.2-2 8.5-5.6 11.2-1.2.9-1.5 2.9-2.3 4.4l-2.1-.4c-.2-1.1-.5-2.1-.8-3.4l-12.5-6 1.4-3.9c-.3-.5-.7-1.2-1.2-1.9 3.3.3 3.7.4 6.4 1.9 1.2-.3 2.3-.6 3.7-.9 1.8-2.9-.2-6.5-1.3-9.8a68.48 68.48 0 0 1-3-1.3c-2.7 2.4-5.6 4.2-9.5.3-2.2-.4-2.6 1-2.7 2.3-.1 2.8-1.5 4.9-2.4 7.1-1.1 2.7-3.2 4.8-4.7 7l-2.6 5.7c-1.5-2.2-2.9-4.1-3.9-6.1-1.1-2.1-2.6-3.4-4.7-4.3a167.34 167.34 0 0 0-4.8-2l-.7-3.2c.1 0 .2 0 .3.1.2-1 .4-2.1.6-3.6l5.3 1.1c-.2-3.2-1.9-5.8-2.8-8.2l-6.5-1.4c-1.9.9-4.2 2.1-6.4 3.3-1.8.9-4 1.2-4.7 3.6-.1.5-1.3.5-1.9.7-1.5.6-3.8 0-4.8 2l2.7 8.4h-1.5v4.8c-1 .4-2.2.8-3.3 1.3-1.5 0-3 1.9-5-.1a9.36 9.36 0 0 1 1.6-.4c-.3-.6-.5-1.1-.7-1.5-4.6-.8-1.7-4.2-3.4-6.4-3.9.8-7.7 0-11.1-4.3-.4-.2-1.2-.4-1.9-.9-3-2.4-6.2-4.1-9.5-5.8-3.8-2-6.2-.9-6.2 3.1v1.5c-.3 2.7-1.5 4.8-3.8 5.7-2.8 1.1-8-3.2-8.1-6.5 0-2.3-.2-4.6-.3-6.8-3.3-2.7-6.6-5.1-8-9.2-.2-.5-.5-1.2-.9-1.5-.7-.5-1.8-1.3-2.3-1.1-.6.2-1.2 1.4-1.1 2.1.3 1.4.9 3.1 2 4.1 1.4 1.4 1.7 2.7 1.9 4.2.1 1.4 0 2.8 0 4.2 0 3.1-.7 3.7-3.7 3.6-.7 0-1.3.2-2.2.5 1.6.8 2.7 1.5 3.8 2h-.7c-.9.6-1.8.2-2.9-.5-1.9-1.3-3.7-2.9-5.7-3.8-1.5-.7-2.3-1.2-2.4-2.8 0-1.5-.3-3-.6-5l-2.7 3c-1.9-.2-2.8-1-3-3.1 0-1.1-.4-1.9-1.1-2.9-2.2-3.1-4.2-6.3-4.9-10-.5-2.7-1.4-5.4-2-7.9-1.1-.2-2.3-.9-3-.6-2.6 1.2-4.7-.4-6.9-2.2-1.2-1-2.4-2-3.9-3.4-.7 1.4-1.3 2.4-1.8 3.5-.4 1.1-.5 2.2-.8 3.3.2 3.2 3.1 3.2 4.6 4.3l5.7.3c-.1 1.1-.2 1.7-.3 2.3.4.7 1 1.4 1 2 .2 1.8-1 3.2-2.8 3.3-1.3.1-2.7-.1-4 0-2.8.4-5.1 1.5-6.2 4.3-.3.7-1.2 1-2 1.3-.1 0-1-.7-1-1-.3-1.7-.5-3.3-.8-5.3-2.5-2.4-4.4-5.6-5.6-9.1-1.3-3.9-2.2-8-3.4-11.9-.2-.6-.7-1.2-1.2-2.2-1.5 1.7-3.1 2.8-3.7 4.4-.9 2.4-2.5 3.3-4.9 3.6-1.1.2-2.1.8-3 1.2 1.8 6.8 1.8 8.8-1.7 10.4l-4.5-1c-.8-1.6-1.6-3.2-2.5-4.8-.7-.6-1.6-1.9-2.3-1.9-2-.2-2.2-1.6-2.6-2.9-.3-1-.2-1.9-.3-2.8l-5.6-6.8-10.5-2.2c-.1.8-.4 1.3-.3 1.9.2 1.2.9 2.5.8 3.7-.1 2.1.3 4.6-1.9 5.5-.7.3-1.6.4-2.2.6l-5.7-4.4-1.3-9.4c-3.5-2.2-4.8-2.6-4.9-7.6 0-1.2.2-2.6-1.9-3.4-.8-.3-1.9-2.1-2.1-3.2-.2-1.3.2-2.6 1.8-2.9 1-.2 1.7-.9 2.8-1.5l-6.9-7.1c-.8 1.4-1.5 2.7-2.2 3.8-1 1.7-3.3 2.5-4.8 1.6-1.1-.7-2.2-1.6-3.3-2.4l-6.6-4.8c-.6 1.5-1.1 2.7-1.5 4 .9 1.4 1.7 2.7 2.3 3.8l6.5 1.1c1.3 1.5 3 3.6 5 5.5 1.5 1.5 3.4 2.7 5 3.9-1.3 3.5-3 3.6-5.4.8l-6.1-6.9-11.7 1.8c2 3.2 2 5.9 1.1 8.6-.5 1.3-.4 2.7-2.4 2.9-3.4.3-7.2-2.2-7.7-6.2-.2-2-.3-4-.2-6 0-1.7-.4-2.9-2.2-3.8-1.1-.6-2.2-1.6-2.8-2.6-1.9-2.9-3.7-6-5.5-9.1-2.8 3.2-3.3 8.9-9.3 8.5 1.2 6.5-1.4 11.1-6.3 10.9-.4-.6-1-1.4-1.6-2.2h-.7c.3-.1.6-.1 1-.1-3-4.3-1.3-7.3 1.1-10.1-3.1-2.5-5.9-4.9-6.5-8.6-.1-.8-.4-1.7-.4-2.5 0-1.2.5-2.3.4-3.4-.3-2.3.8-3.4 2.4-4.4.8-.5 1.3-1.3 2.1-2.2l-2.2-1.4c-.2 0-.5 0-.5.2-1 2.8-3.2 4.5-5.3 6.4-.9.8-1.5 2.1-2 3.3-1.2 3.4-4 4.2-7.5 4.1-1 0-2.1-.2-3.3-.3v4.4c0 4.1-2.6 5.7-6.6 4-1.4-.6-2.7-1.6-3.7-2.2-1.7-3.7-.7-6.2 1-8.5.4-.6 0-1.9 0-2.8-2.9-1.6-4.3-3.7-4-6.5.2-2.2-1.8-3.6-2.5-5.5l-4.2 4.1c-3.5-.8-6.7-3.8-7.8-7.2-.5-1.4-.5-3.1-2.6-3.9-1.6.7-3.3.3-5.4-.6-1.9-.8-3.9-.9-5.1-3.4-.3-.7-1.6-1.1-2.6-1.8-.7 1.5-1.4 2.8-2 4.1 1.2 1.9 2.3 3.8 3.3 5.6-1.1 1.1-2.1 2.2-2.9 3l-2.6-.5c-.4-.7-.9-1.2-1.2-1.8-.5-1-.8-1.8-.5-3 .8-2.9 1.2-5.9 1.9-8.8.2-.7.7-1.3 1.1-2 .3-.7.6-1.4.9-2.2-2.7-1.5-3.7.4-5.1 1.3-1.3.9-2.4 1.9-3.8 2.7-2.9 1.7-5.1 1.4-7.9-1.3-1.9-1.8-3.5-3.9-5.1-5.9-1-1.3-2.1-2.2-3.5-3a128.43 128.43 0 0 1-11.4-7.9c-1.6-1.2-2.8-.7-4.2-1-.7-.1-1.4.3-2.2.5-.4-1.2-.7-2.3-1.1-3.5 2-1.5 3.9-3 6-4.3h.1v-3.4l391.9 83.8c.8 0 1.6.2 2.4.5l30.8 6.6c1.1.2 2.3.5 3.5.7.4 0 .8.2 1.1.3l47.9 10.2v-.3l12.6 2.7c1 .2 2.1.2 3.1.5l14.8 3.6 22.6 4.8c1.1.2 2.3.5 3.4.7.2 0 .4.1.7.2l116.4 24.9v3.8l-1.9-.4c.6.4 1.2.8 1.9 1.4 2.7-1.7 5.4-1.1 8.3 1.2z" stroke="#666"/><g class="G H"><path d="M926 528.4v.4m11.6-.8l-.1-.4m-9.6-2.1l-.4.2m8.2-.5l-.4-.2M638.9 423.6h0m9.5-.6v-.1m17 12.9l5.4 1.1m155-78.8l203.8 43.5m-280.9 47.2l67.1-88.1m218.1 36.4l-1.1.8m-71.2 93.5l71.2-93.5m-70.1 92.7l-1.1.8M1151.3 373l-19.5 21.2m0 0l-1.2-1.3m-651.2 67l-.3 4.5m.3-4.5l82.8 17.7"/><path d="M562.2 477.6l-.8-11.4m0 0l93.4 20m6.4 1.3l1 .2m.8 11.4l-.8-11.4m.8 11.4l82.8 17.6m.9 4.8l-.9-4.8m10.9 6.9l172.8 17.9m6.3.7l84.8 8.8m-1.6-23.7L207.5 354.1m450.2 66.7l-7.9 10.3"/><path d="M635.8 482.1l-2.7 3.5m-.7.2l-.4-.1m-.2-.4l2.7-3.5m-12-1.9l-.4-.1m29.1-9.4l.1 2.5m11.6-.4l-.2-2.7"/><path d="M651.2 470.6l.2 2.7m10 16.7l-.9-14.2m-6.3.4l.9 14.2m-106.2 22.7l.1 1.3"/><path d="M549 512.9l-.1.1m-3.6-3.1l.1 1.3m0-1.5l-.1.1m10.4 6h.3m-.8 0h.1m-6.1-1.2l5.9 1.3"/><path d="M551.7 512.7v-.1m-6.1-1.1l5.9 1.2M534 496.2l.5 7.2m21.5 11.2l.1 1.3"/><path d="M556.1 514.4l-.1.1m-3.6-3.1l.1 1.3m0-1.5l-.1.1m10.4 6l.3.1m-.8 0l.1-.1m-6.1-1.2l5.9 1.3"/><path d="M558.8 514.2h0m-6.1-1.2l5.9 1.2m50.4-33.4l-.4-.1m-.2-.4l1.9-2.5m-4-.9l-1.9 2.6m-.7.2l-.4-.1m-.2-.4l1.9-2.6m6.8 4.8l-.4-.1m-.3-.4l2.7-3.5m1.3.3l-2.7 3.5m9.5 2.3h-.4m-.1-.6l4.7-1.8m0 0l.7-.9m1.3.3l-.7.9m0 0l.5 1.7m0 0l.4 1.3m-.7.4l-.5-.1m-.3-.2l-.2-.8m0 0l-.2-.9m-1.6-.3l-2.5 1m18.4 3.7l2.7-3.5m-8.5 2.6l5.1 1.1m-5.3-1.6l-.1.1"/><path d="M639.7 486.5l-4.3-.9m5.3-.4l-1 1.3m-3-2.2l4 .9m295.6 63.4l-1-14.1m-6.2.4l.9 14.2"/></g></g><path d="M658.1 469.1l-.2-1.9m-2.6.3l.1 1.9" class="J G H"/><g class="I G H"><path d="M454.2 428.3l.1 2.6m11.6-.4l-.2-2.7"/><path d="M454.2 428.6l.2 2.7m10 16.7l-.9-14.2m-6.3.4l.9 14.2m188.6-35.1h0"/></g><path d="M235.4 341.7l-.1-1.9m-2.7.3l.1 1.9m2.8-2.1l.1 1.8m1.5-.6v-.1m-4.6 1.1l-.1-1.9m-1.1 1.4v.1" class="J G H"/><g class="I G H"><path d="M1107.8 362.2l-.3.2m8.1-.5l-.4-.2m-981.8 90l.6 10.4m758.5-145.9l-.4.2m8.2-.5l-.4-.2M583.5 422.8h0m9.6-.6h0m-21.3-174.4l-.3.2m8.1-.5l-.4-.2m80.1 167.9l-.3-3.3m-78 12.3l.2 3.3m13.4 4.5l.2 3.3m12.3-11.9l-.4.5m8.6 1.2l-.3.5m3.9 7.6l2-2.6M602 421l-7 9.1m19.9 8.5l1.9-2.5"/><path d="M598.6 402.9v.1m9.6-.6v-.1M365.6 203.8l-.3.2m8.1-.5l-.3-.2"/></g><path d="M328.1 194.1l-.2-3.2" class="G H J"/><path d="M327.9 190.9l-68.4 74.5" class="G H I"/><path d="M191.5 337.5l-.2-2.4" class="G H J"/><path d="M204.9 386.8l1.2-1.7m3.7 4.5l-3.1 4.1" class="I G H"/><path d="M209.8 389.6l-.7-10.6m-13.7-36.9l1.8 26.3m.4 6l.8 13.3" class="J G H"/><path d="M198.9 387.9l-.5-.2" class="G H I"/><path d="M201.9 341.1l3 45.7m-6 1.1l-3-45.7" class="J G H"/><path d="M258.6 271.8l-56 61" class="G H I"/><path d="M258.6 271.8l-6.3-1.3" class="G H J"/><path d="M251.6 272.1l.3-.3m-10.8 11.6l2.7-2.9m-13.1 14.3l2.7-2.9m-13.2 14.3l2.7-2.9m-13.1 14.3l2.6-2.9M199.3 329l2.7-2.9m-6.6 16l.5.1m9.3-4.8l-3.3 3.7" class="I G H"/><path d="M341.3 188.4l.1 2.2" class="G H J"/><path d="M1151.3 361.2l-810-172.8" class="G H I"/><path d="M331.5 177l.1 4.4m835.1 178.2l-.1-4.4m-15.2 8.2l-.1-2.2" class="J G H"/><g class="I G H"><path d="M530.9 507.2l.1 1m3.7 1.8l.1 1.4"/><path d="M534.7 509.9h0m-2.3-7.2L531 507m10.5 5.7l.3.1m-.8 0h.1m-6.1-1.2l5.9 1.2"/><path d="M537.4 509.7l.1-.1m-6.3-1.2l6.1 1.3M533 506l.1.7m1.3-4.9l-.4 1.2m.4-1.3l-1.4 4.1m8.8 5.8l.1 1.3"/><path d="M541.8 511.4v.1m-7.9-7.9l.1.9m4.2 3.9l.1 1.3m0-1.5l-.1.1m2.4.1h0m-7.2-1.3l6.7 1.4m8.5 5.8h.3m-.8 0h.1m-6.1-1.2l5.9 1.3"/><path d="M544.6 511.2v-.1m-6.1-1.2l5.9 1.3"/></g><path d="M1049.5 496.8l.2 2.3" class="G H J"/><g class="I G H"><path d="M1083.7 493.8l1.9-2.6m-12.2 16.1l1.9-2.5m-12.2 16.1l1.9-2.6m-12.2 16.1l1.9-2.5m-31.5 30.7l.3 4.2m-689-133.3l-116.4-37.4m0 0l-11.4-2.4m-.6-8.6l.6 8.6m-19-14.4l1.7.3m-1.7-.3l.7 10.3m0 0l1.7.5m5.7 1.9l110.5 35.5m608.6 129.9l126.9 13.1"/><path d="M1041.1 560.2l-6.9-1.5m-10.7 8.1l-11.4-2.4m0 0l-125.4-13"/></g><path d="M1045.5 503.7l2.6 39.9" class="G H J"/><path d="M1042.4 548l2-2.6" class="G H I"/><path d="M1044.4 545.4l-2.7-40.2m-2.7 2.9l.2 2.4" class="J G H"/><path d="M595.8 476.5l-.4 1m2.5-2.4l.2.6" class="I G H"/><path d="M605.7 475.9l.1.7m-12.1.6l.1.3" class="J G H"/><path d="M601.1 477.7l-.1 1.1" class="G H I"/><path d="M610.7 477.3l.1.7" class="G H J"/><path d="M600.3 474.9l.2.7" class="G H I"/><path d="M599.7 478.6v.1" class="G H J"/><path d="M600.5 475.6l-.6 3.3m3.8-3.7l-2.7 3.6m-1-4.3l-1.9 1.2m0 0l-2.7 1.8m1.6-3.7l-2.9 3.8" class="I G H"/><path d="M605 476.6l.2.7m-2.1 1.9l.1.3m13-.8l.2.6m1.3-.3l-.1.6m-7.3-1.8l.2.6m11.3.8l.2.6" class="J G H"/><g class="I G H"><path d="M197.7 370.7l.2 2.7m855.2 166.3l-2.6-39.2m-7.7 52.7l-2.7-41.3m-21.8 4.4l3 44.7M926 529l.2 2.6m11.6-.5l-.2-2.6"/><path d="M926.1 529.3l.1 2.7"/></g><path d="M436.3 312.1l-1.2-1.2m-227.7 43.2l.4-1.7m215-15.4l-1 1.4m-6.9 1.9l-1.2-1.3m1.4 2.6l-1.2-.6" class="J G H"/><path d="M414.8 345l.5-.7" class="G H I"/><path d="M415.3 344.3v-1m0 0l-1.2-1.3" class="J G H"/><path d="M415.3 343.3l-.5.7" class="G H I"/><path d="M414.8 344v1m0-1l-1.3-1.3m-1.1 2.4l.1 1m-.1-1l-.3-1.7m41.5-48.3l-.4-5.1" class="J G H"/><path d="M453.2 290l-12.5 16.4" class="G H I"/><path d="M440.7 306.4l.1 1m-4.4 5.8l-.1-1.1" class="J G H"/><path d="M436.3 312.1l-21.4 28.2" class="G H I"/><path d="M414.9 340.3l.1 1m-4.4 5.8l-.1-1.1m0 0l-1.2-1.3" class="J G H"/><path d="M410.5 346l-5.8 7.6" class="G H I"/><path d="M423 339l-1.1.8" class="G H J"/><path d="M410.5 354.9l11.4-15.1m-10.4 14.3l-1 .8" class="I G H"/><path d="M404.7 353.6l.4 5.2" class="G H J"/><path d="M404.7 353.6l-1.2-1.2m21.6 21.5l-.5 1.7" class="I G H"/><path d="M453.4 380l-.4 1.7m1.4 1l.1 1m196.7 87l.2 2.6" class="J G H"/><path d="M651.4 473.4l-.2-2.6m500.2-107.4l-810-172.8m-13.3 3.5l-1.9 2.5" class="I G H"/><path d="M540 403.5l-1.3-.9" class="G H J"/><path d="M562.2 477.6l5-6.7" class="G H I"/><path d="M567.2 468.7l-.1-1.3m.1 3.5l-.1-2" class="J G H"/><path d="M567.1 468.9l.1-.2" class="G H I"/><path d="M531.4 398.4l.1 1m-9.7-2l-.1-1.1" class="J G H"/><path d="M521.7 396.3l-59-12.6" class="G H I"/><path d="M462.7 383.7l.1 1.1m-9.7-2.1l-.1-1" class="J G H"/><path d="M453 381.7l-28.4-6.1" class="G H I"/><path d="M424.6 375.6l.3 3.8m107 17.3l-.5 1.7" class="J G H"/><path d="M586.7 410.2l-55.3-11.8" class="G H I"/><path d="M587 415.4l-.3-5.2m-29.5 5.9l-.3-5.2m30.3-2.4l-.5 1.7" class="J G H"/><path d="M556.9 410.9l-4.4 5.8" class="G H I"/><path d="M555.6 409.6l1.3 1.3m-4.4 5.8l.1 2.5m-1.3-3.8l1.2 1.3m272.6-67.9l.7 9.3" class="J G H"/><path d="M825.6 347.1l-.5 1.7m203.9 43.5l-203.9-43.5m-371.9-60.1l7 1.5m-10.2-8.4l-1 1.3m26.6-.6l-15.6-3.3m18.3 10.2l1-1.4M196.4 390.8l-.9-14.2m-6.3.4l.9 14.2m257-87.5l.1 1m-5.8 4.9l-.1-1M423.5 335l-.9.6m-1.3 2l.1 1m-5.8 4.9l-.1-1m-7.5 19.7l.3 5.2m62.1 20.5l-1-.5m69.7 15.1l-1-.5m19.5 12.8l-.3-5.2m-1.5-1.9l-1-.5m103.4 11.9l-.1-2m-75.7 11.5l.1.9m88.7 7.2l-.9.6m338.8 68.3l-.3.2m8.1-.5l-.4-.2m-369.8-91.9v.1m9.6-.7h0m-426-73.2l-.3.3m8.1-.6l-.4-.2M463.2 382l59 12.6m3.2 2.3l1.2.2m5.3-.4l55.3 11.8M575 424.4l-20.6-4.4" class="I G H"/><path d="M1014.2 507.9l-.1-1.9m-2.7.2l.1 1.9m2.8-2.1l.1 1.9m1.5-.6v-.1m-4.6 1l-.1-1.9m64.1-1.5l-2.2-33.7m-2.7 2.9l.2 2.3M186.2 371.5l.2 2.6" class="J G H"/><path d="M640.7 485.2l.2.6" class="G H I"/><path d="M635.4 485.6v.7" class="G H J"/><g class="I G H"><path d="M639.7 486.5l.1.7"/><path d="M635.4 486.3l4.4.9m1.6-2l1.2-1.6"/><path d="M637.2 484.3l4.2.9m-1.6 2l1.1-1.4M456.3 385l1.2.2"/></g><path d="M456.3 383.9v1.1m-.7-3.5l-1.2 1.2m2.3-.5l-.4 1.7" class="J G H"/><path d="M457.4 384.2l-1.1-.3" class="G H I"/><path d="M460.4 385v-1.1m-2.9 1.3l-.1-1m.4-1.7l-.4 1.7m2.2-1.9l.8 1.6m10.9 4.9l-1.3-.8m-6.8-6l-.5 1.7m59.5 10.9l-.5 1.7m1.5 1v1.1" class="J G H"/><path d="M525 399.6l1.2.3" class="G H I"/><path d="M525 398.6v1m-.7-3.5l-1.1 1.2m2.2-.4l-.4 1.7" class="J G H"/><path d="M526.1 398.8l-1.1-.2" class="G H I"/><path d="M529.1 399.6v-1m-2.9 1.3l-.1-1.1m.5-1.7l-.5 1.7m2.2-1.8l.8 1.6" class="J G H"/><g class="I G H"><path d="M186.2 371.1l.1 2.6"/><path d="M186.2 371.4l.2 2.7m71.8-110l68.6-74.6m15-2.9l810 172.8m5.6 7.4l-68.6 74.5"/></g><path d="M1091.8 453.8l-.2-2.9m-.2.3l.1 2.3" class="J G H"/><path d="M1087.8 442.1l.1 2.9" class="G H I"/><path d="M1087.9 445l10.6 2.3m0 0l2.1 31.7" class="J G H"/><g class="I G H"><path d="M1095.4 438.7l.3 4.1m0 0l-6.9-1.5m0 0l-1 .8m83.2-88.7L331.3 174.2m-10 2l-74.8 81.3m0 0l4.7 1m73.7-80.2l-73.7 80.2m915.4 96.7L331.5 177m763.9 261.7l73.7-80.2m-73.7 80.2l4.6.9"/><path d="M1087.8 442.1l68.4-74.5m10.5-8L331.6 181.4m-80.2 81.3l73.5-80m-66.7 81.4l-6.8-1.4m311.7 253.4l.1 1.3"/><path d="M563.2 515.9l-.1.1m-3.6-3.1l.1 1.4m0-1.6l-.1.1m10.4 6l.3.1m-.8 0l.1-.1m-6.1-1.1l5.9 1.2"/><path d="M565.9 515.7h0m-6.1-1.2l5.9 1.2m-2.1-3.2v.8m6.9 5.9l2.2.4m-8.9-8l-.2.7m6.6 5.3l.1 1.3m0-1.5l-.1.1m-3.6-3l.1 1.3"/><path d="M566.7 514.3l-.1.1m6.6 5.2l3.4-2.2"/><path d="M573.2 517.2h0m-6.3-1.2l6.1 1.3m-1.9-2.4h.1m-7.2-1.3l6.6 1.4m-7.5-10.1l.1 1.5m-18.6-8.4l15 3.2m11.5 2l2-1.2m37.4-23.6l-1.8 2.3m-3.5-3.4l-1.8 2.3"/></g><path d="M608.4 480.3l.1.4m13.3-1.2v.2" class="J G H"/><path d="M615.8 480.5v.7" class="G H I"/><path d="M619.2 479.8v.7m-3.6 0v.6" class="J G H"/><path d="M614.4 477.5l-2.9 3.8" class="G H I"/><path d="M616 481.2v-.7m4.4-.2l-.1.7m-9.2-.1l.1.3m3.9.1l-.2-.6m6.2.1l-.1.7m-4.7-.2v.6m.6-.2v.7m1.8-.4v.7m-421-113h0" class="J G H"/><g class="I G H"><path d="M323 196.3l.5-.2"/><path d="M323 196.3h0"/><path d="M303.5 217.5l19.5-21.2"/></g><path d="M452.7 288.4l-.3-4.1" class="G H J"/><path d="M452.4 284.3l-1 1.4" class="G H I"/><path d="M452.4 284.3l-2.4-2.5m9.1.8l.5 7.5m-3.4-16.5l-.3-5.1" class="J G H"/><path d="M455.9 268.5l.4-1.7m28.9 7.9l-29.3-6.2" class="I G H"/><path d="M459.1 282.6l.9-3.4" class="G H J"/><path d="M474.7 285.9l-15.6-3.3" class="G H I"/><path d="M451.4 285.7l.2 2.1m-5.4-11.6l-.3-5.1" class="J G H"/><path d="M445.9 271.1l-1.2-1.3m1.2 1.3l-7.2 9.5" class="I G H"/><path d="M475 291.5l-.3-5.6m-23.3-.2l-2.4-2.6m25.7 2.8l.9-3.4m9.9-2.6l-.3-5.2m-8 14.9l2.1-1.6" class="J G H"/><path d="M476.2 290.9l1-1.3m8-14.9l.4-1.7" class="I G H"/><path d="M438.9 284.4l-.2-3.8" class="G H J"/><path d="M438.7 280.6l-1.2-1.3" class="G H I"/><path d="M476.2 290.9l2.1-1.5" class="G H J"/><path d="M489 280.3l1-.8m-8.3 10.2l7.3-9.4m-7.3 9.4l1.1-.7m-30.7 11.2l6.8-9" class="I G H"/><path d="M460 290.4l-1.1.8m-5.7 8.2l-1.1.8" class="J G H"/><path d="M627.4 481.4l-.1.6" class="G H I"/><path d="M621.4 482.9l.1.6" class="G H J"/><g class="I G H"><path d="M626.1 481.1l.1.7m.4 1.9l.2.6m1-.6l-.5-1.7m.1-1.7l-1.2 1.5m0 0l-4.4 1.7"/><path d="M626.5 483.4l.3.9m0 0v.2m1.3.2l-.3-1m.1-.6l-.1.6"/></g><path d="M636.7 484.3l-.1-.5m-8.3.8v-.2m8.2-.4v.3" class="J G H"/><path d="M642.6 483.5v.1" class="G H I"/><path d="M637.2 483.6v.7" class="G H J"/><path d="M641.3 484.5l.1.7m-6.4-3.3v.1m0 0l-2.9 3.7" class="I G H"/><path d="M631.8 485.3l.1.3m3 .7l-.2-.5m-.1.1l.1.3" class="J G H"/><path d="M218.1 396.1l2-2.7m-12.1-13l1.1-1.4m10.4 5l1-1.3M557.1 409l29.9 6.4M456.2 273.6l29.3 6.3m-45.9 5l6.6-8.7m-41.1 82.6l16.2-21.3m1.6-2.1l24.2-31.8m1.5-2l5-6.5M554.2 420l3-3.9" class="I G H"/><path d="M1029.6 401.6l-.6-9.3" class="G H J"/><path d="M1029.5 390.6l-.5 1.7m120.5-20l-826-176.2m0 0l-18.9 20.5M1151.2 373l-1.7-.7m-18.9 20.6l18.9-20.6m1.7.7h.1" class="I G H"/><path d="M658.5 433.4l.2 2.5m-1.2-18l.2 2.9" class="J G H"/><path d="M657.5 417.9l-7.9 10.3" class="G H I"/><path d="M649.6 428.2l.2 2.9m8.7 2.3l-.3-5.2m0 0l-1.2-1.3" class="J G H"/><path d="M658.2 428.2l-10.3 13.6" class="G H I"/><path d="M647.9 441.8l.1 2.5m167.8-83.6l-.6-9.3" class="J G H"/><path d="M815.2 351.4l-67.1 88.1m65.9-89.3l1.2 1.2" class="I G H"/><path d="M647.9 441.8l-1.2-1.3m22.4-2.1l1-.8" class="J G H"/><path d="M663.9 445.2l5.2-6.8" class="G H I"/><path d="M664.8 426.5l.6 9.3" class="G H J"/><path d="M668.8 438.7l-7.7-1.6m-11.5 8l8.9-11.7" class="I G H"/><path d="M665.3 424.8l-.5 1.7" class="G H J"/><path d="M738.1 442.1l-73.3-15.6" class="G H I"/><g class="J G H"><path d="M748.1 439.5l.6 9.3m-10.2-.5l-.4-6.2m-74.2 3.1l1.1-.8"/><path d="M738.6 440.4l-.5 1.7m8.8-3.9l1.2 1.3"/></g><g class="I G H"><path d="M186.1 370.5l.1.4m11.5-.8v-.4m-9.7-2l-.3.2m8.1-.6l-.4-.1m258.4-72.7l-.4-5.2m-.7-.9l-1-.5m8.5 2.3l-.8.6m-10.1 10.3l-.9.6m585.5 95.4l-71.2 93.5m-11.7 3l-272.5-58.1m-8.4 2.1l-5.1 6.8m-8.3 2.2l-6.9-1.5m-3.1-4.6l10.3-13.6"/><path d="M665.3 424.8l73.3 15.6m8.3-2.2l67.1-88m11.6-3.1l203.9 43.5m-724.9-174l826 176.3m-826-176.3l-98.8 129.8m2.1 6l386.9 82.5m25.9 5.6l398.2 84.9m100.2-117.3l11.5-15.2"/><path d="M551.3 415.4l4.3-5.8m-1.8-2.7l-12.9-2.8m-3.3-2.2l-1.1-.3m-5.3.5l-59.1-12.6m-3.2-2.3l-1.1-.2m-5.4.4l-40.9-8.8m-18-26.2l5.8-7.7m4.2-2l.6-.7"/></g><path d="M1054.7 531.9l-2.5-38" class="G H J"/><path d="M781.9 528.3l-6.4-.7m238 24.7l-77.5-8m-6.4-.7l-147.7-15.3m232.7 22.6l-1.1 1.4" class="I G H"/><path d="M1010.1 507.8v.1m-358-96.4l-.1-1.1m-1.5.2v1" class="J G H"/><path d="M651.1 469.7v.4m11.6-.7v-.4m-9.7-2.1l-.3.2m8.1-.5l-.4-.2M242.8 276.8l.3 4.5m-10.8 6.8l.3 4.6m-10.7 6.8l.3 4.6m-10.8 6.8l.3 4.6m-10.7 6.8l.3 4.6m-10.8 6.8l2.1 32.8m-1.6-27.6l1.8 27.6m980.1 24.7l-.1-3m-3.9 11.6v-3m8.2-15.2l-1.7-25m-10.4 51.7v-3m-554 72l-.2-.5m6.9 1.9l-.1.6m4.4.4l-.2-.6m-5.5 1.8l-.1.6m3.9.4l-.2-.6m474.5 4.2l-2-30.5m-8.3 44l-2.2-32.6m-8.2 46.2l-2.2-34.8m-8.1 48.3l-2.4-36.9m-910.5-80.6l383.1 81.7m-1.5 3l1.5-3m5.9 4.6l-7.4-1.6m8.2 1l-.8.6m23.5 4.2l-22.7-4.8m22.3 5.5l.4-.7m7.1 2.3l-7.5-1.6m10.9-1l-3.4 2.6m3.4-2.6l393.9 84.1" class="I G H"/><g class="J G H"><path d="M558.8 514.1l.1-.1m-15.5-16l-1.7 2.2m10.9 11.4v1.3m0 0l5.9 1.2"/><path d="M558.9 514l-.1-1.3m-.1 0l.1 1.4m-.3 0l-.1-1.3"/><path d="M558.8 512.7h-.1m-.3.1l-5.8-1.2M538.5 497v-.6m-4.5-1l.1.7"/></g><path d="M562.3 505.8l-15-3.2" class="G H I"/><path d="M547.3 502.6l-2.1 2.7m-3.8-5l-.6.2m4.4 4.8l15 3.2m-.1.3l-15-3.2m-.2.6l.2-.6" class="J G H"/><path d="M532.2 495l-.1-1.7m7.5 3.3l-7.4-1.6" class="I G H"/><path d="M569.5 518.7h.1" class="G H J"/><path d="M539.6 496.6l-.1-1.7m.9 1.2l-.8.5" class="I G H"/><g class="J G H"><path d="M569.6 518.7l-.1-1.3m-6.2-1.2v1.3m0 0l5.9 1.3m-3-4.7l.1 1.4"/><path d="M565.9 515.8l-.2-.1m-6.2-1.7l-.1-1.4m0 0h-.3m0 0l.1 1.4m-.4.3l-.2-.1m-6.2-1.7l-.1-1.4m0 0l-.3-.1m0 0l.1 1.4m-.4.4l-.2-.1m-6.2-1.7l-.1-1.4m0 0l-.3-.1m0 0l.1 1.4m-.4.3h-.2m-6.2-1.7l-.1-1.4m-.3-.1l.1 1.4m-.4.3h-.2m-6-1.3v.3m0 0l2.5.5m.5.5l.1 1.4m0 0l.3.1"/><path d="M534.7 511.2l-.1-1.4m.4-.3l5.9 1.2m.5.5l.1 1.4m0 0l.3.1"/><path d="M541.8 512.7l-.1-1.4m.4-.3l5.9 1.2m.5.5l.1 1.4m0 0l.3.1"/><path d="M548.9 514.2l-.1-1.4m.4-.3l5.9 1.3m.5.5l.1 1.4m0 0h.3"/><path d="M556 515.7l-.1-1.4m8-1.6v.8m0 0l6.7 1.4"/><path d="M570.6 514.9l-.1-.8m1.9 1.7l-5.6-1.2m0 0l.1 1.3m0 0l6 1.3"/><path d="M572.9 517.2v-.9m-8.9-4.2l2 .4m4.5 1.6l-6.6-1.4m1.3-1.6v1m-1.8-5.3l-.2-.3m8.6 4.7v.9"/><path d="M569.7 513.1l-.1-1m-6.2-5.3l-.1-1.5"/></g><path d="M544.6 498h0" class="G H I"/><path d="M571.1 514l.1.8m0 0l.6-.5m1.5 3.9l.1.9m0 0l3.4-2.1m-3.6-.8v.9" class="J G H"/><path d="M573.8 509.8l-2 2.3m2.6-.8l-2.6 3" class="I G H"/><g class="J G H"><path d="M566.8 514.2v.1m0 0l5.6 1.2m-1.7-2l3.1-3.7m.5.6l-3.2 3.6m-7.7 1.8l-.1.1m5.9 1.2l-5.8-1.3m5.8 3l-.1-1.3m.3-.1l.1 1.3"/><path d="M569.5 517.4h-.1m-.2-.2v-.1m-5.9-1.2l5.9 1.3m-3.3-1.6l.1-.1m-6.3-2.4v1.3m0 0l5.9 1.2m.4-.1l-.1-1.3"/><path d="M565.8 514.3l.1 1.3m-.3 0l-.1-1.3m.4-.1l-.1.1"/></g><path d="M563.6 512.6l-22.5-4.8" class="G H I"/><g class="J G H"><path d="M538.4 508.2h0"/><path d="M538.4 508.2l5.9 1.3"/><path d="M544.3 509.5v-.1m.7-.2l.3.1m.3.4h-.1"/><path d="M545.5 509.7l5.9 1.3"/><path d="M551.4 511v-.1m.7-.2l.3.1m.3.4h-.1"/><path d="M552.6 511.2l5.9 1.3m0 0l.1-.1m.6-.2l.3.1m.3.4l-.1.1m5.9 1.2h0"/><path d="M559.7 512.8l5.9 1.2m-.1.3l-5.8-1.2m4.5-1.7l-.2.7m6.4 5.6v1.4m0 0l2.2.4"/><path d="M570.5 517.4h-.1m-8.1-11.6l-2.1 2.7m12.8 10.7v-.9m.1-.3v-.1m0 0l-2.6-.5"/><path d="M570.4 517.4l2.7.6m-2.5-14.5l.5 7.2m-2-7l.5 7.8"/></g><path d="M540.3 494.3l.1 1.8m-.9.5v.3m-.5.3l.5 7.7m.6.5l.1.9m0 0l.4.1m.5.5v.9" class="I G H"/><path d="M541.1 507.8l22.5 4.8" class="G H J"/><path d="M564.7 511.5l-.5-.1m.4-.8l.1.9m0-8.7l.5 7.5m-1.2-8.5l.1.3" class="I G H"/><path d="M563.6 505.4l.1 1.6m-3.8 2.8l-15-3.2m-4.3-4.5l-.1-1.6m3.8-2.8l15 3.2m5.3 1v.7m6.6-.1v.5m-2.2.5v-.6" class="J G H"/><g class="I G H"><path d="M562.8 501.6l-.2-1.8m7.6 3.3l-7.4-1.5"/><path d="M570.2 503.1l-.1-1.7m.1 1.7l3.5-2.1m406.1 83l-.9-12.6m0 0l-.6-.5m-7 55.1l-1 1.4m3.3-1.2l-2.1-31.3m8.3-10.9l-8.3 10.9m-414-10.7l-404-129.9m816.8 173.1L561.4 585"/><path d="M970.3 627.4l-2.9-44.5m-393.9-84.1l.2 2.2m-.5.7v-.4m-.6 1l.4 6.1m.8 1.4l-.1-.8"/><path d="M573.8 509.8h0m.5.6l.1.9m1.4.3l-1.4-.3m2.4 5.7l-.3-4.6m-42.4-9.7l-1.1-.2m-379.5-48.2l-3-45.7m816.9 174.3l10.9-12m0 0l-349.6-74.6m0 0l-7.8 8.6m0 0L572 494.4m0 0l-2.6 2.9m-30.6-6.5l30.6 6.5"/><path d="M538.8 490.8l2.6-2.9m0 0l-48.8-10.4m7.8-8.6l-7.8 8.6m7.8-8.6l-338.9-72.3m0 0l-11 12M136.1 447l17.3 5.5"/></g><path d="M553.5 589.7l4.2-5.5" class="G H J"/><path d="M136.1 447l-2.1 2.7m855.5 178.2l.7 10.4m0 0l-2.1 2.7m-432-40.4l422.1 43.7M137.8 456l415.7 133.7" class="I G H"/><path d="M137.8 456l.7 10.4" class="G H J"/><path d="M138.5 466.4l417.6 134.2" class="G H I"/><path d="M978.2 644.3l-.7-10.3m9.9-3.4l.7 10.4" class="J G H"/><path d="M989.5 627.9l-2.1 2.7m2.1-2.7l-18.2-1.9" class="I G H"/><path d="M561.3 585l-4.1 5.4" class="G H J"/><path d="M557.2 590.4L977.5 634" class="G H I"/><path d="M897.5 318.5l-.1-1.9m-2.7.3l.1 1.1" class="J G H"/><g class="I G H"><path d="M614.1 434.2l-.3.4m-9.2 2.6l.3-.7m0 0l8 1.7m.3-3.2v-.1m-1.4-1.3l.5-.6"/><path d="M612.5 433.8l-.7-.2m0 0v.1m1.1-.5l-.4.6m0 0v.1m-13.5-1.1v-.1m13.1 2.9l-13.1-2.8"/><path d="M612.1 435.5v.1"/><path d="M613.2 435l-1.1.6"/><path d="M613.2 435h0m-14.2-2.9v.1m2.5.5l-2.5-.5m2.5.9v-.4m-.1.5l7.8 1.7m3.8-1.6l-.5.6m0 0l-.7-.2m-2.7-.6l.5-.7"/><path d="M608.4 433l.7.1m-.6-.9h0m-.7-.1l.7.1m-1.2-.2h0m-.7-.2l.7.2m-1.2-.3h0m-.7-.1l.7.1m-1.1-.2h0"/><path d="M604.3 431.3l.7.2m-1.7.4l.5-.7m-1.2.6l.7.1m-2.9-1.4l-.5.7m0 0l-.7-.2m.1-.8l-.4.5m0 .8v-.8m14.2 3.1l.2-.3m-1.2 2l-2.9-.6m0 0l-.1-.4m-10.1-2.4l-.1-.6m12.9 3.3l-12.8-2.7"/><path d="M598.9 431.5l13.2 2.8m1-.5v.4m0-.4l-1 .5m0 0l-.3.5m0 .1v-.1m.3.7v-.4"/><path d="M613.8 434.6l-1.7.9m1.7-.9v-.4m-.7 0l-1.3.7m0 0l-2.5-.5m-.2.1l.2-.1m-.2.1l3 .6"/><path d="M612.1 435.1l1.7-.9m0 0l.1-.2m-.4-.4l-.4.6"/></g><path d="M614.5 436.1l-1.6 2.1m0 0l-.3.7m31.6-17.1v-1.1m-1.6.2l.1 1.1m1.7-1.2l.1 1.1m-2.1.2V421m2.9.6v-.1m-3.6.3v.1m296.1 109.2l-.2-2.6m-.1-.9h0" class="J G H"/><path d="M540.1 508.5h0" class="G H I"/><g class="J G H"><path d="M533.3 506.2l.1.8m0 0l6.6 1.4m.6-.1l.5-.5"/><path d="M540 508.4v-.8m-6.5-2l2 .4m4.5 1.6l-6.7-1.4m6.8.8l.5-.6m.5.5l-.5.6m-6-2.9l.1 1"/><path d="M539.1 506.5v-1m9.1 8.7h.1"/><path d="M548.3 514.2l-.1-1.4m59.6-76.8v-.2m11.5-4h-.3"/></g><g class="I G H"><path d="M604.3 431.3h0m.7.1v.1m.4 0v.1m.7.1h0m-3.5-.1l.5-.6m.7.2l-.5.6m-.7-.2v.2m.7 0v.1"/><path d="M603.3 431.8l-.7-.2m2 5.6l-.2.3"/></g><path d="M605.6 435.6v-.3m-7.7-.3l-.3.7" class="J G H"/><g class="I G H"><path d="M604.7 436.4l-.3.7m-5.9-4.5v-.4m0 .4l2.9.7m-3-2.4l.6-.7m-.5 2l-.1-1.3"/><path d="M601.4 432.8l-2.9-.6m2.9 1.1l.1-.2"/><path d="M601.4 432.8l.1-.1m-.1.6v-.5m5.2-1h0m.7.2h0"/></g><path d="M597.9 435l1.6-2.1" class="G H J"/><path d="M597.9 435l6.8 1.4m.9-1.1l-.9 1.1m2.7-.5l-1-.7m2.2-.4l-.8 1m-8.3-2.9l2.1.4" class="I G H"/><path d="M595.6 431.1l1.1-1.4" class="G H J"/><path d="M607.8 432.1h0m.7.1h0" class="I G H"/><path d="M595.6 431.1l-.6.4" class="G H J"/><g class="I G H"><path d="M602.4 420.5l.4-.6m14.1 15.9l.1 1.1m-8.1-4.6l-.5.6m.7.1l.5-.6m-1.2.5v.1m.7 0v.1"/><path d="M608.4 432.9l.7.1"/></g><path d="M617.5 434.1h-.3" class="G H J"/><path d="M605.8 435.3l-.9 1.2m7.5-.9l2.1.5m-5.7-1.3l-.8 1.1m-.8.1l-1-.7" class="I G H"/><g class="J G H"><path d="M541.1 512.7l.1-.1m0 0l-.1-1.3m-6.2-1.1v1.3m0 0l5.9 1.2m-5.9-2.9h0"/><path d="M540.8 511l-5.9-1.2m6.1 1.6l.1 1.3m-.3 0l-.1-1.3"/><path d="M541.1 511.3l-.1.1m-.2-.3v-.1"/><path d="M534.9 509.8l5.9 1.3"/></g><path d="M583.5 422.8h0" class="G H I"/><path d="M576.9 250.1l-.2-1.9m-2.7.2l.1 1.1m2.9-1.3l.1 1.9m1.4-.6v-.1m-4.6.1l-.1-1" class="J G H"/><path d="M658.8 412.6l-18 23.7m-38.3-16.2h.2m-.8.8l.6-.8" class="I G H"/><path d="M601.9 420.9l.1.1" class="G H J"/><g class="I G H"><path d="M606.3 420.1l.1 1m-.3-.7l-.7 1.1"/><path d="M606.1 419.8v.6m1.4.5l.8-.4m-1.7 1.2l.3-.4m.1-.1l-.6-.1m-.4.5l.4-.5"/></g><path d="M605.1 421.1v.3m2.4.2l.8-1.1" class="J G H"/><path d="M608.5 422.1h0m-1.6-.3l.6-.2" class="I G H"/><path d="M605.6 423.5l-.1.1" class="G H J"/><path d="M605.5 423.4l.1.1m1.3.1l-1.4-.2m-.2-.4l.2.4" class="I G H"/><path d="M605.3 423l-.4.5" class="G H J"/><path d="M622.7 426.4h-.1m-5.6-2.5l.3-.4m-.1-.6l-.9-.7" class="I G H"/><path d="M615.5 423.3l.8-1.1m5.9 4.7h.1" class="J G H"/><path d="M614.3 423.4h.3" class="G H I"/><g class="J G H"><path d="M534 511.2l.1-.1m0 0l-.1-1.3m-2.2 1l1.9.4m-2.5-1.8l.1.9m0-1.3v.1m2.4.4l-2.4-.5"/><path d="M533.7 511.2l-.1-1.3m.3-.1l.1 1.4"/><path d="M534 509.8h-.1m-.2-.2v-.1m-2.4-.4l2.4.5"/></g><path d="M465.7 427.9l.2 2.6" class="G H I"/><path d="M465.9 430.5l-.2-2.7m0-.9h0" class="J G H"/><path d="M501 469.4l.7 10m-.7-10l-.6-.5" class="I G H"/><g class="J G H"><path d="M542 511.7v1.3m0 0l5.9 1.2m-5.9-2.9v.1"/><path d="M547.9 512.6l-5.9-1.3m5.9 2.9l-.1-1.3m.3 0l.1 1.3"/><path d="M548.2 512.8l-.1.1m-.2-.3h0"/><path d="M542 511.4l5.9 1.2m-3.3-1.6h.1m-6.3-2.5v1.3m0 0l5.9 1.3m.4-.1l-.1-1.3"/><path d="M544.5 509.7l.1 1.3m-.3.1l-.1-1.3"/><path d="M544.6 509.7h-.1m-.3.1l-5.8-1.3M457 427v.1m-2.8 1.5l.2 2.7"/></g><path d="M454.4 431.4l-.2-2.7m184.7-5.1h0" class="I G H"/><g class="J G H"><path d="M1112.9 364.4l-.2-1.9m-2.7.3l.1 1.1m2.9-1.3l.1 1.9m1.4-.7h0m-4.6.1l-.1-1m-648.7 64.2l-.1-1.9m-2.7.3l.1 1.9m2.8-2.1l.1 1.8m4.5 3.6l-.2-2.7m-2.8-1.5v-.1m-4.6 1.1l-.1-1.9m79.4 83.9h.1m-6.5-2.1v.9"/><path d="M537.6 509.5l-.1-1.4m-.3 1.5l-.1-1.3m.3-.1l.1 1.3"/><path d="M537.5 508.1l-.1.1m-.3.1l-5.6-1.2m2.4-3l-.4 1.5m-1.9 1.1l5.6 1.2"/><path d="M537.2 507.9h0"/></g><path d="M541.4 487.9l.3 3.5m2.2 7.6l-.1-1" class="I G H"/><g class="J G H"><path d="M555.3 515.7h.1m0 0l-.1-1.4m-6.2-1.1v1.3m0 0l5.9 1.3m-5.9-3v.1m-5.2-13.9l-2.1 2.7"/><path d="M555 514.1l-5.9-1.3m5.9 3l-.1-1.4M370.7 206.1l-.1-1.9m-2.7.3l.1 1.1m2.8-1.4l.1 1.9m1.5-.6v-.1m-4.6.1l-.1-1m234.5 196.9v-1m2.9.6v-.1m-3.6.3v.1"/></g><path d="M598.6 403h0m17.6 20.8l-.7-.5m5.6 7l.1 1.3m-3.5-8.1l-.3-.1" class="I G H"/><path d="M597.7 429.9h-.3" class="G H J"/><path d="M620.2 431.6l.5.1m2.1-7.3l-1-.2" class="I G H"/><path d="M621.6 428.7h-.2" class="G H J"/><g class="I G H"><path d="M622.1 425.3l.7-.9m-.6 2.5l.4-.5m0 0l.3-.4"/><path d="M622.8 424.4l.1 1.6"/></g><path d="M621.6 425.1l.5.2m-8.4.1l.1-.2" class="J G H"/><path d="M613.8 425.1v.1m1.3.2l-1.3-.3m-.3-.3l.3.3" class="I G H"/><path d="M613.2 425.2l.3-.4" class="G H J"/><path d="M620.7 431.7l-.1-.7m.1.7l.4-.6m-6.6-7.7h0m-8.4-3l.2-.3m0 0h-.2" class="I G H"/><path d="M597.3 430.6l-1.6 2.1" class="G H J"/><path d="M597.3 430.5v.1m.4-.7h0m.2 1.9l-.2-1.9m1.9.4l-.4.6m0 0l.7.2m-.7-.2v.1m.7.1l.4-.6m-.4.6v.1m12.5 4.4l.3-.3" class="I G H"/><path d="M595.7 432.7l-.6.3" class="G H J"/><path d="M595.6 431.1l.1 1.6" class="G H I"/><path d="M606.5 435.4l-.1-.2m1 .9v-.2" class="J G H"/><g class="I G H"><path d="M604.4 437.5v-.4m0 0l-6.8-1.4m-2.5-2.7l-.1-1.5m2.2-1.7l15 3.2m2.6 2.7l.1 1.5m-2.3 1.7l-8-1.7m0 .3v-.3m0 .3l8 1.7m2.5-3.5l.1 1.6m-18-7.8l15 3.2m-17.5.2l-.1-1.5"/><path d="M597.6 436l6.8 1.5"/></g><g class="J G H"><path d="M604 401.2l-.1-1.1m-1.5.2v1.1m1.8-1.2v1m-49 113.2l.1 1.3m-13.6-15.5l.1 1.5"/><path d="M555.3 514.3l-.1.1m-.2-.3h0"/><path d="M549.1 512.9l5.9 1.2m-3.3-1.6h.1m-6.3-2.5v1.4m0 0l5.9 1.2m.4-.1l-.1-1.3m-10.2-9.3l-.1-1.6"/><path d="M551.6 511.2l.1 1.3m-.3.1l-.1-1.3"/><path d="M551.7 511.2h-.1m-.3.1l-5.8-1.3m-10.7-5.9l-.5-7.8"/></g><path d="M594.6 431.3l-11.9-2.6" class="G H I"/><path d="M582.5 425.4l.2 3.3m12.1 1.7l-.1-2.4m26.2 3.4v.1" class="J G H"/><path d="M622.1 438.7l-1.1 1.5" class="G H I"/><path d="M622.1 438.7l-.2-3.3m-5.1 1v.4" class="J G H"/><path d="M596.3 436.5l21.4 4.6" class="G H I"/><path d="M596.2 435.3l.1 1.2" class="G H J"/><path d="M641 439.6l18-23.7" class="G H I"/><path d="M659 415.9l-.2-3.3m-41.1 28.5l-.3-3.3m3.4-.9l.2 3.3" class="J G H"/><path d="M637.7 440.4l-12.3-2.6" class="G H I"/><path d="M625.2 434.5l.2 3.3m15.4-1.5l.2 3.3m-3.3.8l-.3-3.3" class="J G H"/><path d="M617 436.2l-.2.2m1.4.3l.6-.8m3.4-4.5l1.2-1.5m-25 2.5l.1-.1m-17.3-8.7l18.1-23.7m-16.8 25.5l12.2 2.6m22.7 9.8l-1.7-.4m5.1-.5l1.1-1.5m3.3-.9l12.2 2.6" class="I G H"/><path d="M589.1 420v1.1m-2 .2v-1.1m2.9.6v-.1m-3.6.4v.1m311.2-104.6l.2 1.9m1.4-.6v-.1m-4.6.1l-.1-.9M588.9 421l-.1-1m-1.5.1v1.1m27.5 15.6l.1.4" class="J G H"/><path d="M614.8 436.8v-1.2m7.5-8.7l.4-.5m-.6.2v.2" class="I G H"/><path d="M615.2 437.3l1.9-2.5" class="G H J"/><path d="M617.1 434.7v.1m.4-.7l.2 2.8m.9-.7l-.1-.5m0 0l.5-.7m0 0l-.1-2.6m.4-.6v.2" class="I G H"/><path d="M619.3 432l1.9-2.6" class="G H J"/><path d="M621.2 429.3v.1m.4-.7l.2 2.9m.9-5.2l.3 4m-16.9-10.6l-1 1.3m1-1.3l-1.3-.3" class="I G H"/><path d="M604.8 419.5l-7.6 10" class="G H J"/><g class="I G H"><path d="M619.8 422.7l-1.3-.3m-1 1.3l1-1.3m-4.6.9l2.9.6"/><path d="M614.3 422.7l.3.1"/></g><path d="M615.4 421.8l-.8 1" class="G H J"/><path d="M615.4 421.8l-6.2-1.3" class="G H I"/><path d="M609.2 420.5l-.8 1" class="G H J"/><path d="M608.7 421.5h-.3m-3 0l2.9.6" class="I G H"/><path d="M615.3 425.7l.6-.7" class="G H J"/><path d="M612.4 425.1l2.9.6" class="G H I"/><path d="M612.9 424.3l-.5.8" class="G H J"/><path d="M615.9 425l-3-.7m-8.8-1l3 .6" class="I G H"/><path d="M604.7 422.6l-.6.7" class="G H J"/><path d="M607.6 423.2l-2.9-.6" class="G H I"/><path d="M607.1 423.9l.5-.7" class="G H J"/><path d="M621.9 424l-.4.6" class="G H I"/><path d="M612.2 432.7l7.6-10m2.3 3.9l-7 9.1" class="J G H"/><path d="M413.7 339l21.4-28.1m4.2-2.1l.6-.7m-.4-3l12.5-16.4m-.6-.9l-9.5-2.1m-4.4-6.4l7.2-9.5m11.6-3l29.3 6.2m4.4 6.5l-7.2 9.5m-11.6 3l-9.5-2m-1.7.4l-6.8 9m-4.2 2l-.6.7m.4 3l-21.4 28.2m-4.2 2l-.5.7m.3 3l-11.5 15.1m13.6 19.8l28.3 6.1m3.3 2.2l1.1.3M616 481.2h-.2m0 0l-.2-.1" class="I G H"/><path d="M194.8 369.3h0m-4.6 1l-.1-1.9m-1.1 1.4v.1" class="J G H"/><g class="I G H"><path d="M562.2 477.6L663 499.1M479.7 460l-.3 4.4m-29.2-6.2l-6.3-2m0 0L219.5 384m0 0l.6 9.4m0 0l145.6 46.8m494.4 105.5l154.1 15.9m-267.7-40.2l-.9-4.7"/><path d="M1014.2 561.6l-.7-9.3"/></g><path d="M1015.2 560.3l-.6-9.4" class="G H J"/><path d="M1015.2 560.3l-1 1.3m0 0l-2.1 2.8" class="I G H"/><path d="M1055.9 492.3l2.5 37.7m27.2-38.8l-2-31.5m-2.7 2.9l.1 2.3m-887.9-95l-.1-1.9m-2.7.3l.1 1.9m2.8-2.1l.1 1.9M449 301.4l-1.1.8" class="J G H"/><path d="M447.4 302.9l.5-.7" class="G H I"/><path d="M448.4 302.1l-1 .8m.2 2.7v-1m5.6-14.6l-1.2-1.3m-3.4 14.4l-1 1.5m-6.9 1.8l-1.2-1.3m1.4 2.6l-1.2-.6" class="J G H"/><path d="M440.6 311.1l.5-.7" class="G H I"/><path d="M441.1 310.4v-1m0 0l-1.2-1.3" class="J G H"/><path d="M441.1 309.4l-.5.7" class="G H I"/><path d="M440.6 310.1v1m0-1l-1.3-1.3m-1.1 2.4l.1 1.1m-.1-1.1l-.3-1.7" class="J G H"/><path d="M304.6 216.6l-1.1.9m-97.7 128.3l97.7-128.3M426.3 334l21.4-28.1" class="I G H"/><path d="M448.8 305.1l-1.1.8m-20.3 27.4l-1.1.7m-3.1 1.3l-1.1.8" class="J G H"/><path d="M421.6 336.8l.5-.7" class="G H I"/><path d="M422.7 336l-1.1.8m.2 2.7v-1.1M1066.4 481l2.3 35.5m-3.7 1.8l-2.4-35.8m-2.6 2.9l.1 2.3" class="J G H"/><g class="I G H"><path d="M636.6 483.8l-.1.2m4.8.5l-4.1-.9m4.9-.2l-.8 1.1m-47.6-7.3l2.7-3.5m1.3.3l-1.9 2.5"/><path d="M595.8 476.5l2.1-1.4m0 0l1.3-.8m2.4.5l-.2 1.1m0 0l-.3 1.8"/><path d="M601.1 477.7l2-2.6m1.3.3l-2.7 3.5m-.7.2l-1-.2m-.3-.3l.6-3.7m-.6 0l-2.2 1.4m0 0l-2.1 1.4m-.6.1l-.8-.2"/></g><path d="M1076.9 469.6l2.1 33.3m-420.8-35.6l.1 1.9m1.5-.6l-.1-.1m-4.5 1l-.1-1.9m-1.2 1.5l.1.1" class="J G H"/><path d="M662.7 469.9l.2 2.7" class="G H I"/><path d="M662.9 472.5l-.2-2.7m0-.8h0M324.9 182.7v-4.4" class="J G H"/><path d="M246.5 257.5l1.1 16.1" class="G H I"/><path d="M249.6 273.2l-.5-7.1m0 0l10.5 2.2" class="J G H"/><path d="M259.5 265.4l-1.3-1.3m-7-5.6l.2 4.2" class="I G H"/><path d="M243.8 280.6l-.2-2.4M233.3 292l-.2-2.4m-10.3 13.8l-.1-2.5m-10.3 13.8l-.2-2.4" class="J G H"/><path d="M187.7 379.3l1.5-2" class="G H I"/><path d="M216 380.9l.4 7" class="G H J"/><path d="M218.6 388.3l-2.2-.4" class="G H I"/><path d="M218.6 388.3l-.4-6.7m-16.3-55.5l-.1-2.4" class="J G H"/><path d="M259.6 268.3l-.1-2.9m194.6 162.3l.1.4m11.5-.8v-.4m-9.7-2.1l-.3.3m8.1-.6l-.4-.2m71 86.9l.3.1m-3.6-2v.9m2.8 1.1l.1-.1m-2.9-2.1v.1m.7 1.7l2 .4m-2.6-2.9v.2m84.4-28.1h.2m0 0h.2m-4.4-2.4l-1.9 2.5" class="I G H"/><path d="M1087.3 458.2l2.1 31.1m-437.1-78.9v1.1m-2 .2v-1.1m2.9.6v-.1m-3.6.4v.1m-89.7 97.8l.2-.6" class="J G H"/><path d="M570.6 515h0" class="G H I"/><g class="J G H"><path d="M556.3 514l5.9 1.3m.5.5l.1 1.4m0 0h.3"/><path d="M563.1 517.2l-.1-1.4m.4-.3l5.9 1.3m.5.5l.1 1.4m0 0l.3.1"/><path d="M570.2 518.8l-.1-1.4m.4-.4l2.7.6"/><path d="M573.2 517.6v-.2m-6.6-1.9l-.1-1.3M544.6 498l-.2-.1m.2.1l15 3.2m12.8 14.3l3.4-3.9m.7.8l-3.3 3.8"/><path d="M559.4 501.1l-15-3.2"/></g><path d="M559.6 501.2h0" class="G H I"/><g class="J G H"><path d="M559.6 501.2l-.2-.1m3.9 4.2l-.2-.4m2.3 5.7l-.5-7.8m1.4 8.3l-.6-7.9m.2.1l.6 8m0 0l-.5-8m1.7 8.2l-.5-7.9m.3 0l.5 8"/><path d="M568 511.6l-.5-7.9m1.7 7.8l-.5-7.8m357.4 25.6l.1 2.7"/></g><path d="M926.3 532l-.2-2.6" class="G H I"/><path d="M1176.4 383.5l-1.6-25.2" class="G H J"/><path d="M1100 439.6l74.8-81.3m-74.8 81.3l2.6 39.8m0 0l-61.5 80.8m0 0l.7 10.3m0 0l123-161.6" class="I G H"/><path d="M1164.8 408.9v-3.3" class="G H J"/><path d="M1168.7 400.4l-3.9 5.2" class="G H I"/><path d="M1168.7 400.4v-3.3" class="G H J"/><path d="M1172.7 391.8l-4 5.3" class="G H I"/><path d="M1172.7 391.8l-.1-3.3" class="G H J"/><path d="M1172.6 388.5l3.8-5" class="G H I"/><path d="M1035 515.1l2.8 42" class="G H J"/><path d="M1034.2 558.7l.1.7" class="G H I"/><path d="M1021 518.3l2.9 44.4" class="G H J"/><path d="M1023.9 562.7l.4.1" class="G H I"/><path d="M1034.1 559.6l-2.8-43.1m-7 46.3l-2.9-44.4" class="J G H"/><path d="M1091.6 450.9l-.2.3" class="G H I"/><path d="M1093.2 449.9l-6.3-1.3" class="G H J"/><path d="M1086.9 448.6l-56 61m-12.2 5.7l3.4-3.6m-1.1 6.6l.4.1m20.3-13.2l-2.7 2.9m13.2-14.2l-2.7 2.9m13.1-14.3l-2.6 2.9m13.1-14.3l-2.7 2.9m13.2-14.3l-2.7 2.9" class="I G H"/><g class="J G H"><path d="M928.8 527.7v.1m4.1 0l-.1-1.9m-2.7.3l.2 1.8m2.7-2.1l.2 1.9m1.4-.6v-.1m-4.6 1l-.1-1.8m-391.4-29.1l.5 7.8m-.4 0l-.5-7.8m24.3 20h.1"/><path d="M562.5 517.2l-.1-1.4m-6.2-1.1v1.3m0 0l5.9 1.3m-5.9-3v.1"/><path d="M562.1 515.6l-5.9-1.3m5.9 3l-.1-1.3m.3-.1l.1 1.3"/><path d="M562.4 515.8l-.1.1m-.2-.3h0"/><path d="M556.2 514.4l5.9 1.2m-20.6-13.7l-.6.1m-5.2 2.6l-.5-7.9m.2.1l.5 8m.1 0l-.5-8m1.6 8.1l-.5-7.8m.3 0l.5 8m.1 0l-.5-8"/></g><g class="I G"><path d="M602.6 399l.8.2m2.6.5l45.5 9.7m2.6.6l3.5.7M555.1 515.9h.2m-3.8-3.2h.2m4.4 3.2c0 .1 0 .2.2.2m-3.8-3.4c0 .1 0 .2.2.2m9.5 4.5h.2m-3.8-3.2h.2m4.4 3.2c0 .1 0 .2.2.2m-3.8-3.3c0 .1 0 .2.2.2m-18.9-1.7h.2m-3.8-3.1h.2m4.4 3.2c0 .1 0 .2.2.2m-9.1-7.3v.2m5.3 3.7c0 .1 0 .2.2.2m9.5 4.5h.2m-3.8-3.2h.2m4.4 3.2c0 .1 0 .2.2.2m-3.8-3.4c0 .1 0 .2.2.2m23.7 7.5h.2m-3.8-3.2h.2m4.4 3.2c0 .1 0 .2.2.2m-3.8-3.3c0 .1 0 .2.2.2m-3.3-3.7v.2m9.4 4.8h.2m-39.4-6h.2m.8.1c0 .1 0 .2.2.2m-4-3.4c0 .1 0 .2.2.2m134.2-72.6c-1.9-.4-4.2 0-5.7.9m370.2-35h-.3m-203.8-43.6c-3.8-.8-8.3.4-10 2.6m-68.6 89.4c.6-.4 1.1-.8 1.5-1.3m212 43.4l.9-.9m-379.1-61.8c.1 2 3 3.4 6.5 3.2 1.9-.1 3.6-.7 4.8-1.6" class="H"/><path d="M240.3 338.6c-.1-2-3-3.4-6.5-3.2s-6.2 2-6 4c.1 2 3 3.4 6.5 3.2s6.2-2 6-4h0zm766.2 167c.1 2 3 3.4 6.5 3.2s6.2-2 6-4c-.1-2-3-3.4-6.5-3.2s-6.2 2-6 4h0zM233.3 353.1c0-.8-1.3-1.4-2.7-1.3-1.5 0-2.6.8-2.5 1.7 0 .8 1.3 1.4 2.7 1.3 1.5 0 2.6-.8 2.5-1.7h0zM471.5 404c0-.8-1.3-1.4-2.7-1.3-1.5 0-2.6.8-2.5 1.7 0 .8 1.3 1.4 2.7 1.3 1.5 0 2.6-.8 2.5-1.7h0zm536 114.3c0-.8-1.3-1.4-2.7-1.3-1.5 0-2.6.8-2.5 1.7 0 .8 1.3 1.4 2.7 1.3 1.5 0 2.6-.8 2.5-1.7h0zM483.7 408.4c.1 2.1 3.3 3.7 7 3.4 3.7-.2 6.7-2.2 6.5-4.3-.1-2.1-3.3-3.7-7-3.4-3.7.2-6.7 2.2-6.5 4.3h0zm28.6 4.2c0 .8 1.3 1.4 2.7 1.3 1.5 0 2.6-.8 2.5-1.7 0-.8-1.3-1.4-2.7-1.3-1.5 0-2.6.8-2.5 1.7h0zM249.6 355c0-.8-1.3-1.4-2.7-1.3-1.5 0-2.6.8-2.5 1.7 0 .8 1.3 1.4 2.7 1.3 1.5 0 2.6-.8 2.5-1.7h0zm465 99.2c0-.8-1.3-1.4-2.7-1.3-1.5 0-2.6.8-2.5 1.7 0 .8 1.3 1.4 2.7 1.3 1.5 0 2.6-.8 2.5-1.7h0zm274.9 58.7c0-.8-1.3-1.4-2.7-1.3-1.5 0-2.6.8-2.5 1.7 0 .8 1.3 1.4 2.7 1.3 1.5 0 2.6-.8 2.5-1.7h0zm-247.2-53.1c-.1-2.1-3.3-3.7-7-3.4-3.7.2-6.7 2.2-6.5 4.3.1 2.1 3.3 3.7 7 3.4 3.7-.2 6.7-2.2 6.5-4.3h0zm10.3 5.6c0 .8 1.3 1.4 2.7 1.3 1.5 0 2.6-.8 2.5-1.7 0-.8-1.3-1.4-2.7-1.3-1.5 0-2.6.8-2.5 1.7h0z"/><g class="H"><path d="M657.7 420.8c.4-.5.6-1.1.5-1.6m-12.4 14.1c1.8-.4 3.3-1.2 4-2.2m-17.4 54.7c.3 0 .6 0 .7-.2m-1.3-.3c-.1.2 0 .3.3.4m-15.7-7.4c0 .1-.2.3-.2.4m.5-.7c-.1 0-.2.2-.3.3m6.7 1.4v-.3m-.6.5c.3 0 .6 0 .6-.2m-1.3-.2c0 .1 0 .3.3.3"/><path d="M621.8 479.5v-.3m0 0v-.1m-13.4 1.2c-.1.2 0 .3.3.4m1.6-2.9c.1-.2.2-.3.3-.5m.1 0c0-.2.2-.3.2-.5m-3.6-.8h-.1m0 .1c-.3.3-.6.5-.8.8m-2.7 2.8c.3 0 .6 0 .7-.2m-1.3-.3c-.1.2 0 .3.3.4m7.7 1.3c-.1.2 0 .3.3.4m.4.1c.3 0 .6 0 .7-.2m8.9 1.7c-.2 0-.3.3-.2.4 0 0 .1 0 .2.1m6.2 1.4c.3 0 .6 0 .7-.2v-.2m-1.5.1s.1.2.3.2m-.9-2.8c0 .3.1.6.2.9m-1.6-.3c.5-.2.9-.4 1.3-.6m-4.2 1.6h.5m17.6 3.9c.3 0 .6 0 .7-.2m-6.1-1.3c-.1.2 0 .3.3.4m.5-.7c-.3 0-.6 0-.7.2m1.8-1.8c-.1.2 0 .3.3.4"/></g></g><path d="M231.3 340.6c-.2.3-.3.5-.3.8m0 0c0 .4.2.7.6 1" class="J G H"/><path d="M231.7 342.4a1.44 1.44 0 0 0 .3.2m4.5-.4c.1 0 .2-.2.3-.3" class="I G H"/><g class="J G H"><use href="#C"/><path d="M236.9 342.1l.3-.3m0 0c.2-.3.3-.6.3-.9m0 0c0-1.1-1.6-1.8-3.5-1.7s-3.3 1.1-3.2 2.1c0 .4.3.8.8 1.1"/><use href="#D"/><path d="M229.3 341.4v.2"/></g><g class="I G H"><path d="M239.3 340.7c-.2-1.6-2.8-2.7-5.6-2.4-2.6.2-4.7 1.6-4.7 3.1m.1-.9c-.2.2-.3.4-.4.7"/><path d="M239.6 340.5c-.3-.5-.8-1-1.5-1.3m-8.1.5c-.4.3-.7.6-.9.9"/></g><g class="J G"><path d="M658.3 469.2h-.2m-2.7.2h-.2" class="H"/><path d="M653.7 411c0-.7-1.1-1.2-2.3-1.1s-2.2.7-2.2 1.4 1.1 1.2 2.3 1.1c1.2 0 2.2-.7 2.2-1.4h0z"/></g><path d="M655.9 413.9a1.92 1.92 0 0 0 .4-1.2m-9.6.6c0 1.5 2.3 2.6 4.9 2.4 1.8-.1 3.4-.8 4.2-1.8" class="H I G"/><path d="M235.6 341.7h-.2m-2.7.3h-.2" class="J G H"/><g class="I G H"><path d="M196.1 386.6c.7.4 1.4.8 2.3 1.1m.5.2c2.3.7 5 .2 6-1.1m47-115c.4-.4.5-.8.5-1.3m-4.6 3.1c1.7-.2 3.1-.7 3.8-1.5m-3.8 1.5c-3.4.4-5.6 2-4.9 3.7.1.3.4.6.7.9m.2 2.3c.7-.8.6-1.6-.2-2.4m-6.2 6.9c1.7-.2 3.1-.7 3.8-1.5m-3.8 1.5c-3.4.4-5.6 2-4.9 3.7.1.3.4.6.7.9m.2 2.3c.7-.8.6-1.6-.2-2.4m-6.3 6.8c1.7-.2 3.1-.7 3.8-1.5m-3.8 1.5c-3.4.4-5.6 2-4.9 3.7.1.3.4.6.7.9m.2 2.4c.7-.8.6-1.6-.2-2.4m-6.2 6.8c1.7-.2 3.1-.7 3.8-1.5m-3.8 1.5c-3.4.4-5.6 2-4.9 3.7.1.3.4.6.7.9m.1 2.4c.7-.8.6-1.6-.2-2.4m-6.2 6.8c1.7-.2 3.1-.7 3.8-1.5"/><path d="M206 319.1c-3.4.4-5.6 2-4.9 3.7.1.3.4.6.7.9m.2 2.4c.7-.8.6-1.6-.2-2.4m-6.3 6.8c1.7-.2 3.1-.7 3.8-1.5m-3.8 1.5c-3.4.4-5.6 2-4.9 3.7.1.3.4.6.7.9m.3 2.3c.6-.7.5-1.6-.3-2.3m.3 2.3c-1.6 1.9.1 4 3.8 4.8m.5 0c2.3.5 5 0 6-1.2m.7-8.2c-1.5 1.7-.4 3.6 2.6 4.6m967.5 54.4c.2-.2.2-.4.2-.6m-4.2 9.2c.2-.2.2-.4.2-.6m7.5-16.3a2.99 2.99 0 0 0 .7-1.9m-12.3 27.3c.2-.2.2-.4.2-.6m-64.4 70.7c-2.3-.5-5.1 0-6.5 1.3m-4.7 9c3-.5 5.1-2.1 5-3.9m-5 3.9c-1.7.3-3 1-3.7 1.9m-6.7 11.7c3-.5 5.1-2.1 5-3.9m-5 3.9c-1.7.3-3 1-3.7 1.9m-6.6 11.7c3-.5 5.1-2.1 5-3.9m-5 3.9c-1.7.3-3 1-3.7 1.9m-6.6 11.6c3-.5 5.1-2.1 5-3.9m-5 3.9c-1.7.3-3 1-3.7 1.9m-6.6 11.7c3-.5 5.1-2.1 5-3.9m-5 3.9c-1.7.3-3 1-3.7 1.9m-6.6 11.6c3-.5 5.1-2.1 5-3.9"/></g><path d="M189 368.8c-.2.3-.3.5-.3.8m0 0c0 .4.2.7.6 1" class="J G H"/><path d="M189.4,370.6c1,.7,3,.8,4.4.1.3-.2.6-.3.8-.5" class="G H I"/><use href="#C" x="-42.3" y="28.2" class="G H J"/><g class="I G H"><path d="M600.7 474.8c0 .3-.1.5-.2.8m10.5 1.9v-.2m-.2.7c.1-.2.2-.3.2-.5m-.5.9c.1-.2.2-.3.3-.5M206.3 353.8c.3.1.7.2 1.1.3m214.5-14.3c.3-.5.3-1-.2-1.3m-6.7 2.8v.1"/><path d="M414.9 340.3c-.3.5-.3 1 .2 1.3m.2 2.7c.2-.3.3-.5.3-.8"/><path d="M415.3 343.3c.4-.6.4-1.2-.2-1.7m-2.6 4.5c1-.1 1.9-.6 2.3-1.1m-2.4.1c1-.1 1.9-.6 2.3-1.1m-2.2 2.1c-.8.1-1.5.5-1.9.9"/><path d="M412.4 345.1c-.8.1-1.5.5-1.9.9m0 8.9c-6.4 8.4 0 17.7 14.2 20.7m400.4-26.8c-3.8-.8-8.3.4-10 2.6m-410.4 2.2c-5.9 7.7-3.1 16.4 7.1 21.8m42.7 8.3c-.1-.5-.7-.8-1.4-1m1.3 0c-.1-.5-.7-.8-1.4-1m1.5 2c.2.6.9 1.1 1.8 1.3"/></g><path d="M660.2 468.3c0-1.1-1.6-1.8-3.5-1.7s-3.3 1.1-3.3 2.1c0 1.1 1.6 1.8 3.5 1.7s3.3-1.1 3.3-2.1h0z" class="G J"/><g class="I G"><path d="M580 250.8c.5-.3 1-.7 1.3-1.1m0 0c.4-.5.6-1.1.5-1.6m0-.1c-.1-2-3-3.4-6.5-3.2-3.2.2-5.8 1.8-6 3.6m-194.2-42.7c1.4-1.9 0-3.9-3.1-4.6-3.2-.7-6.9.3-8.3 2.2-.3.4-.5.8-.5 1.3m10.6 2.2c.5-.3 1-.7 1.3-1.1m525.6 113.5c.5-.3 1-.7 1.3-1.1m0 0c.4-.5.6-1.1.5-1.6m0 0c-.1-2-3-3.4-6.5-3.2-3.2.2-5.8 1.8-6 3.6m266.9 49.9c-.8-1.5-2.8-2.8-5.5-3.3m-810-172.9c-5.1-1.1-11 .5-13.3 3.5" class="H"/><path d="M1132 364.9c0-.8-1.3-1.4-2.7-1.3-1.5 0-2.6.8-2.5 1.7 0 .8 1.3 1.4 2.7 1.3 1.5 0 2.6-.8 2.5-1.7h0zm-249.6-53.3c0-.8-1.3-1.4-2.7-1.3-1.5 0-2.6.8-2.5 1.7 0 .8 1.3 1.4 2.7 1.3 1.5 0 2.6-.8 2.5-1.7h0z"/><g class="H"><path d="M540 403.5c0 .2.2.4.4.5m27.9 63.7c-.4.3-.8.7-1.1 1m-10.3-57.8c.9-1.1.4-2.4-1.1-3.2m33.8 4.8c-.1-1-1.3-1.9-2.9-2.3m-34.2 6.5c-.8 1-.5 2.2.7 3m-81-127.5c2.7-.3 5-1.3 6.1-2.8m-29.3-6.3c-1.1 1.5-.8 3.1.8 4.3m10.2-8.2c-3.8-.8-8.3.4-10 2.6m29.3 6.2c1.7-2.2 0-4.7-3.8-5.5m111.9 132.9h-.4m-62.7-19.3c-.2-.7-1-1.3-2.2-1.5m2.2 1.5c.1.4.5.6 1.1.8m1.2.2c.6.1 1.2 0 1.8-.1m3.5-.3c-1.1-.2-2.5-.1-3.5.3m62.4 14c-.3-1.2-1.7-2.1-3.6-2.5M575 424.4a11.15 11.15 0 0 0 6-.5"/><path d="M551.3,415.4c-1.4,1.9,0,3.9,3.1,4.6"/></g></g><g class="J G"><path d="M1014.4 507.9h-.2m-2.7.2h-.2" class="H"/><path d="M195.2,369.1c0-1.1-1.6-1.8-3.5-1.7s-3.3,1.1-3.3,2.1c0,1.1,1.6,1.8,3.5,1.7s3.3-1.1,3.3-2.1h0Z"/></g><g class="I G"><g class="H"><path d="M635.4 486.3h-.4m2.2-2h-.4M454.4 382.7c.2.6.9 1.1 1.8 1.3m6.6.8c-.8-.2-1.7 0-2.4.2m-2.9.2c1 .2 2.1.1 3-.2"/><path d="M462.7 383.7c-.8-.2-1.7 0-2.4.2m-2.9.3c1 .2 2.1.1 3-.2m10.9 4.8c-.1-.4-.4-.7-.9-1m.9 1c0 .2.2.4.4.5m51.5 9.1c-.1-.5-.7-.8-1.4-1"/><path d="M523.2 397.3c-.1-.5-.7-.8-1.4-1m1.4 2.1c.2.6.9 1.1 1.8 1.3"/><path d="M523.2 397.3c.2.6.9 1.1 1.8 1.3m6.5.8c-.8-.2-1.7 0-2.4.2m-2.9.3c1 .2 2.1.1 3-.2"/><path d="M531.4 398.4c-.8-.2-1.7 0-2.4.2m-2.9.2c1 .2 2.1.1 3-.2m42.5 69.8c-1.9.5-3.5 1.4-4.4 2.5m1.1-3.2c-.5.4-.9.7-1.3 1.2m-27-65.4c-.1-.4-.4-.7-.9-1"/></g><path d="M352.5 200c0 .8 1.3 1.4 2.7 1.3 1.5 0 2.6-.8 2.5-1.7 0-.8-1.3-1.4-2.7-1.3-1.5 0-2.6.8-2.5 1.7h0zm238.3 50.9c0 .8 1.3 1.4 2.7 1.3 1.5 0 2.6-.8 2.5-1.7 0-.8-1.3-1.4-2.7-1.3-1.5 0-2.6.8-2.5 1.7h0z"/><path d="M1117.3 364c1.4-1.9 0-3.9-3.1-4.6-3.2-.7-6.9.3-8.3 2.2-.3.4-.5.8-.5 1.3m10.6 2.3c.5-.3 1-.7 1.3-1.1m-30.4 84.5c.6-.6 1-2.1 1-3.3v-.2M331.3 174.2c-3.8-.8-8.3 0-10 1.9m853.5 182.2c1.7-1.9 0-4.1-3.7-4.9M612.2 477.2v-.2m-5.3-1.1c-.5.2-.9.4-1.1.7m0 0c-.2.2-.4.5-.6.7" class="H"/><use href="#E"/><g class="H"><path d="M186.7,368.7c-.4.5-.5,1-.5,1.5"/><use href="#F"/><path d="M187.7 367.9c-.4.3-.7.6-.9.9m269.1-100.3c-3.8-.8-8.3.4-10 2.6m13.2 11.5c-2.5-.5-5.5.2-6.6 1.7m-1.1 1.4c-.5.7-.6 1.4-.2 2.1m26 1.8c1.1-1.5 0-3.1-2.5-3.7m14.3-5.6c1.7-2.2 0-4.7-3.8-5.5m-46.5 5.8c-1.2 1.6-.7 3.4 1.2 4.6m36.1 5.9l.2-.2m-23-.9c.4-.6.2-1.2-.5-1.6m6.7 2.4a.78.78 0 0 0-.4.4m21.9-.6l.9-.9m-33.4 12c-.2.1-.4.3-.5.5m178.4 180.2c0 .3.1.7.2 1M209.2 378.8s0 .1-.1.2m11.4 3.7s.1-.2.2-.3m187.6-15c.2 3.4 2.4 6.7 6.2 9.2m73.9-95.6c-.8-.5-1.7-.9-2.8-1.2m-29.4-6.2c-3.8-.8-8.3.4-10 2.6m7.4 18.9c.2-.2.2-.4.2-.7m-48.7 64.4c-1.6 2-2.5 4.2-2.9 6.4m155 50.9c.3-.4.5-.9.4-1.3m475.2-16.9c1.7-2.2 0-4.7-3.8-5.5m-364.2 34.1c-2.5-.5-5.5.2-6.6 1.7m-73.9.8c1 .5 2.3.8 3.7.8m82.3 7.5c-.5.4-.9.7-1.3 1.2m-21.1 3.3c-.8 1-.5 2.2.7 3m9.9-11.4c-1.1 1.5 0 3.1 2.5 3.7m2.5 8.6l.5-.5m74.1-3.1c3.8.8 8.3-.4 10-2.6M951 493.6c4.4.9 9.6-.4 11.6-3m-284.1-55.1c-3.2-.7-6.9.3-8.3 2.2"/><path d="M656.7 446.6c3.2.7 6.9-.3 8.3-2.2m-18.3-3.9c-1.4 1.9 0 3.9 3.1 4.6m15.5-20.3c-3.2-.7-6.9.3-8.3 2.2m81.6 13.4c3.2.7 6.9-.3 8.3-2.2m78.7-91.1c-4.4-.9-9.6.4-11.6 3m219.9 47c2-2.6 0-5.5-4.4-6.5m-823.3-38.8l1.7.6m347.7 57.2c.9-1.1 0-2.4-1.9-2.8m-15-4.2c.2.7 1 1.3 2.2 1.5m-2.2-1.5c-.1-.4-.5-.6-1.1-.8m-1.1-.2c-.6-.1-1.2 0-1.8.1m-3.5.4c1.1.2 2.5.1 3.5-.3M470 388c.2.7 1 1.3 2.2 1.5M470 388c-.1-.4-.5-.6-1.1-.8m-1.1-.2c-.6-.1-1.2 0-1.8.1m-3.6.3c1.1.2 2.5.1 3.5-.3m-62.4-34.7c-8.1 10.7 0 22.4 17.9 26.3m-9.3-35.3c-1.2.2-2.3.7-2.8 1.4m2.8-1.4a1.75 1.75 0 0 0 1.4-.7m601.6 207.7l-.5.5"/></g></g><path d="M1010.1 506.7c-.2.3-.3.5-.3.8m0 0c0 .4.2.7.6 1" class="J G H"/><path d="M1010.5 508.5a1.44 1.44 0 0 0 .3.2m4.5-.3c.1 0 .2-.2.3-.3" class="I G H"/><g class="J G H"><use href="#C" x="778.8" y="166.1"/><path d="M1015.7 508.3l.3-.3m0-.1c.2-.3.3-.6.3-.9"/><path d="M1016.3,507.1c0-1.1-1.6-1.8-3.5-1.7s-3.3,1.1-3.3,2.1c0,.4.3.8.8,1.1"/><use href="#D" x="778.8" y="166.2"/><path d="M1008.1 507.6v.2"/></g><g class="I G H"><path d="M1018.1 506.9c-.2-1.6-2.8-2.7-5.6-2.4-2.6.2-4.7 1.6-4.7 3.1m.1-.9c-.2.2-.3.4-.4.7m10.9-.8c-.3-.5-.8-1-1.5-1.3"/><path d="M1008.8,505.8c-.4.3-.7.6-.9.9"/></g><path d="M652.3 411.5h-.2m-1.6.1h-.2" class="J G H"/><path d="M928 566.4c0 1.7 2.9 3.1 6.3 3 3.5 0 6.3-1.5 6.2-3.2 0-1.7-2.9-3.1-6.3-3-3.5 0-6.3 1.5-6.2 3.2h0zm-274.9-58.7c0 1.7 2.9 3.1 6.3 3 3.5 0 6.3-1.5 6.2-3.2 0-1.7-2.9-3.1-6.3-3-3.5 0-6.3 1.5-6.2 3.2h0zm-240.4-50.5c0 1 1.7 1.8 3.7 1.7s3.6-.9 3.6-1.8c0-1-1.7-1.8-3.7-1.7-2 0-3.6.9-3.6 1.8h0zm-238.2-50.8c0 1 1.7 1.8 3.7 1.7s3.6-.9 3.6-1.8c0-1-1.7-1.8-3.7-1.7s-3.6.9-3.6 1.8h0z" class="I G"/><g class="H G"><g class="J"><path d="M556.2 514.4v.3m5.8 1.3h.3"/><use href="#G"/><path d="M562.1 515.6v.3m-3.6-1.8h.3m-6.2-2.9v.3m10.6 5.9s0 .1.1.1m-4.9-4.7h.3"/><use href="#G" x="-3.6" y="-3.2"/><path d="M558.5 512.5v.3m-17.1-12.5c.1 0 .2 0 .3-.2m.4-1.4c-.3.4-.4.9-.4 1.4m21.4 16s0 .1.1.1m.1-.3h-.2m-3.5-1.6s0 .1.1.1m-.2-1.5s0 .1.1.1"/><path d="M559.7 512.8h-.2M544.6 498c-1.8-.4-3.3.6-3.1 2.3m3.7 5s-.1.2-.1.3m-4.6-5.1h.4m4 5.7v.4m18.4 10.9v.1m6.1 1.3v-.1m-.2 0v.1m-9.5-4.5v.1m6.2 1.2v-.1m-.3 0v.1"/></g><path d="M565.9 515.8c.3 0 .4 0 .4-.3m-6.8-1.5s0 .2.1.3m-.8 0c.3 0 .4 0 .4-.3m-6.8-1.5s0 .2.1.3m-.8 0c.3 0 .4 0 .4-.3m-6.8-1.5s0 .2.1.3m-.8-.1c.3 0 .4 0 .4-.3m-6.8-1.4s0 .2.1.3m-.8-.1c.3 0 .4 0 .4-.3m-3.6.3c0-.2-.2-.4-.5-.5m1.2.3c-.3 0-.4 0-.4.3m6.8 1.4c0-.2-.2-.4-.5-.5m1.2.3c-.3 0-.4 0-.4.3m6.8 1.4c0-.2-.2-.4-.5-.5m1.2.3c-.3 0-.4 0-.4.3m6.8 1.5c0-.2-.2-.4-.5-.5" class="I"/><path d="M566.8 514.3v.3m3.8.3c.2 0 .5 0 .6-.1m-7.2-2.7c0 .2-.2.4-.1.6" class="J"/><path d="M565.2 512.1c.2.1.5.3.8.4m6.9 3.8c0-.2-.2-.4-.5-.5" class="I"/><path d="M570.5 514.1c.2 0 .5 0 .6-.1m-.4-.5c0 .2-.2.4-.1.6m-7.2-7.3s.1.1.3.1" class="J"/><path d="M569.7 513.1c.9 0 1.7-.4 2.2-1m-3.2 1h1m1.4 1.8l.6-.6" class="I"/><g class="J"><path d="M569.2 518.8h.3m-6.2-2.9v.3m5.8 1.3h.3"/><use href="#G" x="7.1" y="1.5"/><path d="M569.2 517.2v.3m-5.6-4.2c0 .1.1.2.3.2m1.7 2.1h.3"/></g><path d="M540.6 508.4c.2-.1.4-.3.6-.6m3.8 1.4c-.2 0-.5 0-.6.2m1.2.3c0-.2 0-.3-.3-.4m6.8 1.4c-.2 0-.5 0-.6.2m1.2.3c0-.2 0-.3-.3-.4m6.8 1.4c-.2 0-.5 0-.6.2m1.2.3c0-.2 0-.3-.3-.4" class="I"/><g class="J"><path d="M559.7 512.8v.3m10.7 6v.1m-.1-.3s0 .1.1.1m-4.9-4.7h.3"/><use href="#G" x="3.5" y="-1.6"/><path d="M565.6 514v.3m4.6 3.3s0 .1.1.1m.1-.3h-.2m-6.6-4.9c0 .1.1.2.3.2m.1-.6c-.2 0-.4 0-.4.2m3.1 3.5s0 .1.1.1m-.2-1.4s0 .1.1.1"/><path d="M566.8 514.3h-.2"/></g><path d="M564.7 511.5c.1.2.3.4.6.6m-3-6.3h.9m-22.1 1.1c0-.2-.2-.4-.5-.5m23.6 5c-.2 0-.4 0-.4.2" class="I"/><path d="M559.9 509.8c2.3.5 4-.8 3.8-2.8m-23.1-4.9c.1 2 2.1 4.1 4.3 4.5m-.6-8.9c-2.3-.5-4 .8-3.8 2.8m23.1 4.9c-.1-2-2.1-4.1-4.3-4.5" class="J"/><path d="M557.5 584.2c1.3.4 2.6.7 3.9.8m12.9-74.6c0-.2-.2-.4-.5-.5m2.7 2.5c0-.3-.3-.7-.7-.8m.8 5.8c.1 0 .2-.2.2-.4M533 502.5c-.3 0-.5 0-.6.3" class="I"/></g><path d="M699 518.3c0 1 1.7 1.8 3.7 1.7s3.6-.9 3.6-1.8c0-1-1.7-1.8-3.7-1.7-2 0-3.6.9-3.6 1.8h0zm249.7 53.3c0 1 1.7 1.8 3.7 1.7 2 0 3.6-.9 3.6-1.8 0-1-1.7-1.8-3.7-1.7s-3.6.9-3.6 1.8h0zM188.1 408.5c0 1.7 2.9 3.1 6.3 3 3.5 0 6.3-1.5 6.2-3.2 0-1.7-2.9-3.1-6.3-3-3.5 0-6.3 1.5-6.2 3.2h0zm268 57.2c0 1.7 2.9 3.1 6.3 3 3.5 0 6.3-1.5 6.2-3.2 0-1.7-2.9-3.1-6.3-3-3.5 0-6.3 1.5-6.2 3.2h0z" class="G I"/><g class="H G"><g class="J"><path d="M1108.8 363.3s-.1.2-.2.3"/><use href="#C" x="877.5" y="22.7"/><path d="M1114.4 364.8l.3-.3m0 0c.2-.3.3-.6.3-.9m0 0c0-1.1-1.6-1.8-3.5-1.7-1.5 0-2.8.8-3.2 1.6"/><use href="#H"/><path d="M1115.7 365.1l.3-.3"/></g><g class="I"><path d="M1116.4 364.9a1.92 1.92 0 0 0 .4-1.2m0-.1c-.1-1.6-2.5-2.8-5.4-2.6-2.1.1-4 1-4.7 2.2m10.6.8c0-.9-.6-1.6-1.7-2.2"/><path d="M1107.5 362.4c-.3.2-.6.5-.9.8M134 462.1c.1 1.8 1.9 3.4 4.5 4.3m-4.5-16.7c-1.7 2.2 0 5.1 3.8 6.3m415.7 133.7c1.2.4 2.4.7 3.6.8m421.1 53.8c3.8.4 8.2-1.1 9.9-3.4m-10.6-6.9c3.8.4 8.2-1.1 9.9-3.4"/></g><path d="M897.8 318.5h-.2" class="J"/><path d="M614.5 436.1h.3m-1.9 2.1c1.1.2 2-.4 1.9-1.4m2-.7c.3-.3.4-.8.3-1.2" class="I"/><path d="M644.5 421.9h-.2m-1.6.1h-.2" class="J"/></g><g class="I G"><use href="#E" x="739.9" y="157.9"/><g class="H"><path d="M926.6,526.6c-.4.5-.5,1-.5,1.5"/><use href="#F" x="739.8" y="157.9"/><path d="M927.5,525.7c-.4.3-.7.6-.9.9"/></g></g><g class="J G H"><path d="M533.4 507v.1m7.2 1.3v-.1m-.6.1v.1m2 4.5v.1m6.1 1.2v-.1m-.2 0v.1m-9.5-4.5v.1m6.2 1.3v-.1m-.3 0v.1"/><path d="M540 508.4c.2 0 .5 0 .6-.1m-7.1-2.7c0 .2-.2.4-.1.6"/></g><path d="M539.1 506.5c.4 0 .7-.1 1-.2m-5.4-.7c.2.1.5.3.8.4m2.6.6h1" class="I G H"/><path d="M540 507.6c.2 0 .5 0 .6-.1m-.5-.5c0 .2-.2.4-.1.6" class="J G H"/><g class="I G H"><path d="M606.4 435.2c-.2-.1-.5-.1-.7 0 0 0-.1 0-.2.1m1.9.6h.4m-6.2-2.6h.2m-5.3-3.6c-.6.2-.9.7-.9 1.4m9.2-11.6c-.8-.2-1.5 0-2 .4m9.4 15.6s.1 0 .2.1"/><path d="M607.2 436c.2.1.5.1.7 0 0 0 .1 0 .2-.1m-1.9-.6h-.4"/></g><g class="J G"><path d="M455 432.4c.8 1.6 3.8 2.4 6.7 1.8 1.5-.3 2.8-1 3.5-1.9m69.5 77.7s0 .1.1.1m.1-.3h-.2m.2 1.7v.1m6.1 1.2v-.1m-.2 0v.1m-9.7-4.5v.1m6.3 1.3v-.1m-.2 0v.1m-4.1-3c0 .1.1.2.3.2m-.4-.9c0 .1.1.2.3.2m.2-.6c-.2 0-.4 0-.4.2m7.7 6.9h.3m-6.2-2.9v.3" class="H"/><path d="M540.8 511.1v.3m-.1 0h.3" class="H"/><path d="M590.4 420.5c0-.7-1.1-1.2-2.3-1.1-1.2 0-2.2.7-2.2 1.4s1.1 1.2 2.3 1.1 2.2-.7 2.2-1.4h0z"/></g><path d="M592.7 423.5a1.92 1.92 0 0 0 .4-1.2m-9.6.5c0 1.5 2.3 2.6 4.9 2.4 1.8-.1 3.4-.8 4.2-1.8" class="H I G"/><g class="J G H"><path d="M577.1 250.1h-.2m-4.1-1.2s-.1.2-.2.3"/><use href="#C" x="341.5" y="-91.7"/><path d="M578.4 250.5l.3-.3m0-.1c.2-.3.3-.6.3-.9"/><path d="M579,249.3c0-1.1-1.6-1.8-3.5-1.7-1.5,0-2.8.8-3.2,1.6"/></g><g class="I G"><path d="M637.4 437.1c1.3.3 2.8-.1 3.3-.9m18.1-23.6c.6-.7 0-1.6-1.3-1.8" class="H"/><use href="#I"/><use href="#I" x="5.7" y="12.8"/><use href="#I" x="-1.1" y="1.5"/><use href="#I" x="2.7" y="0.6"/><path d="M608.9,410.3c0,.2.2.3.5.3s.5-.2.5-.3-.2-.3-.5-.3-.5.2-.5.3h0Z"/><use href="#I" x="11" y="11.9"/><path d="M622.8 427.5c.3 0 .5-.2.5-.3 0-.2-.2-.3-.5-.3m-20.9-6s-.1.2-.1.4m5.7-.4c-.2 0-.5.3-.6.4m2.3-.8h-.9m.2 1.6h-.2m.1-.6h-.9m-1.9 2s0 .1.2.2m-.5-.7c-.1-.2-.4-.4-.6-.4m11.6-.4c-.3-.2-.6-.4-.9-.5m-1.1 1.7h-.2m3.2.1c.1-.1 0-.4-.2-.6" class="H"/></g><path d="M533.7 511.2v.1m.2 0v-.1m-2.6-2.1h-.2m0 .2s0 .1.1.1" class="J G H"/><path d="M531.3,510.3c0,.2.2.4.5.5" class="G H I"/><g class="J G H"><path d="M533.7 511.2h.3m-2.7-2.1v.3"/><use href="#G" x="-28.4" y="-6.1"/><path d="M533.7 509.6v.3m-.1 0h.3m-2.9-1.7s0 .1.1.1m3.7 3.1s0 .1.1.1"/></g><g class="I G"><use href="#E" x="268" y="57.2"/><g class="H"><path d="M454.7,425.9c-.4.5-.5,1-.5,1.5"/><use href="#F" x="268" y="57.2"/><path d="M455.7,425.1c-.4.3-.7.6-.9.9"/></g></g><g class="J G H"><path d="M547.9 514.2h.3m-6.2-2.8v.3m5.8 1.2h.3"/><use href="#G" x="-14.2" y="-3"/><path d="M547.9 512.6v.3m-3.6-1.8h.3m-6.2-2.9v.3m10.6 5.9s0 .1.1.1m-4.9-4.7h.3"/><use href="#G" x="-17.8" y="-6.2"/></g><path d="M458.1,448.4c0,1,1.5,1.7,3.3,1.6,1.7-.1,3.1-1,3-2" class="G H I"/><g class="J G"><path d="M641.5,421.6c0,.6,1,1.1,2.1,1,1.1,0,2-.6,1.9-1.3,0-.6-1-1.1-2.1-1-1.1,0-2,.6-1.9,1.3h0Z"/><use href="#J"/></g><path d="M648 424.2a1.92 1.92 0 0 0 .4-1.2m-9.5.6c0 1.5 2.3 2.6 4.9 2.4 1.8-.1 3.4-.8 4.2-1.8" class="H I G"/><g class="J G H"><path d="M1113.1 364.5h-.2m-654.5 62.9h-.2"/><use href="#G" x="-21.3" y="-4.5"/></g><path d="M531.5,507.1c-.3,0-.4,0-.4.3" class="G H I"/><g class="J G H"><path d="M537.2 509.6h.3m4.4 3.3s0 .1.1.1"/><use href="#G" x="-24.9" y="-7.7"/><path d="M537.2 507.9v.3m-.1.1h.3m4.4 3.3s0 .1.1.1m.1-.3h-.2m-3.5-1.7s0 .1.1.1"/></g><path d="M534,504.5c0,.4.3.8.7,1.1" class="G H I"/><g class="J G H"><path d="M538.2 508.4s0 .1.1.1m.1-.3h-.2m6.1 1.3v.3m4.6 3.3s0 .1.1.1m.1-.3h-.2m-3.5-1.7s0 .1.1.1m-.2-1.4s0 .1.1.1"/><path d="M545.5 509.7h-.2m3.8 4.8v.1m6.1 1.2v-.1m-.2.1v.1m-9.5-4.5v.1m6.2 1.2v-.1m-.3 0v.1"/></g><path d="M543.9,499c.1,1.6,1.6,3.2,3.4,3.6" class="G H I"/><g class="J G H"><path d="M555 515.8h.3M366.6 204.9s-.1.2-.2.3"/><use href="#C" x="135.4" y="-135.7"/><path d="M372.3 206.5l.3-.3m0-.1c.2-.3.3-.6.3-.9"/><path d="M372.9,205.3c0-1.1-1.6-1.8-3.5-1.7-1.5,0-2.8.8-3.2,1.6"/><use href="#H" x="-742.1" y="-158.4"/><path d="M373.6 206.8l.3-.3"/></g><path d="M374.3 206.5a1.92 1.92 0 0 0 .4-1.2m0 0c-.1-1.6-2.5-2.8-5.4-2.6-2.1.1-4 1-4.7 2.2m10.5.8c0-.9-.6-1.6-1.7-2.2m-8.1.5c-.3.2-.6.5-.9.8" class="I G H"/><g class="J G"><path d="M461.3 427.1h-.2" class="H"/><use href="#K"/><path d="M601.3,401c0,.6,1,1.1,2.1,1,1.1,0,2-.6,1.9-1.3,0-.6-1-1.1-2.1-1-1.1,0-2,.6-1.9,1.3h0Z"/><use href="#J" x="-40.2" y="-20.6"/></g><path d="M607.8 403.6a1.92 1.92 0 0 0 .4-1.2m-9.6.6c0 1.5 2.3 2.6 4.9 2.4 1.8-.1 3.4-.8 4.2-1.8" class="H I G"/><path d="M370.9 206.1h-.2" class="G H J"/><g class="I G H"><path d="M615.5 423.3c-.3-.2-.6-.4-.9-.5m.3.7h-.2m-7.1-.3c-.2 0-.4 0-.6.2m15.1 1.9c-.1.1-.2.4-.2.6m-8.1-.7s0 .1.2.2m-.5-.6c-.1-.2-.4-.4-.6-.4m3 .6c-.2 0-.5 0-.6.2m-16.1 7.6h.3m-2.2-2.2c0 .7.5 1.4 1.2 1.8"/><path d="M597.4 429.8c0 .2-.1.4-.1.6m23.6.2c.3-.3.4-.8.3-1.2m-2.3 3.8c.3-.3.4-.8.3-1.2m-23.5.7c0 1 1 2.1 2.2 2.3"/></g><path d="M457 426c-.2.3-.3.5-.3.8m0 0c0 .4.2.7.6 1" class="J G H"/><path d="M457.4,427.8c1,.7,3,.8,4.4.1.3-.2.6-.3.8-.5" class="G H I"/><use href="#C" x="225.7" y="85.4" class="G H J"/><path d="M595.1 433c0 1.2 1.2 2.4 2.5 2.7m-.4-5.9c-1.3-.3-2.3.5-2.3 1.7m19.9 4.2c0-1.2-1.2-2.4-2.5-2.7m.3 5.9c1.3.3 2.3-.5 2.3-1.7m-2.3 2c1.5.3 2.7-.5 2.6-1.9m-.1-1.6c0-1.4-1.4-2.7-2.9-3.1m-15-3.1c-1.5-.3-2.7.5-2.6 1.9m.1 1.5c0 1.4 1.4 2.7 2.9 3.1" class="I G H"/><g class="J G H"><path d="M604.2 401.2h-.2m-1.6.2h-.2m-53.1 111.5v.3m5.8 1.2h.3"/><use href="#G" x="-7.1" y="-1.5"/><path d="M555 514.1v.3m-13.5-12.5c.1 0 .2 0 .3-.2m0 0c.1 1.6 1.6 3.2 3.4 3.6m6.2 7.3h.3m-6.2-2.9v.3m10.6 5.9s0 .1.1.1m-4.9-4.7h.3"/><use href="#G" x="-10.7" y="-4.7"/><path d="M551.4 511v.3M580 250.4c1.1-1.4 0-3-2.4-3.5s-5.3.2-6.4 1.7c0 .1-.2.2-.2.3m8.7 1.8l.3-.3"/></g><g class="I G H"><path d="M580.4 250.5a1.92 1.92 0 0 0 .4-1.2m0 0c-.1-1.6-2.5-2.8-5.4-2.6-2.1.1-4 1-4.7 2.2m10.6.8c0-.9-.6-1.6-1.7-2.2m-8.1.5c-.3.2-.6.5-.9.8M659 415.9c.2-.2.2-.4.2-.7m-78 12.3c0 .5.6 1 1.5 1.2m12.1 6.6c0 .5.6 1 1.5 1.2m29.1 1.3c-1.3-.3-2.8.1-3.3.9m-4.4 2.4c1.3.3 2.8-.1 3.3-.9m16.7.2c1.3.3 2.8-.1 3.3-.9m-24.2-3.1c-.2.2 0 .5.4.6.4 0 .8 0 1-.3"/><path d="M618.8 435.9c.1-.2 0-.3-.1-.4m2.2-4.1c.2.2.6.3 1 .2.2 0 .3-.1.4-.2m1.1-1.5c.2-.2 0-.5-.4-.6M602.6 399c-1.3-.3-2.8.1-3.3.9m-18.1 23.7c-.6.7 0 1.6 1.3 1.8m13.5 3.4c-.2-.4-.7-.6-1.3-.8m-.1 3.6c-.1.3 0 .5 0 .8m22.8 5.4c1.3.3 2.8-.1 3.3-.9m4.5-2.4c-1.3-.3-2.8.1-3.3.9"/></g><g class="J G"><path d="M586.2,420.9c0,.6,1,1.1,2.1,1,1.1,0,2-.6,1.9-1.3,0-.6-1-1.1-2.1-1-1.1,0-2,.6-1.9,1.3h0Z"/><g class="H"><path d="M893.5 317.4s-.1.2-.2.3"/><use href="#C" x="662.2" y="-23.2"/><path d="M899.1 318.9l.3-.3m0 0c.2-.3.3-.6.3-.9m0 0c0-1.1-1.6-1.8-3.5-1.7-1.5 0-2.8.8-3.2 1.6"/><use href="#H" x="-215.3" y="-46"/><path d="M900.4 319.2l.3-.3"/></g></g><path d="M901.1 318.9a1.92 1.92 0 0 0 .4-1.2m0 0c-.1-1.6-2.5-2.8-5.4-2.6-2.1.1-4 1-4.7 2.2m10.6.8c0-.9-.6-1.6-1.7-2.2m-8.2.5c-.3.2-.6.5-.9.8" class="I G H"/><path d="M589.1 421.1h-.2m-1.6.1h-.2" class="J G H"/><path d="M622.1 426.8c0 .2.1.3.2.1m-5 7.1c-.1.1-.2.5-.2.7m.4-.6c0-.2-.1-.3-.2-.1m1.7-2.3c-.1.1-.2.5-.2.7m.5-.6c0-.2-.1-.3-.2-.1m2.3-3.1c-.1.1-.2.5-.2.7m.4-.6c0-.2-.1-.3-.2-.1m-4.6-4.7c.3 0 .6 0 .7-.2m-3.2-1c-.3 0-.6 0-.7.2-.1.1 0 .3.3.4m-5.6-1.2c.3 0 .6 0 .7-.2.1-.1 0-.3-.3-.4m-3.6-.4c-.1.1 0 .3.3.4m16.5 2.5a3.93 3.93 0 0 0-2.1-1.3m2.3 3.9c0-.5-.2-.9-.5-1.4M414.1 342c.3-.3.2-.7-.1-1m-.3-2c-.5.7-.4 1.4.2 2m24-31.5c-1.2.2-2.3.7-2.8 1.4m2.8-1.4a1.75 1.75 0 0 0 1.4-.7m.6-.7c.3-.3.2-.7-.1-1m-.3-2c-.5.7-.4 1.4.2 2m12.3-18.4c.3-.4 0-.8-.6-.9m-13.9-8.5c-2 2.6 0 5.5 4.4 6.5m14.4-19c-4.4-.9-9.6.4-11.6 3m45.3 9.7c2-2.6 0-5.5-4.4-6.5m-14.4 19c4.4.9 9.6-.4 11.6-3m-21.1 1c-.6-.1-1.4 0-1.7.4m-9.6 10.3c1.2-.2 2.3-.7 2.8-1.4m-2.8 1.4a1.75 1.75 0 0 0-1.4.7m-.6.7c-.3.3-.2.7.1 1m.3 2c.5-.7.4-1.4-.2-2m-24 31.5c1.2-.2 2.3-.7 2.8-1.4m-2.8 1.4a1.75 1.75 0 0 0-1.4.7m-.5.7c-.3.3-.2.7.1 1m.2 2c.5-.7.4-1.4-.2-2m-11.3 17.1c-6.1 8 0 16.9 13.5 19.8m30.6 7.6c-.2-.7-1-1.3-2.2-1.5m2.2 1.5c.1.4.5.6 1.1.8m1.1.2c.6.1 1.2 0 1.8-.1m3.6-.4c-1.1-.2-2.5-.1-3.5.3" class="I G H"/><path d="M654 468c-.2.3-.3.5-.3.8m0 0c0 .4.2.7.6 1" class="J G H"/><path d="M654.4,469.8c1,.7,3,.8,4.4.1.3-.2.6-.3.8-.5" class="G H I"/><use href="#C" x="422.7" y="127.4" class="G H J"/><g class="I G H"><path d="M616.2 481.5v.4m0-.5l-.2-.2m-.4-.1c-.2 0-.4 0-.5.2"/><path d="M615.1 481.3v.3m6.1.1c0-.1 0-.2-.2-.3m0 .1c0-.1-.2-.2-.3-.3m0 0c-.1 0-.2-.1-.4-.2m0 0l-1.1-.5"/><path d="M618.1 480c.3.2.7.3 1.1.5m-1.6-.9c.1.1.3.3.5.4m-.5-.7v.3m4.4.2v-.1m-4.3-1.5c-.5.2-.9.4-1.1.7m0 0c0 .1-.2.2-.2.4m3.6 3c0-.1.1-.2 0-.4m-1.3.8c.5 0 1-.2 1.2-.5"/><path d="M616.9 482.4c.6.2 1.2.3 1.9.3m-2.5-.8c0 .2.3.4.6.5m-426.8-91.2c0 1 1.5 1.7 3.3 1.6 1.7-.1 3.1-1 3-2m824.7 167.6c-2.4-.3-4.9.5-5.9 1.9"/></g><path d="M193.3 370h-.2m-2.7.2h-.2" class="J G H"/><g class="I G H"><path d="M447.2 304.7c0 .3.2.6.5.9m-.3-2.7c-.4.6-.4 1.2.2 1.7m.2 1.2l-.2-.2"/><path d="M447.7 305.9c.3-.5.3-1-.2-1.3m-6.7 2.8v.1"/><path d="M440.7 306.4c-.3.5-.3 1 .2 1.3m.2 2.7c.2-.3.3-.5.3-.8"/><path d="M441.1 309.4c.4-.6.4-1.2-.2-1.7m-2.6 4.6c1-.1 1.9-.6 2.3-1.1m-2.4 0c1-.1 1.9-.6 2.3-1.1m-2.2 2.2c-.8.1-1.5.5-1.9.9"/><path d="M438.2 311.2c-.8.1-1.5.5-1.9.9m-13.7 23.5c-.2.1-.4.3-.5.5m-.7 2.5c0 .3.2.6.5.9m-.3-2.7c-.4.6-.4 1.2.2 1.7m.2 1.2l-.2-.2m215.4 144.1c-.3 0-.6 0-.7.2m-35.5-4.7c.3 0 .6 0 .7-.2m-2-.3c0 .1 0 .2.3.3m.4-4.4v.4m-.7 0c.2-.1.4-.2.6-.4m-5.5 3.3h.6m-1.7-.6c-.1.2 0 .3.3.4m61.1 12.8c0 1 1.5 1.7 3.3 1.6 1.7-.1 3.1-1 3-2"/></g><path d="M652,474.5c.8,1.6,3.8,2.4,6.7,1.8,1.5-.3,2.8-1,3.5-1.9" class="G H J"/><g class="I G"><use href="#E" x="465" y="99.2"/><g class="H"><path d="M651.7,467.9c-.4.5-.5,1-.5,1.5"/><use href="#F" x="464.9" y="99.2"/><path d="M652.7 467.1c-.4.3-.7.6-.9.9m-435.4-80.1c-2.5-.5-5.5.2-6.6 1.7m10-.9c-.4-.2-.8-.3-1.2-.4m40-116.5c.6-.6 1-2.1 1-3.3v-.2m358.4 210c-.1 0-.2.1-.3.2m0 0c-.1.1-.1.3 0 .4m0 .1c0 .1.2.3.4.4m0-.1c.3.2.7.3 1.1.5m1.2.5l-1.1-.5"/><path d="M620.8 480.5c-.1 0-.2-.2-.4-.2m.7.5c0-.1-.2-.2-.4-.3m.6.7c0-.1 0-.2-.2-.4m0 1.1c.2-.2.2-.5.2-.7m-2.3 1.6c.9 0 1.7-.4 2.1-.9m-5.5.2c.9.5 2.1.7 3.4.7m-3.9-1.1c.1.1.3.2.5.3m-.7-.7c0 .1.1.3.3.4"/><path d="M614.9 480.7c0 .2-.1.4 0 .6m.7-.8c-.3 0-.6 0-.7.2m1.4.1c0-.1 0-.3-.3-.3"/><path d="M616.3 480.8v.4m0 .1c0 .2.3.4.6.5m0-.1c.5.2 1.2.3 1.8.3m0 0c.5 0 .9-.2 1.1-.4"/><path d="M619.8 481.6c.1-.1.1-.3 0-.4m0 0c0-.1-.2-.2-.4-.3"/><path d="M617.3 480.1l2.1.9m-2.5-1.2a.76.76 0 0 1 .4.2m-.9-.7c.1.2.3.4.6.5m-.8-1.1c0 .2 0 .4.1.6m-10.6-3.4c-.2.2-.4.5-.6.7m.8-.9s-.2.1-.3.2m6.5 1.5c0-.1.1-.2.2-.4m-.7 1.1c.2-.2.3-.4.4-.6m-3 3.3c.3 0 .6 0 .7-.2"/></g></g><g class="J G"><path d="M649.4,411.3c0,.6,1,1.1,2.1,1,1.1,0,2-.6,1.9-1.3,0-.6-1-1.1-2.1-1-1.1,0-2,.6-1.9,1.3h0Z"/><g class="H"><path d="M570.4 517.4v.3m2.6.6h.3"/><use href="#G" x="11" y="2.3"/><path d="M573.1 518v.3m-12.9-9.8c1.1.2 2 0 2.6-.7m-2.6.7s-.1.2-.1.3m6.8 7.1v.1m6 1.2v.1"/><path d="M560.1 508.8c1.8.4 3.3-.6 3.1-2.3m.7 7v.1m7.2 1.3v-.1m-.5.1v.1m-10.7-5.6v.4"/></g></g><path d="M556.3 514c-.3 0-.4 0-.4.3m6.8 1.5c0-.2-.2-.4-.5-.5m1.2.2c-.3 0-.4 0-.4.3m6.8 1.5c0-.2-.2-.4-.5-.5m1.2.2c-.3 0-.4 0-.4.3m-3.5-1.8s0 .2.1.3" class="I G H"/><path d="M544.3 497.7v.2" class="G H J"/><path d="M561.9,502.5c-.7-.6-1.5-1.1-2.3-1.3" class="G H I"/><path d="M563.1 504.9c0-.8-.5-1.7-1.2-2.4m-2.6-1.6v.2" class="J G H"/><path d="M563.3,505.3c-.1-1.9-1.9-3.7-4-4.2" class="G H I"/><g class="J G"><path d="M563.3 505.3s.1.1.3.1" class="H"/><use href="#K" x="471.9" y="100.7"/><path d="M928.9 526.6c-.2.3-.3.5-.3.8m0 .1c0 .4.2.7.6 1" class="H"/></g><path d="M929.2,528.4c1,.7,3,.8,4.4.1.3-.2.6-.3.8-.5" class="G H I"/><use href="#C" x="697.6" y="186.1" class="G H J"/><g class="I G H"><path d="M1037.8 557.1c-1.5.2-2.8.8-3.5 1.6m0 .7l-.1.1m-12.9 1.5c0 .9 1.1 1.6 2.6 1.7m.4.1c3.7.4 8-1 9.8-3.2m59.1-109.7c-.7.3-1.3.6-1.6 1"/><path d="M1022.1 511.7c3.6.4 7.3-.5 8.8-2.1m-12.2 5.7c-1 1.1 0 2.4 2.2 2.9m.5.2c3.7.8 8.1 0 9.9-1.8m3.7-1.5c-1.6.2-3 .7-3.7 1.4m3.7-1.4c3.4-.4 5.6-2 4.9-3.7-.1-.3-.4-.6-.7-.9m-.2-2.4c-.7.8-.6 1.6.2 2.4m6.3-6.8c-1.7.2-3.1.7-3.8 1.5m3.8-1.5c3.4-.4 5.6-2 4.9-3.7-.1-.3-.4-.6-.7-.9m-.2-2.3c-.7.8-.6 1.6.2 2.4m6.2-6.9c-1.7.2-3.1.7-3.8 1.5m3.8-1.5c3.4-.4 5.6-2 4.9-3.7-.1-.3-.4-.6-.7-.9m-.1-2.3c-.7.8-.6 1.6.2 2.4m6.2-6.8c-1.7.2-3.1.7-3.8 1.5m3.8-1.5c3.4-.4 5.6-2 4.9-3.7-.1-.3-.4-.6-.7-.9m-.2-2.4c-.7.8-.6 1.6.2 2.4m6.3-6.8c-1.7.2-3.1.7-3.8 1.5m3.8-1.5c3.4-.4 5.6-2 4.9-3.7-.1-.3-.4-.6-.7-.9m-.2-2.4c-.7.8-.6 1.6.2 2.4m6.2-6.8c-1.7.2-3.1.7-3.8 1.5m3.8-1.5c3.4-.4 5.6-2 4.9-3.7-.1-.3-.4-.6-.7-.9m-.1-2.4c-.7.8-.6 1.6.2 2.4"/></g><path d="M933.2 527.8h-.2" class="G H J"/><path d="M930,549.1c0,1,1.5,1.7,3.3,1.6,1.7-.1,3.1-1,3-2" class="G H I"/><g class="J G H"><path d="M930.3 528h-.2m-368-10.7v.1m-9.5-4.5v.1m6.2 1.2v-.1m-.3 0v.1m3.6 3.1h.3m-20.9-15.4c.1 1.7 1.7 3.3 3.5 3.7m11 9s0 .1.1.1m.1-.3h-.2m-15.4-12.3h.4m11.5 10.6s0 .1.1.1m-.2-1.4s0 .1.1.1"/><path d="M552.6 511.2h-.2m3.8 4.8v.1m6.1 1.3v-.1"/></g><g class="I G H"><path d="M197.8 373.9v-.1"/><use href="#L"/><use href="#M"/><use href="#N"/><use href="#O"/><use href="#P"/><use href="#Q"/><use href="#P" x="7.9" y="-10.3"/><use href="#Q" x="7.8" y="-10.3"/><path d="M465.8 431h0"/><use href="#L" x="268" y="57.2"/><use href="#M" x="268" y="57.2"/><use href="#N" x="268" y="57.2"/><use href="#O" x="268" y="57.2"/><use href="#P" x="-40.2" y="-20.6"/><use href="#Q" x="-40.3" y="-20.6"/><path d="M937.7 531.7h0"/><use href="#L" x="739.9" y="157.8"/><use href="#M" x="739.9" y="157.9"/><path d="M937.5 527.5v-.2c0-.2-.1-.4-.2-.5 0-.2-.2-.3-.3-.5"/><use href="#O" x="739.9" y="157.9"/><path d="M662.8 473.1v-.1"/><use href="#L" x="465" y="99.2"/><use href="#M" x="465" y="99.2"/><use href="#N" x="465" y="99.2"/><use href="#O" x="465" y="99.2"/><use href="#P" x="-55.3" y="-0.7"/><use href="#Q" x="-55.4" y="-0.7"/><use href="#G" x="-322.7" y="-175.5"/><path d="M228.9,340.7c-.1.1-.2.3-.3.4"/><use href="#G" x="456.1" y="-9.3"/><path d="M1007.7 506.8c-.1.1-.2.3-.3.4m-473.3 4h.2m6.9 1.5h.2m6.9 1.6h.2m6.9 1.5h.2m6.9 1.5h.2m-28.5-21h0"/><path d="M534.2 496.3l.2.1m0 0c.2 0 .4.2.6.2m34.6 22.2h.2m-5.1-16h.1m0 0l.2.1m93.4-32.8h0"/><use href="#R"/><use href="#S"/></g><path d="M653.8 468.8v.3" class="G H J"/><use href="#T" class="G H I"/><g class="J G H"><path d="M655.3 467.3h-.2s-.1 0-.2.1"/><use href="#U"/><use href="#V"/><use href="#W"/><path d="M207.5 354.1l1.6 24.6"/></g><path d="M209.1 378.6L469 462.2" class="G H I"/><path d="M207.5,354.1c.1-.6.3-1.1.4-1.7" class="G H J"/><path d="M651.6 474l.1.1m10.8-.4l.1-.1m-129.2 21.6c0 .1 0 .2.1.3 0 .1.1.2.2.3l.3.3h.2m4.3 1.1h.7m-307-154.7s-.1 0-.2-.1c0 0-.1 0-.2-.2l-.2-.2" class="I G H"/><path d="M231.1 341.4v.3" class="G H J"/><use href="#T" x="-422.7" y="-127.4" class="G H I"/><g class="J G H"><path d="M232.6 339.8h-.2s-.1 0-.2.1"/><use href="#U" x="-422.7" y="-127.5"/><path d="M235.6 339.7s-.1 0-.2-.1-.2 0-.2 0"/><use href="#W" x="-422.7" y="-127.4"/></g><path d="M237.2 341.1h0s0 .1-.1.2c0 0 0 .1-.1.2s0 .1-.1.2c0 0 0 .1-.1.1m418.6 127.6v.2m2.7-.5h0" class="I G H"/><path d="M658.2 467.3h0 0-.1 0v-.1h0 0 0 0 0 0 0 0-.1 0 0 0 0 0 0 0 0-.1m-2.8.4h.1" class="J G H"/><g class="I G H"><use href="#X"/><path d="M655.3 467.3v.2"/><path d="M657.9 467.2l-1.3.3h-1.4m2.7-.5v.2m-192.1-36.4v-.2m-11.4.8s0 .1.1.2m11.3-.5v-.1"/><path d="M454.5 431.7v.1m.1 0v.1m11.1-.6l.1-.1m-11.2.7l.1.1m10.8-.3l.1-.1m188.2 37.2v.2"/></g><g class="J G"><path d="M651.6 473.9h0 0 0 0 0 0 0v.1h0 .1 0 0 0 0m4.6-61.4v.2c0 .2 0 .4-.1.5 0 .2-.2.4-.3.5-.1.2-.3.3-.5.5s-.4.3-.6.4-.5.3-.7.4l-.8.3c-.3 0-.6.1-.9.2s-.6 0-.9 0h-.9c-.3 0-.6 0-.9-.1-.3 0-.6-.1-.8-.2-.3 0-.5-.2-.7-.3s-.4-.3-.6-.4-.3-.3-.4-.5-.2-.3-.2-.5v-.4" class="H"/><path d="M649.1 410.6c-.1.2-.2.4-.2.6s0 .4.2.5c.1.2.3.3.5.5.2.1.5.2.8.3h1c.3 0 .7 0 1-.1.2 0 .3 0 .4-.1h.2s.1 0 .2-.1c.2-.1.4-.3.6-.5 0 0 .1-.2.2-.3v-.3c0-.2 0-.4-.2-.6l-.5-.5c-.1 0-.2-.1-.4-.2-.1 0-.3 0-.4-.1h-1c-.4 0-.6 0-1 .1-.3 0-.6.2-.8.3s-.4.3-.6.5z"/></g><path d="M232.7 342v.2m2.7-.5h0" class="H I G"/><path d="M235.5 339.9v-.1h0 0 0-.1 0 0 0 0 0 0 0 0 0-.1 0 0 0 0 0 0m-2.9.4h.1" class="J G H"/><g class="I G H"><use href="#X" x="-422.7" y="-127.4"/><path d="M232.6 339.8v.2"/><path d="M235.3 339.8l-1.3.3c-.4.1-.9 0-1.4 0m2.6-.5v.2m-2.7 2.3h0m3.1-.4c.2.3.4.5.6.6"/><path d="M235.5 339.9s0-.1.1-.2m1.5 1.3c-.3-.1-.5-.3-.8-.4-.2-.2-.5-.4-.8-.7m-3.3 2.7c0-.1.2-.3.3-.5m-.1-1.9c-.2.4-.4.6-.5.9s-.4.4-.6.6m.9-1.7l.2.2"/><path d="M237.1 341v-.2m-6 .6v.2"/><use href="#Y"/><use href="#Z"/><use href="#a"/><use href="#a" x="-215.3" y="-45.9"/><use href="#Z" x="-55.3" y="-0.7"/><use href="#a" x="-536" y="-114.3"/><use href="#Z" x="-40.2" y="-20.6"/><use href="#a" x="-742.2" y="-158.3"/><path d="M465.9 430.6v-.1m-11.5.8v.1"/></g><path d="M202.6 332.8v1.1l.1 2.2" class="G H J"/><path d="M208 380.4v-1.5-1.5c0-.7 0-1.3-.1-2m-.2.1l-2.4-37.1v-1" class="I G H"/><path d="M341.8 186.6l-.5 1.8m810.5 171c-.2.6-.3 1.2-.5 1.8" class="J G H"/><g class="I G H"><path d="M533.1 506.7v.1.1h.2m.7-3.9c0 .2-.1.4 0 .6m622.2-136h0 0 0v-.4-.4c0-.1 0-.3-.1-.4 0-.1-.1-.2-.2-.4 0-.1-.1-.2-.2-.3h-.1-.1-.1-.1-.1-.1-.1-.1-.1-.1-.1-.1-.1-.1-.1-.1-.1-.1-.1-.1-.1-.1-.1-.1-.1-.1-.3M600.5 474.6s0 .1.1.2m10.2 2.1c0 .2.1.4.2.6m5.4.8c0 .2.1.4.2.6m321.2 52.3h0m-11.6.8l.1.1m11.4-.7v-.2m-11.4.9s0 .1.1.2m11.2-.5l.1-.1m-.2.3l.1-.1m-.2.4h0m-10.6.7v.1m10.4-.6l.1-.1"/><use href="#Z" x="7.9" y="-10.3"/><path d="M662.9 472.6v-.1m-11.5.8v.1m11.4-.6v-.2m-11.4.8s0 .1.1.2m11.3-.4v-.1m-11.3.6v.1m.1.1v.1m359.9 34.1v.2m2.7-.4h0"/></g><path d="M1014.3 506h0 0 0 0-.1 0 0 0 0 0 0 0 0 0-.1 0 0 0 0 0 0m-2.9.3h.1" class="J G H"/><g class="I G H"><use href="#X" x="356.1" y="38.7"/><path d="M1011.4 506v.2"/><path d="M1014.1 506l-1.3.3h-1.4m2.6-.6v.2m.4 2c.2.3.4.5.6.6"/><path d="M1014.3 506s0-.1.1-.2m1.5 1.4c-.3-.1-.5-.3-.8-.4-.2-.2-.5-.4-.8-.7m-3.3 2.6c0-.1.2-.3.3-.5m-.1-1.9c-.2.4-.4.6-.5.9s-.4.4-.6.6"/><path d="M1011 506.2l.2.2m4.7.8v-.2M193.4 370.8h0"/><use href="#R" x="-465" y="-99.3"/><use href="#S" x="-465" y="-99.2"/></g><path d="M188.8 369.6v.3" class="G H J"/><use href="#T" x="-465" y="-99.2" class="G H I"/><g class="J G H"><path d="M190.3 368h-.2s-.1 0-.2.1"/><use href="#U" x="-465" y="-99.3"/><use href="#V" x="-465" y="-99.2"/><use href="#W" x="-465" y="-99.2"/></g><g class="I G H"><path d="M194.9 369.3h0s0 .1-.1.2c0 0 0 .1-.1.2 0 0 0 .1-.1.2 0 0 0 .1-.1.1m3.4 3.4v-.1m-11.5.8v.1m11.4-.6v-.2m-11.4.8s0 .1.1.2m11.3-.5h0m-11.2.8h0m11.1-.6l.1-.1m-11.2.8l.1.1m10.8-.4l.1-.1m129.2-184.9l1.1-1a5.3 5.3 0 0 1 1.5-.8c.5-.3 1.1-.5 1.8-.7.6-.2 1.3-.4 2-.5l2.1-.3c.7-.1 1.5 0 2.2 0l2.2.1c.7 0 1.4.2 2.1.3m810 172.8c.7.1 1.3.3 1.9.5s1.2.4 1.7.7 1 .5 1.3.9a4.74 4.74 0 0 1 1 1c.3.3.4.7.6 1 .1.4.2.7.1 1.1 0 .4-.1.7-.3 1.1s-.4.7-.7 1m9.3-7.1c.4 0 .8.2 1.1.3m-74.6 90c.1 0 .2 0 .3-.1.1 0 .2-.1.3-.2h.2.2c.1 0 .2-.1.3-.2.2-.1.5-.2.7-.4h.2.2c.1 0 .2-.1.3-.2.2-.1.4-.2.7-.4s.2-.1.3-.2h.2.2l.6-.3s.2 0 .3-.1 0 0 .1 0M331.5 177c-1.2-.3-2.6-.3-3.9 0-1.2.2-2.3.7-2.8 1.3m844.3 180.2c.5-.6.6-1.3.1-1.9s-1.4-1.1-2.6-1.4m-9.2 11.6l-1.2.8M324.9 182.7c.5-.6 1.6-1.1 2.8-1.3s2.6-.2 3.9 0m210.6 317.3l.2-.2c.1-.1.3-.2.4-.3.2 0 .3-.1.5-.2h1.3m19 15.3v.1.1h.2m-1.9-11a1.38 1.38 0 0 1 .3.4c.1.2.3.4.4.6l.3.6c0 .2.1.4.2.6v.3m1-2.7l.2.2a1.38 1.38 0 0 0 .4.3m53.4-23.5v.6m2.7.6v.1.1.1.3m.5.1v.5"/><path d="M197.7 370.6h0m428.7 112.2c0 .2.1.4.2.6m383.3 24.2v.2"/><use href="#Y" x="778.8" y="166.2"/><path d="M1011.1 508.8h-.1s-.1 0-.2-.1c0 0-.1 0-.2-.2l-.2-.2"/></g><path d="M1009.9 507.6v.3" class="G H J"/><use href="#T" x="356.1" y="38.8" class="G H I"/><g class="J G H"><path d="M1011.4 506h-.2s-.1 0-.2.1"/><use href="#U" x="356.1" y="38.7"/><use href="#V" x="356.1" y="38.7"/><use href="#W" x="356.1" y="38.7"/></g><g class="I G H"><use href="#b"/><path d="M652.2 411.7v-.2m-1.7.1v.2"/></g><path d="M652.3 410.4h0 0-.1 0 0 0 0 0 0 0 0 0-.1 0 0 0 0 0 0 0 0-.1m-1.5.2h0l-.1-.1h0 0 0 0 0 0v.1h0-.1 0 0 0 0 0 0 0 0" class="J G H"/><g class="I G H"><path d="M650.5 411.6h.8c.3 0 .5 0 .8-.2m-1.6-1.1v.2"/><use href="#c"/></g><g class="J G H"><use href="#d"/><path d="M573.7 509c-.5.5-.9 1-1.4 1.6l-.5.6m-6.6-.1v-.4"/><use href="#e"/></g><path d="M571.1 514.9s-.1 0-.2.1h-.3m-1-2.9v-.1-.3m2.2-.5v-.1l-.1-.1-.1-.1h-.2m-30.8-2.5s-.1 0-.2.1h-.3" class="I G H"/><path d="M571.2 503l1.4-.9c.2-.1.4-.2.6-.4" class="G H J"/><path d="M539.5 496.9v.2h-.1m.1 7.8c.2 0 .3.1.4.2 0 0 .1 0 .2.2v.2m26.2-2.1h0m.9.2h0m.7.1h0m1.2 0h0" class="I G H"/><path d="M564.6 502.6v.1" class="G H J"/><path d="M571.2 503v.3m-2.2.2v.1" class="I G H"/><g class="J G H"><use href="#d" x="30.5" y="6.5"/><path d="M569 503.5h0"/></g><g class="I G H"><path d="M573.2 501.7v.2m.1 6.6h-.2m.2 0h.2c.1 0 .1 0 .1.1v.3"/><use href="#f"/></g><g class="J G H"><path d="M1110.1 362.5h-.2s-.1 0-.2.1"/><use href="#U" x="454.8" y="-104.8"/><use href="#V" x="454.8" y="-104.7"/><use href="#W" x="454.8" y="-104.7"/></g><g class="I G H"><use href="#g"/><path d="M897.5 318.5h0 0 0 .1 0 0 0v.1"/></g><g class="J G H"><use href="#h"/><path d="M894.5 317h.1"/></g><path d="M897.4 318.5h.2m-2.8-1.9v.2m2.6-.2l-1.3.3h-1.4m2.6-.6v.2M642.7 422v.2" class="I G H"/><path d="M644.4 420.8h0 0 0 0-.1v-.1h0 0 0 0 0 0 0 0-.1 0 0 0 0 0 0m-1.6.2h0 0-.1 0 0 0 0 0 0 0 0 0-.1 0 0 0 0 0v.1" class="J G H"/><g class="I G H"><path d="M642.7 422h.8c.2 0 .5 0 .8-.2m-1.7-1.2v.2"/><use href="#c" x="-7.8" y="10.3"/><path d="M644.1 420.5v.2m.4 1.2c.1.2.3.3.4.4"/><path d="M644.5 420.6v.2"/><path d="M645.3 421.5c-.1 0-.3-.2-.5-.3s-.3-.3-.5-.4m-2 1.6s.1-.2.2-.3"/><path d="M642.4 421h-.1"/><use href="#i"/><path d="M645.4 421.2v.2m-3.7.4v-.2"/></g><path d="M644.7 422.4l-.1-.1m-.3-.2h-.8" class="J G H"/><path d="M644.3 422.1v-.2m-109.9 80.9h-.2-.1v.1m1.4 3.1h0 .1.1.2.1.1.1.1.1.2.9" class="I G H"/><path d="M548.3 514.2h0" class="G H J"/><g class="I G H"><use href="#Y" x="225.7" y="85.4"/><path d="M458.4 427.6h0m3.4.3l-.2-.2"/></g><g class="J G"><path d="M593.1 422.1v.2c0 .2 0 .4-.1.5 0 .2-.2.4-.3.5-.1.2-.3.3-.5.5s-.4.3-.6.4-.5.3-.7.4l-.8.3c-.3 0-.6.1-.9.2h-.9-.9c-.3 0-.6 0-.9-.1-.3 0-.6-.1-.8-.2-.3 0-.5-.2-.7-.3s-.4-.3-.6-.4-.3-.3-.4-.5-.2-.3-.2-.5v-.4" class="H"/><path d="M585.9 420.2c-.1.2-.2.4-.2.6s0 .4.2.5c.1.2.3.3.5.5.2.1.5.2.8.3h1c.4 0 .7 0 1-.1.2 0 .3 0 .4-.1h.2s.1 0 .2-.1c.2-.1.4-.3.6-.5 0 0 .1-.2.2-.3v-.3c0-.2 0-.4-.2-.6l-.5-.5c-.2-.2-.2-.1-.4-.2-.1 0-.3 0-.4-.1h-1c-.3 0-.6 0-1 .1-.3 0-.6.2-.8.3s-.4.3-.6.5z"/></g><g class="H G"><path d="M576.9 250.1h0 0 0 0 0 0" class="I"/><path d="M577 248.2h0-.1 0 0 0 0 0 0 0 0v-.1h0-.1 0 0 0 0 0v.1h0 0-.1m-2.9.3h.1" class="J"/><g class="I"><path d="M576.7 250.1h.2m-2.8-1.9v.2m2.6-.2l-1.3.3H574m2.6-.6v.2m.5 2v.1"/><path d="M577 248.2s0-.1.1-.2m1.4 1.4c-.3-.1-.5-.3-.8-.4-.2-.2-.5-.4-.8-.7m-3.1.2l-.5.8m.4-.9l.2.2"/><path d="M578.5 249.4v-.2"/><use href="#f" x="-536" y="-114.4"/></g><g class="J"><path d="M574.1 248.2h-.2s-.1 0-.2.1"/><use href="#U" x="-81.2" y="-219.1"/><use href="#V" x="-81.2" y="-219.1"/><use href="#W" x="-81.2" y="-219.1"/></g><use href="#g" x="-536" y="-114.4" class="I"/><path d="M608.8 422.1l-.1-.6m-77.4 87.2h0m3.4 2.5h0 0 0 0 0 0 .1" class="J"/><path d="M465.6 428.3h0m.1-.5h0m69.1 76.3v.4" class="I"/><g class="J"><use href="#e" x="-30.5" y="-6.6"/><path d="M539 505v.1.3m10 8.9h0"/></g><g class="I"><path d="M457.9,428c0-.1.2-.3.3-.5"/><use href="#j"/><path d="M457.9 425.4l.2.2m4.7.8v-.2"/></g><path d="M465.7 431.2h0 0 0 0v-.1h0 0 0 .1 0 0 0" class="J"/><path d="M456.8 426.8v.2" class="I"/><g class="J"><path d="M454.6 431.9h0 0 0 0 0 0 0 0 .1 0 0 0v.1h0"/><use href="#k"/></g></g><path d="M641.2 421c-.1.2-.2.4-.2.6s0 .4.2.5c.1.2.3.3.5.5.2.1.5.2.8.3h1c.3 0 .7 0 1-.1.2 0 .3 0 .4-.1h.2c.1 0 .1 0 .2-.1.2-.1.4-.3.6-.5 0 0 .1-.2.2-.3v-.3c0-.2 0-.4-.2-.6l-.5-.5c-.1 0-.2-.1-.4-.2-.1 0-.3 0-.4-.1h-1c-.3 0-.6 0-1 .1s-.6.2-.8.3-.4.3-.6.5z" class="G J"/><g class="H G"><path d="M1112.9 364.4h0 0 0v.1h0 0" class="I"/><g class="J"><use href="#l"/><path d="M1109.8 362.9h.1"/></g><g class="I"><path d="M1112.7 364.5h.2m-2.8-2v.2m2.6-.2l-1.3.3h-1.4m2.6-.5v.2m.5 2v.1m-.1-2s0-.1.1-.2m1.4 1.4c-.3-.1-.5-.3-.8-.4-.2-.2-.5-.4-.8-.7m-3.1.2l-.5.8m.4-1l.2.2"/><path d="M1114.5 363.8v-.2"/></g><path d="M461.2 425.3v-.1h0 0-.1 0 0 0 0 0 0 0 0 0 0-.1 0 0 0 0 0 0m-2.9.4h.1" class="J"/><g class="I"><use href="#X" x="-197" y="-42"/><path d="M465.7 431.2h0m-7.4-6v.2m2.7-.2l-1.3.3h-1.4m2.6-.5v.2m-2.7 2.3h0"/></g><path d="M465.8 430.7h0 0v-.1h0 .1 0 0 0 0 0 0 0v-.1" class="J"/><path d="M461.3,427.1c.2.3.4.5.6.6" class="I"/><path d="M454.4 431.4h0 0 0 0 0 0 0 0 0 0 .1v.1h0 0" class="J"/><path d="M461.2 425.3s0-.1.1-.2m1.5 1.3c-.3-.1-.5-.3-.8-.4-.2-.2-.5-.4-.8-.7m73.2 77.3v.2" class="I"/><path d="M370.8 204.2h0 0 0 0 0 0-.1 0 0 0 0 0 0 0 0 0-.1 0 0 0 0m-2.9.3h.1" class="J"/><g class="I"><path d="M370.5 206.1h.2m-2.8-1.9v.2m2.7-.2l-1.3.3h-1.4m2.6-.6v.2m.4 2v.1"/><path d="M370.8 204.2s0-.1.1-.2m1.5 1.4c-.3-.1-.5-.3-.8-.4-.2-.2-.5-.4-.8-.7m-3.1.2l-.5.8"/><path d="M367.5 204.4l.2.2m4.7.8v-.2"/><use href="#f" x="-742.2" y="-158.3"/></g><g class="J"><path d="M367.9 204.2h-.2s-.1 0-.2.1"/><use href="#U" x="-287.4" y="-263.1"/><use href="#V" x="-287.4" y="-263.1"/><use href="#W" x="-287.4" y="-263.1"/></g><g class="I"><use href="#g" x="-742.1" y="-158.4"/><path d="M458.4 427.4v.2m2.7-.5h0M602 401.8s.1-.2.2-.3m0-1.1h-.1"/><use href="#i" x="-40.2" y="-20.6"/><path d="M605.2 400.6v.2m-3.7.4v-.2"/></g><path d="M604.5 401.8l-.1-.1m-.3-.3h-.8" class="J"/><path d="M602.7 402h0" class="I"/><use href="#k" x="-40.2" y="-20.6" class="J"/></g><path d="M601 400.4c-.1.2-.2.4-.2.6s0 .4.2.5c.1.2.3.3.5.5.2.1.5.2.8.3h1c.4 0 .7 0 1-.1.2 0 .3 0 .4-.1s.1 0 .2 0 .1 0 .2-.1c.2-.1.4-.3.6-.5 0 0 .1-.2.2-.3v-.3c0-.2 0-.4-.2-.6l-.5-.5c-.1 0-.2-.1-.4-.2-.1 0-.3 0-.4-.1h-1c-.3 0-.6 0-1 .1s-.6.2-.8.3-.4.3-.6.5z" class="G J"/><g class="H G"><path d="M370.7 206.1h0 0 0 0 0 0" class="I"/><path d="M614.3 423.4v-.6" class="J"/><g class="I"><path d="M461.4 428h0"/><use href="#R" x="-197" y="-42.1"/><use href="#S" x="-197" y="-42"/></g><path d="M456.8 426.8v.3" class="J"/><use href="#T" x="-197" y="-42" class="I"/><g class="J"><path d="M458.3 425.2h-.2s-.1 0-.2.1"/><use href="#U" x="-197" y="-42.1"/><use href="#V" x="-197" y="-42"/><use href="#W" x="-197" y="-42"/></g><g class="I"><use href="#b" x="-553.1" y="-80.7"/><path d="M604.1 401.4v-.2m-1.7.2v.2"/></g><g class="J"><use href="#l" x="-508.8" y="37.6"/><path d="M602.4 400.3h-.1 0 0 0 0 0 0 0 0 0-.1 0 0 0 0 0 0 0 0v.1h0"/></g><g class="I"><path d="M602.4 401.4h.8c.2 0 .5 0 .8-.2m-1.6-1.2v.2"/><use href="#c" x="-48.1" y="-10.3"/><path d="M603.9 399.9v.2m.3 1.1c.1.2.3.3.4.4"/><path d="M604.3 400v.2"/><path d="M605.1 400.9c-.1 0-.3-.2-.5-.3s-.3-.3-.5-.4m-69.5 103.6h0m54.2-84.1v.2m.3 1.2c.1.2.3.3.4.4"/><path d="M589.2 419.8v.2"/><path d="M590 420.7c-.1 0-.3-.2-.5-.3s-.3-.3-.5-.4m-2.1 1.6s.1-.2.2-.3"/><path d="M587.1 420.2h-.1"/><use href="#i" x="-55.3" y="-0.8"/><path d="M590.1 420.5v.2m-3.7.4v-.2"/></g><path d="M589.4 421.7l-.1-.1m-.3-.3h-.8" class="J"/><g class="I"><path d="M587.6 421.8h0m310.2-103.3v.1m-.2-2s0-.1.1-.2m1.5 1.4c-.3-.1-.5-.3-.8-.4-.2-.2-.5-.4-.8-.7m-3.1.3l-.5.8m.4-1l.2.2"/><path d="M899.2 317.8v-.2"/><use href="#f" x="-215.3" y="-45.9"/></g><g class="J"><path d="M894.8 316.6h-.2s-.1 0-.2.1"/><use href="#U" x="239.5" y="-150.7"/><use href="#V" x="239.5" y="-150.7"/><use href="#W" x="239.5" y="-150.7"/></g><g class="I"><use href="#g" x="-215.3" y="-46"/><path d="M589 421.3v-.2m-1.7.1v.2"/></g><path d="M589.1 420h0-.1 0 0 0 0 0 0 0v-.1h0 0-.1 0 0 0 0 0 0v.1h0-.1m-1.5.1h-.1 0 0 0 0 0 0 0 0-.1 0 0 0 0 0v.1h0 0 0" class="J"/><g class="I"><path d="M587.3 421.2h.8c.2 0 .5 0 .8-.2m-1.6-1.1v.2"/><use href="#c" x="-63.2" y="9.6"/><path d="M193.8 370.8l-.2-.2"/><use href="#Y" x="-42.3" y="28.3"/><use href="#b" x="-356.1" y="-38.7"/></g><path d="M619.8,481.6c0,.2.1.4.2.6" class="J"/><g class="I"><path d="M626.2 481.9c0 .2.1.3.2.5M193.2 368.1s0-.1.1-.2m1.5 1.4c-.3-.1-.5-.3-.8-.4-.2-.2-.5-.4-.8-.7m-3.3 2.6c0-.1.2-.3.3-.5m-.1-1.9c-.2.4-.4.6-.5.9s-.4.4-.6.6m.9-1.7l.2.2"/><path d="M194.8 369.3v-.2m-6 .5v.2"/></g><path d="M186.6 374.7h0 0 0 0 0 0 0 0 .1 0v.1h0 0 0" class="J"/><path d="M186.7 374.8h0m382.4 128.9h.3.6c.2 0 .4 0 .5-.1.2 0 .3-.1.5-.2h.1M190.4 370.2v.2m2.7-.5h0" class="I"/><path d="M193.2 368.1h0 0v-.1h-.1 0 0 0 0 0 0 0 0 0 0-.1 0 0 0 0 0 0m-2.9.4h.1" class="J"/><g class="I"><use href="#X" x="-465" y="-99.2"/><path d="M190.3 368v.2"/><path d="M193 368l-1.3.3h-1.4m2.6-.5v.2m-2.7 2.3h0"/></g><path d="M197.8 373.5h0 0 0 0l.1-.1h0 0 0 0 0 0 0" class="J"/><path d="M193.3,370c.2.3.4.5.6.6" class="I"/><path d="M186.4 374.2h0 0 0 0 0 0 0 0v.1h0 .1 0 0 0" class="J"/><g class="I"><path d="M209.1 378.6h-.1m0 0c-.4-.1-.8-.3-1.1-.4M658.8 470l-.2-.2"/><use href="#Y" x="422.7" y="127.5"/><path d="M655.2 469.5h0"/></g><path d="M662.8 472.7h0 0 0 0 0l.1-.1h0 0 0 0 0 0" class="J"/><g class="I"><path d="M658.3 469.2c.2.3.4.5.6.6m-.7-2.5s0-.1.1-.2m1.4 1.4c-.3-.1-.5-.3-.8-.4-.2-.2-.5-.4-.8-.7m-3.2 2.6c0-.1.2-.3.3-.5"/><use href="#j" x="197" y="42"/><path d="M654.9 467.4l.2.2m4.6.9v-.2m3 1.5h0 0 0M341.3 188.4h0 0 0c-.3 0-.6.1-.8.2-.3 0-.6.1-.8.2-.3 0-.6.2-.8.3l-.8.3m-89 76.7s.1 0 .2.1l.3.3.6.6.1.1.1.1.3.3c.2.2.3.4.5.6 0 .1.1.2.2.3v.2.2l.3.6c.1.2 0 .2.1.3v.1.5m75-80.9l1.2 1.3m324 219.3v.2m.3 1.2c.1.2.3.3.4.4"/><path d="M652.4 410.2v.2"/><path d="M653.2 411.1c-.1 0-.3-.2-.5-.3s-.3-.3-.5-.4m-2.1 1.6s.1-.2.2-.3"/><path d="M650.3 410.6h-.1"/><use href="#i" x="7.9" y="-10.4"/><path d="M653.3 410.9v.2m-3.7.4v-.2"/></g><path d="M652.6 412.1l-.1-.1m-.3-.3h-.2-.6m-.9.2h0" class="J"/><path d="M571.3 510.7l1.9-2.2" class="I"/><path d="M572.4 515.5h0" class="J"/><g class="I"><path d="M573 508.4l-2 2.2m-3.3.9h0m365.6 17.2h0"/><use href="#R" x="274.9" y="58.6"/><use href="#S" x="274.9" y="58.7"/></g><path d="M928.7 527.5v.3" class="J"/><use href="#T" x="274.9" y="58.7" class="I"/><g class="J"><path d="M930.2 525.9h-.2s-.1 0-.2.1"/><use href="#U" x="274.9" y="58.6"/><use href="#V" x="274.9" y="58.6"/><use href="#W" x="274.9" y="58.6"/></g><g class="I"><use href="#b" x="-81.3" y="19.9"/><use href="#Y" x="697.5" y="186.1"/><path d="M930.3 528v.2m2.6-.4h0m.8.8l-.2-.2m-3.7.2c0-.1.2-.3.3-.5"/><use href="#j" x="471.8" y="100.7"/><path d="M929.8 526.1l.2.2m4.6.8v-.2"/></g><path d="M937.5 531.9h0l.1-.1h0 0 0 0 0 0 0 0 0 0v-.1" class="J"/><path d="M928.7 527.5v.2" class="I"/><g class="J"><path d="M937.4 532.2h0 .1v-.1h0 0 0 0"/><use href="#h" x="35.4" y="209.3"/><path d="M929.9 526.3h.1"/></g><g class="I"><use href="#X" x="274.9" y="58.6"/><path d="M930.2 525.9v.2"/><path d="M932.8 525.9l-1.3.3h-1.4m2.6-.6v.2m-2.7 2.3h0"/></g><path d="M937.7 531.3h0 0 0 0 0 0 0 0 0 0v-.1h.1" class="J"/><path d="M933.2,527.8c.2.3.4.5.6.6" class="I"/><path d="M926.3 532v.1h0 0 0 0 0 0 0 0 0 0 0 0 0v.1h.1" class="J"/><path d="M933 525.9s0-.1.1-.2m1.5 1.4c-.3-.1-.5-.3-.8-.4-.2-.2-.5-.4-.8-.7m-393.5-21.2h0m-5.3-8.5v-.1m1 .5h0m.6.2h0 .1.3m.8.2h0m.3.1h0" class="I"/><path d="M538.5 497.2v-.1m24 20.1h0" class="J"/><path d="M537.1 504.9h-.1-.3" class="I"/></g></g><circle cx="191.3" cy="349.3" r="12" class="K"/><use href="#m" fill="#fff"/><circle cx="459.8" cy="405.5" r="12" class="K"/><use href="#m" x="268.5" y="56.2" fill="#fff"/><circle cx="657" cy="448.8" r="12" class="K"/><path d="M659.1 451.8c.2 0 .5 0 .6.3.2.2.3.4.3.6s0 .5-.3.6c-.2.2-.4.3-.6.3H655c-.2 0-.4 0-.6-.3-.2-.2-.3-.4-.3-.6s0-.4.3-.6c.2-.2.4-.3.6-.3h1.2V445l-.6.3c-.2.1-.5.1-.7 0-.2 0-.4-.2-.5-.5v-.7c0-.2.2-.4.5-.5l1.9-.8h.4c.1 0 .3 0 .4.1.3.2.4.4.4.7v8.2h1.2z" fill="#fff"/><circle cx="931.6" cy="507.1" r="12" class="K"/><path d="M933.7 510.1c.2 0 .5 0 .6.3.2.2.3.4.3.6s0 .5-.3.6c-.2.2-.4.3-.6.3h-4.1c-.2 0-.4 0-.6-.3-.2-.2-.3-.4-.3-.6s0-.4.3-.6c.2-.2.4-.3.6-.3h1.2v-6.8l-.6.3c-.2.1-.5.1-.7 0s-.4-.2-.5-.5v-.7c0-.2.2-.4.5-.5l1.9-.8h.4c.1 0 .3 0 .4.1.3.2.4.4.4.7v8.2h1.2z" fill="#fff"/><g class="K"><path d="M136.2 487.5l8.2-2.2 4.8 14.6 24.3-5.6 2.1 6.5-32.4 7.8-7-21.1zm-25.5 28.8l8.2-2.1 4.8 14.6 24.3-5.7 2.1 6.5-32.4 7.8-7-21.1zM919 655.2l8.2-2.2 4.8 14.6 24.3-5.6 2.1 6.5-32.4 7.7-7-21zM893.5 684l8.2-2.1 4.8 14.5 24.3-5.6 2.1 6.5-32.4 7.8-7-21.1z"/><circle cx="863.5" cy="693.4" r="12"/></g><path d="M866.5 696.4c.2 0 .5 0 .6.3s.3.4.3.6 0 .5-.3.6-.4.3-.6.3h-5.9c-.2 0-.4 0-.5-.2-.1-.1-.3-.2-.3-.4v-.5c0-.2.1-.3.3-.4l1.6-1.5c.5-.4.9-.9 1.5-1.4l1.5-1.4c.3-.3.6-.7.7-1.1s.1-.8 0-1.1-.3-.6-.6-.8-.6-.3-1.1-.3-.8 0-1.1.3c-.3.2-.5.4-.6.6a2.47 2.47 0 0 0-.4.9c0 .2-.1.4-.3.6-.2.1-.4.2-.7.2-.2 0-.4-.1-.6-.3-.1-.2-.2-.4-.2-.7.1-.6.3-1.1.6-1.6.1-.2.3-.4.5-.6s.4-.4.7-.5.6-.3.9-.4c.3 0 .7-.1 1.1-.1s.8 0 1.2.2.7.3 1 .5.5.4.7.7.3.6.4.9.2.6.2 1c0 .3 0 .7-.1 1 0 .3-.2.7-.4 1s-.4.7-.8 1c-.5.4-.9.9-1.4 1.4l-1.5 1.4h3.7z" fill="#fff"/><defs ><path id="B" d="M937.4 529.3v-.4c0-.3 0-.5-.1-.8v-.2c0-.6-.3-1.4-.7-1.8-.4-.7-1.1-1.3-2-1.6s-2-.2-2.9-.2c-1.1 0-2.2 0-3.2.5-.7.4-1.3 1-1.6 1.7v.2c-.2.2-.3.5-.4.8-.4 1.2-.3 2.7 0 3.9v.3c0 .8.4 1.5 1 2 .2.1.4.3.6.3.4.3.7.4 1.2.7l.3 6.6v3.1c0 .7.1 1.4.3 2v.5.3c-.3 1.5.7 3.2 2.4 3.2 1.1 0 2.3 0 3.1-.8s.8-1.8.7-2.9l-.5-4.7c0-.5-.2-1.4-.2-2.1v-2.3c0-1.2-.2-2.4-.3-3.5.7-.4 1.4-1 1.9-1.7.4-.6.6-1.3.6-2 0-.4 0-.8-.2-1.2z"/><path id="C" d="M236.8 342c.9-.9.4-2-1.1-2.4s-3.4 0-4.3.8l-.2.2"/><path id="D" d="M239 341c.1-1.5-1.9-2.7-4.6-2.7s-4.9 1.3-5.1 2.8v.2"/><path id="E" d="M197 369.1c-.1-1.6-2.5-2.8-5.4-2.6s-5.1 1.7-5 3.3 2.5 2.8 5.4 2.6 5.1-1.7 5-3.3h0z"/><path id="F" d="M186.3 370.2c.1 1.8 2.7 3 5.8 2.8s5.5-1.8 5.4-3.6c0-.8-.7-1.6-1.7-2.1"/><path id="G" d="M562.3 515.9s-.1-.2-.2-.3"/><path id="H" d="M1116 364.8c1.1-1.4 0-3-2.4-3.5s-5.3.2-6.4 1.7c0 .1-.2.2-.2.3"/><path id="I" d="M607.4 408.2c0 .2.2.3.5.3s.5-.2.5-.3c0-.2-.2-.3-.5-.3s-.5.2-.5.3h0z"/><path id="J" d="M645.8 421.3c0-.7-1.1-1.2-2.3-1.1s-2.2.7-2.2 1.4 1.1 1.2 2.3 1.1 2.2-.7 2.2-1.4h0z"/><path id="K" d="M463.2 426.3c0-1.1-1.6-1.8-3.5-1.7s-3.3 1.1-3.2 2.1c0 1.1 1.6 1.8 3.5 1.7s3.3-1.1 3.2-2.1h0z"/><path id="L" d="M197 375.4s.1-.2.2-.3c.1-.2.2-.4.2-.5"/><path id="M" d="M186.9 375.2s0 .2.1.2c0 .2.2.3.3.5s.3.3.5.4.4.3.6.4.4.2.7.3c.2 0 .5.2.8.2s.6.1.8.1h.9.9c.3 0 .6 0 .9-.1.3 0 .6-.1.8-.2.3 0 .5-.2.8-.3s.5-.2.7-.3.4-.3.6-.4.4-.3.5-.5l.2-.2"/><path id="N" d="M197.6 369.6v-.2c0-.2-.1-.4-.2-.5 0-.2-.2-.4-.3-.5"/><path id="O" d="M186.6 368.9c-.1.1-.2.3-.3.4 0 .2-.2.4-.2.6v.6"/><path id="P" d="M647.9 424.4s.1-.2.2-.3c0-.2.2-.4.2-.5v-.5"/><path id="Q" d="M638.9 423.6a.9.9 0 0 0 .1.5c0 .2.1.3.3.5a.78.78 0 0 0 .4.4c.2.1.3.3.5.4l.6.3c.2 0 .5.2.7.2s.5.1.8.2h.8.8c.3 0 .6 0 .8-.1.3 0 .5-.1.8-.2.3 0 .5-.2.7-.3s.5-.2.7-.3.4-.3.6-.4l.5-.5"/><path id="R" d="M658.4 470.1h-.3-.3-.3-.3-.1-.1-.1-.3"/><path id="S" d="M655.4 470.2s-.1 0-.2-.1c0 0-.1 0-.2-.1 0 0-.1 0-.2-.2l-.2-.2"/><path id="T" d="M653.8 468.8l.1-.1s0-.1.1-.2c0 0 0-.1.1-.2 0 0 0-.1.1-.2"/><path id="U" d="M655.3 467.3h.3.3.3.3.1.1.1.3"/><path id="V" d="M658.3 467.1s-.1 0-.2-.1h-.2"/><path id="W" d="M658.3 467.1l.2.2.2.2s.1 0 .2.1c0 0 .1 0 .2.1"/><path id="X" d="M655.4 469.4h1.4a3.08 3.08 0 0 0 1.3-.3"/><path id="Y" d="M235.5 341.9h-.4-.4-.4-.4-.1-.1-.1-.3"/><path id="Z" d="M648.4 422.9c0-.3-.1-.6-.2-.9-.1-.2-.2-.4-.4-.6-.1-.1-.2-.3-.4-.4-.2-.2-.4-.3-.6-.4-.3-.2-.6-.3-.9-.4l-1-.3c-.3 0-.5 0-.8-.1h-.6c-.4 0-.7 0-1.1.2-.4 0-.8.2-1.1.4-.2 0-.4.2-.6.3-.3.2-.5.3-.7.5l-.4.4c-.1.2-.3.4-.4.5-.1.2-.2.4-.3.7v.7"/><path id="a" d="M1117.4 363.8c0-.2-.1-.3-.2-.5 0-.2-.2-.4-.3-.5"/><path id="b" d="M1016 507.2s0 .1-.1.2c0 0 0 .1-.1.2s0 .1-.1.2c0 0 0 .1-.1.1"/><path id="c" d="M652 410.4c-.3 0-.5.1-.8.2h-.8"/><path id="d" d="M534.1 496.1h.1.1.1.1.1.1.1.1.1.1.1.1.1.1.1.1.3"/><path id="e" d="M569.6 512.1h-.1-.1-.1-.1-.1-.1-.1-.1-.1-.1-.3"/><path id="f" d="M1109.1 363.7l.1-.1s0-.1.1-.2c0 0 0-.1.1-.2"/><path id="g" d="M1114.6 363.8s0 .1-.1.2c0 0 0 .1-.1.2l-.1.1"/><path id="h" d="M897.6 316.6h0 0 0 0 0 0 0 0 0 0-.1 0 0 0 0 0 0 0 0-.1 0"/><path id="i" d="M642.4 421c-.1.2-.2.4-.3.5s-.2.3-.3.3"/><path id="j" d="M458.1 425.6c-.2.4-.4.6-.5.9l-.6.6"/><path id="k" d="M648.4 422.9v.2c0 .2 0 .4-.1.5 0 .2-.2.4-.3.5l-.5.5c-.2.2-.4.3-.6.4s-.5.3-.7.4l-.8.3c-.3 0-.6.1-.9.2h-.9-.9c-.3 0-.6 0-.9-.1-.3 0-.6-.1-.8-.2-.3 0-.5-.2-.7-.3s-.4-.3-.6-.4-.3-.3-.4-.5-.2-.3-.2-.5v-.4"/><path id="l" d="M1113 362.6h0-.1 0v-.1h0 0 0 0 0 0 0 0-.1 0 0 0 0 0 0 0 0-.1"/><path id="m" d="M193.4 352.3c.2 0 .5 0 .6.3.2.2.3.4.3.6s0 .5-.3.6c-.2.2-.4.3-.6.3h-4.1c-.2 0-.4 0-.6-.3-.2-.2-.3-.4-.3-.6s0-.4.3-.6c.2-.2.4-.3.6-.3h1.2v-6.8l-.6.3c-.2.1-.5.1-.7 0-.2 0-.4-.2-.5-.5v-.7c0-.2.2-.4.5-.5l1.9-.8h.4c.1 0 .3 0 .4.1.3.2.4.4.4.7v8.2h1.2z"/></defs></svg>