<?xml version="1.0" encoding="UTF-8"?><svg id="_图层_1" xmlns="http://www.w3.org/2000/svg" viewBox="0 0 21.89 6.58"><path d="M2.95,1.35c-.4,0-.71.19-.71.43,0,.07.03.14.09.2,0,0,0,0,0,0,0,0,0,0,0,0,.12.13.35.22.62.22s.5-.09.62-.22c0,0,0,0,0,0,0,0,0,0,0,0,.05-.06.09-.13.09-.2,0-.24-.31-.43-.71-.43ZM2.95,1.45c.34,0,.62.15.62.34,0,.04-.01.07-.03.1-.2-.17-.58-.24-.9-.14-.11.03-.2.08-.27.14-.02-.03-.03-.07-.03-.1,0-.18.28-.34.62-.34ZM2.42,1.96c.06-.05.14-.09.24-.12.29-.09.64-.03.81.12-.11.1-.31.16-.52.16s-.41-.07-.52-.16Z" style="fill:#000; stroke-width:0px;"/><path d="M2.95.97c-.76,0-1.38.37-1.38.82v.35c0,.45.62.82,1.38.82.36,0,.71-.08.97-.23,0,0,0,0,0,0,.27-.15.41-.36.41-.59v-.35c0-.45-.62-.82-1.38-.82ZM4.23,2.13c0,.18-.13.37-.37.5,0,0,0,0,0,0-.24.14-.58.22-.92.22-.71,0-1.29-.32-1.29-.72v-.05c.2.3.7.52,1.29.52s1.08-.22,1.29-.52v.05ZM2.95,2.51c-.71,0-1.29-.32-1.29-.72s.58-.72,1.29-.72,1.29.32,1.29.72-.58.72-1.29.72Z" style="fill:#000; stroke-width:0px;"/><path d="M8.28,1.35c-.4,0-.71.19-.71.43,0,.07.03.14.09.2,0,0,0,0,0,0,0,0,0,0,0,0,.12.13.35.22.62.22s.5-.09.62-.22c0,0,0,0,0,0,0,0,0,0,0,0,.05-.06.09-.13.09-.2,0-.24-.31-.43-.71-.43ZM8.28,1.45c.34,0,.62.15.62.34,0,.04-.01.07-.03.1-.2-.17-.58-.24-.9-.14-.11.03-.2.08-.27.14-.02-.03-.03-.07-.03-.1,0-.18.28-.34.62-.34ZM7.75,1.96c.06-.05.14-.09.24-.12.29-.09.64-.03.81.12-.11.1-.31.16-.52.16s-.41-.07-.52-.16Z" style="fill:#000; stroke-width:0px;"/><path d="M8.28.97c-.76,0-1.38.37-1.38.82v.35c0,.45.62.82,1.38.82.36,0,.71-.08.97-.23,0,0,0,0,0,0,.27-.15.41-.36.41-.59v-.35c0-.45-.62-.82-1.38-.82ZM9.56,2.13c0,.18-.13.37-.37.5,0,0,0,0,0,0-.24.14-.58.22-.92.22-.71,0-1.29-.32-1.29-.72v-.05c.2.3.7.52,1.29.52s1.08-.22,1.29-.52v.05ZM8.28,2.51c-.71,0-1.29-.32-1.29-.72s.58-.72,1.29-.72,1.29.32,1.29.72-.58.72-1.29.72Z" style="fill:#000; stroke-width:0px;"/><path d="M13.61,1.35c-.4,0-.71.19-.71.43,0,.07.03.14.08.2,0,0,0,0,0,0,0,0,0,0,0,0,.12.13.35.22.62.22s.5-.09.62-.22c0,0,0,0,0,0,0,0,0,0,0,0,.05-.06.09-.13.09-.2,0-.24-.31-.43-.71-.43ZM13.61,1.45c.34,0,.62.15.62.34,0,.04-.01.07-.03.1-.2-.17-.58-.24-.9-.14-.11.03-.2.08-.27.14-.02-.03-.03-.07-.03-.1,0-.18.28-.34.62-.34ZM13.09,1.96c.06-.05.14-.09.24-.12.29-.09.64-.03.81.12-.11.1-.31.16-.52.16s-.41-.07-.52-.16Z" style="fill:#000; stroke-width:0px;"/><path d="M13.61.97c-.76,0-1.38.37-1.38.82v.35c0,.45.62.82,1.38.82.36,0,.71-.08.97-.23,0,0,0,0,0,0,.27-.15.41-.36.41-.59v-.35c0-.45-.62-.82-1.38-.82ZM14.89,2.13c0,.18-.13.37-.37.5,0,0,0,0,0,0-.24.14-.58.22-.92.22-.71,0-1.29-.32-1.29-.72v-.05c.2.3.7.52,1.29.52s1.08-.22,1.29-.52v.05ZM13.61,2.51c-.71,0-1.29-.32-1.29-.72s.58-.72,1.29-.72,1.29.32,1.29.72-.58.72-1.29.72Z" style="fill:#000; stroke-width:0px;"/><path d="M18.32,1.99s0,0,0,0c.12.13.35.22.62.22s.5-.09.62-.22c0,0,0,0,0,0,0,0,0,0,0,0,.05-.06.09-.13.09-.2,0-.24-.31-.43-.71-.43s-.71.19-.71.43c0,.07.03.14.09.2,0,0,0,0,0,0ZM18.42,1.96c.06-.05.14-.09.24-.12.29-.09.64-.03.81.12-.11.1-.31.16-.52.16s-.41-.07-.52-.16ZM18.94,1.45c.34,0,.62.15.62.34,0,.04-.01.07-.03.1-.2-.17-.58-.24-.9-.14-.11.03-.2.08-.27.14-.02-.03-.03-.07-.03-.1,0-.18.28-.34.62-.34Z" style="fill:#000; stroke-width:0px;"/><path d="M18.94.97c-.76,0-1.38.37-1.38.82v.35c0,.45.62.82,1.38.82.36,0,.71-.08.97-.23,0,0,0,0,0,0,.27-.15.41-.36.41-.59v-.35c0-.45-.62-.82-1.38-.82ZM18.94,1.06c.71,0,1.28.32,1.28.72s-.58.72-1.28.72-1.29-.32-1.29-.72.58-.72,1.29-.72ZM20.23,2.13c0,.18-.13.37-.37.5,0,0,0,0,0,0-.24.14-.58.22-.92.22-.71,0-1.29-.32-1.29-.72v-.05c.2.3.7.52,1.29.52s1.08-.22,1.28-.52v.05Z" style="fill:#000; stroke-width:0px;"/><path d="M2.95,4.02c-.4,0-.71.19-.71.43,0,.07.03.14.09.2,0,0,0,0,0,0,0,0,0,0,0,0,.12.13.35.22.62.22s.5-.09.62-.22c0,0,0,0,0,0,0,0,0,0,0,0,.05-.06.09-.13.09-.2,0-.24-.31-.43-.71-.43ZM2.95,4.11c.34,0,.62.15.62.34,0,.04-.01.07-.03.1-.2-.17-.58-.24-.9-.14-.11.03-.2.08-.27.14-.02-.03-.03-.07-.03-.1,0-.18.28-.34.62-.34ZM2.42,4.62c.06-.05.14-.09.24-.12.29-.09.64-.03.81.12-.11.1-.31.16-.52.16s-.41-.07-.52-.16Z" style="fill:#000; stroke-width:0px;"/><path d="M2.95,3.63c-.76,0-1.38.37-1.38.82v.35s0,0,0,0c0,0,0,0,0,0,0,.45.62.82,1.38.82.36,0,.71-.08.97-.23.27-.15.41-.36.41-.59v-.35c0-.45-.62-.82-1.38-.82ZM4.23,4.8c0,.18-.13.37-.37.5-.24.14-.58.22-.92.22-.71,0-1.29-.32-1.29-.72v-.05c.2.3.7.52,1.29.52s1.08-.22,1.29-.52v.05ZM2.95,5.17c-.71,0-1.29-.32-1.29-.72s.58-.72,1.29-.72,1.29.32,1.29.72-.58.72-1.29.72Z" style="fill:#000; stroke-width:0px;"/><path d="M8.28,4.02c-.4,0-.71.19-.71.43,0,.07.03.14.09.2,0,0,0,0,0,0,0,0,0,0,0,0,.12.13.35.22.62.22s.5-.09.62-.22c0,0,0,0,0,0,0,0,0,0,0,0,.05-.06.09-.13.09-.2,0-.24-.31-.43-.71-.43ZM8.28,4.11c.34,0,.62.15.62.34,0,.04-.01.07-.03.1-.2-.17-.58-.24-.9-.14-.11.03-.2.08-.27.14-.02-.03-.03-.07-.03-.1,0-.18.28-.34.62-.34ZM7.75,4.62c.06-.05.14-.09.24-.12.29-.09.64-.03.81.12-.11.1-.31.16-.52.16s-.41-.07-.52-.16Z" style="fill:#000; stroke-width:0px;"/><path d="M8.28,3.63c-.76,0-1.38.37-1.38.82v.35c0,.45.62.82,1.38.82.36,0,.71-.08.97-.23.27-.15.41-.36.41-.59v-.35c0-.45-.62-.82-1.38-.82ZM9.56,4.8c0,.18-.13.37-.37.5-.24.14-.58.22-.92.22-.71,0-1.28-.32-1.28-.72,0,0,0,0,0,0,0,0,0,0,0,0v-.05c.2.3.7.52,1.29.52s1.08-.22,1.29-.52v.05ZM8.28,5.17c-.71,0-1.29-.32-1.29-.72s.58-.72,1.29-.72,1.29.32,1.29.72-.58.72-1.29.72Z" style="fill:#000; stroke-width:0px;"/><path d="M13.61,4.02c-.4,0-.71.19-.71.43,0,.07.03.14.08.2,0,0,0,0,0,0,0,0,0,0,0,0,.12.13.35.22.62.22s.5-.09.62-.22c0,0,0,0,0,0,0,0,0,0,0,0,.05-.06.09-.13.09-.2,0-.24-.31-.43-.71-.43ZM13.61,4.11c.34,0,.62.15.62.34,0,.04-.01.07-.03.1-.2-.17-.58-.24-.9-.14-.11.03-.2.08-.27.14-.02-.03-.03-.07-.03-.1,0-.18.28-.34.62-.34ZM13.09,4.62c.06-.05.14-.09.24-.12.29-.09.64-.03.81.12-.11.1-.31.16-.52.16s-.41-.07-.52-.16Z" style="fill:#000; stroke-width:0px;"/><path d="M13.61,3.63c-.76,0-1.38.37-1.38.82v.35s0,0,0,0c0,0,0,0,0,0,0,.45.62.82,1.38.82.36,0,.71-.08.97-.23.27-.15.41-.36.41-.59v-.35c0-.45-.62-.82-1.38-.82ZM14.89,4.8c0,.18-.13.37-.37.5-.24.14-.58.22-.92.22-.71,0-1.29-.32-1.29-.72v-.05c.2.3.7.52,1.29.52s1.08-.22,1.29-.52v.05ZM13.61,5.17c-.71,0-1.29-.32-1.29-.72s.58-.72,1.29-.72,1.29.32,1.29.72-.58.72-1.29.72Z" style="fill:#000; stroke-width:0px;"/><path d="M18.94,4.02c-.4,0-.71.19-.71.43,0,.07.03.14.09.2,0,0,0,0,0,0,0,0,0,0,0,0,.12.13.35.22.62.22s.5-.09.62-.22c0,0,0,0,0,0,0,0,0,0,0,0,.05-.06.09-.13.09-.2,0-.24-.31-.43-.71-.43ZM18.94,4.11c.34,0,.62.15.62.34,0,.04-.01.07-.03.1-.2-.17-.58-.24-.9-.14-.11.03-.2.08-.27.14-.02-.03-.03-.07-.03-.1,0-.18.28-.34.62-.34ZM18.42,4.62c.06-.05.14-.09.24-.12.29-.09.64-.03.81.12-.11.1-.31.16-.52.16s-.41-.07-.52-.16Z" style="fill:#000; stroke-width:0px;"/><path d="M18.94,3.63c-.76,0-1.38.37-1.38.82v.35s0,0,0,0c0,0,0,0,0,0,0,0,0,0,0,0,0,.45.62.82,1.38.82.36,0,.71-.08.97-.23.27-.15.41-.36.41-.59v-.35c0-.45-.62-.82-1.38-.82ZM20.23,4.8c0,.18-.13.37-.37.5-.24.14-.58.22-.92.22-.71,0-1.29-.32-1.29-.72v-.05c.2.3.7.52,1.29.52s1.08-.22,1.28-.52v.05ZM18.94,5.17c-.71,0-1.29-.32-1.29-.72s.58-.72,1.29-.72,1.28.32,1.28.72-.58.72-1.28.72Z" style="fill:#000; stroke-width:0px;"/></svg>