<?xml version="1.0" encoding="UTF-8"?><svg id="_图层_1" xmlns="http://www.w3.org/2000/svg" viewBox="0 0 763.05 243.53"><defs><style>.cls-1{fill:none;stroke:#000;stroke-linecap:round;stroke-linejoin:round;stroke-width:.75px;}</style></defs><g id="LINE"><line class="cls-1" x1="698.64" y1="34.67" x2="698.64" y2="29.13"/></g><g id="LINE-2"><line class="cls-1" x1="691.61" y1="35.31" x2="698" y2="35.31"/></g><g id="LINE-3"><line class="cls-1" x1="670.66" y1="191.56" x2="670.66" y2="197.1"/></g><g id="LINE-4"><line class="cls-1" x1="677.7" y1="190.92" x2="671.3" y2="190.92"/></g><g id="LINE-5"><line class="cls-1" x1="678.34" y1="197.1" x2="678.34" y2="191.56"/></g><g id="LINE-6"><line class="cls-1" x1="671.3" y1="197.74" x2="677.7" y2="197.74"/></g><g id="LINE-7"><line class="cls-1" x1="706.2" y1="110.34" x2="706.2" y2="115.89"/></g><g id="LINE-8"><line class="cls-1" x1="713.23" y1="109.7" x2="706.84" y2="109.7"/></g><g id="LINE-9"><line class="cls-1" x1="713.87" y1="115.89" x2="713.87" y2="110.34"/></g><g id="LINE-10"><line class="cls-1" x1="706.84" y1="116.52" x2="713.23" y2="116.52"/></g><g id="LINE-11"><line class="cls-1" x1="711.27" y1="69.73" x2="711.27" y2="75.28"/></g><g id="LINE-12"><line class="cls-1" x1="718.31" y1="69.09" x2="711.91" y2="69.09"/></g><g id="LINE-13"><line class="cls-1" x1="718.95" y1="75.28" x2="718.95" y2="69.73"/></g><g id="LINE-14"><line class="cls-1" x1="711.91" y1="75.92" x2="718.31" y2="75.92"/></g><g id="LINE-15"><line class="cls-1" x1="589.45" y1="28.11" x2="589.45" y2="33.65"/></g><g id="LINE-16"><line class="cls-1" x1="596.48" y1="27.47" x2="590.09" y2="27.47"/></g><g id="LINE-17"><line class="cls-1" x1="270.03" y1="135.78" x2="276.29" y2="137.11"/></g><g id="LINE-18"><line class="cls-1" x1="270.2" y1="87.98" x2="269.05" y2="93.4"/></g><g id="LINE-19"><line class="cls-1" x1="277.21" y1="88.82" x2="270.96" y2="87.49"/></g><g id="LINE-20"><line class="cls-1" x1="276.55" y1="95" x2="277.71" y2="89.58"/></g><g id="LINE-21"><line class="cls-1" x1="269.54" y1="94.16" x2="275.79" y2="95.49"/></g><g id="LINE-22"><line class="cls-1" x1="259.77" y1="44.25" x2="258.62" y2="49.67"/></g><g id="LINE-23"><line class="cls-1" x1="266.79" y1="45.09" x2="260.53" y2="43.76"/></g><g id="LINE-24"><line class="cls-1" x1="266.13" y1="51.27" x2="267.28" y2="45.85"/></g><g id="LINE-25"><line class="cls-1" x1="259.11" y1="50.43" x2="265.37" y2="51.76"/></g><g id="LINE-26"><line class="cls-1" x1="240.4" y1="164.68" x2="239.25" y2="170.1"/></g><g id="LINE-27"><line class="cls-1" x1="247.42" y1="165.52" x2="241.16" y2="164.19"/></g><g id="LINE-28"><line class="cls-1" x1="246.76" y1="171.7" x2="247.91" y2="166.27"/></g><g id="LINE-29"><line class="cls-1" x1="239.74" y1="170.86" x2="246" y2="172.19"/></g><g id="LINE-30"><line class="cls-1" x1="236.93" y1="205.46" x2="235.77" y2="210.88"/></g><g id="LINE-31"><line class="cls-1" x1="243.94" y1="206.29" x2="237.68" y2="204.96"/></g><g id="LINE-32"><line class="cls-1" x1="243.28" y1="212.47" x2="244.43" y2="207.05"/></g><g id="LINE-33"><line class="cls-1" x1="130.05" y1="197.1" x2="130.05" y2="191.56"/></g><g id="LINE-34"><line class="cls-1" x1="123.01" y1="197.74" x2="129.41" y2="197.74"/></g><g id="LINE-35"><line class="cls-1" x1="96.99" y1="69.73" x2="96.99" y2="75.28"/></g><g id="LINE-36"><line class="cls-1" x1="104.03" y1="69.09" x2="97.63" y2="69.09"/></g><g id="LINE-37"><line class="cls-1" x1="104.67" y1="75.28" x2="104.67" y2="69.73"/></g><g id="LINE-38"><line class="cls-1" x1="97.63" y1="75.92" x2="104.03" y2="75.92"/></g><g id="LINE-39"><line class="cls-1" x1="96.99" y1="29.13" x2="96.99" y2="34.67"/></g><g id="LINE-40"><line class="cls-1" x1="104.03" y1="28.49" x2="97.63" y2="28.49"/></g><g id="LINE-41"><line class="cls-1" x1="104.67" y1="34.67" x2="104.67" y2="29.13"/></g><g id="LINE-42"><line class="cls-1" x1="97.63" y1="35.31" x2="104.03" y2="35.31"/></g><g id="LINE-43"><line class="cls-1" x1="91.92" y1="150.95" x2="91.92" y2="156.49"/></g><g id="LINE-44"><line class="cls-1" x1="98.95" y1="150.31" x2="92.56" y2="150.31"/></g><g id="LINE-45"><line class="cls-1" x1="99.59" y1="156.49" x2="99.59" y2="150.95"/></g><g id="LINE-46"><line class="cls-1" x1="92.56" y1="157.13" x2="98.95" y2="157.13"/></g><g id="LINE-47"><line class="cls-1" x1="91.92" y1="110.34" x2="91.92" y2="115.88"/></g><g id="LINE-48"><line class="cls-1" x1="98.95" y1="109.7" x2="92.56" y2="109.7"/></g><g id="LINE-49"><line class="cls-1" x1="147.75" y1="110.34" x2="147.75" y2="115.88"/></g><g id="LINE-50"><line class="cls-1" x1="154.79" y1="109.7" x2="148.39" y2="109.7"/></g><g id="LINE-51"><line class="cls-1" x1="155.43" y1="115.88" x2="155.43" y2="110.34"/></g><g id="LINE-52"><line class="cls-1" x1="148.39" y1="116.52" x2="154.79" y2="116.52"/></g><g id="LINE-53"><line class="cls-1" x1="147.75" y1="69.73" x2="147.75" y2="75.28"/></g><g id="LINE-54"><line class="cls-1" x1="154.79" y1="69.09" x2="148.39" y2="69.09"/></g><g id="LINE-55"><line class="cls-1" x1="155.43" y1="75.28" x2="155.43" y2="69.73"/></g><g id="LINE-56"><line class="cls-1" x1="148.39" y1="75.92" x2="154.79" y2="75.92"/></g><g id="LINE-57"><line class="cls-1" x1="43.12" y1="28.49" x2="36.72" y2="28.49"/></g><g id="LINE-58"><line class="cls-1" x1="43.75" y1="34.67" x2="43.75" y2="29.13"/></g><g id="LINE-59"><line class="cls-1" x1="36.72" y1="35.31" x2="43.12" y2="35.31"/></g><g id="LINE-60"><line class="cls-1" x1="36.08" y1="29.13" x2="36.08" y2="34.67"/></g><g id="LINE-61"><line class="cls-1" x1="25.93" y1="69.73" x2="25.93" y2="75.28"/></g><g id="LINE-62"><line class="cls-1" x1="32.96" y1="69.09" x2="26.57" y2="69.09"/></g><g id="LINE-63"><line class="cls-1" x1="33.6" y1="75.28" x2="33.6" y2="69.73"/></g><g id="LINE-64"><line class="cls-1" x1="731.43" y1="205.55" x2="603.15" y2="205.55"/></g><g id="LINE-65"><line class="cls-1" x1="758.41" y1="195.98" x2="746.07" y2="195.98"/></g><g id="LINE-66"><line class="cls-1" x1="762.67" y1="89.05" x2="762.67" y2="191.72"/></g><g id="LINE-67"><line class="cls-1" x1="757.29" y1="84.79" x2="758.41" y2="84.79"/></g><g id="LINE-68"><line class="cls-1" x1="758.41" y1="61.34" x2="757.29" y2="61.34"/></g><g id="LINE-69"><line class="cls-1" x1="762.67" y1="26.49" x2="762.67" y2="57.08"/></g><g id="LINE-70"><line class="cls-1" x1="744.32" y1="22.22" x2="758.41" y2="22.22"/></g><g id="LINE-71"><line class="cls-1" x1="734.73" y1="4.64" x2="734.73" y2="12.63"/></g><g id="LINE-72"><line class="cls-1" x1="433.85" y1="181.23" x2="427.6" y2="182.56"/></g><g id="LINE-73"><line class="cls-1" x1="435.76" y1="187.15" x2="434.61" y2="181.73"/></g><g id="LINE-74"><line class="cls-1" x1="429.01" y1="189.24" x2="435.27" y2="187.91"/></g><g id="LINE-75"><line class="cls-1" x1="427.1" y1="183.32" x2="428.26" y2="188.74"/></g><g id="LINE-76"><line class="cls-1" x1="444.28" y1="137.5" x2="438.02" y2="138.83"/></g><g id="LINE-77"><line class="cls-1" x1="446.19" y1="143.42" x2="445.03" y2="137.99"/></g><g id="LINE-78"><line class="cls-1" x1="439.44" y1="145.5" x2="445.69" y2="144.17"/></g><g id="LINE-79"><line class="cls-1" x1="236.27" y1="211.64" x2="242.52" y2="212.96"/></g><g id="LINE-80"><line class="cls-1" x1="230.97" y1="121.16" x2="229.82" y2="126.58"/></g><g id="LINE-81"><line class="cls-1" x1="237.99" y1="122" x2="231.73" y2="120.67"/></g><g id="LINE-82"><line class="cls-1" x1="237.33" y1="128.18" x2="238.48" y2="122.75"/></g><g id="LINE-83"><line class="cls-1" x1="230.31" y1="127.34" x2="236.57" y2="128.67"/></g><g id="LINE-84"><line class="cls-1" x1="230.48" y1="79.54" x2="229.33" y2="84.96"/></g><g id="LINE-85"><line class="cls-1" x1="237.49" y1="80.38" x2="231.24" y2="79.05"/></g><g id="LINE-86"><line class="cls-1" x1="236.83" y1="86.55" x2="237.98" y2="81.13"/></g><g id="LINE-87"><line class="cls-1" x1="229.82" y1="85.72" x2="236.07" y2="87.05"/></g><g id="LINE-88"><line class="cls-1" x1="220.05" y1="35.81" x2="218.9" y2="41.23"/></g><g id="LINE-89"><line class="cls-1" x1="227.07" y1="36.64" x2="220.81" y2="35.31"/></g><g id="LINE-90"><line class="cls-1" x1="226.41" y1="42.82" x2="227.56" y2="37.4"/></g><g id="LINE-91"><line class="cls-1" x1="219.39" y1="41.99" x2="225.65" y2="43.32"/></g><g id="LINE-92"><line class="cls-1" x1="200.68" y1="156.24" x2="199.53" y2="161.66"/></g><g id="LINE-93"><line class="cls-1" x1="207.7" y1="157.07" x2="201.44" y2="155.74"/></g><g id="LINE-94"><line class="cls-1" x1="207.04" y1="163.25" x2="208.19" y2="157.83"/></g><g id="LINE-95"><line class="cls-1" x1="306.44" y1="220.23" x2="305.29" y2="225.65"/></g><g id="LINE-96"><line class="cls-1" x1="313.45" y1="221.07" x2="307.2" y2="219.74"/></g><g id="LINE-97"><line class="cls-1" x1="312.79" y1="227.25" x2="313.94" y2="221.83"/></g><g id="LINE-98"><line class="cls-1" x1="305.78" y1="226.41" x2="312.03" y2="227.74"/></g><g id="LINE-99"><line class="cls-1" x1="309.92" y1="96.42" x2="308.77" y2="101.85"/></g><g id="LINE-100"><line class="cls-1" x1="316.93" y1="97.26" x2="310.68" y2="95.93"/></g><g id="LINE-101"><line class="cls-1" x1="316.27" y1="103.44" x2="317.43" y2="98.02"/></g><g id="LINE-102"><line class="cls-1" x1="309.26" y1="102.6" x2="315.52" y2="103.93"/></g><g id="LINE-103"><line class="cls-1" x1="310.41" y1="138.04" x2="309.26" y2="143.47"/></g><g id="LINE-104"><line class="cls-1" x1="317.43" y1="138.88" x2="311.17" y2="137.55"/></g><g id="LINE-105"><line class="cls-1" x1="316.77" y1="145.06" x2="317.92" y2="139.64"/></g><g id="LINE-106"><line class="cls-1" x1="309.75" y1="144.22" x2="316.01" y2="145.55"/></g><g id="LINE-107"><line class="cls-1" x1="113.23" y1="124.38" x2="113.23" y2="167.02"/></g><g id="LINE-108"><line class="cls-1" x1="127.73" y1="122.25" x2="115.37" y2="122.25"/></g><g id="LINE-109"><line class="cls-1" x1="129.86" y1="167.02" x2="129.86" y2="124.38"/></g><g id="LINE-110"><line class="cls-1" x1="115.37" y1="169.15" x2="127.73" y2="169.15"/></g><g id="LINE-111"><line class="cls-1" x1="637.73" y1="197.1" x2="637.73" y2="191.56"/></g><g id="LINE-112"><line class="cls-1" x1="630.69" y1="197.74" x2="637.09" y2="197.74"/></g><g id="LINE-113"><line class="cls-1" x1="599.6" y1="110.34" x2="599.6" y2="115.89"/></g><g id="LINE-114"><line class="cls-1" x1="606.63" y1="109.7" x2="600.24" y2="109.7"/></g><g id="LINE-115"><line class="cls-1" x1="607.27" y1="115.89" x2="607.27" y2="110.34"/></g><g id="LINE-116"><line class="cls-1" x1="600.24" y1="116.52" x2="606.63" y2="116.52"/></g><g id="LINE-117"><line class="cls-1" x1="726.5" y1="150.95" x2="726.5" y2="156.49"/></g><g id="LINE-118"><line class="cls-1" x1="733.53" y1="150.31" x2="727.14" y2="150.31"/></g><g id="LINE-119"><line class="cls-1" x1="734.17" y1="156.49" x2="734.17" y2="150.95"/></g><g id="LINE-120"><line class="cls-1" x1="727.14" y1="157.13" x2="733.53" y2="157.13"/></g><g id="LINE-121"><line class="cls-1" x1="711.27" y1="191.56" x2="711.27" y2="197.1"/></g><g id="LINE-122"><line class="cls-1" x1="718.31" y1="190.92" x2="711.91" y2="190.92"/></g><g id="LINE-123"><line class="cls-1" x1="718.95" y1="197.1" x2="718.95" y2="191.56"/></g><g id="LINE-124"><line class="cls-1" x1="711.91" y1="197.74" x2="718.31" y2="197.74"/></g><g id="LINE-125"><line class="cls-1" x1="690.97" y1="29.13" x2="690.97" y2="34.67"/></g><g id="LINE-126"><line class="cls-1" x1="698" y1="28.49" x2="691.61" y2="28.49"/></g><g id="LINE-127"><line class="cls-1" x1="53.4" y1="163.77" x2="19.91" y2="163.77"/></g><g id="LINE-128"><line class="cls-1" x1="55.53" y1="192.44" x2="55.53" y2="165.9"/></g><g id="LINE-129"><line class="cls-1" x1="22.04" y1="194.57" x2="53.4" y2="194.57"/></g><g id="LINE-130"><line class="cls-1" x1="17.78" y1="165.9" x2="17.78" y2="190.31"/></g><g id="LINE-131"><line class="cls-1" x1="339.22" y1="61.14" x2="338.06" y2="66.56"/></g><g id="LINE-132"><line class="cls-1" x1="346.23" y1="61.97" x2="339.97" y2="60.64"/></g><g id="LINE-133"><line class="cls-1" x1="345.57" y1="68.15" x2="346.72" y2="62.73"/></g><g id="LINE-134"><line class="cls-1" x1="338.56" y1="67.32" x2="344.81" y2="68.65"/></g><g id="LINE-135"><line class="cls-1" x1="319.85" y1="181.56" x2="318.69" y2="186.99"/></g><g id="LINE-136"><line class="cls-1" x1="326.86" y1="182.4" x2="320.6" y2="181.07"/></g><g id="LINE-137"><line class="cls-1" x1="326.2" y1="188.58" x2="327.35" y2="183.16"/></g><g id="LINE-138"><line class="cls-1" x1="319.19" y1="187.74" x2="325.44" y2="189.07"/></g><g id="LINE-139"><line class="cls-1" x1="299.5" y1="52.69" x2="298.34" y2="58.11"/></g><g id="LINE-140"><line class="cls-1" x1="306.51" y1="53.53" x2="300.25" y2="52.2"/></g><g id="LINE-141"><line class="cls-1" x1="305.85" y1="59.71" x2="307" y2="54.29"/></g><g id="LINE-142"><line class="cls-1" x1="298.84" y1="58.87" x2="305.09" y2="60.2"/></g><g id="LINE-143"><line class="cls-1" x1="76.14" y1="122.25" x2="63.78" y2="122.25"/></g><g id="LINE-144"><line class="cls-1" x1="78.28" y1="167.02" x2="78.28" y2="124.38"/></g><g id="LINE-145"><line class="cls-1" x1="63.78" y1="169.15" x2="76.14" y2="169.15"/></g><g id="LINE-146"><line class="cls-1" x1="61.65" y1="124.38" x2="61.65" y2="167.02"/></g><g id="LINE-147"><line class="cls-1" x1="545.59" y1="80.77" x2="544.43" y2="75.35"/></g><g id="LINE-148"><line class="cls-1" x1="538.84" y1="82.86" x2="545.09" y2="81.53"/></g><g id="LINE-149"><line class="cls-1" x1="536.93" y1="76.95" x2="538.08" y2="82.37"/></g><g id="LINE-150"><line class="cls-1" x1="523.72" y1="120.62" x2="517.46" y2="121.95"/></g><g id="LINE-151"><line class="cls-1" x1="525.63" y1="126.53" x2="524.48" y2="121.11"/></g><g id="LINE-152"><line class="cls-1" x1="518.88" y1="128.62" x2="525.14" y2="127.29"/></g><g id="LINE-153"><line class="cls-1" x1="516.97" y1="122.7" x2="518.12" y2="128.13"/></g><g id="LINE-154"><line class="cls-1" x1="563.44" y1="112.17" x2="557.18" y2="113.5"/></g><g id="LINE-155"><line class="cls-1" x1="565.35" y1="118.09" x2="564.2" y2="112.67"/></g><g id="LINE-156"><line class="cls-1" x1="558.6" y1="120.18" x2="564.86" y2="118.85"/></g><g id="LINE-157"><line class="cls-1" x1="556.69" y1="114.26" x2="557.84" y2="119.68"/></g><g id="LINE-158"><line class="cls-1" x1="589.45" y1="150.95" x2="589.45" y2="156.49"/></g><g id="LINE-159"><line class="cls-1" x1="596.48" y1="150.31" x2="590.09" y2="150.31"/></g><g id="LINE-160"><line class="cls-1" x1="597.12" y1="156.49" x2="597.12" y2="150.95"/></g><g id="LINE-161"><line class="cls-1" x1="590.09" y1="157.13" x2="596.48" y2="157.13"/></g><g id="LINE-162"><line class="cls-1" x1="513.29" y1="164.35" x2="507.04" y2="165.68"/></g><g id="LINE-163"><line class="cls-1" x1="26.57" y1="75.92" x2="32.96" y2="75.92"/></g><g id="LINE-164"><line class="cls-1" x1="15.78" y1="110.34" x2="15.78" y2="115.88"/></g><g id="LINE-165"><line class="cls-1" x1="22.81" y1="109.7" x2="16.42" y2="109.7"/></g><g id="LINE-166"><line class="cls-1" x1="23.45" y1="115.88" x2="23.45" y2="110.34"/></g><g id="LINE-167"><line class="cls-1" x1="16.42" y1="116.52" x2="22.81" y2="116.52"/></g><g id="LINE-168"><line class="cls-1" x1="15.78" y1="150.95" x2="15.78" y2="156.49"/></g><g id="LINE-169"><line class="cls-1" x1="22.81" y1="150.31" x2="16.42" y2="150.31"/></g><g id="LINE-170"><line class="cls-1" x1="23.45" y1="156.49" x2="23.45" y2="150.95"/></g><g id="LINE-171"><line class="cls-1" x1="16.42" y1="157.13" x2="22.81" y2="157.13"/></g><g id="LINE-172"><line class="cls-1" x1="137.6" y1="29.13" x2="137.6" y2="34.67"/></g><g id="LINE-173"><line class="cls-1" x1="144.64" y1="28.49" x2="138.24" y2="28.49"/></g><g id="LINE-174"><line class="cls-1" x1="145.28" y1="34.67" x2="145.28" y2="29.13"/></g><g id="LINE-175"><line class="cls-1" x1="138.24" y1="35.31" x2="144.64" y2="35.31"/></g><g id="LINE-176"><line class="cls-1" x1="122.37" y1="191.56" x2="122.37" y2="197.1"/></g><g id="LINE-177"><line class="cls-1" x1="129.41" y1="190.92" x2="123.01" y2="190.92"/></g><g id="LINE-178"><line class="cls-1" x1="192.85" y1="165.04" x2="183.63" y2="208.43"/></g><g id="LINE-179"><line class="cls-1" x1="195.38" y1="163.4" x2="208.32" y2="166.15"/></g><g id="LINE-180"><line class="cls-1" x1="209.96" y1="168.68" x2="209.9" y2="168.95"/></g><g id="LINE-181"><line class="cls-1" x1="220.5" y1="173.38" x2="211.54" y2="171.47"/></g><g id="LINE-182"><line class="cls-1" x1="213.86" y1="214.85" x2="222.14" y2="175.91"/></g><g id="LINE-183"><line class="cls-1" x1="271.84" y1="227.18" x2="213.86" y2="214.85"/></g><g id="LINE-184"><line class="cls-1" x1="274.37" y1="225.54" x2="283.24" y2="183.78"/></g><g id="LINE-185"><line class="cls-1" x1="285.77" y1="182.14" x2="297.86" y2="184.71"/></g><g id="LINE-186"><line class="cls-1" x1="299.5" y1="187.24" x2="290.63" y2="228.99"/></g><g id="LINE-187"><line class="cls-1" x1="322.3" y1="237.9" x2="292.27" y2="231.52"/></g><g id="LINE-188"><line class="cls-1" x1="333.7" y1="194.51" x2="324.82" y2="236.26"/></g><g id="LINE-189"><line class="cls-1" x1="348.32" y1="195.44" x2="336.23" y2="192.87"/></g><g id="LINE-190"><line class="cls-1" x1="266.86" y1="223.19" x2="260.82" y2="221.91"/></g><g id="LINE-191"><line class="cls-1" x1="258.35" y1="218.11" x2="264.56" y2="188.92"/></g><g id="LINE-192"><line class="cls-1" x1="268.35" y1="186.46" x2="274.4" y2="187.74"/></g><g id="LINE-193"><line class="cls-1" x1="276.86" y1="191.54" x2="270.66" y2="220.73"/></g><g id="LINE-194"><line class="cls-1" x1="280.13" y1="173.12" x2="278.97" y2="178.54"/></g><g id="LINE-195"><line class="cls-1" x1="287.14" y1="173.96" x2="280.88" y2="172.63"/></g><g id="LINE-196"><line class="cls-1" x1="286.48" y1="180.14" x2="287.63" y2="174.72"/></g><g id="LINE-197"><line class="cls-1" x1="279.47" y1="179.3" x2="285.72" y2="180.63"/></g><g id="LINE-198"><line class="cls-1" x1="270.69" y1="129.6" x2="269.54" y2="135.02"/></g><g id="LINE-199"><line class="cls-1" x1="277.71" y1="130.44" x2="271.45" y2="129.11"/></g><g id="LINE-200"><line class="cls-1" x1="277.05" y1="136.62" x2="278.2" y2="131.2"/></g><g id="LINE-201"><line class="cls-1" x1="590.09" y1="34.29" x2="596.48" y2="34.29"/></g><g id="LINE-202"><line class="cls-1" x1="619.9" y1="69.73" x2="619.9" y2="75.28"/></g><g id="LINE-203"><line class="cls-1" x1="626.94" y1="69.09" x2="620.54" y2="69.09"/></g><g id="LINE-204"><line class="cls-1" x1="627.58" y1="75.28" x2="627.58" y2="69.73"/></g><g id="LINE-205"><line class="cls-1" x1="620.54" y1="75.92" x2="626.94" y2="75.92"/></g><g id="LINE-206"><line class="cls-1" x1="630.06" y1="150.95" x2="630.06" y2="156.49"/></g><g id="LINE-207"><line class="cls-1" x1="637.09" y1="150.31" x2="630.69" y2="150.31"/></g><g id="LINE-208"><line class="cls-1" x1="637.73" y1="156.49" x2="637.73" y2="150.95"/></g><g id="LINE-209"><line class="cls-1" x1="630.69" y1="157.13" x2="637.09" y2="157.13"/></g><g id="LINE-210"><line class="cls-1" x1="640.21" y1="110.34" x2="640.21" y2="115.89"/></g><g id="LINE-211"><line class="cls-1" x1="647.24" y1="109.7" x2="640.85" y2="109.7"/></g><g id="LINE-212"><line class="cls-1" x1="647.88" y1="115.89" x2="647.88" y2="110.34"/></g><g id="LINE-213"><line class="cls-1" x1="640.85" y1="116.52" x2="647.24" y2="116.52"/></g><g id="LINE-214"><line class="cls-1" x1="678.06" y1="77.38" x2="690.42" y2="77.38"/></g><g id="LINE-215"><line class="cls-1" x1="692.55" y1="79.51" x2="692.55" y2="122.15"/></g><g id="LINE-216"><line class="cls-1" x1="200.02" y1="162.42" x2="206.28" y2="163.75"/></g><g id="LINE-217"><line class="cls-1" x1="191.25" y1="112.72" x2="190.1" y2="118.14"/></g><g id="LINE-218"><line class="cls-1" x1="198.27" y1="113.55" x2="192.01" y2="112.22"/></g><g id="LINE-219"><line class="cls-1" x1="197.61" y1="119.73" x2="198.76" y2="114.31"/></g><g id="LINE-220"><line class="cls-1" x1="190.59" y1="118.9" x2="196.85" y2="120.23"/></g><g id="LINE-221"><line class="cls-1" x1="190.76" y1="71.1" x2="189.6" y2="76.52"/></g><g id="LINE-222"><line class="cls-1" x1="197.77" y1="71.93" x2="191.52" y2="70.6"/></g><g id="LINE-223"><line class="cls-1" x1="197.11" y1="78.11" x2="198.26" y2="72.69"/></g><g id="LINE-224"><line class="cls-1" x1="190.1" y1="77.27" x2="196.35" y2="78.6"/></g><g id="LINE-225"><line class="cls-1" x1="178.21" y1="28.11" x2="178.21" y2="33.65"/></g><g id="LINE-226"><line class="cls-1" x1="185.24" y1="27.47" x2="178.85" y2="27.47"/></g><g id="LINE-227"><line class="cls-1" x1="185.88" y1="33.65" x2="185.88" y2="28.11"/></g><g id="LINE-228"><line class="cls-1" x1="178.85" y1="34.29" x2="185.24" y2="34.29"/></g><g id="LINE-229"><line class="cls-1" x1="157.91" y1="149.78" x2="157.91" y2="155.32"/></g><g id="LINE-230"><line class="cls-1" x1="164.94" y1="149.14" x2="158.55" y2="149.14"/></g><g id="LINE-231"><line class="cls-1" x1="165.58" y1="155.32" x2="165.58" y2="149.78"/></g><g id="LINE-232"><line class="cls-1" x1="158.55" y1="155.96" x2="164.94" y2="155.96"/></g><g id="LINE-233"><line class="cls-1" x1="436.25" y1="62.5" x2="435.1" y2="57.08"/></g><g id="LINE-234"><line class="cls-1" x1="429.5" y1="64.58" x2="435.76" y2="63.26"/></g><g id="LINE-235"><line class="cls-1" x1="427.59" y1="58.67" x2="428.75" y2="64.09"/></g><g id="LINE-236"><line class="cls-1" x1="424.51" y1="100.19" x2="418.26" y2="101.52"/></g><g id="LINE-237"><line class="cls-1" x1="426.42" y1="106.1" x2="425.27" y2="100.68"/></g><g id="LINE-238"><line class="cls-1" x1="419.67" y1="108.19" x2="425.93" y2="106.86"/></g><g id="LINE-239"><line class="cls-1" x1="417.76" y1="102.28" x2="418.92" y2="107.7"/></g><g id="LINE-240"><line class="cls-1" x1="660.51" y1="69.73" x2="660.51" y2="75.28"/></g><g id="LINE-241"><line class="cls-1" x1="667.55" y1="69.09" x2="661.15" y2="69.09"/></g><g id="LINE-242"><line class="cls-1" x1="668.19" y1="75.28" x2="668.19" y2="69.73"/></g><g id="LINE-243"><line class="cls-1" x1="661.15" y1="75.92" x2="667.55" y2="75.92"/></g><g id="LINE-244"><line class="cls-1" x1="630.06" y1="29.13" x2="630.06" y2="34.67"/></g><g id="LINE-245"><line class="cls-1" x1="637.09" y1="28.49" x2="630.69" y2="28.49"/></g><g id="LINE-246"><line class="cls-1" x1="637.73" y1="34.67" x2="637.73" y2="29.13"/></g><g id="LINE-247"><line class="cls-1" x1="630.69" y1="35.31" x2="637.09" y2="35.31"/></g><g id="LINE-248"><line class="cls-1" x1="630.06" y1="191.56" x2="630.06" y2="197.1"/></g><g id="LINE-249"><line class="cls-1" x1="637.09" y1="190.92" x2="630.69" y2="190.92"/></g><g id="LINE-250"><line class="cls-1" x1="507.03" y1="41.78" x2="508.19" y2="47.21"/></g><g id="LINE-251"><line class="cls-1" x1="579.29" y1="69.73" x2="579.29" y2="75.28"/></g><g id="LINE-252"><line class="cls-1" x1="586.33" y1="69.09" x2="579.93" y2="69.09"/></g><g id="LINE-253"><line class="cls-1" x1="586.97" y1="75.28" x2="586.97" y2="69.73"/></g><g id="LINE-254"><line class="cls-1" x1="579.93" y1="75.92" x2="586.33" y2="75.92"/></g><g id="LINE-255"><line class="cls-1" x1="553.5" y1="31.25" x2="547.25" y2="32.58"/></g><g id="LINE-256"><line class="cls-1" x1="555.41" y1="37.17" x2="554.26" y2="31.75"/></g><g id="LINE-257"><line class="cls-1" x1="548.67" y1="39.26" x2="554.92" y2="37.93"/></g><g id="LINE-258"><line class="cls-1" x1="546.76" y1="33.34" x2="547.91" y2="38.76"/></g><g id="LINE-259"><line class="cls-1" x1="536.63" y1="200.9" x2="530.38" y2="202.23"/></g><g id="LINE-260"><line class="cls-1" x1="538.54" y1="206.82" x2="537.39" y2="201.39"/></g><g id="LINE-261"><line class="cls-1" x1="531.79" y1="208.9" x2="538.05" y2="207.57"/></g><g id="LINE-262"><line class="cls-1" x1="529.88" y1="202.99" x2="531.04" y2="208.41"/></g><g id="LINE-263"><line class="cls-1" x1="553.01" y1="155.9" x2="546.76" y2="157.23"/></g><g id="LINE-264"><line class="cls-1" x1="554.92" y1="161.82" x2="553.77" y2="156.4"/></g><g id="LINE-265"><line class="cls-1" x1="548.18" y1="163.91" x2="554.43" y2="162.58"/></g><g id="LINE-266"><line class="cls-1" x1="597.12" y1="33.65" x2="597.12" y2="28.11"/></g><g id="LINE-267"><line class="cls-1" x1="543.67" y1="74.86" x2="537.42" y2="76.19"/></g><g id="LINE-268"><line class="cls-1" x1="515.2" y1="170.26" x2="514.05" y2="164.84"/></g><g id="LINE-269"><line class="cls-1" x1="508.46" y1="172.35" x2="514.71" y2="171.02"/></g><g id="LINE-270"><line class="cls-1" x1="506.54" y1="166.44" x2="507.7" y2="171.86"/></g><g id="LINE-271"><line class="cls-1" x1="484" y1="129.06" x2="477.74" y2="130.39"/></g><g id="LINE-272"><line class="cls-1" x1="485.91" y1="134.97" x2="484.75" y2="129.55"/></g><g id="LINE-273"><line class="cls-1" x1="479.16" y1="137.06" x2="485.41" y2="135.73"/></g><g id="LINE-274"><line class="cls-1" x1="477.25" y1="131.15" x2="478.4" y2="136.57"/></g><g id="LINE-275"><line class="cls-1" x1="473.57" y1="172.79" x2="467.32" y2="174.12"/></g><g id="LINE-276"><line class="cls-1" x1="475.48" y1="178.7" x2="474.33" y2="173.28"/></g><g id="LINE-277"><line class="cls-1" x1="468.73" y1="180.79" x2="474.99" y2="179.46"/></g><g id="LINE-278"><line class="cls-1" x1="466.82" y1="174.88" x2="467.98" y2="180.3"/></g><g id="LINE-279"><line class="cls-1" x1="457.19" y1="217.79" x2="450.93" y2="219.12"/></g><g id="LINE-280"><line class="cls-1" x1="459.1" y1="223.7" x2="457.95" y2="218.28"/></g><g id="LINE-281"><line class="cls-1" x1="452.35" y1="225.79" x2="458.61" y2="224.46"/></g><g id="LINE-282"><line class="cls-1" x1="450.44" y1="219.88" x2="451.59" y2="225.3"/></g><g id="LINE-283"><line class="cls-1" x1="434.34" y1="56.58" x2="428.09" y2="57.91"/></g><g id="LINE-284"><line class="cls-1" x1="690.42" y1="124.28" x2="678.06" y2="124.28"/></g><g id="LINE-285"><line class="cls-1" x1="675.93" y1="122.15" x2="675.93" y2="79.51"/></g><g id="LINE-286"><line class="cls-1" x1="727.51" y1="79.51" x2="727.51" y2="122.15"/></g><g id="LINE-287"><line class="cls-1" x1="742.01" y1="77.38" x2="729.65" y2="77.38"/></g><g id="LINE-288"><line class="cls-1" x1="744.14" y1="122.15" x2="744.14" y2="79.51"/></g><g id="LINE-289"><line class="cls-1" x1="729.65" y1="124.28" x2="742.01" y2="124.28"/></g><g id="LINE-290"><line class="cls-1" x1="728.91" y1="45.19" x2="728.91" y2="2.59"/></g><g id="LINE-291"><line class="cls-1" x1="714.42" y1="47.33" x2="726.78" y2="47.33"/></g><g id="LINE-292"><line class="cls-1" x1="712.29" y1=".38" x2="712.29" y2="45.19"/></g><g id="LINE-293"><line class="cls-1" x1="677.33" y1=".38" x2="712.29" y2=".38"/></g><g id="LINE-294"><line class="cls-1" x1="677.33" y1="45.19" x2="677.33" y2=".38"/></g><g id="LINE-295"><line class="cls-1" x1="662.83" y1="47.33" x2="675.19" y2="47.33"/></g><g id="LINE-296"><line class="cls-1" x1="660.7" y1="2.51" x2="660.7" y2="45.19"/></g><g id="LINE-297"><line class="cls-1" x1="578.01" y1=".38" x2="658.57" y2=".38"/></g><g id="LINE-298"><line class="cls-1" x1="436" y1="27.49" x2="559.06" y2="1.33"/></g><g id="LINE-299"><line class="cls-1" x1="437.53" y1="139.59" x2="438.68" y2="145.01"/></g><g id="LINE-300"><line class="cls-1" x1="464.23" y1="91.74" x2="457.98" y2="93.07"/></g><g id="LINE-301"><line class="cls-1" x1="466.14" y1="97.66" x2="464.99" y2="92.24"/></g><g id="LINE-302"><line class="cls-1" x1="459.4" y1="99.75" x2="465.65" y2="98.42"/></g><g id="LINE-303"><line class="cls-1" x1="457.49" y1="93.83" x2="458.64" y2="99.25"/></g><g id="LINE-304"><line class="cls-1" x1="474.06" y1="48.14" x2="467.81" y2="49.47"/></g><g id="LINE-305"><line class="cls-1" x1="475.97" y1="54.05" x2="474.82" y2="48.63"/></g><g id="LINE-306"><line class="cls-1" x1="469.22" y1="56.14" x2="475.48" y2="54.81"/></g><g id="LINE-307"><line class="cls-1" x1="467.31" y1="50.23" x2="468.47" y2="55.65"/></g><g id="LINE-308"><line class="cls-1" x1="503.95" y1="83.3" x2="497.7" y2="84.63"/></g><g id="LINE-309"><line class="cls-1" x1="505.86" y1="89.22" x2="504.71" y2="83.79"/></g><g id="LINE-310"><line class="cls-1" x1="499.12" y1="91.3" x2="505.37" y2="89.97"/></g><g id="LINE-311"><line class="cls-1" x1="497.21" y1="85.39" x2="498.36" y2="90.81"/></g><g id="LINE-312"><line class="cls-1" x1="513.78" y1="39.7" x2="507.53" y2="41.03"/></g><g id="LINE-313"><line class="cls-1" x1="515.69" y1="45.61" x2="514.54" y2="40.19"/></g><g id="LINE-314"><line class="cls-1" x1="508.95" y1="47.7" x2="515.2" y2="46.37"/></g><g id="LINE-315"><line class="cls-1" x1="99.59" y1="115.88" x2="99.59" y2="110.34"/></g><g id="LINE-316"><line class="cls-1" x1="92.56" y1="116.52" x2="98.95" y2="116.52"/></g><g id="LINE-317"><line class="cls-1" x1="71.61" y1="191.56" x2="71.61" y2="197.1"/></g><g id="LINE-318"><line class="cls-1" x1="78.65" y1="190.92" x2="72.25" y2="190.92"/></g><g id="LINE-319"><line class="cls-1" x1="79.29" y1="197.1" x2="79.29" y2="191.56"/></g><g id="LINE-320"><line class="cls-1" x1="72.25" y1="197.74" x2="78.65" y2="197.74"/></g><g id="LINE-321"><line class="cls-1" x1="341.09" y1="239.72" x2="349.96" y2="197.97"/></g><g id="LINE-322"><line class="cls-1" x1="345.26" y1="242.78" x2="342.73" y2="242.25"/></g><g id="LINE-323"><line class="cls-1" x1="351.7" y1="231.34" x2="351.7" y2="237.57"/></g><g id="LINE-324"><line class="cls-1" x1="363.7" y1="219.61" x2="363.42" y2="219.61"/></g><g id="LINE-325"><line class="cls-1" x1="369.03" y1="155.11" x2="369.03" y2="214.28"/></g><g id="LINE-326"><line class="cls-1" x1="345.99" y1="149.78" x2="363.7" y2="149.78"/></g><g id="LINE-327"><line class="cls-1" x1="363.7" y1="126.34" x2="345.99" y2="126.34"/></g><g id="LINE-328"><line class="cls-1" x1="389.46" y1="37.38" x2="414.74" y2="32.01"/></g><g id="LINE-329"><line class="cls-1" x1="386.09" y1="120.96" x2="386.09" y2="41.55"/></g><g id="LINE-330"><line class="cls-1" x1="409.46" y1="126.29" x2="391.41" y2="126.29"/></g><g id="LINE-331"><line class="cls-1" x1="391.41" y1="149.73" x2="409.46" y2="149.73"/></g><g id="LINE-332"><line class="cls-1" x1="386.09" y1="214.3" x2="386.09" y2="155.06"/></g><g id="LINE-333"><line class="cls-1" x1="402.3" y1="237.83" x2="402.3" y2="231.34"/></g><g id="LINE-334"><line class="cls-1" x1="421.66" y1="240.3" x2="408.74" y2="243.04"/></g><g id="LINE-335"><line class="cls-1" x1="423.3" y1="237.77" x2="414.42" y2="196.02"/></g><g id="LINE-336"><line class="cls-1" x1="416.07" y1="193.49" x2="428.16" y2="190.92"/></g><g id="LINE-337"><line class="cls-1" x1="430.69" y1="192.56" x2="439.56" y2="234.31"/></g><g id="LINE-338"><line class="cls-1" x1="472.12" y1="229.57" x2="442.09" y2="235.95"/></g><g id="LINE-339"><line class="cls-1" x1="464.88" y1="185.29" x2="473.76" y2="227.04"/></g><g id="LINE-340"><line class="cls-1" x1="478.62" y1="180.19" x2="466.53" y2="182.76"/></g><g id="LINE-341"><line class="cls-1" x1="490.02" y1="223.59" x2="481.15" y2="181.83"/></g><g id="LINE-342"><line class="cls-1" x1="573.9" y1="207.94" x2="492.55" y2="225.23"/></g><g id="LINE-343"><line class="cls-1" x1="369.03" y1="41.53" x2="369.03" y2="121.01"/></g><g id="LINE-344"><line class="cls-1" x1="340.12" y1="31.93" x2="365.65" y2="37.36"/></g><g id="LINE-345"><line class="cls-1" x1="192.94" y1=".65" x2="318.05" y2="27.24"/></g><g id="LINE-346"><line class="cls-1" x1="30.37" y1=".38" x2="172.03" y2=".38"/></g><g id="LINE-347"><line class="cls-1" x1="21.53" y1="12.63" x2="21.53" y2="8.09"/></g><g id="LINE-348"><line class="cls-1" x1="5.7" y1="21.16" x2="13.01" y2="21.16"/></g><g id="LINE-349"><line class="cls-1" x1=".38" y1="56.69" x2=".38" y2="26.49"/></g><g id="LINE-350"><line class="cls-1" x1=".38" y1="191.72" x2=".38" y2="89.44"/></g><g id="LINE-351"><line class="cls-1" x1="19.09" y1="195.98" x2="4.64" y2="195.98"/></g><g id="LINE-352"><line class="cls-1" x1="151.06" y1="205.55" x2="34.41" y2="205.55"/></g><g id="LINE-353"><line class="cls-1" x1="183.63" y1="208.43" x2="181.61" y2="208"/></g><g id="LINE-354"><line class="cls-1" x1="546.27" y1="157.99" x2="547.42" y2="163.41"/></g><g id="ARC"><path class="cls-1" d="M698.64,29.13c0-.35-.29-.64-.64-.64"/></g><g id="ARC-2"><path class="cls-1" d="M698,35.31c.35,0,.64-.29.64-.64"/></g><g id="ARC-3"><path class="cls-1" d="M690.97,34.67c0,.35.29.64.64.64"/></g><g id="ARC-4"><path class="cls-1" d="M671.3,190.92c-.35,0-.64.29-.64.64"/></g><g id="ARC-5"><path class="cls-1" d="M678.34,191.56c0-.35-.29-.64-.64-.64"/></g><g id="ARC-6"><path class="cls-1" d="M677.7,197.74c.35,0,.64-.29.64-.64"/></g><g id="ARC-7"><path class="cls-1" d="M670.66,197.1c0,.35.29.64.64.64"/></g><g id="ARC-8"><path class="cls-1" d="M706.84,109.7c-.35,0-.64.29-.64.64"/></g><g id="ARC-9"><path class="cls-1" d="M713.87,110.34c0-.35-.29-.64-.64-.64"/></g><g id="ARC-10"><path class="cls-1" d="M713.23,116.52c.35,0,.64-.29.64-.64"/></g><g id="ARC-11"><path class="cls-1" d="M706.2,115.89c0,.35.29.64.64.64"/></g><g id="ARC-12"><path class="cls-1" d="M711.91,69.09c-.35,0-.64.29-.64.64"/></g><g id="ARC-13"><path class="cls-1" d="M718.95,69.73c0-.35-.29-.64-.64-.64"/></g><g id="ARC-14"><path class="cls-1" d="M718.31,75.92c.35,0,.64-.29.64-.64"/></g><g id="ARC-15"><path class="cls-1" d="M711.27,75.28c0,.35.29.64.64.64"/></g><g id="ARC-16"><path class="cls-1" d="M590.09,27.47c-.35,0-.64.29-.64.64"/></g><g id="ARC-17"><path class="cls-1" d="M269.05,93.4c-.07.35.15.69.49.76"/></g><g id="ARC-18"><path class="cls-1" d="M270.96,87.49c-.35-.07-.69.15-.76.49"/></g><g id="ARC-19"><path class="cls-1" d="M277.71,89.58c.07-.35-.15-.68-.49-.76"/></g><g id="ARC-20"><path class="cls-1" d="M275.79,95.49c.35.07.69-.15.76-.49"/></g><g id="ARC-21"><path class="cls-1" d="M258.62,49.67c-.07.35.15.69.49.76"/></g><g id="ARC-22"><path class="cls-1" d="M260.53,43.76c-.35-.07-.68.15-.76.49"/></g><g id="ARC-23"><path class="cls-1" d="M267.28,45.85c.07-.35-.15-.68-.49-.76"/></g><g id="ARC-24"><path class="cls-1" d="M265.37,51.76c.35.07.69-.15.76-.49"/></g><g id="ARC-25"><path class="cls-1" d="M239.25,170.1c-.07.35.15.69.49.76"/></g><g id="ARC-26"><path class="cls-1" d="M241.16,164.19c-.35-.07-.69.15-.76.49"/></g><g id="ARC-27"><path class="cls-1" d="M247.91,166.27c.07-.35-.15-.69-.49-.76"/></g><g id="ARC-28"><path class="cls-1" d="M246,172.19c.35.07.69-.15.76-.49"/></g><g id="ARC-29"><path class="cls-1" d="M235.77,210.88c-.07.35.15.69.49.76"/></g><g id="ARC-30"><path class="cls-1" d="M237.68,204.96c-.35-.07-.69.15-.76.49"/></g><g id="ARC-31"><path class="cls-1" d="M244.43,207.05c.07-.35-.15-.69-.49-.76"/></g><g id="ARC-32"><path class="cls-1" d="M242.52,212.96c.35.07.69-.15.76-.49"/></g><g id="CIRCLE"><path class="cls-1" d="M306.23,129.37c0-.62-.5-1.12-1.12-1.12s-1.12.5-1.12,1.12.5,1.12,1.12,1.12,1.12-.5,1.12-1.12Z"/></g><g id="CIRCLE-2"><path class="cls-1" d="M315.23,213.81c0-1.94-1.57-3.5-3.5-3.5s-3.5,1.57-3.5,3.5,1.57,3.5,3.5,3.5,3.5-1.57,3.5-3.5Z"/></g><g id="CIRCLE-3"><circle class="cls-1" cx="314.54" cy="172.89" r="1.12"/></g><g id="CIRCLE-4"><circle class="cls-1" cx="315.21" cy="90" r="3.5"/></g><g id="CIRCLE-5"><path class="cls-1" d="M308.29,46.27c0-1.94-1.57-3.5-3.5-3.5s-3.5,1.57-3.5,3.5,1.57,3.5,3.5,3.5,3.5-1.57,3.5-3.5Z"/></g><g id="CIRCLE-6"><path class="cls-1" d="M305.73,87.75c0-.62-.5-1.12-1.12-1.12s-1.12.5-1.12,1.12.5,1.12,1.12,1.12,1.12-.5,1.12-1.12Z"/></g><g id="CIRCLE-7"><path class="cls-1" d="M302.25,211.56c0-.62-.5-1.12-1.12-1.12s-1.12.5-1.12,1.12.5,1.12,1.12,1.12,1.12-.5,1.12-1.12Z"/></g><g id="CIRCLE-8"><path class="cls-1" d="M297.12,168.95c0-.62-.5-1.12-1.12-1.12s-1.12.5-1.12,1.12.5,1.12,1.12,1.12,1.12-.5,1.12-1.12Z"/></g><g id="CIRCLE-9"><circle class="cls-1" cx="335.73" cy="177.39" r="1.12"/></g><g id="CIRCLE-10"><path class="cls-1" d="M335.03,52.46c0-.62-.5-1.12-1.12-1.12s-1.12.5-1.12,1.12.5,1.12,1.12,1.12,1.12-.5,1.12-1.12Z"/></g><g id="CIRCLE-11"><path class="cls-1" d="M327.41,133.87c0-.62-.5-1.12-1.12-1.12s-1.12.5-1.12,1.12.5,1.12,1.12,1.12,1.12-.5,1.12-1.12Z"/></g><g id="CIRCLE-12"><path class="cls-1" d="M326.92,92.25c0-.62-.5-1.12-1.12-1.12s-1.12.5-1.12,1.12.5,1.12,1.12,1.12,1.12-.5,1.12-1.12Z"/></g><g id="CIRCLE-13"><path class="cls-1" d="M328.64,175.14c0-1.94-1.57-3.5-3.5-3.5s-3.5,1.57-3.5,3.5,1.57,3.5,3.5,3.5,3.5-1.57,3.5-3.5Z"/></g><g id="CIRCLE-14"><path class="cls-1" d="M323.44,216.06c0-.62-.5-1.12-1.12-1.12s-1.12.5-1.12,1.12.5,1.12,1.12,1.12,1.12-.5,1.12-1.12Z"/></g><g id="CIRCLE-15"><path class="cls-1" d="M319.21,131.62c0-1.94-1.57-3.5-3.5-3.5s-3.5,1.57-3.5,3.5,1.57,3.5,3.5,3.5,3.5-1.57,3.5-3.5Z"/></g><g id="ARC-33"><path class="cls-1" d="M130.05,191.56c0-.35-.29-.64-.64-.64"/></g><g id="ARC-34"><path class="cls-1" d="M129.41,197.74c.35,0,.64-.29.64-.64"/></g><g id="ARC-35"><path class="cls-1" d="M122.37,197.1c0,.35.29.64.64.64"/></g><g id="ARC-36"><path class="cls-1" d="M97.63,69.09c-.35,0-.64.29-.64.64"/></g><g id="ARC-37"><path class="cls-1" d="M104.67,69.73c0-.35-.29-.64-.64-.64"/></g><g id="ARC-38"><path class="cls-1" d="M104.03,75.92c.35,0,.64-.29.64-.64"/></g><g id="ARC-39"><path class="cls-1" d="M96.99,75.28c0,.35.29.64.64.64"/></g><g id="ARC-40"><path class="cls-1" d="M97.63,28.49c-.35,0-.64.29-.64.64"/></g><g id="ARC-41"><path class="cls-1" d="M104.67,29.13c0-.35-.29-.64-.64-.64"/></g><g id="ARC-42"><path class="cls-1" d="M104.03,35.31c.35,0,.64-.29.64-.64"/></g><g id="ARC-43"><path class="cls-1" d="M96.99,34.67c0,.35.29.64.64.64"/></g><g id="ARC-44"><path class="cls-1" d="M92.56,150.31c-.35,0-.64.29-.64.64"/></g><g id="ARC-45"><path class="cls-1" d="M99.59,150.95c0-.35-.29-.64-.64-.64"/></g><g id="ARC-46"><path class="cls-1" d="M98.95,157.13c.35,0,.64-.29.64-.64"/></g><g id="ARC-47"><path class="cls-1" d="M91.92,156.49c0,.35.29.64.64.64"/></g><g id="ARC-48"><path class="cls-1" d="M92.56,109.7c-.35,0-.64.29-.64.64"/></g><g id="ARC-49"><path class="cls-1" d="M157.91,155.32c0,.35.29.64.64.64"/></g><g id="ARC-50"><path class="cls-1" d="M148.39,109.7c-.35,0-.64.29-.64.64"/></g><g id="ARC-51"><path class="cls-1" d="M155.43,110.34c0-.35-.29-.64-.64-.64"/></g><g id="ARC-52"><path class="cls-1" d="M154.79,116.52c.35,0,.64-.29.64-.64"/></g><g id="ARC-53"><path class="cls-1" d="M147.75,115.88c0,.35.29.64.64.64"/></g><g id="ARC-54"><path class="cls-1" d="M148.39,69.09c-.35,0-.64.29-.64.64"/></g><g id="ARC-55"><path class="cls-1" d="M155.43,69.73c0-.35-.29-.64-.64-.64"/></g><g id="ARC-56"><path class="cls-1" d="M154.79,75.92c.35,0,.64-.29.64-.64"/></g><g id="ARC-57"><path class="cls-1" d="M147.75,75.28c0,.35.29.64.64.64"/></g><g id="CIRCLE-16"><path class="cls-1" d="M70.74,178.76c0-1.88-1.53-3.41-3.41-3.41s-3.41,1.53-3.41,3.41,1.53,3.41,3.41,3.41,3.41-1.53,3.41-3.41Z"/></g><g id="ARC-58"><path class="cls-1" d="M43.75,29.13c0-.35-.29-.64-.64-.64"/></g><g id="ARC-59"><path class="cls-1" d="M43.12,35.31c.35,0,.64-.29.64-.64"/></g><g id="ARC-60"><path class="cls-1" d="M36.08,34.67c0,.35.29.64.64.64"/></g><g id="ARC-61"><path class="cls-1" d="M36.72,28.49c-.35,0-.64.29-.64.64"/></g><g id="ARC-62"><path class="cls-1" d="M26.57,69.09c-.35,0-.64.29-.64.64"/></g><g id="ARC-63"><path class="cls-1" d="M33.6,69.73c0-.35-.29-.64-.64-.64"/></g><g id="ARC-64"><path class="cls-1" d="M32.96,75.92c.35,0,.64-.29.64-.64"/></g><g id="ARC-65"><path class="cls-1" d="M599.25,203c-2.6-5.93-9.51-8.63-15.44-6.03-3.31,1.45-5.77,4.35-6.66,7.85"/></g><g id="ARC-66"><path class="cls-1" d="M599.25,203c.68,1.55,2.21,2.55,3.9,2.55"/></g><g id="ARC-67"><path class="cls-1" d="M731.43,205.55c1.69,0,3.23-1,3.9-2.55"/></g><g id="ARC-68"><path class="cls-1" d="M746.07,195.98c-4.66,0-8.87,2.75-10.74,7.02"/></g><g id="ARC-69"><path class="cls-1" d="M758.41,195.98c2.35,0,4.26-1.91,4.26-4.26"/></g><g id="ARC-70"><path class="cls-1" d="M762.67,89.05c0-2.35-1.91-4.26-4.26-4.26"/></g><g id="ARC-71"><path class="cls-1" d="M757.29,61.34c-6.48,0-11.72,5.25-11.72,11.72s5.25,11.72,11.72,11.72"/></g><g id="ARC-72"><path class="cls-1" d="M758.41,61.34c2.35,0,4.26-1.91,4.26-4.26"/></g><g id="ARC-73"><path class="cls-1" d="M762.67,26.49c0-2.35-1.91-4.26-4.26-4.26"/></g><g id="ARC-74"><path class="cls-1" d="M734.73,12.63c0,5.3,4.29,9.59,9.59,9.59"/></g><g id="ARC-75"><path class="cls-1" d="M427.6,182.56c-.35.07-.57.41-.49.76"/></g><g id="ARC-76"><path class="cls-1" d="M434.61,181.73c-.07-.35-.41-.57-.76-.49"/></g><g id="ARC-77"><path class="cls-1" d="M435.27,187.91c.35-.07.57-.41.49-.76"/></g><g id="ARC-78"><path class="cls-1" d="M428.26,188.74c.07.35.41.57.76.49"/></g><g id="ARC-79"><path class="cls-1" d="M438.02,138.83c-.35.07-.57.41-.49.76"/></g><g id="ARC-80"><path class="cls-1" d="M445.03,137.99c-.07-.35-.41-.57-.76-.49"/></g><g id="ARC-81"><path class="cls-1" d="M445.69,144.17c.35-.07.57-.41.49-.76"/></g><g id="ARC-82"><path class="cls-1" d="M229.82,126.58c-.07.35.15.69.49.76"/></g><g id="ARC-83"><path class="cls-1" d="M231.73,120.67c-.35-.07-.69.15-.76.49"/></g><g id="ARC-84"><path class="cls-1" d="M238.48,122.75c.07-.35-.15-.69-.49-.76"/></g><g id="ARC-85"><path class="cls-1" d="M236.57,128.67c.35.07.69-.15.76-.49"/></g><g id="ARC-86"><path class="cls-1" d="M229.33,84.96c-.07.35.15.69.49.76"/></g><g id="ARC-87"><path class="cls-1" d="M231.24,79.05c-.35-.07-.69.15-.76.49"/></g><g id="ARC-88"><path class="cls-1" d="M237.98,81.13c.07-.35-.15-.69-.49-.76"/></g><g id="ARC-89"><path class="cls-1" d="M236.07,87.05c.35.07.69-.15.76-.49"/></g><g id="ARC-90"><path class="cls-1" d="M218.9,41.23c-.07.35.15.68.49.76"/></g><g id="ARC-91"><path class="cls-1" d="M220.81,35.31c-.35-.07-.69.15-.76.49"/></g><g id="ARC-92"><path class="cls-1" d="M227.56,37.4c.07-.35-.15-.69-.49-.76"/></g><g id="ARC-93"><path class="cls-1" d="M225.65,43.32c.35.07.69-.15.76-.49"/></g><g id="ARC-94"><path class="cls-1" d="M199.53,161.66c-.07.35.15.69.49.76"/></g><g id="ARC-95"><path class="cls-1" d="M201.44,155.74c-.35-.07-.68.15-.76.49"/></g><g id="ARC-96"><path class="cls-1" d="M208.19,157.83c.07-.35-.15-.69-.49-.76"/></g><g id="ARC-97"><path class="cls-1" d="M206.28,163.75c.35.07.69-.15.76-.49"/></g><g id="CIRCLE-17"><circle class="cls-1" cx="30.44" cy="102.96" r="1.12"/></g><g id="CIRCLE-18"><path class="cls-1" d="M31.56,143.57c0-.62-.5-1.12-1.12-1.12s-1.12.5-1.12,1.12.5,1.12,1.12,1.12,1.12-.5,1.12-1.12Z"/></g><g id="CIRCLE-19"><path class="cls-1" d="M33.27,62.35c0-1.94-1.57-3.5-3.5-3.5s-3.5,1.57-3.5,3.5,1.57,3.5,3.5,3.5,3.5-1.57,3.5-3.5Z"/></g><g id="CIRCLE-20"><path class="cls-1" d="M30.21,21.74c0-.62-.5-1.12-1.12-1.12s-1.12.5-1.12,1.12.5,1.12,1.12,1.12,1.12-.5,1.12-1.12Z"/></g><g id="ARC-98"><path class="cls-1" d="M305.29,225.65c-.07.35.15.69.49.76"/></g><g id="ARC-99"><path class="cls-1" d="M307.2,219.74c-.35-.07-.69.15-.76.49"/></g><g id="ARC-100"><path class="cls-1" d="M313.94,221.83c.07-.35-.15-.68-.49-.76"/></g><g id="ARC-101"><path class="cls-1" d="M312.03,227.74c.35.07.69-.15.76-.49"/></g><g id="ARC-102"><path class="cls-1" d="M308.77,101.85c-.07.35.15.68.49.76"/></g><g id="ARC-103"><path class="cls-1" d="M310.68,95.93c-.35-.07-.69.15-.76.49"/></g><g id="ARC-104"><path class="cls-1" d="M317.43,98.02c.07-.35-.15-.69-.49-.76"/></g><g id="ARC-105"><path class="cls-1" d="M315.52,103.93c.35.07.69-.15.76-.49"/></g><g id="ARC-106"><path class="cls-1" d="M309.26,143.47c-.07.35.15.69.49.76"/></g><g id="ARC-107"><path class="cls-1" d="M311.17,137.55c-.35-.07-.69.15-.76.49"/></g><g id="ARC-108"><path class="cls-1" d="M317.92,139.64c.07-.35-.15-.68-.49-.76"/></g><g id="ARC-109"><path class="cls-1" d="M316.01,145.55c.35.07.68-.15.76-.49"/></g><g id="ARC-110"><path class="cls-1" d="M115.37,122.25c-1.18,0-2.13.95-2.13,2.13"/></g><g id="ARC-111"><path class="cls-1" d="M129.86,124.38c0-1.18-.95-2.13-2.13-2.13"/></g><g id="ARC-112"><path class="cls-1" d="M127.73,169.15c1.18,0,2.13-.95,2.13-2.13"/></g><g id="ARC-113"><path class="cls-1" d="M113.23,167.02c0,1.18.95,2.13,2.13,2.13"/></g><g id="ARC-114"><path class="cls-1" d="M637.73,191.56c0-.35-.29-.64-.64-.64"/></g><g id="ARC-115"><path class="cls-1" d="M637.09,197.74c.35,0,.64-.29.64-.64"/></g><g id="ARC-116"><path class="cls-1" d="M630.06,197.1c0,.35.29.64.64.64"/></g><g id="ARC-117"><path class="cls-1" d="M600.24,109.7c-.35,0-.64.29-.64.64"/></g><g id="ARC-118"><path class="cls-1" d="M607.27,110.34c0-.35-.29-.64-.64-.64"/></g><g id="ARC-119"><path class="cls-1" d="M606.63,116.52c.35,0,.64-.29.64-.64"/></g><g id="ARC-120"><path class="cls-1" d="M599.6,115.89c0,.35.29.64.64.64"/></g><g id="ARC-121"><path class="cls-1" d="M727.14,150.31c-.35,0-.64.29-.64.64"/></g><g id="ARC-122"><path class="cls-1" d="M734.17,150.95c0-.35-.29-.64-.64-.64"/></g><g id="ARC-123"><path class="cls-1" d="M733.53,157.13c.35,0,.64-.29.64-.64"/></g><g id="ARC-124"><path class="cls-1" d="M726.5,156.49c0,.35.29.64.64.64"/></g><g id="ARC-125"><path class="cls-1" d="M711.91,190.92c-.35,0-.64.29-.64.64"/></g><g id="ARC-126"><path class="cls-1" d="M718.95,191.56c0-.35-.29-.64-.64-.64"/></g><g id="ARC-127"><path class="cls-1" d="M718.31,197.74c.35,0,.64-.29.64-.64"/></g><g id="ARC-128"><path class="cls-1" d="M711.27,197.1c0,.35.29.64.64.64"/></g><g id="ARC-129"><path class="cls-1" d="M691.61,28.49c-.35,0-.64.29-.64.64"/></g><g id="ARC-130"><path class="cls-1" d="M55.53,165.9c0-1.18-.95-2.13-2.13-2.13"/></g><g id="ARC-131"><path class="cls-1" d="M53.4,194.57c1.18,0,2.13-.95,2.13-2.13"/></g><g id="ARC-132"><path class="cls-1" d="M17.78,190.31c0,2.35,1.91,4.26,4.26,4.26"/></g><g id="ARC-133"><path class="cls-1" d="M19.91,163.77c-1.18,0-2.13.95-2.13,2.13"/></g><g id="ARC-134"><path class="cls-1" d="M338.06,66.56c-.07.35.15.68.49.76"/></g><g id="ARC-135"><path class="cls-1" d="M339.97,60.64c-.35-.07-.69.15-.76.49"/></g><g id="ARC-136"><path class="cls-1" d="M346.72,62.73c.07-.35-.15-.69-.49-.76"/></g><g id="ARC-137"><path class="cls-1" d="M344.81,68.65c.35.07.69-.15.76-.49"/></g><g id="ARC-138"><path class="cls-1" d="M318.69,186.99c-.07.35.15.69.49.76"/></g><g id="ARC-139"><path class="cls-1" d="M320.6,181.07c-.35-.07-.68.15-.76.49"/></g><g id="ARC-140"><path class="cls-1" d="M327.35,183.16c.07-.35-.15-.69-.49-.76"/></g><g id="ARC-141"><path class="cls-1" d="M325.44,189.07c.35.07.68-.15.76-.49"/></g><g id="ARC-142"><path class="cls-1" d="M298.34,58.11c-.07.35.15.68.49.76"/></g><g id="ARC-143"><path class="cls-1" d="M300.25,52.2c-.35-.07-.68.15-.76.49"/></g><g id="ARC-144"><path class="cls-1" d="M307,54.29c.07-.35-.15-.68-.49-.76"/></g><g id="ARC-145"><path class="cls-1" d="M305.09,60.2c.35.07.69-.15.76-.49"/></g><g id="ARC-146"><path class="cls-1" d="M78.28,124.38c0-1.18-.95-2.13-2.13-2.13"/></g><g id="ARC-147"><path class="cls-1" d="M76.14,169.15c1.18,0,2.13-.95,2.13-2.13"/></g><g id="ARC-148"><path class="cls-1" d="M61.65,167.02c0,1.18.95,2.13,2.13,2.13"/></g><g id="ARC-149"><path class="cls-1" d="M63.78,122.25c-1.18,0-2.13.95-2.13,2.13"/></g><g id="CIRCLE-21"><path class="cls-1" d="M153.39,21.74c0-.62-.5-1.12-1.12-1.12s-1.12.5-1.12,1.12.5,1.12,1.12,1.12,1.12-.5,1.12-1.12Z"/></g><g id="CIRCLE-22"><path class="cls-1" d="M165.25,143.57c0-1.94-1.57-3.5-3.5-3.5s-3.5,1.57-3.5,3.5,1.57,3.5,3.5,3.5,3.5-1.57,3.5-3.5Z"/></g><g id="CIRCLE-23"><circle class="cls-1" cx="162.42" cy="62.35" r="1.12"/></g><g id="CIRCLE-24"><circle class="cls-1" cx="162.42" cy="102.96" r="1.12"/></g><g id="CIRCLE-25"><path class="cls-1" d="M144.94,21.74c0-1.94-1.57-3.5-3.5-3.5s-3.5,1.57-3.5,3.5,1.57,3.5,3.5,3.5,3.5-1.57,3.5-3.5Z"/></g><g id="CIRCLE-26"><path class="cls-1" d="M152.03,143.57c0-.62-.5-1.12-1.12-1.12s-1.12.5-1.12,1.12.5,1.12,1.12,1.12,1.12-.5,1.12-1.12Z"/></g><g id="CIRCLE-27"><path class="cls-1" d="M155.09,62.35c0-1.94-1.57-3.5-3.5-3.5s-3.5,1.57-3.5,3.5,1.57,3.5,3.5,3.5,3.5-1.57,3.5-3.5Z"/></g><g id="CIRCLE-28"><path class="cls-1" d="M155.09,102.96c0-1.94-1.57-3.5-3.5-3.5s-3.5,1.57-3.5,3.5,1.57,3.5,3.5,3.5,3.5-1.57,3.5-3.5Z"/></g><g id="CIRCLE-29"><path class="cls-1" d="M187.07,104.04c0-.62-.5-1.12-1.12-1.12s-1.12.5-1.12,1.12.5,1.12,1.12,1.12,1.12-.5,1.12-1.12Z"/></g><g id="CIRCLE-30"><path class="cls-1" d="M193.99,20.73c0-.62-.5-1.12-1.12-1.12s-1.12.5-1.12,1.12.5,1.12,1.12,1.12,1.12-.5,1.12-1.12Z"/></g><g id="CIRCLE-31"><circle class="cls-1" cx="195.38" cy="147.56" r="1.12"/></g><g id="CIRCLE-32"><path class="cls-1" d="M199.55,64.67c0-1.94-1.57-3.5-3.5-3.5s-3.5,1.57-3.5,3.5,1.57,3.5,3.5,3.5,3.5-1.57,3.5-3.5Z"/></g><g id="CIRCLE-33"><path class="cls-1" d="M186.57,62.42c0-.62-.5-1.12-1.12-1.12s-1.12.5-1.12,1.12.5,1.12,1.12,1.12,1.12-.5,1.12-1.12Z"/></g><g id="CIRCLE-34"><path class="cls-1" d="M185.55,20.73c0-1.94-1.57-3.5-3.5-3.5s-3.5,1.57-3.5,3.5,1.57,3.5,3.5,3.5,3.5-1.57,3.5-3.5Z"/></g><g id="CIRCLE-35"><path class="cls-1" d="M173.69,143.57c0-.62-.5-1.12-1.12-1.12s-1.12.5-1.12,1.12.5,1.12,1.12,1.12,1.12-.5,1.12-1.12Z"/></g><g id="CIRCLE-36"><path class="cls-1" d="M172.34,20.73c0-.62-.5-1.12-1.12-1.12s-1.12.5-1.12,1.12.5,1.12,1.12,1.12,1.12-.5,1.12-1.12Z"/></g><g id="CIRCLE-37"><path class="cls-1" d="M239.27,73.12c0-1.94-1.57-3.5-3.5-3.5s-3.5,1.57-3.5,3.5,1.57,3.5,3.5,3.5,3.5-1.57,3.5-3.5Z"/></g><g id="CIRCLE-38"><circle class="cls-1" cx="235.1" cy="156.01" r="1.12"/></g><g id="CIRCLE-39"><circle class="cls-1" cx="232.89" cy="19.92" r="2.66"/></g><g id="CIRCLE-40"><path class="cls-1" d="M226.79,112.49c0-.62-.5-1.12-1.12-1.12s-1.12.5-1.12,1.12.5,1.12,1.12,1.12,1.12-.5,1.12-1.12Z"/></g><g id="CIRCLE-41"><path class="cls-1" d="M237.05,31.64c0-.62-.5-1.12-1.12-1.12s-1.12.5-1.12,1.12.5,1.12,1.12,1.12,1.12-.5,1.12-1.12Z"/></g><g id="CIRCLE-42"><path class="cls-1" d="M239.76,114.74c0-1.94-1.57-3.5-3.5-3.5s-3.5,1.57-3.5,3.5,1.57,3.5,3.5,3.5,3.5-1.57,3.5-3.5Z"/></g><g id="CIRCLE-43"><path class="cls-1" d="M245.72,199.03c0-1.94-1.57-3.5-3.5-3.5s-3.5,1.57-3.5,3.5,1.57,3.5,3.5,3.5,3.5-1.57,3.5-3.5Z"/></g><g id="CIRCLE-44"><path class="cls-1" d="M249.2,158.26c0-1.94-1.57-3.5-3.5-3.5s-3.5,1.57-3.5,3.5,1.57,3.5,3.5,3.5,3.5-1.57,3.5-3.5Z"/></g><g id="ARC-150"><path class="cls-1" d="M545.09,81.53c.35-.07.57-.41.49-.76"/></g><g id="ARC-151"><path class="cls-1" d="M538.08,82.37c.07.35.41.57.76.49"/></g><g id="ARC-152"><path class="cls-1" d="M517.46,121.95c-.35.07-.57.41-.49.76"/></g><g id="ARC-153"><path class="cls-1" d="M524.48,121.11c-.07-.35-.41-.57-.76-.49"/></g><g id="ARC-154"><path class="cls-1" d="M525.14,127.29c.35-.07.57-.41.49-.76"/></g><g id="ARC-155"><path class="cls-1" d="M518.12,128.13c.07.35.41.57.76.49"/></g><g id="ARC-156"><path class="cls-1" d="M557.18,113.5c-.35.07-.57.41-.49.76"/></g><g id="ARC-157"><path class="cls-1" d="M564.2,112.67c-.07-.35-.41-.57-.76-.49"/></g><g id="ARC-158"><path class="cls-1" d="M564.86,118.85c.35-.07.57-.41.49-.76"/></g><g id="ARC-159"><path class="cls-1" d="M557.84,119.68c.07.35.41.57.76.49"/></g><g id="ARC-160"><path class="cls-1" d="M590.09,150.31c-.35,0-.64.29-.64.64"/></g><g id="ARC-161"><path class="cls-1" d="M597.12,150.95c0-.35-.29-.64-.64-.64"/></g><g id="ARC-162"><path class="cls-1" d="M596.48,157.13c.35,0,.64-.29.64-.64"/></g><g id="ARC-163"><path class="cls-1" d="M589.45,156.49c0,.35.29.64.64.64"/></g><g id="ARC-164"><path class="cls-1" d="M507.04,165.68c-.35.07-.57.41-.49.76"/></g><g id="ARC-165"><path class="cls-1" d="M514.05,164.84c-.07-.35-.41-.57-.76-.49"/></g><g id="ARC-166"><path class="cls-1" d="M25.93,75.28c0,.35.29.64.64.64"/></g><g id="ARC-167"><path class="cls-1" d="M16.42,109.7c-.35,0-.64.29-.64.64"/></g><g id="ARC-168"><path class="cls-1" d="M23.45,110.34c0-.35-.29-.64-.64-.64"/></g><g id="ARC-169"><path class="cls-1" d="M22.81,116.52c.35,0,.64-.29.64-.64"/></g><g id="ARC-170"><path class="cls-1" d="M15.78,115.88c0,.35.29.64.64.64"/></g><g id="ARC-171"><path class="cls-1" d="M16.42,150.31c-.35,0-.64.29-.64.64"/></g><g id="ARC-172"><path class="cls-1" d="M23.45,150.95c0-.35-.29-.64-.64-.64"/></g><g id="ARC-173"><path class="cls-1" d="M22.81,157.13c.35,0,.64-.29.64-.64"/></g><g id="ARC-174"><path class="cls-1" d="M15.78,156.49c0,.35.29.64.64.64"/></g><g id="CIRCLE-45"><circle class="cls-1" cx="231.62" cy="196.78" r="1.12"/></g><g id="CIRCLE-46"><path class="cls-1" d="M356.21,56.97c0-.62-.5-1.12-1.12-1.12s-1.12.5-1.12,1.12.5,1.12,1.12,1.12,1.12-.5,1.12-1.12Z"/></g><g id="CIRCLE-47"><path class="cls-1" d="M348.01,54.71c0-1.94-1.57-3.5-3.5-3.5s-3.5,1.57-3.5,3.5,1.57,3.5,3.5,3.5,3.5-1.57,3.5-3.5Z"/></g><g id="ARC-175"><path class="cls-1" d="M138.24,28.49c-.35,0-.64.29-.64.64"/></g><g id="ARC-176"><path class="cls-1" d="M145.28,29.13c0-.35-.29-.64-.64-.64"/></g><g id="ARC-177"><path class="cls-1" d="M144.64,35.31c.35,0,.64-.29.64-.64"/></g><g id="ARC-178"><path class="cls-1" d="M137.6,34.67c0,.35.29.64.64.64"/></g><g id="ARC-179"><path class="cls-1" d="M123.01,190.92c-.35,0-.64.29-.64.64"/></g><g id="ARC-180"><path class="cls-1" d="M195.38,163.4c-1.15-.24-2.28.49-2.53,1.64"/></g><g id="ARC-181"><path class="cls-1" d="M209.96,168.68c.24-1.15-.49-2.28-1.64-2.53"/></g><g id="ARC-182"><path class="cls-1" d="M209.9,168.95c-.24,1.15.49,2.28,1.64,2.53"/></g><g id="ARC-183"><path class="cls-1" d="M222.14,175.91c.24-1.15-.49-2.28-1.64-2.53"/></g><g id="ARC-184"><path class="cls-1" d="M271.84,227.18c1.15.24,2.28-.49,2.53-1.64"/></g><g id="ARC-185"><path class="cls-1" d="M285.77,182.14c-1.15-.24-2.28.49-2.53,1.64"/></g><g id="ARC-186"><path class="cls-1" d="M299.5,187.24c.24-1.15-.49-2.28-1.64-2.53"/></g><g id="ARC-187"><path class="cls-1" d="M290.63,228.99c-.24,1.15.49,2.28,1.64,2.53"/></g><g id="ARC-188"><path class="cls-1" d="M322.3,237.9c1.15.24,2.28-.49,2.53-1.64"/></g><g id="ARC-189"><path class="cls-1" d="M336.23,192.87c-1.15-.24-2.28.49-2.53,1.64"/></g><g id="ARC-190"><path class="cls-1" d="M349.96,197.97c.24-1.15-.49-2.28-1.64-2.53"/></g><g id="ARC-191"><path class="cls-1" d="M258.35,218.11c-.37,1.73.74,3.43,2.46,3.79"/></g><g id="ARC-192"><path class="cls-1" d="M268.35,186.46c-1.73-.37-3.43.74-3.79,2.46"/></g><g id="ARC-193"><path class="cls-1" d="M276.86,191.54c.37-1.73-.74-3.43-2.46-3.79"/></g><g id="ARC-194"><path class="cls-1" d="M266.86,223.19c1.73.37,3.43-.74,3.79-2.46"/></g><g id="CIRCLE-48"><path class="cls-1" d="M9.9,143.57c0-.62-.5-1.12-1.12-1.12s-1.12.5-1.12,1.12.5,1.12,1.12,1.12,1.12-.5,1.12-1.12Z"/></g><g id="CIRCLE-49"><path class="cls-1" d="M733.84,143.57c0-1.94-1.57-3.5-3.5-3.5s-3.5,1.57-3.5,3.5,1.57,3.5,3.5,3.5,3.5-1.57,3.5-3.5Z"/></g><g id="CIRCLE-50"><circle class="cls-1" cx="741.17" cy="143.57" r="1.12"/></g><g id="CIRCLE-51"><path class="cls-1" d="M713.54,102.96c0-1.94-1.57-3.5-3.5-3.5s-3.5,1.57-3.5,3.5,1.57,3.5,3.5,3.5,3.5-1.57,3.5-3.5Z"/></g><g id="CIRCLE-52"><path class="cls-1" d="M705.4,62.35c0-.62-.5-1.12-1.12-1.12s-1.12.5-1.12,1.12.5,1.12,1.12,1.12,1.12-.5,1.12-1.12Z"/></g><g id="CIRCLE-53"><path class="cls-1" d="M705.4,184.18c0-.62-.5-1.12-1.12-1.12s-1.12.5-1.12,1.12.5,1.12,1.12,1.12,1.12-.5,1.12-1.12Z"/></g><g id="CIRCLE-54"><circle class="cls-1" cx="699.2" cy="102.96" r="1.12"/></g><g id="CIRCLE-55"><path class="cls-1" d="M721.98,102.96c0-.62-.5-1.12-1.12-1.12s-1.12.5-1.12,1.12.5,1.12,1.12,1.12,1.12-.5,1.12-1.12Z"/></g><g id="CIRCLE-56"><path class="cls-1" d="M720.63,143.57c0-.62-.5-1.12-1.12-1.12s-1.12.5-1.12,1.12.5,1.12,1.12,1.12,1.12-.5,1.12-1.12Z"/></g><g id="CIRCLE-57"><path class="cls-1" d="M718.61,62.35c0-1.94-1.57-3.5-3.5-3.5s-3.5,1.57-3.5,3.5,1.57,3.5,3.5,3.5,3.5-1.57,3.5-3.5Z"/></g><g id="CIRCLE-58"><circle class="cls-1" cx="715.11" cy="184.18" r="3.5"/></g><g id="CIRCLE-59"><path class="cls-1" d="M586.64,62.35c0-1.94-1.57-3.5-3.5-3.5s-3.5,1.57-3.5,3.5,1.57,3.5,3.5,3.5,3.5-1.57,3.5-3.5Z"/></g><g id="CIRCLE-60"><path class="cls-1" d="M593.73,102.96c0-.62-.5-1.12-1.12-1.12s-1.12.5-1.12,1.12.5,1.12,1.12,1.12,1.12-.5,1.12-1.12Z"/></g><g id="CIRCLE-61"><path class="cls-1" d="M596.79,143.57c0-1.94-1.57-3.5-3.5-3.5s-3.5,1.57-3.5,3.5,1.57,3.5,3.5,3.5,3.5-1.57,3.5-3.5Z"/></g><g id="CIRCLE-62"><path class="cls-1" d="M595.08,62.35c0-.62-.5-1.12-1.12-1.12s-1.12.5-1.12,1.12.5,1.12,1.12,1.12,1.12-.5,1.12-1.12Z"/></g><g id="CIRCLE-63"><path class="cls-1" d="M583.57,143.57c0-.62-.5-1.12-1.12-1.12s-1.12.5-1.12,1.12.5,1.12,1.12,1.12,1.12-.5,1.12-1.12Z"/></g><g id="CIRCLE-64"><path class="cls-1" d="M573.42,62.35c0-.62-.5-1.12-1.12-1.12s-1.12.5-1.12,1.12.5,1.12,1.12,1.12,1.12-.5,1.12-1.12Z"/></g><g id="CIRCLE-65"><path class="cls-1" d="M570.62,103.99c0-.62-.5-1.12-1.12-1.12s-1.12.5-1.12,1.12.5,1.12,1.12,1.12,1.12-.5,1.12-1.12Z"/></g><g id="CIRCLE-66"><circle class="cls-1" cx="558.91" cy="106.24" r="3.5"/></g><g id="CIRCLE-67"><path class="cls-1" d="M606.94,102.96c0-1.94-1.57-3.5-3.5-3.5s-3.5,1.57-3.5,3.5,1.57,3.5,3.5,3.5,3.5-1.57,3.5-3.5Z"/></g><g id="CIRCLE-68"><path class="cls-1" d="M605.23,143.57c0-.62-.5-1.12-1.12-1.12s-1.12.5-1.12,1.12.5,1.12,1.12,1.12,1.12-.5,1.12-1.12Z"/></g><g id="CIRCLE-69"><path class="cls-1" d="M614.03,62.35c0-.62-.5-1.12-1.12-1.12s-1.12.5-1.12,1.12.5,1.12,1.12,1.12,1.12-.5,1.12-1.12Z"/></g><g id="CIRCLE-70"><circle class="cls-1" cx="614.26" cy="102.96" r="1.12"/></g><g id="CIRCLE-71"><path class="cls-1" d="M624.18,184.18c0-.62-.5-1.12-1.12-1.12s-1.12.5-1.12,1.12.5,1.12,1.12,1.12,1.12-.5,1.12-1.12Z"/></g><g id="CIRCLE-72"><path class="cls-1" d="M624.18,143.57c0-.62-.5-1.12-1.12-1.12s-1.12.5-1.12,1.12.5,1.12,1.12,1.12,1.12-.5,1.12-1.12Z"/></g><g id="CIRCLE-73"><path class="cls-1" d="M627.24,62.35c0-1.94-1.57-3.5-3.5-3.5s-3.5,1.57-3.5,3.5,1.57,3.5,3.5,3.5,3.5-1.57,3.5-3.5Z"/></g><g id="CIRCLE-74"><path class="cls-1" d="M634.33,102.96c0-.62-.5-1.12-1.12-1.12s-1.12.5-1.12,1.12.5,1.12,1.12,1.12,1.12-.5,1.12-1.12Z"/></g><g id="CIRCLE-75"><circle class="cls-1" cx="654.87" cy="102.96" r="1.12"/></g><g id="CIRCLE-76"><path class="cls-1" d="M654.64,62.35c0-.62-.5-1.12-1.12-1.12s-1.12.5-1.12,1.12.5,1.12,1.12,1.12,1.12-.5,1.12-1.12Z"/></g><g id="CIRCLE-77"><circle class="cls-1" cx="644.72" cy="143.57" r="1.12"/></g><g id="CIRCLE-78"><circle class="cls-1" cx="644.72" cy="184.18" r="1.12"/></g><g id="CIRCLE-79"><path class="cls-1" d="M647.55,102.96c0-1.94-1.57-3.5-3.5-3.5s-3.5,1.57-3.5,3.5,1.57,3.5,3.5,3.5,3.5-1.57,3.5-3.5Z"/></g><g id="CIRCLE-80"><path class="cls-1" d="M635.69,62.35c0-.62-.5-1.12-1.12-1.12s-1.12.5-1.12,1.12.5,1.12,1.12,1.12,1.12-.5,1.12-1.12Z"/></g><g id="CIRCLE-81"><path class="cls-1" d="M316.49,48.52c0-.62-.5-1.12-1.12-1.12s-1.12.5-1.12,1.12.5,1.12,1.12,1.12,1.12-.5,1.12-1.12Z"/></g><g id="CIRCLE-82"><path class="cls-1" d="M288.92,166.7c0-1.94-1.57-3.5-3.5-3.5s-3.5,1.57-3.5,3.5,1.57,3.5,3.5,3.5,3.5-1.57,3.5-3.5Z"/></g><g id="CIRCLE-83"><path class="cls-1" d="M287.2,83.81c0-.62-.5-1.12-1.12-1.12s-1.12.5-1.12,1.12.5,1.12,1.12,1.12,1.12-.5,1.12-1.12Z"/></g><g id="CIRCLE-84"><circle class="cls-1" cx="286.57" cy="125.43" r="1.12"/></g><g id="CIRCLE-85"><path class="cls-1" d="M295.31,44.02c0-.62-.5-1.12-1.12-1.12s-1.12.5-1.12,1.12.5,1.12,1.12,1.12,1.12-.5,1.12-1.12Z"/></g><g id="CIRCLE-86"><path class="cls-1" d="M275.94,164.45c0-.62-.5-1.12-1.12-1.12s-1.12.5-1.12,1.12.5,1.12,1.12,1.12,1.12-.5,1.12-1.12Z"/></g><g id="CIRCLE-87"><path class="cls-1" d="M278.99,81.56c0-1.94-1.57-3.5-3.5-3.5s-3.5,1.57-3.5,3.5,1.57,3.5,3.5,3.5,3.5-1.57,3.5-3.5Z"/></g><g id="CIRCLE-88"><path class="cls-1" d="M276.77,40.08c0-.62-.5-1.12-1.12-1.12s-1.12.5-1.12,1.12.5,1.12,1.12,1.12,1.12-.5,1.12-1.12Z"/></g><g id="CIRCLE-89"><path class="cls-1" d="M279.49,123.18c0-1.94-1.57-3.5-3.5-3.5s-3.5,1.57-3.5,3.5,1.57,3.5,3.5,3.5,3.5-1.57,3.5-3.5Z"/></g><g id="CIRCLE-90"><path class="cls-1" d="M247.48,75.37c0-.62-.5-1.12-1.12-1.12s-1.12.5-1.12,1.12.5,1.12,1.12,1.12,1.12-.5,1.12-1.12Z"/></g><g id="CIRCLE-91"><path class="cls-1" d="M247.97,116.99c0-.62-.5-1.12-1.12-1.12s-1.12.5-1.12,1.12.5,1.12,1.12,1.12,1.12-.5,1.12-1.12Z"/></g><g id="CIRCLE-92"><path class="cls-1" d="M253.92,201.29c0-.62-.5-1.12-1.12-1.12s-1.12.5-1.12,1.12.5,1.12,1.12,1.12,1.12-.5,1.12-1.12Z"/></g><g id="CIRCLE-93"><path class="cls-1" d="M255.59,35.58c0-.62-.5-1.12-1.12-1.12s-1.12.5-1.12,1.12.5,1.12,1.12,1.12,1.12-.5,1.12-1.12Z"/></g><g id="CIRCLE-94"><path class="cls-1" d="M266.51,120.93c0-.62-.5-1.12-1.12-1.12s-1.12.5-1.12,1.12.5,1.12,1.12,1.12,1.12-.5,1.12-1.12Z"/></g><g id="CIRCLE-95"><path class="cls-1" d="M268.57,37.83c0-1.94-1.57-3.5-3.5-3.5s-3.5,1.57-3.5,3.5,1.57,3.5,3.5,3.5,3.5-1.57,3.5-3.5Z"/></g><g id="CIRCLE-96"><path class="cls-1" d="M266.01,79.31c0-.62-.5-1.12-1.12-1.12s-1.12.5-1.12,1.12.5,1.12,1.12,1.12,1.12-.5,1.12-1.12Z"/></g><g id="CIRCLE-97"><circle class="cls-1" cx="256.28" cy="160.51" r="1.12"/></g><g id="ARC-195"><path class="cls-1" d="M278.97,178.54c-.07.35.15.69.49.76"/></g><g id="ARC-196"><path class="cls-1" d="M280.88,172.63c-.35-.07-.69.15-.76.49"/></g><g id="ARC-197"><path class="cls-1" d="M287.63,174.72c.07-.35-.15-.69-.49-.76"/></g><g id="ARC-198"><path class="cls-1" d="M285.72,180.63c.35.07.68-.15.76-.49"/></g><g id="ARC-199"><path class="cls-1" d="M269.54,135.02c-.07.35.15.69.49.76"/></g><g id="ARC-200"><path class="cls-1" d="M271.45,129.11c-.35-.07-.69.15-.76.49"/></g><g id="ARC-201"><path class="cls-1" d="M278.2,131.2c.07-.35-.15-.69-.49-.76"/></g><g id="ARC-202"><path class="cls-1" d="M276.29,137.11c.35.07.69-.15.76-.49"/></g><g id="ARC-203"><path class="cls-1" d="M596.48,34.29c.35,0,.64-.29.64-.64"/></g><g id="ARC-204"><path class="cls-1" d="M589.45,33.65c0,.35.29.64.64.64"/></g><g id="ARC-205"><path class="cls-1" d="M620.54,69.09c-.35,0-.64.29-.64.64"/></g><g id="ARC-206"><path class="cls-1" d="M627.58,69.73c0-.35-.29-.64-.64-.64"/></g><g id="ARC-207"><path class="cls-1" d="M626.94,75.92c.35,0,.64-.29.64-.64"/></g><g id="ARC-208"><path class="cls-1" d="M619.9,75.28c0,.35.29.64.64.64"/></g><g id="ARC-209"><path class="cls-1" d="M630.69,150.31c-.35,0-.64.29-.64.64"/></g><g id="ARC-210"><path class="cls-1" d="M637.73,150.95c0-.35-.29-.64-.64-.64"/></g><g id="ARC-211"><path class="cls-1" d="M637.09,157.13c.35,0,.64-.29.64-.64"/></g><g id="ARC-212"><path class="cls-1" d="M630.06,156.49c0,.35.29.64.64.64"/></g><g id="ARC-213"><path class="cls-1" d="M640.85,109.7c-.35,0-.64.29-.64.64"/></g><g id="ARC-214"><path class="cls-1" d="M647.88,110.34c0-.35-.29-.64-.64-.64"/></g><g id="ARC-215"><path class="cls-1" d="M647.24,116.52c.35,0,.64-.29.64-.64"/></g><g id="ARC-216"><path class="cls-1" d="M640.21,115.89c0,.35.29.64.64.64"/></g><g id="ARC-217"><path class="cls-1" d="M678.06,77.38c-1.18,0-2.13.95-2.13,2.13"/></g><g id="ARC-218"><path class="cls-1" d="M692.55,79.51c0-1.18-.95-2.13-2.13-2.13"/></g><g id="ARC-219"><path class="cls-1" d="M690.42,124.28c1.18,0,2.13-.95,2.13-2.13"/></g><g id="ARC-220"><path class="cls-1" d="M190.1,118.14c-.07.35.15.69.49.76"/></g><g id="ARC-221"><path class="cls-1" d="M192.01,112.22c-.35-.07-.69.15-.76.49"/></g><g id="ARC-222"><path class="cls-1" d="M198.76,114.31c.07-.35-.15-.69-.49-.76"/></g><g id="ARC-223"><path class="cls-1" d="M196.85,120.23c.35.07.68-.15.76-.49"/></g><g id="ARC-224"><path class="cls-1" d="M189.6,76.52c-.07.35.15.69.49.76"/></g><g id="ARC-225"><path class="cls-1" d="M191.52,70.6c-.35-.07-.69.15-.76.49"/></g><g id="ARC-226"><path class="cls-1" d="M198.26,72.69c.07-.35-.15-.69-.49-.76"/></g><g id="ARC-227"><path class="cls-1" d="M196.35,78.6c.35.07.69-.15.76-.49"/></g><g id="ARC-228"><path class="cls-1" d="M178.85,27.47c-.35,0-.64.29-.64.64"/></g><g id="ARC-229"><path class="cls-1" d="M185.88,28.11c0-.35-.29-.64-.64-.64"/></g><g id="ARC-230"><path class="cls-1" d="M185.24,34.29c.35,0,.64-.29.64-.64"/></g><g id="ARC-231"><path class="cls-1" d="M178.21,33.65c0,.35.29.64.64.64"/></g><g id="ARC-232"><path class="cls-1" d="M158.55,149.14c-.35,0-.64.29-.64.64"/></g><g id="ARC-233"><path class="cls-1" d="M165.58,149.78c0-.35-.29-.64-.64-.64"/></g><g id="ARC-234"><path class="cls-1" d="M164.94,155.96c.35,0,.64-.29.64-.64"/></g><g id="ARC-235"><path class="cls-1" d="M435.76,63.26c.35-.07.57-.41.49-.76"/></g><g id="ARC-236"><path class="cls-1" d="M428.75,64.09c.07.35.41.57.76.49"/></g><g id="ARC-237"><path class="cls-1" d="M418.26,101.52c-.35.07-.57.41-.49.76"/></g><g id="ARC-238"><path class="cls-1" d="M425.27,100.68c-.07-.35-.41-.57-.76-.49"/></g><g id="ARC-239"><path class="cls-1" d="M425.93,106.86c.35-.07.57-.41.49-.76"/></g><g id="ARC-240"><path class="cls-1" d="M418.92,107.7c.07.35.41.57.76.49"/></g><g id="ARC-241"><path class="cls-1" d="M661.15,69.09c-.35,0-.64.29-.64.64"/></g><g id="ARC-242"><path class="cls-1" d="M668.19,69.73c0-.35-.29-.64-.64-.64"/></g><g id="ARC-243"><path class="cls-1" d="M667.55,75.92c.35,0,.64-.29.64-.64"/></g><g id="ARC-244"><path class="cls-1" d="M660.51,75.28c0,.35.29.64.64.64"/></g><g id="ARC-245"><path class="cls-1" d="M630.69,28.49c-.35,0-.64.29-.64.64"/></g><g id="ARC-246"><path class="cls-1" d="M637.73,29.13c0-.35-.29-.64-.64-.64"/></g><g id="ARC-247"><path class="cls-1" d="M637.09,35.31c.35,0,.64-.29.64-.64"/></g><g id="ARC-248"><path class="cls-1" d="M630.06,34.67c0,.35.29.64.64.64"/></g><g id="ARC-249"><path class="cls-1" d="M630.69,190.92c-.35,0-.64.29-.64.64"/></g><g id="ARC-250"><path class="cls-1" d="M508.19,47.21c.07.35.41.57.76.49"/></g><g id="ARC-251"><path class="cls-1" d="M579.93,69.09c-.35,0-.64.29-.64.64"/></g><g id="ARC-252"><path class="cls-1" d="M586.97,69.73c0-.35-.29-.64-.64-.64"/></g><g id="ARC-253"><path class="cls-1" d="M586.33,75.92c.35,0,.64-.29.64-.64"/></g><g id="ARC-254"><path class="cls-1" d="M579.29,75.28c0,.35.29.64.64.64"/></g><g id="ARC-255"><path class="cls-1" d="M547.25,32.58c-.35.07-.57.41-.49.76"/></g><g id="ARC-256"><path class="cls-1" d="M554.26,31.75c-.07-.35-.41-.57-.76-.49"/></g><g id="ARC-257"><path class="cls-1" d="M554.92,37.93c.35-.07.57-.41.49-.76"/></g><g id="ARC-258"><path class="cls-1" d="M547.91,38.76c.07.35.41.57.76.49"/></g><g id="ARC-259"><path class="cls-1" d="M530.38,202.23c-.35.07-.57.41-.49.76"/></g><g id="ARC-260"><path class="cls-1" d="M537.39,201.39c-.07-.35-.41-.57-.76-.49"/></g><g id="ARC-261"><path class="cls-1" d="M538.05,207.57c.35-.07.57-.41.49-.76"/></g><g id="ARC-262"><path class="cls-1" d="M531.04,208.41c.07.35.41.57.76.49"/></g><g id="ARC-263"><path class="cls-1" d="M546.76,157.23c-.35.07-.57.41-.49.76"/></g><g id="ARC-264"><path class="cls-1" d="M553.77,156.4c-.07-.35-.41-.57-.76-.49"/></g><g id="ARC-265"><path class="cls-1" d="M554.43,162.58c.35-.07.57-.41.49-.76"/></g><g id="ARC-266"><path class="cls-1" d="M597.12,28.11c0-.35-.29-.64-.64-.64"/></g><g id="ARC-267"><path class="cls-1" d="M537.42,76.19c-.35.07-.57.41-.49.76"/></g><g id="ARC-268"><path class="cls-1" d="M544.43,75.35c-.07-.35-.41-.57-.76-.49"/></g><g id="CIRCLE-98"><path class="cls-1" d="M480.75,164.61c0-.62-.5-1.12-1.12-1.12s-1.12.5-1.12,1.12.5,1.12,1.12,1.12,1.12-.5,1.12-1.12Z"/></g><g id="CIRCLE-99"><path class="cls-1" d="M489.95,79.62c0-.62-.5-1.12-1.12-1.12s-1.12.5-1.12,1.12.5,1.12,1.12,1.12,1.12-.5,1.12-1.12Z"/></g><g id="CIRCLE-100"><path class="cls-1" d="M491.18,120.88c0-.62-.5-1.12-1.12-1.12s-1.12.5-1.12,1.12.5,1.12,1.12,1.12,1.12-.5,1.12-1.12Z"/></g><g id="CIRCLE-101"><path class="cls-1" d="M552.48,25.33c0-1.94-1.57-3.5-3.5-3.5s-3.5,1.57-3.5,3.5,1.57,3.5,3.5,3.5,3.5-1.57,3.5-3.5Z"/></g><g id="CIRCLE-102"><path class="cls-1" d="M539.5,27.58c0-.62-.5-1.12-1.12-1.12s-1.12.5-1.12,1.12.5,1.12,1.12,1.12,1.12-.5,1.12-1.12Z"/></g><g id="CIRCLE-103"><path class="cls-1" d="M520.96,31.52c0-.62-.5-1.12-1.12-1.12s-1.12.5-1.12,1.12.5,1.12,1.12,1.12,1.12-.5,1.12-1.12Z"/></g><g id="CIRCLE-104"><path class="cls-1" d="M512.76,33.77c0-1.94-1.57-3.5-3.5-3.5s-3.5,1.57-3.5,3.5,1.57,3.5,3.5,3.5,3.5-1.57,3.5-3.5Z"/></g><g id="CIRCLE-105"><path class="cls-1" d="M499.78,36.02c0-.62-.5-1.12-1.12-1.12s-1.12.5-1.12,1.12.5,1.12,1.12,1.12,1.12-.5,1.12-1.12Z"/></g><g id="CIRCLE-106"><path class="cls-1" d="M481.24,39.96c0-.62-.5-1.12-1.12-1.12s-1.12.5-1.12,1.12.5,1.12,1.12,1.12,1.12-.5,1.12-1.12Z"/></g><g id="CIRCLE-107"><circle class="cls-1" cx="469.53" cy="42.21" r="3.5"/></g><g id="CIRCLE-108"><path class="cls-1" d="M460.06,44.46c0-.62-.5-1.12-1.12-1.12s-1.12.5-1.12,1.12.5,1.12,1.12,1.12,1.12-.5,1.12-1.12Z"/></g><g id="CIRCLE-109"><path class="cls-1" d="M441.52,48.4c0-.62-.5-1.12-1.12-1.12s-1.12.5-1.12,1.12.5,1.12,1.12,1.12,1.12-.5,1.12-1.12Z"/></g><g id="CIRCLE-110"><path class="cls-1" d="M433.32,50.65c0-1.94-1.57-3.5-3.5-3.5s-3.5,1.57-3.5,3.5,1.57,3.5,3.5,3.5,3.5-1.57,3.5-3.5Z"/></g><g id="CIRCLE-111"><circle class="cls-1" cx="419.22" cy="52.91" r="1.12"/></g><g id="CIRCLE-112"><path class="cls-1" d="M698.31,21.75c0-1.94-1.57-3.5-3.5-3.5s-3.5,1.57-3.5,3.5,1.57,3.5,3.5,3.5,3.5-1.57,3.5-3.5Z"/></g><g id="CIRCLE-113"><path class="cls-1" d="M706.75,21.75c0-.62-.5-1.12-1.12-1.12s-1.12.5-1.12,1.12.5,1.12,1.12,1.12,1.12-.5,1.12-1.12Z"/></g><g id="CIRCLE-114"><path class="cls-1" d="M410.51,96.51c0-.62-.5-1.12-1.12-1.12s-1.12.5-1.12,1.12.5,1.12,1.12,1.12,1.12-.5,1.12-1.12Z"/></g><g id="CIRCLE-115"><path class="cls-1" d="M419.85,177.56c0-.62-.5-1.12-1.12-1.12s-1.12.5-1.12,1.12.5,1.12,1.12,1.12,1.12-.5,1.12-1.12Z"/></g><g id="CIRCLE-116"><path class="cls-1" d="M431.69,92.01c0-.62-.5-1.12-1.12-1.12s-1.12.5-1.12,1.12.5,1.12,1.12,1.12,1.12-.5,1.12-1.12Z"/></g><g id="CIRCLE-117"><path class="cls-1" d="M432.83,175.3c0-1.94-1.57-3.5-3.5-3.5s-3.5,1.57-3.5,3.5,1.57,3.5,3.5,3.5,3.5-1.57,3.5-3.5Z"/></g><g id="CIRCLE-118"><path class="cls-1" d="M430.27,133.82c0-.62-.5-1.12-1.12-1.12s-1.12.5-1.12,1.12.5,1.12,1.12,1.12,1.12-.5,1.12-1.12Z"/></g><g id="CIRCLE-119"><path class="cls-1" d="M423.49,94.26c0-1.94-1.57-3.5-3.5-3.5s-3.5,1.57-3.5,3.5,1.57,3.5,3.5,3.5,3.5-1.57,3.5-3.5Z"/></g><g id="CIRCLE-120"><path class="cls-1" d="M685.09,21.75c0-.62-.5-1.12-1.12-1.12s-1.12.5-1.12,1.12.5,1.12,1.12,1.12,1.12-.5,1.12-1.12Z"/></g><g id="CIRCLE-121"><path class="cls-1" d="M645.84,21.75c0-.62-.5-1.12-1.12-1.12s-1.12.5-1.12,1.12.5,1.12,1.12,1.12,1.12-.5,1.12-1.12Z"/></g><g id="CIRCLE-122"><path class="cls-1" d="M637.4,21.75c0-1.94-1.57-3.5-3.5-3.5s-3.5,1.57-3.5,3.5,1.57,3.5,3.5,3.5,3.5-1.57,3.5-3.5Z"/></g><g id="CIRCLE-123"><path class="cls-1" d="M624.18,21.75c0-.62-.5-1.12-1.12-1.12s-1.12.5-1.12,1.12.5,1.12,1.12,1.12,1.12-.5,1.12-1.12Z"/></g><g id="CIRCLE-124"><path class="cls-1" d="M605.23,20.73c0-.62-.5-1.12-1.12-1.12s-1.12.5-1.12,1.12.5,1.12,1.12,1.12,1.12-.5,1.12-1.12Z"/></g><g id="CIRCLE-125"><path class="cls-1" d="M596.79,20.73c0-1.94-1.57-3.5-3.5-3.5s-3.5,1.57-3.5,3.5,1.57,3.5,3.5,3.5,3.5-1.57,3.5-3.5Z"/></g><g id="CIRCLE-126"><circle class="cls-1" cx="582.45" cy="20.73" r="1.12"/></g><g id="CIRCLE-127"><path class="cls-1" d="M560.69,23.07c0-.62-.5-1.12-1.12-1.12s-1.12.5-1.12,1.12.5,1.12,1.12,1.12,1.12-.5,1.12-1.12Z"/></g><g id="CIRCLE-128"><circle class="cls-1" cx="725.94" cy="184.18" r="1.12"/></g><g id="CIRCLE-129"><path class="cls-1" d="M727.06,62.35c0-.62-.5-1.12-1.12-1.12s-1.12.5-1.12,1.12.5,1.12,1.12,1.12,1.12-.5,1.12-1.12Z"/></g><g id="ARC-269"><path class="cls-1" d="M514.71,171.02c.35-.07.57-.41.49-.76"/></g><g id="ARC-270"><path class="cls-1" d="M507.7,171.86c.07.35.41.57.76.49"/></g><g id="ARC-271"><path class="cls-1" d="M477.74,130.39c-.35.07-.57.41-.49.76"/></g><g id="ARC-272"><path class="cls-1" d="M484.75,129.55c-.07-.35-.41-.57-.76-.49"/></g><g id="ARC-273"><path class="cls-1" d="M485.41,135.73c.35-.07.57-.41.49-.76"/></g><g id="ARC-274"><path class="cls-1" d="M478.4,136.57c.07.35.41.57.76.49"/></g><g id="ARC-275"><path class="cls-1" d="M467.32,174.12c-.35.07-.57.41-.49.76"/></g><g id="ARC-276"><path class="cls-1" d="M474.33,173.28c-.07-.35-.41-.57-.76-.49"/></g><g id="ARC-277"><path class="cls-1" d="M474.99,179.46c.35-.07.57-.41.49-.76"/></g><g id="ARC-278"><path class="cls-1" d="M467.98,180.3c.07.35.41.57.76.49"/></g><g id="ARC-279"><path class="cls-1" d="M457.95,218.28c-.07-.35-.41-.57-.76-.49"/></g><g id="ARC-280"><path class="cls-1" d="M458.61,224.46c.35-.07.57-.41.49-.76"/></g><g id="ARC-281"><path class="cls-1" d="M451.59,225.3c.07.35.41.57.76.49"/></g><g id="ARC-282"><path class="cls-1" d="M450.93,219.12c-.35.07-.57.41-.49.76"/></g><g id="ARC-283"><path class="cls-1" d="M428.09,57.91c-.35.07-.57.41-.49.76"/></g><g id="ARC-284"><path class="cls-1" d="M435.1,57.08c-.07-.35-.41-.57-.76-.49"/></g><g id="CIRCLE-130"><circle class="cls-1" cx="225.34" cy="29.39" r="3.5"/></g><g id="CIRCLE-131"><path class="cls-1" d="M226.29,70.87c0-.62-.5-1.12-1.12-1.12s-1.12.5-1.12,1.12.5,1.12,1.12,1.12,1.12-.5,1.12-1.12Z"/></g><g id="CIRCLE-132"><path class="cls-1" d="M221.19,22.4c0-1.47-1.19-2.66-2.66-2.66s-2.66,1.19-2.66,2.66,1.19,2.66,2.66,2.66,2.66-1.19,2.66-2.66Z"/></g><g id="CIRCLE-133"><circle class="cls-1" cx="216.56" cy="152.07" r="1.12"/></g><g id="CIRCLE-134"><path class="cls-1" d="M200.04,106.29c0-1.94-1.57-3.5-3.5-3.5s-3.5,1.57-3.5,3.5,1.57,3.5,3.5,3.5,3.5-1.57,3.5-3.5Z"/></g><g id="CIRCLE-135"><path class="cls-1" d="M209.47,149.81c0-1.94-1.57-3.5-3.5-3.5s-3.5,1.57-3.5,3.5,1.57,3.5,3.5,3.5,3.5-1.57,3.5-3.5Z"/></g><g id="CIRCLE-136"><path class="cls-1" d="M207.76,66.93c0-.62-.5-1.12-1.12-1.12s-1.12.5-1.12,1.12.5,1.12,1.12,1.12,1.12-.5,1.12-1.12Z"/></g><g id="CIRCLE-137"><circle class="cls-1" cx="207.13" cy="108.55" r="1.12"/></g><g id="CIRCLE-138"><path class="cls-1" d="M112.78,21.74c0-.62-.5-1.12-1.12-1.12s-1.12.5-1.12,1.12.5,1.12,1.12,1.12,1.12-.5,1.12-1.12Z"/></g><g id="CIRCLE-139"><path class="cls-1" d="M112.78,62.35c0-.62-.5-1.12-1.12-1.12s-1.12.5-1.12,1.12.5,1.12,1.12,1.12,1.12-.5,1.12-1.12Z"/></g><g id="CIRCLE-140"><path class="cls-1" d="M116.5,184.18c0-.62-.5-1.12-1.12-1.12s-1.12.5-1.12,1.12.5,1.12,1.12,1.12,1.12-.5,1.12-1.12Z"/></g><g id="CIRCLE-141"><path class="cls-1" d="M129.71,184.18c0-1.94-1.57-3.5-3.5-3.5s-3.5,1.57-3.5,3.5,1.57,3.5,3.5,3.5,3.5-1.57,3.5-3.5Z"/></g><g id="CIRCLE-142"><circle class="cls-1" cx="130.61" cy="21.74" r="1.12"/></g><g id="CIRCLE-143"><path class="cls-1" d="M138.16,184.18c0-.62-.5-1.12-1.12-1.12s-1.12.5-1.12,1.12.5,1.12,1.12,1.12,1.12-.5,1.12-1.12Z"/></g><g id="CIRCLE-144"><path class="cls-1" d="M141.88,62.35c0-.62-.5-1.12-1.12-1.12s-1.12.5-1.12,1.12.5,1.12,1.12,1.12,1.12-.5,1.12-1.12Z"/></g><g id="CIRCLE-145"><path class="cls-1" d="M141.88,102.96c0-.62-.5-1.12-1.12-1.12s-1.12.5-1.12,1.12.5,1.12,1.12,1.12,1.12-.5,1.12-1.12Z"/></g><g id="CIRCLE-146"><circle class="cls-1" cx="90" cy="21.74" r="1.12"/></g><g id="CIRCLE-147"><circle class="cls-1" cx="90" cy="62.35" r="1.12"/></g><g id="CIRCLE-148"><path class="cls-1" d="M99.26,102.96c0-1.94-1.57-3.5-3.5-3.5s-3.5,1.57-3.5,3.5,1.57,3.5,3.5,3.5,3.5-1.57,3.5-3.5Z"/></g><g id="CIRCLE-149"><path class="cls-1" d="M99.26,143.57c0-1.94-1.57-3.5-3.5-3.5s-3.5,1.57-3.5,3.5,1.57,3.5,3.5,3.5,3.5-1.57,3.5-3.5Z"/></g><g id="CIRCLE-150"><path class="cls-1" d="M104.33,21.74c0-1.94-1.57-3.5-3.5-3.5s-3.5,1.57-3.5,3.5,1.57,3.5,3.5,3.5,3.5-1.57,3.5-3.5Z"/></g><g id="CIRCLE-151"><path class="cls-1" d="M104.33,62.35c0-1.94-1.57-3.5-3.5-3.5s-3.5,1.57-3.5,3.5,1.57,3.5,3.5,3.5,3.5-1.57,3.5-3.5Z"/></g><g id="CIRCLE-152"><circle class="cls-1" cx="106.58" cy="102.96" r="1.12"/></g><g id="CIRCLE-153"><path class="cls-1" d="M107.7,143.57c0-.62-.5-1.12-1.12-1.12s-1.12.5-1.12,1.12.5,1.12,1.12,1.12,1.12-.5,1.12-1.12Z"/></g><g id="CIRCLE-154"><path class="cls-1" d="M78.95,184.18c0-1.94-1.57-3.5-3.5-3.5s-3.5,1.57-3.5,3.5,1.57,3.5,3.5,3.5,3.5-1.57,3.5-3.5Z"/></g><g id="CIRCLE-155"><path class="cls-1" d="M86.04,102.96c0-.62-.5-1.12-1.12-1.12s-1.12.5-1.12,1.12.5,1.12,1.12,1.12,1.12-.5,1.12-1.12Z"/></g><g id="CIRCLE-156"><path class="cls-1" d="M86.04,143.57c0-.62-.5-1.12-1.12-1.12s-1.12.5-1.12,1.12.5,1.12,1.12,1.12,1.12-.5,1.12-1.12Z"/></g><g id="CIRCLE-157"><path class="cls-1" d="M87.4,184.18c0-.62-.5-1.12-1.12-1.12s-1.12.5-1.12,1.12.5,1.12,1.12,1.12,1.12-.5,1.12-1.12Z"/></g><g id="CIRCLE-158"><path class="cls-1" d="M65.74,184.18c0-.62-.5-1.12-1.12-1.12s-1.12.5-1.12,1.12.5,1.12,1.12,1.12,1.12-.5,1.12-1.12Z"/></g><g id="CIRCLE-159"><path class="cls-1" d="M51.87,21.74c0-.62-.5-1.12-1.12-1.12s-1.12.5-1.12,1.12.5,1.12,1.12,1.12,1.12-.5,1.12-1.12Z"/></g><g id="CIRCLE-160"><path class="cls-1" d="M41.71,62.35c0-.62-.5-1.12-1.12-1.12s-1.12.5-1.12,1.12.5,1.12,1.12,1.12,1.12-.5,1.12-1.12Z"/></g><g id="CIRCLE-161"><path class="cls-1" d="M43.42,21.74c0-1.94-1.57-3.5-3.5-3.5s-3.5,1.57-3.5,3.5,1.57,3.5,3.5,3.5,3.5-1.57,3.5-3.5Z"/></g><g id="ARC-285"><path class="cls-1" d="M675.93,122.15c0,1.18.95,2.13,2.13,2.13"/></g><g id="ARC-286"><path class="cls-1" d="M729.65,77.38c-1.18,0-2.13.95-2.13,2.13"/></g><g id="ARC-287"><path class="cls-1" d="M744.14,79.51c0-1.18-.95-2.13-2.13-2.13"/></g><g id="ARC-288"><path class="cls-1" d="M742.01,124.28c1.18,0,2.13-.95,2.13-2.13"/></g><g id="ARC-289"><path class="cls-1" d="M727.51,122.15c0,1.18.95,2.13,2.13,2.13"/></g><g id="ARC-290"><path class="cls-1" d="M734.73,4.64c0-1.91-1.27-3.59-3.11-4.1"/></g><g id="ARC-291"><path class="cls-1" d="M731.62.53c-1.13-.32-2.31.34-2.63,1.47-.05.19-.08.38-.08.58"/></g><g id="ARC-292"><path class="cls-1" d="M726.78,47.33c1.18,0,2.13-.95,2.13-2.13"/></g><g id="ARC-293"><path class="cls-1" d="M712.29,45.19c0,1.18.95,2.13,2.13,2.13"/></g><g id="ARC-294"><path class="cls-1" d="M675.19,47.33c1.18,0,2.13-.95,2.13-2.13"/></g><g id="ARC-295"><path class="cls-1" d="M660.7,45.19c0,1.18.95,2.13,2.13,2.13"/></g><g id="ARC-296"><path class="cls-1" d="M660.7,2.51c0-1.18-.95-2.13-2.13-2.13"/></g><g id="ARC-297"><path class="cls-1" d="M578.01.38c-.93,0-1.83.3-2.58.87"/></g><g id="ARC-298"><path class="cls-1" d="M562.19,1.88c4.12,2.54,9.38,2.29,13.24-.63"/></g><g id="ARC-299"><path class="cls-1" d="M562.19,1.88c-.93-.58-2.05-.77-3.13-.54"/></g><g id="ARC-300"><path class="cls-1" d="M436,27.49c-1.05.22-1.98.84-2.6,1.71"/></g><g id="ARC-301"><path class="cls-1" d="M417.81,32.52c5.26,3.14,12.06,1.7,15.59-3.31"/></g><g id="ARC-302"><path class="cls-1" d="M438.68,145.01c.07.35.41.57.76.49"/></g><g id="ARC-303"><path class="cls-1" d="M457.98,93.07c-.35.07-.57.41-.49.76"/></g><g id="ARC-304"><path class="cls-1" d="M464.99,92.24c-.07-.35-.41-.57-.76-.49"/></g><g id="ARC-305"><path class="cls-1" d="M465.65,98.42c.35-.07.57-.41.49-.76"/></g><g id="ARC-306"><path class="cls-1" d="M458.64,99.25c.07.35.41.57.76.49"/></g><g id="ARC-307"><path class="cls-1" d="M467.81,49.47c-.35.07-.57.41-.49.76"/></g><g id="ARC-308"><path class="cls-1" d="M474.82,48.63c-.07-.35-.41-.57-.76-.49"/></g><g id="ARC-309"><path class="cls-1" d="M475.48,54.81c.35-.07.57-.41.49-.76"/></g><g id="ARC-310"><path class="cls-1" d="M468.47,55.65c.07.35.41.57.76.49"/></g><g id="ARC-311"><path class="cls-1" d="M497.7,84.63c-.35.07-.57.41-.49.76"/></g><g id="ARC-312"><path class="cls-1" d="M504.71,83.79c-.07-.35-.41-.57-.76-.49"/></g><g id="ARC-313"><path class="cls-1" d="M505.37,89.97c.35-.07.57-.41.49-.76"/></g><g id="ARC-314"><path class="cls-1" d="M498.36,90.81c.07.35.41.57.76.49"/></g><g id="ARC-315"><path class="cls-1" d="M507.53,41.03c-.35.07-.57.41-.49.76"/></g><g id="ARC-316"><path class="cls-1" d="M514.54,40.19c-.07-.35-.41-.57-.76-.49"/></g><g id="ARC-317"><path class="cls-1" d="M515.2,46.37c.35-.07.57-.41.49-.76"/></g><g id="ARC-318"><path class="cls-1" d="M99.59,110.34c0-.35-.29-.64-.64-.64"/></g><g id="ARC-319"><path class="cls-1" d="M98.95,116.52c.35,0,.64-.29.64-.64"/></g><g id="ARC-320"><path class="cls-1" d="M91.92,115.88c0,.35.29.64.64.64"/></g><g id="CIRCLE-162"><path class="cls-1" d="M84.27,173.35c0-1.88-1.53-3.41-3.41-3.41s-3.41,1.53-3.41,3.41,1.53,3.41,3.41,3.41,3.41-1.53,3.41-3.41Z"/></g><g id="ARC-321"><path class="cls-1" d="M72.25,190.92c-.35,0-.64.29-.64.64"/></g><g id="ARC-322"><path class="cls-1" d="M79.29,191.56c0-.35-.29-.64-.64-.64"/></g><g id="ARC-323"><path class="cls-1" d="M78.65,197.74c.35,0,.64-.29.64-.64"/></g><g id="ARC-324"><path class="cls-1" d="M71.61,197.1c0,.35.29.64.64.64"/></g><g id="CIRCLE-163"><path class="cls-1" d="M23.12,102.96c0-1.94-1.57-3.5-3.5-3.5s-3.5,1.57-3.5,3.5,1.57,3.5,3.5,3.5,3.5-1.57,3.5-3.5Z"/></g><g id="CIRCLE-164"><path class="cls-1" d="M23.12,143.57c0-1.94-1.57-3.5-3.5-3.5s-3.5,1.57-3.5,3.5,1.57,3.5,3.5,3.5,3.5-1.57,3.5-3.5Z"/></g><g id="CIRCLE-165"><circle class="cls-1" cx="18.94" cy="62.35" r="1.12"/></g><g id="CIRCLE-166"><path class="cls-1" d="M9.9,102.96c0-.62-.5-1.12-1.12-1.12s-1.12.5-1.12,1.12.5,1.12,1.12,1.12,1.12-.5,1.12-1.12Z"/></g><g id="ARC-325"><path class="cls-1" d="M341.09,239.72c-.24,1.15.49,2.28,1.64,2.53"/></g><g id="ARC-326"><path class="cls-1" d="M345.26,242.78c2.88.61,5.71-1.23,6.32-4.1.08-.36.12-.74.12-1.11"/></g><g id="ARC-327"><path class="cls-1" d="M363.42,219.61c-6.48,0-11.72,5.25-11.72,11.72"/></g><g id="ARC-328"><path class="cls-1" d="M363.7,219.61c2.94,0,5.33-2.39,5.33-5.33"/></g><g id="ARC-329"><path class="cls-1" d="M369.03,155.11c0-2.94-2.39-5.33-5.33-5.33"/></g><g id="ARC-330"><path class="cls-1" d="M345.99,126.34c-6.48,0-11.72,5.25-11.72,11.72s5.25,11.72,11.72,11.72"/></g><g id="ARC-331"><path class="cls-1" d="M363.7,126.34c2.94,0,5.33-2.39,5.33-5.33"/></g><g id="CIRCLE-167"><path class="cls-1" d="M637.4,143.57c0-1.94-1.57-3.5-3.5-3.5s-3.5,1.57-3.5,3.5,1.57,3.5,3.5,3.5,3.5-1.57,3.5-3.5Z"/></g><g id="CIRCLE-168"><path class="cls-1" d="M637.4,184.18c0-1.94-1.57-3.5-3.5-3.5s-3.5,1.57-3.5,3.5,1.57,3.5,3.5,3.5,3.5-1.57,3.5-3.5Z"/></g><g id="CIRCLE-169"><circle class="cls-1" cx="685.33" cy="143.57" r="1.12"/></g><g id="CIRCLE-170"><circle class="cls-1" cx="685.33" cy="184.18" r="1.12"/></g><g id="CIRCLE-171"><path class="cls-1" d="M676.3,62.35c0-.62-.5-1.12-1.12-1.12s-1.12.5-1.12,1.12.5,1.12,1.12,1.12,1.12-.5,1.12-1.12Z"/></g><g id="CIRCLE-172"><path class="cls-1" d="M678,143.57c0-1.94-1.57-3.5-3.5-3.5s-3.5,1.57-3.5,3.5,1.57,3.5,3.5,3.5,3.5-1.57,3.5-3.5Z"/></g><g id="CIRCLE-173"><path class="cls-1" d="M664.79,184.18c0-.62-.5-1.12-1.12-1.12s-1.12.5-1.12,1.12.5,1.12,1.12,1.12,1.12-.5,1.12-1.12Z"/></g><g id="CIRCLE-174"><path class="cls-1" d="M664.79,143.57c0-.62-.5-1.12-1.12-1.12s-1.12.5-1.12,1.12.5,1.12,1.12,1.12,1.12-.5,1.12-1.12Z"/></g><g id="CIRCLE-175"><path class="cls-1" d="M667.85,62.35c0-1.94-1.57-3.5-3.5-3.5s-3.5,1.57-3.5,3.5,1.57,3.5,3.5,3.5,3.5-1.57,3.5-3.5Z"/></g><g id="CIRCLE-176"><path class="cls-1" d="M678,184.18c0-1.94-1.57-3.5-3.5-3.5s-3.5,1.57-3.5,3.5,1.57,3.5,3.5,3.5,3.5-1.57,3.5-3.5Z"/></g><g id="ARC-332"><path class="cls-1" d="M417.81,32.52c-.92-.55-2.02-.73-3.07-.51"/></g><g id="ARC-333"><path class="cls-1" d="M389.46,37.38c-1.97.42-3.38,2.16-3.38,4.17"/></g><g id="ARC-334"><path class="cls-1" d="M386.09,120.96c0,2.94,2.39,5.33,5.33,5.33"/></g><g id="ARC-335"><path class="cls-1" d="M409.46,149.73c6.48,0,11.72-5.25,11.72-11.72s-5.25-11.72-11.72-11.72"/></g><g id="ARC-336"><path class="cls-1" d="M391.41,149.73c-2.94,0-5.33,2.39-5.33,5.33"/></g><g id="ARC-337"><path class="cls-1" d="M386.09,214.3c0,2.84,2.23,5.18,5.07,5.32"/></g><g id="ARC-338"><path class="cls-1" d="M402.3,231.34c0-6.25-4.91-11.4-11.15-11.71"/></g><g id="ARC-339"><path class="cls-1" d="M402.3,237.83c0,2.94,2.39,5.33,5.33,5.33.37,0,.74-.04,1.11-.12"/></g><g id="ARC-340"><path class="cls-1" d="M421.66,240.3c1.15-.24,1.89-1.38,1.64-2.53"/></g><g id="ARC-341"><path class="cls-1" d="M416.07,193.49c-1.15.24-1.89,1.38-1.64,2.53"/></g><g id="ARC-342"><path class="cls-1" d="M430.69,192.56c-.24-1.15-1.38-1.89-2.53-1.64"/></g><g id="ARC-343"><path class="cls-1" d="M439.56,234.31c.24,1.15,1.38,1.89,2.53,1.64"/></g><g id="ARC-344"><path class="cls-1" d="M472.12,229.57c1.15-.24,1.89-1.38,1.64-2.53"/></g><g id="ARC-345"><path class="cls-1" d="M466.53,182.76c-1.15.24-1.89,1.38-1.64,2.53"/></g><g id="ARC-346"><path class="cls-1" d="M481.15,181.83c-.24-1.15-1.38-1.89-2.53-1.64"/></g><g id="ARC-347"><path class="cls-1" d="M490.02,223.59c.24,1.15,1.38,1.89,2.53,1.64"/></g><g id="ARC-348"><path class="cls-1" d="M573.9,207.94c1.59-.34,2.85-1.55,3.25-3.12"/></g><g id="ARC-349"><path class="cls-1" d="M369.03,41.53c0-2.01-1.41-3.75-3.38-4.17"/></g><g id="ARC-350"><path class="cls-1" d="M340.12,31.93c-1.27-.27-2.59-.07-3.72.57"/></g><g id="ARC-351"><path class="cls-1" d="M321.22,29.28c3.52,4.74,10.02,6.13,15.17,3.22"/></g><g id="ARC-352"><path class="cls-1" d="M321.22,29.28c-.77-1.04-1.9-1.77-3.17-2.04"/></g><g id="ARC-353"><path class="cls-1" d="M192.94.65c-1.45-.31-2.96,0-4.17.85"/></g><g id="ARC-354"><path class="cls-1" d="M175.16,1.39c4.05,2.94,9.52,2.98,13.61.11"/></g><g id="ARC-355"><path class="cls-1" d="M175.16,1.39c-.91-.66-2-1.01-3.13-1.01"/></g><g id="ARC-356"><path class="cls-1" d="M30.37.38c-1.3,0-2.55.47-3.53,1.33"/></g><g id="ARC-357"><path class="cls-1" d="M24.43,3.35c.87-.44,1.68-1,2.41-1.64"/></g><g id="ARC-358"><path class="cls-1" d="M24.43,3.35c-1.78.91-2.9,2.74-2.9,4.74"/></g><g id="ARC-359"><path class="cls-1" d="M13.01,21.16c4.71,0,8.53-3.82,8.53-8.53"/></g><g id="ARC-360"><path class="cls-1" d="M5.7,21.16c-2.94,0-5.33,2.39-5.33,5.33"/></g><g id="ARC-361"><path class="cls-1" d="M.38,56.69c0,2.37,1.56,4.45,3.84,5.12"/></g><g id="ARC-362"><path class="cls-1" d="M4.21,84.32c6.22-1.81,9.79-8.32,7.98-14.54-1.12-3.85-4.13-6.86-7.98-7.98"/></g><g id="ARC-363"><path class="cls-1" d="M4.21,84.32c-2.27.66-3.84,2.75-3.84,5.12"/></g><g id="ARC-364"><path class="cls-1" d="M.38,191.72c0,2.35,1.91,4.26,4.26,4.26"/></g><g id="ARC-365"><path class="cls-1" d="M29.62,202.56c-1.97-4.03-6.05-6.58-10.53-6.58"/></g><g id="ARC-366"><path class="cls-1" d="M29.62,202.56c.89,1.83,2.75,2.99,4.79,2.99"/></g><g id="ARC-367"><path class="cls-1" d="M151.06,205.55c2.04,0,3.89-1.16,4.79-2.99"/></g><g id="ARC-368"><path class="cls-1" d="M177.61,204.32c-1.87-6.2-8.41-9.71-14.61-7.85-3.13.94-5.72,3.15-7.15,6.08"/></g><g id="ARC-369"><path class="cls-1" d="M177.61,204.32c.56,1.86,2.09,3.27,3.99,3.68"/></g><g id="ARC-370"><path class="cls-1" d="M547.42,163.41c.07.35.41.57.76.49"/></g><g id="CIRCLE-177"><path class="cls-1" d="M542.65,68.93c0-1.94-1.57-3.5-3.5-3.5s-3.5,1.57-3.5,3.5,1.57,3.5,3.5,3.5,3.5-1.57,3.5-3.5Z"/></g><g id="CIRCLE-178"><path class="cls-1" d="M535.61,194.97c0-1.94-1.57-3.5-3.5-3.5s-3.5,1.57-3.5,3.5,1.57,3.5,3.5,3.5,3.5-1.57,3.5-3.5Z"/></g><g id="CIRCLE-179"><path class="cls-1" d="M530.9,112.44c0-.62-.5-1.12-1.12-1.12s-1.12.5-1.12,1.12.5,1.12,1.12,1.12,1.12-.5,1.12-1.12Z"/></g><g id="CIRCLE-180"><path class="cls-1" d="M529.67,71.18c0-.62-.5-1.12-1.12-1.12s-1.12.5-1.12,1.12.5,1.12,1.12,1.12,1.12-.5,1.12-1.12Z"/></g><g id="CIRCLE-181"><path class="cls-1" d="M550.86,66.68c0-.62-.5-1.12-1.12-1.12s-1.12.5-1.12,1.12.5,1.12,1.12,1.12,1.12-.5,1.12-1.12Z"/></g><g id="CIRCLE-182"><circle class="cls-1" cx="548.48" cy="149.98" r="3.5"/></g><g id="CIRCLE-183"><path class="cls-1" d="M549.44,108.5c0-.62-.5-1.12-1.12-1.12s-1.12.5-1.12,1.12.5,1.12,1.12,1.12,1.12-.5,1.12-1.12Z"/></g><g id="CIRCLE-184"><path class="cls-1" d="M543.81,192.72c0-.62-.5-1.12-1.12-1.12s-1.12.5-1.12,1.12.5,1.12,1.12,1.12,1.12-.5,1.12-1.12Z"/></g><g id="CIRCLE-185"><path class="cls-1" d="M499.29,160.67c0-.62-.5-1.12-1.12-1.12s-1.12.5-1.12,1.12.5,1.12,1.12,1.12,1.12-.5,1.12-1.12Z"/></g><g id="CIRCLE-186"><circle class="cls-1" cx="499.42" cy="77.37" r="3.5"/></g><g id="CIRCLE-187"><path class="cls-1" d="M509.71,116.94c0-.62-.5-1.12-1.12-1.12s-1.12.5-1.12,1.12.5,1.12,1.12,1.12,1.12-.5,1.12-1.12Z"/></g><g id="CIRCLE-188"><path class="cls-1" d="M512.27,158.42c0-1.94-1.57-3.5-3.5-3.5s-3.5,1.57-3.5,3.5,1.57,3.5,3.5,3.5,3.5-1.57,3.5-3.5Z"/></g><g id="CIRCLE-189"><path class="cls-1" d="M511.14,75.12c0-.62-.5-1.12-1.12-1.12s-1.12.5-1.12,1.12.5,1.12,1.12,1.12,1.12-.5,1.12-1.12Z"/></g><g id="CIRCLE-190"><path class="cls-1" d="M522.69,114.69c0-1.94-1.57-3.5-3.5-3.5s-3.5,1.57-3.5,3.5,1.57,3.5,3.5,3.5,3.5-1.57,3.5-3.5Z"/></g><g id="CIRCLE-191"><path class="cls-1" d="M520.47,156.17c0-.62-.5-1.12-1.12-1.12s-1.12.5-1.12,1.12.5,1.12,1.12,1.12,1.12-.5,1.12-1.12Z"/></g><g id="CIRCLE-192"><path class="cls-1" d="M522.63,197.22c0-.62-.5-1.12-1.12-1.12s-1.12.5-1.12,1.12.5,1.12,1.12,1.12,1.12-.5,1.12-1.12Z"/></g><g id="CIRCLE-193"><path class="cls-1" d="M463.21,85.82c0-1.94-1.57-3.5-3.5-3.5s-3.5,1.57-3.5,3.5,1.57,3.5,3.5,3.5,3.5-1.57,3.5-3.5Z"/></g><g id="CIRCLE-194"><path class="cls-1" d="M459.57,169.11c0-.62-.5-1.12-1.12-1.12s-1.12.5-1.12,1.12.5,1.12,1.12,1.12,1.12-.5,1.12-1.12Z"/></g><g id="CIRCLE-195"><path class="cls-1" d="M456.16,211.86c0-1.94-1.57-3.5-3.5-3.5s-3.5,1.57-3.5,3.5,1.57,3.5,3.5,3.5,3.5-1.57,3.5-3.5Z"/></g><g id="CIRCLE-196"><path class="cls-1" d="M451.46,129.32c0-.62-.5-1.12-1.12-1.12s-1.12.5-1.12,1.12.5,1.12,1.12,1.12,1.12-.5,1.12-1.12Z"/></g><g id="CIRCLE-197"><circle class="cls-1" cx="439.75" cy="131.57" r="3.5"/></g><g id="CIRCLE-198"><path class="cls-1" d="M441.03,173.05c0-.62-.5-1.12-1.12-1.12s-1.12.5-1.12,1.12.5,1.12,1.12,1.12,1.12-.5,1.12-1.12Z"/></g><g id="CIRCLE-199"><path class="cls-1" d="M443.19,214.11c0-.62-.5-1.12-1.12-1.12s-1.12.5-1.12,1.12.5,1.12,1.12,1.12,1.12-.5,1.12-1.12Z"/></g><g id="CIRCLE-200"><path class="cls-1" d="M450.23,88.07c0-.62-.5-1.12-1.12-1.12s-1.12.5-1.12,1.12.5,1.12,1.12,1.12,1.12-.5,1.12-1.12Z"/></g><g id="CIRCLE-201"><path class="cls-1" d="M471.41,83.56c0-.62-.5-1.12-1.12-1.12s-1.12.5-1.12,1.12.5,1.12,1.12,1.12,1.12-.5,1.12-1.12Z"/></g><g id="CIRCLE-202"><path class="cls-1" d="M472.55,166.86c0-1.94-1.57-3.5-3.5-3.5s-3.5,1.57-3.5,3.5,1.57,3.5,3.5,3.5,3.5-1.57,3.5-3.5Z"/></g><g id="CIRCLE-203"><path class="cls-1" d="M469.99,125.38c0-.62-.5-1.12-1.12-1.12s-1.12.5-1.12,1.12.5,1.12,1.12,1.12,1.12-.5,1.12-1.12Z"/></g><g id="CIRCLE-204"><path class="cls-1" d="M464.37,209.61c0-.62-.5-1.12-1.12-1.12s-1.12.5-1.12,1.12.5,1.12,1.12,1.12,1.12-.5,1.12-1.12Z"/></g><g id="CIRCLE-205"><path class="cls-1" d="M482.97,123.13c0-1.94-1.57-3.5-3.5-3.5s-3.5,1.57-3.5,3.5,1.57,3.5,3.5,3.5,3.5-1.57,3.5-3.5Z"/></g></svg>