<svg xmlns="http://www.w3.org/2000/svg" viewBox="0 0 1303.9 850.4" xmlns:v="https://vecta.io/nano"><style><![CDATA[.E{fill:none}.F{stroke:#ececec}.G{stroke-linejoin:round}.H{stroke-linecap:round}.I{stroke-width:.5}.J{stroke-width:.4}.K{fill:#1490ed}]]></style><path d="M872 541.6l-1 .9m6.2.7l-4.5-1.7m4.7 2.2h.1m-4.6-1.3l3.7 1.4m-4.4-.8l.7-.6m12.8 4.4l-.9.9m1.9-.9l-.2-.1m-.5 1.5l1-1m9.1 3.5l-1 .9m2.2-.8l-.4-.2m1 2.1l-.3-1.6m3.3 1.4l-1 .9m1.9-.9l-.1-.1m-.6 1.5l1-.9m-5.7-1l.1.1m-.2 0l.1-.1m13.5 3.9l-.9 1m3.8-.2l-2.1-.8M990 398.8L955.9 386m31.6 20.3l4.3-4.2m-23.9-.6l13.9 5.3m-36.6-10.5l14.1 5.4m28.1-35.2l-6.8 6.5m46.6 5.8L993.1 366m31.6 20.3l4.3-4.1m-24-.7l14 5.3m-36.6-10.4l14.1 5.3m-93.7-13.1l-6.8 6.5m46.6 5.8l-34.1-12.8m31.6 20.3l4.3-4.1m-24-.7l14 5.3m-36.6-10.5l14.1 5.4m-122.4-5.7l-2.7 4.9" class="E F G H I"/><path d="M789.5 378.1l.5-4.7" class="E F G H J"/><path d="M622.2 361.4l18.6 7" class="E F G H I"/><path d="M622.8 356.7l-.6 4.7" class="E F G H J"/><path d="M831.9 385.9l-37.2-9" class="E F G H I"/><path d="M794.7 376.9l.6-4.7m36.6 13.7l.5-4.7" class="J E F G H"/><path d="M1127.4 427.6l7.4-7.1" class="E F G H I"/><path d="M1134.8 420.5l.6-4.7m-349.5-34l.1-1m-145.2-12.4l.6-4.7" class="J E F G H"/><path d="M997.1 409l-5.1 5" class="E F G H I"/><path d="M997.1 409l.5-4.6" class="E F G H J"/><path d="M841.1 390.5l-2.6 5" class="E F G H I"/><path d="M841.1 390.5l.6-4.6" class="E F G H J"/><path d="M883.5 398.3l-37.1-9" class="E F G H I"/><path d="M846.4 389.3l.5-4.6m36.6 13.6l.6-4.7" class="J E F G H"/><path d="M1036.9 421.4l-34.1-12.9" class="E F G H I"/><path d="M1002.8 408.5l.6-4.7m-165.8-9.6l.1-1m153 19.6l.2-1.9m46 10.5l.6-4.7" class="J E F G H"/><path d="M864.6 538.8l-.9 1m3.8-.2l-2.1-.8" class="I E F G H"/><path d="M423 280.5l-.5-3.6M286 297.5l-.3-2" class="J E F G H"/><path d="M298.9 292.6l32.6 4.5" class="E F G H I"/><path d="M298.9 292.6l-.7-5" class="E F G H J"/><path d="M568.1 255.1l26.9 7.5" class="E F G H I"/><path d="M568.1 255.1l-.7-5m-234.7 45.8l-.5-3.6" class="J E F G H"/><path d="M499.3 276.9l6.8-4.4" class="E F G H I"/><path d="M506.1 272.5l-.7-5" class="E F G H J"/><path d="M158.5 318.6l.7 5" class="E F G H I"/><path d="M597.3 261.1l-.4-2.8m-100.4 17.8l-.3-2.6" class="J E F G H"/><path d="M161.7 325.2l8.2 1.1" class="E F G H I"/><path d="M161 320.2l.7 5m8.2 1.1l-.7-5" class="J E F G H"/><path d="M433 290.5l6.8-4.4" class="E F G H I"/><path d="M439.8 286.1l-.7-5m-8.9 8.7l-.4-2.7" class="J E F G H"/><path d="M512 271.6l26.9 7.5" class="E F G H I"/><path d="M512 271.6l-.6-5" class="E F G H J"/><path d="M239.9 319.4l4.3-4.2" class="E F G H I"/><path d="M244.2 315.2l-.6-5" class="E F G H J"/><path d="M596.4 271.8l6.7-4.4" class="E F G H I"/><path d="M603.1 267.4l-.6-5" class="E F G H J"/><path d="M511.3 245.5l9.2-6.1m6-.8l29.4 8.2m.5 2.7l-5.8 3.8m-5.9.9l-12.1-3.4m-8.6.8l-12.2-3.5M455.2 262l9.2-6m6-.9l29.5 8.3m.5 2.6l-5.8 3.8m-6 .9l-12-3.4m-8.7.8l-12.2-3.4m-25.9 22.4l9.3-6m5.9-.9l29.5 8.3m.5 2.7l-5.8 3.8m-6 .8l-12-3.3m274.3 3l-3.9 7.4m46.3.3l-37.1-8.9m37.5 16.7l2.5-4.6m-22.9 2.2l15.2 3.6m-38.6-6.1l15.3 3.6m102.1 45l-4 7.4m46.3.3l-37.1-8.9m37.5 16.7l2.5-4.6m-22.9 2.2l15.2 3.6m-38.6-6.2l15.3 3.7m-117.6-39l-3.9 7.3m46.3.4l-37.1-8.9m37.5 16.7l2.5-4.7m-22.9 2.2l15.2 3.7m-38.8 25l15.4 3.7m89 10.6l-4 7.3m46.4.4l-37.2-8.9m37.6 16.7l2.5-4.7m-23 2.2l15.2 3.7m-38.6-6.2l15.4 3.7m242.3 5.6l-34.1-12.9m31.6 20.3l4.3-4.1m-23.9-.6l13.9 5.2m-36.6-10.4l14.1 5.3m-9.1-15.2l-6.7 6.6m-222.9-79.6l-4 7.4m46.3.4l-37.1-9m37.5 16.8l2.5-4.7m76.2 239.6l-.2-.1m-.5 1.5l.9-1m-14.8-5.6l-1 1m2-1h-.2m-.6 1.4l1-.9m3.5 1.3l-1 .9m2-.9l-.2-.1m-.5 1.5l.9-.9m-22.1-8.4l-1 1m4.1-.2l-2.3-.9m-17.1-6l-1 .9m6.2.7l-4.4-1.7m4.6 2.2l.1-.1m-4.6-1.3l3.7 1.5m-4.4-.8l.7-.7M387.4 327.2L375 339.1m-40-4.1l36.2 5m-35.2-8.7l-2.2 2.1m.3-3.8l-13.9-1.9m-8.5 1.6l-14.1-2m-1.7-2.4l6.7-6.5m389.9 4.3l-.3 2.3m1.5 1.6l12.1 4.6" class="I E F G H"/><path d="M693.7 326.6l.3-2.3m18.6 7h0" class="J E F G H"/><path d="M700.3 354.2l-.2 1.6m2 1.7l26.8 6.5" class="I E F G H"/><path d="M702.1 357.5l.3-2.3m26.5 8.8l.3-2.4" class="J E F G H"/><path d="M641.3 372.1l-.2 1.9m4.5 3.2l19.5 7.4m-43.9 6.9v.4m533.5 89.1l.3-2.4m-571.4-50.7l-.3 2.3m1.5 1.6l7.8 2.9" class="I E F G H"/><path d="M584.8 431.8l.3-2.3" class="E F G H J"/><path d="M1134.1 501.7l19.7-19.1" class="E F G H I"/><path d="M1153.8 482.6l.3-2.3" class="E F G H J"/><path d="M1119.5 501l4.3 1.6" class="E F G H I"/><path d="M1123.8 502.6l.3-2.3m10 1.4l.3-2.4m-541.8-64.6l.2-2.3m526.7 68.6l.2-2.4" class="J E F G H"/><path d="M592.1 450l-.3 2.3m523.3 67l.2-2.4m-269.5-3.7l-.2 2.4m-248.3-58.5l215.9 52.1" class="I E F G H"/><path d="M597.3 457.1l.3-2.3m215.6 54.4l.3-2.4" class="J E F G H"/><path d="M1046.2 586.6l68-65.7" class="E F G H I"/><path d="M1114.2 520.9l.2-2.3m-106.7 58.1l.3-2.4" class="J E F G H"/><path d="M508.9 279.6l-12.2-3.4m40.4 8.8l9.3-6.1m5.9-.8l29.5 8.2m.5 2.7l-5.8 3.8m-6 .9l-12-3.4m-8.7.8l-12.2-3.5M308.4 317l33.6 4.6m6.8-1.2l1.2.1m12.3-9.1l-8.5 8.2m8.7-13.4l6.8-6.6m5.7-1.4l34 4.7m1.7 2.5l-4.2 4.1m-5.7 1.4l-3-.4m-16.2 12.9l12.4-12m-11.2 13.7l3.4.4m-266.3 73.1l.2 13.4m571.4-86.4l1 .3m-14.3 2.7l-.9-.2" class="I E F G H"/><path d="M666 330.3l.7 4.7" class="E F G H J"/><g class="I E F G H"><path d="M158.8 404.2l.1 2.4m19.8-.2v-2.5m516.1-88.2l-38.1-15.8m-6 5.8l1 .4m1.8-7.1l22.5 5.8"/><path d="M676 304.8l-2.3 2.2m-312.1 99.8l-.5-3.7"/></g><path d="M143.1 383.9l-.1-5.9m191 55.1l-.5-28.7" class="J E F G H"/><path d="M589 399.4l1.3 9.4" class="E F G H I"/><path d="M402.3 467.4v-2.5" class="E F G H J"/><path d="M384.2 462.3v2.5m1.1-4.9l2.8-2.6m208.7-54.2l.6 4.5" class="I E F G H"/><path d="M637.8 374.8l-.4-2.5m3.9-.2l-.1-.7m-32.7-.6l-.4-2.5" class="J E F G H"/><path d="M627.1 385.5l-.1-.8" class="E F G H I"/><path d="M626.7 385.9v-.4m-9.3 6.8l-.1-.5m3.9-.2l-.1-.8" class="J E F G H"/><path d="M566.8 414.5l17.6-16.9" class="E F G H I"/><path d="M566.8 414.5l-.3-2.5" class="E F G H J"/><path d="M590.2 421.2l-.1-.8" class="E F G H I"/><path d="M589.8 421.6l-.1-.5" class="E F G H J"/><path d="M571 429.3l9 1.3" class="E F G H I"/><path d="M580 430.6l-.3-2.5m3.9-.3l-.1-.7m-12.5 2.2l-.3-2.5" class="J E F G H"/><path d="M547.5 439l5.2-5.2" class="E F G H I"/><path d="M552.7 433.8l-.3-2.5" class="E F G H J"/><path d="M365.2 393.6l170.7 47.6" class="E F G H I"/><path d="M365.2 393.6l-.3-2.5m171 50.1l-.4-2.5m12 .3l-.4-2.6" class="J E F G H"/><g class="I E F G H"><path d="M356.6 359.7l17 2.4m-20.3-10.2l-1.3 1.3m468-29.7l2.5-4.7m-23 2.2l15.2 3.7m-38.6-6.2l15.4 3.7M958.2 363l14 5.3m-36.6-10.4l14.1 5.3m-9.1-15.2l-6.8 6.5m46.6 5.8l-34.1-12.8m31.6 20.3l4.3-4.1M584 390.8l6.3-6.1m-5.1 8.3l7.7 2.9m5.6 10.7l-5.4 5.2m4.6 6.4l216 52.1m36.2 10.8l149.8 56.5"/><path d="M997.6 404.4l-6.7 6.5m46.6 5.8l-34.1-12.9m31.6 20.3l4.2-4.1m-23.9-.6l13.9 5.3m-36.6-10.5l14.1 5.3m19 29.4l-6.8 6.6m46.6 5.8l-34.1-12.9m31.6 20.3l4.3-4.1m-24-.6l14 5.2m-36.6-10.4l14.1 5.3M901.2 402l-6.8 6.5m46.6 5.8l-34.1-12.8m31.6 20.3l4.3-4.1m-24-.7l14 5.3m-36.6-10.5l14.1 5.4m-310.8 44.2l-5.3 5m-11.9-19.6l9.7 3.7m-24.8 10.9l15.1-14.6m429.2 198.7L126.1 417"/></g><path d="M1011.5 645.5l-.2-13.5" class="E F G H J"/><g class="I E F G H"><path d="M633.9 534.6l377.4 97.4M633.1 484.6l.8 50m-11.8-54.1l-120.2-31m0 0l-11-1.6m.7 50l-.7-50"/><path d="M491.6 497.9l-365.7-94.3"/></g><path d="M125.9 403.6l.2 13.4" class="E F G H J"/><path d="M598.5 504.8l-72.1-18.6m75.2 43.5l-.3-21.5m-74.5 4.9l72.1 18.6m-75.2-43.5l.3 21.5m-81.5-216.5l-12.1-3.4m-16.7 25.1l9.2-6.1m6-.8l29.5 8.2m.5 2.7l-5.9 3.8m-5.9.9l-12.1-3.4m-8.6.8l-12.2-3.5m11 32.8l9.3-6m5.9-.9l29.5 8.3m.5 2.7l-5.8 3.8m-6 .8l-12-3.3m-8.7.7l-12.2-3.4m29-26.7l9.2-6m6-.9l29.4 8.3m.5 2.7l-5.8 3.8m-5.9.8l-12.1-3.3" class="I E F G H"/><path d="M910.9 444.5l.6-4.7" class="E F G H J"/><path d="M950.8 456.9L916.6 444" class="E F G H I"/><path d="M916.6 444l.6-4.7m-12.7 9l.2-1.9m46.1 10.5l.5-4.7m168.5 10l-.5 4.7" class="J E F G H"/><path d="M754.5 432.2l-2.6 4.9" class="E F G H I"/><path d="M754.5 432.2l.6-4.7" class="E F G H J"/><path d="M796.9 439.9l-37.1-8.9" class="E F G H I"/><path d="M759.8 431l.5-4.7m36.6 13.6l.6-4.7" class="J E F G H"/><path d="M592.2 413.4l-.6 4.8" class="E F G H I"/><path d="M751 435.9l.1-1" class="E F G H J"/><path d="M1114.9 485.2l.5-4.7m-157.1-18.1l-5 4.9" class="I E F G H"/><path d="M958.3 462.4l.6-4.7" class="E F G H J"/><path d="M998.2 474.8l-34.1-12.9" class="E F G H I"/><path d="M964.1 461.9l.5-4.7m-12.7 9l.2-1.9m46.1 10.5l.5-4.7M1004 591l-.1.8m-5.9-1.7v.3m12 2.9v.1" class="J E F G H"/><path d="M1003.9 592.6l-.1-.5" class="E F G H I"/><path d="M1010.1 593.4h0m-.6.2v-.4m-279.8-45.7V545" class="J E F G H"/><path d="M766.3 549.9l-36.6-4.9" class="E F G H I"/><path d="M766.3 549.9l.1 2.5m59.1 7.9l-.5-29.4" class="J E F G H"/><path d="M1030.8 601.2l.1-.2" class="E F G H I"/><path d="M1030.8 601v.2" class="E F G H J"/><path d="M1033.2 641.8l-.6.4M473.9 302l6.8-4.4" class="I E F G H"/><path d="M480.7 297.6l-.6-5" class="E F G H J"/><path d="M299 327.5l4.3-4.1" class="E F G H I"/><path d="M303.3 323.4l-.7-5m168.6-17.1l-.4-2.7" class="J E F G H"/><path d="M553 283.1l26.8 7.5" class="E F G H I"/><path d="M553 283.1l-.7-5" class="E F G H J"/><path d="M637.3 283.3l6.8-4.4" class="E F G H I"/><path d="M644.1 278.9l-.7-5" class="E F G H J"/><path d="M362.9 316.4l-8.4 8.2" class="E F G H I"/><path d="M362.9 316.4l-.6-5m-66.1 15.5l-.3-2" class="J E F G H"/><path d="M309 322l33.7 4.6" class="E F G H I"/><path d="M309 322l-.6-5" class="E F G H J"/><path d="M349.4 325.4l1.3.1" class="E F G H I"/><path d="M582.2 289.1l-.4-2.8m-233 34.1l.6 5m-4-4.4l.7 5m-3.4.6l-.7-5m11.8-2l.7 5m-3.8.9l-.7-5m284.6-37.9l-.4-2.7" class="J E F G H"/><path d="M486.7 296.7l26.8 7.5" class="E F G H I"/><path d="M486.7 296.7l-.7-5" class="E F G H J"/><path d="M416.8 318.3l6.8-4.5" class="E F G H I"/><path d="M423.6 313.8l-.7-5" class="E F G H J"/><path d="M358.1 251.8l-14.1-1.9m208.3 7.1l9.2-6.1m5.9-.8l29.5 8.2m.5 2.7l-5.8 3.8m-5.9.9l-12.1-3.4m-8.6.8l-12.2-3.5M376 280.1l6.8-6.5m5.7-1.5l34 4.8m1.7 2.4l-4.2 4.1m-5.7 1.4l-13.9-1.9m-8.6 1.6l-14-2m23.5-26.9l6.8-6.5m5.7-1.4l34 4.7m1.7 2.4l-4.2 4.1m147.9 9.5l9.3-6m5.9-.9l29.5 8.3m.5 2.7l-5.8 3.8m-6 .8l-12-3.3m-8.7.7l-12.2-3.4m-15.6 25.3l9.2-6m6-.9l29.5 8.3m.5 2.7l-5.9 3.8m-5.9.8l-12-3.3m-8.7.7l-12.2-3.4m-82.4-25.6l9.2-6m6-.9l29.4 8.2m.5 2.7l-5.8 3.8m-5.9.9l-12.1-3.4m-271.6-44.2l.7 5.1m16.1-1.1l4.3-4.1" class="I E F G H"/><path d="M267 234.5l-.7-5" class="E F G H J"/><path d="M370.7 225.6l4.3-4.1" class="E F G H I"/><path d="M375 221.5l-.7-5M259.8 238l-.2-2" class="J E F G H"/><path d="M272.7 233.1l32.6 4.5" class="E F G H I"/><path d="M272.7 233.1l-.7-5m95.8-3.1l-.2-2" class="J E F G H"/><path d="M380.7 220.1l32.6 4.5" class="E F G H I"/><path d="M380.7 220.1l-.7-5m-73.5 21.3l-.5-3.6m108.5-9.4l-.5-3.6m-165.4 17l.7 5" class="J E F G H"/><path d="M418 232.2l4.3-4.2" class="E F G H I"/><path d="M422.3 228l-.7-5m-6.5 8.6l-.3-2" class="J E F G H"/><path d="M428 226.6l32.6 4.5" class="E F G H I"/><path d="M428 226.6l-.7-5" class="E F G H J"/><path d="M225.6 261.5l4.3-4.2" class="E F G H I"/><path d="M229.9 257.3l-.7-5m232.6-22.4l-.5-3.6m-238.6 34.5l-.3-2" class="J E F G H"/><path d="M235.6 255.9l32.6 4.5" class="E F G H I"/><path d="M235.6 255.9l-.7-5" class="E F G H J"/><path d="M345.4 250.1l4.3-4.2m599.7 325.6l-.4.4m1.2-.3l-.2-.1" class="I E F G H"/><path d="M968.4 578.4l.1-.7m-13.3-4l-.1-.7" class="J E F G H"/><path d="M956 573.7h-.2m-.6 0l-.4.4" class="I E F G H"/><path d="M976.4 580.6l-.2.8m.5.2l.2-.8" class="J E F G H"/><path d="M959.3 575.8l-.2-.8m-.2-.1l-.2-.1" class="I E F G H"/><path d="M967.6 578.4v-.7m13.7 4.8l-.1.7" class="J E F G H"/><path d="M975.1 581.8l.7-.3m0 0l-.1.5m.1-.5l.1.5m-7.5-3.6h-.2m-.6 0l-.4.4" class="I E F G H"/><path d="M984.8 583.9l-.2.8m-8.9-3.3v-.8" class="J E F G H"/><path d="M980.8 583.9l.6-.6" class="E F G H I"/><path d="M645.3 303.8l-.7-5m-46.8 26.9l-.4-2.8M496 340.5l-.4-2.7" class="J E F G H"/><path d="M428.3 353.7l6.8-4.4" class="E F G H I"/><path d="M435.1 349.3l-.6-5m-8.9 8.7l-.4-2.7M620.6 322l.5 4" class="J E F G H"/><path d="M511.5 335.9l26.8 7.6" class="E F G H I"/><path d="M511.5 335.9l-.7-5m29.9 11l-.4-2.7" class="J E F G H"/><path d="M441.1 348.4l26.8 7.6" class="E F G H I"/><path d="M441.1 348.4l-.7-5m29.8 11.1l-.3-2.8" class="J E F G H"/><path d="M644.3 332.5l-.3-2.1m-3.2 9.2l.2-.2" class="I E F G H"/><path d="M644 332.9l-.3-1.8" class="E F G H J"/><path d="M637 340.5l-29.3-4" class="E F G H I"/><path d="M607 331.5l.7 5m29.3 4l-.7-5m3.8-.9l.7 5" class="J E F G H"/><path d="M539.7 352.7l6.8-4.4" class="E F G H I"/><path d="M546.5 348.3l-.7-5m44-7.6l.7 5M537 351.9l-.4-2.6" class="J E F G H"/><path d="M552.5 347.4l26.8 7.5" class="E F G H I"/><path d="M552.5 347.4l-.7-5" class="E F G H J"/><g class="I E F G H"><path d="M482.4 366.5l-1.3 1.1m559 180.8l-8.3-3.1m14.8 2.5l67.9-65.7"/><path d="M1107.1 474.5l4.3 1.6m12.7-12.3l-4.3-1.6m14.6.7l19.8-19.1m-3.2-6l-19.4-7.3m-3.9-7.4l7.7-7.3m-181.1-71.4l178.7 67.4m-207.4-77l-155.2-37.3m-32.6-7.8l-37.1-9m-7.8 4.9l4.5-4.4m-3.3 6.6l18.5 7m3.5 6.7l-15.3 14.8m210 240.4l-.2-.1"/></g><path d="M927.2 562.2l-.3.7m4.8 1.5l.1-.6m-12.3-3.5v-.8" class="J E F G H"/><path d="M846.8 531.8v-.3" class="E F G H I"/><path d="M931.1 564.5v-.8" class="E F G H J"/><path d="M927.4 563.8h0" class="E F G H I"/><path d="M936.5 565.6l-.2.7" class="E F G H J"/><path d="M928.7 564.2v.1" class="E F G H I"/><path d="M936.5 566.4l.2-.8m-183.3-8.3v-2.4" class="J E F G H"/><path d="M734.7 552.8v2.4m185.7 5.1l-.3-.1m-.6.1l-.4.4" class="I E F G H"/><path d="M941.2 567.3l-.2.8m.2.1l.2-.8m-94.6-35.8v.2" class="J E F G H"/><path d="M756.1 552.2l-2.7 2.7" class="E F G H I"/><path d="M940.5 568.2l-.1-.8" class="E F G H J"/><path d="M931.1 564.5l-1.2.2m-2.8-1l-.2-.8M579.2 396.3l-9-1.2" class="I E F G H"/><path d="M579.2 396.3l-.6-5m3.8-.9l.6 5m-13.5-5.3l.7 5" class="J E F G H"/><path d="M551.9 399.6l-5.2 5.1" class="E F G H I"/><path d="M551.9 399.6l-.6-5" class="E F G H J"/><path d="M364.4 359.3L535.1 407" class="E F G H I"/><path d="M546.1 399.6l.6 5.1m-11.6 2.3l-.6-5.1" class="J E F G H"/><path d="M505.3 363.9l-19.7-3.3m26.5 2.9l29.5 8.3m.5 2.7l-5.9 3.8m-5.9.8l-12.1-3.4m-8.6.8l-12.2-3.4m-19.2-6l16.6 2.7m-13.1-8.3l-4.5 3.9m471.6 94.2l4.2-4.1m-23.9-.6l14 5.2m-36.7-10.4l14.2 5.3M790.2 342.3l-4 7.4m46.4.3l-37.2-8.9m37.6 16.7l2.5-4.7m-23 2.2l15.2 3.7m-38.6-6.2l15.4 3.7m-117.8-7.9l-4 7.4m46.4.3l-37.1-8.9m37.5 16.7l2.5-4.6m-22.9 2.2l15.2 3.6m-38.7-6.2l15.4 3.7m76.2-54.9l-4 7.4m46.4.4l-37.2-9m-271.5-72l-4.2 4.1m-5.8 1.4l-13.9-1.9m-8.5 1.6l-14.1-2m-49.6-8.3l6.8-6.6m5.7-1.4l34 4.7m1.7 2.5l-4.2 4.1m-5.7 1.4l-13.9-2m-8.6 1.6l-14-1.9m-49-9l6.7-6.5m5.7-1.4l34 4.7m1.8 2.4l-4.3 4.1m-5.7 1.4l-13.9-1.9m-8.5 1.6l-14.1-1.9m-72.6-12.3l6.7-6.5m167.4 91.9l9.3-6m5.9-.9l29.5 8.3m.5 2.7l-5.8 3.7m-6 .9l-12-3.4m-8.7.8l-12.2-3.4m81.4 20.3l9.3-6m5.9-.9l29.5 8.2m.5 2.7l-5.8 3.8m-6 .9l-12-3.4m-8.7.8l-12.2-3.4m-57.6 13.5l9.3-6m5.9-.9l29.5 8.3m.5 2.7l-5.8 3.8m-6 .8l-12-3.4m-8.7.8l-12.2-3.4m385 133.7l14.2 5.3m-140.2-52l-4 7.4m46.4.3l-37.2-8.9m37.6 16.7l2.5-4.6m-23 2.1l15.2 3.7M754 438l15.4 3.7m-122.1-71.4l-4 7.4m46.4.4l-37.2-8.9m37.6 16.7l2.5-4.7m-23 2.2l15.2 3.7m-38.6-6.2l15.4 3.7M790 373.4l-4 7.4m46.4.4l-37.1-9m-153.9-36.6l-.5 4.7" class="I E F G H"/><path d="M980.4 375l.2-2m46.1 10.5l.5-4.7" class="J E F G H"/><path d="M841.3 359.4l-2.6 4.9" class="E F G H I"/><path d="M841.3 359.4l.6-4.7" class="E F G H J"/><path d="M883.7 367.1l-37.1-8.9" class="E F G H I"/><path d="M846.6 358.2l.5-4.7m36.6 13.6l.5-4.7m-46.4.7l.1-1" class="J E F G H"/><path d="M902.2 373.3l-5 4.9" class="E F G H I"/><path d="M902.2 373.3l.6-4.7" class="E F G H J"/><path d="M642.4 341.9l28.6 10.8" class="E F G H I"/><path d="M642.9 337.2l-.5 4.7" class="E F G H J"/><path d="M942.1 385.6L908 372.8" class="E F G H I"/><path d="M908 372.8l.5-4.7m-12.7 8.9l.2-1.9" class="J E F G H"/><path d="M1058.7 393.2l-.5 4.7m.2-.2l.6-4.7" class="I E F G H"/><path d="M942.1 385.6l.5-4.7" class="E F G H J"/><path d="M686.2 353.3l-2.7 4.9" class="E F G H I"/><path d="M686.2 353.3l.5-4.7" class="E F G H J"/><path d="M728.6 361l-37.2-8.9m290 231.2l1.3.5" class="I E F G H"/><path d="M991.5 586.4l-.1.6m-1.4-.6l-.1.8m-12.7-6.1l-.3.7m12.2 4.9l.1.4m3.7-.2l-.1.7" class="J E F G H"/><path d="M975.9 582v.1m.9.4l.1-.7m-.2-.2l-.5-.2m-.5 0l-.8.3" class="I E F G H"/><path d="M980.6 583.3l-.1-.8" class="E F G H J"/><path d="M992.8 588.5l-.1-.6m-12.1-4.6l-.4.4m1.2-.4l-.2-.1m16.9 7.3l-.1-.6" class="I E F G H"/><path d="M994.7 588.8v.4m7.9 1.4l-.1.6m-2.3-.3v.4" class="J E F G H"/><path d="M865.5 539.6l1.4.5m12.3 5.4v.1m-14.5-6l-.4.4m1.2-.4l-.3-.1" class="I E F G H"/><path d="M872 542.4v-.8m14.5 5.1l-.1.8" class="J E F G H"/><path d="M882.5 546.8l-.1-.5" class="E F G H I"/><path d="M886.6 547.6l.1-.8m-4.3-.2v.1" class="J E F G H"/><path d="M872 542.4l-.4.4m1.2-.4l-.2-.1" class="I E F G H"/><path d="M889.8 548.3l-.1.7m7.2 1.6l-.2.8M894 550l-.2.8m3.3.8l.2-.8" class="J E F G H"/><path d="M892.8 550.8v-.4" class="E F G H I"/><path d="M892.8 550.6v.1m1.3.1h0M541.2 277.6l-.4-2.8M173 321.1l.7 5m63.4-7.4l-.3-2m356.8-45.6l-.4-2.7" class="J E F G H"/><path d="M250 313.8l32.5 4.5" class="E F G H I"/><path d="M250 313.8l-.7-5" class="E F G H J"/><path d="M445.7 285.2l26.9 7.6" class="E F G H I"/><path d="M445.7 285.2l-.7-5" class="E F G H J"/><path d="M642.1 267.8l-.3-2" class="E F G H I"/><path d="M283.8 317.1l-.5-3.6" class="E F G H J"/><path d="M190.6 326l.7 5m172.2-20.1l6.5-6.3" class="I E F G H"/><path d="M370 304.6l-.7-5m105.6-8.3l-.4-2.8" class="J E F G H"/><path d="M609.1 266.5l26.8 7.6" class="E F G H I"/><path d="M609.1 266.5l-.7-5m-245.6 46.8l-.3-2.1" class="J E F G H"/><path d="M375.7 303.2l32.6 4.6" class="E F G H I"/><path d="M375.7 303.2l-.7-5m267-30.6l-.2-1.4" class="J E F G H"/><path d="M540.3 288.4l6.8-4.5" class="E F G H I"/><path d="M547.1 283.9l-.7-5m91.9-6.3l-.4-2.8" class="J E F G H"/><path d="M363.9 314.3l-.7-5" class="E F G H I"/><path d="M537.5 287.6l-.4-2.6m-127.6 21.6l-.5-3.7m282.4 49.2l.6-4.7m36.6 13.6l.5-4.7" class="J E F G H"/><path d="M1058 398l-5.1 4.9" class="E F G H I"/><path d="M1058 398l.5-4.7M682.6 357l.1-1" class="J E F G H"/><path d="M1097.8 410.4l-34.1-12.9" class="E F G H I"/><path d="M1063.7 397.5l.5-4.7m-12.7 9l.3-1.9m46 10.5l.5-4.7" class="J E F G H"/><path d="M737.8 365.7l-2.6 4.9" class="E F G H I"/><path d="M737.8 365.7l.6-4.7" class="E F G H J"/><path d="M949.7 391.2l-5.1 4.9" class="E F G H I"/><path d="M949.7 391.2l.5-4.7" class="E F G H J"/><path d="M780.2 373.4l-37.1-8.9" class="E F G H I"/><path d="M743.1 364.5l.5-4.7m36.6 13.6l.6-4.6" class="J E F G H"/><path d="M621.3 355.1l-.5 4.7m514.6 59.6l.5-4.7m-146.4-11.2l-34.1-12.9" class="I E F G H"/><path d="M955.4 390.6l.5-4.6m-221.6-16.6l.1-1" class="J E F G H"/><path d="M671.5 348l-.5 4.7" class="E F G H I"/><path d="M943.2 394.9l.3-1.9m46 10.5l.5-4.7" class="J E F G H"/><path d="M467.4 332.4l-12.2-3.4m81.4 20.3l9.2-6m6-.9l29.5 8.3m.5 2.6l-5.9 3.8m-5.9.9l-12.1-3.4m-8.6.8l-12.2-3.4M311 271.1l6.8-6.5m5.7-1.4l34 4.7m1.7 2.4l-4.2 4.1m-5.7 1.4l-13.9-1.9m-8.6 1.6l-14-2m29.5-26l6.7-6.6m5.7-1.4l34 4.7m1.8 2.5l-4.3 4.1m-5.7 1.4l-13.9-1.9m617 333.1l-2.3-.9m28.2 10.7l-2.6.6m3.2-.4l-.1-.1m.2.1h-.1M662.3 384.7l.9-.9m24.9-24l7-6.8m-78.4 75.8l.9-.9m517.6 72.7l8.9 3.4" class="I E F G H"/><path d="M756.2 554.7l-.1-2.5" class="E F G H J"/><path d="M913.8 558.7v-.3" class="E F G H I"/><path d="M920.3 559.4l-.2.8" class="E F G H J"/><path d="M904.1 554.2l-.3-.1m-.6 0l-.4.4" class="I E F G H"/><path d="M910 556.7l-.1-.8m13.8 5l-.2.7m3.2 1.1l.2-.8m-.3-.1l-.1.8" class="J E F G H"/><path d="M923 562.1l-.1-.5" class="E F G H I"/><path d="M915.1 558.6l-.1.5" class="E F G H J"/><path d="M910.2 557.3l.6-.6m0 0l1.4.5m7.5 3.7l.7-.6m0 0l1.3.5" class="I E F G H"/><path d="M931.6 563.7l-.1.7" class="E F G H J"/><g class="I E F G H"><path d="M910 556.7l-.4.4m-340.8-177l18.6 2.6m-1.3-27.5l-20.7 20.1m50.7-20.3l-18.6-2.6m22.4 1.7l5.6-5.4m-29.3-5.5l28.2 3.9m11.9-11.6l-29.3-4m33.1 3.1l3.6-3.5m-19.7-4.2l18.6 2.6m2-30.7l-24 23.2m40.6-30.3l27.1-4.8m2-.9l5.5-5.2m-30.9-10l30.2 8.5m-182.4-51.1l126.4 35.4m287.8 298.3l-.3-.1m.8 2l-.2-1.6"/><path d="M927.4 563.8h0m1.3.4l-.1.1m2.5-.6l-2.4.5m3.1-.4l-.2-.1m-1.7 1.1l1.9-.4m-6-2.3l.2 1.2m16.6 5l-.9.9m6.2.7l-4.5-1.7m4.7 2.2v-.1m-4.6-1.3l3.8 1.5m-4.4-.8l.6-.7m11.6 4l-.9.9m1.9-.9l-.2-.1m-.5 1.5l1-1m11.2 4.3l-1 .9m1.9-.9l-.2-.1m-.5 1.4l1-.9m11.7 4.4l-.9 1M386 454.2l-47.1-19.5"/></g><path d="M386 454.2v-2.4" class="E F G H J"/><path d="M415.2 463.9L386 451.8" class="E F G H I"/><path d="M415.2 463.9v2.4" class="E F G H J"/><path d="M491.6 497.9l-76.4-31.6" class="E F G H I"/><path d="M338.4 405.4l.5 29.3" class="E F G H J"/><g class="I E F G H"><path d="M496.2 444.3l9.7 1.3m-366.4-72.5l48.5-46.8m40.6-39.2l3.8-3.7m21.5-20.8l3.8-3.7m19.1-18.4l3.9-3.7M143 378l190.5 26.4m4.9 1l152.5 42.5m4.3-3.8l-153.8-43"/><path d="M340.4 400.9L153.2 375m7.9-15.9l-11.4 11m145.9-132.7l8.7 1.2m346.4 67.1l-5.7-1.6m5.7 1.6l6-5.8"/><path d="M653.4 299l3.3.9m-485.4 76.6l16.7-16.2m166.1 26.1l1.4-1.2"/></g><path d="M170.7 360.6l-.3-2.5m4.1 2.2l-.4-2.5" class="J E F G H"/><path d="M191.8 362.8l.3 2.5m161.5-10.9l-1.3 1.3" class="I E F G H"/><path d="M353.6 354.4l-.3-2.5" class="E F G H J"/><path d="M697.3 317.7l-.1-.8m-5.4 8.4l.4-.4" class="I E F G H"/><path d="M697 318l-.1-.4m-5.1 7.7l-.3-2.5" class="J E F G H"/><path d="M662.7 330.9l15.9-2.7m5.4-1l5.8-1" class="I E F G H"/><path d="M689.8 326.2l-.4-2.5m-26.7 7.2l-.3-2.5" class="J E F G H"/><path d="M196.1 367.8l137.3 19" class="E F G H I"/><path d="M196.1 367.8l-.3-2.6m137.6 21.6l-.3-2.5m8.6 1.2l-.3-2.5" class="J E F G H"/><path d="M362.2 388.9l.3 2.5m259.6-30.1h0m11.8-11.4l8.3-8" class="I E F G H"/><path d="M622.1 361.3h0" class="E F G H J"/><path d="M608.5 370.8l29.3 4m-428.2-99.5l34 4.7m1.7 2.5l-4.2 4.1m-5.7 1.4l-13.9-1.9m-8.6 1.6l-14-2m37.9 31l6.8-6.5m5.7-1.4l34 4.7m1.7 2.4l-4.3 4.1m-5.7 1.4l-13.9-1.9m-8.5 1.6l-14.1-1.9m273.3-9.1l9.2-6m6-.9l29.4 8.3m.5 2.6l-5.8 3.8m-5.9.9l-12.1-3.4m-8.6.8l-12.2-3.4m-72.7-52.4l-13.9-2m-8.6 1.6l-14-1.9m-104.9 29.5l34 4.7m1.7 2.4l-4.2 4.2m-5.7 1.4l-13.9-2m-8.6 1.6l-14-1.9m-1.8-2.5l6.8-6.5m341.7-9.1l9.2-6m6-.9l29.4 8.3m.5 2.7l-5.8 3.7m-5.9.9l-12.1-3.4m-8.6.8l-12.2-3.4m-56.1 108.7l-9.1-1.2m12.9.3l6.2-6.1m-225.3 8.4l-5.2-.7" class="I E F G H"/><path d="M531.2 508.9l-4.4 4.2m72.1 18.6l2.7-2.6" class="J E F G H"/><path d="M599.7 469.8l1.2-11.2m571.9 14.9l-9.6-3.6m-15.7-5.9l-7.1-2.7m-439-129.6l1.6-1.6m432.1 136.4h0m32.4 12.2l-2.5-1M569 445l13.3 1.8m-35.5 7.4l5.1-5m-395.7-75.4l-1.5 1.4m772 187.5l-.2-.1" class="I E F G H"/><path d="M943.4 568.2l-.1.8m4.5 1.5l.1-.6m2.2.8l-.1.8m-14.3-5.1v-.8m14.5 6l.1-.8m5.6 2.1l-.1.8" class="J E F G H"/><path d="M941.2 568.2l-.2-.1m-.5.1l-.5.4m-3.5-2.2l-.2-.1m-.6.1l-.4.4" class="I E F G H"/><path d="M956 573.7l.1-.7m-13.4-4l-.1-.7m16.3 6.6l.2-.8m-.3-.1l-.1.8m4.6.9l-.1.7" class="J E F G H"/><path d="M943.5 569.1l-.2-.1m-.6 0l-.4.4" class="I E F G H"/><path d="M949.4 571.5l-.1-.7m10.1 3.5l-.3.7m4.2 1.3l.2-.6" class="J E F G H"/><path d="M959.6 575.7v.2" class="E F G H I"/><path d="M962.8 576.4v-.7" class="E F G H J"/><path d="M960.6 576.1l-.1.2" class="E F G H I"/><path d="M968.3 577.6l-.1.8" class="E F G H J"/><path d="M692.6 286.2l-.6 4.7m1.5 1.6l18.6 7" class="I E F G H"/><path d="M694.1 287.8l-.6 4.7m18.6 7l.5-4.7" class="J E F G H"/><path d="M725 300.2l-2.6 4.9" class="E F G H I"/><path d="M725 300.2l.5-4.7" class="E F G H J"/><g class="I E F G H"><path d="M597.6 454.8l215.9 52m36.4 10.8l149.8 56.5m32.1 7.6l8.2 3.1m6.5-.5l67.9-65.7"/><path d="M1111.3 512.6l-4.3-1.6m12.7-12.4l4.4 1.7m10.3-1l19.7-19m-3.1-6l-17.3-6.5"/></g><path d="M1049.9 435.2l.3-2m46 10.6l.6-4.7" class="J E F G H"/><path d="M750.1 399.9l-2.7 4.9" class="E F G H I"/><path d="M750.1 399.9l.5-4.7" class="E F G H J"/><path d="M792.4 407.6l-37.1-8.9" class="E F G H I"/><path d="M755.3 398.7l.5-4.7m36.6 13.6l.6-4.7" class="J E F G H"/><path d="M948.1 424.6l-5.1 4.9" class="E F G H I"/><path d="M948.1 424.6l.5-4.7m-202.1-16.3l.1-1" class="J E F G H"/><path d="M987.9 436.9L953.8 424" class="E F G H I"/><path d="M953.8 424l.5-4.7m-12.7 9l.3-1.9m46 10.5l.6-4.7" class="J E F G H"/><path d="M801.7 412.3l-2.6 4.9" class="E F G H I"/><path d="M801.7 412.3l.6-4.7" class="E F G H J"/><path d="M844.1 420l-37.1-8.9" class="E F G H I"/><path d="M807 411.1l.5-4.7m36.6 13.6l.5-4.7" class="J E F G H"/><path d="M583.7 391.4l-.6 4.7" class="E F G H I"/><path d="M798.2 416l.1-1" class="E F G H J"/><path d="M584.6 397.7l7.8 2.9" class="E F G H I"/><path d="M585.2 393l-.6 4.7" class="E F G H J"/><path d="M863.5 426.6l-5.1 5m-7.2-98.2l15.2 3.7m-38.6-6.2l15.3 3.7m90.5 147.6l-6.8 6.5m46.6 5.8l-34.1-12.8m31.6 20.3l4.3-4.1m-24-.7l14 5.3M928.6 492l14.1 5.4m81.4-15.1l-6.8 6.6m46.6 5.8l-34.1-12.9m31.6 20.3l4.3-4.1m-24-.6l14 5.2m-36.6-10.4l14.1 5.3m-121.7-57.7l-6.8 6.6m46.6 5.8l-34.1-12.9M832.8 389l2.5-4.7m-22.9 2.2l15.2 3.7m-38.7-6.2l15.4 3.7m-152.5 14.9l-4 7.4m46.4.4l-37.2-9m37.6 16.8l2.5-4.7m-23 2.2l15.2 3.7m-38.6-6.2l15.4 3.7m84.5-21.7l-4 7.4m46.4.3l-37.2-8.9m37.6 16.7l2.5-4.6m-23 2.1l15.2 3.7m-38.6-6.2l15.4 3.7M864 422l-6.7 6.5m118.4 152.1l-1.8.7m3-.5l-.5-.2m.5 1.9l.3-1.4m-19.2-6.8l.3 1.1m.8-1.3l-.3-.1m.8 1.7l-.2-1.4m.3 1.7l-.1-.3m1 .4h-.5m2.7-.4l-2.2.4m2.9-.4h-.2m-1.8 1l1.9-.4m-14.1-5.5l-.9.9" class="I E F G H"/><path d="M986.2 504.2l.5-4.7m-12.7 9l.2-1.9m46.1 10.5l.5-4.7" class="J E F G H"/><path d="M597.1 423L813 475.1" class="E F G H I"/><path d="M597.7 418.2l-.6 4.8" class="E F G H J"/><path d="M1046 552.5l68-65.7" class="E F G H I"/><path d="M1114 486.8l.5-4.7m-85.6 66l.6-4.7m-21.5-5.5l-.5 4.7" class="J E F G H"/><path d="M1039.5 553.1l-8.2-3.1" class="E F G H I"/><path d="M1031.8 545.3l-.5 4.7" class="E F G H J"/><path d="M849.4 485.8l149.8 56.5" class="E F G H I"/><path d="M999.2 542.3l.5-4.7m-149.8-56.5l-.5 4.7m197.2 62l-.6 4.7m-6.5.6l.6-4.7" class="J E F G H"/><path d="M880.5 332.8l-4 7.3m46.4.4l-37.2-8.9m37.6 16.7l2.5-4.7m-23 2.2l15.2 3.7m-38.6-6.2l15.4 3.7" class="I E F G H"/><path d="M1029.1 582.3l.3-2.4" class="E F G H J"/><path d="M1031.5 584.1l8.2 3.1" class="E F G H I"/><path d="M1031.5 584.1l.3-2.4" class="E F G H J"/><path d="M849.6 519.9l149.8 56.5" class="E F G H I"/><path d="M849.6 519.9l.3-2.3m149.5 58.8l.3-2.3m40 13.1l.3-2.4m6.2 1.8l.3-2.3" class="J E F G H"/><path d="M697.3 317.7l-4.5 4.3m1.2 2.3l18.6 7m-10.2 23.9l26.8 6.4m-85.8 8.2l-1.7 1.7m5 3.7l21.5 8.1m-41.1 2.3l-5.6 5.3m9.6 29.1l-3.3 3.2m-15.2 4.7l-8.4-3.2m-14-3.5l-6.3 6m1.2 2.3l7.7 2.9m5.6 10.7l-5.4 5.2m103.2-132.2l-30.1-8.5m-407.5-48.5l-3.7 3.6m-66.2 64l-28.5 27.5m2 2.7l8.2 1.2m25.4 7.1l137.3 19.1m31.8 6.8l170.6 47.6m11.6-2.3l5.3-5.1m18.3-4.5l9 1.3m3.8-1l6.2-6m-1.1-1.6l-18.6-2.6m-3.5-4.9l16.7-16.1m28.3-4.9l5.8.8m3.8-1l5.6-5.3m140.7-77.6l-37.1-8.9" class="I E F G H"/><path d="M730.3 299l.5-4.7m36.6 13.6l.5-4.7m-46.4.7l.1-1" class="J E F G H"/><path d="M776.7 312.6l-2.7 4.9" class="E F G H I"/><path d="M776.7 312.6l.5-4.7" class="E F G H J"/><path d="M819 320.4l-37.1-9" class="E F G H I"/><path d="M781.9 311.4l.5-4.7m36.6 13.7l.6-4.7m-46.5.6l.1-1" class="J E F G H"/><path d="M828.3 325l-2.6 4.9" class="E F G H I"/><path d="M828.3 325l.6-4.7" class="E F G H J"/><path d="M870.7 332.8l-37.1-9" class="E F G H I"/><path d="M833.6 323.8l.5-4.7m36.6 13.7l.5-4.7m-46.4.6l.1-1" class="J E F G H"/><path d="M700.4 316.9l-.5 4.7M880 337.4l-2.7 5" class="I E F G H"/><path d="M880 337.4l.5-4.6" class="E F G H J"/><path d="M922.3 345.2l-37.1-8.9" class="E F G H I"/><path d="M885.2 336.3l.5-4.7m36.6 13.6l.6-4.7m-46.5.6l.1-1" class="J E F G H"/><path d="M728.7 329.9l-26.8-6.5" class="E F G H I"/><path d="M1127.7 423.1l-.5 4.3" class="E F G H J"/><path d="M646.8 375l-2.7 4.9" class="E F G H I"/><path d="M646.8 375l.5-4.7" class="E F G H J"/><path d="M689.1 382.8l-37.1-9" class="E F G H I"/><path d="M652 373.8l.5-4.6m36.6 13.6l.6-4.7" class="J E F G H"/><path d="M900.7 406.7l-5.1 4.9" class="E F G H I"/><path d="M900.7 406.7l.5-4.7m-258-23.3l.1-1" class="J E F G H"/><path d="M940.5 419l-34.1-12.9" class="E F G H I"/><path d="M906.4 406.1l.5-4.6m-12.7 8.9l.2-1.9m46.1 10.5l.5-4.7" class="J E F G H"/><path d="M698.4 387.5l-2.6 4.9" class="E F G H I"/><path d="M698.4 387.5l.5-4.7" class="E F G H J"/><path d="M740.8 395.2l-37.1-8.9" class="E F G H I"/><path d="M703.7 386.3l.5-4.7m36.6 13.6l.5-4.7" class="J E F G H"/><path d="M1154.5 446.9l.6-4.7m-98.7-10.8l-5.1 4.9" class="I E F G H"/><path d="M1056.4 431.4l.5-4.7m-362-35.5l.1-1.1" class="J E F G H"/><path d="M1096.2 443.8l-34.1-12.9" class="E F G H I"/><path d="M1062.1 430.9l.5-4.7m-580.2-59.7l-.7-5m-4.5 3.9l.2 1.5m104.2-13.5l-.3-2.7" class="J E F G H"/><path d="M506 368.9l-19.8-3.3" class="E F G H I"/><path d="M485.6 360.6l.6 5" class="E F G H J"/><path d="M626.1 350.1l-.3-2.1m-5.2 11.1l.3-.3" class="I E F G H"/><path d="M625.8 350.5l-.3-1.8" class="E F G H J"/><path d="M616.8 360l-18.6-2.6" class="E F G H I"/><path d="M597.5 352.4l.7 5m21.7-3.3l.7 5m-3.8.9l-.7-5" class="J E F G H"/><path d="M512.8 368.5l26.8 7.6" class="E F G H I"/><path d="M512.8 368.5l-.7-5m29.8 11l-.3-2.7" class="J E F G H"/><path d="M586.8 360.2l-20.1 19.4" class="E F G H I"/><path d="M586.8 360.2l-.7-5m-20.7 20.1l.5 4" class="J E F G H"/><path d="M589.2 385.8l-.3-2.2m-5.9 11.8l.2-.2" class="I E F G H"/><path d="M588.8 386.1l-.2-1.8" class="E F G H J"/><path d="M698.9 382.8l-3.9 7.3m46.3.4l-37.1-8.9m37.5 16.7l2.5-4.7m-22.9 2.2l15.2 3.7m-38.6-6.2l15.3 3.7m89.1 10.6l-4 7.4m46.3.3l-37.1-8.9m37.5 16.7l2.5-4.6m-22.9 2.2l15.2 3.6m-38.6-6.2l15.3 3.7M738.4 361l-4 7.4m46.4.4l-37.2-9m37.6 16.8l2.5-4.7m-23 2.2l15.2 3.6m370.9 77.5l1.6.6m15.8 5.9l9.5 3.6m3.5 6.7l-134.5 129.9m-11.4 1.1l-199.7-75.3m-1.1-.4l-193.6-46.7m-10.8-4l9.7 3.7m-9.7-3.7l-4 3.9m11 4.1l-11-4.1m11 4.1L825 530.9m5.5 1.7l202.9 76.6m152.7-137.4l-141.2 136.3m104.5-155.5l33.1 12.5M299.8 215.8l4.3-4.1" class="I E F G H"/><path d="M304.1 211.7l-.7-5m-6.5 8.5l-.2-2" class="J E F G H"/><path d="M309.8 210.3l32.6 4.5" class="E F G H I"/><path d="M309.8 210.3l-.7-5m34.5 8.3l-.5-3.6m172.7 92.7l-.3-2.7" class="J E F G H"/><path d="M650.1 278l26.8 7.6" class="E F G H I"/><path d="M650.1 278l-.7-5m-235.3 44.5l-.4-2.6" class="J E F G H"/><path d="M696.4 282.2l-.3-2.1m-114.9 19.8l6.8-4.5" class="I E F G H"/><path d="M588 295.4l-.7-5m91.9-6.4l-.4-2.7" class="J E F G H"/><path d="M337 335.3l-.7-4.7m45-6.4l.7 5" class="I E F G H"/><path d="M578.5 299.1l-.4-2.7" class="E F G H J"/><path d="M383.4 330.1l.9.1" class="E F G H I"/><path d="M382.8 325.1l.6 5" class="E F G H J"/><path d="M429.6 313l26.8 7.5" class="E F G H I"/><path d="M429.6 313l-.7-5m-92.4 27.2l-.5-3.9m50.6-3.3l-.4-2.5" class="J E F G H"/><path d="M691 291l1.1-1" class="E F G H I"/><path d="M696 282.6l-.2-1.8" class="E F G H J"/><path d="M514.9 313.5l6.8-4.4" class="E F G H I"/><path d="M521.7 309.1l-.7-5m-187.2 29.3l.2 1.3M690.3 286l.7 5m-232.3 28l-.3-2.8m53.7-3.5l-.3-2.6" class="J E F G H"/><path d="M594 294.6l26.8 7.5" class="E F G H I"/><path d="M594 294.6l-.7-5.1m29.8 11.1l-.3-2.8" class="J E F G H"/><path d="M309.1 205.3l34 4.7m1.8 2.4l-4.3 4.1m-5.7 1.4L321 216m-8.5 1.6l-14.1-2M259.6 236l6.7-6.5m5.7-1.4l34 4.7m1.7 2.4l-4.2 4.1m-5.7 1.4l-13.9-1.9m-8.5 1.6l-14.1-1.9m-38.9 20.3l6.8-6.5m5.7-1.4l34 4.7m1.7 2.4l-4.2 4.1m-5.7 1.4l-13.9-1.9m-8.6 1.6l-14-1.9m-27.1 22l6.8-6.6" class="I E F G H"/><path d="M349.7 245.9l-.7-5m-79.6 18.3l-.5-3.6m73.6-6.1l-.2-2" class="J E F G H"/><path d="M355.4 244.5L388 249" class="E F G H I"/><path d="M355.4 244.5l-.7-5" class="E F G H J"/><path d="M465.9 238.1l4.3-4.1" class="E F G H I"/><path d="M470.2 234l-.7-5m-80.3 18.9l-.5-3.7m74.3-6.7l-.3-2" class="J E F G H"/><path d="M475.9 232.6l32.6 4.5" class="E F G H I"/><path d="M475.9 232.6l-.7-5.1m34.5 8.4l-.5-3.7" class="J E F G H"/><path d="M200.3 285.9l4.3-4.1" class="E F G H I"/><path d="M204.6 281.8l-.7-5.1" class="E F G H J"/><path d="M404.5 258.3l4.3-4.2" class="E F G H I"/><path d="M408.8 254.1l-.7-5m-210.7 36.2l-.3-2m204.5-25.7l-.3-2" class="J E F G H"/><path d="M210.3 280.3l32.6 4.6" class="E F G H I"/><path d="M210.3 280.3l-.7-5" class="E F G H J"/><path d="M414.5 252.7l32.6 4.5" class="E F G H I"/><path d="M414.5 252.7l-.7-5" class="E F G H J"/><path d="M314.2 273.7l4.3-4.1" class="E F G H I"/><path d="M318.5 269.6l-.7-5" class="E F G H J"/><path d="M514.4 248.9l6.8-4.5" class="E F G H I"/><path d="M521.2 244.4l-.7-5m-276.4 44.3l-.5-3.7m204.7-24l-.5-3.6" class="J E F G H"/><path d="M531.2 508.9l70.4 18.1m-73.5-40.4l.3 18.9" class="I E F G H"/><path d="M599.5 461.4l-1 8.1" class="E F G H J"/><path d="M1101.2 533.5l-.3 2.7" class="E F G H I"/><path d="M1108.1 538.8l1.1-9.7m-515-62.7l-.2 1.9m519.2 65.6l.3-3.1" class="J E F G H"/><path d="M1121.2 517.6l4.3 1.6m-12 11.6l-4.3-1.7" class="I E F G H"/><path d="M865.4 538.8l-.2.7m3.5.6l-.2.7" class="J E F G H"/><path d="M505.9 445.6l120.2 31m-124.2-27.1l4-3.9m362.6 96v-.3" class="I E F G H"/><path d="M872.7 541.5l-.1.8m4.5 1.5l.1-.6m-12.5-3.6l-.1-.8m5.2 2.8l-.1.4" class="J E F G H"/><path d="M864.9 540.2l.6-.6m-128-199.2l15.3 3.7m206.1 113.6l-6.8 6.6m46.6 5.8l-34.1-12.9m31.6 20.3l4.3-4.1m-24-.6l14 5.2m-36.6-10.4l14.1 5.3m13 27.2l-6.8 6.5m46.6 5.8l-34.1-12.9m31.6 20.4l4.3-4.2m-23.9-.6l13.9 5.3M976 509.9l14.1 5.4m-103.9-51l-6.8 6.5m46.6 5.8l-34.1-12.8m31.6 20.3l4.2-4.1m-23.9-.7l13.9 5.3" class="I E F G H"/><path d="M702.5 318.7l-.6 4.7m26.8 6.5l.6-4.7" class="J E F G H"/><path d="M940 352.7l-5 4.9" class="E F G H I"/><path d="M940 352.7l.6-4.7" class="E F G H J"/><path d="M979.9 365l-34.1-12.8" class="E F G H I"/><path d="M945.8 352.2l.5-4.7m-12.7 9l.2-2m46.1 10.5l.5-4.7" class="J E F G H"/><path d="M738 334.5l-2.6 5" class="E F G H I"/><path d="M738 334.5l.5-4.6" class="E F G H J"/><path d="M780.4 342.3l-37.2-9" class="E F G H I"/><path d="M743.2 333.3l.6-4.6m36.6 13.6l.5-4.7m-46.4.6l.1-1" class="J E F G H"/><path d="M789.7 347l-2.7 4.9" class="E F G H I"/><path d="M789.7 347l.5-4.7" class="E F G H J"/><path d="M832 354.7l-37.1-8.9" class="E F G H I"/><path d="M794.9 345.8l.5-4.7m36.6 13.6l.6-4.7" class="J E F G H"/><path d="M986.8 371.2l-5 4.9" class="E F G H I"/><path d="M986.8 371.2l.6-4.7m-201.3-15.8l.1-1" class="J E F G H"/><path d="M1026.7 383.5l-34.1-12.8" class="E F G H I"/><path d="M992.6 370.7l.5-4.7M885.8 547.5l-.1-.7" class="J E F G H"/><path d="M886.6 547.6l-.2-.1m-.6 0l-.4.5" class="I E F G H"/><path d="M901.7 552.4l-.2.8m.2.1l.1-.8m2.2.8l-.2.8m4.5 1.5l.1-.6m-12.2-3.5l-.1-.8m14.6 5.2l-.1.7m-9.7-3.3v-.8m-3.3-1.4l-.2.7m16.6 5.4l-.1.7" class="J E F G H"/><path d="M901.7 553.3l-.2-.1m-.6.1l-.4.4m-3-1.2l-.1-.7m-.3-.2l-.4-.2m-.5.1l-.5.4" class="I E F G H"/><path d="M903.2 554.1v-.7m-39.7-126.8l.5-4.6" class="J E F G H"/><path d="M903.3 439l-34.1-12.9" class="E F G H I"/><path d="M869.2 426.1l.6-4.7" class="E F G H J"/><path d="M1133.9 467.6l19.7-19.1" class="E F G H I"/><path d="M1153.6 448.5l.6-4.7M857 430.4l.3-1.9m46 10.5l.6-4.7" class="J E F G H"/><path d="M1123.6 468.5l-4.3-1.6m-468.1-59.6l-2.6 4.9" class="I E F G H"/><path d="M651.2 407.3l.6-4.7" class="E F G H J"/><path d="M693.6 415.1l-37.1-9" class="E F G H I"/><path d="M656.5 406.1l.5-4.7m36.6 13.7l.6-4.7m440.2 52.5l-.5 4.7m-10.3.9l.5-4.7" class="J E F G H"/><path d="M1025.1 453.6l-5 4.9" class="E F G H I"/><path d="M1025.1 453.6l.6-4.7m-433.3-48.3l.5-4.7m54.8 15.1l.1-1" class="J E F G H"/><path d="M1065 466l-34.1-12.9" class="E F G H I"/><path d="M1030.9 453.1l.5-4.7m-12.7 9l.2-1.9M1065 466l.5-4.7" class="J E F G H"/><path d="M910.9 444.5l-5.1 4.9M689 291.9l-27.1 4.8" class="I E F G H"/><path d="M689 291.9l-.7-5" class="E F G H J"/><path d="M527.6 308.2l26.9 7.5" class="E F G H I"/><path d="M527.6 308.2l-.6-5m134.2-11.5l.7 5" class="J E F G H"/><path d="M457.8 329.8l6.8-4.5" class="E F G H I"/><path d="M464.6 325.3l-.7-5m92.9-6.1l-.4-2.7M455 329l-.3-2.7" class="J E F G H"/><path d="M332.6 352.5l-137.3-19" class="E F G H I"/><path d="M194.6 328.5l.7 5m137.3 19l-.6-5" class="J E F G H"/><path d="M470.5 324.4l26.9 7.6" class="E F G H I"/><path d="M470.5 324.4l-.6-5" class="E F G H J"/><path d="M555.9 325l6.8-4.4" class="E F G H I"/><path d="M562.7 320.6l-.7-5m-62.3 14.9l-.4-2.8m53.8-3.5l-.4-2.6m-212.5 24.7l.7 5" class="J E F G H"/><path d="M361.1 352.1l.6 5m206.9-37.4l26.9 7.5" class="I E F G H"/><path d="M568.6 319.7l-.7-5" class="E F G H J"/><path d="M498.8 341.2l6.8-4.4" class="E F G H I"/><path d="M505.6 336.8l-.7-5" class="E F G H J"/><g class="I E F G H"><path d="M645.3 303.8l-23.4 22.6M484.4 223.8l-160.9-22.2m-24.9 7.4l3.9-3.8m-25.5 5.7l9 1.2m-19.3 1.3l-19.9 19.3m-19.6 18.8l-68.1 65.9m1.9 2.8l8.2 1.1M332 347.5l-137.4-19m169.2 25.7l170.7 47.7m16.8-7.3l-5.2 5"/><path d="M462.7 235.5l6.8-6.5m5.7-1.5l34 4.7"/></g><path d="M1164.2 461.7l-1 8.2m-28.3-1.7l.2-1.7m12.4-2.5l.9-8.2m16.6 21.9l-.2 1.9m-7.7 0l.3-2.6" class="J E F G H"/><path d="M1187.5 496.5l-.4-26.9" class="E F G H I"/><path d="M1172.8 473.5l.9-8.2m-12.9 3.1l1-8.2m-10-3.8l-1 8.2m16.5 15.6l.2-1.5" class="J E F G H"/><path d="M334 433.1l-190.9-49.2m-21.9 11.9l17.4-16.7m40.1 27.3h0M1153 494l-8.7-2.2m23-11.6l-2.5-.6" class="I E F G H"/><path d="M1152.8 495.5l.2-1.5m-629 15.7l4.4-4.2m-2.6-19.4l-2.1 2.1M311.3 273.1l-.3-2" class="J E F G H"/><path d="M324.2 268.2l32.6 4.5" class="E F G H I"/><path d="M324.2 268.2l-.7-5m188.2-15.1l-.4-2.6m-153.3 26l-.5-3.6" class="J E F G H"/><path d="M527.2 243.6l26.8 7.5" class="E F G H I"/><path d="M527.2 243.6l-.7-5" class="E F G H J"/><path d="M458.3 265.4l6.8-4.4" class="E F G H I"/><path d="M465.1 261l-.7-5m91.9-6.4l-.4-2.8m-100.3 17.8l-.4-2.6" class="J E F G H"/><path d="M379.2 282.7l4.3-4.1" class="E F G H I"/><path d="M383.5 278.6l-.7-5" class="E F G H J"/><path d="M471.1 260.1l26.8 7.5" class="E F G H I"/><path d="M471.1 260.1l-.7-5" class="E F G H J"/><path d="M293.6 293.6l-.6-5m-.3.3l.7 5m262-33.5l6.8-4.5" class="I E F G H"/><path d="M562.2 255.9l-.7-5m-185.2 31.2l-.3-2m124.2-14l-.3-2.7" class="J E F G H"/><path d="M389.2 277.2l32.6 4.5" class="E F G H I"/><path d="M389.2 277.2l-.7-5.1" class="E F G H J"/><path d="M288.9 298.2l4.3-4.2" class="E F G H I"/><path d="M293.2 294l-.7-5m260.1-29.4l-.3-2.6" class="J E F G H"/><path d="M903.9 434.3l-34.1-12.9m31.6 20.3l4.2-4.1m-23.9-.6l13.9 5.3M859 431.8l14.1 5.3m75.5-17.2l-6.7 6.5m46.6 5.8l-34.2-12.9m31.6 20.3l4.3-4.1m-23.9-.6l13.9 5.3m-36.6-10.5l14.1 5.4m99.2-8.4l-6.7 6.5m46.6 5.9l-34.2-12.9m31.6 20.3l4.3-4.1m-23.9-.6l13.9 5.2m-36.6-10.4l14.1 5.3m-115.8-55.4l-6.7 6.5m-318-9.2l-28.2-3.9m10.8-11.6l29.3 4m3.8-.9l1.9-1.8m-12.9-5.2l-5-.7m6.6-14.6l9.1-8.8m21.5-11.9l27-4.7m2.1-.9l5.4-5.2" class="I E F G H"/><path d="M295.6 237.4l.5 3.1m-55.2 44.1l.1.9m-4.1.2l-.2-1.6" class="J E F G H"/><path d="M676 304.8v3.1" class="E F G H I"/><path d="M156.2 373.8l.2 1.7" class="E F G H J"/><path d="M189.8 380.1l-.1-.8" class="E F G H I"/><path d="M652 308.2l-.3-2.1m-502 64l.5 4" class="J E F G H"/><path d="M138.5 375.1l.1 5.1" class="E F G H I"/><path d="M359.4 392.1v-2.6" class="E F G H J"/><path d="M359.4 389.5l-1.3 1.3" class="E F G H I"/><path d="M659.3 334.7l-.4-2.9m-4-25l.2 1.4m-297 82.6v1.2" class="J E F G H"/><path d="M729.3 325.2l-26.8-6.5m27.2 14.3l2.5-4.7m-23 2.2l15.2 3.7m-38.6-6.2l15.4 3.7m-21.7-4.4l-4.7 4.6m-25.6-.7l6.5 2.4m-14 1.4l3.7-3.5m-2.5 5.7l28.6 10.8m-10.7 12L631 348.8m-9.4 5.7l5.6-5.4m-4.4 7.6l18.6 7m3.5 6.7l-20.8 20m-11.4 1l-18.6-7m-434.4-29l.3 2.5m2.5 1.5l8.2 1.2" class="I E F G H"/><path d="M162.5 359.4l-.3-2.5" class="E F G H J"/><path d="M885.6 469l-5.1 4.9" class="E F G H I"/><path d="M885.6 469l.6-4.7" class="E F G H J"/><path d="M925.4 481.3l-34.1-12.8" class="E F G H I"/><path d="M891.3 468.5l.6-4.7" class="E F G H J"/><path d="M1023.6 487l-5.1 4.9" class="E F G H I"/><path d="M1023.6 487l.5-4.7m-144.9-9.5l.2-2m46 10.5l.6-4.7" class="J E F G H"/><path d="M1063.4 499.4l-34.1-12.9" class="E F G H I"/><path d="M1029.3 486.5l.5-4.7m-12.7 9l.2-1.9m46.1 10.5l.5-4.7" class="J E F G H"/><path d="M933 486.9l-5 4.9" class="E F G H I"/><path d="M933 486.9l.6-4.7" class="E F G H J"/><path d="M845.9 476.8l-.5 4.7m127.5 17.7l-34.1-12.8" class="I E F G H"/><path d="M938.8 486.4l.5-4.7m-12.7 8.9l.2-1.9m46.1 10.5l.5-4.7" class="J E F G H"/><path d="M980.5 504.8l-5.1 4.9" class="E F G H I"/><path d="M980.5 504.8l.5-4.7" class="E F G H J"/><g class="I E F G H"><path d="M1020.3 517.1l-34.1-12.9m46.4 138l-4-1m.4-.5l4.2 1.1"/><path d="M1033.2 641.8h0m-63.1-28.3v2.5m19.8-.3v-2.5"/></g><path d="M830.5 532.6l.4 28.8m202.5 47.8l.1 4.4" class="J E F G H"/><path d="M1033.2 641.8l-.1-5m.1 5l24.8-19.1m0 0l128.5-124.1" class="I E F G H"/><path d="M1186.5 498.6l-.4-26.8M1045 611.7l-.1-3.6" class="J E F G H"/><path d="M1033.1 636.8l-6.3 6.1m-36.9-27.2h0m-260.2-68.2l-95.8-12.9m411.1 77.1l-18.4 17.8m6.9-15.9l-202.6-52.2m-5.4-1.1l-59.1-7.9m-13 4.9l2.8-2.6" class="I E F G H"/><path d="M1026.6 629.5l.2 13.4" class="E F G H J"/><g class="I E F G"><path d="M1011.3 632c5.5 1.4 12.4.3 15.3-2.5m-153.9-88c-.3-.1-.6 0-.8 0m5.6 2.2c.1-.1 0-.3-.2-.5m-.7.6c.3.1.6 0 .8 0m9.1 2.9c-.3-.1-.6 0-.8 0m1.3.5c.1-.1 0-.3-.2-.5m10.1 3.9c-.3-.1-.6 0-.8 0m1.5.5c0-.1-.1-.2-.3-.3m4.4 1.6c-.3-.1-.6 0-.8 0m1.2.6c.1-.1 0-.3-.2-.5m8.8 3.4c-.3-.1-.6 0-.8 0m4.1 1.3c-.4-.2-.8-.4-1.2-.5m2.1 1.2c-.2-.3-.5-.5-.9-.7m1.1 1.4c0-.2 0-.5-.2-.7m41-171.9c-2.1-.8-4.6-.5-5.7.5m41.6 15.6c1.1-1.1.3-2.6-1.7-3.3m-8.3 8c2.1.8 4.6.5 5.7-.5m-19.6-4.8c-1.1-.4-2.5-.4-3.4 0m-5.2.2c1.7.6 3.8.6 5.1 0m-20.9-8.7c-1.1 1.1-.3 2.6 1.7 3.3m47.9-30.3c-2.1-.8-4.6-.5-5.7.5m41.6 15.7c1.1-1.1.3-2.6-1.7-3.3" class="H"/><path d="M1019 386.8c2.1.8 4.6.5 5.7-.5m-19.7-4.8c-1.1-.4-2.5-.4-3.4 0m-5.1.2c1.7.6 3.8.6 5.1 0m-21-8.7c-1.1 1.1-.3 2.6 1.7 3.3m-73.8-8.2c-2.1-.8-4.6-.5-5.7.5m41.6 15.7c1.1-1.1.3-2.6-1.7-3.3m-8.3 7.9c2.1.8 4.6.5 5.7-.5m-19.7-4.8c-1.1-.4-2.5-.4-3.4 0m-5.1.2c1.7.6 3.8.6 5.1 0m-21-8.7c-1.1 1.1-.3 2.6 1.7 3.3m-63.7 8.4c-.5-.4-1.3-.7-2.1-.9m14.5 3.4c-2.2-.5-4.6 0-5.2 1.2m161.6 18c-2.1-.8-4.6-.5-5.7.5m121.4 6.3c-2.1-2.5-7.2-3.9-11.4-3-1.3.3-2.4.7-3.3 1.3m-218.2-14.4c-.5-.4-1.3-.7-2.1-.9m-239.1-27.5c-.8-1-2-1.8-3.6-2.4m11.2 5.4c-2.2-.5-4.6 0-5.2 1.2m259.6 31.1c-2.1-.8-4.6-.5-5.7.5m136.8 15.1c-.2 0-.4-.2-.6-.3m-143.4 128c-.9-.7-2.3-1.1-3.7-1.2m4.2 1.8c-.1-.2-.3-.4-.5-.6m.7 1.3c0-.2 0-.4-.1-.6m0 .7v-.2m-.5.5c.3 0 .5 0 .5-.2m-1.3-.3v.1m0-.1v-.3m0 0c0-.2-.2-.4-.4-.5m0 0c-.3-.2-.7-.4-1.1-.6m0 0c-.4-.1-.9-.2-1.4-.2m0 0h-.5m0 0c-.3 0-.6 0-.8.2m-10.5-4.2s-.1.1-.1.2m2.2-.7c-.9 0-1.7.1-2.1.5m5.1.6c-.8-.6-1.9-1-3.1-1.1m3.5 1.5c0-.1-.2-.3-.4-.4m.6.8c0-.1 0-.3-.2-.4m.1.9c0-.2.1-.3 0-.5m-.7.7c.3 0 .6 0 .7-.2m-1.3-.3c0 .1 0 .2.1.3" class="H"/><path d="M882.4 546.6v-.4m0 0c0-.2-.2-.3-.5-.5m0 0c-.5-.3-1-.4-1.6-.5m0 0c-.4 0-.8 0-1 .2" class="H"/><path d="M879.3 545.4s-.1.2 0 .2m-13.9-6.8c-.3-.1-.6 0-.8 0m4.1 1.3c-.4-.2-.8-.4-1.2-.5m2.1 1.2c-.2-.3-.5-.5-.9-.7m1.1 1.5c0-.3 0-.5-.2-.8m.1 1.2c0-.1 0-.3.1-.4M512 271.6c-1.8-.5-4.4-.1-5.9.9m-60.4 12.7c-1.8-.5-4.4-.1-5.9.9m-280.6 37.5c.1.8 1.1 1.3 2.5 1.5m88.3-11.3c-2.1-.3-4.6.3-5.7 1.4m-74.4 11.1c1.1.2 2.5 0 3.7-.2m435.5-59.6c-1.8-.5-4.4-.1-5.9.9M351.9 297c-3.3-1.2-8.6-.6-11.9 1.2-.3.2-.5.3-.8.5m36.5 4.5c-2.1-.3-4.6.3-5.7 1.4m141.3-59.1c-1.5 1-1.3 2.2.5 2.7m14.7-9.6c-1.8-.5-4.4-.1-5.9.9m35.8 10c1.5-1 1.3-2.2-.5-2.7m-11.2 7.4c1.8.5 4.4.1 5.9-.9m-18-2.5c-1-.3-2.4-.1-3.5.3m-5.1.5c1.5.4 3.6.2 5.2-.5m-74 10.9c-1.5 1-1.3 2.2.5 2.7m14.7-9.6c-1.8-.5-4.4-.1-5.9.9m35.9 10c1.5-1 1.3-2.2-.5-2.7m-11.3 7.4c1.8.5 4.4.1 5.9-.9m-17.9-2.5c-1-.3-2.4-.1-3.5.3m-5.2.5c1.5.4 3.6.2 5.2-.5m-43.3 19.5c-1.5 1-1.3 2.2.5 2.7m14.7-9.6c-1.8-.5-4.4-.1-5.9.9m35.9 10.1c1.5-1 1.3-2.2-.5-2.7m-11.3 7.3c1.8.5 4.4.1 5.9-.9m-17.9-2.4c-1-.3-2.4-.1-3.5.3m-5.2.4c1.5.4 3.6.2 5.2-.5m428.8 47.4c-.6 1.2.6 2.6 2.9 3.2m-148.6-49c-2.2-.5-4.6 0-5.2 1.2m45.2 10.9c.6-1.2-.6-2.6-2.9-3.2m-4.8 9c2.2.5 4.6 0 5.2-1.2m-20.4-2.4c-1.2-.3-2.6-.1-3.2.5m-4.9.6c1.9.4 3.9.2 4.8-.7m-23-6.1c-.6 1.2.6 2.6 2.9 3.2m122.6 47.4c-2.2-.5-4.6 0-5.2 1.2m45.2 10.9c.6-1.2-.6-2.6-2.9-3.2m-4.8 9c2.2.5 4.6 0 5.2-1.2m-20.4-2.4c-1.2-.3-2.6-.1-3.2.5m-4.9.6c1.9.4 3.9.2 4.8-.7m-23-6.1c-.6 1.2.6 2.6 2.9 3.2m-97-36.6c-2.2-.5-4.6 0-5.2 1.2m45.2 10.8c.6-1.2-.6-2.6-2.9-3.2m-4.8 9.1c2.2.5 4.6 0 5.2-1.2m-20.4-2.5c-1.2-.3-2.6-.1-3.2.5m-4.9.7c1.9.4 3.9.2 4.8-.7m-23.2 25c-.6 1.2.6 2.6 2.9 3.2m109.6 13.1c-2.2-.5-4.6 0-5.2 1.2m45.3 10.8c.6-1.2-.6-2.6-2.9-3.2m-4.9 9.1c2.2.5 4.6 0 5.2-1.2m-20.4-2.5c-1.2-.3-2.6-.1-3.2.5m-4.8.7c1.9.4 3.9.2 4.8-.7m-23.1-6.2c-.6 1.2.6 2.6 2.9 3.2M1059 393c2.6-1.9 1.7-5-2.2-6.7s-9.1-1.7-11.8.3-1.7 5 2.2 6.7c3.7 1.7 8.7 1.7 11.5 0" class="H"/><path d="M1064.2 392.8c-1.8-.7-4-.6-5.3.2m41.2 16c1.1-1.1.3-2.6-1.7-3.3m-8.3 7.9c2.1.8 4.6.5 5.7-.5m-19.6-4.7c-1.1-.4-2.5-.4-3.4 0m-5.2.1c1.7.6 3.8.6 5.1 0m-20.9-8.6c-1.1 1.1-.3 2.6 1.7 3.3m5.2-10l-.2.2" class="H"/><use href="#B"/><g class="H"><path d="M834.1 319.1c-2.2-.5-4.6 0-5.2 1.2m45.2 10.9c.6-1.2-.6-2.6-2.9-3.2m78.9 242.7c-.3-.1-.6 0-.8 0m1.2.5c.1-.1 0-.3-.2-.5m-13.8-5.1c-.3-.1-.6 0-.8 0m1.2.5c.1-.1 0-.3-.2-.5m4.5 1.7c-.3-.1-.6 0-.8 0m1.2.6c.1-.1 0-.3-.2-.5m-21.1-8c-.3-.1-.6 0-.8 0m4.2 1.5c-.3-.2-.7-.4-1.1-.5m1.7 1.3c0-.3-.2-.6-.6-.8"/><path d="M924.3 562v-.3m-.2.6s.2-.2.2-.3m-.5.5s.2-.1.2-.2m-20-9c-.3-.1-.6 0-.8 0m5.5 2.1c.1-.1 0-.3-.2-.5m-.7.7c.3.1.6 0 .8 0m-20.8-7.1c-.2 0-.4.1-.5.2m2.5-.4c-.7 0-1.4 0-1.9.2M387.4 327.2c.7-.7.2-1.4-1.2-1.6m-15 14.4c1.4.2 3.1-.2 3.8-.9m-41.2-5.7c-.7.7-.2 1.4 1.2 1.6m1-3.7c.7-.7.2-1.4-1.2-1.6h-.3m-.4-.1h.4m-14.3-1.9c-1.1-.2-2.5.1-3.4.6m-5.1 1c1.7.2 3.8-.2 5.1-1m-20.9-3.4c-1.1 1.1-.3 2.2 1.7 2.4m10.8-10.3c-2.1-.3-4.6.3-5.7 1.4"/></g><path d="M467.2 379.6c.3 2.1 4.3 3.3 8.9 2.7 4.7-.6 8.2-2.9 7.9-5s-4.3-3.3-8.9-2.7c-4.7.6-8.2 2.9-7.9 5h0z"/><path d="M692.2 325c0 .6.5 1.2 1.5 1.6m6.4 29.2c0 .7.8 1.5 2 1.8m27.4 6.5c-.2 0-.4-.1-.6-.2m424.9 118.7c.5-.5.8-1.1.9-1.7m-571.4-50.7c0 .6.5 1.2 1.5 1.6m539 70.8c3.7 1.4 8.3 1 10.3-.9m-534.4-60.4c-.4-2.6-3.1-5-7.1-6.5m526.9 66.2c-6.6-2.5-14.8-1.7-18.3 1.7a6.78 6.78 0 0 0-1.3 1.8m-508.1-52.2c-.2 2 2.1 4 5.5 4.8m516.9 63.8c.5-.5.8-1.1.9-1.7m-301.9-10c3 .7 6.2.4 8.1-.8m24.3 6.9c.3-4.1-5.4-8.1-12.9-8.9-4.4-.5-8.6.3-11.3 2m24.2 7.1c-.2 1.7 1.3 3.4 4 4.4m149.8 56.5c2.7 1 5.9 1.1 8.3.2m21.4 5.7c.4.7 1.2 1.4 2.4 1.8m-2.4-1.8c-2-4.2-9.5-7.1-16.7-6.6-1.7.1-3.3.5-4.7 1M537.1 285c-1.5 1-1.3 2.2.5 2.7m14.7-9.6c-1.8-.5-4.4-.1-5.9.9m35.9 10c1.5-1 1.3-2.2-.5-2.7m-11.3 7.4c1.8.5 4.4.1 5.9-.9m-17.9-2.5c-1-.3-2.4-.1-3.5.3m-5.2.5c1.5.4 3.6.2 5.2-.5" class="H"/><use href="#C"/><path d="M342 321.6c1.1.2 2.5-.1 3.4-.6m3.4-.6c-1.1-.2-2.5.1-3.4.6m4.6-.5c1.4.2 3.1-.2 3.8-.9m8.5-8.2c1.3-1.2 1.3-2.5.2-3.5m0-1.7c-.6.6-.7 1.3 0 1.8m12.5-9.8c-2.1-.3-4.6.3-5.7 1.4m41.4 5.8c1.1-1.1.3-2.2-1.7-2.4m-8.2 7.9c2.1.3 4.6-.3 5.7-1.4m-8.7 1c-1.4-.2-3.1.2-3.8.9m-12.4 12c-.7.7-.2 1.4 1.2 1.6" class="H"/><path d="M172.9,405c0-1.2-1.9-2.1-4.1-2-2.3,0-4.1,1-4.1,2.1s1.9,2.1,4.1,2c2.3,0,4.1-1,4.1-2.1h0Z"/><path d="M175.8,404.4c-.6-2-4.2-3.3-8-3-3.1.3-5.6,1.6-6,3.2" class="H"/><use href="#D"/><path d="M158.8,404.2c0,2.8,4.5,5,10,4.9,5.5,0,9.9-2.4,9.8-5.2s-4.5-5-10-4.9-9.9,2.4-9.8,5.2h0Z"/><path d="M697.1 316.6c.4.2.9.4 1.4.5m-46.8-11c.9.4 2 .6 3.2.6m4.7.8c-1.4-.5-3-.7-4.7-.8" class="H"/><path d="M398.2,463.1c0-1.2-1.9-2.1-4.1-2s-4.1,1-4.1,2.1c0,1.2,1.9,2.1,4.1,2,2.3,0,4.1-1,4.1-2.1h0Z"/><path d="M401.1 462.6c-.6-2-4.2-3.3-8-3-3.1.3-5.6 1.6-6 3.2m-1.8-2.9c-2.6 2.5-.7 5.5 4.1 6.8 4.5 1.2 10 .4 12.9-1.8m12.9-1c-3.7-1.5-9.3-1.2-12.4.7-.2.1-.4.2-.5.4m-14.2-7.7c1.9-1.9 1.1-4.2-2.1-5.5" class="H"/><use href="#D" x="225.4" y="58.1"/><g class="H"><path d="M637.8 374.8c.9.1 2 0 2.8-.4m-32.1-3.6c-6.2-.9-13.8 1-17.1 4.2-.7.6-1.1 1.3-1.3 2m-23.3 37.5c-.3.3-.5.6-.7.9m13.9 15.2c1.1.2 2.4 0 3.3-.6m-12.3-.7c-6.6-.9-14.8 1.1-18.3 4.5m-16.8 7.4c3.2.9 8 .2 10.7-1.6.3-.2.6-.5.9-.7m275-120.1c.6-1.2-.6-2.6-2.9-3.2m-4.9 9.1c2.2.5 4.6 0 5.2-1.2m-20.4-2.5c-1.2-.3-2.6-.1-3.2.5m-4.8.7c1.9.4 3.9.2 4.8-.7m-23.1-6.2c-.6 1.2.6 2.6 2.9 3.2M958.2 363c-1.1-.4-2.5-.4-3.4 0m-5.1.2c1.7.6 3.8.6 5.1 0m-21-8.7c-1.1 1.1-.3 2.6 1.7 3.3m10.8-10.3c-2.1-.8-4.6-.5-5.7.5m41.6 15.7c1.1-1.1.3-2.6-1.7-3.3m-8.3 7.9c2.1.8 4.6.5 5.7-.5m-393.9 23c-.7.7-.2 1.7 1.2 2.2m13.3 13.6c3.5-3.4 1-8.2-5.6-10.7m.2 15.9c-2 1.9-.6 4.6 3.1 6 .5.2 1 .3 1.5.4m216 52.1c3 .7 6.2.4 8.1-.8m24.1 7.2c.6-4.1-5-8.2-12.5-9.1-4.5-.6-8.9.2-11.7 1.9m24.2 7.2c-.2 1.7 1.3 3.4 4 4.4m149.8 56.5c2.7 1 5.9 1.1 8.3.2m21.5 5.6c-2-4.2-9.5-7.1-16.7-6.6-1.7.1-3.3.5-4.7 1m-4.7-134c-2.1-.8-4.6-.5-5.7.5m41.5 15.7c1.1-1.1.3-2.6-1.7-3.3m-8.3 8c2.1.8 4.6.5 5.7-.5"/><path d="M1015.3 419.4c-1.1-.4-2.5-.4-3.4 0m-5.2.1c1.7.6 3.8.6 5.1 0m-20.9-8.6c-1.1 1.1-.3 2.6 1.7 3.3m38.8 34.2c-2.1-.8-4.6-.5-5.7.5m41.6 15.7c1.1-1.1.3-2.6-1.7-3.3m-8.3 7.9c2.1.8 4.6.5 5.7-.5m-19.7-4.7c-1.1-.4-2.5-.4-3.4 0m-5.1.1c1.7.6 3.8.6 5.1 0m-21-8.6c-1.1 1.1-.3 2.6 1.7 3.3m-113.7-57.3c-2.1-.8-4.6-.5-5.7.5m41.6 15.7c1.1-1.1.3-2.6-1.7-3.3m-8.3 7.9c2.1.8 4.6.5 5.7-.5m-19.7-4.8c-1.1-.4-2.5-.4-3.4 0m-5.1.2c1.7.6 3.8.6 5.1 0m-323.6 35.1c-5.1-1.5-10.8-.5-12.8 2.1s.6 6.1 5.7 7.6c4.7 1.4 9.9.7 12.3-1.6m0 0c.7-.6 1.1-1.4 1.1-2.2"/><path d="M598.1 458.3v-1m245.6 74.9a1.93 1.93 0 0 0 .3-1m0 0c.3-3-3.8-6-9.2-6.6-3.4-.4-6.7.2-8.7 1.6m201.6 75.5a1.93 1.93 0 0 0 .3-1m0-.1c.3-3-3.8-6-9.2-6.6-3-.3-6 0-8 1.2m20 5.8c0 .6 0 1.3.4 1.9m-.4-1.9c.5-3.9-4.7-7.7-11.7-8.5-3.2-.4-6.3-.1-8.8.8m-3.1.6c1.1 0 2.2-.3 3.1-.6m-163.5-61.7c0 .6 0 1.3.4 1.9m-.4-1.9c.5-3.9-4.7-7.7-11.7-8.5-4.2-.5-8.2.1-10.9 1.7m-230-58.4c-.5.5-.9 1.1-1 1.7m6.3-6.7c1-1 1.5-2.2 1.5-3.4m.3 50.2c0-1.5-1.3-3-2.8-3.4m.4 26.9c1.5.4 2.7-.5 2.7-2m-77.6-20c0 1.5 1.3 3 2.8 3.4m-.4-26.9c-1.5-.4-2.7.5-2.7 2m-110-173.3c-1.5 1-1.3 2.2.5 2.7m14.7-9.6c-1.8-.5-4.4-.1-5.9.9m35.9 10c1.5-1 1.3-2.2-.5-2.7m-11.3 7.4c1.8.5 4.4.1 5.9-.9m-18-2.5c-1-.3-2.4-.1-3.5.3m-5.1.5c1.5.4 3.6.2 5.2-.5m-6.4 29.8c-1.5 1-1.3 2.2.5 2.7m14.7-9.6c-1.8-.5-4.4-.1-5.9.9m35.9 10.1c1.5-1 1.3-2.2-.5-2.7m-11.3 7.3c1.8.5 4.4.1 5.9-.9m-17.9-2.4c-1-.3-2.4-.1-3.5.3m-5.2.4c1.5.4 3.6.2 5.2-.5m11.6-29.6c-1.5 1-1.3 2.2.5 2.7m14.7-9.6c-1.8-.5-4.4-.1-5.9.9m35.8 10.1c1.5-1 1.3-2.2-.5-2.7m-11.2 7.3c1.8.5 4.4.1 5.9-.9m-18-2.4c-1-.3-2.4-.1-3.5.3m478.9 125.1c-.2 0-.4-.2-.6-.3m-151.8-16c-.5-.4-1.3-.7-2.1-.9m322.4 27c-6.6-2.5-14.8-1.7-18.3 1.7-.2.2-.4.4-.6.7m-136.3-7.4c-2.1-.8-4.6-.5-5.7.5m-366.8-44.2c-.3 2 2 4 5.5 4.8m43.3.3c-2.1-2.5-7.2-3.9-11.4-3-1.3.3-2.4.7-3.3 1.3m488.3 65.2c.5-.5.8-1.1.9-1.7m-107.2-18.6c-2.1-2.5-7.2-3.9-11.4-3-1.3.3-2.4.7-3.3 1.3m5.8 10.2c-.2 0-.4-.2-.6-.3m-293.1-35.9c-2.1-2.5-7.2-3.9-11.4-3-1.3.3-2.4.7-3.3 1.3m200.9 31.4c-2.1-.8-4.6-.5-5.7.5m143.7 17.5c-2.1-.8-4.6-.5-5.7.5m-29.8 101.6v-.3m-.1.1c-.2-.3-.5-.5-.9-.7m0-.1s-.2 0-.3-.1m-2.1-.4h-.4m-.1.1h-.4m6.1 2.2s-.1 0-.2.1m2.4.9s.1-.2.2-.3"/><path d="M998 590.1c.1-.3-.1-.7-.6-.9m0 0c-.3-.1-.8-.2-1.1 0m-.1-.1c-.2 0-.5.1-.6.2m3.4 1.4c0-.3-.1-.5-.4-.7"/><path d="M998.6 590c-.2-.2-.5-.4-.8-.5m-1.9-.3c-.3 0-.5 0-.7.1m9.7 3.5v-.3m-.1 0c-.2-.3-.5-.5-.9-.7m0 0s-.2 0-.3-.1m-2.2-.4h-.4m0 .1h-.4M650.1 278c-1.8-.5-4.4-.1-5.9.9M429.6 313c-1.8-.5-4.4-.1-5.9.9m-74.3 11.5c-1.1-.2-2.5.1-3.4.6m-3.3.6c1.1.2 2.5-.1 3.4-.6m4.6-.5c1.4.2 3.1-.2 3.8-.9m239.5-30c-1.8-.5-4.4-.1-5.9.9m-221.5-45.2c-1.1-.2-2.5.1-3.4.6m-5.1.9c1.7.2 3.8-.2 5.1-1m189.1 6.2c-1.5 1-1.3 2.2.5 2.7m14.6-9.6c-1.8-.5-4.4-.1-5.9.9m35.9 10c1.5-1 1.3-2.2-.5-2.7m-11.2 7.4c1.8.5 4.4.1 5.9-.9m-18-2.5c-1-.3-2.4-.1-3.5.3m-5.1.5c1.5.4 3.6.2 5.2-.5M376 280.1c-1.1 1.1-.3 2.2 1.7 2.4m10.8-10.4c-2.1-.3-4.6.3-5.7 1.4m41.4 5.8c1.1-1.1.3-2.2-1.7-2.4m-8.2 7.9c2.1.3 4.6-.3 5.7-1.4m-19.6-.5c-1.1-.2-2.5.1-3.4.6m-5.2 1c1.7.2 3.8-.2 5.1-1m4.4-27.9c-1.1 1.1-.3 2.2 1.7 2.4m10.8-10.3c-2.1-.3-4.6.3-5.7 1.4m41.4 5.7c1.1-1.1.3-2.2-1.7-2.4m-8.2 8c2.1.3 4.6-.3 5.7-1.4"/><path d="M593.2 268.4c-1.5 1-1.3 2.2.5 2.7m14.7-9.6c-1.8-.5-4.4-.1-5.9.9m35.9 10.1c1.5-1 1.3-2.2-.5-2.7m-11.3 7.3c1.8.5 4.4.1 5.9-.9m-17.9-2.4c-1-.3-2.4-.1-3.5.3m-5.2.4c1.5.4 3.6.2 5.2-.5m-33 22.4c-1.5 1-1.3 2.2.5 2.7m14.7-9.6c-1.8-.5-4.4-.1-5.9.9m35.9 10.1c1.5-1 1.3-2.2-.5-2.7m-11.3 7.3c1.8.5 4.4.1 5.9-.9m-17.9-2.4c-1-.3-2.4-.1-3.5.3m-5.2.4c1.5.4 3.6.2 5.2-.5m-99.8-28.5c-1.5 1-1.3 2.2.5 2.7m14.7-9.6c-1.8-.5-4.4-.1-5.9.9m35.8 10c1.5-1 1.3-2.2-.5-2.7m-11.2 7.4c1.8.5 4.4.1 5.9-.9m-18-2.5c-1-.3-2.4-.1-3.5.3m-5.1.5c1.5.4 3.6.2 5.2-.5m-267.5-39.4c.1.9 1.1 1.7 2.7 2.2M428 226.6c-2.1-.3-4.6.3-5.7 1.4m-169.7 15.4c-.8-.6-1.9-1.1-3.3-1.5m-13.7 14c-2.1-.3-4.6.3-5.7 1.4m125.5-12.8c-2.1-.3-4.6.3-5.7 1.4m126.2-13.3c-2.1-.3-4.6.3-5.7 1.4M950 571.5h-.6m6.4 2.2h-.6m3.9 1.3s0-.2-.2-.2m-.2 0h-.6m10.1 3.6h-.6m-415.1-231c-1.8-.5-4.4-.1-5.9.9m61.1-11.8c-6.2-.9-13.8 1-17.1 4.2m46.4-.2c1.4.2 3.1-.2 3.8-.9m-50.3 1.1c-.2.2-.4.4-.5.6m-103.8 24.3c-1.3-.2-3.1.2-3.9.9m547.2 176.9c.4.7 1.2 1.4 2.4 1.8m8.2 3.2c2.3.9 5.2.6 6.5-.6m67.9-65.7c2-1.9.6-4.6-3.1-6m8.4-13.9c-6.6-2.5-14.8-1.7-18.3 1.7s-1 8.2 5.6 10.7m17-10.8c3.7 1.4 8.3 1 10.3-.9m19.8-19.1c2-1.9.6-4.6-3.1-6"/><path d="M1127.7 423.1c-2.4 2.3-.7 5.6 3.8 7.3m3.9-14.6c1.1-1.1.6-2.5-1.2-3.5m-.1 0c-.4-.2-.7-.4-1.2-.5m-178.6-67.4c-1.9-.7-4.2-1-6.2-.7m-17.5-5.9c2.6 4.1 10.3 6.8 17.4 5.9m-17.4-5.9c-.8-1.3-2.7-2.5-5-3m-155.2-37.3c-2.3-.6-4.8-.5-6.7.2m-20.8-5.1c2.7 4.1 10.5 6.7 17.5 5.8 1.2-.2 2.3-.4 3.4-.8m-20.9-5c-.9-1.3-2.7-2.4-5-3m-37.2-8.9c-1.3-.3-2.6 0-3.3.5m-4.5 4.4c-.7.7-.2 1.7 1.2 2.2m22 13.7c2.2-2.1.6-5.1-3.5-6.7m-11.8 21.5c-.7.7-.2 1.7 1.2 2.2.2 0 .4.1.5.2m212.2 239.9c-.2-.3-.5-.5-.8-.7m0 0c-.3-.1-.6-.3-.9-.4m-2.4-.9h-.6m10.1 3.6h-.6m4.6 2.1c0-.2-.2-.5-.5-.7m-.1 0c-.3-.2-.6-.3-1-.5m-187.1-10.2c1.8-2.3-.4-4.9-4.9-5.7-.3 0-.5 0-.8-.1m5.7 5.8c-2 2.6.5 5.5 5.6 6.5 4.7.9 10.1-.2 12.4-2.5m12.9-5c-4-.5-8.2.4-10.2 2.3"/></g><path d="M737.5 552.7c0 2 3.2 3.5 7.1 3.5s7.1-1.7 7-3.7c0-2-3.2-3.5-7.1-3.5s-7.1 1.7-7 3.7h0z"/><path d="M931.3 564.5h-.3M533.6 394.4c-3.3-1.2-8.6-.6-11.9 1.2-.3.2-.5.3-.8.5m58.3.2c1.4.2 3.1-.2 3.8-.9m-12.8-.3c-6.6-.9-14.8 1.1-18.3 4.5" class="H"/></g><path d="M364.4 359.3l-.6-5.1" class="E F G H J"/><g class="I E F G"><path d="M535.1 407c3.2.9 8 .2 10.7-1.6.3-.2.6-.5.9-.7m-34.6-41.2c-1.2-.3-2.9-.3-4.3.1" class="H"/><path d="M542.1 374.5c1.5-1 1.3-2.2-.5-2.7m-11.3 7.3c1.8.5 4.4.1 5.9-.9m-18-2.5c-1-.3-2.4-.1-3.5.3m-5.1.5c1.5.4 3.6.2 5.2-.5m-18.7-4.8c-.5.8 0 1.5 1.3 1.9m-20.2-7.7c-.8.7-.4 1.4 1 1.7m7.4-6.5c-1.3-.2-3.1.2-3.9.9m461.4 98.6c2.1.8 4.6.5 5.7-.5m-19.7-4.7c-1.1-.4-2.5-.4-3.4 0m-5.1.1c1.7.6 3.8.6 5.1 0m-21-8.6c-1.1 1.1-.3 2.6 1.7 3.3m-111-108.6c-2.2-.5-4.6 0-5.2 1.2m45.3 10.8c.6-1.2-.6-2.6-2.9-3.2m-4.9 9.1c2.2.5 4.6 0 5.2-1.2m-20.4-2.5c-1.2-.3-2.6-.1-3.2.5m-4.8.7c1.9.4 3.9.2 4.8-.7m-23.1-6.1c-.6 1.2.6 2.6 2.9 3.2m-97.1-5.5c-2.2-.5-4.6 0-5.2 1.2m45.2 10.9c.6-1.2-.6-2.6-2.9-3.2m-4.8 9c2.2.5 4.6 0 5.2-1.2m-20.4-2.4c-1.2-.3-2.6-.1-3.2.5m-4.9.6c1.9.4 3.9.2 4.8-.7m-23.1-6.1c-.6 1.2.6 2.6 2.9 3.2m96.8-52.5c-2.2-.5-4.6 0-5.2 1.2m-266.3-73.2c1.1-1.1.3-2.2-1.7-2.4m-8.3 7.9c2.1.3 4.6-.3 5.7-1.4m-19.6-.5c-1.1-.2-2.5.1-3.4.6m-5.1 1c1.7.2 3.8-.2 5.1-1m-68.8-9.3c-1.1 1.1-.3 2.2 1.7 2.4m10.8-10.4c-2.1-.3-4.6.3-5.7 1.4m41.4 5.8c1.1-1.1.3-2.2-1.7-2.4m-8.2 7.9c2.1.3 4.6-.3 5.7-1.4m-19.6-.6c-1.1-.2-2.5.1-3.4.6m-5.2 1c1.7.2 3.8-.2 5.1-1m-68.1-9.9c-1.1 1.1-.3 2.2 1.7 2.4m10.7-10.3c-2.1-.3-4.6.3-5.7 1.4m41.5 5.7c1.1-1.1.3-2.2-1.7-2.4m-8.3 7.9c2.1.3 4.6-.3 5.7-1.4m-19.6-.5c-1.1-.2-2.5.1-3.4.6m-5.1 1c1.7.2 3.8-.2 5.1-1m-91.8-13.2c-1.1 1.1-.3 2.2 1.7 2.4m10.7-10.3c-2.1-.3-4.6.3-5.7 1.4m182.6 85c-1.8-.5-4.4-.1-5.9.9" class="H"/><path d="M516 302.7c1.5-1 1.3-2.2-.5-2.7m-11.3 7.3c1.8.5 4.4.1 5.9-.9m-17.9-2.5c-1-.3-2.4-.1-3.5.3m-5.2.5c1.5.4 3.6.2 5.2-.5m64 17.4c-1.5 1-1.3 2.2.5 2.7m14.7-9.6c-1.8-.5-4.4-.1-5.9.9m35.9 10c1.5-1 1.3-2.2-.5-2.7m-11.3 7.4c1.8.5 4.4.1 5.9-.9m-17.9-2.5c-1-.3-2.4-.1-3.5.3m-5.2.5c1.5.4 3.6.2 5.2-.5m-75 10.6c-1.5 1-1.3 2.2.5 2.7m14.7-9.6c-1.8-.5-4.4-.1-5.9.9m35.9 10.1c1.5-1 1.3-2.2-.5-2.7m-11.3 7.3c1.8.5 4.4.1 5.9-.9m-17.9-2.5c-1-.3-2.4-.1-3.5.3m-5.2.5c1.5.4 3.6.2 5.2-.5m381.8 136.1c1.7.6 3.8.6 5.1 0m-21-8.7c-1.1 1.1-.3 2.6 1.7 3.3m-120.8-47.8c-2.2-.5-4.6 0-5.2 1.2m45.3 10.9c.6-1.2-.6-2.6-2.9-3.2m-4.9 9c2.2.5 4.6 0 5.2-1.2m-20.4-2.5c-1.2-.3-2.6-.1-3.2.5m-4.8.7c1.9.4 3.9.2 4.8-.7m-23.1-6.1c-.6 1.2.6 2.6 2.9 3.2" class="H"/><use href="#E"/><use href="#E" x="-302.6" y="-27.7"/><use href="#B" x="478.1" y="-7.9"/><use href="#B" x="426.7" y="65.6"/><g class="H"><path d="M652.5 369.2c-2.2-.5-4.6 0-5.2 1.2m45.3 10.8c.6-1.2-.6-2.6-2.9-3.2m-4.9 9.1c2.2.5 4.6 0 5.2-1.2m-20.4-2.5c-1.2-.3-2.6-.1-3.2.5m-4.8.7c1.9.4 3.9.2 4.8-.7m-23.1-6.2c-.6 1.2.6 2.6 2.9 3.2m149.1-8.7c-2.2-.5-4.6 0-5.2 1.2m95.7-5.4c-.5-.4-1.3-.7-2.1-.9m143.6 16.7c-.2 0-.4-.2-.6-.3M908 372.8c-2.1-.8-4.6-.5-5.7.5m-210.9-21.2c-2.2-.5-4.6 0-5.2 1.2m372 44.6l-.2.2m5.7-.6c-1.8-.7-4-.6-5.3.2M730.7 362c-.5-.4-1.3-.7-2.1-.9m330.4 31.8c-2.1-2.5-7.2-3.9-11.4-3-1.3.3-2.4.7-3.3 1.3m-101.6-5.3c-.2 0-.4-.2-.6-.3m-199-21.1c-2.2-.5-4.6 0-5.2 1.2M983.7 585s.1 0 .1-.1m.1 0c.1-.1.1-.2.1-.4"/><path d="M984 584.6c0-.2-.2-.3-.4-.4m0 0l-.8-.3m-5.9-2.1s0-.2-.2-.2m-.5-.2h-.5m9.4 3.9c0-.2-.2-.5-.5-.7"/><path d="M984.6 584.7c-.3-.2-.6-.3-1-.5m-2.4-1h-.6m-111-41.2c0-.2 0-.3-.2-.5m0 0c-.2-.3-.5-.5-.8-.7m-.1 0c-.3-.1-.6-.3-.9-.4m-2.4-.9h-.6m8 2.8h-.6m11.6 4.7c0-.1 0-.2-.2-.3M191 328.7c-1.7-3.1-9-4.4-16.3-2.8-.3 0-.7.2-1 .2m379.3-43c-1.8-.5-4.4-.1-5.9.9m-355.8 47c.2 1.2 1.7 2.1 4 2.4m291.4-36.7c-1.8-.5-4.4-.1-5.9.9M309 322c-2.1-.3-4.6.3-5.7 1.4m59.6-7c.7-.7 1.1-1.5 1-2.2m591.5 76.4c-2.1-.8-4.6-.5-5.7.5m-167.4-16.7c-.5-.4-1.3-.7-2.1-.9m318.2 37.1c-.2 0-.4-.2-.6-.3m-303.1-33.4c-2.2-.5-4.6 0-5.2 1.2m-168.7-18.3c0 .6.5 1.2 1.5 1.6m512.5 59.1c.3-.3.5-.7.6-1m-457-61.6c-1.1-2.2-3.8-4.1-7.4-5.2m319.1 51.1c-.2 0-.4-.2-.6-.3m-522.1-71.1c1.5.4 3.6.2 5.2-.5m64 17.4c-1.5 1-1.3 2.2.5 2.7m14.7-9.6c-1.8-.5-4.4-.1-5.9.9m35.9 10c1.5-1 1.3-2.2-.5-2.7M570 358c1.8.5 4.4.1 5.9-.9m-18-2.5c-1-.3-2.4-.1-3.5.3m-5.1.5c1.5.4 3.6.2 5.2-.5M311 271.1c-1.1 1.1-.3 2.2 1.7 2.4m10.8-10.3c-2.1-.3-4.6.3-5.7 1.4m41.4 5.7c1.1-1.1.3-2.2-1.7-2.4m-8.2 7.9c2.1.3 4.6-.3 5.7-1.4m-19.6-.5c-1.1-.2-2.5.1-3.4.6m-5.2 1c1.7.2 3.8-.2 5.1-1m10.4-27c-1.1 1.1-.3 2.2 1.7 2.4m10.7-10.4c-2.1-.3-4.6.3-5.7 1.4m41.5 5.8c1.1-1.1.3-2.2-1.7-2.4m-8.3 7.9c2.1.3 4.6-.3 5.7-1.4m595.1 331.7c-.3-.1-.6 0-.8 0m4.3 1.4c-.3-.2-.7-.4-1.1-.5m1.7 1.3c0-.3-.2-.6-.6-.8"/><path d="M985.3 585v-.3m-.2.6s.2-.2.2-.3m-.4.5s.2-.1.2-.2m9.6 3.5a.76.76 0 0 0-.4.2m2-.6c-.6 0-1.2.2-1.6.4"/><path d="M997.7 588.6c-.5-.2-1-.2-1.5-.2m2.6.8c-.3-.3-.7-.5-1.1-.6m1.5 1.8c.2-.4 0-.8-.4-1.1m.2 1.5c0-.1.2-.3.2-.4m10.8 2.9h-.5m91.4-57.1c-.2 2 1.2 4.2 3.8 5.8m-101.2 50.5c.4-.2.4-.6 0-.9m0 0c-.3-.2-.6-.3-1-.4m0 0c-.4 0-.8 0-1.1.1m0 0h-.2m-.4.2h.4m-1-.6c-.2 0-.2.3 0 .4"/><path d="M1001 590.6c-.3 0-.6.2-.8.3m2.4-.3c-.5-.1-1.1-.1-1.6 0m3 .4c-.4-.2-.9-.4-1.4-.5m2.4 1.3c-.2-.3-.5-.6-1-.8m.8 1.9c.3-.3.4-.7.2-1m-101.2-37.8h-.6m10.6 4.6v-.4m-.1-.1c0-.3-.3-.5-.7-.7"/><path d="M913 557.6l-.8-.3"/></g><path d="M748.7,553.6c0-1.2-1.9-2.1-4.1-2-2.3,0-4.1,1-4.1,2.1s1.9,2.1,4.1,2c2.3,0,4.1-1,4.1-2.1h0Z"/><g class="H"><path d="M922.7 562s.1 0 .1-.1m0 0c.1-.1.1-.2.1-.4"/><path d="M922.9 561.6c0-.2-.2-.3-.4-.4m0-.1l-.8-.3m-170-7.8c-.6-2-4.2-3.3-8-3-3.1.3-5.6 1.6-6 3.2m177.2 5.9c0-.2 0-.3-.2-.5M588.6 384.3c.7-.7.2-1.4-1.2-1.6m-22-7.4c-2.2 2.1-.7 4.3 3.5 4.9m28.6-27.8c-4.1-.6-9.2.7-11.4 2.8m30-.2c1.4.2 3.1-.2 3.8-.9m5.6-5.4c.7-.7.2-1.4-1.2-1.6m-34.5-11.4c-3.3 3.2-1 6.5 5.2 7.3.4 0 .8 0 1.2.1m10.8-11.6c-6.2-.9-13.8 1-17.1 4.2m46.4-.2c1.4.2 3.1-.2 3.8-.9m3.6-3.5c.7-.7.2-1.4-1.2-1.6m-21.9-7.5c-2.2 2.1-.7 4.3 3.5 4.9m37.1-35.2c-7.1 1.2-13.2 3.9-16.6 7.1m43.7-11.9c.9-.2 1.7-.5 2.1-.9m5.4-5.2c.6-.6.3-1.2-.7-1.5m-30.2-8.5c-1.8-.5-4.3-.5-6.6 0"/><path d="M646.6 270.8c3.2.9 7.6.9 11.7 0m-16.5-4.6c-.2 2 1.5 3.7 4.8 4.6m-4.8-4.6c.1-1.1-.9-2.1-2.7-2.6m-126.4-35.4c-2-.6-4.8-.5-7.3.1m-17.2-2.6c1.7 3.1 9 4.4 16.3 2.8.4 0 .7-.2 1-.2M915 559.1c0-.2 0-.3.1-.5m12.1 3.6c0-.1-.1-.2-.3-.3m4.7 1.8h-.5m.7.7c.3 0 .4-.2.2-.4l-.2-.2m-5.2-2c-.3-.1-.6 0-.8 0v.2m17.6 6.2c-.3-.1-.6 0-.8 0m5.5 2.1c.1-.1 0-.3-.2-.5m-.6.7c.3.1.6 0 .8 0m7.8 2.4c-.3-.1-.6 0-.8 0m1.3.5c.1-.1 0-.3-.2-.5m12.1 4.7c-.3-.1-.6 0-.8 0m1.3.5c.1-.1 0-.3-.2-.5M139.5 373.1c-2.2 2.1-.6 4.3 3.5 4.9m195.4 27.4c-1.5-.4-3.2-.8-4.9-1m161.7 39.7c.3 0 .6.1 1 .2m-154.8-43.2c-.3 0-.6-.1-1-.2m-190.7-30.8c-2.2 2.1-.7 4.3 3.5 4.9m83.5-90.9c-3 .6-5.5 1.8-6.9 3.2m6.9-3.2h.2m58.7-46.7c-3.2-.4-7.2.2-9.9 1.7m285.8 213.1c-3.3-1.6-9.5-1.3-13.8.7-1 .5-1.8 1-2.4 1.5m35-45.6c.2 1.2 1.1 2.2 2.8 3m-422.4-51.2c1.1.2 2.5 0 3.7-.2m17.4 2.5c-1.7-3.1-9-4.4-16.3-2.8-.3 0-.7.2-1 .2m17.6 5c.2 1.2 1.7 2.1 4 2.4m493.7-41.5c.9-.2 1.7-.5 2.1-.9m-29.2 5.6c-2.9.5-5.7 1.3-8.2 2.2m-321.1 53.7c2.7.4 5.9-.1 8.3-1.2m21.4.9c-2-3.1-9.4-4.2-16.6-2.6-1.7.4-3.4 1-4.8 1.6m20.8 5.9c.1.9 1.1 1.7 2.7 2.2m256.9-32.3c-.3.3-.5.6-.7.9m-411.8-86.9c-2.1-.3-4.6.3-5.7 1.4m41.4 5.8c1.1-1.1.3-2.2-1.7-2.4m-8.2 7.9c2.1.3 4.6-.3 5.7-1.4m-19.6-.5c-1.1-.2-2.5.1-3.4.6m-5.2 1c1.7.2 3.8-.2 5.1-1m18.8 30c-1.1 1.1-.3 2.2 1.7 2.4m10.8-10.3c-2.1-.3-4.6.3-5.7 1.4m41.4 5.7c1.1-1.1.3-2.2-1.7-2.4m-8.3 7.9c2.1.3 4.6-.3 5.7-1.4m-19.6-.5c-1.1-.2-2.5.1-3.4.6m-5.1 1c1.7.2 3.8-.2 5.1-1m254.1-10c-1.5 1-1.3 2.2.5 2.7m14.7-9.6c-1.8-.5-4.4-.1-5.9.9"/><path d="M556.9 314.1c1.5-1 1.3-2.2-.5-2.7m-11.2 7.4c1.8.5 4.4.1 5.9-.9m-18-2.5c-1-.3-2.4-.1-3.5.3m-5.1.5c1.5.4 3.6.2 5.2-.5m-58.9-17.1c-1.5 1-1.3 2.2.5 2.7m-45.6-42.9c-1.1-.2-2.5.1-3.4.6m-5.2 1c1.7.2 3.8-.2 5.1-1"/></g><use href="#C" x="-181.6" y="-97.5"/><g class="H"><path d="M292.7 288.9l-.2.2"/><path d="M293 288.6c2.6-2 1.7-4.4-2.2-5.2-3.8-.8-9.1.2-11.7 2.3-2.6 2-1.7 4.4 2.2 5.2 3.7.8 8.7-.1 11.5-2m5.4-1.3c-1.8-.2-4 .2-5.2 1m40.9 6.1c1.1-1.1.3-2.2-1.7-2.4m-8.2 8c2.1.3 4.6-.3 5.7-1.4m-19.6-.6c-1.1-.2-2.5.1-3.4.6m-5.2 1c1.7.2 3.8-.2 5.1-1m-20.9-3.4c-1.1 1.1-.3 2.2 1.7 2.4m346.8-18c-1.5 1-1.3 2.2.5 2.7m14.7-9.6c-1.8-.5-4.4-.1-5.9.9m35.8 10.1c1.5-1 1.3-2.2-.5-2.7m-11.2 7.3c1.8.5 4.4.1 5.9-.9m-18-2.5c-1-.3-2.4-.1-3.5.3m-5.1.5c1.5.4 3.6.2 5.2-.5m-73.5 105.8c1.4.2 3.1-.2 3.8-.9m592.3 84.1c-.6-.3-1.2-.7-1.9-.9m-12-5.2c.5.6 1.4 1.2 2.4 1.5"/><path d="M1153.5 475.7c5.4 0 9.1-2.6 8.2-5.6-.2-.6-.5-1.2-.9-1.7m-10-3.8c-5.4 0-9.3 2.4-8.6 5.5 0 .4.2.7.4 1.1m4.9-7.2c1 .4 2.2.6 3.3.6m-11.4 5.3c-.6-1.4-2.1-2.6-4.3-3.4m19.7 10.8a10.9 10.9 0 0 0 2.6-.3m7.6.7c-2.4-.9-5.2-1.2-7.6-.7m11.9 2.6c-.6-.3-1.2-.7-1.9-.9M569 445c-6.2-.9-13.8 1-17.1 4.2m-7.3 6.4c.9-.4 1.6-.9 2.2-1.4m-186.3-49c2.1-3.3-1.7-6.1-8.4-6.4-3.9-.1-8.2.7-11.4 2.2m-151-20.9c.4-3.3-4.9-5.4-11.8-4.9-3 .2-6 1-8.5 2.1m-13.2-3.5c-.5.5-.8 1-1 1.5"/></g><path d="M553.2,452.1c.3,2.5,5,3.9,10.4,3.1,5.4-.7,9.6-3.3,9.2-5.8s-5-3.9-10.4-3.1c-5.4.7-9.6,3.3-9.2,5.8h0Z"/><path d="M357.5 405.6c2.2-2.5-.1-4.9-5.1-5.4-3.1-.3-6.6.2-9.3 1.4m-156.3-21.9c-.3-2.5-5-3.9-10.4-3.1-1.5.2-2.9.6-4.2 1" class="H"/><path d="M545.8 497.3c-1.1 1-.8 3 .5 4.4 1.4 1.4 3.3 1.7 4.4.7s.8-3-.5-4.4c-1.4-1.4-3.3-1.7-4.4-.7h0zm42.5 14.8c1.1-1 .8-3-.5-4.4-1.4-1.4-3.3-1.7-4.4-.7s-.8 3 .5 4.4c1.4 1.4 3.3 1.7 4.4.7h0z"/><g class="H"><path d="M926.9 562.9s0-.2-.2-.2m-.2-.1h-.6m15.1 5.5h-.6m-4.1-1.8h-.6m7.6 2.7h-.6M692 290.9c0 .6.5 1.2 1.5 1.6m36.8 6.5c-2.2-.5-4.6 0-5.2 1.2m44.4 8.7c-.5-.4-1.3-.7-2.1-.9m14.5 3.4c-2.2-.5-4.6 0-5.2 1.2m-61-10.7c-.8-1-2-1.8-3.6-2.4M593 448.3c-2 1.9-.6 4.6 3.1 6 .5.2 1 .3 1.5.4m215.9 52.1c3 .7 6.2.4 8.1-.8m24.2 7.2c.6-4.1-5-8.2-12.5-9.1-4.5-.6-8.9.2-11.7 2m24.2 7.1c-.2 1.7 1.3 3.4 4 4.4m149.9 56.5c2.7 1 5.9 1.1 8.3.2m21.4 5.6c-2-4.2-9.5-7.1-16.7-6.6-1.7.1-3.3.5-4.7 1m21.4 5.6c.4.7 1.2 1.4 2.4 1.8m8.2 3.1c2.3.9 5.2.6 6.5-.6m67.9-65.6c2-1.9.6-4.6-3.1-6m8.4-14c-6.6-2.5-14.8-1.7-18.3 1.7s-1 8.2 5.6 10.7m17.1-10.7c3.7 1.4 8.3 1 10.3-.9m19.7-19.1c2-1.9.6-4.6-3.1-6m-356.5-65.8c-.5-.4-1.3-.7-2.1-.9m14.6 3.5c-2.2-.5-4.6 0-5.2 1.2m295 31.7c-.2 0-.4-.2-.6-.3"/><path d="M846.2 421c-.5-.4-1.3-.7-2.1-.9m144.4 17.1c-.2 0-.4-.2-.6-.3m-118.7-10.8c-2.1-.8-4.6-.5-5.7.5m-280.4-30.5c0 .6.5 1.2 1.5 1.6m71.9 8.4c-2.2-.5-4.6 0-5.2 1.2m215.1-70.2c2.2.5 4.6 0 5.2-1.2m-20.4-2.5c-1.2-.3-2.6-.1-3.2.5m-4.9.7c1.9.4 3.9.2 4.8-.7m-23-6.2c-.6 1.2.6 2.6 2.9 3.2m111.5 150.8c-2.1-.8-4.6-.5-5.7.5m41.6 15.7c1.1-1.1.3-2.6-1.7-3.3m-8.3 7.9c2.1.8 4.6.5 5.7-.5m-19.7-4.8c-1.1-.4-2.5-.4-3.4 0m-5.1.2c1.7.6 3.8.6 5.1 0m-21-8.7c-1.1 1.1-.3 2.6 1.7 3.3m101.3-10.2c-2.1-.8-4.6-.5-5.7.5m41.6 15.7c1.1-1.1.3-2.6-1.7-3.3m-8.3 7.9c2.1.8 4.6.5 5.7-.5m-19.7-4.7c-1.1-.4-2.5-.4-3.4 0m-5.1.1c1.7.6 3.8.6 5.1 0m-21-8.6c-1.1 1.1-.3 2.6 1.7 3.3m-101.8-52.9c-2.1-.8-4.6-.5-5.7.5m41.5 15.7c1.1-1.1.3-2.6-1.7-3.3m-116-67.9c.6-1.2-.6-2.6-2.9-3.2m-4.8 9.1c2.2.5 4.6 0 5.2-1.2m-20.4-2.5c-1.2-.3-2.6-.1-3.2.5m-4.9.7c1.9.4 3.9.2 4.8-.7m-23.1-6.2c-.6 1.2.6 2.6 2.9 3.2M657 401.4c-2.2-.5-4.6 0-5.2 1.2m45.3 10.9c.6-1.2-.6-2.6-2.9-3.2m-4.9 9.1c2.2.5 4.6 0 5.2-1.2m-20.4-2.5c-1.2-.3-2.6-.1-3.2.5m-4.8.7c1.9.4 3.9.2 4.8-.7m-23.1-6.2c-.6 1.2.6 2.6 2.9 3.2M755.8 394c-2.2-.5-4.6 0-5.2 1.2m45.3 10.9c.6-1.2-.6-2.6-2.9-3.2m-4.9 9c2.2.5 4.6 0 5.2-1.2m-20.4-2.5c-1.2-.3-2.6-.1-3.2.5m-4.8.7c1.9.4 3.9.2 4.8-.7m-23.1-6.1c-.6 1.2.6 2.6 2.9 3.2m120.3 15.6c-2.1-.8-4.6-.5-5.7.5M1004.7 593l.1-.1m-12.4-4.6c.3-.2.4-.4.2-.6"/><path d="M992.6 587.7c0-.2-.3-.3-.5-.4m.1 0c-.2-.1-.5-.2-.8-.2m0-.1h-.8m-.1.1c-.2 0-.3 0-.4.2m-.4 0h.4m-1-.6c-.2 0-.2.3 0 .4m.9-.7c-.3 0-.6.2-.8.3m2.3-.3c-.5-.1-1.1-.1-1.6 0"/><path d="M992.9 586.9c-.4-.2-.9-.4-1.4-.5m2.4 1.2c-.2-.3-.5-.6-1-.8m.8 1.9c.3-.3.4-.7.2-1m-.3 1.1l.1-.1m-17.3-8.1h-.6m1.4.5c0-.1 0-.3-.3-.3m-18.1-6.8c-.3-.1-.6 0-.8 0v.2m1.4.1c0-.1-.1-.2-.3-.3m4.2 1.7h-.5m.6.6c.3 0 .4-.2.3-.4l-.2-.2m57.4-58.3c-.2 0-.4-.2-.6-.3"/></g></g><path d="M813.7 470.3l-.6 4.8" class="E F G H J"/><g class="I E F G"><path d="M999.2 542.3c2.7 1 5.9 1.1 8.3.2m21.4 5.6c.4.7 1.2 1.4 2.4 1.8m-2.4-1.8c-2-4.2-9.5-7.1-16.7-6.6-1.7.1-3.3.5-4.7 1m32 10.6c2.3.9 5.2.6 6.5-.6M885.7 331.6c-2.2-.5-4.6 0-5.2 1.2m45.3 10.8c.6-1.2-.6-2.6-2.9-3.2m-4.9 9.1c2.2.5 4.6 0 5.2-1.2m-20.4-2.5c-1.2-.3-2.6-.1-3.2.5m-4.8.7c1.9.4 3.9.2 4.8-.7m140.1 240.9c2.3.9 5.2.6 6.5-.6M700.4 317.2c-1.2-.3-2.5 0-3.1.5m-4.5 4.3c-.7.7-.2 1.7 1.2 2.2m18.8 7.2h-.2m-11.8 22.9c.4.4 1 .7 1.6.8m28.2 7c-.4-.2-.9-.4-1.4-.5m-87.5 9.9c-.5.5-.4 1.2.3 1.7m-12.2 11.7c-1.1-.1-2.1.1-2.7.6m-5.6 5.4c-.3.3-.4.6-.3 1m-8.6 36c2.4.9 5.2 1.2 7.6.7m-27.7-8c-1 0-1.9.2-2.3.6m-6.3 6c-.7.7-.2 1.7 1.2 2.2m13.3 13.7c3.5-3.4 1-8.2-5.6-10.7m73.3-124.8c-1.8-.5-4.3-.5-6.6 0m-15.8-2.3c2.3 2.7 9.1 3.7 15.7 2.3m-422.2-21.9c1.7 0 3.4 0 5.1-.3m-5.1.3c-2.6 0-5.4.5-7.3 1.6m-69.7 66.9c-1.2 1.2-.4 2.4 2 2.8m8.2 1.1c1.1.2 2.5 0 3.7-.2m17.7 4.4c.6-3.5-5-5.9-12.4-5.3-1.8.1-3.5.4-5.2.8m17.6 4.5c-.2 1.4 1.3 2.6 4 2.9m137.3 19.1c2.7.4 5.9-.1 8.3-1.2m21.2 4.5c2.3-3.5-1.5-6.6-8.6-6.9-4.3-.2-9 .7-12.6 2.4m21.2 4.5c-1 1.5 0 2.9 2.3 3.5m170.6 47.6c3.2.9 8 .2 10.7-1.6.3-.2.6-.5.9-.7m23.6-9.6c-6.6-.9-14.8 1.1-18.3 4.5m27.3-3.2c1.4.2 3.1-.2 3.8-.9m6.2-6.1c.7-.7.2-1.4-1.2-1.6" class="H"/><path d="M566.5 412c-2.2 2.1-.7 4.3 3.5 4.9m47.3-25.1c1.4.2 3.1-.2 3.8-.9m5.6-5.4c.7-.7.2-1.4-1.2-1.6m195.6-62.6c-.5-.4-1.3-.7-2.1-.9m14.6 3.4c-2.2-.5-4.6 0-5.2 1.2m44.4 8.7c-.5-.4-1.3-.7-2.1-.9m14.5 3.5c-2.2-.5-4.6 0-5.2 1.2m44.4 8.6c-.5-.4-1.3-.7-2.1-.9m-222.4-23.6c0 .7.8 1.5 2 1.8m243.9 28.8c-2.1-.8-4.6-.5-5.7.5m-209.3-21.9c-.5-.4-1.3-.7-2.1-.9m-37.5 53.8c-.5-.4-1.3-.7-2.1-.9m14.6 3.5c-2.2-.5-4.6 0-5.2 1.2m363.6 43.4c-2.1-.8-4.6-.5-5.7.5m-313.5-35.3c-.5-.4-1.3-.7-2.1-.9m200.3 24.1c-.2 0-.4-.2-.6-.3m-185.2-20.3c-2.2-.5-4.6 0-5.2 1.2m403.5 48.6c.5-.5.8-1.1.9-1.7M953.8 424c-2.1-.8-4.6-.5-5.7.5m-435.3-56c-1.2-.3-2.8-.3-4.3.1m89.7-11.2c-4.1-.6-9.2.7-11.4 2.8m30-.2c1.4.2 3.1-.2 3.8-.9m-138.3 21c-3.3-1.2-8.6-.6-11.9 1.2-.3.2-.5.3-.8.5m424.8 26.7c-1.1 1.1-.3 2.6 1.7 3.3m-191.9-30.2c-2.2-.5-4.6 0-5.2 1.2m45.2 10.8c.6-1.2-.6-2.6-2.9-3.2m-4.8 9.1c2.2.5 4.6 0 5.2-1.2m-20.4-2.5c-1.2-.3-2.6-.1-3.2.5m-4.9.7c1.9.4 3.9.2 4.8-.7m-23-6.2c-.6 1.2.6 2.6 2.9 3.2m109.6 13.1c-2.2-.5-4.6 0-5.2 1.2m45.2 10.9c.6-1.2-.6-2.6-2.9-3.2m-4.8 9c2.2.5 4.6 0 5.2-1.2m-20.4-2.4c-1.2-.3-2.6-.1-3.2.5m-4.9.6c1.9.4 3.9.2 4.8-.7m-23-6.1c-.6 1.2.6 2.6 2.9 3.2" class="H"/><path d="M743.6 359.8c-2.2-.5-4.6 0-5.2 1.2m45.3 10.9c.6-1.2-.6-2.6-2.9-3.2m-4.9 9c2.2.5 4.6 0 5.2-1.2m-20.4-2.4c-1.2-.3-2.6-.1-3.2.5m-4.8.7c1.9.4 3.9.2 4.8-.7m390.9 81.2c1 .4 2.2.6 3.3.6m10.1 3.8c-1.9-2.2-5.9-3.7-10-3.8m10 3.8c.5.6 1.4 1.2 2.4 1.5m13 10.3c2.2-2.1.6-5.1-3.5-6.7M1031.3 603c4.1 1.6 9.3 1.1 11.5-1m-211.2-74.3c-.3-.1-.7-.2-1.1-.3m-194.7-47.1c.3.1.7.2 1.1.3m193.6 52c-1.8-.7-3.6-1.2-5.5-1.7m208.4 78.3c4.2 1.6 9.3 1.1 11.5-1M309.8 210.3c-2.1-.3-4.6.3-5.7 1.4m-31.4 21.4c-2.1-.3-4.6.3-5.7 1.4m113.7-14.4c-2.1-.3-4.6.3-5.7 1.4m152.6 86.7c-1.8-.5-4.4-.1-5.9.9M382 329.2c0 .4.6.8 1.5.9M689 291.9c.9-.2 1.7-.5 2.1-.9m-220.6 33.4c-1.8-.5-4.4-.1-5.9.9M344.9 212.4c1.1-1.1.3-2.2-1.7-2.4m-8.3 7.9c2.1.3 4.6-.3 5.7-1.4M321 216c-1.1-.2-2.5.1-3.4.6m-5.1 1c1.7.2 3.8-.2 5.1-1m-58 19.4c-1.1 1.1-.3 2.2 1.7 2.4m10.7-10.3c-2.1-.3-4.6.3-5.7 1.4m41.4 5.7c1.1-1.1.3-2.2-1.7-2.4m-8.2 7.9c2.1.3 4.6-.3 5.7-1.4m-19.6-.5c-1.1-.2-2.5.1-3.4.6m-5.1 1c1.7.2 3.8-.2 5.1-1m-58.1 19.4c-1.1 1.1-.3 2.2 1.7 2.4m10.8-10.3c-2.1-.3-4.6.3-5.7 1.4m41.4 5.7c1.1-1.1.3-2.2-1.7-2.4m-8.2 7.9c2.1.3 4.6-.3 5.7-1.4m-19.6-.5c-1.1-.2-2.5.1-3.4.6m-5.2 1c1.7.2 3.8-.2 5.1-1m-46.2 21.1c-1.1 1.1-.3 2.2 1.7 2.4m11.5-5.4c-2.1-.3-4.6.3-5.7 1.4m209.9-29c-2.1-.3-4.6.3-5.7 1.4m-84.6 14.1c-2.1-.3-4.6.3-5.7 1.4m208.7-26c-1.8-.5-4.4-.1-5.9.9m7.1 261c0 1.5 1.3 3 2.8 3.4m65.7-48.4c-2-3-7.8-4.8-12.8-4.1-2.1.3-3.8 1-4.9 2m543 66.7c-2.4-1.8-6.1-2.8-9.7-2.6m13-3.3c.7.3 1.4.5 2.2.6" class="H"/><path d="M1121.2 517.6c-1.8-.7-3.8-1.1-5.8-1.3m-8.6 11.7c.7.4 1.5.8 2.4 1.1m6.2 2.6c-.6-.3-1.2-.7-1.9-.9m-5.3-4.1c2.7 1.7 6.6 2.5 10.2 2.1m6.3-6.1c-1.2-2.5-5-4.5-9.5-4.8m-246.8 23.7v-.4m0-.1c0-.3-.3-.5-.7-.7" class="H"/><path d="M867.7 540.5l-.8-.3m-132.3-203c-.6 1.2.6 2.6 2.9 3.2m227.1 116.8c-2.1-.8-4.6-.5-5.7.5m41.6 15.7c1.1-1.1.3-2.6-1.7-3.3m-8.3 7.9c2.1.8 4.6.5 5.7-.5m-19.7-4.7c-1.1-.4-2.5-.4-3.4 0m-5.1.1c1.7.6 3.8.6 5.1 0m-21-8.6c-1.1 1.1-.3 2.6 1.7 3.3m32.9 31.9c-2.1-.8-4.6-.5-5.7.5m41.6 15.7c1.1-1.1.3-2.6-1.7-3.3m-8.3 8c2.1.8 4.6.5 5.7-.5m-19.6-4.8c-1.1-.4-2.5-.4-3.4 0m-5.2.2c1.7.6 3.8.6 5.1 0m-21-8.7c-1.1 1.1-.3 2.6 1.7 3.3m-84-46.1c-2.1-.8-4.6-.5-5.7.5m41.5 15.7c1.1-1.1.3-2.6-1.7-3.3m-8.3 7.9c2.1.8 4.6.5 5.7-.5m-19.6-4.8c-1.1-.4-2.5-.4-3.4 0m-157.2-146c-2.2-.5-4.6 0-5.2 1.2m44.5 8.7c-.5-.4-1.3-.7-2.1-.9m200.1 23c-.2 0-.4-.2-.6-.3m-185-19.2c-2.2-.5-4.6 0-5.2 1.2m202.9 23.7c-2.1-.8-4.6-.5-5.7.5m-152.8-15.6c-.5-.4-1.3-.7-2.1-.9m14.6 3.5c-2.2-.5-4.6 0-5.2 1.2m-200.5-19.1c0 .6.5 1.2 1.5 1.6m241 204.8c0-.1-.2-.2-.4-.4m0 0c-.3-.3-.8-.5-1.2-.7m-2.3-.3c-.3 0-.6 0-.9.2m7.8 2h-.6m8.1 3.5s0-.2-.1-.3m0 .1c-.1-.2-.3-.4-.5-.6m0 0c-.3-.2-.7-.5-1.2-.6m-3-.6h-.6m13 4.2h-.6m-3.5-1.4s0-.2-.2-.2m-.5-.2h-.6m134.8-98.3c-2.1-.8-4.6-.5-5.7.5M695.7 416c-.5-.4-1.3-.7-2.1-.9m210.3 24.2c-.2 0-.4-.2-.6-.3m13.3 5c-2.1-.8-4.6-.5-5.7.5m212.7 24c3.7 1.4 8.3 1 10.3-.9m-534.8-61.7c-1-2.1-3.4-4-6.7-5.3M759.8 431c-2.2-.5-4.6 0-5.2 1.2m311 34c-.2 0-.4-.2-.6-.3M661.9 296.7c-7.1 1.2-13.2 3.9-16.6 7.1m-76.7 15.9c-1.8-.5-4.4-.1-5.9.9m-230.1 31.9c2.7.4 5.9-.1 8.3-1.2m20.4-.2c-3.4-2.7-11.6-3-18.2-.7-.8.3-1.5.5-2.1.9m170.5-15.4c-1.8-.5-4.4-.1-5.9.9m-143.9 20.3c.1.9 1.1 1.7 2.7 2.2m76.7-10.9c-1.8-.5-4.4-.1-5.9.9m53-123.6c-.5-.9-1.9-1.6-3.8-1.9m-160.9-22.2c-2.1-.3-4.6 0-6.8.6m-8.8 1.4c3 0 6.1-.5 8.9-1.4m-8.9 1.4c-2.1 0-4.3.7-5.3 1.7m-16.6 6.8c4.5.6 10.1-.8 12.6-3.1m-21.6 1.9c-3.7-.5-8.3.6-10.3 2.5m-19.9 19.3c-1.7 1.6-.9 3.4 1.8 4.1m-12.5 12.1c7.2.2 14.7-2.5 16.8-6 1.5-2.5-.2-4.9-4.3-6.1m-12.5 12.1c-3.5 0-7.2 1-8.9 2.7m-68.1 65.8c-1.2 1.2-.4 2.4 2 2.8m8.1 1.1c1.1.2 2.5 0 3.7-.2m17.7 4.5c.6-3.5-5-5.9-12.4-5.3-1.8.1-3.5.4-5.2.8m17.6 4.5c-.2 1.4 1.3 2.6 4 2.9m137.4 19c2.7.4 5.9-.1 8.3-1.2" class="H"/><path d="M361.5 350.8c2.3-3.5-1.6-6.6-8.7-6.9-4.3-.2-8.9.7-12.5 2.4m21.2 4.5c-.9 1.5 0 2.8 2.3 3.5m170.7 47.6c3.2.9 8 .2 10.7-1.6.3-.2.6-.5.9-.7m23.4-9.5c-6.6-.9-14.8 1.1-18.3 4.5m-88.5-159.1c-1.1 1.1-.3 2.2 1.7 2.4m10.8-10.4c-2.1-.3-4.6.3-5.7 1.4m717 269.7c.7-.6 1-1.3 1-2.1m-26.8-23c-2-3-7.8-4.8-12.8-4.1-2 .3-3.6.9-4.7 1.8" class="H"/><use href="#F"/><path d="M147.8 403.5c0 .8 1.4 1.5 3 1.5s3-.7 3-1.6c0-.8-1.4-1.5-3-1.5s-3 .7-3 1.6h0z"/><g class="H"><path d="M388.8 456.4c-.5-.8-1.5-1.6-2.8-2.1m-47.1-19.6c-1.5-.6-3.2-1.2-4.9-1.6m-195.4-52.9c0 1.6 1.8 3 4.5 3.7m-21.9 11.9c-2.9 2.8-.8 6.3 4.7 7.7m289.3 62.8c-3.7-1.5-9.3-1.2-12.4.7-.2.1-.4.2-.5.4m-18.1-2.6c0 2.8 4.5 5 10 4.9 3.3 0 6.3-.9 8.1-2.3m-243.4-60.8c0 2.8 4.5 5 10 4.9 3.6 0 7-1.1 8.7-2.8m-.1.1c.8-.7 1.2-1.6 1.2-2.4m989.6 74.2c-.3-.1-.7-.2-1.1-.3m-2.4-.7c-2.4-.6-5.2-.6-7.6 0"/><path d="M1154.8 480l2.3-.4m-3 14.7c-.3-.1-.7-.2-1.1-.3M471.1 260.1c-1.8-.5-4.4-.1-5.9.9m-76 16.2c-2.1-.3-4.6.3-5.7 1.4m184.6-23.5c-1.8-.5-4.4-.1-5.9.9m-268.8 37.9l-.2.2m5.7-1.5c-1.8-.2-4 .2-5.2 1m-.7-4.7c-3.1-1.3-8.4-.8-11.9 1-.4.2-.8.4-1.1.7m625.6 147c1.1-1.1.3-2.6-1.7-3.3m-8.3 8c2.1.8 4.6.5 5.7-.5m-19.6-4.8c-1.1-.4-2.5-.4-3.4 0m-5.2.1c1.7.6 3.8.6 5.1 0m-20.9-8.6c-1.1 1.1-.3 2.6 1.7 3.3m95.3-12.5c-2.1-.8-4.6-.5-5.7.5m41.6 15.7c1.1-1.1.3-2.6-1.7-3.3m-8.3 8c2.1.8 4.6.5 5.7-.5m-19.6-4.8c-1.1-.4-2.5-.4-3.4 0m-5.2.2c1.7.6 3.8.6 5.1 0m-20.9-8.7c-1.1 1.1-.3 2.6 1.7 3.3m119-3.5c-2.1-.8-4.6-.5-5.7.5m41.6 15.7c1.1-1.1.3-2.6-1.7-3.3m-8.3 7.9c2.1.8 4.6.5 5.7-.5m-19.6-4.7c-1.1-.4-2.5-.4-3.4 0m-5.2.1c1.7.6 3.8.6 5.1 0m-20.9-8.7c-1.1 1.1-.3 2.6 1.7 3.3m-443.8-68.2c-6.2-.9-13.8 1-17.1 4.2s-1 6.5 5.2 7.3c.4 0 .8 0 1.2.1m40-7.6c1.4.2 3.1-.2 3.8-.9m-20.4-11.2c-.5 1.7 1.2 3.1 4.4 3.5m37.2-35.3c-4.1.7-8 1.9-11.2 3.5m38.2-8.2c.9-.2 1.7-.5 2.1-.9m5.4-5.2c.6-.6.3-1.2-.7-1.5M120.1 412c0 2.1 2.3 4 6 5m606.1-88.7c.6-1.2-.6-2.6-2.9-3.2m-4.9 9.1c2.2.5 4.6 0 5.2-1.2m-20.4-2.5c-1.2-.3-2.6-.1-3.2.5m-4.8.7c1.9.4 3.9.2 4.8-.7m-22-3.8c.5.3 1.1.6 1.8.7m-1.8-.7c-1.1-.7-2.9-.8-4-.3-.2 0-.4.2-.5.3m-23.8 6.4c6.9 2.6 15.4 1.8 19.1-1.7m-25.6-.7c-1.4-.5-3.1-.4-3.8.3m-3.7 3.5c-.7.7-.2 1.7 1.2 2.2m17.9 22.8c6.2 2.3 13.9 1.6 17.2-1.5 3.3-3.2 1-7.7-5.2-10-.4-.1-.8-.3-1.2-.4m-40.6.7c-1.4-.5-3.1-.4-3.8.3"/><path d="M621.6 354.5c-.7.7-.2 1.7 1.2 2.2m22.1 13.7c2.2-2.1.6-5.1-3.5-6.7m-28.7 27.7c4.1 1.6 9.3 1.1 11.5-1m-30.1-6c-1.4-.5-3.1-.4-3.8.3M160 357.9c.1.8 1.1 1.3 2.5 1.5m904.6 129.5c-2.1-2.5-7.2-3.9-11.4-3-1.3.3-2.4.7-3.3 1.3M926 481.6c-.2 0-.4-.2-.6-.3m138.6 18.3c-.2 0-.4-.2-.6-.3m-124.6-12.9c-2.1-.8-4.6-.5-5.7.5M813 475.1c3 .7 6.2.4 8.1-.8m24.3 6.9c.3-4.1-5.4-8.1-12.9-8.9-4.4-.5-8.6.3-11.3 2m24.2 7.1c-.2 1.7 1.3 3.4 4 4.4m124.1 13.7c-.2 0-.4-.2-.6-.3m13.3 5c-2.1-.8-4.6-.5-5.7.5"/></g><path d="M984.1,614.3c0-1.2-1.9-2.1-4.1-2s-4.1,1-4.1,2.1c0,1.2,1.9,2.1,4.1,2,2.3,0,4.1-1,4.1-2.1h0Z"/><path d="M987,613.8c-.6-2-4.2-3.3-8-3-3.1.3-5.6,1.6-6,3.2" class="H"/><path d="M970.1,613.5c0,2.8,4.5,5,10,4.9,5.5,0,9.9-2.4,9.8-5.2s-4.5-5-10-4.9c-5.5,0-9.9,2.4-9.8,5.2h0Z"/><use href="#D" x="811.3" y="209.3"/><use href="#F" x="313" y="80.8"/><path d="M970.1 616c0 2.8 4.5 5 10 4.9 3.6 0 7-1.1 8.7-2.8m0 0c.8-.7 1.2-1.6 1.2-2.4m-255.3-60.5c0 2.8 4.5 5 10 4.9 3.6 0 7-1.1 8.7-2.8m-17.7-6.9c-.8-1.5-3.1-2.6-6-3m303.8 66.2c4.1 1.1 9.3.2 11.5-1.9m-214.1-50.3c-1.7-.5-3.6-.8-5.5-1.1m-59-7.9c-4-.5-8.2.4-10.2 2.3" class="H"/><use href="#F" x="585.9" y="151.2"/><path d="M1011.5,645.5c5.5,1.4,12.4.3,15.3-2.5" class="H"/></g><path d="M821.4 508.4l.3-2.4M360.5 405.2c0 .4.1.9.2 1.3" class="J E F G H"/><path d="M352 353.2l-.5.5c-.1.2-.3.3-.4.5s-.2.3-.3.5v.1.1.3.5.5.2.1.1c0 .2.2.3.3.5.1.1.2.3.4.4l.2.2c.1.1.2.1.3.2.2.1.4.3.6.4s.4.2.7.3c.2.1.5.2.7.3h.2.2c.1 0 .3 0 .4.1.3 0 .6.1.9.2s.6.1 1 .2m.7-9.9a.76.76 0 0 0-.4.2c-.3.1-.6.3-.9.4s-.6.3-.8.4c0 0-.1 0-.2.1 0 0-.1 0-.2.1-.1 0-.2.2-.4.2-.2.2-.5.3-.7.5s-.4.3-.6.5m20.4 10.2c.3 0 .6 0 .9.1m449.8 162.6c-.4.3-.9.5-1.4.7m182.1 66.3c0 .2-.1.5-.2.7" class="I E F G H"/><path d="M983.6,583.4c0,.3-.1.5-.2.8" class="E F G H J"/><path d="M985.4 584.7c0 .1 0 .2-.1.3v.2m-1.3-.6v.8" class="I E F G H"/><path d="M983.9 584.9v.2" class="E F G H J"/><path d="M505.3 363.9h.6.2.2.3.3.2.2c.2 0 .4 0 .6-.1m-11.8 7.4s0-.1.1-.2v-.2-.1-.1s0-.1-.1-.2h-.1s-.2-.1-.3-.1h-.6m498.8 217.3c0 .2-.1.5-.2.7" class="I E F G H"/><path d="M997.7 588.6c0 .3 0 .5-.1.8m-1.3-1v.8" class="J E F G H"/><path d="M998.8,589.2c0,.2-.1.5-.2.7" class="E F G H I"/><path d="M1001 590.6v.8m-120.8-46.9v.8m3 .3c0 .2-.1.5-.2.7" class="J E F G H"/><path d="M878.1 545v.2" class="E F G H I"/><path d="M883.6,546c0,.2-.1.5-.2.7" class="E F G H J"/><path d="M883.8,546.4c0,.2-.1.4-.2.6" class="E F G H I"/><path d="M893.5,549.4c0,.2-.1.5-.2.7" class="E F G H J"/><path d="M887.8 548.5v.4" class="E F G H I"/><path d="M894.2 550.7v.2" class="E F G H J"/><path d="M914.9,557.9c0,.2-.1.5-.2.7" class="E F G H I"/><path d="M922.6,560.3c0,.3-.1.5-.2.8" class="E F G H J"/><path d="M924.3,561.7c0,.2-.1.4-.2.5" class="E F G H I"/><path d="M922.8 561.9v.2" class="E F G H J"/><g class="I E F G H"><path d="M284.4 234.7c-.1 0-.2 0-.3.1l-1.4.6c-.4.2-.8.4-1.2.7-.3.2-.7.5-.9.7M358.1 392c-.6 0-1.1-.2-1.6-.3s-.9-.3-1.3-.5-.7-.4-1-.6-.5-.5-.7-.7-.3-.5-.4-.8v-.9c0-.3.2-.6.4-.9s.4-.6.7-.9"/><path d="M355.5 385.2c.3-.3.6-.6 1-.8s.8-.5 1.2-.7m3.4-32.7c-.3 0-.5.1-.8.2-.4 0-.7.2-1 .3l-1 .3c-.2 0-.3.1-.5.2-.2 0-.3.1-.5.2-.3.1-.6.3-.9.4s-.6.3-.8.4c0 0-.1 0-.2.1 0 0-.1 0-.2.1-.1 0-.2.2-.4.2-.2.2-.5.3-.7.5s-.4.3-.6.5m-1.2 1.3l-.5.5c-.1.2-.3.3-.4.5s-.2.3-.3.5"/></g><path d="M352.3 355.7l-.3-2.5" class="E F G H J"/><path d="M360.2 406.4a1.92 1.92 0 0 1 .4-1.2m147.9-36.5h-.3-.3-1.8" class="I E F G H"/><path d="M506 368.9l-.7-5m2.5-.2l.7 5" class="J E F G H"/><path d="M496.5 372.7l-.3-2.1" class="E F G H I"/><path d="M496.3,372.5c0-.4-.1-.9-.2-1.3" class="E F G H J"/><path d="M1186.1 471.8c.3-.3.5-.5.6-.8.2-.3.3-.6.3-.9v-.9c0-.3-.2-.6-.3-.9l-.6-.9c-.3-.3-.6-.6-.9-.8-.4-.3-.8-.5-1.2-.8-.4-.2-.9-.4-1.4-.6" class="E F G H I"/><path d="M867.5,539.6c0,.3-.1.5-.2.8" class="E F G H J"/><path d="M869.6,540.8c0,.2-.1.5-.2.7" class="E F G H I"/><path d="M912.8 556.7c0 .3-.1.5-.2.8m-553.2-168l-3.9-4.3" class="J E F G H"/><path d="M362.5 387.9h-.1-.1-.1-.1-.1-.1-.1-.1-.1-.1-.3" class="E F G H I"/><path d="M354.1 386.4l4 4.4m463.7 78.7l-.6 4.7" class="J E F G H"/><circle cx="416.6" cy="390.1" r="12" class="K"/><use href="#G" fill="#fff"/><circle cx="744.6" cy="475.1" r="12" class="K"/><use href="#G" x="328" y="85" fill="#fff"/><circle cx="405.5" cy="338.8" r="12" class="K"/><path d="M408.4 341.8c.2 0 .5 0 .6.3s.3.4.3.6 0 .5-.3.6-.4.3-.6.3h-5.9c-.2 0-.4 0-.5-.2-.1-.1-.3-.2-.3-.4v-.5c0-.2.1-.3.3-.4l1.6-1.5c.5-.4.9-.9 1.5-1.4s1-1 1.5-1.4c.3-.3.6-.7.7-1.1s.1-.8 0-1.1-.3-.6-.6-.8-.6-.3-1.1-.3-.8 0-1.1.3c-.3.2-.5.4-.6.6a2.47 2.47 0 0 0-.4.9c0 .2-.1.4-.3.6-.2.1-.4.2-.7.2-.2 0-.4-.1-.6-.3-.1-.2-.2-.4-.2-.7.1-.6.3-1.1.6-1.6.1-.2.3-.4.5-.6s.4-.4.7-.5.6-.3.9-.4.7-.1 1.1-.1.8 0 1.2.2c.4.1.7.3 1 .5s.5.4.7.7.3.6.4.9.2.6.2 1c0 .3 0 .7-.1 1 0 .3-.2.7-.4 1s-.4.7-.8 1c-.5.4-.9.9-1.4 1.4l-1.5 1.4h3.7z" fill="#fff"/><circle cx="732" cy="424.5" r="12" class="K"/><path d="M735 427.5c.2 0 .5 0 .6.3.2.2.3.4.3.6s0 .5-.3.6c-.2.2-.4.3-.6.3h-5.9c-.2 0-.4 0-.5-.2-.1-.1-.3-.2-.3-.4v-.5c0-.2.1-.3.3-.4l1.6-1.5c.5-.4.9-.9 1.5-1.4s1-1 1.5-1.4c.3-.3.6-.7.7-1.1s.1-.8 0-1.1-.3-.6-.6-.8-.6-.3-1.1-.3-.8 0-1.1.3c-.3.2-.5.4-.6.6a2.47 2.47 0 0 0-.4.9c0 .2-.1.4-.3.6-.2.1-.4.2-.7.2-.2 0-.4-.1-.6-.3-.1-.2-.2-.4-.2-.7.1-.6.3-1.1.6-1.6.1-.2.3-.4.5-.6s.4-.4.7-.5.6-.3.9-.4.7-.1 1.1-.1.8 0 1.2.2c.4.1.7.3 1 .5s.5.4.7.7.3.6.4.9.2.6.2 1 0 .7-.1 1c0 .3-.2.7-.4 1s-.4.7-.8 1c-.5.4-.9.9-1.4 1.4l-1.5 1.4h3.7z" fill="#fff"/><defs ><path id="B" d="M624.9 419.1c-.3 2.6 3.2 5.1 7.9 5.6s8.7-1.1 9-3.7-3.2-5.1-7.9-5.6-8.7 1.1-9 3.7h0z"/><path id="C" d="M535.3 391.7c-.3-2.1-4.3-3.3-8.9-2.7-4.7.6-8.2 2.9-7.9 5s4.3 3.3 8.9 2.7c4.7-.6 8.2-2.9 7.9-5h0z"/><path id="D" d="M161.6 404.2c0 2 3.2 3.5 7.1 3.5s7.1-1.7 7-3.7-3.2-3.5-7.1-3.5-7.1 1.7-7 3.7h0z"/><path id="E" d="M1009.1 464.3c.3-2.6-3.2-5.1-7.9-5.6s-8.7 1.1-9 3.7 3.2 5.1 7.9 5.6 8.7-1.1 9-3.7h0z"/><path id="F" d="M414.1 470.6c0-.8-1.4-1.5-3-1.5s-3 .7-3 1.6 1.4 1.5 3 1.5 3-.7 3-1.6h0z"/><path id="G" d="M418.7 393.1c.2 0 .5 0 .6.3.2.2.3.4.3.6s0 .5-.3.6c-.2.2-.4.3-.6.3h-4.1c-.2 0-.4 0-.6-.3-.2-.2-.3-.4-.3-.6s0-.4.3-.6c.2-.2.4-.3.6-.3h1.2v-6.8l-.6.3c-.2.1-.5.1-.7 0-.2 0-.4-.2-.5-.5v-.7c0-.2.2-.4.5-.5l1.9-.8h.4c.1 0 .3 0 .4.1.3.2.4.4.4.7v8.2h1.2z"/></defs></svg>