<?xml version="1.0" encoding="UTF-8"?><svg id="_图层_1" xmlns="http://www.w3.org/2000/svg" viewBox="0 0 766.1 248.72"><defs><style>.cls-1{fill:none;stroke:#fff;stroke-linecap:round;stroke-linejoin:round;stroke-width:.75px;}</style></defs><g id="LINE"><line class="cls-1" x1="143.99" y1="143.94" x2="143.99" y2="133.13"/></g><g id="LINE-2"><line class="cls-1" x1="147.18" y1="129.94" x2="176.27" y2="129.94"/></g><g id="LINE-3"><line class="cls-1" x1="179.45" y1="133.13" x2="179.45" y2="139.92"/></g><g id="LINE-4"><line class="cls-1" x1="176.27" y1="143.11" x2="173.77" y2="143.11"/></g><g id="LINE-5"><line class="cls-1" x1="171.64" y1="165.1" x2="171.64" y2="145.23"/></g><g id="LINE-6"><line class="cls-1" x1="173.77" y1="167.22" x2="176.74" y2="167.22"/></g><g id="LINE-7"><line class="cls-1" x1="178.86" y1="169.34" x2="178.86" y2="189.09"/></g><g id="LINE-8"><line class="cls-1" x1="145.74" y1="191.21" x2="176.74" y2="191.21"/></g><g id="LINE-9"><line class="cls-1" x1="143.61" y1="185.65" x2="143.61" y2="189.09"/></g><g id="LINE-10"><line class="cls-1" x1="140.88" y1="183.56" x2="128.98" y2="183.56"/></g><g id="LINE-11"><line class="cls-1" x1="123.83" y1="187.57" x2="111.79" y2="187.57"/></g><g id="LINE-12"><line class="cls-1" x1="108.6" y1="184.39" x2="108.6" y2="173.58"/></g><g id="LINE-13"><line class="cls-1" x1="2.42" y1="103.49" x2="2.42" y2="92.68"/></g><g id="LINE-14"><line class="cls-1" x1="5.6" y1="89.49" x2="34.69" y2="89.49"/></g><g id="LINE-15"><line class="cls-1" x1="37.88" y1="92.68" x2="37.88" y2="99.47"/></g><g id="LINE-16"><line class="cls-1" x1="34.69" y1="102.66" x2="22.79" y2="102.66"/></g><g id="LINE-17"><line class="cls-1" x1="17.65" y1="106.67" x2="5.6" y2="106.67"/></g><g id="LINE-18"><line class="cls-1" x1="2.42" y1="143.94" x2="2.42" y2="133.13"/></g><g id="LINE-19"><line class="cls-1" x1="5.6" y1="129.94" x2="34.69" y2="129.94"/></g><g id="LINE-20"><line class="cls-1" x1="37.88" y1="133.13" x2="37.88" y2="139.92"/></g><g id="LINE-21"><line class="cls-1" x1="34.69" y1="143.11" x2="22.79" y2="143.11"/></g><g id="LINE-22"><line class="cls-1" x1="17.65" y1="147.12" x2="5.6" y2="147.12"/></g><g id="LINE-23"><line class="cls-1" x1="58.04" y1="184.39" x2="58.04" y2="173.58"/></g><g id="LINE-24"><line class="cls-1" x1="61.22" y1="170.39" x2="90.31" y2="170.39"/></g><g id="LINE-25"><line class="cls-1" x1="93.5" y1="173.58" x2="93.5" y2="180.37"/></g><g id="LINE-26"><line class="cls-1" x1="90.31" y1="183.56" x2="78.41" y2="183.56"/></g><g id="LINE-27"><line class="cls-1" x1="408.63" y1="44.84" x2="410.88" y2="55.41"/></g><g id="LINE-28"><line class="cls-1" x1="439.54" y1="35.01" x2="411.09" y2="41.06"/></g><g id="LINE-29"><line class="cls-1" x1="444.73" y1="44.11" x2="443.32" y2="37.46"/></g><g id="LINE-30"><line class="cls-1" x1="430.64" y1="50.36" x2="442.28" y2="47.89"/></g><g id="LINE-31"><line class="cls-1" x1="414.66" y1="57.86" x2="426.44" y2="55.36"/></g><g id="LINE-32"><line class="cls-1" x1="517.54" y1="63.04" x2="519.79" y2="73.61"/></g><g id="LINE-33"><line class="cls-1" x1="548.45" y1="53.21" x2="520" y2="59.26"/></g><g id="LINE-34"><line class="cls-1" x1="553.64" y1="62.31" x2="552.23" y2="55.67"/></g><g id="LINE-35"><line class="cls-1" x1="539.55" y1="68.57" x2="551.19" y2="66.09"/></g><g id="LINE-36"><line class="cls-1" x1="523.57" y1="76.07" x2="535.35" y2="73.56"/></g><g id="LINE-37"><line class="cls-1" x1="438.41" y1="79.86" x2="440.66" y2="90.43"/></g><g id="LINE-38"><line class="cls-1" x1="469.32" y1="70.03" x2="440.86" y2="76.08"/></g><g id="LINE-39"><line class="cls-1" x1="474.51" y1="79.13" x2="473.09" y2="72.49"/></g><g id="LINE-40"><line class="cls-1" x1="460.42" y1="85.39" x2="472.05" y2="82.91"/></g><g id="LINE-41"><line class="cls-1" x1="444.43" y1="92.89" x2="456.21" y2="90.38"/></g><g id="LINE-42"><line class="cls-1" x1="654.76" y1="133.13" x2="654.76" y2="143.94"/></g><g id="LINE-43"><line class="cls-1" x1="687.04" y1="129.94" x2="657.95" y2="129.94"/></g><g id="LINE-44"><line class="cls-1" x1="690.22" y1="139.92" x2="690.22" y2="133.13"/></g><g id="LINE-45"><line class="cls-1" x1="675.14" y1="143.11" x2="687.04" y2="143.11"/></g><g id="LINE-46"><line class="cls-1" x1="657.95" y1="147.12" x2="669.99" y2="147.12"/></g><g id="LINE-47"><line class="cls-1" x1="695.21" y1="173.58" x2="695.21" y2="184.39"/></g><g id="LINE-48"><line class="cls-1" x1="727.49" y1="170.39" x2="698.4" y2="170.39"/></g><g id="LINE-49"><line class="cls-1" x1="730.67" y1="180.37" x2="730.67" y2="173.58"/></g><g id="LINE-50"><line class="cls-1" x1="715.59" y1="183.56" x2="727.49" y2="183.56"/></g><g id="LINE-51"><line class="cls-1" x1="698.4" y1="187.57" x2="710.44" y2="187.57"/></g><g id="LINE-52"><line class="cls-1" x1="614.31" y1="173.58" x2="614.31" y2="184.39"/></g><g id="LINE-53"><line class="cls-1" x1="646.59" y1="170.39" x2="617.5" y2="170.39"/></g><g id="LINE-54"><line class="cls-1" x1="649.77" y1="180.37" x2="649.77" y2="173.58"/></g><g id="LINE-55"><line class="cls-1" x1="634.69" y1="183.56" x2="646.59" y2="183.56"/></g><g id="LINE-56"><line class="cls-1" x1="193.37" y1="67.72" x2="181.59" y2="65.22"/></g><g id="LINE-57"><line class="cls-1" x1="179.63" y1="102.9" x2="181.88" y2="92.33"/></g><g id="LINE-58"><line class="cls-1" x1="185.66" y1="89.87" x2="214.11" y2="95.92"/></g><g id="LINE-59"><line class="cls-1" x1="216.56" y1="99.7" x2="215.15" y2="106.34"/></g><g id="LINE-60"><line class="cls-1" x1="211.37" y1="108.8" x2="199.73" y2="106.32"/></g><g id="LINE-61"><line class="cls-1" x1="193.86" y1="109.18" x2="182.08" y2="106.68"/></g><g id="LINE-62"><line class="cls-1" x1="189.03" y1="146.25" x2="191.27" y2="135.68"/></g><g id="LINE-63"><line class="cls-1" x1="195.05" y1="133.22" x2="223.51" y2="139.27"/></g><g id="LINE-64"><line class="cls-1" x1="225.96" y1="143.05" x2="224.55" y2="149.7"/></g><g id="LINE-65"><line class="cls-1" x1="220.77" y1="152.15" x2="209.13" y2="149.68"/></g><g id="LINE-66"><line class="cls-1" x1="203.26" y1="152.53" x2="191.48" y2="150.03"/></g><g id="LINE-67"><line class="cls-1" x1="225.13" y1="195.28" x2="227.38" y2="184.7"/></g><g id="LINE-68"><line class="cls-1" x1="231.15" y1="182.25" x2="259.61" y2="188.3"/></g><g id="LINE-69"><line class="cls-1" x1="262.06" y1="192.08" x2="260.65" y2="198.72"/></g><g id="LINE-70"><line class="cls-1" x1="762.12" y1="204.56" x2="755.09" y2="204.56"/></g><g id="LINE-71"><line class="cls-1" x1="765.73" y1="200.95" x2="765.73" y2="92.32"/></g><g id="LINE-72"><line class="cls-1" x1="756.31" y1="86.58" x2="760" y2="86.58"/></g><g id="LINE-73"><line class="cls-1" x1="760" y1="66.2" x2="756.31" y2="66.2"/></g><g id="LINE-74"><line class="cls-1" x1="765.73" y1="60.47" x2="765.73" y2="28.93"/></g><g id="LINE-75"><line class="cls-1" x1="760" y1="23.2" x2="743.39" y2="23.2"/></g><g id="LINE-76"><line class="cls-1" x1="736.38" y1="16.19" x2="736.38" y2="4.02"/></g><g id="LINE-77"><line class="cls-1" x1="580.01" y1=".38" x2="732.39" y2=".38"/></g><g id="LINE-78"><line class="cls-1" x1="556.28" y1="1.79" x2="437.39" y2="27.07"/></g><g id="LINE-79"><line class="cls-1" x1="412.46" y1="32.36" x2="383.98" y2="38.42"/></g><g id="LINE-80"><line class="cls-1" x1="382.3" y1="47.68" x2="382.3" y2="40.5"/></g><g id="LINE-81"><line class="cls-1" x1="384.42" y1="49.81" x2="400.28" y2="49.81"/></g><g id="LINE-82"><line class="cls-1" x1="406.65" y1="56.18" x2="406.65" y2="80.73"/></g><g id="LINE-83"><line class="cls-1" x1="429.75" y1="78.44" x2="409.21" y2="82.81"/></g><g id="LINE-84"><line class="cls-1" x1="447.71" y1="160.59" x2="449.96" y2="171.16"/></g><g id="LINE-85"><line class="cls-1" x1="478.62" y1="150.77" x2="450.16" y2="156.81"/></g><g id="LINE-86"><line class="cls-1" x1="483.81" y1="159.87" x2="482.4" y2="153.22"/></g><g id="LINE-87"><line class="cls-1" x1="469.72" y1="166.12" x2="481.36" y2="163.64"/></g><g id="LINE-88"><line class="cls-1" x1="453.74" y1="173.62" x2="465.52" y2="171.11"/></g><g id="LINE-89"><line class="cls-1" x1="526.85" y1="143.77" x2="529.09" y2="154.34"/></g><g id="LINE-90"><line class="cls-1" x1="557.75" y1="133.95" x2="529.3" y2="139.99"/></g><g id="LINE-91"><line class="cls-1" x1="562.94" y1="143.04" x2="561.53" y2="136.4"/></g><g id="LINE-92"><line class="cls-1" x1="548.85" y1="149.3" x2="560.49" y2="146.82"/></g><g id="LINE-93"><line class="cls-1" x1="532.87" y1="156.8" x2="544.65" y2="154.29"/></g><g id="LINE-94"><line class="cls-1" x1="458.1" y1="117.03" x2="460.34" y2="127.6"/></g><g id="LINE-95"><line class="cls-1" x1="489" y1="107.2" x2="460.55" y2="113.25"/></g><g id="LINE-96"><line class="cls-1" x1="494.19" y1="116.3" x2="492.78" y2="109.66"/></g><g id="LINE-97"><line class="cls-1" x1="480.1" y1="122.56" x2="491.74" y2="120.08"/></g><g id="LINE-98"><line class="cls-1" x1="464.12" y1="130.06" x2="475.9" y2="127.55"/></g><g id="LINE-99"><line class="cls-1" x1="312.07" y1="92.95" x2="300.29" y2="90.45"/></g><g id="LINE-100"><line class="cls-1" x1="218.71" y1="69.85" x2="220.95" y2="59.28"/></g><g id="LINE-101"><line class="cls-1" x1="224.73" y1="56.82" x2="253.18" y2="62.87"/></g><g id="LINE-102"><line class="cls-1" x1="255.64" y1="66.65" x2="254.23" y2="73.3"/></g><g id="LINE-103"><line class="cls-1" x1="250.45" y1="75.75" x2="238.81" y2="73.28"/></g><g id="LINE-104"><line class="cls-1" x1="232.94" y1="76.13" x2="221.16" y2="73.63"/></g><g id="LINE-105"><line class="cls-1" x1="258.27" y1="78.26" x2="260.52" y2="67.69"/></g><g id="LINE-106"><line class="cls-1" x1="264.3" y1="65.23" x2="292.75" y2="71.28"/></g><g id="LINE-107"><line class="cls-1" x1="295.2" y1="75.06" x2="293.79" y2="81.71"/></g><g id="LINE-108"><line class="cls-1" x1="290.01" y1="84.16" x2="278.38" y2="81.69"/></g><g id="LINE-109"><line class="cls-1" x1="272.51" y1="84.54" x2="260.73" y2="82.04"/></g><g id="LINE-110"><line class="cls-1" x1="111.79" y1="170.39" x2="140.57" y2="170.39"/></g><g id="LINE-111"><line class="cls-1" x1="144.67" y1="167.22" x2="145.74" y2="167.22"/></g><g id="LINE-112"><line class="cls-1" x1="147.86" y1="151.61" x2="147.86" y2="165.1"/></g><g id="LINE-113"><line class="cls-1" x1="509.77" y1="33.54" x2="521.41" y2="31.07"/></g><g id="LINE-114"><line class="cls-1" x1="493.79" y1="41.04" x2="505.57" y2="38.54"/></g><g id="LINE-115"><line class="cls-1" x1="654.76" y1="173.58" x2="654.76" y2="184.39"/></g><g id="LINE-116"><line class="cls-1" x1="687.04" y1="170.39" x2="657.95" y2="170.39"/></g><g id="LINE-117"><line class="cls-1" x1="690.22" y1="180.37" x2="690.22" y2="173.58"/></g><g id="LINE-118"><line class="cls-1" x1="675.14" y1="183.56" x2="687.04" y2="183.56"/></g><g id="LINE-119"><line class="cls-1" x1="657.95" y1="187.57" x2="669.99" y2="187.57"/></g><g id="LINE-120"><line class="cls-1" x1="710.38" y1="133.13" x2="710.38" y2="143.94"/></g><g id="LINE-121"><line class="cls-1" x1="742.66" y1="129.94" x2="713.57" y2="129.94"/></g><g id="LINE-122"><line class="cls-1" x1="745.84" y1="139.92" x2="745.84" y2="133.13"/></g><g id="LINE-123"><line class="cls-1" x1="730.76" y1="143.11" x2="742.66" y2="143.11"/></g><g id="LINE-124"><line class="cls-1" x1="713.57" y1="147.12" x2="725.61" y2="147.12"/></g><g id="LINE-125"><line class="cls-1" x1="614.31" y1="133.13" x2="614.31" y2="143.94"/></g><g id="LINE-126"><line class="cls-1" x1="646.59" y1="129.94" x2="617.5" y2="129.94"/></g><g id="LINE-127"><line class="cls-1" x1="649.77" y1="139.92" x2="649.77" y2="133.13"/></g><g id="LINE-128"><line class="cls-1" x1="533.76" y1="107.89" x2="532.35" y2="101.25"/></g><g id="LINE-129"><line class="cls-1" x1="519.67" y1="114.15" x2="531.31" y2="111.67"/></g><g id="LINE-130"><line class="cls-1" x1="503.69" y1="121.65" x2="515.47" y2="119.14"/></g><g id="LINE-131"><line class="cls-1" x1="431.39" y1="205.41" x2="433.64" y2="215.99"/></g><g id="LINE-132"><line class="cls-1" x1="462.3" y1="195.59" x2="433.85" y2="201.64"/></g><g id="LINE-133"><line class="cls-1" x1="467.49" y1="204.69" x2="466.08" y2="198.04"/></g><g id="LINE-134"><line class="cls-1" x1="453.4" y1="210.94" x2="465.04" y2="208.47"/></g><g id="LINE-135"><line class="cls-1" x1="437.42" y1="218.44" x2="449.2" y2="215.94"/></g><g id="LINE-136"><line class="cls-1" x1="487.28" y1="152.18" x2="489.53" y2="162.75"/></g><g id="LINE-137"><line class="cls-1" x1="518.19" y1="142.36" x2="489.73" y2="148.4"/></g><g id="LINE-138"><line class="cls-1" x1="523.38" y1="151.46" x2="521.96" y2="144.81"/></g><g id="LINE-139"><line class="cls-1" x1="509.29" y1="157.71" x2="520.92" y2="155.23"/></g><g id="LINE-140"><line class="cls-1" x1="493.3" y1="165.21" x2="505.08" y2="162.7"/></g><g id="LINE-141"><line class="cls-1" x1="573.86" y1="133.13" x2="573.86" y2="143.94"/></g><g id="LINE-142"><line class="cls-1" x1="606.13" y1="129.94" x2="577.04" y2="129.94"/></g><g id="LINE-143"><line class="cls-1" x1="636.47" y1="49.04" x2="607.38" y2="49.04"/></g><g id="LINE-144"><line class="cls-1" x1="639.66" y1="59.02" x2="639.66" y2="52.23"/></g><g id="LINE-145"><line class="cls-1" x1="624.57" y1="62.21" x2="636.47" y2="62.21"/></g><g id="LINE-146"><line class="cls-1" x1="607.38" y1="66.22" x2="619.43" y2="66.22"/></g><g id="LINE-147"><line class="cls-1" x1="614.31" y1="11.78" x2="614.31" y2="22.59"/></g><g id="LINE-148"><line class="cls-1" x1="646.59" y1="8.59" x2="617.5" y2="8.59"/></g><g id="LINE-149"><line class="cls-1" x1="649.77" y1="18.57" x2="649.77" y2="11.78"/></g><g id="LINE-150"><line class="cls-1" x1="634.69" y1="21.76" x2="646.59" y2="21.76"/></g><g id="LINE-151"><line class="cls-1" x1="617.5" y1="25.77" x2="629.54" y2="25.77"/></g><g id="LINE-152"><line class="cls-1" x1="563.75" y1="52.23" x2="563.75" y2="63.04"/></g><g id="LINE-153"><line class="cls-1" x1="596.02" y1="49.04" x2="566.93" y2="49.04"/></g><g id="LINE-154"><line class="cls-1" x1="599.21" y1="59.02" x2="599.21" y2="52.23"/></g><g id="LINE-155"><line class="cls-1" x1="584.12" y1="62.21" x2="596.02" y2="62.21"/></g><g id="LINE-156"><line class="cls-1" x1="566.93" y1="66.22" x2="578.98" y2="66.22"/></g><g id="LINE-157"><line class="cls-1" x1="644.65" y1="52.23" x2="644.65" y2="63.04"/></g><g id="LINE-158"><line class="cls-1" x1="676.92" y1="49.04" x2="647.83" y2="49.04"/></g><g id="LINE-159"><line class="cls-1" x1="680.11" y1="59.02" x2="680.11" y2="52.23"/></g><g id="LINE-160"><line class="cls-1" x1="665.02" y1="62.21" x2="676.92" y2="62.21"/></g><g id="LINE-161"><line class="cls-1" x1="647.83" y1="66.22" x2="659.88" y2="66.22"/></g><g id="LINE-162"><line class="cls-1" x1="690.15" y1="92.68" x2="690.15" y2="103.49"/></g><g id="LINE-163"><line class="cls-1" x1="722.43" y1="89.49" x2="693.34" y2="89.49"/></g><g id="LINE-164"><line class="cls-1" x1="725.62" y1="99.47" x2="725.62" y2="92.68"/></g><g id="LINE-165"><line class="cls-1" x1="710.53" y1="102.66" x2="722.43" y2="102.66"/></g><g id="LINE-166"><line class="cls-1" x1="693.34" y1="106.67" x2="705.38" y2="106.67"/></g><g id="LINE-167"><line class="cls-1" x1="583.97" y1="92.68" x2="583.97" y2="103.49"/></g><g id="LINE-168"><line class="cls-1" x1="616.25" y1="89.49" x2="587.16" y2="89.49"/></g><g id="LINE-169"><line class="cls-1" x1="619.43" y1="99.47" x2="619.43" y2="92.68"/></g><g id="LINE-170"><line class="cls-1" x1="604.35" y1="102.66" x2="616.25" y2="102.66"/></g><g id="LINE-171"><line class="cls-1" x1="587.16" y1="106.67" x2="599.2" y2="106.67"/></g><g id="LINE-172"><line class="cls-1" x1="153.12" y1="209.85" x2="35.56" y2="209.85"/></g><g id="LINE-173"><line class="cls-1" x1="182.18" y1="213.25" x2="346.86" y2="247.99"/></g><g id="LINE-174"><line class="cls-1" x1="353.78" y1="234.05" x2="353.78" y2="242.38"/></g><g id="LINE-175"><line class="cls-1" x1="164.22" y1="21.57" x2="164.22" y2="10.77"/></g><g id="LINE-176"><line class="cls-1" x1="167.4" y1="7.58" x2="196.49" y2="7.58"/></g><g id="LINE-177"><line class="cls-1" x1="199.68" y1="10.77" x2="199.68" y2="17.56"/></g><g id="LINE-178"><line class="cls-1" x1="196.49" y1="20.75" x2="184.6" y2="20.75"/></g><g id="LINE-179"><line class="cls-1" x1="179.45" y1="24.76" x2="167.4" y2="24.76"/></g><g id="LINE-180"><line class="cls-1" x1="123.77" y1="22.58" x2="123.77" y2="11.78"/></g><g id="LINE-181"><line class="cls-1" x1="126.95" y1="8.59" x2="156.04" y2="8.59"/></g><g id="LINE-182"><line class="cls-1" x1="159.23" y1="11.78" x2="159.23" y2="18.57"/></g><g id="LINE-183"><line class="cls-1" x1="156.04" y1="21.76" x2="144.15" y2="21.76"/></g><g id="LINE-184"><line class="cls-1" x1="139" y1="25.77" x2="126.95" y2="25.77"/></g><g id="LINE-185"><line class="cls-1" x1="609.32" y1="139.92" x2="609.32" y2="133.13"/></g><g id="LINE-186"><line class="cls-1" x1="594.24" y1="143.11" x2="606.13" y2="143.11"/></g><g id="LINE-187"><line class="cls-1" x1="577.04" y1="147.12" x2="589.09" y2="147.12"/></g><g id="LINE-188"><line class="cls-1" x1="624.42" y1="92.68" x2="624.42" y2="103.49"/></g><g id="LINE-189"><line class="cls-1" x1="656.7" y1="89.49" x2="627.61" y2="89.49"/></g><g id="LINE-190"><line class="cls-1" x1="659.88" y1="99.47" x2="659.88" y2="92.68"/></g><g id="LINE-191"><line class="cls-1" x1="644.8" y1="102.66" x2="656.7" y2="102.66"/></g><g id="LINE-192"><line class="cls-1" x1="627.61" y1="106.67" x2="639.65" y2="106.67"/></g><g id="LINE-193"><line class="cls-1" x1="695.21" y1="52.23" x2="695.21" y2="63.04"/></g><g id="LINE-194"><line class="cls-1" x1="727.49" y1="49.04" x2="698.4" y2="49.04"/></g><g id="LINE-195"><line class="cls-1" x1="730.67" y1="59.02" x2="730.67" y2="52.23"/></g><g id="LINE-196"><line class="cls-1" x1="715.59" y1="62.21" x2="727.49" y2="62.21"/></g><g id="LINE-197"><line class="cls-1" x1="698.4" y1="66.22" x2="710.44" y2="66.22"/></g><g id="LINE-198"><line class="cls-1" x1="604.2" y1="52.23" x2="604.2" y2="63.04"/></g><g id="LINE-199"><line class="cls-1" x1="537.23" y1="100.21" x2="539.48" y2="110.78"/></g><g id="LINE-200"><line class="cls-1" x1="568.14" y1="90.38" x2="539.68" y2="96.43"/></g><g id="LINE-201"><line class="cls-1" x1="573.33" y1="99.48" x2="571.91" y2="92.84"/></g><g id="LINE-202"><line class="cls-1" x1="559.24" y1="105.74" x2="570.87" y2="103.26"/></g><g id="LINE-203"><line class="cls-1" x1="543.25" y1="113.23" x2="555.03" y2="110.73"/></g><g id="LINE-204"><line class="cls-1" x1="707.26" y1="8.59" x2="678.17" y2="8.59"/></g><g id="LINE-205"><line class="cls-1" x1="710.45" y1="18.57" x2="710.45" y2="11.78"/></g><g id="LINE-206"><line class="cls-1" x1="695.36" y1="21.76" x2="707.26" y2="21.76"/></g><g id="LINE-207"><line class="cls-1" x1="678.17" y1="25.77" x2="690.21" y2="25.77"/></g><g id="LINE-208"><line class="cls-1" x1="674.99" y1="11.78" x2="674.99" y2="22.59"/></g><g id="LINE-209"><line class="cls-1" x1="487.77" y1="28.01" x2="490.01" y2="38.59"/></g><g id="LINE-210"><line class="cls-1" x1="518.67" y1="18.19" x2="490.22" y2="24.24"/></g><g id="LINE-211"><line class="cls-1" x1="523.87" y1="27.29" x2="522.45" y2="20.64"/></g><g id="LINE-212"><line class="cls-1" x1="312.56" y1="134.41" x2="300.78" y2="131.91"/></g><g id="LINE-213"><line class="cls-1" x1="268.16" y1="163.07" x2="270.41" y2="152.5"/></g><g id="LINE-214"><line class="cls-1" x1="274.18" y1="150.04" x2="302.64" y2="156.09"/></g><g id="LINE-215"><line class="cls-1" x1="305.09" y1="159.87" x2="303.68" y2="166.52"/></g><g id="LINE-216"><line class="cls-1" x1="299.9" y1="168.97" x2="288.26" y2="166.5"/></g><g id="LINE-217"><line class="cls-1" x1="282.39" y1="169.35" x2="270.61" y2="166.85"/></g><g id="LINE-218"><line class="cls-1" x1="287.45" y1="43.11" x2="289.7" y2="32.54"/></g><g id="LINE-219"><line class="cls-1" x1="293.48" y1="30.08" x2="321.93" y2="36.13"/></g><g id="LINE-220"><line class="cls-1" x1="324.39" y1="39.91" x2="322.97" y2="46.55"/></g><g id="LINE-221"><line class="cls-1" x1="319.2" y1="49.01" x2="307.56" y2="46.53"/></g><g id="LINE-222"><line class="cls-1" x1="301.69" y1="49.39" x2="289.91" y2="46.89"/></g><g id="LINE-223"><line class="cls-1" x1="297.84" y1="86.67" x2="300.09" y2="76.1"/></g><g id="LINE-224"><line class="cls-1" x1="303.86" y1="73.64" x2="332.32" y2="79.69"/></g><g id="LINE-225"><line class="cls-1" x1="334.77" y1="83.47" x2="333.36" y2="90.12"/></g><g id="LINE-226"><line class="cls-1" x1="329.58" y1="92.57" x2="317.94" y2="90.1"/></g><g id="LINE-227"><line class="cls-1" x1="527.33" y1="19.6" x2="529.58" y2="30.18"/></g><g id="LINE-228"><line class="cls-1" x1="558.24" y1="9.78" x2="529.79" y2="15.83"/></g><g id="LINE-229"><line class="cls-1" x1="563.43" y1="18.88" x2="562.02" y2="12.23"/></g><g id="LINE-230"><line class="cls-1" x1="549.34" y1="25.13" x2="560.98" y2="22.66"/></g><g id="LINE-231"><line class="cls-1" x1="533.36" y1="32.63" x2="545.14" y2="30.13"/></g><g id="LINE-232"><line class="cls-1" x1="484.3" y1="35.7" x2="482.89" y2="29.05"/></g><g id="LINE-233"><line class="cls-1" x1="470.21" y1="41.95" x2="481.85" y2="39.48"/></g><g id="LINE-234"><line class="cls-1" x1="454.22" y1="49.45" x2="466.01" y2="46.95"/></g><g id="LINE-235"><line class="cls-1" x1="594.24" y1="20.75" x2="606.13" y2="20.75"/></g><g id="LINE-236"><line class="cls-1" x1="577.04" y1="24.76" x2="589.09" y2="24.76"/></g><g id="LINE-237"><line class="cls-1" x1="573.86" y1="10.77" x2="573.86" y2="21.57"/></g><g id="LINE-238"><line class="cls-1" x1="606.13" y1="7.58" x2="577.04" y2="7.58"/></g><g id="LINE-239"><line class="cls-1" x1="609.32" y1="17.56" x2="609.32" y2="10.77"/></g><g id="LINE-240"><line class="cls-1" x1="382.3" y1="221.73" x2="382.3" y2="211.73"/></g><g id="LINE-241"><line class="cls-1" x1="384.42" y1="223.86" x2="391.02" y2="223.86"/></g><g id="LINE-242"><line class="cls-1" x1="401.21" y1="234.05" x2="401.21" y2="242.61"/></g><g id="LINE-243"><line class="cls-1" x1="408.13" y1="248.22" x2="573.69" y2="213.29"/></g><g id="LINE-244"><line class="cls-1" x1="602.77" y1="209.85" x2="730.55" y2="209.85"/></g><g id="LINE-245"><line class="cls-1" x1="169.34" y1="92.68" x2="169.34" y2="99.47"/></g><g id="LINE-246"><line class="cls-1" x1="166.16" y1="102.66" x2="154.26" y2="102.66"/></g><g id="LINE-247"><line class="cls-1" x1="149.11" y1="106.67" x2="137.07" y2="106.67"/></g><g id="LINE-248"><line class="cls-1" x1="133.88" y1="63.04" x2="133.88" y2="52.23"/></g><g id="LINE-249"><line class="cls-1" x1="137.07" y1="49.04" x2="166.16" y2="49.04"/></g><g id="LINE-250"><line class="cls-1" x1="169.34" y1="52.23" x2="169.34" y2="59.02"/></g><g id="LINE-251"><line class="cls-1" x1="166.16" y1="62.21" x2="154.26" y2="62.21"/></g><g id="LINE-252"><line class="cls-1" x1="149.11" y1="66.22" x2="137.07" y2="66.22"/></g><g id="LINE-253"><line class="cls-1" x1="81.45" y1="129.94" x2="110.54" y2="129.94"/></g><g id="LINE-254"><line class="cls-1" x1="113.72" y1="133.13" x2="113.72" y2="139.92"/></g><g id="LINE-255"><line class="cls-1" x1="110.54" y1="143.11" x2="98.64" y2="143.11"/></g><g id="LINE-256"><line class="cls-1" x1="93.49" y1="147.12" x2="81.45" y2="147.12"/></g><g id="LINE-257"><line class="cls-1" x1="78.26" y1="143.94" x2="78.26" y2="133.13"/></g><g id="LINE-258"><line class="cls-1" x1="110.54" y1="102.66" x2="98.64" y2="102.66"/></g><g id="LINE-259"><line class="cls-1" x1="93.49" y1="106.67" x2="81.45" y2="106.67"/></g><g id="LINE-260"><line class="cls-1" x1="83.32" y1="63.04" x2="83.32" y2="52.23"/></g><g id="LINE-261"><line class="cls-1" x1="86.5" y1="49.04" x2="115.59" y2="49.04"/></g><g id="LINE-262"><line class="cls-1" x1="118.78" y1="52.23" x2="118.78" y2="59.02"/></g><g id="LINE-263"><line class="cls-1" x1="115.59" y1="62.21" x2="103.7" y2="62.21"/></g><g id="LINE-264"><line class="cls-1" x1="98.55" y1="66.22" x2="86.5" y2="66.22"/></g><g id="LINE-265"><line class="cls-1" x1="247.89" y1="34.7" x2="250.13" y2="24.13"/></g><g id="LINE-266"><line class="cls-1" x1="253.91" y1="21.67" x2="282.37" y2="27.72"/></g><g id="LINE-267"><line class="cls-1" x1="284.82" y1="31.5" x2="283.41" y2="38.14"/></g><g id="LINE-268"><line class="cls-1" x1="279.63" y1="40.6" x2="267.99" y2="38.12"/></g><g id="LINE-269"><line class="cls-1" x1="262.12" y1="40.98" x2="250.34" y2="38.48"/></g><g id="LINE-270"><line class="cls-1" x1="133.88" y1="103.49" x2="133.88" y2="92.68"/></g><g id="LINE-271"><line class="cls-1" x1="137.07" y1="89.49" x2="166.16" y2="89.49"/></g><g id="LINE-272"><line class="cls-1" x1="434.94" y1="87.54" x2="433.53" y2="80.9"/></g><g id="LINE-273"><line class="cls-1" x1="420.85" y1="93.8" x2="432.49" y2="91.32"/></g><g id="LINE-274"><line class="cls-1" x1="404.87" y1="101.3" x2="416.65" y2="98.79"/></g><g id="LINE-275"><line class="cls-1" x1="400.58" y1="103.27" x2="400.58" y2="110.93"/></g><g id="LINE-276"><line class="cls-1" x1="384.42" y1="121.54" x2="389.96" y2="121.54"/></g><g id="LINE-277"><line class="cls-1" x1="382.3" y1="129.46" x2="382.3" y2="123.67"/></g><g id="LINE-278"><line class="cls-1" x1="384.42" y1="131.58" x2="408.86" y2="131.58"/></g><g id="LINE-279"><line class="cls-1" x1="409.83" y1="150.64" x2="384.42" y2="150.64"/></g><g id="LINE-280"><line class="cls-1" x1="382.3" y1="161.61" x2="382.3" y2="152.76"/></g><g id="LINE-281"><line class="cls-1" x1="384.42" y1="163.74" x2="400.28" y2="163.74"/></g><g id="LINE-282"><line class="cls-1" x1="406.65" y1="170.11" x2="406.65" y2="203.23"/></g><g id="LINE-283"><line class="cls-1" x1="400.28" y1="209.6" x2="384.42" y2="209.6"/></g><g id="LINE-284"><line class="cls-1" x1="634.69" y1="143.11" x2="646.59" y2="143.11"/></g><g id="LINE-285"><line class="cls-1" x1="617.5" y1="147.12" x2="629.54" y2="147.12"/></g><g id="LINE-286"><line class="cls-1" x1="477.98" y1="71.45" x2="480.22" y2="82.02"/></g><g id="LINE-287"><line class="cls-1" x1="508.88" y1="61.62" x2="480.43" y2="67.67"/></g><g id="LINE-288"><line class="cls-1" x1="514.07" y1="70.72" x2="512.66" y2="64.08"/></g><g id="LINE-289"><line class="cls-1" x1="499.98" y1="76.98" x2="511.62" y2="74.5"/></g><g id="LINE-290"><line class="cls-1" x1="484" y1="84.48" x2="495.78" y2="81.97"/></g><g id="LINE-291"><line class="cls-1" x1="418.53" y1="125.44" x2="420.78" y2="136.01"/></g><g id="LINE-292"><line class="cls-1" x1="449.44" y1="115.61" x2="420.98" y2="121.66"/></g><g id="LINE-293"><line class="cls-1" x1="454.63" y1="124.71" x2="453.21" y2="118.07"/></g><g id="LINE-294"><line class="cls-1" x1="440.54" y1="130.97" x2="452.17" y2="128.49"/></g><g id="LINE-295"><line class="cls-1" x1="424.55" y1="138.47" x2="436.33" y2="135.96"/></g><g id="LINE-296"><line class="cls-1" x1="448.2" y1="36.43" x2="450.45" y2="47"/></g><g id="LINE-297"><line class="cls-1" x1="479.11" y1="26.6" x2="450.65" y2="32.65"/></g><g id="LINE-298"><line class="cls-1" x1="331.3" y1="206.8" x2="329.89" y2="213.44"/></g><g id="LINE-299"><line class="cls-1" x1="326.11" y1="215.89" x2="314.47" y2="213.42"/></g><g id="LINE-300"><line class="cls-1" x1="308.6" y1="216.28" x2="296.82" y2="213.77"/></g><g id="LINE-301"><line class="cls-1" x1="277.8" y1="208.92" x2="292.37" y2="209.56"/></g><g id="LINE-302"><line class="cls-1" x1="276.05" y1="200.09" x2="275.77" y2="206.71"/></g><g id="LINE-303"><line class="cls-1" x1="208.32" y1="26.29" x2="210.57" y2="15.72"/></g><g id="LINE-304"><line class="cls-1" x1="214.35" y1="13.26" x2="242.8" y2="19.31"/></g><g id="LINE-305"><line class="cls-1" x1="245.25" y1="23.09" x2="243.84" y2="29.73"/></g><g id="LINE-306"><line class="cls-1" x1="240.06" y1="32.19" x2="228.42" y2="29.71"/></g><g id="LINE-307"><line class="cls-1" x1="222.56" y1="32.57" x2="210.77" y2="30.06"/></g><g id="LINE-308"><line class="cls-1" x1="179.14" y1="61.44" x2="181.39" y2="50.87"/></g><g id="LINE-309"><line class="cls-1" x1="185.16" y1="48.41" x2="213.62" y2="54.46"/></g><g id="LINE-310"><line class="cls-1" x1="216.07" y1="58.24" x2="214.66" y2="64.89"/></g><g id="LINE-311"><line class="cls-1" x1="210.88" y1="67.34" x2="199.24" y2="64.87"/></g><g id="LINE-312"><line class="cls-1" x1="617.5" y1="187.57" x2="629.54" y2="187.57"/></g><g id="LINE-313"><line class="cls-1" x1="510.53" y1="188.59" x2="512.77" y2="199.17"/></g><g id="LINE-314"><line class="cls-1" x1="541.43" y1="178.77" x2="512.98" y2="184.82"/></g><g id="LINE-315"><line class="cls-1" x1="546.62" y1="187.87" x2="545.21" y2="181.22"/></g><g id="LINE-316"><line class="cls-1" x1="532.53" y1="194.12" x2="544.17" y2="191.65"/></g><g id="LINE-317"><line class="cls-1" x1="516.55" y1="201.62" x2="528.33" y2="199.12"/></g><g id="LINE-318"><line class="cls-1" x1="408.15" y1="169" x2="410.39" y2="179.57"/></g><g id="LINE-319"><line class="cls-1" x1="439.05" y1="159.18" x2="410.6" y2="165.22"/></g><g id="LINE-320"><line class="cls-1" x1="444.24" y1="168.28" x2="442.83" y2="161.63"/></g><g id="LINE-321"><line class="cls-1" x1="430.15" y1="174.53" x2="441.79" y2="172.05"/></g><g id="LINE-322"><line class="cls-1" x1="414.17" y1="182.03" x2="425.95" y2="179.52"/></g><g id="LINE-323"><line class="cls-1" x1="497.66" y1="108.62" x2="499.91" y2="119.19"/></g><g id="LINE-324"><line class="cls-1" x1="528.57" y1="98.79" x2="500.12" y2="104.84"/></g><g id="LINE-325"><line class="cls-1" x1="327.02" y1="51.52" x2="329.27" y2="40.95"/></g><g id="LINE-326"><line class="cls-1" x1="333.05" y1="38.49" x2="361.5" y2="44.54"/></g><g id="LINE-327"><line class="cls-1" x1="363.95" y1="48.32" x2="362.54" y2="54.96"/></g><g id="LINE-328"><line class="cls-1" x1="358.76" y1="57.42" x2="347.12" y2="54.94"/></g><g id="LINE-329"><line class="cls-1" x1="341.25" y1="57.8" x2="329.47" y2="55.3"/></g><g id="LINE-330"><line class="cls-1" x1="371.68" y1="223.86" x2="363.97" y2="223.86"/></g><g id="LINE-331"><line class="cls-1" x1="373.81" y1="221.73" x2="373.81" y2="211.77"/></g><g id="LINE-332"><line class="cls-1" x1="355.73" y1="209.65" x2="371.68" y2="209.65"/></g><g id="LINE-333"><line class="cls-1" x1="349.36" y1="170.16" x2="349.36" y2="203.28"/></g><g id="LINE-334"><line class="cls-1" x1="371.68" y1="163.79" x2="355.73" y2="163.79"/></g><g id="LINE-335"><line class="cls-1" x1="373.81" y1="161.66" x2="373.81" y2="152.76"/></g><g id="LINE-336"><line class="cls-1" x1="347.58" y1="150.64" x2="371.68" y2="150.64"/></g><g id="LINE-337"><line class="cls-1" x1="371.68" y1="131.58" x2="346.6" y2="131.58"/></g><g id="LINE-338"><line class="cls-1" x1="373.81" y1="129.46" x2="373.81" y2="123.67"/></g><g id="LINE-339"><line class="cls-1" x1="355.82" y1="121.54" x2="371.68" y2="121.54"/></g><g id="LINE-340"><line class="cls-1" x1="349.45" y1="76.76" x2="349.45" y2="115.17"/></g><g id="LINE-341"><line class="cls-1" x1="256.87" y1="201.18" x2="245.23" y2="198.7"/></g><g id="LINE-342"><line class="cls-1" x1="239.36" y1="201.56" x2="227.58" y2="199.05"/></g><g id="LINE-343"><line class="cls-1" x1="228.59" y1="154.66" x2="230.84" y2="144.09"/></g><g id="LINE-344"><line class="cls-1" x1="234.62" y1="141.63" x2="263.07" y2="147.68"/></g><g id="LINE-345"><line class="cls-1" x1="265.53" y1="151.46" x2="264.11" y2="158.11"/></g><g id="LINE-346"><line class="cls-1" x1="260.34" y1="160.56" x2="248.7" y2="158.09"/></g><g id="LINE-347"><line class="cls-1" x1="242.83" y1="160.94" x2="231.05" y2="158.44"/></g><g id="LINE-348"><line class="cls-1" x1="307.73" y1="171.48" x2="309.97" y2="160.91"/></g><g id="LINE-349"><line class="cls-1" x1="313.75" y1="158.45" x2="342.21" y2="164.5"/></g><g id="LINE-350"><line class="cls-1" x1="344.66" y1="168.28" x2="343.25" y2="174.93"/></g><g id="LINE-351"><line class="cls-1" x1="339.47" y1="177.38" x2="327.83" y2="174.91"/></g><g id="LINE-352"><line class="cls-1" x1="321.96" y1="177.76" x2="310.18" y2="175.26"/></g><g id="LINE-353"><line class="cls-1" x1="78.26" y1="103.49" x2="78.26" y2="92.68"/></g><g id="LINE-354"><line class="cls-1" x1="81.45" y1="89.49" x2="110.54" y2="89.49"/></g><g id="LINE-355"><line class="cls-1" x1="113.72" y1="92.68" x2="113.72" y2="99.47"/></g><g id="LINE-356"><line class="cls-1" x1="73.27" y1="187.57" x2="61.22" y2="187.57"/></g><g id="LINE-357"><line class="cls-1" x1="258.76" y1="119.72" x2="261.01" y2="109.15"/></g><g id="LINE-358"><line class="cls-1" x1="264.79" y1="106.69" x2="293.24" y2="112.74"/></g><g id="LINE-359"><line class="cls-1" x1="295.7" y1="116.52" x2="294.28" y2="123.16"/></g><g id="LINE-360"><line class="cls-1" x1="290.51" y1="125.62" x2="278.87" y2="123.14"/></g><g id="LINE-361"><line class="cls-1" x1="273" y1="126" x2="261.22" y2="123.5"/></g><g id="LINE-362"><line class="cls-1" x1="219.2" y1="111.31" x2="221.44" y2="100.74"/></g><g id="LINE-363"><line class="cls-1" x1="225.22" y1="98.28" x2="253.68" y2="104.33"/></g><g id="LINE-364"><line class="cls-1" x1="256.13" y1="108.11" x2="254.72" y2="114.75"/></g><g id="LINE-365"><line class="cls-1" x1="250.94" y1="117.21" x2="239.3" y2="114.73"/></g><g id="LINE-366"><line class="cls-1" x1="233.43" y1="117.59" x2="221.65" y2="115.09"/></g><g id="LINE-367"><line class="cls-1" x1="298.33" y1="128.13" x2="300.58" y2="117.56"/></g><g id="LINE-368"><line class="cls-1" x1="304.36" y1="115.1" x2="332.81" y2="121.15"/></g><g id="LINE-369"><line class="cls-1" x1="335.26" y1="124.93" x2="333.85" y2="131.58"/></g><g id="LINE-370"><line class="cls-1" x1="330.07" y1="134.03" x2="318.43" y2="131.55"/></g><g id="LINE-371"><line class="cls-1" x1="356.34" y1="63.1" x2="372.94" y2="50.83"/></g><g id="LINE-372"><line class="cls-1" x1="373.81" y1="49.13" x2="373.81" y2="40.47"/></g><g id="LINE-373"><line class="cls-1" x1="342.98" y1="32.2" x2="372.12" y2="38.4"/></g><g id="LINE-374"><line class="cls-1" x1="195.98" y1=".96" x2="318.06" y2="26.91"/></g><g id="LINE-375"><line class="cls-1" x1="171.38" y1=".38" x2="33.71" y2=".38"/></g><g id="LINE-376"><line class="cls-1" x1="20.86" y1="16.19" x2="20.86" y2="9.9"/></g><g id="LINE-377"><line class="cls-1" x1="6.11" y1="23.2" x2="13.85" y2="23.2"/></g><g id="LINE-378"><line class="cls-1" x1=".38" y1="28.93" x2=".38" y2="60.79"/></g><g id="LINE-379"><line class="cls-1" x1=".38" y1="91.99" x2=".38" y2="200.95"/></g><g id="LINE-380"><line class="cls-1" x1="3.98" y1="204.56" x2="11.01" y2="204.56"/></g><g id="LINE-381"><line class="cls-1" x1="83.32" y1="22.58" x2="83.32" y2="11.78"/></g><g id="LINE-382"><line class="cls-1" x1="86.5" y1="8.59" x2="115.59" y2="8.59"/></g><g id="LINE-383"><line class="cls-1" x1="118.78" y1="11.78" x2="118.78" y2="18.57"/></g><g id="LINE-384"><line class="cls-1" x1="115.59" y1="21.76" x2="103.7" y2="21.76"/></g><g id="LINE-385"><line class="cls-1" x1="98.55" y1="25.77" x2="86.5" y2="25.77"/></g><g id="LINE-386"><line class="cls-1" x1="22.64" y1="22.58" x2="22.64" y2="11.78"/></g><g id="LINE-387"><line class="cls-1" x1="25.83" y1="8.59" x2="54.92" y2="8.59"/></g><g id="LINE-388"><line class="cls-1" x1="58.1" y1="11.78" x2="58.1" y2="18.57"/></g><g id="LINE-389"><line class="cls-1" x1="54.92" y1="21.76" x2="43.02" y2="21.76"/></g><g id="LINE-390"><line class="cls-1" x1="37.87" y1="25.77" x2="25.83" y2="25.77"/></g><g id="LINE-391"><line class="cls-1" x1="12.53" y1="63.04" x2="12.53" y2="52.23"/></g><g id="LINE-392"><line class="cls-1" x1="15.71" y1="49.04" x2="44.81" y2="49.04"/></g><g id="LINE-393"><line class="cls-1" x1="47.99" y1="52.23" x2="47.99" y2="59.02"/></g><g id="LINE-394"><line class="cls-1" x1="44.81" y1="62.21" x2="32.91" y2="62.21"/></g><g id="LINE-395"><line class="cls-1" x1="27.76" y1="66.22" x2="15.71" y2="66.22"/></g><g id="LINE-396"><line class="cls-1" x1="277.78" y1="208.91" x2="292.37" y2="209.55"/></g><g id="LINE-397"><line class="cls-1" x1="295.56" y1="198.81" x2="278.27" y2="198.06"/></g><g id="LINE-398"><line class="cls-1" x1="300.39" y1="196.97" x2="328.85" y2="203.02"/></g><g id="ARC"><path class="cls-1" d="M147.86,151.61c0-2.02-.96-3.92-2.58-5.12"/></g><g id="ARC-2"><path class="cls-1" d="M143.99,143.94c0,1.01.48,1.96,1.29,2.56"/></g><g id="ARC-3"><path class="cls-1" d="M147.18,129.94c-1.76,0-3.19,1.43-3.19,3.19"/></g><g id="ARC-4"><path class="cls-1" d="M179.45,133.13c0-1.76-1.43-3.19-3.18-3.19"/></g><g id="ARC-5"><path class="cls-1" d="M176.27,143.11c1.76,0,3.18-1.43,3.18-3.18"/></g><g id="ARC-6"><path class="cls-1" d="M173.77,143.11c-1.17,0-2.12.95-2.12,2.12"/></g><g id="ARC-7"><path class="cls-1" d="M171.64,165.1c0,1.17.95,2.12,2.12,2.12"/></g><g id="ARC-8"><path class="cls-1" d="M178.86,169.34c0-1.17-.95-2.12-2.12-2.12"/></g><g id="ARC-9"><path class="cls-1" d="M176.74,191.21c1.17,0,2.12-.95,2.12-2.12"/></g><g id="ARC-10"><path class="cls-1" d="M143.61,189.09c0,1.17.95,2.12,2.12,2.12"/></g><g id="ARC-11"><path class="cls-1" d="M143.61,185.65c0-1.17-.95-2.12-2.12-2.12-.08,0-.16,0-.25.01"/></g><g id="ARC-12"><path class="cls-1" d="M140.88,183.56c.12,0,.25,0,.37-.02"/></g><g id="ARC-13"><path class="cls-1" d="M128.98,183.56c-.97,0-1.82.66-2.06,1.61"/></g><g id="ARC-14"><path class="cls-1" d="M123.83,187.57c1.46,0,2.73-.99,3.09-2.41"/></g><g id="ARC-15"><path class="cls-1" d="M108.6,184.39c0,1.76,1.43,3.19,3.19,3.19"/></g><g id="ARC-16"><path class="cls-1" d="M111.79,170.39c-1.76,0-3.19,1.43-3.19,3.19"/></g><g id="CIRCLE"><path class="cls-1" d="M290.97,225.83c0-3.52-2.85-6.37-6.37-6.37s-6.37,2.85-6.37,6.37,2.85,6.37,6.37,6.37,6.37-2.85,6.37-6.37Z"/></g><g id="ARC-17"><path class="cls-1" d="M2.42,103.49c0,1.76,1.43,3.19,3.19,3.19"/></g><g id="ARC-18"><path class="cls-1" d="M5.6,89.49c-1.76,0-3.19,1.43-3.19,3.19"/></g><g id="ARC-19"><path class="cls-1" d="M37.88,92.68c0-1.76-1.43-3.19-3.19-3.19"/></g><g id="ARC-20"><path class="cls-1" d="M34.69,102.66c1.76,0,3.19-1.43,3.19-3.19"/></g><g id="ARC-21"><path class="cls-1" d="M22.79,102.66c-.97,0-1.82.66-2.06,1.61"/></g><g id="ARC-22"><path class="cls-1" d="M17.65,106.67c1.46,0,2.73-.99,3.09-2.41"/></g><g id="ARC-23"><path class="cls-1" d="M2.42,143.94c0,1.76,1.43,3.19,3.19,3.19"/></g><g id="ARC-24"><path class="cls-1" d="M5.6,129.94c-1.76,0-3.19,1.43-3.19,3.19"/></g><g id="ARC-25"><path class="cls-1" d="M37.88,133.13c0-1.76-1.43-3.19-3.19-3.19"/></g><g id="ARC-26"><path class="cls-1" d="M34.69,143.11c1.76,0,3.19-1.43,3.19-3.18"/></g><g id="ARC-27"><path class="cls-1" d="M22.79,143.11c-.97,0-1.82.66-2.06,1.61"/></g><g id="ARC-28"><path class="cls-1" d="M17.65,147.12c1.46,0,2.73-.99,3.09-2.41"/></g><g id="ARC-29"><path class="cls-1" d="M58.04,184.39c0,1.76,1.43,3.19,3.19,3.19"/></g><g id="ARC-30"><path class="cls-1" d="M61.22,170.39c-1.76,0-3.19,1.43-3.19,3.19"/></g><g id="ARC-31"><path class="cls-1" d="M93.5,173.58c0-1.76-1.43-3.19-3.19-3.19"/></g><g id="ARC-32"><path class="cls-1" d="M90.31,183.56c1.76,0,3.19-1.43,3.19-3.19"/></g><g id="ARC-33"><path class="cls-1" d="M78.41,183.56c-.97,0-1.82.66-2.06,1.61"/></g><g id="ARC-34"><path class="cls-1" d="M73.27,187.57c1.46,0,2.73-.99,3.09-2.41"/></g><g id="ARC-35"><path class="cls-1" d="M411.09,41.06c-1.72.37-2.82,2.06-2.45,3.78"/></g><g id="ARC-36"><path class="cls-1" d="M443.32,37.46c-.37-1.72-2.06-2.82-3.78-2.45"/></g><g id="ARC-37"><path class="cls-1" d="M442.28,47.89c1.72-.37,2.82-2.06,2.45-3.78"/></g><g id="ARC-38"><path class="cls-1" d="M430.64,50.36c-.95.2-1.64,1.03-1.68,2"/></g><g id="ARC-39"><path class="cls-1" d="M426.44,55.36c1.43-.3,2.47-1.54,2.52-3"/></g><g id="ARC-40"><path class="cls-1" d="M410.88,55.41c.37,1.72,2.06,2.82,3.78,2.45"/></g><g id="ARC-41"><path class="cls-1" d="M520,59.26c-1.72.37-2.82,2.06-2.45,3.78"/></g><g id="ARC-42"><path class="cls-1" d="M552.23,55.67c-.37-1.72-2.06-2.82-3.78-2.45"/></g><g id="ARC-43"><path class="cls-1" d="M551.19,66.09c1.72-.37,2.82-2.06,2.45-3.78"/></g><g id="ARC-44"><path class="cls-1" d="M539.55,68.57c-.95.2-1.64,1.03-1.68,2"/></g><g id="ARC-45"><path class="cls-1" d="M535.35,73.56c1.43-.3,2.47-1.54,2.52-3"/></g><g id="ARC-46"><path class="cls-1" d="M519.79,73.61c.37,1.72,2.06,2.82,3.78,2.45"/></g><g id="ARC-47"><path class="cls-1" d="M440.86,76.08c-1.72.37-2.82,2.06-2.45,3.78"/></g><g id="ARC-48"><path class="cls-1" d="M473.09,72.49c-.37-1.72-2.06-2.82-3.78-2.45"/></g><g id="ARC-49"><path class="cls-1" d="M472.05,82.91c1.72-.37,2.82-2.06,2.45-3.78"/></g><g id="ARC-50"><path class="cls-1" d="M460.42,85.39c-.95.2-1.64,1.03-1.68,2"/></g><g id="ARC-51"><path class="cls-1" d="M456.21,90.38c1.43-.3,2.47-1.54,2.52-3"/></g><g id="ARC-52"><path class="cls-1" d="M440.66,90.43c.37,1.72,2.06,2.82,3.78,2.45"/></g><g id="ARC-53"><path class="cls-1" d="M657.95,129.94c-1.76,0-3.19,1.43-3.19,3.19"/></g><g id="ARC-54"><path class="cls-1" d="M690.22,133.13c0-1.76-1.43-3.19-3.19-3.19"/></g><g id="ARC-55"><path class="cls-1" d="M687.04,143.11c1.76,0,3.19-1.43,3.19-3.19"/></g><g id="ARC-56"><path class="cls-1" d="M675.14,143.11c-.97,0-1.82.66-2.06,1.61"/></g><g id="ARC-57"><path class="cls-1" d="M669.99,147.12c1.46,0,2.73-.99,3.09-2.41"/></g><g id="ARC-58"><path class="cls-1" d="M654.76,143.94c0,1.76,1.43,3.19,3.19,3.19"/></g><g id="ARC-59"><path class="cls-1" d="M698.4,170.39c-1.76,0-3.19,1.43-3.19,3.19"/></g><g id="ARC-60"><path class="cls-1" d="M730.67,173.58c0-1.76-1.43-3.19-3.19-3.19"/></g><g id="ARC-61"><path class="cls-1" d="M727.49,183.56c1.76,0,3.19-1.43,3.19-3.18"/></g><g id="ARC-62"><path class="cls-1" d="M715.59,183.56c-.97,0-1.82.66-2.06,1.61"/></g><g id="ARC-63"><path class="cls-1" d="M710.44,187.57c1.46,0,2.73-.99,3.09-2.41"/></g><g id="ARC-64"><path class="cls-1" d="M695.21,184.39c0,1.76,1.43,3.18,3.19,3.18"/></g><g id="ARC-65"><path class="cls-1" d="M617.5,170.39c-1.76,0-3.19,1.43-3.19,3.19"/></g><g id="ARC-66"><path class="cls-1" d="M649.77,173.58c0-1.76-1.43-3.19-3.19-3.19"/></g><g id="ARC-67"><path class="cls-1" d="M646.59,183.56c1.76,0,3.19-1.43,3.19-3.18"/></g><g id="ARC-68"><path class="cls-1" d="M634.69,183.56c-.97,0-1.82.66-2.06,1.61"/></g><g id="ARC-69"><path class="cls-1" d="M629.54,187.57c1.46,0,2.73-.99,3.09-2.41"/></g><g id="ARC-70"><path class="cls-1" d="M199.24,64.87c-.95-.2-1.92.27-2.35,1.14"/></g><g id="ARC-71"><path class="cls-1" d="M193.37,67.72c1.43.3,2.88-.4,3.52-1.71"/></g><g id="ARC-72"><path class="cls-1" d="M179.63,102.9c-.37,1.72.73,3.41,2.45,3.78"/></g><g id="ARC-73"><path class="cls-1" d="M185.66,89.87c-1.72-.37-3.41.73-3.78,2.45"/></g><g id="ARC-74"><path class="cls-1" d="M216.56,99.7c.37-1.72-.73-3.41-2.45-3.78"/></g><g id="ARC-75"><path class="cls-1" d="M211.37,108.8c1.72.37,3.41-.73,3.78-2.45"/></g><g id="ARC-76"><path class="cls-1" d="M199.73,106.32c-.95-.2-1.92.27-2.35,1.14"/></g><g id="ARC-77"><path class="cls-1" d="M193.86,109.18c1.43.3,2.88-.4,3.52-1.71"/></g><g id="ARC-78"><path class="cls-1" d="M189.03,146.25c-.37,1.72.73,3.41,2.45,3.78"/></g><g id="ARC-79"><path class="cls-1" d="M195.05,133.22c-1.72-.37-3.41.73-3.78,2.45"/></g><g id="ARC-80"><path class="cls-1" d="M225.96,143.05c.37-1.72-.73-3.41-2.45-3.78"/></g><g id="ARC-81"><path class="cls-1" d="M220.77,152.15c1.72.37,3.41-.73,3.78-2.45"/></g><g id="ARC-82"><path class="cls-1" d="M209.13,149.68c-.95-.2-1.92.27-2.35,1.14"/></g><g id="ARC-83"><path class="cls-1" d="M203.26,152.53c1.43.3,2.88-.4,3.52-1.71"/></g><g id="ARC-84"><path class="cls-1" d="M225.13,195.28c-.37,1.72.73,3.41,2.45,3.78"/></g><g id="ARC-85"><path class="cls-1" d="M231.15,182.25c-1.72-.37-3.41.73-3.78,2.45"/></g><g id="ARC-86"><path class="cls-1" d="M262.06,192.08c.37-1.72-.73-3.41-2.45-3.78"/></g><g id="ARC-87"><path class="cls-1" d="M256.87,201.18c1.72.37,3.41-.73,3.78-2.45"/></g><g id="ARC-88"><path class="cls-1" d="M762.12,204.56c1.99,0,3.61-1.62,3.61-3.61"/></g><g id="ARC-89"><path class="cls-1" d="M765.73,92.32c0-3.17-2.57-5.73-5.73-5.73"/></g><g id="ARC-90"><path class="cls-1" d="M756.31,66.2c-5.63,0-10.19,4.56-10.19,10.19s4.56,10.19,10.19,10.19"/></g><g id="ARC-91"><path class="cls-1" d="M760,66.2c3.17,0,5.73-2.57,5.73-5.73"/></g><g id="ARC-92"><path class="cls-1" d="M765.73,28.93c0-3.17-2.57-5.73-5.73-5.73"/></g><g id="ARC-93"><path class="cls-1" d="M736.38,16.19c0,3.87,3.14,7.01,7.01,7.01"/></g><g id="ARC-94"><path class="cls-1" d="M736.38,4.02c0-1.74-1.25-3.24-2.96-3.55"/></g><g id="ARC-95"><path class="cls-1" d="M733.42.47c-.34-.06-.69-.09-1.03-.09"/></g><g id="ARC-96"><path class="cls-1" d="M580.01.38c-1.64,0-3.2.7-4.29,1.93"/></g><g id="ARC-97"><path class="cls-1" d="M561.3,3.13c4.19,3.76,10.64,3.4,14.39-.79.01-.01.02-.03.03-.04"/></g><g id="ARC-98"><path class="cls-1" d="M561.3,3.13c-1.36-1.22-3.23-1.72-5.02-1.34"/></g><g id="ARC-99"><path class="cls-1" d="M437.39,27.07c-1.77.38-3.25,1.56-4.01,3.2"/></g><g id="ARC-100"><path class="cls-1" d="M417.43,33.65c4.24,3.7,10.68,3.27,14.38-.97.64-.73,1.16-1.54,1.57-2.42"/></g><g id="ARC-101"><path class="cls-1" d="M417.43,33.65c-1.36-1.19-3.2-1.66-4.96-1.29"/></g><g id="ARC-102"><path class="cls-1" d="M383.98,38.42c-.98.21-1.68,1.07-1.68,2.08"/></g><g id="ARC-103"><path class="cls-1" d="M382.3,47.68c0,1.17.95,2.12,2.12,2.12"/></g><g id="ARC-104"><path class="cls-1" d="M406.65,56.18c0-3.52-2.85-6.37-6.37-6.37"/></g><g id="ARC-105"><path class="cls-1" d="M406.65,80.73c0,1.17.95,2.12,2.12,2.12.15,0,.3-.02.44-.05"/></g><g id="ARC-106"><path class="cls-1" d="M450.16,156.81c-1.72.37-2.82,2.06-2.45,3.78"/></g><g id="ARC-107"><path class="cls-1" d="M482.4,153.22c-.37-1.72-2.06-2.82-3.78-2.45"/></g><g id="ARC-108"><path class="cls-1" d="M481.36,163.64c1.72-.37,2.82-2.06,2.45-3.78"/></g><g id="ARC-109"><path class="cls-1" d="M469.72,166.12c-.95.2-1.64,1.03-1.68,2"/></g><g id="ARC-110"><path class="cls-1" d="M465.52,171.11c1.43-.3,2.47-1.54,2.52-3"/></g><g id="ARC-111"><path class="cls-1" d="M449.96,171.16c.37,1.72,2.06,2.82,3.78,2.45"/></g><g id="ARC-112"><path class="cls-1" d="M529.3,139.99c-1.72.37-2.82,2.06-2.45,3.78"/></g><g id="ARC-113"><path class="cls-1" d="M561.53,136.4c-.37-1.72-2.06-2.82-3.78-2.45"/></g><g id="ARC-114"><path class="cls-1" d="M560.49,146.82c1.72-.37,2.82-2.06,2.45-3.78"/></g><g id="ARC-115"><path class="cls-1" d="M548.85,149.3c-.95.2-1.64,1.03-1.68,2"/></g><g id="ARC-116"><path class="cls-1" d="M544.65,154.29c1.43-.3,2.47-1.54,2.52-3"/></g><g id="ARC-117"><path class="cls-1" d="M529.09,154.34c.37,1.72,2.06,2.82,3.78,2.45"/></g><g id="ARC-118"><path class="cls-1" d="M460.55,113.25c-1.72.37-2.82,2.06-2.45,3.78"/></g><g id="ARC-119"><path class="cls-1" d="M492.78,109.66c-.37-1.72-2.06-2.82-3.78-2.45"/></g><g id="ARC-120"><path class="cls-1" d="M491.74,120.08c1.72-.37,2.82-2.06,2.45-3.78"/></g><g id="ARC-121"><path class="cls-1" d="M480.1,122.56c-.95.2-1.64,1.03-1.68,2"/></g><g id="ARC-122"><path class="cls-1" d="M475.9,127.55c1.43-.3,2.47-1.54,2.52-3"/></g><g id="ARC-123"><path class="cls-1" d="M317.94,90.1c-.95-.2-1.92.27-2.35,1.14"/></g><g id="ARC-124"><path class="cls-1" d="M312.07,92.95c1.43.3,2.88-.4,3.52-1.71"/></g><g id="ARC-125"><path class="cls-1" d="M218.71,69.85c-.37,1.72.73,3.41,2.45,3.78"/></g><g id="ARC-126"><path class="cls-1" d="M224.73,56.82c-1.72-.37-3.41.73-3.78,2.45"/></g><g id="ARC-127"><path class="cls-1" d="M255.64,66.65c.37-1.72-.73-3.41-2.45-3.78"/></g><g id="ARC-128"><path class="cls-1" d="M250.45,75.75c1.72.37,3.41-.73,3.78-2.45"/></g><g id="ARC-129"><path class="cls-1" d="M238.81,73.28c-.95-.2-1.92.27-2.35,1.14"/></g><g id="ARC-130"><path class="cls-1" d="M232.94,76.13c1.43.3,2.88-.4,3.52-1.71"/></g><g id="ARC-131"><path class="cls-1" d="M258.27,78.26c-.37,1.72.73,3.41,2.45,3.78"/></g><g id="ARC-132"><path class="cls-1" d="M264.3,65.23c-1.72-.37-3.41.73-3.78,2.45"/></g><g id="ARC-133"><path class="cls-1" d="M295.2,75.06c.37-1.72-.73-3.41-2.45-3.78"/></g><g id="ARC-134"><path class="cls-1" d="M290.01,84.16c1.72.37,3.41-.73,3.78-2.45"/></g><g id="ARC-135"><path class="cls-1" d="M278.38,81.69c-.95-.2-1.92.27-2.35,1.14"/></g><g id="ARC-136"><path class="cls-1" d="M272.51,84.54c1.43.3,2.88-.4,3.52-1.71"/></g><g id="CIRCLE-2"><path class="cls-1" d="M340.56,236.37c0-3.52-2.85-6.37-6.37-6.37s-6.37,2.85-6.37,6.37,2.85,6.37,6.37,6.37,6.37-2.85,6.37-6.37Z"/></g><g id="ARC-137"><path class="cls-1" d="M140.57,170.39c.97,0,1.81-.65,2.05-1.59"/></g><g id="ARC-138"><path class="cls-1" d="M144.67,167.22c-.97,0-1.81.65-2.05,1.59"/></g><g id="ARC-139"><path class="cls-1" d="M145.74,167.22c1.17,0,2.12-.95,2.12-2.12"/></g><g id="ARC-140"><path class="cls-1" d="M509.77,33.54c-.95.2-1.64,1.03-1.68,2"/></g><g id="ARC-141"><path class="cls-1" d="M505.57,38.54c1.43-.3,2.47-1.54,2.52-3"/></g><g id="ARC-142"><path class="cls-1" d="M490.01,38.59c.37,1.72,2.06,2.82,3.78,2.45"/></g><g id="ARC-143"><path class="cls-1" d="M657.95,170.39c-1.76,0-3.19,1.43-3.19,3.19"/></g><g id="ARC-144"><path class="cls-1" d="M690.22,173.58c0-1.76-1.43-3.19-3.19-3.19"/></g><g id="ARC-145"><path class="cls-1" d="M687.04,183.56c1.76,0,3.19-1.43,3.19-3.18"/></g><g id="ARC-146"><path class="cls-1" d="M675.14,183.56c-.97,0-1.82.66-2.06,1.61"/></g><g id="ARC-147"><path class="cls-1" d="M669.99,187.57c1.46,0,2.73-.99,3.09-2.41"/></g><g id="ARC-148"><path class="cls-1" d="M654.76,184.39c0,1.76,1.43,3.18,3.19,3.18"/></g><g id="ARC-149"><path class="cls-1" d="M713.57,129.94c-1.76,0-3.19,1.43-3.19,3.19"/></g><g id="ARC-150"><path class="cls-1" d="M745.84,133.13c0-1.76-1.43-3.19-3.19-3.19"/></g><g id="ARC-151"><path class="cls-1" d="M742.66,143.11c1.76,0,3.19-1.43,3.19-3.19"/></g><g id="ARC-152"><path class="cls-1" d="M730.76,143.11c-.97,0-1.82.66-2.06,1.61"/></g><g id="ARC-153"><path class="cls-1" d="M725.61,147.12c1.46,0,2.73-.99,3.09-2.41"/></g><g id="ARC-154"><path class="cls-1" d="M710.38,143.94c0,1.76,1.43,3.19,3.19,3.19"/></g><g id="ARC-155"><path class="cls-1" d="M617.5,129.94c-1.76,0-3.19,1.43-3.19,3.19"/></g><g id="ARC-156"><path class="cls-1" d="M649.77,133.13c0-1.76-1.43-3.19-3.19-3.19"/></g><g id="ARC-157"><path class="cls-1" d="M531.31,111.67c1.72-.37,2.82-2.06,2.45-3.78"/></g><g id="ARC-158"><path class="cls-1" d="M519.67,114.15c-.95.2-1.64,1.03-1.68,2"/></g><g id="ARC-159"><path class="cls-1" d="M515.47,119.14c1.43-.3,2.47-1.54,2.52-3"/></g><g id="ARC-160"><path class="cls-1" d="M499.91,119.19c.37,1.72,2.06,2.82,3.78,2.45"/></g><g id="ARC-161"><path class="cls-1" d="M433.85,201.64c-1.72.37-2.82,2.06-2.45,3.78"/></g><g id="ARC-162"><path class="cls-1" d="M466.08,198.04c-.37-1.72-2.06-2.82-3.78-2.45"/></g><g id="ARC-163"><path class="cls-1" d="M465.04,208.47c1.72-.37,2.82-2.06,2.45-3.78"/></g><g id="ARC-164"><path class="cls-1" d="M453.4,210.94c-.95.2-1.64,1.03-1.68,2"/></g><g id="ARC-165"><path class="cls-1" d="M449.2,215.94c1.43-.3,2.47-1.54,2.52-3"/></g><g id="ARC-166"><path class="cls-1" d="M433.64,215.99c.37,1.72,2.06,2.82,3.78,2.45"/></g><g id="ARC-167"><path class="cls-1" d="M489.73,148.4c-1.72.37-2.82,2.06-2.45,3.78"/></g><g id="ARC-168"><path class="cls-1" d="M521.96,144.81c-.37-1.72-2.06-2.82-3.78-2.45"/></g><g id="ARC-169"><path class="cls-1" d="M520.92,155.23c1.72-.37,2.82-2.06,2.45-3.78"/></g><g id="ARC-170"><path class="cls-1" d="M509.29,157.71c-.95.2-1.64,1.03-1.68,2"/></g><g id="ARC-171"><path class="cls-1" d="M505.08,162.7c1.43-.3,2.47-1.54,2.52-3"/></g><g id="ARC-172"><path class="cls-1" d="M489.53,162.75c.37,1.72,2.06,2.82,3.78,2.45"/></g><g id="ARC-173"><path class="cls-1" d="M577.04,129.94c-1.76,0-3.19,1.43-3.19,3.19"/></g><g id="ARC-174"><path class="cls-1" d="M639.66,52.23c0-1.76-1.43-3.19-3.18-3.19"/></g><g id="ARC-175"><path class="cls-1" d="M636.47,62.21c1.76,0,3.18-1.43,3.18-3.19"/></g><g id="ARC-176"><path class="cls-1" d="M624.57,62.21c-.97,0-1.82.66-2.06,1.61"/></g><g id="ARC-177"><path class="cls-1" d="M619.43,66.22c1.46,0,2.73-.99,3.09-2.41"/></g><g id="ARC-178"><path class="cls-1" d="M604.2,63.04c0,1.76,1.43,3.19,3.19,3.19"/></g><g id="ARC-179"><path class="cls-1" d="M617.5,8.59c-1.76,0-3.19,1.43-3.19,3.19"/></g><g id="ARC-180"><path class="cls-1" d="M649.77,11.78c0-1.76-1.43-3.19-3.19-3.19"/></g><g id="ARC-181"><path class="cls-1" d="M646.59,21.76c1.76,0,3.19-1.43,3.19-3.19"/></g><g id="ARC-182"><path class="cls-1" d="M634.69,21.76c-.97,0-1.82.66-2.06,1.61"/></g><g id="ARC-183"><path class="cls-1" d="M629.54,25.77c1.46,0,2.73-.99,3.09-2.41"/></g><g id="ARC-184"><path class="cls-1" d="M614.31,22.59c0,1.76,1.43,3.19,3.19,3.19"/></g><g id="ARC-185"><path class="cls-1" d="M566.93,49.04c-1.76,0-3.19,1.43-3.19,3.19"/></g><g id="ARC-186"><path class="cls-1" d="M599.21,52.23c0-1.76-1.43-3.19-3.19-3.19"/></g><g id="ARC-187"><path class="cls-1" d="M596.02,62.21c1.76,0,3.19-1.43,3.19-3.19"/></g><g id="ARC-188"><path class="cls-1" d="M584.12,62.21c-.97,0-1.82.66-2.06,1.61"/></g><g id="ARC-189"><path class="cls-1" d="M578.98,66.22c1.46,0,2.73-.99,3.09-2.41"/></g><g id="ARC-190"><path class="cls-1" d="M563.75,63.04c0,1.76,1.43,3.19,3.19,3.19"/></g><g id="ARC-191"><path class="cls-1" d="M647.83,49.04c-1.76,0-3.19,1.43-3.19,3.19"/></g><g id="ARC-192"><path class="cls-1" d="M680.11,52.23c0-1.76-1.43-3.19-3.19-3.19"/></g><g id="ARC-193"><path class="cls-1" d="M676.92,62.21c1.76,0,3.19-1.43,3.19-3.19"/></g><g id="ARC-194"><path class="cls-1" d="M665.02,62.21c-.97,0-1.82.66-2.06,1.61"/></g><g id="ARC-195"><path class="cls-1" d="M659.88,66.22c1.46,0,2.73-.99,3.09-2.41"/></g><g id="ARC-196"><path class="cls-1" d="M644.65,63.04c0,1.76,1.43,3.19,3.19,3.19"/></g><g id="ARC-197"><path class="cls-1" d="M693.34,89.49c-1.76,0-3.19,1.43-3.19,3.19"/></g><g id="ARC-198"><path class="cls-1" d="M725.62,92.68c0-1.76-1.43-3.19-3.19-3.19"/></g><g id="ARC-199"><path class="cls-1" d="M722.43,102.66c1.76,0,3.19-1.43,3.19-3.19"/></g><g id="ARC-200"><path class="cls-1" d="M710.53,102.66c-.97,0-1.82.66-2.06,1.61"/></g><g id="ARC-201"><path class="cls-1" d="M705.38,106.67c1.46,0,2.73-.99,3.09-2.41"/></g><g id="ARC-202"><path class="cls-1" d="M690.15,103.49c0,1.76,1.43,3.19,3.19,3.19"/></g><g id="ARC-203"><path class="cls-1" d="M587.16,89.49c-1.76,0-3.19,1.43-3.19,3.19"/></g><g id="ARC-204"><path class="cls-1" d="M619.43,92.68c0-1.76-1.43-3.19-3.19-3.19"/></g><g id="ARC-205"><path class="cls-1" d="M616.25,102.66c1.76,0,3.19-1.43,3.19-3.19"/></g><g id="ARC-206"><path class="cls-1" d="M604.35,102.66c-.97,0-1.82.66-2.06,1.61"/></g><g id="ARC-207"><path class="cls-1" d="M599.2,106.67c1.46,0,2.73-.99,3.09-2.41"/></g><g id="ARC-208"><path class="cls-1" d="M583.97,103.49c0,1.76,1.43,3.19,3.19,3.19"/></g><g id="ARC-209"><path class="cls-1" d="M153.12,209.85c2.28,0,4.34-1.35,5.25-3.43"/></g><g id="ARC-210"><path class="cls-1" d="M177.73,208.67c-1.02-5.54-6.33-9.2-11.86-8.19-3.33.61-6.14,2.83-7.5,5.93"/></g><g id="ARC-211"><path class="cls-1" d="M363.97,223.86c-5.63,0-10.19,4.56-10.19,10.19"/></g><g id="ARC-212"><path class="cls-1" d="M164.22,21.57c0,1.76,1.43,3.19,3.19,3.19"/></g><g id="ARC-213"><path class="cls-1" d="M167.4,7.58c-1.76,0-3.19,1.43-3.19,3.19"/></g><g id="ARC-214"><path class="cls-1" d="M199.68,10.77c0-1.76-1.43-3.19-3.19-3.19"/></g><g id="ARC-215"><path class="cls-1" d="M196.49,20.75c1.76,0,3.19-1.43,3.19-3.19"/></g><g id="ARC-216"><path class="cls-1" d="M184.6,20.75c-.97,0-1.82.66-2.06,1.61"/></g><g id="ARC-217"><path class="cls-1" d="M179.45,24.76c1.46,0,2.73-.99,3.09-2.41"/></g><g id="ARC-218"><path class="cls-1" d="M123.77,22.58c0,1.76,1.43,3.19,3.19,3.19"/></g><g id="ARC-219"><path class="cls-1" d="M126.95,8.59c-1.76,0-3.19,1.43-3.19,3.19"/></g><g id="ARC-220"><path class="cls-1" d="M159.23,11.78c0-1.76-1.43-3.19-3.19-3.19"/></g><g id="ARC-221"><path class="cls-1" d="M156.04,21.76c1.76,0,3.19-1.43,3.19-3.19"/></g><g id="ARC-222"><path class="cls-1" d="M144.15,21.76c-.97,0-1.82.66-2.06,1.61"/></g><g id="ARC-223"><path class="cls-1" d="M139,25.77c1.46,0,2.73-.99,3.09-2.41"/></g><g id="ARC-224"><path class="cls-1" d="M83.32,22.58c0,1.76,1.43,3.19,3.19,3.19"/></g><g id="ARC-225"><path class="cls-1" d="M609.32,133.13c0-1.76-1.43-3.19-3.19-3.19"/></g><g id="ARC-226"><path class="cls-1" d="M606.13,143.11c1.76,0,3.19-1.43,3.19-3.19"/></g><g id="ARC-227"><path class="cls-1" d="M594.24,143.11c-.97,0-1.82.66-2.06,1.61"/></g><g id="ARC-228"><path class="cls-1" d="M589.09,147.12c1.46,0,2.73-.99,3.09-2.41"/></g><g id="ARC-229"><path class="cls-1" d="M573.86,143.94c0,1.76,1.43,3.19,3.19,3.19"/></g><g id="ARC-230"><path class="cls-1" d="M627.61,89.49c-1.76,0-3.19,1.43-3.19,3.19"/></g><g id="ARC-231"><path class="cls-1" d="M659.88,92.68c0-1.76-1.43-3.19-3.19-3.19"/></g><g id="ARC-232"><path class="cls-1" d="M656.7,102.66c1.76,0,3.19-1.43,3.19-3.19"/></g><g id="ARC-233"><path class="cls-1" d="M644.8,102.66c-.97,0-1.82.66-2.06,1.61"/></g><g id="ARC-234"><path class="cls-1" d="M639.65,106.67c1.46,0,2.73-.99,3.09-2.41"/></g><g id="ARC-235"><path class="cls-1" d="M624.42,103.49c0,1.76,1.43,3.19,3.19,3.19"/></g><g id="ARC-236"><path class="cls-1" d="M698.4,49.04c-1.76,0-3.19,1.43-3.19,3.19"/></g><g id="ARC-237"><path class="cls-1" d="M730.67,52.23c0-1.76-1.43-3.19-3.19-3.19"/></g><g id="ARC-238"><path class="cls-1" d="M727.49,62.21c1.76,0,3.19-1.43,3.19-3.19"/></g><g id="ARC-239"><path class="cls-1" d="M715.59,62.21c-.97,0-1.82.66-2.06,1.61"/></g><g id="ARC-240"><path class="cls-1" d="M710.44,66.22c1.46,0,2.73-.99,3.09-2.41"/></g><g id="ARC-241"><path class="cls-1" d="M695.21,63.04c0,1.76,1.43,3.19,3.19,3.19"/></g><g id="ARC-242"><path class="cls-1" d="M607.38,49.04c-1.76,0-3.19,1.43-3.19,3.19"/></g><g id="ARC-243"><path class="cls-1" d="M460.34,127.6c.37,1.72,2.06,2.82,3.78,2.45"/></g><g id="ARC-244"><path class="cls-1" d="M539.68,96.43c-1.72.37-2.82,2.06-2.45,3.78"/></g><g id="ARC-245"><path class="cls-1" d="M571.91,92.84c-.37-1.72-2.06-2.82-3.78-2.45"/></g><g id="ARC-246"><path class="cls-1" d="M570.87,103.26c1.72-.37,2.82-2.06,2.45-3.78"/></g><g id="ARC-247"><path class="cls-1" d="M559.24,105.74c-.95.2-1.64,1.03-1.68,2"/></g><g id="ARC-248"><path class="cls-1" d="M555.03,110.73c1.43-.3,2.47-1.54,2.52-3"/></g><g id="ARC-249"><path class="cls-1" d="M539.48,110.78c.37,1.72,2.06,2.82,3.78,2.45"/></g><g id="ARC-250"><path class="cls-1" d="M675.05,11.15c.39-3.5-2.12-6.65-5.62-7.04-3.5-.39-6.65,2.12-7.04,5.62-.39,3.5,2.12,6.65,5.62,7.04,3.36.38,6.42-1.93,6.99-5.26"/></g><g id="ARC-251"><path class="cls-1" d="M678.17,8.59c-1.52,0-2.82,1.07-3.12,2.56"/></g><g id="ARC-252"><path class="cls-1" d="M710.45,11.78c0-1.76-1.43-3.19-3.19-3.19"/></g><g id="ARC-253"><path class="cls-1" d="M707.26,21.76c1.76,0,3.19-1.43,3.19-3.19"/></g><g id="ARC-254"><path class="cls-1" d="M695.36,21.76c-.97,0-1.82.66-2.06,1.61"/></g><g id="ARC-255"><path class="cls-1" d="M690.21,25.77c1.46,0,2.73-.99,3.09-2.41"/></g><g id="ARC-256"><path class="cls-1" d="M674.99,22.59c0,1.76,1.43,3.19,3.19,3.19"/></g><g id="ARC-257"><path class="cls-1" d="M675,11.51c0,.09-.01.18-.01.27"/></g><g id="CIRCLE-3"><path class="cls-1" d="M437.52,234.43c0-3.52-2.85-6.37-6.37-6.37s-6.37,2.85-6.37,6.37,2.85,6.37,6.37,6.37,6.37-2.85,6.37-6.37Z"/></g><g id="ARC-258"><path class="cls-1" d="M490.22,24.24c-1.72.37-2.82,2.06-2.45,3.78"/></g><g id="ARC-259"><path class="cls-1" d="M522.45,20.64c-.37-1.72-2.06-2.82-3.78-2.45"/></g><g id="ARC-260"><path class="cls-1" d="M521.41,31.07c1.72-.37,2.82-2.06,2.45-3.78"/></g><g id="ARC-261"><path class="cls-1" d="M312.56,134.41c1.43.3,2.88-.4,3.52-1.71"/></g><g id="ARC-262"><path class="cls-1" d="M268.16,163.07c-.37,1.72.73,3.41,2.45,3.78"/></g><g id="ARC-263"><path class="cls-1" d="M274.18,150.04c-1.72-.37-3.41.73-3.78,2.45"/></g><g id="ARC-264"><path class="cls-1" d="M305.09,159.87c.37-1.72-.73-3.41-2.45-3.78"/></g><g id="ARC-265"><path class="cls-1" d="M299.9,168.97c1.72.37,3.41-.73,3.78-2.45"/></g><g id="ARC-266"><path class="cls-1" d="M288.26,166.5c-.95-.2-1.92.27-2.35,1.14"/></g><g id="ARC-267"><path class="cls-1" d="M282.39,169.35c1.43.3,2.88-.4,3.52-1.71"/></g><g id="ARC-268"><path class="cls-1" d="M287.45,43.11c-.37,1.72.73,3.41,2.45,3.78"/></g><g id="ARC-269"><path class="cls-1" d="M293.48,30.08c-1.72-.37-3.41.73-3.78,2.45"/></g><g id="ARC-270"><path class="cls-1" d="M324.39,39.91c.37-1.72-.73-3.41-2.45-3.78"/></g><g id="ARC-271"><path class="cls-1" d="M319.2,49.01c1.72.37,3.41-.73,3.78-2.45"/></g><g id="ARC-272"><path class="cls-1" d="M307.56,46.53c-.95-.2-1.92.27-2.35,1.14"/></g><g id="ARC-273"><path class="cls-1" d="M301.69,49.39c1.43.3,2.88-.4,3.52-1.71"/></g><g id="ARC-274"><path class="cls-1" d="M297.84,86.67c-.37,1.72.73,3.41,2.45,3.78"/></g><g id="ARC-275"><path class="cls-1" d="M303.86,73.64c-1.72-.37-3.41.73-3.78,2.45"/></g><g id="ARC-276"><path class="cls-1" d="M334.77,83.47c.37-1.72-.73-3.41-2.45-3.78"/></g><g id="ARC-277"><path class="cls-1" d="M329.58,92.57c1.72.37,3.41-.73,3.78-2.45"/></g><g id="ARC-278"><path class="cls-1" d="M597.52,206.42c-2.26-5.16-8.27-7.5-13.43-5.24-3.11,1.36-5.34,4.19-5.94,7.53"/></g><g id="ARC-279"><path class="cls-1" d="M529.79,15.83c-1.72.37-2.82,2.06-2.45,3.78"/></g><g id="ARC-280"><path class="cls-1" d="M562.02,12.23c-.37-1.72-2.06-2.82-3.78-2.45"/></g><g id="ARC-281"><path class="cls-1" d="M560.98,22.66c1.72-.37,2.82-2.06,2.45-3.78"/></g><g id="ARC-282"><path class="cls-1" d="M549.34,25.13c-.95.2-1.64,1.03-1.68,2"/></g><g id="ARC-283"><path class="cls-1" d="M545.14,30.13c1.43-.3,2.47-1.54,2.52-3"/></g><g id="ARC-284"><path class="cls-1" d="M529.58,30.18c.37,1.72,2.06,2.82,3.78,2.45"/></g><g id="ARC-285"><path class="cls-1" d="M481.85,39.48c1.72-.37,2.82-2.06,2.45-3.78"/></g><g id="ARC-286"><path class="cls-1" d="M470.21,41.95c-.95.2-1.64,1.03-1.68,2"/></g><g id="ARC-287"><path class="cls-1" d="M466.01,46.95c1.43-.3,2.47-1.54,2.52-3"/></g><g id="ARC-288"><path class="cls-1" d="M450.45,47c.37,1.72,2.06,2.82,3.78,2.45"/></g><g id="ARC-289"><path class="cls-1" d="M594.24,20.75c-.97,0-1.82.66-2.06,1.61"/></g><g id="ARC-290"><path class="cls-1" d="M589.09,24.76c1.46,0,2.73-.99,3.09-2.41"/></g><g id="ARC-291"><path class="cls-1" d="M573.86,21.57c0,1.76,1.43,3.19,3.19,3.19"/></g><g id="ARC-292"><path class="cls-1" d="M577.04,7.58c-1.76,0-3.19,1.43-3.19,3.19"/></g><g id="ARC-293"><path class="cls-1" d="M609.32,10.77c0-1.76-1.43-3.19-3.19-3.19"/></g><g id="ARC-294"><path class="cls-1" d="M606.13,20.75c1.76,0,3.19-1.43,3.19-3.19"/></g><g id="ARC-295"><path class="cls-1" d="M382.3,221.73c0,1.17.95,2.12,2.12,2.12"/></g><g id="ARC-296"><path class="cls-1" d="M401.21,234.05c0-5.63-4.56-10.19-10.19-10.19"/></g><g id="ARC-297"><path class="cls-1" d="M597.52,206.42c.91,2.09,2.97,3.43,5.25,3.43"/></g><g id="ARC-298"><path class="cls-1" d="M730.55,209.85c2.28,0,4.34-1.35,5.25-3.43"/></g><g id="ARC-299"><path class="cls-1" d="M752.49,203.45c-3.9-4.06-10.35-4.2-14.41-.3-.97.93-1.74,2.04-2.28,3.26"/></g><g id="ARC-300"><path class="cls-1" d="M752.49,203.45c.68.71,1.62,1.11,2.6,1.11"/></g><g id="ARC-301"><path class="cls-1" d="M166.16,102.66c1.76,0,3.19-1.43,3.19-3.19"/></g><g id="ARC-302"><path class="cls-1" d="M154.26,102.66c-.97,0-1.82.66-2.06,1.61"/></g><g id="ARC-303"><path class="cls-1" d="M149.11,106.67c1.46,0,2.73-.99,3.09-2.41"/></g><g id="ARC-304"><path class="cls-1" d="M133.88,63.04c0,1.76,1.43,3.18,3.19,3.18"/></g><g id="ARC-305"><path class="cls-1" d="M137.07,49.04c-1.76,0-3.19,1.43-3.19,3.19"/></g><g id="ARC-306"><path class="cls-1" d="M169.34,52.23c0-1.76-1.43-3.19-3.19-3.19"/></g><g id="ARC-307"><path class="cls-1" d="M166.16,62.21c1.76,0,3.19-1.43,3.19-3.19"/></g><g id="ARC-308"><path class="cls-1" d="M154.26,62.21c-.97,0-1.82.66-2.06,1.61"/></g><g id="ARC-309"><path class="cls-1" d="M149.11,66.22c1.46,0,2.73-.99,3.09-2.41"/></g><g id="CIRCLE-4"><path class="cls-1" d="M129.06,131.79c0-3.52-2.85-6.37-6.37-6.37s-6.37,2.85-6.37,6.37,2.85,6.37,6.37,6.37,6.37-2.85,6.37-6.37Z"/></g><g id="ARC-310"><path class="cls-1" d="M78.27,132.86c0,.09-.01.18-.01.27"/></g><g id="ARC-311"><path class="cls-1" d="M78.32,132.5c.39-3.5-2.12-6.65-5.62-7.04-3.5-.39-6.65,2.12-7.04,5.62s2.12,6.65,5.62,7.04c3.36.38,6.42-1.93,6.99-5.26"/></g><g id="ARC-312"><path class="cls-1" d="M81.45,129.94c-1.52,0-2.82,1.07-3.12,2.56"/></g><g id="ARC-313"><path class="cls-1" d="M113.72,133.13c0-1.76-1.43-3.19-3.19-3.19"/></g><g id="ARC-314"><path class="cls-1" d="M110.54,143.11c1.76,0,3.19-1.43,3.19-3.18"/></g><g id="ARC-315"><path class="cls-1" d="M98.64,143.11c-.97,0-1.82.66-2.06,1.61"/></g><g id="ARC-316"><path class="cls-1" d="M93.49,147.12c1.46,0,2.73-.99,3.09-2.41"/></g><g id="ARC-317"><path class="cls-1" d="M78.26,143.94c0,1.76,1.43,3.18,3.19,3.18"/></g><g id="ARC-318"><path class="cls-1" d="M327.02,51.52c-.37,1.72.73,3.41,2.45,3.78"/></g><g id="ARC-319"><path class="cls-1" d="M110.54,102.66c1.76,0,3.19-1.43,3.19-3.19"/></g><g id="ARC-320"><path class="cls-1" d="M98.64,102.66c-.97,0-1.82.66-2.06,1.61"/></g><g id="ARC-321"><path class="cls-1" d="M93.49,106.67c1.46,0,2.73-.99,3.09-2.41"/></g><g id="ARC-322"><path class="cls-1" d="M83.32,63.04c0,1.76,1.43,3.18,3.19,3.18"/></g><g id="ARC-323"><path class="cls-1" d="M86.5,49.04c-1.76,0-3.19,1.43-3.19,3.19"/></g><g id="ARC-324"><path class="cls-1" d="M118.78,52.23c0-1.76-1.43-3.19-3.19-3.19"/></g><g id="ARC-325"><path class="cls-1" d="M115.59,62.21c1.76,0,3.19-1.43,3.19-3.19"/></g><g id="ARC-326"><path class="cls-1" d="M103.7,62.21c-.97,0-1.82.66-2.06,1.61"/></g><g id="ARC-327"><path class="cls-1" d="M98.55,66.22c1.46,0,2.73-.99,3.09-2.41"/></g><g id="ARC-328"><path class="cls-1" d="M247.89,34.7c-.37,1.72.73,3.41,2.45,3.78"/></g><g id="ARC-329"><path class="cls-1" d="M253.91,21.67c-1.72-.37-3.41.73-3.78,2.45"/></g><g id="ARC-330"><path class="cls-1" d="M284.82,31.5c.37-1.72-.73-3.41-2.45-3.78"/></g><g id="ARC-331"><path class="cls-1" d="M279.63,40.6c1.72.37,3.41-.73,3.78-2.45"/></g><g id="ARC-332"><path class="cls-1" d="M267.99,38.12c-.95-.2-1.92.27-2.35,1.14"/></g><g id="ARC-333"><path class="cls-1" d="M262.12,40.98c1.43.3,2.88-.4,3.52-1.71"/></g><g id="ARC-334"><path class="cls-1" d="M133.88,103.49c0,1.76,1.43,3.19,3.19,3.19"/></g><g id="ARC-335"><path class="cls-1" d="M137.07,89.49c-1.76,0-3.19,1.43-3.19,3.19"/></g><g id="ARC-336"><path class="cls-1" d="M169.34,92.68c0-1.76-1.43-3.19-3.19-3.19"/></g><g id="ARC-337"><path class="cls-1" d="M433.53,80.9c-.37-1.72-2.06-2.82-3.78-2.45"/></g><g id="ARC-338"><path class="cls-1" d="M432.49,91.32c1.72-.37,2.82-2.06,2.45-3.78"/></g><g id="ARC-339"><path class="cls-1" d="M420.85,93.8c-.95.2-1.64,1.03-1.68,2"/></g><g id="ARC-340"><path class="cls-1" d="M416.65,98.79c1.43-.3,2.47-1.54,2.52-3"/></g><g id="ARC-341"><path class="cls-1" d="M403.3,101.24c.51.15,1.05.17,1.56.06"/></g><g id="ARC-342"><path class="cls-1" d="M403.3,101.24c-1.12-.33-2.31.31-2.64,1.44-.06.2-.09.4-.09.6"/></g><g id="ARC-343"><path class="cls-1" d="M389.96,121.54c5.86,0,10.62-4.75,10.62-10.62"/></g><g id="ARC-344"><path class="cls-1" d="M384.42,121.54c-1.17,0-2.12.95-2.12,2.12"/></g><g id="ARC-345"><path class="cls-1" d="M382.3,129.46c0,1.17.95,2.12,2.12,2.12"/></g><g id="ARC-346"><path class="cls-1" d="M409.83,150.64c5.28,0,9.56-4.28,9.56-9.56s-4.28-9.56-9.56-9.56c-.32,0-.65.02-.97.05"/></g><g id="ARC-347"><path class="cls-1" d="M384.42,150.64c-1.17,0-2.12.95-2.12,2.12"/></g><g id="ARC-348"><path class="cls-1" d="M382.3,161.61c0,1.17.95,2.12,2.12,2.12"/></g><g id="ARC-349"><path class="cls-1" d="M406.65,170.11c0-3.52-2.85-6.37-6.37-6.37"/></g><g id="ARC-350"><path class="cls-1" d="M400.28,209.6c3.52,0,6.37-2.85,6.37-6.37"/></g><g id="ARC-351"><path class="cls-1" d="M384.42,209.6c-1.17,0-2.12.95-2.12,2.12"/></g><g id="ARC-352"><path class="cls-1" d="M646.59,143.11c1.76,0,3.19-1.43,3.19-3.19"/></g><g id="ARC-353"><path class="cls-1" d="M634.69,143.11c-.97,0-1.82.66-2.06,1.61"/></g><g id="ARC-354"><path class="cls-1" d="M629.54,147.12c1.46,0,2.73-.99,3.09-2.41"/></g><g id="ARC-355"><path class="cls-1" d="M614.31,143.94c0,1.76,1.43,3.19,3.19,3.19"/></g><g id="ARC-356"><path class="cls-1" d="M480.43,67.67c-1.72.37-2.82,2.06-2.45,3.78"/></g><g id="ARC-357"><path class="cls-1" d="M512.66,64.08c-.37-1.72-2.06-2.82-3.78-2.45"/></g><g id="ARC-358"><path class="cls-1" d="M511.62,74.5c1.72-.37,2.82-2.06,2.45-3.78"/></g><g id="ARC-359"><path class="cls-1" d="M499.98,76.98c-.95.2-1.64,1.03-1.68,2"/></g><g id="ARC-360"><path class="cls-1" d="M495.78,81.97c1.43-.3,2.47-1.54,2.52-3"/></g><g id="ARC-361"><path class="cls-1" d="M480.22,82.02c.37,1.72,2.06,2.82,3.78,2.45"/></g><g id="ARC-362"><path class="cls-1" d="M420.98,121.66c-1.72.37-2.82,2.06-2.45,3.78"/></g><g id="ARC-363"><path class="cls-1" d="M453.21,118.07c-.37-1.72-2.06-2.82-3.78-2.45"/></g><g id="ARC-364"><path class="cls-1" d="M452.17,128.49c1.72-.37,2.82-2.06,2.45-3.78"/></g><g id="ARC-365"><path class="cls-1" d="M440.54,130.97c-.95.2-1.64,1.03-1.68,2"/></g><g id="ARC-366"><path class="cls-1" d="M436.33,135.96c1.43-.3,2.47-1.54,2.52-3"/></g><g id="ARC-367"><path class="cls-1" d="M420.78,136.01c.37,1.72,2.06,2.82,3.78,2.45"/></g><g id="ARC-368"><path class="cls-1" d="M450.65,32.65c-1.72.37-2.82,2.06-2.45,3.78"/></g><g id="ARC-369"><path class="cls-1" d="M482.89,29.05c-.37-1.72-2.06-2.82-3.78-2.45"/></g><g id="ARC-370"><path class="cls-1" d="M326.11,215.89c1.72.37,3.41-.73,3.78-2.45"/></g><g id="ARC-371"><path class="cls-1" d="M314.47,213.42c-.95-.2-1.92.27-2.35,1.14"/></g><g id="ARC-372"><path class="cls-1" d="M308.6,216.28c1.43.3,2.88-.4,3.52-1.71"/></g><g id="ARC-373"><path class="cls-1" d="M294.36,211.27c.25,1.25,1.21,2.24,2.46,2.5"/></g><g id="ARC-374"><path class="cls-1" d="M208.32,26.29c-.37,1.72.73,3.41,2.45,3.78"/></g><g id="ARC-375"><path class="cls-1" d="M214.35,13.26c-1.72-.37-3.41.73-3.78,2.45"/></g><g id="ARC-376"><path class="cls-1" d="M245.25,23.09c.37-1.72-.73-3.41-2.45-3.78"/></g><g id="ARC-377"><path class="cls-1" d="M240.06,32.19c1.72.37,3.41-.73,3.78-2.45"/></g><g id="ARC-378"><path class="cls-1" d="M228.42,29.71c-.95-.2-1.92.27-2.35,1.14"/></g><g id="ARC-379"><path class="cls-1" d="M222.56,32.57c1.43.3,2.88-.4,3.52-1.71"/></g><g id="ARC-380"><path class="cls-1" d="M179.14,61.44c-.37,1.72.73,3.41,2.45,3.78"/></g><g id="ARC-381"><path class="cls-1" d="M185.16,48.41c-1.72-.37-3.41.73-3.78,2.45"/></g><g id="ARC-382"><path class="cls-1" d="M216.07,58.24c.37-1.72-.73-3.41-2.45-3.78"/></g><g id="ARC-383"><path class="cls-1" d="M210.88,67.34c1.72.37,3.41-.73,3.78-2.45"/></g><g id="ARC-384"><path class="cls-1" d="M614.31,184.39c0,1.76,1.43,3.18,3.19,3.18"/></g><g id="ARC-385"><path class="cls-1" d="M512.98,184.82c-1.72.37-2.82,2.06-2.45,3.78"/></g><g id="ARC-386"><path class="cls-1" d="M545.21,181.22c-.37-1.72-2.06-2.82-3.78-2.45"/></g><g id="ARC-387"><path class="cls-1" d="M544.17,191.65c1.72-.37,2.82-2.06,2.45-3.78"/></g><g id="ARC-388"><path class="cls-1" d="M532.53,194.12c-.95.2-1.64,1.03-1.68,2"/></g><g id="ARC-389"><path class="cls-1" d="M528.33,199.12c1.43-.3,2.47-1.54,2.52-3"/></g><g id="ARC-390"><path class="cls-1" d="M512.77,199.17c.37,1.72,2.06,2.82,3.78,2.45"/></g><g id="CIRCLE-5"><path class="cls-1" d="M690.26,121.01c0-3.52-2.85-6.37-6.37-6.37s-6.37,2.85-6.37,6.37,2.85,6.37,6.37,6.37,6.37-2.85,6.37-6.37Z"/></g><g id="CIRCLE-6"><path class="cls-1" d="M487.11,223.89c0-3.52-2.85-6.37-6.37-6.37s-6.37,2.85-6.37,6.37,2.85,6.37,6.37,6.37,6.37-2.85,6.37-6.37Z"/></g><g id="CIRCLE-7"><path class="cls-1" d="M725.79,10.44c0-3.52-2.85-6.37-6.37-6.37s-6.37,2.85-6.37,6.37,2.85,6.37,6.37,6.37,6.37-2.85,6.37-6.37Z"/></g><g id="CIRCLE-8"><path class="cls-1" d="M740.96,121.01c0-3.52-2.85-6.37-6.37-6.37s-6.37,2.85-6.37,6.37,2.85,6.37,6.37,6.37,6.37-2.85,6.37-6.37Z"/></g><g id="ARC-391"><path class="cls-1" d="M410.6,165.22c-1.72.37-2.82,2.06-2.45,3.78"/></g><g id="ARC-392"><path class="cls-1" d="M442.83,161.63c-.37-1.72-2.06-2.82-3.78-2.45"/></g><g id="ARC-393"><path class="cls-1" d="M441.79,172.05c1.72-.37,2.82-2.06,2.45-3.78"/></g><g id="ARC-394"><path class="cls-1" d="M430.15,174.53c-.95.2-1.64,1.03-1.68,2"/></g><g id="ARC-395"><path class="cls-1" d="M425.95,179.52c1.43-.3,2.47-1.54,2.52-3"/></g><g id="ARC-396"><path class="cls-1" d="M410.39,179.57c.37,1.72,2.06,2.82,3.78,2.45"/></g><g id="ARC-397"><path class="cls-1" d="M500.12,104.84c-1.72.37-2.82,2.06-2.45,3.78"/></g><g id="ARC-398"><path class="cls-1" d="M532.35,101.25c-.37-1.72-2.06-2.82-3.78-2.45"/></g><g id="ARC-399"><path class="cls-1" d="M333.05,38.49c-1.72-.37-3.41.73-3.78,2.45"/></g><g id="ARC-400"><path class="cls-1" d="M363.95,48.32c.37-1.72-.73-3.41-2.45-3.78"/></g><g id="ARC-401"><path class="cls-1" d="M358.76,57.42c1.72.37,3.41-.73,3.78-2.45"/></g><g id="ARC-402"><path class="cls-1" d="M347.12,54.94c-.95-.2-1.92.27-2.35,1.14"/></g><g id="ARC-403"><path class="cls-1" d="M341.25,57.8c1.43.3,2.88-.4,3.52-1.71"/></g><g id="ARC-404"><path class="cls-1" d="M371.68,223.86c1.17,0,2.12-.95,2.12-2.12"/></g><g id="ARC-405"><path class="cls-1" d="M373.81,211.77c0-1.17-.95-2.12-2.12-2.12"/></g><g id="ARC-406"><path class="cls-1" d="M349.36,203.28c0,3.52,2.85,6.37,6.37,6.37"/></g><g id="ARC-407"><path class="cls-1" d="M355.73,163.79c-3.52,0-6.37,2.85-6.37,6.37"/></g><g id="ARC-408"><path class="cls-1" d="M371.68,163.79c1.17,0,2.12-.95,2.12-2.12"/></g><g id="ARC-409"><path class="cls-1" d="M373.81,152.76c0-1.17-.95-2.12-2.12-2.12"/></g><g id="ARC-410"><path class="cls-1" d="M337.05,141.13c0,5.28,4.28,9.56,9.56,9.56.32,0,.65-.02.97-.05"/></g><g id="ARC-411"><path class="cls-1" d="M346.6,131.58c-5.28,0-9.56,4.28-9.56,9.56"/></g><g id="ARC-412"><path class="cls-1" d="M371.68,131.58c1.17,0,2.12-.95,2.12-2.12"/></g><g id="ARC-413"><path class="cls-1" d="M373.81,123.67c0-1.17-.95-2.12-2.12-2.12"/></g><g id="ARC-414"><path class="cls-1" d="M349.45,115.17c0,3.52,2.85,6.37,6.37,6.37"/></g><g id="ARC-415"><path class="cls-1" d="M245.23,198.7c-.95-.2-1.92.27-2.35,1.14"/></g><g id="ARC-416"><path class="cls-1" d="M239.36,201.56c1.43.3,2.88-.4,3.52-1.71"/></g><g id="ARC-417"><path class="cls-1" d="M228.59,154.66c-.37,1.72.73,3.41,2.45,3.78"/></g><g id="ARC-418"><path class="cls-1" d="M234.62,141.63c-1.72-.37-3.41.73-3.78,2.45"/></g><g id="ARC-419"><path class="cls-1" d="M265.53,151.46c.37-1.72-.73-3.41-2.45-3.78"/></g><g id="ARC-420"><path class="cls-1" d="M260.34,160.56c1.72.37,3.41-.73,3.78-2.45"/></g><g id="ARC-421"><path class="cls-1" d="M248.7,158.09c-.95-.2-1.92.27-2.35,1.14"/></g><g id="ARC-422"><path class="cls-1" d="M242.83,160.94c1.43.3,2.88-.4,3.52-1.71"/></g><g id="ARC-423"><path class="cls-1" d="M307.73,171.48c-.37,1.72.73,3.41,2.45,3.78"/></g><g id="ARC-424"><path class="cls-1" d="M313.75,158.45c-1.72-.37-3.41.73-3.78,2.45"/></g><g id="ARC-425"><path class="cls-1" d="M344.66,168.28c.37-1.72-.73-3.41-2.45-3.78"/></g><g id="ARC-426"><path class="cls-1" d="M339.47,177.38c1.72.37,3.41-.73,3.78-2.45"/></g><g id="ARC-427"><path class="cls-1" d="M327.83,174.91c-.95-.2-1.92.27-2.35,1.14"/></g><g id="ARC-428"><path class="cls-1" d="M321.96,177.76c1.43.3,2.88-.4,3.52-1.71"/></g><g id="ARC-429"><path class="cls-1" d="M78.26,103.49c0,1.76,1.43,3.19,3.19,3.19"/></g><g id="ARC-430"><path class="cls-1" d="M81.45,89.49c-1.76,0-3.19,1.43-3.19,3.19"/></g><g id="ARC-431"><path class="cls-1" d="M113.72,92.68c0-1.76-1.43-3.19-3.19-3.19"/></g><g id="ARC-432"><path class="cls-1" d="M258.76,119.72c-.37,1.72.73,3.41,2.45,3.78"/></g><g id="ARC-433"><path class="cls-1" d="M264.79,106.69c-1.72-.37-3.41.73-3.78,2.45"/></g><g id="ARC-434"><path class="cls-1" d="M295.7,116.52c.37-1.72-.73-3.41-2.45-3.78"/></g><g id="ARC-435"><path class="cls-1" d="M290.51,125.62c1.72.37,3.41-.73,3.78-2.45"/></g><g id="ARC-436"><path class="cls-1" d="M278.87,123.14c-.95-.2-1.92.27-2.35,1.14"/></g><g id="ARC-437"><path class="cls-1" d="M273,126c1.43.3,2.88-.4,3.52-1.71"/></g><g id="ARC-438"><path class="cls-1" d="M219.2,111.31c-.37,1.72.73,3.41,2.45,3.78"/></g><g id="ARC-439"><path class="cls-1" d="M225.22,98.28c-1.72-.37-3.41.73-3.78,2.45"/></g><g id="ARC-440"><path class="cls-1" d="M256.13,108.11c.37-1.72-.73-3.41-2.45-3.78"/></g><g id="ARC-441"><path class="cls-1" d="M250.94,117.21c1.72.37,3.41-.73,3.78-2.45"/></g><g id="ARC-442"><path class="cls-1" d="M239.3,114.73c-.95-.2-1.92.27-2.35,1.14"/></g><g id="ARC-443"><path class="cls-1" d="M233.43,117.59c1.43.3,2.88-.4,3.52-1.71"/></g><g id="ARC-444"><path class="cls-1" d="M298.33,128.13c-.37,1.72.73,3.41,2.45,3.78"/></g><g id="ARC-445"><path class="cls-1" d="M304.36,115.1c-1.72-.37-3.41.73-3.78,2.45"/></g><g id="ARC-446"><path class="cls-1" d="M335.26,124.93c.37-1.72-.73-3.41-2.45-3.78"/></g><g id="ARC-447"><path class="cls-1" d="M330.07,134.03c1.72.37,3.41-.73,3.78-2.45"/></g><g id="ARC-448"><path class="cls-1" d="M318.43,131.55c-.95-.2-1.92.27-2.35,1.14"/></g><g id="ARC-449"><path class="cls-1" d="M356.34,63.1c-4.34,3.2-6.9,8.27-6.9,13.66"/></g><g id="ARC-450"><path class="cls-1" d="M372.94,50.83c.54-.4.86-1.03.86-1.71"/></g><g id="ARC-451"><path class="cls-1" d="M373.81,40.47c0-1-.7-1.87-1.68-2.08"/></g><g id="ARC-452"><path class="cls-1" d="M342.98,32.2c-1.77-.38-3.6.1-4.96,1.29"/></g><g id="ARC-453"><path class="cls-1" d="M329.19,35.79c3.14.67,6.41-.18,8.82-2.29"/></g><g id="ARC-454"><path class="cls-1" d="M322.07,30.1c1.35,2.91,3.99,5.02,7.13,5.68"/></g><g id="ARC-455"><path class="cls-1" d="M322.07,30.1c-.76-1.64-2.24-2.82-4.01-3.2"/></g><g id="ARC-456"><path class="cls-1" d="M195.98.96c-1.94-.41-3.96.21-5.33,1.64"/></g><g id="ARC-457"><path class="cls-1" d="M175.67,2.3c3.74,4.21,10.18,4.6,14.39.86.2-.18.4-.37.59-.57"/></g><g id="ARC-458"><path class="cls-1" d="M175.67,2.3c-1.09-1.23-2.65-1.93-4.29-1.93"/></g><g id="ARC-459"><path class="cls-1" d="M33.71.38c-1.8,0-3.5.85-4.59,2.29"/></g><g id="ARC-460"><path class="cls-1" d="M23.56,6.41c2.23-.58,4.19-1.9,5.57-3.74"/></g><g id="ARC-461"><path class="cls-1" d="M23.56,6.41c-1.59.42-2.69,1.85-2.69,3.49"/></g><g id="ARC-462"><path class="cls-1" d="M13.85,23.2c3.87,0,7.01-3.14,7.01-7.01"/></g><g id="ARC-463"><path class="cls-1" d="M6.11,23.2c-3.17,0-5.73,2.57-5.73,5.73"/></g><g id="ARC-464"><path class="cls-1" d="M.38,60.79c0,2.72,1.91,5.07,4.57,5.61"/></g><g id="ARC-465"><path class="cls-1" d="M4.95,86.37c5.51-1.14,9.06-6.53,7.92-12.04-.82-3.99-3.94-7.1-7.92-7.92"/></g><g id="ARC-466"><path class="cls-1" d="M4.95,86.37c-2.66.55-4.57,2.9-4.57,5.61"/></g><g id="ARC-467"><path class="cls-1" d="M.38,200.95c0,1.99,1.62,3.61,3.61,3.61"/></g><g id="ARC-468"><path class="cls-1" d="M11.01,204.56c.98,0,1.92-.4,2.6-1.11"/></g><g id="ARC-469"><path class="cls-1" d="M30.31,206.42c-2.26-5.16-8.27-7.5-13.43-5.24-1.23.54-2.34,1.31-3.26,2.28"/></g><g id="ARC-470"><path class="cls-1" d="M30.31,206.42c.91,2.08,2.97,3.43,5.25,3.43"/></g><g id="ARC-471"><path class="cls-1" d="M86.5,8.59c-1.76,0-3.19,1.43-3.19,3.19"/></g><g id="ARC-472"><path class="cls-1" d="M118.78,11.78c0-1.76-1.43-3.19-3.19-3.19"/></g><g id="ARC-473"><path class="cls-1" d="M115.59,21.76c1.76,0,3.19-1.43,3.19-3.19"/></g><g id="ARC-474"><path class="cls-1" d="M103.7,21.76c-.97,0-1.82.66-2.06,1.61"/></g><g id="ARC-475"><path class="cls-1" d="M98.55,25.77c1.46,0,2.73-.99,3.09-2.41"/></g><g id="ARC-476"><path class="cls-1" d="M22.64,22.58c0,1.76,1.43,3.19,3.19,3.19"/></g><g id="ARC-477"><path class="cls-1" d="M25.83,8.59c-1.76,0-3.19,1.43-3.19,3.19"/></g><g id="ARC-478"><path class="cls-1" d="M58.1,11.78c0-1.76-1.43-3.19-3.19-3.19"/></g><g id="ARC-479"><path class="cls-1" d="M54.92,21.76c1.76,0,3.19-1.43,3.19-3.19"/></g><g id="ARC-480"><path class="cls-1" d="M43.02,21.76c-.97,0-1.82.66-2.06,1.61"/></g><g id="ARC-481"><path class="cls-1" d="M37.87,25.77c1.46,0,2.73-.99,3.09-2.41"/></g><g id="ARC-482"><path class="cls-1" d="M12.53,63.04c0,1.76,1.43,3.18,3.19,3.18"/></g><g id="ARC-483"><path class="cls-1" d="M15.71,49.04c-1.76,0-3.19,1.43-3.19,3.19"/></g><g id="ARC-484"><path class="cls-1" d="M47.99,52.23c0-1.76-1.43-3.19-3.19-3.19"/></g><g id="ARC-485"><path class="cls-1" d="M44.81,62.21c1.76,0,3.19-1.43,3.19-3.19"/></g><g id="ARC-486"><path class="cls-1" d="M32.91,62.21c-.97,0-1.82.66-2.06,1.61"/></g><g id="ARC-487"><path class="cls-1" d="M27.76,66.22c1.46,0,2.73-.99,3.09-2.41"/></g><g id="ARC-488"><path class="cls-1" d="M300.39,196.97c-1.16-.25-2.35.17-3.11,1.08"/></g><g id="ARC-489"><path class="cls-1" d="M331.3,206.8c.37-1.72-.73-3.41-2.45-3.78"/></g><g id="ELLIPSE"><path class="cls-1" d="M275.77,206.71c-.05,1.17.86,2.16,2.03,2.21"/></g><g id="ELLIPSE-2"><path class="cls-1" d="M278.27,198.06c-1.17-.05-2.16.86-2.21,2.03"/></g><g id="ELLIPSE-3"><path class="cls-1" d="M276.84,208.64c.29.16.61.25.94.27"/></g><g id="SPLINE"><path class="cls-1" d="M182.18,213.25c-.55-.12-1.09-.32-1.58-.59-.49-.27-.95-.62-1.34-1.02-.39-.4-.73-.87-.99-1.37-.26-.5-.44-1.04-.55-1.6"/></g><g id="SPLINE-2"><path class="cls-1" d="M346.86,247.99c.83.18,1.7.16,2.53-.04.83-.2,1.61-.59,2.27-1.12.66-.54,1.2-1.22,1.56-1.99.37-.77.56-1.62.56-2.47"/></g><g id="SPLINE-3"><path class="cls-1" d="M408.13,248.22c-.83.18-1.7.16-2.53-.04-.83-.2-1.61-.59-2.27-1.12-.66-.54-1.2-1.22-1.56-1.99-.37-.77-.56-1.62-.56-2.47"/></g><g id="SPLINE-4"><path class="cls-1" d="M573.69,213.29c.55-.12,1.09-.32,1.59-.59.5-.27.95-.62,1.34-1.03.39-.41.73-.87.99-1.38.26-.5.44-1.05.54-1.6"/></g><g id="SPLINE-5"><path class="cls-1" d="M294.36,211.27c-.02-.12-.06-.23-.1-.34-.04-.11-.09-.22-.15-.32-.03-.05-.06-.1-.1-.15-.03-.05-.07-.09-.11-.14-.07-.09-.16-.17-.25-.25-.02-.02-.05-.04-.07-.06-.02-.02-.05-.04-.07-.05-.05-.03-.1-.07-.15-.1-.1-.06-.21-.11-.32-.16-.03-.01-.06-.02-.08-.03-.03,0-.06-.02-.08-.03-.06-.02-.11-.03-.17-.04-.11-.02-.23-.04-.35-.04"/></g><g id="SPLINE-6"><path class="cls-1" d="M292.37,209.55c.12,0,.24.02.35.04s.23.06.34.1c.06.02.11.05.16.07.05.03.1.05.15.09.1.06.2.13.29.21.05.04.09.08.13.12.04.04.08.09.12.13.08.09.14.19.2.29.02.03.03.05.04.08.01.03.03.05.04.08.03.05.05.11.07.16.04.11.07.22.1.34"/></g><g id="SPLINE-7"><path class="cls-1" d="M295.56,198.81c.16,0,.33,0,.49-.03.04,0,.08-.02.12-.03.04,0,.08-.02.12-.03.08-.02.15-.05.23-.09s.15-.07.22-.11c.03-.02.07-.04.1-.06s.07-.05.1-.07c.13-.1.25-.21.35-.34"/></g></svg>