<?xml version="1.0" encoding="UTF-8"?><svg id="_图层_1" xmlns="http://www.w3.org/2000/svg" viewBox="0 0 766.1 248.83"><defs><style>.cls-1{fill:none;stroke:#fff;stroke-linecap:round;stroke-linejoin:round;stroke-width:.75px;}</style></defs><g id="LINE"><line class="cls-1" x1="556.28" y1="1.79" x2="437.39" y2="27.07"/></g><g id="LINE-2"><line class="cls-1" x1="412.46" y1="32.36" x2="383.98" y2="38.42"/></g><g id="LINE-3"><line class="cls-1" x1="382.3" y1="40.5" x2="382.3" y2="47.68"/></g><g id="LINE-4"><line class="cls-1" x1="384.42" y1="49.81" x2="400.28" y2="49.81"/></g><g id="LINE-5"><line class="cls-1" x1="406.65" y1="56.18" x2="406.65" y2="80.73"/></g><g id="LINE-6"><line class="cls-1" x1="409.21" y1="82.81" x2="429.75" y2="78.44"/></g><g id="LINE-7"><line class="cls-1" x1="433.53" y1="80.9" x2="434.94" y2="87.54"/></g><g id="LINE-8"><line class="cls-1" x1="432.49" y1="91.32" x2="420.85" y2="93.8"/></g><g id="LINE-9"><line class="cls-1" x1="416.65" y1="98.79" x2="404.87" y2="101.3"/></g><g id="LINE-10"><line class="cls-1" x1="400.58" y1="103.27" x2="400.58" y2="110.93"/></g><g id="LINE-11"><line class="cls-1" x1="389.96" y1="121.54" x2="384.42" y2="121.54"/></g><g id="LINE-12"><line class="cls-1" x1="382.3" y1="123.67" x2="382.3" y2="129.46"/></g><g id="LINE-13"><line class="cls-1" x1="384.42" y1="131.58" x2="408.86" y2="131.58"/></g><g id="LINE-14"><line class="cls-1" x1="409.83" y1="150.64" x2="384.42" y2="150.64"/></g><g id="LINE-15"><line class="cls-1" x1="382.3" y1="152.76" x2="382.3" y2="161.61"/></g><g id="LINE-16"><line class="cls-1" x1="384.42" y1="163.74" x2="400.28" y2="163.74"/></g><g id="LINE-17"><line class="cls-1" x1="406.65" y1="170.11" x2="406.65" y2="203.23"/></g><g id="LINE-18"><line class="cls-1" x1="400.28" y1="209.6" x2="384.42" y2="209.6"/></g><g id="LINE-19"><line class="cls-1" x1="382.3" y1="211.73" x2="382.3" y2="221.73"/></g><g id="LINE-20"><line class="cls-1" x1="384.42" y1="223.85" x2="391.02" y2="223.85"/></g><g id="LINE-21"><line class="cls-1" x1="401.21" y1="234.05" x2="401.21" y2="242.72"/></g><g id="LINE-22"><line class="cls-1" x1="408.13" y1="248.33" x2="573.67" y2="213.41"/></g><g id="LINE-23"><line class="cls-1" x1="602.77" y1="209.85" x2="730.55" y2="209.85"/></g><g id="LINE-24"><line class="cls-1" x1="755.09" y1="204.56" x2="762.12" y2="204.56"/></g><g id="LINE-25"><line class="cls-1" x1="765.73" y1="200.95" x2="765.73" y2="92.32"/></g><g id="LINE-26"><line class="cls-1" x1="760" y1="86.58" x2="756.31" y2="86.58"/></g><g id="LINE-27"><line class="cls-1" x1="756.31" y1="66.2" x2="760" y2="66.2"/></g><g id="LINE-28"><line class="cls-1" x1="765.73" y1="60.47" x2="765.73" y2="28.93"/></g><g id="LINE-29"><line class="cls-1" x1="760" y1="23.2" x2="743.39" y2="23.2"/></g><g id="LINE-30"><line class="cls-1" x1="736.38" y1="16.19" x2="736.38" y2="4.02"/></g><g id="LINE-31"><line class="cls-1" x1="732.39" y1=".38" x2="580.01" y2=".38"/></g><g id="LINE-32"><line class="cls-1" x1="13.85" y1="23.2" x2="6.11" y2="23.2"/></g><g id="LINE-33"><line class="cls-1" x1=".38" y1="28.93" x2=".38" y2="60.79"/></g><g id="LINE-34"><line class="cls-1" x1=".38" y1="91.99" x2=".38" y2="200.95"/></g><g id="LINE-35"><line class="cls-1" x1="3.98" y1="204.56" x2="11.01" y2="204.56"/></g><g id="LINE-36"><line class="cls-1" x1="35.56" y1="209.85" x2="153.12" y2="209.85"/></g><g id="LINE-37"><line class="cls-1" x1="182.2" y1="213.36" x2="346.86" y2="248.1"/></g><g id="LINE-38"><line class="cls-1" x1="353.78" y1="242.49" x2="353.78" y2="234.05"/></g><g id="LINE-39"><line class="cls-1" x1="363.97" y1="223.85" x2="371.68" y2="223.85"/></g><g id="LINE-40"><line class="cls-1" x1="373.81" y1="221.73" x2="373.81" y2="211.77"/></g><g id="LINE-41"><line class="cls-1" x1="371.68" y1="209.65" x2="355.73" y2="209.65"/></g><g id="LINE-42"><line class="cls-1" x1="349.36" y1="203.28" x2="349.36" y2="170.16"/></g><g id="LINE-43"><line class="cls-1" x1="355.73" y1="163.79" x2="371.68" y2="163.79"/></g><g id="LINE-44"><line class="cls-1" x1="373.81" y1="161.66" x2="373.81" y2="152.76"/></g><g id="LINE-45"><line class="cls-1" x1="174.76" y1="161.12" x2="174.76" y2="158.99"/></g><g id="LINE-46"><line class="cls-1" x1="166.23" y1="150.5" x2="151.68" y2="150.5"/></g><g id="LINE-47"><line class="cls-1" x1="151.68" y1="169.61" x2="166.23" y2="169.61"/></g><g id="LINE-48"><line class="cls-1" x1="143.16" y1="158.99" x2="143.16" y2="161.12"/></g><g id="LINE-49"><line class="cls-1" x1="372.12" y1="38.4" x2="342.98" y2="32.2"/></g><g id="LINE-50"><line class="cls-1" x1="318.06" y1="26.91" x2="195.98" y2=".96"/></g><g id="LINE-51"><line class="cls-1" x1="171.38" y1=".38" x2="33.71" y2=".38"/></g><g id="LINE-52"><line class="cls-1" x1="20.86" y1="9.9" x2="20.86" y2="16.19"/></g><g id="LINE-53"><line class="cls-1" x1="371.68" y1="150.64" x2="347.58" y2="150.64"/></g><g id="LINE-54"><line class="cls-1" x1="346.6" y1="131.58" x2="371.68" y2="131.58"/></g><g id="LINE-55"><line class="cls-1" x1="373.81" y1="129.46" x2="373.81" y2="123.67"/></g><g id="LINE-56"><line class="cls-1" x1="371.68" y1="121.54" x2="355.82" y2="121.54"/></g><g id="LINE-57"><line class="cls-1" x1="349.45" y1="115.17" x2="349.45" y2="76.76"/></g><g id="LINE-58"><line class="cls-1" x1="356.34" y1="63.1" x2="372.94" y2="50.83"/></g><g id="LINE-59"><line class="cls-1" x1="373.81" y1="49.13" x2="373.81" y2="40.47"/></g><g id="ARC"><path class="cls-1" d="M597.52,206.42c-2.26-5.16-8.27-7.5-13.43-5.24-3.13,1.37-5.37,4.23-5.95,7.6"/></g><g id="ARC-2"><path class="cls-1" d="M437.39,27.07c-1.77.38-3.25,1.56-4.01,3.2"/></g><g id="ARC-3"><path class="cls-1" d="M417.43,33.65c4.24,3.7,10.68,3.27,14.38-.97.64-.73,1.16-1.54,1.57-2.42"/></g><g id="ARC-4"><path class="cls-1" d="M417.43,33.65c-1.36-1.19-3.2-1.66-4.96-1.29"/></g><g id="ARC-5"><path class="cls-1" d="M383.98,38.42c-.98.21-1.68,1.07-1.68,2.08"/></g><g id="ARC-6"><path class="cls-1" d="M382.3,47.68c0,1.17.95,2.12,2.12,2.12"/></g><g id="ARC-7"><path class="cls-1" d="M406.65,56.18c0-3.52-2.85-6.37-6.37-6.37"/></g><g id="ARC-8"><path class="cls-1" d="M406.65,80.73c0,1.17.95,2.12,2.12,2.12.15,0,.3-.02.44-.05"/></g><g id="ARC-9"><path class="cls-1" d="M433.53,80.9c-.37-1.72-2.06-2.82-3.78-2.45"/></g><g id="ARC-10"><path class="cls-1" d="M432.49,91.32c1.72-.37,2.82-2.06,2.45-3.78"/></g><g id="ARC-11"><path class="cls-1" d="M420.85,93.8c-.95.2-1.64,1.03-1.68,2"/></g><g id="ARC-12"><path class="cls-1" d="M416.65,98.79c1.43-.3,2.47-1.54,2.52-3"/></g><g id="ARC-13"><path class="cls-1" d="M403.3,101.23c.51.15,1.05.17,1.56.06"/></g><g id="ARC-14"><path class="cls-1" d="M403.3,101.23c-1.12-.33-2.31.31-2.64,1.44-.06.2-.09.4-.09.6"/></g><g id="ARC-15"><path class="cls-1" d="M389.96,121.54c5.86,0,10.62-4.75,10.62-10.62"/></g><g id="ARC-16"><path class="cls-1" d="M384.42,121.54c-1.17,0-2.12.95-2.12,2.12"/></g><g id="ARC-17"><path class="cls-1" d="M382.3,129.46c0,1.17.95,2.12,2.12,2.12"/></g><g id="ARC-18"><path class="cls-1" d="M409.83,150.64c5.28,0,9.56-4.28,9.56-9.56s-4.28-9.56-9.56-9.56c-.32,0-.65.02-.97.05"/></g><g id="ARC-19"><path class="cls-1" d="M384.42,150.64c-1.17,0-2.12.95-2.12,2.12"/></g><g id="ARC-20"><path class="cls-1" d="M382.3,161.61c0,1.17.95,2.12,2.12,2.12"/></g><g id="ARC-21"><path class="cls-1" d="M406.65,170.11c0-3.52-2.85-6.37-6.37-6.37"/></g><g id="ARC-22"><path class="cls-1" d="M400.28,209.6c3.52,0,6.37-2.85,6.37-6.37"/></g><g id="ARC-23"><path class="cls-1" d="M384.42,209.6c-1.17,0-2.12.95-2.12,2.12"/></g><g id="ARC-24"><path class="cls-1" d="M382.3,221.73c0,1.17.95,2.12,2.12,2.12"/></g><g id="ARC-25"><path class="cls-1" d="M401.21,234.05c0-5.63-4.56-10.19-10.19-10.19"/></g><g id="ARC-26"><path class="cls-1" d="M597.52,206.42c.91,2.09,2.97,3.43,5.25,3.43"/></g><g id="ARC-27"><path class="cls-1" d="M730.55,209.85c2.28,0,4.34-1.35,5.25-3.43"/></g><g id="ARC-28"><path class="cls-1" d="M752.49,203.45c-3.9-4.06-10.35-4.2-14.41-.3-.97.93-1.74,2.04-2.28,3.26"/></g><g id="ARC-29"><path class="cls-1" d="M752.49,203.45c.68.71,1.62,1.11,2.6,1.11"/></g><g id="ARC-30"><path class="cls-1" d="M762.12,204.56c1.99,0,3.61-1.62,3.61-3.61"/></g><g id="ARC-31"><path class="cls-1" d="M765.73,92.32c0-3.17-2.57-5.73-5.73-5.73"/></g><g id="ARC-32"><path class="cls-1" d="M756.31,66.2c-5.63,0-10.19,4.56-10.19,10.19s4.56,10.19,10.19,10.19"/></g><g id="ARC-33"><path class="cls-1" d="M760,66.2c3.17,0,5.73-2.57,5.73-5.73"/></g><g id="ARC-34"><path class="cls-1" d="M765.73,28.93c0-3.17-2.57-5.73-5.73-5.73"/></g><g id="ARC-35"><path class="cls-1" d="M736.38,16.19c0,3.87,3.14,7.01,7.01,7.01"/></g><g id="ARC-36"><path class="cls-1" d="M736.38,4.02c0-1.74-1.25-3.24-2.96-3.55"/></g><g id="ARC-37"><path class="cls-1" d="M733.42.47c-.34-.06-.69-.09-1.03-.09"/></g><g id="ARC-38"><path class="cls-1" d="M580.01.38c-1.64,0-3.2.7-4.29,1.93"/></g><g id="ARC-39"><path class="cls-1" d="M561.3,3.13c4.19,3.76,10.64,3.4,14.39-.79.01-.01.02-.03.03-.04"/></g><g id="ARC-40"><path class="cls-1" d="M561.3,3.13c-1.36-1.22-3.23-1.72-5.02-1.34"/></g><g id="ARC-41"><path class="cls-1" d="M6.11,23.2c-3.17,0-5.73,2.57-5.73,5.73"/></g><g id="ARC-42"><path class="cls-1" d="M.38,60.79c0,2.72,1.91,5.07,4.57,5.61"/></g><g id="ARC-43"><path class="cls-1" d="M4.95,86.37c5.51-1.14,9.06-6.53,7.92-12.04-.82-3.99-3.94-7.1-7.92-7.92"/></g><g id="ARC-44"><path class="cls-1" d="M4.95,86.37c-2.66.55-4.57,2.9-4.57,5.61"/></g><g id="ARC-45"><path class="cls-1" d="M.38,200.95c0,1.99,1.62,3.61,3.61,3.61"/></g><g id="ARC-46"><path class="cls-1" d="M11.01,204.56c.98,0,1.92-.4,2.6-1.11"/></g><g id="ARC-47"><path class="cls-1" d="M30.31,206.42c-2.26-5.16-8.27-7.5-13.43-5.24-1.23.54-2.34,1.31-3.26,2.28"/></g><g id="ARC-48"><path class="cls-1" d="M30.31,206.42c.91,2.08,2.97,3.43,5.25,3.43"/></g><g id="ARC-49"><path class="cls-1" d="M153.12,209.85c2.28,0,4.34-1.35,5.25-3.43"/></g><g id="ARC-50"><path class="cls-1" d="M177.74,208.74c-.98-5.54-6.26-9.25-11.8-8.27-3.36.59-6.2,2.82-7.57,5.95"/></g><g id="ARC-51"><path class="cls-1" d="M363.97,223.85c-5.63,0-10.19,4.56-10.19,10.19"/></g><g id="ARC-52"><path class="cls-1" d="M371.68,223.85c1.17,0,2.12-.95,2.12-2.12"/></g><g id="ARC-53"><path class="cls-1" d="M373.81,211.77c0-1.17-.95-2.12-2.12-2.12"/></g><g id="ARC-54"><path class="cls-1" d="M349.36,203.28c0,3.52,2.85,6.37,6.37,6.37"/></g><g id="ARC-55"><path class="cls-1" d="M355.73,163.79c-3.52,0-6.37,2.85-6.37,6.37"/></g><g id="ARC-56"><path class="cls-1" d="M371.68,163.79c1.17,0,2.12-.95,2.12-2.12"/></g><g id="ARC-57"><path class="cls-1" d="M342.98,32.2c-1.77-.38-3.6.1-4.96,1.29"/></g><g id="ARC-58"><path class="cls-1" d="M322.07,30.1c2.37,5.11,8.43,7.33,13.53,4.96.88-.41,1.69-.93,2.42-1.57"/></g><g id="ARC-59"><path class="cls-1" d="M322.07,30.1c-.76-1.64-2.24-2.82-4.01-3.2"/></g><g id="ARC-60"><path class="cls-1" d="M195.98.96c-1.94-.41-3.96.21-5.33,1.64"/></g><g id="ARC-61"><path class="cls-1" d="M175.67,2.3c3.74,4.21,10.18,4.6,14.39.86.2-.18.4-.37.59-.57"/></g><g id="ARC-62"><path class="cls-1" d="M175.67,2.3c-1.09-1.23-2.65-1.93-4.29-1.93"/></g><g id="ARC-63"><path class="cls-1" d="M33.71.38c-1.8,0-3.5.85-4.59,2.29"/></g><g id="ARC-64"><path class="cls-1" d="M23.56,6.41c2.23-.58,4.19-1.9,5.57-3.74"/></g><g id="ARC-65"><path class="cls-1" d="M23.56,6.41c-1.59.42-2.69,1.85-2.69,3.49"/></g><g id="ARC-66"><path class="cls-1" d="M13.85,23.2c3.87,0,7.01-3.14,7.01-7.01"/></g><g id="ARC-67"><path class="cls-1" d="M373.81,152.76c0-1.17-.95-2.12-2.12-2.12"/></g><g id="ARC-68"><path class="cls-1" d="M346.6,131.58c-5.28,0-9.56,4.28-9.56,9.56s4.28,9.56,9.56,9.56c.32,0,.65-.02.97-.05"/></g><g id="ARC-69"><path class="cls-1" d="M371.68,131.58c1.17,0,2.12-.95,2.12-2.12"/></g><g id="ARC-70"><path class="cls-1" d="M373.81,123.67c0-1.17-.95-2.12-2.12-2.12"/></g><g id="ARC-71"><path class="cls-1" d="M349.45,115.17c0,3.52,2.85,6.37,6.37,6.37"/></g><g id="ARC-72"><path class="cls-1" d="M356.34,63.1c-4.34,3.2-6.9,8.27-6.9,13.66"/></g><g id="ARC-73"><path class="cls-1" d="M372.94,50.83c.54-.4.86-1.03.86-1.71"/></g><g id="ARC-74"><path class="cls-1" d="M373.81,40.47c0-1-.7-1.87-1.68-2.08"/></g><g id="SPLINE"><path class="cls-1" d="M573.67,213.41c.56-.12,1.1-.32,1.6-.59.5-.28.95-.63,1.35-1.04.4-.41.73-.88.99-1.39.26-.51.44-1.06.54-1.62"/></g><g id="SPLINE-2"><path class="cls-1" d="M401.21,242.72c0,.85.19,1.7.56,2.47.37.77.9,1.45,1.56,1.99.66.54,1.44.92,2.27,1.12.83.2,1.7.21,2.53.04"/></g><g id="SPLINE-3"><path class="cls-1" d="M177.74,208.74c.1.56.28,1.1.54,1.61.26.51.59.97.99,1.38.39.41.85.76,1.35,1.03.5.27,1.04.48,1.59.59"/></g><g id="SPLINE-4"><path class="cls-1" d="M346.86,248.1c.83.18,1.7.16,2.53-.04.83-.2,1.61-.59,2.27-1.12.66-.54,1.2-1.22,1.56-1.99.37-.77.56-1.62.56-2.47"/></g><g id="SPLINE-5"><path class="cls-1" d="M174.76,158.99c0-.56-.06-1.11-.16-1.66-.11-.54-.27-1.09-.49-1.6-.21-.51-.48-1-.79-1.46-.16-.23-.32-.46-.5-.67s-.36-.42-.56-.62c-.39-.39-.82-.74-1.29-1.05-.47-.31-.96-.57-1.47-.78-.26-.11-.52-.2-.78-.28s-.54-.15-.81-.2c-.55-.11-1.1-.16-1.66-.16"/></g><g id="SPLINE-6"><path class="cls-1" d="M143.16,161.12c0,.56.06,1.11.16,1.66s.27,1.09.49,1.6c.21.51.48,1,.79,1.46.16.23.32.46.5.67s.36.42.56.62c.39.39.82.74,1.29,1.05.47.31.96.57,1.47.78.26.11.52.2.78.28.27.08.54.15.81.2.55.11,1.1.16,1.66.16"/></g><g id="SPLINE-7"><path class="cls-1" d="M151.68,150.5c-.56,0-1.12.06-1.66.16-.55.11-1.09.27-1.6.48-.51.21-1,.47-1.47.78-.23.15-.46.32-.68.5-.22.18-.42.36-.62.56-.39.39-.75.82-1.06,1.28s-.58.96-.79,1.47c-.11.26-.2.52-.28.78-.08.27-.15.54-.21.81-.11.55-.17,1.1-.17,1.66"/></g><g id="SPLINE-8"><path class="cls-1" d="M166.23,169.61c.56,0,1.12-.06,1.66-.16.55-.11,1.09-.27,1.6-.48.51-.21,1-.47,1.47-.78.23-.15.46-.32.68-.5.22-.18.42-.36.62-.56.39-.39.75-.82,1.06-1.28.31-.47.58-.96.79-1.47.11-.26.2-.52.28-.78s.15-.54.21-.81c.11-.55.17-1.1.17-1.66"/></g></svg>