<svg xmlns="http://www.w3.org/2000/svg" viewBox="0 0 1303.94 850.39" xmlns:v="https://vecta.io/nano"><style><![CDATA[.B{stroke-width:.51}.C{stroke-width:.37}.D{stroke-linejoin:round}.E{stroke-linecap:round}.F{fill:#1490ed}.G{font-family:Boldena-Bold, Boldena}.H{font-size:15.4px}.I{font-weight:700}]]></style><g fill="none" stroke="#000" class="D"><g class="E"><g class="B"><path d="M871.97 541.6l-.97.93m6.22.69l-4.48-1.69m4.66 2.19l.06-.05m-4.6-1.3l3.77 1.42m-4.41-.8l.64-.62m12.87 4.42l-.96.93m1.95-.92l-.21-.08m-.53 1.46l.97-.93m9.17 3.46l-.97.93m2.15-.85l-.41-.15m.99 2.03l-.28-1.61m3.29 1.45l-.96.93m1.91-.94l-.17-.06m-.56 1.45l.97-.94m-5.64-.97l.03.16m-.14-.05l.11-.11m13.51 3.94l-.97.94m3.86-.21l-2.12-.8"/><use href="#B"/><path d="M987.54 406.26l4.25-4.11m-23.93-.64l13.95 5.26m-36.62-10.44l14.12 5.33m28.06-35.17l-6.76 6.53"/><use href="#C"/><path d="M1024.7 386.28l4.25-4.11m-23.93-.64l13.95 5.26m-36.62-10.43l14.13 5.32m-93.69-13.1l-6.77 6.53"/><use href="#C" x="-84.59" y="2.09"/><path d="M940.11 388.37l4.25-4.11m-23.93-.64l13.95 5.26m-36.61-10.43l14.12 5.32m-122.4-5.64l-2.65 4.91"/></g><path d="M789.49 378.13l.54-4.69" class="C"/><path d="M622.24 361.37l18.59 7.01" class="B"/><path d="M622.78 356.68l-.54 4.69" class="C"/><path d="M831.87 385.86l-37.14-8.93" class="B"/><path d="M794.73 376.93l.54-4.69m36.6 13.62l.54-4.69" class="C"/><path d="M1127.41 427.63l7.4-7.15" class="B"/><path d="M1134.81 420.48l.54-4.7m-349.42-33.95l.12-1.01m-145.22-12.44l.54-4.69" class="C"/><path d="M997.1 409.05l-5.08 4.91" class="B"/><path d="M997.1 409.05l.54-4.69" class="C"/><path d="M841.14 390.55l-2.64 4.9" class="B"/><path d="M841.14 390.55l.54-4.7" class="C"/><path d="M883.52 398.28l-37.14-8.93" class="B"/><path d="M846.38 389.35l.54-4.69m36.6 13.62l.54-4.7" class="C"/><path d="M1036.93 421.4l-34.1-12.87" class="B"/><path d="M1002.83 408.53l.54-4.69m-165.79-9.6l.12-1m152.95 19.58l.23-1.93m46.05 10.51l.54-4.7" class="C"/><path d="M864.62 538.83l-.97.93m3.86-.21l-2.11-.79" class="B"/><path d="M422.99 280.48l-.5-3.63m-136.48 20.7l-.27-2.01" class="C"/><path d="M298.9 292.61l32.58 4.51" class="B"/><path d="M298.9 292.61l-.68-5.01" class="C"/><path d="M568.13 255.06l26.84 7.52" class="B"/><path d="M568.13 255.06l-.68-5.01M332.7 295.94l-.5-3.63" class="C"/><path d="M499.3 276.89l6.8-4.43" class="B"/><path d="M506.1 272.46l-.69-5.01" class="C"/><path d="M158.52 318.64l.68 5.01" class="B"/><path d="M597.28 261.07l-.37-2.76m-100.38 17.8l-.36-2.63" class="C"/><path d="M161.71 325.18l8.21 1.14" class="B"/><path d="M161.03 320.17l.68 5.01m8.21 1.14l-.68-5.01" class="C"/><path d="M432.97 290.55l6.8-4.44" class="B"/><path d="M439.77 286.11l-.68-5m-8.88 8.66l-.36-2.64" class="C"/><path d="M512.04 271.59l26.84 7.52" class="B"/><path d="M512.04 271.59l-.68-5.01" class="C"/><path d="M239.94 319.36l4.31-4.16" class="B"/><path d="M244.25 315.2l-.68-5.01" class="C"/><path d="M596.35 271.85l6.8-4.43" class="B"/><path d="M603.15 267.42l-.68-5.01" class="C"/><g class="B"><path d="M511.29 245.47l9.24-6.03m5.95-.87l29.46 8.26m.51 2.68l-5.81 3.79m-5.95.87l-12.05-3.38m-8.65.78l-12.19-3.42m-56.59 13.84l9.24-6.02m5.95-.87l29.46 8.25m.5 2.68l-5.81 3.79m-5.95.87l-12.05-3.37m-8.64.77l-12.2-3.42m-25.86 22.46l9.24-6.02m5.94-.88l29.47 8.26m.5 2.68l-5.81 3.79m-5.95.87l-12.05-3.37m274.36 3.05l-3.98 7.39m46.36.34l-37.14-8.92m37.54 16.72l2.5-4.64m-22.94 2.19l15.2 3.65m-38.62-6.19l15.37 3.7m102.01 44.93l-3.98 7.38m46.37.35l-37.15-8.93m37.54 16.73l2.5-4.65m-22.93 2.19l15.19 3.65m-38.62-6.18l15.37 3.69m-117.59-39.06l-3.98 7.39m46.36.34l-37.14-8.93m37.54 16.73l2.5-4.64m-22.94 2.18l15.2 3.66m-38.8 24.98l15.38 3.7m89.01 10.59l-3.98 7.39m46.36.34l-37.14-8.92m37.54 16.72l2.5-4.64m-22.94 2.19l15.2 3.65m-38.63-6.19l15.38 3.7"/><use href="#B" x="108.3" y="6.86"/><path d="M1095.84 413.11l4.25-4.11m-23.93-.63l13.95 5.26m-36.62-10.44l14.12 5.32m-9.1-15.19l-6.76 6.53m-222.9-79.51l-3.98 7.39m46.37.34l-37.15-8.93m37.54 16.73l2.5-4.64m76.18 239.56l-.21-.08m-.52 1.46l.97-.93m-14.86-5.61l-.97.94m1.95-.93l-.21-.08m-.52 1.47l.97-.94m3.49 1.32l-.96.94m1.95-.93l-.21-.08m-.53 1.47l.97-.94m-22.14-8.35l-.97.93m4.08-.12l-2.33-.88m-17.08-6.08l-.97.94m6.23.68l-4.48-1.69m4.66 2.2l.05-.06m-4.59-1.29l3.76 1.42m-4.41-.8l.65-.62m-516.7-226.98l-12.35 11.94M335 335.03l36.22 5.02M336 331.32l-2.16 2.09m.27-3.79l-13.91-1.93m-8.52 1.6l-14.07-1.95m-1.73-2.44l6.76-6.53m389.85 4.29l-.27 2.35m1.49 1.61l12.06 4.55"/></g><path d="M693.71 326.62l.27-2.35m18.58 7.04l.01-.03" class="C"/><path d="M700.27 354.23l-.18 1.52m2.04 1.78l26.81 6.44" class="B"/><path d="M702.13 357.53l.27-2.35m26.54 8.79l.27-2.34" class="C"/><path d="M641.33 372.09l-.21 1.87m4.48 3.23l19.52 7.37m-43.9 6.97l-.05.39m533.54 89.04l.27-2.34m-571.37-50.76l-.27 2.35m1.48 1.61l7.74 2.92" class="B"/><path d="M584.82 431.82l.27-2.35" class="C"/><path d="M1134.1 501.69l19.73-19.06" class="B"/><path d="M1153.83 482.63l.27-2.35" class="C"/><path d="M1119.47 500.98l4.32 1.64" class="B"/><path d="M1123.79 502.62l.27-2.35m10.04 1.42l.27-2.35m-541.81-64.6l.27-2.35m526.64 68.59l.27-2.34" class="C"/><path d="M592.1 449.96l-.27 2.35m523.23 66.97l.27-2.35m-269.49-3.71l-.27 2.35M597.31 457.1l215.93 52.1" class="B"/><path d="M597.31 457.1l.27-2.35m215.66 54.45l.27-2.35" class="C"/><path d="M1046.21 586.6l67.97-65.66" class="B"/><path d="M1114.18 520.94l.26-2.35m-106.74 58.08l.27-2.35" class="C"/><path d="M508.87 279.58l-12.19-3.42m40.46 8.8l9.24-6.03m5.95-.87l29.46 8.26m.5 2.68l-5.81 3.79m-5.94.87l-12.05-3.38m-8.65.78l-12.2-3.42m-229.29 29.32l33.63 4.65m6.79-1.25l1.24.17m12.24-9.09l-8.43 8.15m8.72-13.42l6.76-6.53m5.71-1.41l33.99 4.71m1.73 2.44l-4.25 4.1m-5.72 1.41l-2.92-.4m-16.24 12.95l12.43-12.01m-11.28 13.63l3.48.48M119.89 398.6l.19 13.44m571.42-86.46l1.04.3m-14.38 2.73l-.84-.23" class="B"/><path d="M666.05 330.35l.63 4.69" class="C"/><g class="B"><path d="M158.82 404.2l.03 2.44m19.84-.29l-.03-2.44m516.14-88.26l-38.14-15.72m-5.98 5.78l1.03.42m1.78-7.18l22.49 5.8"/><path d="M675.98 304.75l-2.28 2.2m-312.11 99.82l-.51-3.7"/></g><path d="M143.11 383.88l-.08-5.87m190.92 55.11l-.42-28.74" class="C"/><path d="M589.02 399.36l1.28 9.43" class="B"/><path d="M402.32 467.38l-.04-2.44" class="C"/><path d="M384.16 462.34l.04 2.45m1.12-4.85l2.76-2.67m208.7-54.19l.62 4.56" class="B"/><path d="M637.77 374.81l-.34-2.5m3.91-.24l-.1-.7m-32.77-.62l-.34-2.5" class="C"/><path d="M627.1 385.55l-.11-.82" class="B"/><path d="M626.72 385.91l-.06-.46m-9.3 6.87l-.08-.55m3.92-.13l-.11-.81" class="C"/><path d="M566.84 414.54l17.53-16.94" class="B"/><path d="M566.84 414.54l-.34-2.5" class="C"/><path d="M590.18 421.21l-.11-.81" class="B"/><path d="M589.8 421.58l-.06-.46" class="C"/><path d="M571.03 429.34l9.01 1.25" class="B"/><path d="M580.04 430.59l-.34-2.51m3.91-.23l-.1-.71m-12.48 2.2l-.34-2.51" class="C"/><path d="M547.47 438.95l5.28-5.1" class="B"/><path d="M552.75 433.85l-.34-2.5" class="C"/><path d="M365.23 393.59l170.65 47.63" class="B"/><path d="M365.23 393.59l-.34-2.5m170.99 50.13l-.34-2.5m11.93.23l-.34-2.5" class="C"/><g class="B"><path d="M356.61 359.71l16.99 2.35m-20.31-10.15l-1.33 1.29m468.02-29.75l2.5-4.64M799.55 321l15.19 3.65m-38.62-6.18l15.37 3.69m166.74 40.87l13.95 5.26m-36.62-10.43l14.12 5.32m-9.1-15.19l-6.76 6.53"/><use href="#C" x="-46.79" y="-18.5"/><path d="M977.91 367.78l4.25-4.11m-398.15 27.12l6.26-6.05m-5.1 8.27l7.74 2.92m5.57 10.67l-5.36 5.18m4.6 6.45l215.96 52.1m36.25 10.78l149.81 56.5"/><path d="M997.64 404.36l-6.76 6.53m46.59 5.81l-34.1-12.86m31.59 20.3l4.25-4.1m-23.92-.64l13.95 5.26m-36.62-10.44l14.12 5.33m18.95 29.38l-6.76 6.53"/><use href="#C" x="38.31" y="82.44"/><path d="M1063.01 468.72l4.25-4.11m-23.93-.64l13.95 5.26m-36.61-10.43l14.12 5.32m-133.6-62.15l-6.76 6.54"/><use href="#B" x="-49.02" y="15.51"/><path d="M938.52 421.76l4.25-4.11m-23.93-.63l13.95 5.26m-36.62-10.44l14.12 5.33m-310.81 44.18l-5.25 5.08m-11.97-19.6l9.77 3.68m-24.88 10.91l15.11-14.59m429.23 198.62L126.11 417.01"/></g><path d="M1011.49 645.45l-.2-13.43" class="C"/><g class="B"><path d="M633.87 534.63l377.42 97.39M633.14 484.64l.73 49.99m-11.77-54.15l-120.21-31.02m0 0l-11-1.52m.73 49.99l-.73-49.99"/><path d="M491.62 497.93l-365.71-94.36"/></g><path d="M125.91 403.57l.2 13.44" class="C"/><path d="M598.5 504.81l-72.11-18.6m75.22 43.51l-.32-21.51m-74.51 4.88l72.11 18.6m-75.22-43.5l.32 21.5m-81.44-216.46l-12.2-3.42m-16.65 25.05l9.24-6.03m5.95-.87l29.46 8.26m.51 2.68l-5.81 3.78m-5.95.88l-12.05-3.38m-8.65.78l-12.19-3.42m11 32.79l9.24-6.03m5.95-.87l29.46 8.26m.5 2.68l-5.81 3.79m-5.94.87l-12.05-3.38m-8.65.78l-12.2-3.42m28.96-26.67l9.24-6.03m5.95-.87l29.46 8.26m.5 2.68l-5.81 3.79m-5.95.87l-12.05-3.38" class="B"/><path d="M910.92 444.53l.54-4.69" class="C"/><use href="#C" x="-76.46" y="78.04" class="B"/><path d="M916.64 444.01l.54-4.69m-12.71 8.98l.23-1.93m46.05 10.51l.54-4.69m168.52 9.99l-.54 4.69" class="C"/><path d="M754.54 432.16l-2.65 4.91" class="B"/><path d="M754.54 432.16l.54-4.69" class="C"/><path d="M796.92 439.89l-37.14-8.93" class="B"/><path d="M759.78 430.96l.54-4.69m36.6 13.62l.54-4.69" class="C"/><path d="M592.24 413.41l-.61 4.76" class="B"/><path d="M750.98 435.86l.12-1.01" class="C"/><path d="M1114.86 485.16l.54-4.69m-157.06-18.05l-5.08 4.91" class="B"/><path d="M958.34 462.42l.54-4.69" class="C"/><use href="#C" x="-29.03" y="95.93" class="B"/><path d="M964.07 461.9l.54-4.69m-12.71 8.98l.22-1.93m46.06 10.51l.54-4.7m5.31 120.97l-.17.76m-5.87-1.72l.03.36m11.97 2.85l-.03.14" class="C"/><path d="M1003.86 592.65l-.06-.6" class="B"/><path d="M1010.14 593.37v-.02m-.69.22l.01-.32m-279.77-45.78l-.04-2.44" class="C"/><path d="M766.32 549.94l-36.67-4.91" class="B"/><path d="M766.32 549.94l.04 2.44m59.09 7.92l-.43-29.36" class="C"/><path d="M1030.82 601.21l.03-.26" class="B"/><path d="M1030.84 601.05l-.02.13" class="C"/><path d="M1033.19 641.81l-.56.39M473.94 302.03l6.79-4.43" class="B"/><path d="M480.73 297.6l-.68-5.01" class="C"/><path d="M299.02 327.53l4.3-4.16" class="B"/><path d="M303.32 323.37l-.68-5m168.53-17.12l-.36-2.63" class="C"/><path d="M553.01 283.07l26.84 7.52" class="B"/><path d="M553.01 283.07l-.68-5.01" class="C"/><path d="M637.32 283.33l6.79-4.43" class="B"/><path d="M644.11 278.9l-.68-5.01" class="C"/><path d="M362.93 316.45l-8.43 8.15" class="B"/><path d="M362.93 316.45l-.68-5.01m-66.1 15.47l-.27-2.01" class="C"/><path d="M309.04 321.96l33.62 4.66" class="B"/><path d="M309.04 321.96l-.69-5" class="C"/><path d="M349.45 325.37l1.24.17" class="B"/><path d="M582.17 289.08l-.38-2.76m-233.02 34.04l.68 5.01m-4.08-4.39l.68 5.01m-3.39.63l-.68-5.01m11.84-2.02l.68 5.01m-3.81.94l-.68-5.01m284.54-37.98l-.36-2.63" class="C"/><path d="M486.68 296.73l26.84 7.52" class="B"/><path d="M486.68 296.73l-.68-5.01" class="C"/><path d="M416.83 318.27l6.79-4.43" class="B"/><path d="M423.62 313.84l-.68-5.01" class="C"/><path d="M358.06 251.85l-14.07-1.95m208.27 7.05l9.24-6.03m5.95-.87l29.46 8.26m.5 2.68l-5.81 3.79m-5.94.87l-12.06-3.38m-8.64.78l-12.2-3.42m-176.73 20.46l6.76-6.53m5.71-1.41l33.99 4.7m1.73 2.44l-4.25 4.11m-5.71 1.41l-13.91-1.93m-8.52 1.6l-14.07-1.95m23.57-26.89l6.77-6.53m5.71-1.41l33.99 4.7m1.73 2.44l-4.26 4.11m147.96 9.48l9.24-6.02m5.94-.87l29.47 8.25m.5 2.68l-5.81 3.79m-5.95.87l-12.05-3.37m-8.64.77l-12.2-3.42m-15.62 25.33l9.24-6.02m5.94-.87l29.47 8.25m.5 2.68l-5.81 3.79m-5.95.87l-12.05-3.37m-8.64.77l-12.2-3.42m-82.44-25.64l9.24-6.03m5.95-.87l29.46 8.26m.51 2.68l-5.81 3.79m-5.95.87l-12.05-3.38m-271.65-44.15l.68 5.01m16.14-1.01l4.31-4.16" class="B"/><path d="M267 234.49l-.68-5.01" class="C"/><path d="M370.7 225.65l4.31-4.16" class="B"/><path d="M375.01 221.49l-.68-5.01m-114.5 21.54l-.28-2.01" class="C"/><path d="M272.71 233.08l32.58 4.51" class="B"/><path d="M272.71 233.08l-.68-5.01m95.81-3.05l-.28-2.01" class="C"/><path d="M380.72 220.08l32.58 4.51" class="B"/><path d="M380.72 220.08l-.68-5.01m-73.53 21.34l-.49-3.64m108.5-9.36l-.49-3.64m-165.44 17.05l.68 5.01" class="C"/><path d="M417.96 232.19l4.31-4.16" class="B"/><path d="M422.27 228.03l-.68-5.01m-6.49 8.54l-.28-2.01" class="C"/><path d="M427.98 226.62l32.58 4.51" class="B"/><path d="M427.98 226.62l-.68-5.01" class="C"/><path d="M225.57 261.46l4.31-4.16" class="B"/><path d="M229.88 257.3l-.69-5.01m232.59-22.34l-.49-3.63m-238.58 34.51l-.28-2" class="C"/><path d="M235.59 255.89l32.58 4.51" class="B"/><path d="M235.59 255.89l-.68-5.01" class="C"/><path d="M345.4 250.1l4.3-4.16m599.68 325.59l-.42.41m1.2-.38l-.21-.08" class="B"/><path d="M968.39 578.43l.15-.77m-13.36-3.94l-.05-.76" class="C"/><path d="M955.96 573.75l-.21-.08m-.57.05l-.42.41" class="B"/><path d="M976.35 580.61l-.15.77m.53.2l.15-.77" class="C"/><path d="M959.3 575.84l-.18-.79m-.22-.2l-.22-.08" class="B"/><path d="M967.61 578.41l-.05-.76m13.75 4.83l-.16.77" class="C"/><path d="M975.09 581.79l.74-.3m0 0l-.13.53m.13-.53l.11.51m-7.55-3.57l-.21-.08m-.57.06l-.42.4" class="B"/><path d="M984.76 583.91l-.19.75m-8.84-3.29l-.02-.77" class="C"/><path d="M980.78 583.94l.65-.62" class="B"/><path d="M645.28 303.81l-.68-5.01m-46.83 26.91l-.38-2.77m-101.4 17.52l-.35-2.64" class="C"/><path d="M428.34 353.74l6.79-4.43" class="B"/><path d="M435.13 349.31l-.68-5.01m-8.88 8.67l-.36-2.64m195.36-28.31l.54 4.01" class="C"/><path d="M511.5 335.93l26.84 7.53" class="B"/><path d="M511.5 335.93l-.68-5.01m29.84 11.03l-.38-2.77" class="C"/><path d="M441.08 348.44l26.84 7.52" class="B"/><path d="M441.08 348.44l-.68-5.01m29.84 11.02l-.38-2.76" class="C"/><path d="M644.33 332.51l-.29-2.14m-3.26 9.23l.19-.19" class="B"/><path d="M643.96 332.87l-.24-1.78" class="C"/><path d="M636.97 340.54l-29.3-4.05" class="B"/><path d="M606.98 331.48l.69 5.01m29.3 4.05l-.69-5.01m3.81-.94l.69 5.01" class="C"/><path d="M539.73 352.72l6.79-4.43" class="B"/><path d="M546.52 348.29l-.68-5.01m44-7.57l.68 5.01m-53.56 11.22l-.36-2.63" class="C"/><path d="M552.47 347.42l26.84 7.52" class="B"/><path d="M552.47 347.42l-.68-5.01" class="C"/><g class="B"><path d="M482.37 366.47l-1.25 1.11m558.95 180.8l-8.24-3.11m14.73 2.52l67.96-65.66"/><path d="M1107.06 474.5l4.32 1.63m12.76-12.32l-4.33-1.63m14.64.7l19.72-19.06m-3.13-6l-19.47-7.34m-3.83-7.34l7.61-7.36M954.3 344.43l178.65 67.39m-207.37-77.03l-155.2-37.3m-32.54-7.82l-37.18-8.94m-7.77 4.86l4.5-4.34m-3.34 6.56l18.59 7.01m3.49 6.67l-15.37 14.84m210.06 240.39l-.25-.1"/></g><path d="M927.17 562.22l-.23.7m4.77 1.48l.11-.59m-12.29-3.54l-.05-.75" class="C"/><path d="M846.8 531.8l.03-.26" class="B"/><path d="M931.07 564.48l.01-.79" class="C"/><path d="M927.41 563.75l-.01.05" class="B"/><path d="M936.46 565.56l-.15.77" class="C"/><path d="M928.74 564.22v.09" class="B"/><path d="M936.52 566.41l.15-.77m-183.25-8.29l-.03-2.44" class="C"/><path d="M734.7 552.79l.04 2.44m185.61 5.08l-.25-.09m-.57.05l-.42.41" class="B"/><path d="M941.18 567.34l-.15.77m.21.08l.15-.77m-94.57-35.78l-.01.13" class="C"/><path d="M756.14 552.24l-2.75 2.67" class="B"/><path d="M940.45 568.16l-.05-.75" class="C"/><path d="M931.07 564.48l-1.19.26m-2.82-1.06l-.12-.76m-347.7-166.6l-9.01-1.25" class="B"/><path d="M579.24 396.32l-.68-5.01m3.81-.94l.68 5.01m-13.5-5.32l.68 5.01" class="C"/><path d="M551.94 399.58l-5.27 5.1" class="B"/><path d="M551.94 399.58l-.68-5.01" class="C"/><path d="M364.43 359.32l170.64 47.63" class="B"/><path d="M546.05 399.61l.62 5.07m-11.6 2.27l-.61-5.07" class="C"/><path d="M505.29 363.86l-19.73-3.25m26.53 2.92l29.46 8.26m.5 2.68l-5.8 3.78m-5.95.88l-12.05-3.38m-8.65.77l-12.19-3.41m-19.2-6.01l16.63 2.74m-13.14-8.37l-4.48 3.96m471.56 94.2l4.25-4.11m-23.93-.64l13.96 5.26m-36.62-10.43l14.12 5.32M790.2 342.27l-3.98 7.38m46.36.35l-37.14-8.93m37.54 16.72l2.5-4.64m-22.94 2.19l15.2 3.65m-38.63-6.19l15.38 3.7m-117.76-7.89l-3.98 7.39m46.36.34l-37.14-8.93m37.53 16.73l2.51-4.65m-22.94 2.19l15.19 3.65m-38.62-6.18l15.38 3.69m76.18-54.91l-3.98 7.38m46.37.35l-37.15-8.93m-271.53-72.04l-4.25 4.11m-5.72 1.41l-13.9-1.93m-8.52 1.59l-14.07-1.94m-49.63-8.38l6.77-6.53m5.71-1.41l33.99 4.71m1.73 2.44l-4.25 4.1m-5.72 1.41l-13.9-1.92m-8.53 1.59l-14.07-1.95m-48.99-8.98l6.77-6.53m5.71-1.41l33.99 4.7m1.73 2.44l-4.25 4.11m-5.72 1.41l-13.9-1.92m-8.53 1.59l-14.07-1.95m-72.62-12.25l6.77-6.54m167.37 91.96l9.24-6.03m5.95-.87l29.46 8.26m.5 2.68l-5.8 3.79m-5.95.87l-12.05-3.38m-8.65.78l-12.19-3.42m81.43 20.28l9.23-6.02m5.95-.88l29.46 8.26m.51 2.68l-5.81 3.79m-5.95.87l-12.05-3.37m-8.64.77l-12.2-3.42m-57.61 13.56l9.23-6.02m5.95-.88l29.46 8.26m.51 2.68l-5.81 3.79m-5.95.87l-12.05-3.37m-8.64.77l-12.2-3.42m384.99 133.65l14.12 5.33m-140.17-52.01l-3.98 7.38m46.36.35l-37.14-8.93m37.54 16.72l2.5-4.64m-22.94 2.19l15.2 3.65M753.99 438l15.38 3.7M647.3 370.35l-3.98 7.38m46.36.35l-37.14-8.93m37.54 16.72l2.5-4.64m-22.94 2.19l15.2 3.65m-38.63-6.18l15.38 3.69m128.44-11.14l-3.98 7.38m46.36.35l-37.14-8.93m-153.86-36.61l-.54 4.7" class="B"/><path d="M980.39 374.96l.22-1.94m46.06 10.51l.54-4.69" class="C"/><path d="M841.31 359.37l-2.64 4.91" class="B"/><path d="M841.31 359.37l.54-4.69" class="C"/><path d="M883.7 367.1l-37.15-8.92" class="B"/><path d="M846.55 358.18l.54-4.7m36.61 13.62l.54-4.69m-46.48.66l.11-1.01" class="C"/><path d="M902.25 373.27l-5.08 4.91" class="B"/><path d="M902.25 373.27l.54-4.69" class="C"/><path d="M642.36 341.93l28.65 10.81" class="B"/><path d="M642.9 337.24l-.54 4.69" class="C"/><use href="#C" x="-85.13" y="6.78" class="B"/><path d="M907.97 372.75l.54-4.69m-12.71 8.98l.22-1.93" class="C"/><path d="M1058.69 393.17l-.54 4.69m.29-.2l.54-4.69" class="B"/><path d="M942.08 385.62l.54-4.69" class="C"/><path d="M686.19 353.3l-2.65 4.91" class="B"/><path d="M686.19 353.3l.54-4.69" class="C"/><path d="M728.57 361.03l-37.14-8.92m290 231.21l1.31.5" class="B"/><path d="M991.51 586.39l-.09.64m-1.46-.64l-.01.78m-12.77-6.03l-.23.69m12.19 4.84l.01.43m3.78-.25l-.16.77" class="C"/><path d="M975.94 582l-.02.11m.91.34l.12-.62m-.22-.25l-.53-.2m-.47-.01l-.85.34" class="B"/><path d="M980.58 583.3l-.05-.75" class="C"/><path d="M992.76 588.46l-.06-.6m-12.12-4.56l-.42.41m1.24-.37l-.25-.09m16.94 7.22l-.06-.6" class="B"/><path d="M994.65 588.81l.02.37m7.93 1.39l-.09.65m-2.28-.36l.02.42" class="C"/><path d="M865.52 539.6l1.38.52m12.32 5.4l-.03.1m-14.52-6.04l-.42.41m1.24-.37l-.24-.09" class="B"/><path d="M872.02 542.35l-.05-.75m14.54 5.12l-.15.77" class="C"/><path d="M882.47 546.83l-.05-.5" class="B"/><path d="M886.57 547.57l.15-.77m-4.33-.21l.01.16" class="C"/><path d="M872.02 542.35l-.42.41m1.24-.37l-.25-.09" class="B"/><path d="M889.77 548.25l-.07.71m7.19 1.68l-.15.77m-2.72-1.38l-.22.72m3.35.81l.15-.77" class="C"/><path d="M892.85 550.77l-.04-.37" class="B"/><path d="M892.8 550.63l.01.08m1.31.14v-.02M541.2 277.6l-.38-2.76m-367.84 46.22l.68 5.01m63.42-7.34l-.28-2.01m356.79-45.65l-.36-2.64" class="C"/><path d="M249.96 313.79l32.58 4.51" class="B"/><path d="M249.96 313.79l-.68-5.01" class="C"/><path d="M445.72 285.24l26.84 7.53" class="B"/><path d="M445.72 285.24l-.69-5.01" class="C"/><path d="M642.08 267.8l-.28-2.04" class="B"/><path d="M283.76 317.12l-.49-3.64" class="C"/><path d="M190.62 326.04l.68 5.01m172.16-20.1l6.52-6.3" class="B"/><path d="M369.98 304.65l-.68-5.01m105.57-8.38l-.37-2.77" class="C"/><path d="M609.1 266.54l26.84 7.53" class="B"/><path d="M609.1 266.54l-.69-5m-245.58 46.8l-.29-2.17" class="C"/><path d="M375.69 303.24l32.58 4.51" class="B"/><path d="M375.69 303.24l-.68-5.01M642 267.62l-.2-1.45" class="C"/><path d="M540.26 288.38l6.8-4.44" class="B"/><path d="M547.06 283.94l-.68-5.01m91.87-6.37l-.37-2.77" class="C"/><path d="M363.92 314.27l-.69-5.01" class="B"/><path d="M537.5 287.6l-.36-2.64m-127.65 21.61l-.49-3.63m282.43 49.17l.54-4.7m36.6 13.62l.54-4.69" class="C"/><path d="M1057.97 398.01l-5.08 4.91" class="B"/><path d="M1057.97 398.01l.54-4.69M682.63 357l.12-1" class="C"/><use href="#B" x="107.76" y="11.55" class="B"/><path d="M1063.7 397.5l.54-4.69m-12.71 8.98l.22-1.94m46.06 10.51l.54-4.69" class="C"/><path d="M737.84 365.72l-2.65 4.91" class="B"/><path d="M737.84 365.72l.54-4.69" class="C"/><path d="M949.67 391.16l-5.08 4.91" class="B"/><path d="M949.67 391.16l.54-4.69" class="C"/><path d="M780.22 373.45l-37.14-8.93" class="B"/><path d="M743.08 364.52l.54-4.69m36.6 13.62l.54-4.7" class="C"/><g class="B"><path d="M621.29 355.07l-.54 4.69m514.62 59.67l.54-4.69"/><use href="#C" x="-37.7" y="24.67"/></g><path d="M955.4 390.64l.54-4.69m-221.66-16.53l.12-1.01" class="C"/><path d="M671.54 348.05l-.53 4.69" class="B"/><path d="M943.23 394.93l.22-1.93m46.06 10.51l.54-4.7" class="C"/><path d="M467.37 332.44l-12.2-3.42m81.43 20.29l9.24-6.03m5.95-.87l29.46 8.26m.5 2.68l-5.81 3.78m-5.94.88l-12.05-3.38m-8.65.77l-12.2-3.41m-226.05-80.9l6.76-6.53m5.71-1.41l33.99 4.71m1.73 2.44l-4.25 4.1m-5.72 1.41l-13.9-1.92m-8.52 1.59l-14.08-1.95m29.49-26.07l6.76-6.53m5.71-1.41l33.99 4.7m1.73 2.44l-4.25 4.11m-5.71 1.41l-13.91-1.92m617.07 333.1l-2.34-.88m28.15 10.77l-2.61.52m3.29-.42l-.15-.06m.18.07l-.03-.01M662.3 384.72l.92-.88m24.92-24.09l6.99-6.75m-78.4 75.75l.85-.82m517.62 72.69l8.9 3.36" class="B"/><path d="M756.18 554.69l-.04-2.45" class="C"/><path d="M913.81 558.68l-.02-.26" class="B"/><path d="M920.26 559.45l-.16.77" class="C"/><path d="M904.06 554.17l-.25-.1m-.58.05l-.42.41" class="B"/><path d="M910 556.68l-.05-.76m13.76 4.96l-.19.75m3.2 1.08l.15-.77m-.26-.1l-.16.78" class="C"/><path d="M923 562.15l-.05-.58" class="B"/><path d="M915.14 558.63l-.16.49" class="C"/><path d="M910.2 557.32l.64-.62m0 0l1.39.52m7.5 3.69l.64-.62m0 0l1.32.5" class="B"/><path d="M931.62 563.74l-.14.7" class="C"/><path d="M910 556.68l-.42.4M568.81 380.14l18.63 2.58m-1.36-27.48l-20.73 20.02M616.14 355l-18.63-2.58m22.44 1.64l5.56-5.38m-29.31-5.52l28.16 3.89m11.92-11.52l-29.3-4.05m33.11 3.11l3.63-3.5m-19.69-4.19l18.53 2.57m2.04-30.67l-24.03 23.22m40.63-30.36l27.07-4.73m2.08-.89l5.41-5.23m-30.84-9.99l30.17 8.46m-182.36-51.12l126.39 35.43m287.75 298.35l-.26-.1m.8 1.91l-.24-1.53m.25 1.59l-.01-.06m1.33.47l-.15.03m2.49-.56l-2.34.53m3.08-.41l-.2-.07m-1.68 1.02l1.87-.38m-6.04-2.29l.2 1.18m16.68 4.99l-.97.93m6.22.69l-4.48-1.69m4.66 2.19l.06-.05m-4.6-1.3l3.77 1.42m-4.41-.8l.64-.62m11.59 3.93l-.97.94m1.96-.93l-.21-.08m-.53 1.47l.97-.94m11.21 4.23l-.97.94m1.95-.93l-.21-.08m-.52 1.47l.97-.94m11.75 4.44l-.97.93M385.99 454.24l-47.12-19.49" class="B"/><path d="M385.99 454.24l-.03-2.44" class="C"/><path d="M415.19 463.89l-29.23-12.09" class="B"/><path d="M415.19 463.89l.04 2.44" class="C"/><path d="M491.62 497.93l-76.39-31.6" class="B"/><path d="M338.44 405.38l.43 29.37" class="C"/><g class="B"><path d="M496.17 444.27l9.71 1.34m-366.37-72.49l48.45-46.8m40.63-39.26l3.79-3.66m21.51-20.79l3.79-3.66m19.14-18.49l3.83-3.7M143.03 378.01l190.5 26.37m4.91 1l152.45 42.56m4.31-3.87l-153.83-42.94"/><path d="M340.4 400.93l-187.24-25.92m7.97-15.93l-11.43 11.05m145.93-132.77l8.65 1.2m346.4 67.15l-5.71-1.6m5.71 1.6l5.98-5.78"/><path d="M653.35 299.01l3.31.92m-485.39 76.56l16.75-16.18m166.11 26.12l1.32-1.28"/></g><path d="M170.73 360.59l-.34-2.51m4.08 2.26l-.34-2.51" class="C"/><path d="M191.76 362.81l.34 2.51m161.53-10.9l-1.33 1.28" class="B"/><path d="M353.63 354.42l-.34-2.51" class="C"/><path d="M697.35 317.67l-.12-.81m-5.4 8.46l.4-.39" class="B"/><path d="M696.97 318.04l-.06-.46m-5.08 7.74l-.34-2.51" class="C"/><path d="M662.69 330.93l15.95-2.78m5.33-.93l5.79-1.01" class="B"/><path d="M689.76 326.21l-.34-2.5m-26.73 7.22l-.34-2.5" class="C"/><path d="M196.1 367.75l137.35 19.02" class="B"/><path d="M196.1 367.75l-.34-2.5m137.69 21.52l-.34-2.51m8.62 1.28l-.34-2.5" class="C"/><path d="M362.2 388.92l.34 2.51m259.51-30.13h.01m11.83-11.44l8.28-8" class="B"/><path d="M622.05 361.3v-.01" class="C"/><path d="M608.47 370.75l29.3 4.06M209.6 275.33l33.99 4.71m1.73 2.44l-4.25 4.1m-5.72 1.41l-13.9-1.92m-8.52 1.59l-14.07-1.94m37.94 31l6.77-6.53m5.71-1.41l33.99 4.7m1.73 2.44l-4.26 4.11m-5.71 1.41l-13.9-1.92m-8.53 1.59l-14.07-1.95m273.25-9.06l9.24-6.03m5.95-.87l29.46 8.26m.5 2.68l-5.81 3.79m-5.95.87l-12.05-3.38m-8.64.78l-12.2-3.42m-72.72-52.42l-13.9-1.93m-8.53 1.6l-14.07-1.95M298.22 287.6l33.98 4.71m1.73 2.44l-4.25 4.1m-5.71 1.41l-13.91-1.92m-8.52 1.59l-14.07-1.95m-1.73-2.44l6.76-6.53m341.69-9.09l9.24-6.03m5.95-.87l29.46 8.26m.5 2.68l-5.8 3.79m-5.95.87l-12.05-3.38m-8.65.78l-12.19-3.42m-56.14 108.71l-9.01-1.25m12.82.31l6.23-6.02m-225.28 8.33l-5.22-.72" class="B"/><path d="M531.16 508.85l-4.38 4.24m72.11 18.6l2.71-2.61" class="C"/><path d="M599.66 469.81l1.29-11.23m571.83 14.96l-9.56-3.6m-15.74-5.94l-7.1-2.68M701.4 331.72l1.64-1.58m432.06 136.33l-.04-.02m32.4 12.22l-2.49-.94M569 444.99l13.26 1.84m-35.5 7.32l5.1-4.93m-395.65-75.46l-1.52 1.46m772.03 187.49l-.27-.09" class="B"/><path d="M943.42 568.19l-.15.77m4.51 1.55l.12-.63m2.2.83l-.15.77m-14.21-5.09l-.05-.76m14.47 5.93l.15-.77m5.6 2.1l-.16.78" class="C"/><path d="M941.24 568.19l-.21-.08m-.58.05l-.42.41m-3.51-2.16l-.21-.08m-.57.06l-.42.4" class="B"/><path d="M955.96 573.75l.16-.78m-13.42-3.96l-.05-.75m16.25 6.59l.15-.77m-.22-.08l-.15.77m4.67.93l-.13.65" class="C"/><path d="M943.52 569.05l-.25-.09m-.57.05l-.42.41" class="B"/><path d="M949.38 571.53l-.05-.75m10.02 3.57l-.23.7m4.23 1.28l.11-.59" class="C"/><path d="M959.65 575.68l-.09.26" class="B"/><path d="M962.82 576.43l.02-.78" class="C"/><path d="M960.55 576.06v.25" class="B"/><path d="M968.33 577.58l-.15.77" class="C"/><path d="M692.57 286.21l-.54 4.69m1.48 1.61l18.59 7.01" class="B"/><path d="M694.05 287.81l-.54 4.7m18.59 7.01l.54-4.7" class="C"/><path d="M725.01 300.21l-2.64 4.9" class="B"/><path d="M725.01 300.21l.54-4.7" class="C"/><g class="B"><path d="M597.58 454.75l215.93 52.1m36.34 10.71l149.82 56.51m32.08 7.66l8.24 3.11m6.49-.59l67.96-65.66"/><path d="M1111.31 512.59l-4.33-1.63m12.76-12.32l4.32 1.63m10.31-.93l19.73-19.06m-3.14-6l-17.27-6.51"/></g><path d="M1049.94 435.18l.22-1.93m46.06 10.51l.53-4.7" class="C"/><path d="M750.06 399.87l-2.64 4.91" class="B"/><path d="M750.06 399.87l.54-4.69" class="C"/><path d="M792.45 407.6l-37.15-8.93" class="B"/><path d="M755.3 398.67l.54-4.69m36.61 13.62l.54-4.69" class="C"/><path d="M948.08 424.55l-5.08 4.91" class="B"/><path d="M948.08 424.55l.54-4.69m-202.11-16.29l.11-1.01" class="C"/><path d="M987.91 436.9l-34.1-12.86" class="B"/><path d="M953.81 424.04l.54-4.7m-12.71 8.99l.22-1.94m46.05 10.51l.54-4.69" class="C"/><path d="M801.71 412.28l-2.64 4.91" class="B"/><path d="M801.71 412.28l.54-4.69" class="C"/><path d="M844.1 420.01l-37.15-8.92" class="B"/><path d="M806.95 411.09l.54-4.7m36.61 13.62l.54-4.69" class="C"/><path d="M583.68 391.41l-.54 4.69" class="B"/><path d="M798.16 415.98l.11-1" class="C"/><path d="M584.63 397.71l7.74 2.91" class="B"/><path d="M585.17 393.01l-.54 4.7" class="C"/><g class="B"><path d="M863.49 426.64l-5.08 4.91m-7.21-98.14l15.19 3.66m-38.62-6.19l15.38 3.7m90.43 147.6l-6.76 6.53"/><use href="#B" x="-16.64" y="95.71"/><path d="M970.9 501.97l4.25-4.11m-23.93-.64l13.96 5.26m-36.62-10.44l14.12 5.33m81.41-15.05l-6.76 6.54"/><use href="#B" x="73.88" y="95.86"/><path d="M1061.42 502.11l4.25-4.1m-23.93-.64l13.95 5.26m-36.62-10.44l14.12 5.33m-121.73-57.68l-6.76 6.53"/><use href="#C" x="-75.92" y="73.35"/><path d="M832.81 388.96l2.5-4.64m-22.94 2.19l15.2 3.65m-38.63-6.18l15.38 3.69m-152.54 14.97l-3.98 7.38m46.36.35l-37.14-8.93m37.53 16.72l2.51-4.64m-22.94 2.19l15.19 3.65m-38.62-6.18l15.38 3.69m84.53-21.69l-3.98 7.38m46.37.35l-37.15-8.93m37.54 16.72l2.5-4.64m-22.93 2.19l15.19 3.65m-38.62-6.19l15.37 3.7m99.14 12.54l-6.76 6.53M975.71 580.6l-1.83.74m3-.53l-.53-.2m.58 1.88l.25-1.35m-19.19-6.89l.27 1.2m.79-1.37l-.22-.08m.82 1.68l-.3-1.33m.34 1.64l-.04-.31m.9.38l-.43.09m2.72-.5l-2.29.41m2.91-.32l-.11-.04m-1.85.97l1.94-.36m-14.11-5.53l-.97.93"/></g><path d="M986.19 504.24l.54-4.69m-12.71 8.98l.22-1.93m46.06 10.51l.54-4.7" class="C"/><path d="M597.11 422.99l215.94 52.09" class="B"/><path d="M597.72 418.23l-.61 4.76" class="C"/><path d="M1046.02 552.49l67.96-65.66" class="B"/><path d="M1113.98 486.83l.54-4.7m-85.59 66.01l.54-4.69m-21.42-5.59l-.54 4.69" class="C"/><path d="M1039.53 553.07l-8.24-3.1" class="B"/><path d="M1031.83 545.27l-.54 4.7" class="C"/><path d="M849.39 485.8l149.81 56.51" class="B"/><path d="M999.2 542.31l.54-4.7m-149.81-56.5l-.54 4.69m197.17 61.99l-.54 4.7m-6.49.58l.54-4.69" class="C"/><path d="M880.5 332.76l-3.98 7.38m46.37.35l-37.15-8.93m37.54 16.72l2.5-4.64m-22.93 2.19l15.19 3.65m-38.62-6.19l15.38 3.7" class="B"/><path d="M1029.12 582.25l.27-2.34" class="C"/><path d="M1031.48 584.08l8.24 3.11" class="B"/><path d="M1031.48 584.08l.27-2.35" class="C"/><path d="M849.58 519.91l149.82 56.51" class="B"/><path d="M849.58 519.91l.27-2.35m149.55 58.86l.27-2.35m40.05 13.12l.27-2.35m6.22 1.76l.27-2.35" class="C"/><path d="M697.31 317.7l-4.49 4.35m1.16 2.22l18.59 7.01m-10.17 23.9l26.81 6.45m-85.79 8.15l-1.76 1.7m5.04 3.68l21.54 8.13m-41.16 2.27l-5.54 5.35m9.59 29.09l-3.32 3.2m-15.21 4.67l-8.43-3.18m-13.98-3.49l-6.26 6.05m1.16 2.22l7.74 2.92m5.57 10.67l-5.42 5.24m103.26-132.24l-30.17-8.46m-407.42-48.52l-3.79 3.66m-66.16 63.92l-28.48 27.52m1.96 2.77l8.21 1.13m25.37 7.17l137.35 19.01m31.78 6.83l170.65 47.63m11.59-2.27l5.28-5.1m18.28-4.52l9.01 1.25m3.81-.94l6.23-6.02m-1.15-1.62l-18.63-2.58m-3.46-4.88l16.66-16.1m28.36-4.97l5.76.8m3.81-.94l5.57-5.38m140.74-77.51l-37.15-8.93" class="B"/><path d="M730.25 299.01l.54-4.69m36.61 13.62l.53-4.7m-46.48.67l.12-1.01" class="C"/><path d="M776.66 312.62l-2.64 4.91" class="B"/><path d="M776.66 312.62l.54-4.69" class="C"/><path d="M819.05 320.35l-37.15-8.93" class="B"/><path d="M781.9 311.42l.54-4.69m36.61 13.62l.54-4.69m-46.48.66l.11-1.01" class="C"/><path d="M828.31 325.04l-2.64 4.9" class="B"/><path d="M828.31 325.04l.54-4.7" class="C"/><path d="M870.7 332.77l-37.15-8.93" class="B"/><path d="M833.55 323.84l.54-4.7m36.61 13.63l.54-4.7m-46.48.66l.11-1" class="C"/><path d="M700.44 316.95l-.54 4.69m180.06 15.81l-2.64 4.91" class="B"/><path d="M879.96 337.45l.54-4.69" class="C"/><path d="M922.35 345.18l-37.15-8.93" class="B"/><path d="M885.2 336.25l.54-4.69m36.61 13.62l.54-4.69m-46.48.66l.11-1.01" class="C"/><path d="M728.74 329.86l-26.81-6.44" class="B"/><path d="M1127.74 423.14l-.49 4.26" class="C"/><path d="M646.76 375.04l-2.64 4.91" class="B"/><path d="M646.76 375.04l.54-4.69" class="C"/><path d="M689.14 382.77L652 373.84" class="B"/><path d="M652 373.84l.54-4.69m36.6 13.62l.54-4.69" class="C"/><path d="M900.65 406.67l-5.08 4.9" class="B"/><path d="M900.65 406.67l.54-4.7M643.2 378.74l.12-1.01" class="C"/><use href="#B" x="-49.56" y="20.2" class="B"/><path d="M906.38 406.15l.54-4.69m-12.71 8.98l.22-1.93m46.06 10.5l.54-4.69" class="C"/><path d="M698.41 387.46l-2.64 4.9" class="B"/><path d="M698.41 387.46l.54-4.7" class="C"/><path d="M740.8 395.19l-37.15-8.93" class="B"/><path d="M703.65 386.26l.54-4.69m36.61 13.62l.53-4.7" class="C"/><path d="M1154.51 446.85l.54-4.69m-98.67-10.75l-5.08 4.91" class="B"/><path d="M1056.38 431.41l.54-4.69m-362.06-35.57l.11-1" class="C"/><use href="#C" x="69.01" y="64.92" class="B"/><path d="M1062.11 430.89l.54-4.69m-580.28-59.73l-.67-5m-4.48 3.96l.19 1.43m104.22-13.43l-.38-2.76" class="C"/><path d="M505.98 368.86l-19.76-3.25" class="B"/><path d="M485.56 360.61l.66 5" class="C"/><path d="M626.13 350.09l-.29-2.13m-5.21 11.11l.23-.22" class="B"/><path d="M625.75 350.46l-.24-1.78" class="C"/><path d="M616.82 360.01l-18.63-2.58" class="B"/><path d="M597.51 352.42l.68 5.01m21.76-3.37l.68 5.01m-3.81.94l-.68-5.01" class="C"/><path d="M512.77 368.53l26.84 7.53" class="B"/><path d="M512.77 368.53l-.68-5m29.84 11.02l-.38-2.76" class="C"/><path d="M586.76 360.25l-20.06 19.38" class="B"/><path d="M586.76 360.25l-.68-5.01m-20.73 20.02l.55 4.01" class="C"/><path d="M589.21 385.76l-.29-2.14m-5.87 11.76l.2-.2" class="B"/><path d="M588.84 386.12l-.24-1.77" class="C"/><path d="M698.95 382.76l-3.98 7.39m46.36.34l-37.14-8.92m37.54 16.72l2.5-4.64m-22.94 2.19l15.2 3.65m-38.62-6.19l15.37 3.7m89.01 10.59l-3.98 7.39m46.37.34l-37.15-8.93m37.54 16.73l2.5-4.65m-22.93 2.19l15.19 3.65m-38.62-6.18l15.38 3.7m-78.17-60.8l-3.98 7.38m46.36.34l-37.14-8.92m37.53 16.72l2.51-4.64m-22.94 2.19l15.19 3.65m370.85 77.41l1.66.62m15.75 5.94l9.55 3.61m3.48 6.66l-134.5 129.95m-11.45 1.04l-199.63-75.3m-1.09-.33l-193.62-46.72m-10.82-4l9.74 3.67m-9.74-3.67l-3.99 3.85m11.04 4.16l-11.04-4.16m11.04 4.16l191.88 46.3m5.51 1.68l202.9 76.53m152.65-137.38l-141.14 136.37m104.47-155.55l33.13 12.5M299.81 215.83l4.31-4.16" class="B"/><path d="M304.12 211.67l-.68-5.01m-6.49 8.54l-.28-2" class="C"/><path d="M309.83 210.26l32.58 4.51" class="B"/><path d="M309.83 210.26l-.68-5.01m34.48 8.34l-.49-3.63m172.7 92.78l-.38-2.76" class="C"/><path d="M650.06 278.03l26.84 7.52" class="B"/><path d="M650.06 278.03l-.68-5.01m-235.32 44.47l-.36-2.63" class="C"/><path d="M696.38 282.22l-.29-2.14m-114.86 19.78l6.8-4.43" class="B"/><path d="M588.03 295.43l-.68-5.01m91.87-6.38l-.38-2.76" class="C"/><path d="M336.97 335.31l-.64-4.71m44.94-6.44l.68 5.01" class="B"/><path d="M578.47 299.08l-.36-2.64" class="C"/><path d="M383.44 330.07l.82.12" class="B"/><path d="M382.75 325.06l.69 5.01" class="C"/><path d="M429.57 312.97l26.84 7.52" class="B"/><path d="M429.57 312.97l-.68-5.01m-92.36 27.29l-.53-3.93m50.56-3.35l-.33-2.43" class="C"/><path d="M691.03 291.05l1.1-1.07" class="B"/><path d="M696 282.59l-.24-1.78" class="C"/><path d="M514.9 313.51l6.8-4.43" class="B"/><path d="M521.7 309.08l-.68-5.01m-187.18 29.34l.19 1.33m356.32-48.7l.68 5.01m-232.3 27.93l-.38-2.76m53.79-3.48l-.36-2.64" class="C"/><path d="M593.98 294.55l26.84 7.53" class="B"/><path d="M593.98 294.55l-.69-5m29.84 11.02l-.37-2.77" class="C"/><path d="M309.15 205.25l33.99 4.71m1.73 2.44l-4.25 4.11m-5.72 1.41l-13.9-1.93m-8.53 1.6l-14.07-1.95m-38.85 20.37l6.77-6.53m5.71-1.41l33.99 4.7m1.73 2.44l-4.26 4.11m-5.71 1.41l-13.9-1.92m-8.53 1.59l-14.07-1.95m-38.85 20.38l6.76-6.54m5.72-1.41l33.99 4.71m1.72 2.44l-4.25 4.11m-5.71 1.41l-13.9-1.93m-8.53 1.59l-14.07-1.94m-27.03 22l6.76-6.53" class="B"/><path d="M349.7 245.94l-.68-5.01m-79.63 18.29l-.49-3.63m73.63-6.12l-.27-2.01" class="C"/><path d="M355.42 244.53l32.57 4.51" class="B"/><path d="M355.42 244.53l-.69-5.01" class="C"/><path d="M465.85 238.12l4.31-4.16" class="B"/><path d="M470.16 233.96l-.68-5.01m-80.26 18.91l-.5-3.64m74.27-6.73l-.27-2" class="C"/><path d="M475.87 232.55l32.58 4.51" class="B"/><path d="M475.87 232.55l-.68-5.01m34.48 8.34l-.49-3.63" class="C"/><path d="M200.26 285.91l4.31-4.16" class="B"/><path d="M204.57 281.75l-.68-5.01" class="C"/><path d="M404.47 258.27l4.31-4.16" class="B"/><path d="M408.78 254.11l-.68-5m-210.7 36.17l-.27-2.01m204.48-25.63l-.28-2" class="C"/><path d="M210.28 280.34l32.58 4.51" class="B"/><path d="M210.28 280.34l-.68-5.01" class="C"/><path d="M414.49 252.7l32.58 4.51" class="B"/><path d="M414.49 252.7l-.68-5" class="C"/><path d="M314.18 273.73l4.31-4.16" class="B"/><path d="M318.49 269.57l-.68-5.01" class="C"/><path d="M514.42 248.88l6.79-4.43" class="B"/><path d="M521.21 244.45l-.68-5.01m-276.45 44.23l-.49-3.63m204.7-24.01l-.49-3.63" class="C"/><path d="M531.16 508.85l70.41 18.17m-73.47-40.37l.27 18.8" class="B"/><path d="M599.48 461.35l-.94 8.17" class="C"/><path d="M1101.18 533.49l-.31 2.74" class="B"/><path d="M1108.1 538.76l1.11-9.61m-514.98-62.72l-.25 1.91m519.2 65.51l.35-3.07" class="C"/><path d="M1121.16 517.6l4.33 1.63m-11.96 11.55l-4.32-1.63" class="B"/><path d="M865.4 538.76l-.15.77m3.46.55l-.17.76" class="C"/><path d="M505.88 445.61l120.21 31.02m-124.2-27.17l3.99-3.85m362.61 95.97l-.03-.25" class="B"/><path d="M872.74 541.53l-.15.77m4.51 1.55l.12-.63m-12.55-3.64l-.05-.75m5.19 2.78l-.14.42" class="C"/><g class="B"><path d="M864.87 540.22l.65-.62M737.46 340.39l15.38 3.7m206.04 113.64l-6.76 6.53"/><use href="#B" x="8.67" y="71.26"/><path d="M996.21 477.52l4.25-4.11m-23.93-.64l13.95 5.26m-36.62-10.44l14.12 5.33M981 500.07l-6.76 6.53"/><use href="#B" x="30.79" y="113.6"/><path d="M1018.33 519.85l4.25-4.1m-23.93-.64l13.95 5.26m-36.62-10.44l14.12 5.33m-103.95-50.97l-6.76 6.53"/><use href="#C" x="-101.22" y="97.8"/><path d="M923.48 484.08l4.25-4.11m-23.93-.64l13.95 5.26"/></g><path d="M702.47 318.72l-.54 4.7m26.81 6.44l.54-4.69" class="C"/><path d="M940.04 352.68l-5.08 4.91" class="B"/><path d="M940.04 352.68l.54-4.69" class="C"/><use href="#B" x="-10.17" y="-33.78" class="B"/><path d="M945.77 352.17l.54-4.7m-12.71 8.99l.22-1.94m46.06 10.51l.54-4.69" class="C"/><path d="M738.01 334.55l-2.65 4.9" class="B"/><path d="M738.01 334.55l.54-4.7" class="C"/><path d="M780.39 342.28l-37.14-8.93" class="B"/><path d="M743.25 333.35l.54-4.7m36.6 13.63l.54-4.7m-46.48.66l.12-1" class="C"/><path d="M789.66 346.96l-2.64 4.91" class="B"/><path d="M789.66 346.96l.54-4.69" class="C"/><path d="M832.04 354.69l-37.14-8.93" class="B"/><path d="M794.9 345.76l.54-4.69m36.6 13.62l.54-4.69" class="C"/><path d="M986.84 371.18l-5.09 4.91" class="B"/><path d="M986.84 371.18l.53-4.69M786.1 350.66l.12-1.01" class="C"/><use href="#B" x="36.62" y="-15.28" class="B"/><path d="M992.56 370.67l.54-4.7M885.78 547.54l-.05-.75" class="C"/><path d="M886.57 547.57l-.21-.08m-.58.05l-.42.41" class="B"/><path d="M901.67 552.44l-.15.77m.17.06l.15-.77m2.12.8l-.15.77m4.5 1.55l.13-.63m-12.27-3.53l-.05-.75m14.6 5.14l-.15.77m-9.62-3.36l-.06-.75m-3.29-1.45l-.23.7m16.66 5.42l-.17.76" class="C"/><path d="M901.69 553.27l-.17-.06m-.57.05l-.43.41m-3.01-1.14l-.14-.77m-.22-.2l-.41-.15m-.57.05l-.42.41" class="B"/><path d="M903.23 554.12l-.05-.75m-39.69-126.73l.54-4.69" class="C"/><use href="#B" x="-86.72" y="40.18" class="B"/><path d="M869.22 426.13l.54-4.7" class="C"/><path d="M1133.91 467.57l19.72-19.06" class="B"/><path d="M1153.63 448.51l.54-4.69m-297.12-13.4l.22-1.94m46.06 10.51l.54-4.69" class="C"/><path d="M1123.6 468.5l-4.33-1.63m-468.03-59.54l-2.65 4.91" class="B"/><path d="M651.24 407.33l.54-4.69" class="C"/><path d="M693.62 415.06l-37.14-8.93" class="B"/><path d="M656.48 406.13l.54-4.69m36.6 13.62l.54-4.69m440.29 52.51l-.54 4.69m-10.31.93l.54-4.69" class="C"/><path d="M1025.15 453.62l-5.08 4.91" class="B"/><path d="M1025.15 453.62l.54-4.69m-433.32-48.31l.54-4.69m54.77 15.1l.12-1.01" class="C"/><use href="#B" x="74.93" y="67.16" class="B"/><path d="M1030.87 453.11l.54-4.7m-12.71 8.99l.23-1.94m46.05 10.51l.54-4.69" class="C"/><path d="M910.92 444.53l-5.08 4.91m-216.89-157.5l-27.06 4.73" class="B"/><path d="M688.95 291.94l-.68-5.01" class="C"/><path d="M527.65 308.21l26.84 7.52" class="B"/><path d="M527.65 308.21l-.68-5.01m134.23-11.54l.69 5.01" class="C"/><path d="M457.79 329.75l6.8-4.43" class="B"/><path d="M464.59 325.32l-.68-5.01m92.89-6.09l-.37-2.76m-101.4 17.52l-.36-2.64" class="C"/><path d="M332.64 352.5l-137.35-19.02" class="B"/><path d="M194.61 328.47l.68 5.01m137.35 19.02l-.68-5.01" class="C"/><path d="M470.54 324.45l26.84 7.52" class="B"/><path d="M470.54 324.45l-.68-5.01" class="C"/><path d="M555.87 325l6.8-4.44" class="B"/><path d="M562.67 320.56l-.69-5m-62.29 14.9l-.37-2.76m53.78-3.48l-.35-2.64m-212.51 24.68l.68 5.01" class="C"/><path d="M361.1 352.06l.63 5.08m206.88-37.45l26.84 7.53" class="B"/><path d="M568.61 319.69l-.68-5.01" class="C"/><path d="M498.76 341.24l6.8-4.44" class="B"/><path d="M505.56 336.8l-.69-5" class="C"/><g class="B"><path d="M645.28 303.81l-23.37 22.58M484.35 223.83L323.5 201.56m-24.91 7.49l3.94-3.81m-25.56 5.66l9.05 1.25m-19.33 1.28l-19.94 19.26m-19.51 18.86l-68.17 65.86m1.96 2.76l8.21 1.14m162.72 26.18l-137.35-19.02m169.19 25.77l170.66 47.64m16.8-7.31l-5.21 5.04"/><path d="M462.72 235.49l6.76-6.54m5.71-1.41l33.99 4.71"/></g><path d="M1164.17 461.72l-.95 8.22m-28.32-1.72l.2-1.75m12.38-2.47l.94-8.22m16.55 21.95l-.21 1.85m-7.65-.03l.29-2.53" class="C"/><path d="M1187.47 496.49l-.4-26.89" class="B"/><path d="M1172.78 473.54l.94-8.21m-12.88 3.06l.95-8.21m-10.02-3.78l-.95 8.21m16.46 15.62l.18-1.56" class="C"/><path d="M333.95 433.12l-190.84-49.24m-21.9 11.97l17.37-16.78m40.11 27.28h0M1153 494.02l-8.66-2.23m22.94-11.56l-2.52-.65" class="B"/><path d="M1152.83 495.54l.17-1.52m-629.01 15.67l4.38-4.24m-2.56-19.33l-2.14 2.07M311.32 273.1l-.27-2.01" class="C"/><path d="M324.2 268.16l32.58 4.51" class="B"/><path d="M324.2 268.16l-.68-5.01m188.13-15.05l-.36-2.63M358 271.49l-.49-3.63" class="C"/><path d="M527.16 243.58L554 251.1" class="B"/><path d="M527.16 243.58l-.68-5.01" class="C"/><path d="M458.33 265.41l6.8-4.43" class="B"/><path d="M465.13 260.98l-.68-5.01m91.87-6.38l-.38-2.76m-100.37 17.8l-.36-2.64" class="C"/><path d="M379.17 282.72l4.3-4.16" class="B"/><path d="M383.47 278.56l-.68-5" class="C"/><path d="M471.08 260.1l26.84 7.53" class="B"/><path d="M471.08 260.1l-.68-5" class="C"/><path d="M293.65 293.65l-.68-5.01m-.29.21l.68 5.01m262.02-33.49l6.8-4.44" class="B"/><path d="M562.18 255.93l-.68-5.01m-185.2 31.17l-.27-2m124.2-13.97l-.37-2.77" class="C"/><path d="M389.18 277.15l32.58 4.51" class="B"/><path d="M389.18 277.15l-.68-5" class="C"/><path d="M288.88 298.18l4.3-4.16" class="B"/><path d="M293.18 294.02l-.68-5.01m260.12-29.42l-.36-2.64" class="C"/><g class="B"><use href="#C" x="-123.34" y="55.46"/><path d="M901.36 441.74l4.25-4.11m-23.93-.64l13.95 5.27m-36.62-10.44l14.12 5.32m75.49-17.28l-6.76 6.53m46.59 5.82l-34.1-12.87m31.59 20.31l4.26-4.11m-23.93-.64l13.95 5.27m-36.62-10.44l14.12 5.32m99.2-8.33l-6.76 6.53m46.59 5.81l-34.1-12.86m31.6 20.3l4.25-4.1m-23.93-.64l13.95 5.26m-36.62-10.44l14.12 5.33m-115.81-55.44l-6.76 6.53m-317.94-9.17l-28.17-3.9m10.79-11.68l29.3 4.06m3.81-.94l1.87-1.81m-12.92-5.19l-5.02-.7m6.61-14.6l9.09-8.79m21.48-11.85l27.07-4.72m2.07-.9l5.42-5.23"/></g><path d="M295.63 237.36l.42 3.13m-55.18 44.08l.13.95m-4.09.14l-.22-1.59" class="C"/><path d="M675.98 304.75l.05 3.16" class="B"/><path d="M156.21 373.76l.23 1.71" class="C"/><path d="M189.75 380.08l-.1-.74" class="B"/><path d="M651.99 308.19l-.28-2.06m-502.01 64l.55 4.01" class="C"/><path d="M138.52 375.08l.07 5.08" class="B"/><path d="M359.45 392.15l-.04-2.62" class="C"/><path d="M359.41 389.53l-1.33 1.28" class="B"/><path d="M659.3 334.66l-.4-2.91m-4.01-24.98l.19 1.4m-297 82.64l.02 1.15" class="C"/><path d="M729.28 325.17l-26.81-6.45m27.21 14.24l2.5-4.64m-22.94 2.19l15.2 3.65m-38.63-6.18l15.38 3.69m-21.64-4.4l-4.79 4.63m-25.59-.73l6.5 2.45m-13.94 1.4l3.63-3.5m-2.46 5.72l28.64 10.81M660.76 360l-29.79-11.24m-9.35 5.69l5.53-5.35m-4.37 7.58l18.59 7.01m3.48 6.67l-20.72 20.02m-11.46 1.03l-18.58-7.01m-434.43-28.99l.34 2.51m2.52 1.53l8.21 1.14" class="B"/><path d="M162.52 359.45l-.34-2.5" class="C"/><path d="M885.61 468.98l-5.08 4.91" class="B"/><path d="M885.61 468.98l.54-4.69" class="C"/><use href="#C" x="-101.76" y="102.49" class="B"/><path d="M891.34 468.46l.54-4.69" class="C"/><path d="M1023.55 487.02l-5.08 4.91" class="B"/><path d="M1023.55 487.02l.54-4.7m-144.92-9.57l.22-1.93m46.06 10.51l.54-4.69" class="C"/><use href="#B" x="73.34" y="100.55" class="B"/><path d="M1029.28 486.5l.54-4.69m-12.71 8.98l.22-1.93m46.06 10.5l.54-4.69" class="C"/><path d="M933.04 486.87l-5.08 4.91" class="B"/><path d="M933.04 486.87l.54-4.69" class="C"/><path d="M845.91 476.77l-.54 4.69m127.5 17.76l-34.1-12.87" class="B"/><path d="M938.77 486.35l.53-4.69m-12.71 8.98l.23-1.93m46.05 10.51l.54-4.7" class="C"/><path d="M980.46 504.76l-5.08 4.91" class="B"/><path d="M980.46 504.76l.54-4.69" class="C"/><g class="B"><use href="#C" x="-6.91" y="138.27"/><path d="M1032.63 642.2l-4.02-1.04m.44-.42l4.14 1.07"/><path d="M1033.19 641.81h.01m-63.13-28.29l.03 2.44m19.84-.29l-.03-2.44"/></g><path d="M830.53 532.62l.42 28.74m202.48 47.79l.07 4.47" class="C"/><path d="M1033.2 641.81l-.08-5m.08 5l24.77-19.09m0 0l128.51-124.16" class="B"/><path d="M1186.48 498.56l-.4-26.79m-141.09 139.94l-.05-3.57" class="C"/><path d="M1033.12 636.81l-6.31 6.09m-36.87-27.23h0m-260.25-68.2l-95.82-12.84m411.12 77.08l-18.37 17.76m6.88-15.85l-202.55-52.26m-5.5-1.06l-59.09-7.92m-12.94 4.97l2.76-2.66" class="B"/><path d="M1026.62 629.47l.19 13.43" class="C"/><g class="B"><path d="M1011.29 632.02c5.53 1.43 12.39.29 15.33-2.55m-153.88-87.94c-.28-.11-.63-.07-.77.07m5.49 2.07c.15-.14.04-.35-.24-.45m-.59.57c.28.11.63.07.77-.07m9.11 3c-.28-.11-.63-.07-.77.07m1.21.46c.15-.14.04-.35-.24-.45m10.18 3.84c-.28-.11-.63-.07-.77.07m1.48.35c-.02-.11-.13-.21-.3-.27m4.37 1.65c-.28-.11-.63-.07-.77.07m1.18.44c.15-.14.04-.35-.24-.45m8.88 3.35c-.28-.11-.63-.07-.77.07m4.08 1.26c-.38-.19-.78-.37-1.2-.52m2.09 1.25c-.18-.28-.49-.53-.89-.73m1.11 1.45c.02-.24-.06-.49-.22-.72m41.02-171.96c-2.06-.78-4.63-.55-5.73.52m41.58 15.68c1.1-1.06.32-2.56-1.74-3.33m-8.24 7.95c2.06.78 4.63.55 5.73-.52m-19.68-4.74c-1.14-.43-2.55-.41-3.42.06m-5.13.09c1.71.65 3.82.61 5.13-.09M943.45 393c-1.1 1.06-.32 2.56 1.74 3.33m47.91-30.36c-2.06-.78-4.63-.55-5.73.52m41.58 15.68c1.1-1.06.32-2.56-1.74-3.33"/><path d="M1018.97 386.79c2.06.78 4.63.55 5.73-.52m-19.68-4.74c-1.14-.43-2.55-.41-3.42.06m-5.12.09c1.71.65 3.82.61 5.13-.09m-21-8.57c-1.1 1.06-.32 2.56 1.74 3.33m-73.84-8.29c-2.06-.78-4.63-.55-5.73.52m41.58 15.68c1.1-1.06.32-2.56-1.74-3.33m-8.24 7.95c2.06.78 4.63.55 5.73-.52m-19.68-4.74c-1.14-.43-2.55-.41-3.42.06m-5.12.09c1.71.65 3.82.61 5.13-.09m-21-8.57c-1.1 1.06-.32 2.56 1.74 3.33m-63.79 8.36c-.54-.41-1.28-.74-2.1-.94m14.51 3.49c-2.25-.54-4.59 0-5.24 1.2m161.69 17.98c-2.06-.78-4.63-.55-5.73.52m121.38 6.3c-2.09-2.5-7.17-3.85-11.35-3.02-1.32.26-2.44.72-3.26 1.34m-218.25-14.46c-.54-.41-1.28-.74-2.1-.94m-239.08-27.52c-.78-.95-2.05-1.78-3.61-2.37m11.17 5.46c-2.25-.54-4.59 0-5.24 1.2m259.62 31.11c-2.06-.78-4.63-.55-5.73.52m136.88 14.99c-.19-.1-.39-.19-.6-.26M893.47 549.45c-.92-.68-2.29-1.12-3.71-1.19m4.26 1.77c-.12-.21-.31-.41-.55-.59m.69 1.23c.03-.21-.01-.42-.14-.63m.1.79c.01-.05.03-.11.03-.16m-.55.39c.27 0 .48-.09.52-.23m-1.32-.2s0 .1.04.14"/><path d="M892.8 550.63c.02-.11.01-.23-.01-.35m0 0c-.04-.18-.17-.36-.37-.51m0 0c-.3-.23-.69-.43-1.13-.57m0 0c-.44-.14-.92-.22-1.4-.23m-.01 0l-.48.02m0 0c-.29.04-.56.1-.79.19m-10.52-4.2c-.06.06-.11.11-.14.18m2.2-.67c-.85-.09-1.65.1-2.06.49m5.13.6c-.75-.58-1.87-.98-3.07-1.1m3.45 1.48c-.1-.13-.23-.26-.38-.38m.57.8c-.02-.14-.09-.28-.19-.42m.11.93c.08-.16.11-.33.09-.51m-.81.67c.3.07.62 0 .71-.16m-1.31-.3c-.04.1.02.21.15.3"/><path d="M882.39 546.59a.55.55 0 0 0 .01-.36m0 0c-.05-.18-.21-.35-.46-.48m.01 0c-.46-.25-1.02-.44-1.61-.55m0 0c-.42-.08-.83 0-1.03.19m0 0c-.07.07-.11.15-.1.24m-13.81-6.87c-.28-.11-.63-.07-.77.07m4.08 1.25c-.38-.19-.78-.37-1.2-.52m2.09 1.25c-.18-.28-.49-.53-.89-.73m1.1 1.53c.03-.27-.04-.54-.21-.81m.11 1.25c.05-.14.09-.28.1-.43M512.04 271.59c-1.78-.5-4.44-.11-5.95.87m-60.37 12.78c-1.78-.5-4.44-.11-5.95.87M159.2 323.65c.1.75 1.05 1.33 2.52 1.53m88.24-11.39c-2.06-.28-4.61.35-5.71 1.41m-74.33 11.12c1.15.16 2.5.07 3.74-.25m435.44-59.53c-1.78-.5-4.44-.11-5.95.87m-251.2 29.62c-3.27-1.18-8.61-.62-11.94 1.24a9.51 9.51 0 0 0-.78.49m36.46 4.48c-2.06-.28-4.61.35-5.71 1.41m141.31-59.18c-1.5.98-1.28 2.18.5 2.68m14.69-9.58c-1.78-.5-4.44-.11-5.95.87m35.92 10.07c1.5-.98 1.28-2.18-.5-2.68m-11.26 7.34c1.78.5 4.44.11 5.95-.87m-18-2.51c-.99-.28-2.41-.15-3.46.31m-5.19.47c1.48.41 3.62.22 5.19-.47m-73.97 10.89c-1.5.98-1.28 2.18.5 2.68m14.69-9.57c-1.78-.5-4.44-.11-5.95.87m35.91 10.06c1.5-.98 1.28-2.18-.5-2.68m-11.26 7.34c1.78.5 4.44.11 5.95-.87m-18-2.5c-.99-.28-2.41-.15-3.46.31m-5.18.46c1.48.41 3.62.22 5.19-.47m-43.25 19.51c-1.5.98-1.28 2.18.5 2.68m14.68-9.58c-1.78-.5-4.44-.11-5.95.87M475 291.17c1.5-.98 1.28-2.18-.5-2.68m-11.26 7.34c1.78.5 4.44.11 5.95-.87m-18-2.5c-.99-.28-2.41-.15-3.46.31m-5.18.46c1.48.41 3.62.22 5.19-.47m428.78 47.38c-.65 1.2.65 2.61 2.89 3.15m-148.62-48.97c-2.25-.54-4.59 0-5.24 1.2m45.28 10.88c.65-1.2-.65-2.61-2.89-3.15m-4.85 8.99c2.25.54 4.59 0 5.24-1.2m-20.44-2.45c-1.24-.3-2.57-.11-3.22.46m-4.83.7c1.86.45 3.85.16 4.83-.7m-23.1-6.15c-.65 1.2.65 2.61 2.89 3.15m122.63 47.43c-2.25-.54-4.59 0-5.24 1.2m45.28 10.88c.65-1.2-.65-2.61-2.89-3.15m-4.85 8.99c2.25.54 4.59 0 5.24-1.2m-20.43-2.45c-1.24-.3-2.57-.11-3.22.46m-4.84.7c1.86.45 3.85.16 4.83-.7m-23.1-6.15c-.65 1.2.65 2.61 2.89 3.15m-96.97-36.56c-2.25-.54-4.59 0-5.24 1.2m45.28 10.89c.65-1.2-.65-2.61-2.89-3.15m-4.85 8.99c2.25.54 4.59 0 5.24-1.2m-20.44-2.46c-1.24-.3-2.57-.11-3.22.46m-4.83.71c1.86.45 3.85.16 4.83-.7m-23.27 25.02c-.65 1.2.65 2.61 2.89 3.15m109.63 13.1c-2.25-.54-4.59 0-5.24 1.2m45.28 10.88c.65-1.2-.65-2.61-2.89-3.15m-4.85 8.99c2.25.54 4.59 0 5.24-1.2m-20.44-2.45c-1.24-.3-2.57-.11-3.22.46m-4.83.7c1.86.45 3.85.16 4.83-.7m-23.1-6.15c-.65 1.2.65 2.61 2.89 3.15m218.39-3.42c2.65-1.94 1.67-4.96-2.18-6.74s-9.12-1.66-11.77.28-1.67 4.96 2.18 6.74c3.7 1.71 8.74 1.67 11.49-.09m5.54-.35c-1.78-.67-3.98-.6-5.26.17m41.11 16.02c1.1-1.06.32-2.56-1.74-3.33m-8.24 7.96c2.06.78 4.63.55 5.73-.52m-19.68-4.74c-1.14-.43-2.55-.41-3.42.06m-5.13.08c1.71.65 3.82.61 5.13-.09m-20.99-8.57c-1.1 1.06-.32 2.56 1.74 3.33"/><path d="M1058.69 393.17l-.18.16"/></g></g><use href="#D" class="B"/><g class="E B"><path d="M834.09 319.14c-2.25-.54-4.59 0-5.24 1.2m45.28 10.89c.65-1.2-.65-2.61-2.89-3.15m78.86 242.63c-.28-.11-.63-.07-.77.07m1.22.46c.15-.14.04-.35-.24-.45m-13.85-5.23c-.28-.11-.63-.07-.77.07m1.22.46c.15-.14.04-.35-.24-.45m4.51 1.7c-.28-.11-.63-.07-.77.07m1.21.46c.15-.14.04-.35-.24-.45m-21.12-7.97c-.28-.11-.63-.07-.77.07m4.22 1.36a5.74 5.74 0 0 0-1.11-.55m1.71 1.34c-.03-.28-.25-.56-.6-.79"/><path d="M924.27 562c.04-.11.05-.22.04-.33m-.25.63a.78.78 0 0 0 .21-.31m-.42.48c.08-.05.16-.1.22-.16m-20.11-9.01c-.28-.11-.63-.07-.77.07m5.48 2.07c.15-.14.04-.35-.24-.45m-.59.58c.28.11.63.07.77-.07m-20.76-7.02c-.19.06-.36.13-.53.21m2.45-.44c-.69-.04-1.36.04-1.92.23M387.38 327.17c.73-.71.22-1.44-1.15-1.63m-15.01 14.51c1.37.19 3.08-.23 3.81-.94m-41.19-5.7c-.73.71-.22 1.44 1.15 1.63m1.01-3.72c.73-.71.22-1.44-1.15-1.63l-.3-.03"/><path d="M334.11 329.62l.44.05m-14.35-1.98c-1.14-.16-2.54.11-3.41.64m-5.11.96c1.71.24 3.81-.16 5.12-.96m-20.92-3.43c-1.1 1.06-.33 2.16 1.73 2.44m10.74-10.38c-2.06-.28-4.61.35-5.71 1.41"/></g><path d="M467.15,379.56c.29,2.11,4.29,3.3,8.95,2.67,4.65-.63,8.19-2.86,7.91-4.96-.29-2.11-4.29-3.3-8.95-2.67-4.65.63-8.19,2.86-7.91,4.96h0Z" class="B"/><path d="M692.22 325.01c-.07.61.51 1.24 1.49 1.61m6.38 29.13c-.08.73.76 1.47 2.03 1.77m27.38 6.61l-.57-.16m424.9 118.66c.51-.49.81-1.06.88-1.66m-571.37-50.76c-.07.61.51 1.24 1.49 1.61m538.96 70.8c3.71 1.4 8.33.98 10.31-.93m-534.43-60.43c-.43-2.56-3.1-5.01-7.11-6.52m526.91 66.24c-6.6-2.49-14.8-1.75-18.33 1.65-.57.55-1 1.16-1.27 1.8m-508.04-52.12c-.23 1.97 2.05 3.96 5.48 4.79m516.87 63.84c.51-.49.81-1.06.88-1.66M813.24 509.2c3 .72 6.22.4 8.14-.83m24.22 6.91c.35-4.14-5.43-8.14-12.9-8.92-4.4-.46-8.62.29-11.32 2.01m24.2 7.14c-.23 1.66 1.34 3.39 4.01 4.4m149.81 56.51c2.67 1.01 5.93 1.1 8.3.25m21.42 5.58c.35.73 1.21 1.39 2.36 1.82m-2.36-1.82c-2.03-4.18-9.51-7.11-16.71-6.55-1.71.13-3.32.46-4.71.96m-470.56-291.7c-1.5.98-1.28 2.18.5 2.68m14.69-9.58c-1.78-.5-4.44-.11-5.95.87M582.29 289c1.5-.98 1.28-2.18-.5-2.68m-11.25 7.34c1.78.5 4.44.11 5.95-.87m-18-2.51c-.99-.28-2.41-.15-3.46.31m-5.19.47c1.48.41 3.62.22 5.19-.47" class="E B"/><path d="M535.35,391.66c-.29-2.11-4.29-3.3-8.95-2.67-4.65.63-8.19,2.86-7.91,4.96.29,2.11,4.29,3.3,8.95,2.67,4.65-.63,8.19-2.86,7.91-4.96h0Z" class="B"/><path d="M341.98 321.61c1.13.16 2.52-.1 3.39-.63m3.4-.62c-1.13-.16-2.52.1-3.39.63m4.63-.46c1.37.19 3.08-.23 3.81-.94m8.43-8.15c1.26-1.22 1.33-2.52.19-3.51m.1-1.76c-.63.61-.67 1.26-.1 1.76m12.57-9.7c-2.06-.28-4.61.35-5.71 1.41m41.43 5.74c1.1-1.06.33-2.16-1.73-2.44m-8.24 7.95c2.06.28 4.61-.35 5.71-1.41m-8.63 1.01c-1.37-.19-3.08.23-3.81.94m-12.43 12.01c-.73.71-.22 1.44 1.15 1.63" class="E B"/><path d="M172.86,404.97c-.02-1.15-1.87-2.06-4.14-2.02-2.27.03-4.1.99-4.08,2.14s1.87,2.06,4.14,2.02c2.27-.03,4.1-.99,4.08-2.14h0Z" class="B"/><path d="M175.76,404.44c-.56-1.96-4.16-3.28-8.03-2.95-3.14.27-5.6,1.56-6.01,3.16" class="B E"/><path d="M161.65,404.16c.03,1.98,3.22,3.54,7.14,3.49,3.91-.06,7.06-1.71,7.03-3.69s-3.22-3.54-7.14-3.49c-3.91.06-7.06,1.71-7.03,3.69h0Z" class="B"/><use href="#E" class="B"/><path d="M697.14 316.61l1.35.53m-46.78-11.01c.9.37 2.01.59 3.18.63m4.69.79c-1.4-.46-3.02-.73-4.69-.78" class="E B"/><use href="#F" class="B"/><path d="M401.11 462.58c-.56-1.96-4.16-3.28-8.03-2.95-3.14.27-5.6 1.56-6.01 3.16m-1.75-2.85c-2.57 2.48-.73 5.5 4.11 6.75 4.47 1.15 10.01.4 12.85-1.75m12.91-1.05c-3.72-1.54-9.26-1.23-12.38.69-.19.12-.36.24-.53.36m-14.2-7.67c1.94-1.88 1.06-4.16-2.12-5.48" class="E B"/><path d="M387,462.3c.03,1.98,3.22,3.54,7.14,3.49,3.91-.06,7.06-1.71,7.03-3.69s-3.22-3.54-7.14-3.49c-3.91.06-7.06,1.71-7.03,3.69h0Z" class="B"/><g class="E B"><path d="M637.77 374.81c.89.12 1.98-.01 2.83-.35m-32.13-3.71c-6.17-.85-13.84 1.04-17.14 4.23-.66.64-1.12 1.31-1.34 1.97m-23.15 37.59c-.29.28-.52.57-.69.86m13.89 15.19c1.09.15 2.44-.09 3.32-.58m-12.33-.67c-6.58-.91-14.76 1.11-18.28 4.51m-16.87 7.37c3.21.9 8 .19 10.71-1.58.34-.22.64-.46.88-.7m275.01-120.13c.65-1.2-.65-2.61-2.89-3.15m-4.85 8.99c2.25.54 4.59 0 5.24-1.2M799.55 321c-1.24-.3-2.57-.11-3.22.46m-4.84.7c1.86.45 3.85.16 4.83-.7m-23.1-6.15c-.65 1.2.65 2.61 2.89 3.15m182.12 44.57c-1.14-.43-2.55-.41-3.42.06m-5.13.09c1.71.65 3.82.61 5.13-.09m-20.99-8.57c-1.1 1.06-.32 2.56 1.74 3.33m10.75-10.38c-2.06-.78-4.63-.55-5.73.52m41.58 15.68c1.1-1.06.32-2.56-1.74-3.33m-8.24 7.95c2.06.78 4.63.55 5.73-.52m-393.9 23.02c-.73.71-.21 1.7 1.16 2.22m13.31 13.59c3.52-3.4 1.03-8.18-5.57-10.67m.21 15.85c-1.98 1.91-.58 4.6 3.13 6a11.77 11.77 0 0 0 1.46.45m215.97 52.1c2.98.72 6.18.4 8.1-.81m24.14 7.19c.58-4.12-5-8.19-12.46-9.11-4.5-.55-8.88.17-11.67 1.92m24.13 7.19c-.23 1.66 1.34 3.39 4.01 4.4m149.81 56.5c2.67 1.01 5.93 1.1 8.3.25m21.43 5.59c-2.03-4.18-9.51-7.11-16.71-6.55-1.71.13-3.32.46-4.71.96m-4.68-134.02c-2.06-.78-4.63-.55-5.73.52m41.57 15.68c1.1-1.06.32-2.56-1.74-3.33m-8.23 7.95c2.06.78 4.63.55 5.73-.52"/><path d="M1015.29 419.4c-1.14-.43-2.55-.41-3.42.06m-5.13.09c1.71.65 3.82.61 5.13-.09m-20.99-8.57c-1.1 1.06-.32 2.56 1.74 3.33m38.79 34.19c-2.06-.78-4.63-.55-5.73.52m41.58 15.68c1.1-1.06.32-2.56-1.74-3.33m-8.24 7.95c2.06.78 4.63.55 5.73-.52m-19.68-4.74c-1.14-.43-2.55-.41-3.42.06m-5.12.09c1.71.65 3.82.61 5.13-.09m-20.99-8.57c-1.1 1.06-.32 2.56 1.74 3.33m-113.75-57.33c-2.06-.78-4.63-.55-5.73.52m41.58 15.67c1.1-1.06.32-2.56-1.74-3.33m-8.24 7.96c2.06.78 4.63.55 5.73-.52m-19.68-4.74c-1.14-.43-2.55-.41-3.42.06m-5.13.09c1.71.65 3.82.61 5.13-.09m-323.59 35.19c-5.09-1.5-10.81-.54-12.77 2.14s.57 6.07 5.66 7.57c4.66 1.37 9.92.7 12.27-1.57m0 0c.66-.64 1.05-1.38 1.14-2.15"/><path d="M598.13 458.26c.04-.32.02-.65-.04-.97m245.63 74.95c.16-.33.26-.67.3-1.02m0 0c.35-3.01-3.79-5.96-9.23-6.58-3.43-.39-6.72.23-8.7 1.64m201.64 75.37c.16-.33.26-.67.3-1.02m.01 0c.35-3.01-3.79-5.96-9.23-6.58-3.04-.35-6 .1-8.02 1.21m20.05 5.79c-.09.64.06 1.3.44 1.94m-.44-1.94c.54-3.86-4.69-7.68-11.68-8.54-3.18-.39-6.34-.11-8.84.8m-3.08.61c1.12-.08 2.17-.28 3.08-.61m-163.5-61.67c-.09.64.06 1.3.44 1.94m-.44-1.94c.54-3.86-4.69-7.68-11.68-8.54-4.17-.51-8.23.14-10.85 1.75m-230.06-58.42c-.54.52-.86 1.11-.96 1.73m6.21-6.81c1.03-.99 1.54-2.15 1.49-3.37m.32 50.23c-.02-1.48-1.27-3.01-2.79-3.4m.39 26.88c1.52.39 2.74-.49 2.72-1.98m-77.62-20.02c.02 1.48 1.27 3.01 2.79 3.4m-.39-26.88c-1.52-.39-2.74.49-2.71 1.98M413.7 314.86c-1.5.98-1.28 2.18.5 2.68m14.69-9.58c-1.78-.5-4.44-.11-5.95.87m35.92 10.07c1.5-.98 1.28-2.18-.5-2.68m-11.26 7.34c1.78.5 4.44.11 5.95-.87m-18-2.51c-.99-.28-2.41-.15-3.46.31m-5.19.47c1.48.41 3.62.22 5.19-.47m-6.38 29.84c-1.5.98-1.28 2.18.5 2.68m14.69-9.58c-1.78-.5-4.44-.11-5.95.87m35.91 10.07c1.5-.98 1.28-2.18-.5-2.68m-11.25 7.34c1.78.5 4.44.11 5.95-.87m-18-2.51c-.99-.28-2.41-.15-3.46.31m-5.19.47c1.48.41 3.62.22 5.19-.47m11.57-29.62c-1.5.98-1.28 2.18.5 2.68m14.69-9.58c-1.78-.5-4.44-.11-5.95.87m35.91 10.07c1.5-.98 1.28-2.18-.5-2.68m-11.26 7.34c1.78.5 4.44.11 5.95-.87m-18-2.51c-.99-.28-2.41-.15-3.46.31m478.8 125.17c-.19-.1-.39-.19-.6-.26m-151.73-16.05c-.54-.41-1.28-.74-2.1-.94m322.35 26.98c-6.6-2.49-14.8-1.75-18.33 1.65-.23.22-.43.45-.61.69m-136.26-7.31c-2.06-.78-4.63-.55-5.73.52m-366.71-44.25c-.25 1.98 2.03 3.99 5.48 4.82m43.27.26c-2.09-2.5-7.17-3.85-11.35-3.02-1.32.26-2.44.72-3.26 1.34m488.21 65.26c.51-.49.81-1.06.88-1.66m-107.21-18.7c-2.09-2.5-7.17-3.85-11.35-3.02-1.32.26-2.44.72-3.26 1.34m5.74 10.24c-.19-.1-.39-.19-.6-.26m-293.07-35.96c-2.09-2.5-7.17-3.85-11.35-3.02-1.32.26-2.44.72-3.26 1.34m200.84 31.33c-2.06-.78-4.63-.55-5.73.52m143.67 17.52c-2.06-.78-4.63-.55-5.73.52m-29.79 101.61c-.02-.09-.05-.18-.1-.27m.01 0c-.16-.29-.48-.55-.9-.74m0 0a2.03 2.03 0 0 0-.26-.11m-2.12-.4a3.11 3.11 0 0 0-.44.06m0 0l-.35.1m6.01 2.1l-.16.1m2.38.9l.16-.29"/><path d="M997.99 590.08c.15-.31-.11-.66-.63-.86m0 0a2.11 2.11 0 0 0-1.11-.09m-.01 0c-.24.05-.46.13-.63.24m3.43 1.37c-.01-.26-.15-.51-.4-.75"/><path d="M998.64 589.99c-.21-.19-.5-.37-.83-.5m-1.9-.26c-.26.03-.5.07-.73.14m9.68 3.44c-.02-.09-.05-.18-.1-.27m0 0c-.16-.29-.48-.55-.9-.74m0 0l-.27-.12m-2.14-.39a2.7 2.7 0 0 0-.41.06m0 0l-.35.1M650.06 278.03c-1.78-.5-4.44-.11-5.95.87m-214.54 34.07c-1.78-.5-4.44-.11-5.95.87m-74.17 11.53c-1.13-.16-2.52.1-3.39.63m-3.4.62c1.13.16 2.52-.1 3.39-.63m4.64-.45c1.37.19 3.08-.23 3.81-.94m239.48-30.05c-1.78-.5-4.44-.11-5.95.87m-221.45-45.16c-1.14-.16-2.54.11-3.41.64m-5.11.95c1.71.24 3.81-.16 5.12-.96m189.08 6.06c-1.5.98-1.28 2.18.5 2.68m14.69-9.58c-1.78-.5-4.44-.11-5.95.87m35.91 10.07c1.5-.98 1.28-2.18-.5-2.68m-11.25 7.34c1.78.5 4.44.11 5.95-.87m-18.01-2.51c-.99-.28-2.41-.15-3.46.31m-5.18.47c1.48.41 3.62.22 5.19-.47m-194.12 17.51c-1.1 1.06-.33 2.16 1.73 2.44m10.74-10.38c-2.06-.28-4.61.35-5.71 1.41m41.43 5.73c1.1-1.06.33-2.16-1.73-2.44m-8.23 7.96c2.06.28 4.61-.35 5.71-1.41m-19.62-.52c-1.14-.16-2.54.11-3.41.64m-5.11.96c1.71.24 3.81-.16 5.12-.96m4.38-27.88c-1.1 1.06-.33 2.16 1.73 2.44m10.75-10.38c-2.06-.28-4.61.35-5.71 1.41m41.43 5.73c1.1-1.06.33-2.16-1.73-2.44m-8.24 7.96c2.06.28 4.61-.35 5.71-1.41"/><path d="M593.23 268.43c-1.5.98-1.28 2.18.5 2.68m14.68-9.57c-1.78-.5-4.44-.11-5.95.87m35.92 10.06c1.5-.98 1.28-2.18-.5-2.68m-11.26 7.34c1.78.5 4.44.11 5.95-.87m-18-2.5c-.99-.28-2.41-.15-3.46.31m-5.18.46c1.48.41 3.62.22 5.19-.47m-33.01 22.38c-1.5.98-1.28 2.18.5 2.68m14.68-9.57c-1.78-.5-4.44-.11-5.95.87m35.92 10.06c1.5-.98 1.28-2.18-.5-2.68m-11.26 7.34c1.78.5 4.44.11 5.95-.87m-18-2.5c-.99-.28-2.41-.15-3.46.31m-5.18.46c1.48.41 3.62.22 5.19-.47m-99.83-28.59c-1.5.98-1.28 2.18.5 2.68m14.69-9.58c-1.78-.5-4.44-.11-5.95.87m35.92 10.07c1.5-.98 1.28-2.18-.5-2.68m-11.26 7.34c1.78.5 4.44.11 5.95-.87m-18-2.51c-.99-.28-2.41-.15-3.46.31m-5.19.47c1.48.41 3.62.22 5.19-.47m-267.51-39.45c.13.95 1.11 1.73 2.72 2.17m178.71-15.21c-2.06-.28-4.61.35-5.71 1.41m-169.7 15.33c-.82-.63-1.95-1.15-3.31-1.52m-13.67 14.05c-2.06-.28-4.61.35-5.71 1.41m125.54-12.77c-2.06-.28-4.61.35-5.71 1.41m126.16-13.39c-2.06-.28-4.61.35-5.71 1.41M950.2 571.57s-.03-.01-.04-.02m-.21-.07c-.21-.08-.46-.05-.57.05m6.62 2.23s-.03-.01-.04-.02m-.21-.07c-.21-.08-.46-.05-.57.05m3.94 1.33c-.02-.08-.1-.15-.22-.2m-.22-.08c-.2-.07-.44-.06-.56.04m10.31 3.64l-.04-.02m-.21-.08c-.21-.08-.46-.05-.57.05M552.47 347.42c-1.78-.5-4.44-.11-5.95.87m61.15-11.8c-6.17-.85-13.84 1.04-17.14 4.23m46.44-.18c1.37.19 3.08-.23 3.81-.94m-50.26 1.12c-.2.19-.38.39-.54.59m-103.76 24.3c-1.34-.22-3.06.17-3.86.87m547.11 176.97c.35.73 1.21 1.39 2.36 1.82m8.24 3.11c2.34.88 5.24.62 6.49-.59m67.96-65.66c1.98-1.91.58-4.6-3.14-6m8.43-13.95c-6.6-2.49-14.8-1.75-18.33 1.65s-1.03 8.18 5.57 10.67m17.09-10.69c3.71 1.4 8.33.98 10.31-.93m19.72-19.06c1.98-1.91.58-4.6-3.14-6"/><path d="M1127.74 423.14c-2.42 2.34-.71 5.62 3.83 7.33m3.78-14.69c1.09-1.05.56-2.51-1.25-3.46m0 .01c-.36-.19-.75-.36-1.15-.51M954.3 344.43c-1.92-.73-4.19-.99-6.24-.73m-17.43-5.88c2.57 4.12 10.34 6.76 17.37 5.89h.06m-17.43-5.89c-.83-1.34-2.71-2.47-5.05-3.03m-155.2-37.3c-2.3-.55-4.79-.49-6.7.16m-20.83-5.01c2.65 4.11 10.48 6.7 17.47 5.77 1.2-.16 2.33-.42 3.35-.77m-20.82-5c-.85-1.32-2.71-2.42-5.01-2.97m-37.18-8.94c-1.28-.31-2.64-.09-3.27.51m-4.5 4.35c-.73.71-.21 1.7 1.16 2.22m22.08 13.68c2.2-2.13.64-5.11-3.48-6.67m-11.89 21.51c-.73.71-.21 1.7 1.16 2.22a4.42 4.42 0 0 0 .55.17M914.7 558.63c-.17-.26-.46-.5-.84-.69m0 0l-.86-.39m-2.43-.93c-.21-.08-.46-.05-.57.05m10.1 3.55c-.21-.08-.46-.05-.57.05m4.54 2.03c-.05-.24-.25-.48-.55-.67m0 0a5.62 5.62 0 0 0-.95-.48M735.4 550.89c1.79-2.31-.41-4.87-4.92-5.73l-.83-.13m5.75 5.86c-2.02 2.6.47 5.5 5.56 6.47 4.7.9 10.05-.16 12.43-2.45m12.93-4.97c-3.99-.53-8.23.43-10.18 2.31"/></g><path d="M737.54 552.75c.03 1.98 3.23 3.54 7.14 3.49 3.91-.06 7.06-1.71 7.03-3.69s-3.22-3.54-7.14-3.49-7.06 1.71-7.03 3.69h0z" class="B"/><g class="E"><path d="M931.35 564.47a.66.66 0 0 0-.28 0M533.62 394.45c-3.27-1.18-8.61-.62-11.94 1.24a9.51 9.51 0 0 0-.78.49m58.34.14c1.37.19 3.08-.23 3.81-.94m-12.82-.31c-6.58-.91-14.76 1.11-18.28 4.51" class="B"/><path d="M364.43 359.32l-.63-5.08" class="C"/><g class="B"><path d="M535.07 406.95c3.21.9 8 .19 10.71-1.58.34-.22.64-.45.88-.7m-34.57-41.14c-1.2-.34-2.86-.28-4.31.15"/><path d="M542.05 374.47c1.5-.98 1.28-2.18-.5-2.68m-11.25 7.34c1.78.5 4.44.11 5.95-.87m-18-2.51c-.99-.28-2.41-.15-3.46.31m-5.19.46c1.48.41 3.62.22 5.19-.47m-18.7-4.86c-.5.8.02 1.55 1.31 1.91m-20.18-7.67c-.79.7-.35 1.45.99 1.67m7.35-6.49c-1.34-.22-3.06.17-3.86.87m461.36 98.66c2.06.78 4.63.55 5.73-.52m-19.69-4.74c-1.14-.43-2.55-.41-3.42.06m-5.12.09c1.71.65 3.82.61 5.13-.09m-20.99-8.57c-1.1 1.06-.32 2.56 1.74 3.33m-111-108.63c-2.25-.54-4.59 0-5.24 1.2m45.28 10.88c.65-1.2-.65-2.61-2.89-3.15m-4.85 8.99c2.25.54 4.59 0 5.24-1.2m-20.44-2.45c-1.24-.3-2.57-.11-3.22.46m-4.83.7c1.86.45 3.85.16 4.83-.7m-23.1-6.15c-.65 1.2.65 2.61 2.89 3.15m-97.14-5.39c-2.25-.54-4.59 0-5.24 1.2m45.28 10.88c.65-1.2-.65-2.61-2.89-3.15m-4.86 8.99c2.25.54 4.59 0 5.24-1.2m-20.43-2.45c-1.24-.3-2.57-.11-3.22.46m-4.83.7c1.86.45 3.85.16 4.83-.7m-23.1-6.14c-.65 1.2.65 2.61 2.89 3.15m96.8-52.42c-2.25-.54-4.59 0-5.24 1.2m-266.29-73.24c1.1-1.06.33-2.16-1.73-2.44m-8.24 7.96c2.06.28 4.61-.35 5.71-1.41m-19.61-.52c-1.14-.16-2.54.11-3.41.64m-5.11.95c1.71.24 3.81-.16 5.12-.96m-68.82-9.36c-1.1 1.06-.33 2.16 1.73 2.44m10.75-10.38c-2.06-.28-4.61.35-5.71 1.41m41.43 5.74c1.1-1.06.33-2.16-1.73-2.44m-8.24 7.95c2.06.28 4.61-.35 5.71-1.41m-19.61-.51c-1.14-.16-2.54.11-3.41.64m-5.12.95c1.71.24 3.81-.16 5.12-.96m-68.18-9.97c-1.1 1.06-.33 2.16 1.73 2.44m10.75-10.38c-2.06-.28-4.61.35-5.71 1.41m41.43 5.73c1.1-1.06.33-2.16-1.73-2.44m-8.24 7.96c2.06.28 4.61-.35 5.71-1.41m-19.61-.51c-1.14-.16-2.54.11-3.41.64m-5.12.95c1.71.24 3.81-.16 5.12-.96m-91.81-13.24c-1.1 1.06-.33 2.16 1.73 2.44m10.75-10.39c-2.06-.28-4.61.35-5.71 1.41M486 291.72c-1.78-.5-4.44-.11-5.95.87"/><path d="M515.96 302.66c1.5-.98 1.28-2.18-.5-2.68m-11.25 7.34c1.78.5 4.44.11 5.95-.87m-18-2.51c-.99-.28-2.41-.15-3.46.31m-5.19.47c1.48.41 3.62.22 5.19-.47m64.05 17.33c-1.5.98-1.28 2.18.5 2.68m14.68-9.58c-1.78-.5-4.44-.11-5.95.87m35.92 10.07c1.5-.98 1.28-2.18-.5-2.68m-11.26 7.34c1.78.5 4.44.11 5.95-.87m-18-2.5c-.99-.28-2.41-.15-3.46.31m-5.18.46c1.48.41 3.62.22 5.19-.47m-75 10.61c-1.5.98-1.28 2.18.5 2.68m14.68-9.58c-1.78-.5-4.44-.11-5.95.87m35.92 10.07c1.5-.98 1.28-2.18-.5-2.68m-11.26 7.34c1.78.5 4.44.11 5.95-.87m-18-2.5c-.99-.28-2.41-.15-3.46.31m-5.18.46c1.48.41 3.62.22 5.19-.47m381.72 136.03c1.71.65 3.82.61 5.13-.09m-20.99-8.57c-1.1 1.06-.32 2.56 1.74 3.33m-120.81-47.88c-2.25-.54-4.59 0-5.24 1.2m45.28 10.88c.65-1.2-.65-2.61-2.89-3.15m-4.85 8.99c2.25.54 4.59 0 5.24-1.2m-20.44-2.45c-1.24-.3-2.57-.11-3.22.46m-4.83.7c1.86.45 3.85.16 4.83-.7m-23.1-6.15c-.65 1.2.65 2.61 2.89 3.15"/></g></g><use href="#G" class="B"/><use href="#G" x="-302.54" y="-27.65" class="B"/><use href="#D" x="478.09" y="-7.91" class="B"/><use href="#D" x="426.71" y="65.63" class="B"/><g class="E B"><path d="M652.54 369.15c-2.25-.54-4.59 0-5.24 1.2m45.28 10.88c.65-1.2-.65-2.61-2.89-3.15m-4.85 8.99c2.25.54 4.59 0 5.24-1.2m-20.44-2.45c-1.24-.3-2.57-.11-3.22.46m-4.83.7c1.86.45 3.85.16 4.83-.7m-23.1-6.15c-.65 1.2.65 2.61 2.89 3.15m149.06-8.64c-2.25-.54-4.59 0-5.24 1.2m95.76-5.4c-.54-.41-1.28-.74-2.1-.94m143.58 16.69c-.19-.1-.39-.19-.6-.26m-118.7-10.78c-2.06-.78-4.63-.55-5.73.52m-210.81-21.16c-2.25-.54-4.59 0-5.24 1.2m371.96 44.55l-.18.16m5.73-.52c-1.78-.67-3.98-.6-5.26.17m-327.77-35.7c-.54-.41-1.28-.74-2.1-.94m330.47 31.9c-2.09-2.5-7.17-3.85-11.35-3.02-1.32.26-2.44.72-3.25 1.34m-101.76-5.37c-.19-.1-.39-.19-.6-.26m-199-21.1c-2.25-.54-4.59 0-5.24 1.2m245.88 219.33c.06-.03.1-.07.14-.11m.01 0c.1-.1.15-.23.13-.35m0 0c-.03-.17-.19-.33-.43-.44m0 0l-.83-.34m-5.79-1.98c.02-.09-.07-.19-.22-.25m-.53-.2c-.15-.06-.34-.06-.48 0m9.4 3.95c-.05-.24-.25-.48-.55-.67"/><path d="M984.57 584.66c-.28-.18-.61-.34-.95-.48m-2.47-.93c-.21-.08-.46-.05-.57.05m-111.01-41.31c-.03-.16-.09-.31-.19-.46m0 0c-.17-.26-.46-.5-.84-.69m0 0l-.86-.39m-2.43-.92c-.21-.08-.46-.05-.57.05m7.91 2.72c-.21-.08-.46-.05-.57.05m11.53 4.67c-.03-.11-.08-.22-.16-.33M190.97 328.65c-1.75-3.15-9.05-4.41-16.3-2.82-.34.07-.68.15-1.01.24m379.35-43c-1.78-.5-4.44-.11-5.95.87M191.3 331.05c.16 1.19 1.67 2.11 4 2.43m291.38-36.75c-1.78-.5-4.44-.11-5.95.87m-171.69 24.36c-2.06-.28-4.61.35-5.71 1.41m59.6-6.92c.74-.71 1.08-1.47.98-2.18m591.49 76.37c-2.06-.78-4.63-.55-5.73.52m-167.35-16.77c-.54-.41-1.28-.74-2.1-.94m318.19 37.18c-.19-.1-.39-.19-.6-.26m-303.08-33.44c-2.25-.54-4.59 0-5.24 1.2m-168.74-18.37c-.07.61.51 1.24 1.49 1.61m512.57 59.11c.32-.31.51-.67.56-1.05m-456.96-61.49c-1.07-2.17-3.8-4.09-7.4-5.2m319.1 51.03c-.19-.1-.39-.19-.6-.26m-522.14-71.07c1.48.41 3.62.22 5.19-.47m64.04 17.34c-1.5.98-1.28 2.18.5 2.68m14.69-9.58c-1.78-.5-4.44-.11-5.95.87m35.91 10.07c1.5-.98 1.28-2.18-.5-2.68M570 358.01c1.78.5 4.44.11 5.95-.87m-18-2.51c-.99-.28-2.41-.15-3.46.31m-5.19.46c1.48.41 3.62.22 5.19-.47m-243.44-83.84c-1.1 1.06-.33 2.16 1.73 2.44m10.74-10.38c-2.06-.28-4.61.35-5.71 1.41m41.43 5.74c1.1-1.06.33-2.16-1.73-2.44m-8.24 7.95c2.06.28 4.61-.35 5.71-1.41m-19.61-.51c-1.14-.16-2.54.11-3.41.64m-5.11.95c1.71.24 3.81-.16 5.12-.96m10.29-27.06c-1.1 1.06-.33 2.16 1.73 2.44m10.74-10.38c-2.06-.28-4.61.35-5.71 1.41m41.43 5.73c1.1-1.06.33-2.16-1.73-2.44m-8.23 7.96c2.06.28 4.61-.35 5.71-1.41m595.11 331.71c-.28-.11-.63-.07-.77.07m4.22 1.36a5.74 5.74 0 0 0-1.11-.55m1.71 1.33c-.04-.28-.25-.56-.6-.78m.56 1.12a.75.75 0 0 0 .04-.33m-.24.63a.78.78 0 0 0 .21-.31m-.43.47c.08-.05.16-.1.22-.16m9.53 3.48l-.37.22m1.98-.61c-.62.02-1.19.16-1.61.39m3.08-.18c-.46-.15-.97-.23-1.46-.21m2.58.83c-.28-.25-.66-.47-1.12-.62m1.48 1.76c.15-.37.02-.78-.36-1.14m.15 1.56a4.11 4.11 0 0 0 .21-.42m10.78 2.9a1.06 1.06 0 0 0-.53-.05m91.41-57.01c-.24 2.05 1.16 4.18 3.82 5.83m-101.18 50.45c.41-.24.39-.64-.05-.93m0 0c-.27-.18-.62-.31-1.01-.38m0 .01c-.38-.06-.77-.02-1.05.11m0-.01l-.17.09"/><path d="M1000.79 591.49c.17.01.34-.02.44-.08m-1-.55c-.19.1-.2.27-.04.41m.86-.7c-.31.07-.58.16-.82.29m2.37-.29c-.53-.11-1.08-.11-1.55 0m2.98.47c-.43-.2-.91-.36-1.43-.46m2.38 1.25c-.17-.3-.51-.58-.96-.79m.79 1.81c.31-.3.37-.67.17-1.03m-101.17-37.75c-.21-.08-.46-.05-.57.05m10.53 4.55a.79.79 0 0 0-.03-.43m.01-.01c-.08-.25-.33-.49-.7-.67"/><path d="M913.04 557.57l-.82-.35"/></g><path d="M748.75,553.56c-.02-1.15-1.87-2.06-4.14-2.02-2.27.03-4.1.99-4.08,2.14s1.87,2.06,4.14,2.02c2.27-.03,4.1-.99,4.08-2.14h0Z" class="B"/><g class="E B"><path d="M922.67 562.02c.06-.03.1-.07.14-.11m0 .01a.42.42 0 0 0 .13-.36m.01 0c-.03-.17-.19-.33-.43-.43"/><path d="M922.51 561.13l-.83-.34m-170.03-7.76c-.56-1.96-4.16-3.28-8.03-2.95-3.14.27-5.6 1.56-6.01 3.16m177.29 5.85c-.03-.16-.09-.31-.2-.46M588.6 384.35c.73-.71.22-1.44-1.15-1.63m-22.1-7.46c-2.2 2.13-.65 4.31 3.46 4.88m28.7-27.72c-4.11-.57-9.23.69-11.43 2.82m30.06-.24c1.37.19 3.08-.23 3.81-.94m5.56-5.38c.73-.71.22-1.44-1.15-1.63m-34.52-11.34c-3.3 3.19-.98 6.47 5.19 7.32l1.17.13m10.78-11.68c-6.17-.85-13.84 1.04-17.14 4.23m46.44-.18c1.37.19 3.08-.23 3.81-.94m3.63-3.5c.73-.71.22-1.44-1.15-1.63m-22-7.44c-2.2 2.13-.65 4.31 3.46 4.88m37.17-35.24c-7.07 1.23-13.23 3.89-16.61 7.14m43.68-11.87c.88-.15 1.65-.49 2.08-.89m5.41-5.23c.63-.61.35-1.24-.67-1.53m-30.17-8.46c-1.83-.51-4.27-.52-6.61-.02"/><path d="M646.57 270.76c3.25.91 7.6.93 11.74.04m-16.51-4.63c-.24 1.98 1.52 3.68 4.77 4.59m-4.77-4.59c.14-1.11-.86-2.07-2.68-2.58m-126.39-35.43c-2.01-.56-4.75-.51-7.25.13m-17.33-2.6c1.73 3.15 9.01 4.42 16.27 2.85l1.05-.25m409.56 330.85c.06-.17.1-.34.11-.51m12.03 3.59c-.02-.11-.13-.21-.3-.28m4.75 1.8a1 1 0 0 0-.54-.04m.73.68c.28-.06.39-.24.25-.41a.52.52 0 0 0-.24-.15m-5.21-1.98c-.28-.11-.63-.07-.77.07-.05.05-.08.11-.06.18m17.64 6.1c-.28-.11-.63-.07-.77.07m5.49 2.07c.15-.14.04-.35-.24-.45m-.59.57c.28.11.63.07.77-.07m7.83 2.51c-.28-.11-.63-.07-.77.07m1.21.46c.15-.14.04-.35-.24-.45m12.22 4.61c-.28-.11-.63-.07-.77.07m1.22.46c.15-.14.04-.35-.24-.45M139.51 373.12c-2.2 2.13-.63 4.32 3.51 4.89m195.42 27.37c-1.52-.42-3.16-.76-4.91-1m161.67 39.69a8.28 8.28 0 0 0 .97.2m-154.8-43.14a8.28 8.28 0 0 0-.97-.2m-190.7-30.8c-2.2 2.13-.65 4.31 3.46 4.88m83.53-90.94c-2.99.59-5.53 1.76-6.9 3.16m6.9-3.16l.21-.04m58.73-46.67c-3.24-.45-7.24.24-9.87 1.7M571.5 452.17c-3.33-1.62-9.52-1.32-13.82.68-.98.45-1.81.97-2.44 1.53m35.06-45.59c.16 1.19 1.14 2.24 2.8 3m-422.37-51.2c1.15.16 2.5.07 3.74-.25m17.31 2.58c-1.75-3.15-9.05-4.41-16.3-2.82-.34.07-.68.15-1.01.24m17.63 4.98c.16 1.19 1.67 2.11 4 2.43m493.66-41.54c.88-.15 1.65-.49 2.08-.89m-29.15 5.61c-2.91.51-5.71 1.27-8.24 2.23m-321 53.61c2.66.37 5.91-.11 8.28-1.22m21.37.93c-1.98-3.09-9.41-4.24-16.6-2.56-1.73.41-3.36.96-4.77 1.62m20.81 5.89c.13.94 1.1 1.72 2.69 2.17m256.82-32.3c-.29.28-.52.57-.69.86M209.6 275.33c-2.06-.28-4.61.35-5.71 1.41m41.43 5.74c1.1-1.06.33-2.16-1.73-2.44m-8.24 7.95c2.06.28 4.61-.35 5.71-1.41m-19.61-.51c-1.14-.16-2.54.11-3.41.64m-5.11.95c1.71.24 3.81-.16 5.12-.96m18.75 30.02c-1.1 1.06-.33 2.16 1.73 2.44m10.75-10.38c-2.06-.28-4.61.35-5.71 1.41m41.43 5.73c1.1-1.06.33-2.16-1.73-2.44m-8.24 7.96c2.06.28 4.61-.35 5.71-1.41m-19.61-.51c-1.14-.16-2.54.11-3.41.64m-5.12.95c1.71.24 3.81-.16 5.12-.96m254.06-10.05c-1.5.98-1.28 2.18.5 2.68m14.69-9.58c-1.78-.5-4.44-.11-5.95.87"/><path d="M556.93 314.14c1.5-.98 1.28-2.18-.5-2.68m-11.26 7.34c1.78.5 4.44.11 5.95-.87m-18-2.51c-.99-.28-2.41-.15-3.46.31m-5.18.47c1.48.41 3.62.22 5.19-.47m-58.86-17.11c-1.5.98-1.28 2.18.5 2.68m-45.65-42.87c-1.14-.16-2.54.11-3.41.64m-5.12.96c1.71.24 3.81-.16 5.12-.96"/></g><path d="M353.67,294.24c-.29-2.11-4.29-3.3-8.95-2.67-4.65.63-8.19,2.86-7.91,4.96.29,2.11,4.29,3.3,8.95,2.67,4.65-.63,8.19-2.86,7.91-4.96h0Z" class="B"/><g class="E B"><path d="M292.68 288.85l-.18.16"/><path d="M292.97 288.64c2.65-2.05 1.68-4.36-2.16-5.17-3.84-.8-9.1.21-11.74 2.26-2.65 2.05-1.68 4.36 2.16 5.17 3.68.77 8.71-.13 11.46-2.05m5.53-1.25c-1.77-.25-3.97.19-5.25 1.04m40.96 6.11c1.1-1.06.33-2.16-1.73-2.44m-8.23 7.95c2.06.28 4.61-.35 5.71-1.41m-19.62-.51c-1.14-.16-2.54.11-3.41.64m-5.11.95c1.71.24 3.81-.16 5.12-.96m-20.92-3.43c-1.1 1.06-.33 2.16 1.73 2.44m346.72-18.06c-1.5.98-1.28 2.18.5 2.68m14.69-9.58c-1.78-.5-4.44-.11-5.95.87m35.91 10.07c1.5-.98 1.28-2.18-.5-2.68m-11.25 7.34c1.78.5 4.44.11 5.95-.87m-18-2.51c-.99-.28-2.41-.15-3.46.31m-5.19.47c1.48.41 3.62.22 5.19-.47m-73.52 105.76c1.37.19 3.08-.23 3.81-.94m592.29 84.08c-.56-.35-1.2-.65-1.88-.91m-11.94-5.15c.52.62 1.36 1.16 2.38 1.55m-9.68 5.8c5.39-.04 9.08-2.56 8.24-5.64-.16-.58-.48-1.16-.95-1.72m-10.01-3.77c-5.41-.06-9.26 2.39-8.6 5.46.08.36.22.72.41 1.07m4.85-7.14c1.02.39 2.19.6 3.35.61m-11.47 5.29c-.55-1.37-2.11-2.62-4.26-3.44m19.67 10.85a19.96 19.96 0 0 0 2.63-.29m7.57.71c-2.35-.89-5.16-1.15-7.57-.71m11.95 2.57c-.56-.35-1.2-.65-1.88-.91M569 444.99c-6.17-.85-13.84 1.04-17.14 4.23m-7.29 6.37c.9-.43 1.64-.92 2.19-1.44M360.55 405.2c2.06-3.29-1.69-6.15-8.37-6.38-3.91-.13-8.16.67-11.41 2.16m-151.12-20.92c.44-3.26-4.86-5.45-11.84-4.9-3.04.24-6.04.98-8.46 2.09m-13.14-3.49c-.52.5-.84 1.02-.96 1.54"/></g><path d="M553.2 452.1c.33 2.46 5.01 3.85 10.44 3.12 5.43-.74 9.56-3.33 9.22-5.79s-5.01-3.86-10.44-3.12-9.56 3.33-9.22 5.79h0z" class="B"/><path d="M357.48 405.63c2.17-2.53-.11-4.95-5.1-5.41-3.05-.28-6.57.24-9.35 1.38m-156.19-21.88c-.33-2.46-5.01-3.86-10.44-3.12-1.49.2-2.95.56-4.25 1.04" class="E B"/><path d="M545.78 497.32c-1.07 1.03-.83 3.01.53 4.42s3.33 1.71 4.4.68.83-3.01-.53-4.42-3.33-1.71-4.4-.68h0zm42.48 14.79c1.07-1.03.83-3.01-.53-4.42s-3.33-1.71-4.4-.68-.83 3.01.53 4.42 3.33 1.71 4.39.68h0z" class="B"/><g class="E"><path d="M926.94 562.92c-.01-.08-.1-.16-.22-.21m-.27-.09c-.21-.08-.46-.05-.57.05m15.39 5.54l-.04-.02m-.2-.08c-.21-.08-.46-.05-.57.05m-3.9-1.73s-.03-.01-.04-.02m-.21-.08c-.21-.08-.46-.05-.57.05m7.53 2.58c-.21-.08-.46-.05-.57.05M692.03 290.9c-.07.61.51 1.24 1.49 1.61m36.73 6.5c-2.25-.54-4.59 0-5.24 1.2m44.48 8.66c-.54-.41-1.28-.74-2.1-.94m14.51 3.49c-2.25-.54-4.59 0-5.24 1.2m-60.94-10.73c-.78-.95-2.05-1.78-3.61-2.37M592.98 448.3c-1.98 1.91-.58 4.6 3.13 6a11.77 11.77 0 0 0 1.46.45m215.94 52.1c3 .72 6.22.4 8.14-.83m24.19 7.15c.58-4.12-5-8.19-12.46-9.11-4.53-.56-8.94.18-11.73 1.96m24.19 7.15c-.23 1.66 1.34 3.39 4.01 4.4m149.82 56.5c2.67 1.01 5.93 1.1 8.3.25m21.42 5.59c-2.03-4.18-9.51-7.11-16.71-6.55-1.71.13-3.32.46-4.71.96m21.42 5.59c.35.73 1.21 1.39 2.36 1.82m8.24 3.11c2.34.88 5.24.62 6.49-.59m67.96-65.66c1.98-1.91.58-4.6-3.14-6m8.44-13.95c-6.6-2.49-14.8-1.75-18.33 1.65-3.52 3.4-1.03 8.18 5.57 10.67m17.08-10.69c3.71 1.4 8.33.98 10.31-.93m19.73-19.06c1.98-1.91.58-4.6-3.14-6m-356.41-65.74c-.54-.41-1.28-.74-2.1-.94m14.5 3.49c-2.25-.54-4.59 0-5.24 1.2m295.11 31.73c-.19-.1-.39-.19-.6-.26" class="B"/><path d="M846.2 420.95c-.54-.41-1.28-.74-2.1-.94m144.41 17.16c-.19-.1-.39-.19-.6-.26m-118.69-10.78c-2.06-.78-4.63-.55-5.73.52M583.14 396.1c-.07.61.51 1.24 1.49 1.61m71.85 8.42c-2.25-.54-4.59 0-5.24 1.2m215.15-70.26c2.25.54 4.59 0 5.24-1.2m-20.43-2.46c-1.24-.3-2.57-.11-3.22.46m-4.83.71c1.86.45 3.85.16 4.83-.7m-23.11-6.15c-.65 1.2.65 2.61 2.89 3.15M939.3 481.66c-2.06-.78-4.63-.55-5.73.52m41.58 15.68c1.1-1.06.32-2.56-1.74-3.33m-8.23 7.95c2.06.78 4.63.55 5.73-.52m-19.69-4.74c-1.14-.43-2.55-.41-3.42.06m-5.12.09c1.71.65 3.82.61 5.13-.09m-20.99-8.57c-1.1 1.06-.32 2.56 1.74 3.33m101.26-10.23c-2.06-.78-4.63-.55-5.73.52m41.58 15.68c1.1-1.06.32-2.56-1.74-3.33m-8.24 7.95c2.06.78 4.63.55 5.73-.52m-19.68-4.74c-1.14-.43-2.55-.41-3.42.06m-5.13.09c1.71.65 3.82.61 5.13-.09m-20.99-8.57c-1.1 1.06-.32 2.56 1.74 3.33m-101.89-52.87c-2.06-.78-4.63-.55-5.73.52m41.58 15.68c1.1-1.06.32-2.56-1.74-3.33m-115.98-67.87c.65-1.2-.65-2.61-2.89-3.15m-4.85 8.99c2.25.54 4.59 0 5.24-1.2m-20.44-2.45c-1.24-.3-2.57-.11-3.22.46m-4.83.7c1.86.45 3.85.16 4.83-.7m-23.1-6.15c-.65 1.2.65 2.61 2.89 3.15m-131.92 17.47c-2.25-.54-4.59 0-5.24 1.2m45.28 10.88c.65-1.2-.65-2.61-2.89-3.15m-4.86 8.99c2.25.54 4.59 0 5.24-1.2m-20.43-2.45c-1.24-.3-2.57-.11-3.22.46m-4.83.7c1.86.45 3.85.16 4.83-.7m-23.1-6.15c-.65 1.2.65 2.61 2.89 3.15m105.15-19.19c-2.25-.54-4.59 0-5.24 1.2m45.28 10.88c.65-1.2-.65-2.61-2.89-3.15m-4.85 8.99c2.25.54 4.59 0 5.24-1.2m-20.43-2.45c-1.24-.3-2.57-.11-3.22.46m-4.84.7c1.86.45 3.85.16 4.83-.7m-23.1-6.15c-.65 1.2.65 2.61 2.89 3.15m120.25 15.72c-2.06-.78-4.63-.55-5.73.52m140.66 171.01l.12-.1m-12.41-4.54c.28-.16.38-.4.25-.64" class="B"/><path d="M992.65 587.68c-.09-.16-.26-.3-.49-.41m0 0c-.23-.11-.5-.2-.78-.24m-.01 0c-.29-.05-.59-.04-.83.03m0 0a1.46 1.46 0 0 0-.4.17m-.44.08a.79.79 0 0 0 .43-.08m-.99-.56c-.19.1-.2.27-.04.41m.86-.69c-.31.07-.58.16-.82.29m2.37-.29c-.53-.11-1.08-.11-1.55 0m2.97.46c-.43-.2-.91-.36-1.43-.46m2.39 1.25c-.17-.3-.51-.58-.96-.79m.79 1.82c.31-.3.37-.67.17-1.03m-.29 1.14l.12-.1m-17.37-8.07c-.21-.08-.47-.08-.64-.01m1.47.54c.02-.13-.09-.26-.3-.34m-18.05-6.8c-.28-.11-.63-.07-.77.07-.06.05-.08.12-.06.19m1.35.09c-.02-.1-.13-.2-.3-.27m4.3 1.62c-.16-.06-.35-.08-.51-.05m.6.66c.29-.05.41-.23.27-.4-.05-.07-.14-.12-.25-.17m57.44-58.37c-.19-.1-.39-.19-.6-.26" class="B"/><path d="M813.68 470.33l-.63 4.75" class="C"/><g class="B"><path d="M999.2 542.31c2.67 1.01 5.93 1.1 8.3.25m21.43 5.58c.35.73 1.21 1.39 2.36 1.82m-2.36-1.82c-2.03-4.18-9.51-7.11-16.71-6.55-1.71.13-3.32.46-4.71.96m32.02 10.52c2.34.88 5.24.62 6.49-.59M885.74 331.56c-2.25-.54-4.59 0-5.24 1.2m45.28 10.88c.65-1.2-.65-2.61-2.89-3.15m-4.85 8.99c2.25.54 4.59 0 5.24-1.2m-20.43-2.45c-1.24-.3-2.57-.11-3.22.46m-4.83.7c1.86.45 3.85.16 4.83-.7m140.09 240.9c2.34.88 5.24.62 6.49-.59m-345.8-269.45c-1.24-.25-2.5-.03-3.1.55m-4.49 4.35c-.73.71-.21 1.7 1.16 2.22m18.77 7.08l-.18-.07m-11.81 23.07c.37.37.95.67 1.64.83m28.19 6.94c-.41-.21-.88-.38-1.38-.5m-87.55 9.86c-.52.5-.42 1.18.25 1.72m-12.16 11.75c-1.11-.13-2.15.11-2.67.62m-5.54 5.34c-.29.28-.4.63-.29.98m-8.65 35.98c2.38.9 5.22 1.16 7.65.7m-27.72-8.01c-.99-.05-1.87.2-2.34.65m-6.26 6.04c-.73.71-.21 1.7 1.16 2.22m13.31 13.59c3.52-3.4 1.03-8.18-5.57-10.67m73.24-124.79c-1.83-.51-4.27-.52-6.61-.02m-15.74-2.26c2.31 2.71 9.08 3.68 15.74 2.26m-422.22-21.92c1.66.05 3.39-.06 5.11-.32m-5.11.32c-2.57-.07-5.36.53-7.33 1.58m-69.69 66.94c-1.25 1.2-.37 2.44 1.96 2.77m8.21 1.13c1.15.16 2.5.07 3.74-.25m17.64 4.49c.59-3.48-4.97-5.87-12.41-5.34-1.77.13-3.55.42-5.24.85m17.65 4.49c-.24 1.41 1.33 2.56 3.99 2.92m137.35 19.02c2.66.37 5.91-.11 8.28-1.22m21.18 4.54c2.33-3.51-1.53-6.6-8.62-6.91-4.29-.19-9.01.7-12.56 2.37m21.18 4.54c-.97 1.46-.05 2.85 2.33 3.51m170.64 47.63c3.21.9 8 .19 10.71-1.58.34-.22.64-.45.88-.7m23.56-9.61c-6.58-.91-14.76 1.11-18.28 4.51m27.29-3.26c1.37.19 3.08-.23 3.81-.94m6.23-6.02c.73-.71.22-1.44-1.15-1.63"/><path d="M566.5 412.04c-2.2 2.13-.65 4.31 3.46 4.88m47.32-25.15c1.37.19 3.08-.23 3.81-.94m5.57-5.38c.73-.71.22-1.44-1.15-1.63m195.64-62.53c-.54-.41-1.28-.74-2.1-.94m14.5 3.49c-2.25-.54-4.59 0-5.24 1.2m44.49 8.66c-.54-.41-1.28-.74-2.1-.94m14.5 3.49c-2.25-.54-4.59 0-5.24 1.2m44.49 8.67c-.54-.41-1.28-.74-2.1-.94M699.9 321.64c-.08.73.76 1.47 2.03 1.77m243.84 28.76c-2.06-.78-4.63-.55-5.73.52m-209.2-21.89c-.54-.41-1.28-.74-2.1-.94m-37.5 53.85c-.54-.41-1.28-.74-2.1-.94m14.51 3.49c-2.25-.54-4.59 0-5.24 1.2m363.7 43.43c-2.06-.78-4.63-.55-5.73.52m-313.49-35.29c-.54-.41-1.28-.74-2.1-.94m200.3 24.1c-.19-.1-.39-.19-.6-.26M755.3 398.67c-2.25-.54-4.59 0-5.24 1.2m403.57 48.64c.51-.49.81-1.06.88-1.66m-200.7-22.81c-2.06-.78-4.63-.55-5.73.52m-435.31-56.03c-1.19-.34-2.85-.28-4.3.15m89.72-11.25c-4.11-.57-9.23.69-11.43 2.82m30.06-.24c1.37.19 3.08-.23 3.81-.94m-138.35 20.98c-3.27-1.18-8.61-.62-11.94 1.24a9.51 9.51 0 0 0-.78.49m424.87 26.73c-1.1 1.06-.32 2.56 1.74 3.33m-191.98-30.27c-2.25-.54-4.59 0-5.24 1.2m45.28 10.88c.65-1.2-.65-2.61-2.89-3.15m-4.85 8.99c2.25.54 4.59 0 5.24-1.2m-20.44-2.45c-1.24-.3-2.57-.11-3.22.46m-4.83.7c1.86.45 3.85.16 4.83-.7m-23.1-6.15c-.65 1.2.65 2.61 2.89 3.15m109.63 13.09c-2.25-.54-4.59 0-5.24 1.2m45.28 10.88c.65-1.2-.65-2.61-2.89-3.15m-4.85 8.99c2.25.54 4.59 0 5.24-1.2m-20.43-2.45c-1.24-.3-2.57-.11-3.22.46m-4.83.71c1.86.45 3.85.16 4.83-.7m-23.11-6.15c-.65 1.2.65 2.61 2.89 3.15"/><path d="M743.62 359.83c-2.25-.54-4.59 0-5.24 1.2m45.28 10.88c.65-1.2-.65-2.61-2.89-3.15m-4.86 8.99c2.25.54 4.59 0 5.24-1.2m-20.43-2.45c-1.24-.3-2.57-.11-3.22.46m-4.83.7c1.86.45 3.85.16 4.83-.7m390.92 81.22c1.02.39 2.19.6 3.35.61m10.02 3.79c-1.88-2.22-5.89-3.73-10.02-3.78m10.02 3.78c.52.62 1.36 1.16 2.38 1.55m13.03 10.26c2.2-2.13.64-5.11-3.48-6.67m-142.47 137.66c4.12 1.56 9.25 1.09 11.45-1.03m-211.08-74.27a9.21 9.21 0 0 0-1.09-.33m-194.7-47.05a9.65 9.65 0 0 0 1.08.33m193.62 51.99c-1.75-.66-3.6-1.23-5.51-1.69m208.41 78.22c4.16 1.57 9.31 1.11 11.51-1.01M309.83 210.26c-2.06-.28-4.61.35-5.71 1.41m-31.41 21.41c-2.06-.28-4.61.35-5.71 1.41m113.72-14.41c-2.06-.28-4.61.35-5.71 1.41m152.64 86.72c-1.78-.5-4.44-.11-5.95.87m-139.75 20.09c.06.44.62.78 1.48.9m305.52-38.13c.88-.15 1.65-.49 2.08-.89m-220.49 33.4c-1.78-.5-4.44-.11-5.95.87M344.87 212.4c1.1-1.06.33-2.16-1.73-2.44m-8.24 7.96c2.06.28 4.61-.35 5.71-1.41m-19.61-.52c-1.14-.16-2.54.11-3.41.64m-5.12.96c1.71.24 3.81-.16 5.12-.96m-58.04 19.38c-1.1 1.06-.33 2.16 1.73 2.44m10.75-10.38c-2.06-.28-4.61.35-5.71 1.41m41.43 5.73c1.1-1.06.33-2.16-1.73-2.44m-8.24 7.96c2.06.28 4.61-.35 5.71-1.41m-19.61-.51c-1.14-.16-2.54.11-3.41.64m-5.12.95c1.71.24 3.81-.16 5.12-.96m-58.04 19.39c-1.1 1.06-.33 2.16 1.73 2.44m10.75-10.39c-2.06-.28-4.61.35-5.71 1.41m41.42 5.74c1.1-1.06.33-2.16-1.73-2.44m-8.23 7.96c2.06.28 4.61-.35 5.71-1.41m-19.61-.52c-1.14-.16-2.54.11-3.41.64m-5.12.95c1.71.24 3.81-.16 5.12-.96m-46.22 21.02c-1.1 1.06-.33 2.16 1.73 2.44m11.42-5.37c-2.06-.28-4.61.35-5.71 1.41m209.92-29.05c-2.06-.28-4.61.35-5.71 1.41m-84.58 14.05c-2.06-.28-4.61.35-5.71 1.41m208.67-25.99c-1.78-.5-4.44-.11-5.95.87m7.16 261c.02 1.48 1.27 3.01 2.79 3.4m65.74-48.35c-2.03-2.99-7.78-4.81-12.84-4.08-2.1.3-3.85 1.02-4.95 2.04m543.1 66.67c-2.36-1.76-6.08-2.76-9.67-2.61m12.95-3.29c.69.26 1.42.47 2.18.62"/><path d="M1121.16 517.6c-1.8-.68-3.81-1.12-5.85-1.3m-8.49 11.74c.73.41 1.53.79 2.38 1.11m6.21 2.54c-.56-.35-1.2-.65-1.88-.91m-5.33-4.07c2.66 1.7 6.6 2.52 10.17 2.13m6.35-6.14c-1.16-2.49-5.05-4.47-9.5-4.83m-246.77 23.7a.79.79 0 0 0-.03-.43m0 0c-.08-.25-.33-.49-.7-.67m0 0l-.82-.35M734.57 337.24c-.65 1.2.65 2.61 2.89 3.15m227.15 116.82c-2.06-.78-4.63-.55-5.73.52m41.58 15.68c1.1-1.06.32-2.56-1.74-3.33m-8.24 7.95c2.06.78 4.63.55 5.73-.52m-19.68-4.74c-1.14-.43-2.55-.41-3.42.06m-5.13.09c1.71.65 3.82.61 5.13-.09m-20.99-8.57c-1.1 1.06-.32 2.56 1.74 3.33m32.87 31.96c-2.06-.78-4.63-.55-5.73.52m41.58 15.68c1.1-1.06.32-2.56-1.74-3.33m-8.24 7.95c2.06.78 4.63.55 5.73-.52m-19.68-4.74c-1.14-.43-2.55-.41-3.42.06m-5.13.09c1.71.65 3.82.61 5.13-.09m-20.99-8.57c-1.1 1.06-.32 2.56 1.74 3.33m-84.1-46.16c-2.06-.78-4.63-.55-5.73.52m41.58 15.68c1.1-1.06.32-2.56-1.74-3.33m-8.24 7.95c2.06.78 4.63.55 5.73-.52m-19.68-4.74c-1.14-.43-2.55-.41-3.42.06M743.25 333.35c-2.25-.54-4.59 0-5.24 1.2m44.48 8.66c-.54-.41-1.28-.74-2.1-.94m200.09 23.02c-.19-.1-.39-.19-.6-.26M794.9 345.76c-2.25-.54-4.59 0-5.24 1.2m202.9 23.71c-2.06-.78-4.63-.55-5.73.52m-152.69-15.56c-.54-.41-1.28-.74-2.1-.94m14.51 3.49c-2.25-.54-4.59 0-5.24 1.2m-200.44-19.05c-.07.61.51 1.24 1.49 1.61m241.03 204.75c-.09-.13-.22-.25-.36-.36m-.01 0c-.34-.26-.76-.49-1.24-.67m-2.26-.4c-.31.02-.61.07-.86.16m7.94 2.17s-.03-.01-.04-.02m-.2-.08c-.21-.08-.46-.05-.57.05m8.12 3.48a.85.85 0 0 0-.11-.26m0-.01a1.94 1.94 0 0 0-.52-.56m0 0a5.55 5.55 0 0 0-1.16-.64m-3.06-.51c-.21.01-.42.04-.61.07m13.07 4.1c-.21-.08-.46-.05-.57.05m-3.58-1.5c-.01-.08-.1-.16-.22-.2m-.41-.15c-.21-.08-.46-.05-.57.05m5.56 1.83l-.04-.02m129.18-100.16c-2.06-.78-4.63-.55-5.73.52M695.72 416c-.54-.41-1.28-.74-2.1-.94m210.31 24.2c-.19-.1-.39-.19-.6-.26m13.31 5.01c-2.06-.78-4.63-.55-5.73.52m212.69 23.97c3.71 1.4 8.33.98 10.31-.93m-534.82-61.66c-.96-2.11-3.39-4.03-6.73-5.29m167.42 30.34c-2.25-.54-4.59 0-5.24 1.2m311.04 34.08c-.19-.1-.39-.19-.6-.26M661.89 296.67c-7.07 1.23-13.23 3.89-16.61 7.14m-76.67 15.88c-1.78-.5-4.44-.11-5.95.87M332.64 352.5c2.66.37 5.91-.11 8.28-1.22m20.34-.18c-3.44-2.67-11.59-2.98-18.21-.69-.75.26-1.46.55-2.13.86m170.58-15.34c-1.78-.5-4.44-.11-5.95.87m-143.82 20.34c.12.95 1.09 1.74 2.69 2.19m76.66-10.89c-1.78-.5-4.44-.11-5.95.87m53.02-123.62c-.5-.92-1.89-1.59-3.8-1.86M323.5 201.56c-2.11-.29-4.63-.05-6.79.64m-8.85 1.37c2.97 0 6.09-.47 8.85-1.36m-8.85 1.36c-2.12 0-4.31.68-5.33 1.67m-16.51 6.91c4.52.63 10.15-.76 12.57-3.1m-21.62 1.85c-3.7-.51-8.3.62-10.28 2.54m-19.94 19.25c-1.7 1.64-.94 3.37 1.83 4.13m-12.48 12.07c7.15.2 14.67-2.48 16.79-6 1.53-2.54-.16-4.93-4.3-6.07m-12.49 12.07c-3.46-.1-7.16 1.01-8.86 2.65m-68.17 65.87c-1.25 1.2-.37 2.44 1.96 2.77m8.21 1.13c1.15.16 2.5.07 3.74-.25m17.65 4.49c.59-3.48-4.97-5.87-12.41-5.34-1.77.13-3.55.42-5.24.85m17.65 4.49c-.24 1.41 1.33 2.56 3.99 2.92m137.34 19.02c2.66.37 5.91-.11 8.28-1.22m21.21 4.49c2.28-3.51-1.64-6.59-8.74-6.87-4.27-.17-8.94.72-12.47 2.37m21.21 4.5c-.94 1.45-.02 2.83 2.34 3.49m170.67 47.63c3.21.9 8 .19 10.71-1.58.34-.22.64-.45.88-.7m23.5-9.54c-6.58-.91-14.76 1.11-18.28 4.51m-88.55-159.08c-1.1 1.06-.33 2.16 1.73 2.44m10.74-10.39c-2.06-.28-4.61.35-5.71 1.41m717 269.61c.66-.64 1-1.35.99-2.06m-26.82-22.96c-2.03-2.99-7.78-4.81-12.84-4.08-1.96.28-3.62.93-4.73 1.85"/></g></g><path d="M414.14 470.62c-.01-.83-1.35-1.49-3-1.46-1.64.02-2.97.72-2.95 1.55s1.35 1.49 3 1.46c1.64-.02 2.97-.72 2.95-1.55h0zm-266.36-67.1c.01.83 1.35 1.49 3 1.46 1.64-.02 2.97-.72 2.95-1.55-.01-.83-1.35-1.49-3-1.46-1.64.02-2.97.72-2.95 1.55h0z" class="B"/><g class="E B"><path d="M388.78 456.37c-.49-.84-1.46-1.58-2.79-2.13m-47.12-19.49c-1.52-.63-3.17-1.17-4.92-1.62m-195.36-52.97c.02 1.58 1.76 3.01 4.52 3.73m-21.9 11.96c-2.93 2.84-.83 6.29 4.7 7.72m289.32 62.76c-3.72-1.54-9.26-1.23-12.38.69-.19.12-.36.24-.53.36m-18.12-2.59c.04 2.78 4.51 4.96 9.99 4.88 3.26-.05 6.3-.9 8.13-2.29m-243.47-60.74c.04 2.78 4.51 4.96 9.99 4.88 3.65-.05 6.98-1.12 8.69-2.77m0 .01c.77-.75 1.17-1.57 1.16-2.41m989.66 74.2l-1.06-.33m-2.53-.64a16.35 16.35 0 0 0-7.65-.02m-2.29.43c.79-.11 1.56-.25 2.29-.44m-3.04 14.8l-1.06-.33M471.08 260.1c-1.78-.5-4.44-.11-5.95.87m-75.95 16.18c-2.06-.28-4.61.35-5.71 1.41m184.66-23.5c-1.78-.5-4.44-.11-5.95.87m-268.82 37.93l-.18.16m5.72-1.41c-1.77-.25-3.97.19-5.25 1.04m-.64-4.71c-3.1-1.27-8.43-.84-11.92.96-.4.21-.77.43-1.09.66m625.61 147.07c1.1-1.06.32-2.56-1.74-3.33m-8.24 7.96c2.06.78 4.63.55 5.73-.52m-19.68-4.75c-1.14-.43-2.55-.41-3.42.06m-5.13.09c1.71.65 3.82.61 5.13-.09m-20.99-8.57c-1.1 1.06-.32 2.56 1.74 3.33m95.34-12.47c-2.06-.78-4.63-.55-5.73.52m41.58 15.68c1.1-1.06.32-2.56-1.74-3.33m-8.24 7.96c2.06.78 4.63.55 5.73-.52m-19.68-4.75c-1.14-.43-2.55-.41-3.42.06m-5.13.09c1.71.65 3.82.61 5.13-.09m-20.99-8.57c-1.1 1.06-.32 2.56 1.74 3.33m119.05-3.52c-2.06-.78-4.63-.55-5.73.52m41.58 15.68c1.1-1.06.32-2.56-1.74-3.33m-8.24 7.95c2.06.78 4.63.55 5.73-.52m-19.68-4.74c-1.14-.43-2.55-.41-3.42.06m-5.13.09c1.71.65 3.82.61 5.13-.09m-20.99-8.57c-1.1 1.06-.32 2.56 1.74 3.33m-443.77-68.33c-6.17-.85-13.84 1.04-17.14 4.23s-.98 6.47 5.19 7.32c.38.05.77.1 1.17.13m40.08-7.62c1.37.19 3.08-.23 3.81-.94m-20.44-11.2c-.5 1.67 1.24 3.07 4.37 3.5m37.18-35.24c-4.11.72-7.98 1.93-11.18 3.5m38.25-8.22c.88-.15 1.65-.49 2.08-.89m5.41-5.24c.63-.61.35-1.24-.67-1.53m-576.16 95.99c.03 2.11 2.34 4.02 6.02 4.97m606.08-88.69c.65-1.2-.65-2.61-2.89-3.15m-4.85 8.99c2.25.54 4.59 0 5.24-1.2m-20.44-2.45c-1.24-.3-2.57-.11-3.22.46m-4.83.7c1.86.45 3.85.16 4.83-.7m-22-3.72c.5.32 1.12.57 1.8.73m-1.8-.73c-1.11-.7-2.9-.83-3.99-.3a1.91 1.91 0 0 0-.48.32m-23.88 6.35c6.87 2.59 15.42 1.82 19.09-1.72m-25.59-.73c-1.37-.52-3.08-.36-3.82.34m-3.62 3.51c-.73.71-.21 1.7 1.16 2.22M660.76 360c6.19 2.33 13.88 1.64 17.18-1.55s.96-7.67-5.23-10c-.38-.14-.77-.28-1.17-.4m-40.57.71c-1.38-.52-3.08-.36-3.82.34"/><path d="M621.62 354.45c-.73.71-.21 1.7 1.16 2.22m22.07 13.69c2.2-2.13.64-5.11-3.48-6.67m-28.7 27.72c4.12 1.56 9.25 1.09 11.45-1.03m-30.03-5.98c-1.37-.52-3.08-.36-3.82.34M160 357.92c.1.75 1.05 1.33 2.52 1.53m904.57 129.44c-2.09-2.5-7.17-3.85-11.35-3.02-1.32.26-2.44.72-3.26 1.34m-126.43-5.62c-.19-.1-.39-.19-.6-.26m138.54 18.3c-.19-.1-.39-.19-.6-.26m-124.62-13.02c-2.06-.78-4.63-.55-5.73.52m-119.99-11.79c3 .72 6.22.4 8.14-.83m24.22 6.92c.35-4.14-5.43-8.14-12.9-8.92-4.4-.46-8.62.29-11.32 2.01m24.19 7.14c-.23 1.66 1.34 3.39 4.01 4.4m124.08 13.68c-.19-.1-.39-.19-.6-.26m13.32 5.02c-2.06-.78-4.63-.55-5.73.52"/></g><use href="#F" x="585.9" y="151.18" class="B"/><path d="M987.01,613.76c-.56-1.96-4.16-3.28-8.03-2.95-3.14.27-5.6,1.56-6.01,3.16" class="B E"/><use href="#E" x="811.25" y="209.32" class="B"/><path d="M972.9 613.48c.03 1.98 3.23 3.54 7.14 3.49 3.91-.06 7.06-1.71 7.03-3.69s-3.22-3.54-7.14-3.49c-3.91.06-7.06 1.71-7.03 3.69h0zm-245.78-62.1c-.01-.83-1.35-1.49-3-1.46-1.64.02-2.97.72-2.95 1.55s1.35 1.49 3 1.46c1.64-.02 2.97-.72 2.95-1.55h0z" class="B"/><path d="M970.1 615.96c.04 2.78 4.51 4.96 9.99 4.88 3.65-.05 6.98-1.12 8.69-2.77m.01.01c.77-.75 1.17-1.57 1.16-2.41m-255.21-60.44c.04 2.78 4.52 4.96 9.99 4.88 3.65-.05 6.98-1.12 8.69-2.77m-17.72-6.91c-.85-1.46-3.12-2.57-6.02-2.96m303.82 66.15c4.15 1.07 9.3.21 11.5-1.91m-214.05-50.35a46.17 46.17 0 0 0-5.5-1.06m-59.09-7.92c-3.99-.53-8.23.43-10.18 2.31" class="E B"/><path d="M1000.04,621.8c-.01-.83-1.35-1.49-3-1.46-1.64.02-2.97.72-2.95,1.55s1.35,1.49,3,1.46c1.64-.02,2.97-.72,2.95-1.55h0Z" class="B"/><g class="E"><path d="M1011.49,645.45c5.53,1.43,12.39.29,15.33-2.55" class="B"/><path d="M821.38 508.37l.27-2.35M360.55 405.2l.17 1.33" class="C"/><path d="M351.96 353.2a5.45 5.45 0 0 0-.47.51c-.14.17-.26.34-.37.52a3.23 3.23 0 0 0-.27.52c-.02.04-.03.09-.05.13s-.03.09-.04.13c-.03.09-.05.17-.07.26-.04.17-.05.34-.05.51s.02.34.06.5l.07.25c.01.04.03.08.04.12.02.04.03.08.05.12.07.16.16.31.27.46s.23.3.37.44l.22.21c.07.07.16.14.25.2l.57.38a6.75 6.75 0 0 0 .66.34c.23.11.48.2.74.3.07.02.13.05.2.07s.14.04.2.07l.42.12.89.21.95.16m.8-10.24l-.42.17-.89.4-.82.43-.19.11a1.86 1.86 0 0 1-.19.11l-.36.23-.66.48c-.21.16-.4.33-.57.5m20.3 10.14l.94.11m449.75 162.68a6.98 6.98 0 0 1-1.43.66m182.12 66.32l-.22.72" class="B"/><path d="M983.64 583.36l-.15.77" class="C"/><path d="M985.36 584.69l-.11.35c-.02.07-.04.13-.07.2m-1.18-.65c0 .06.01.13.02.19a.88.88 0 0 0 .02.17c0 .06.01.11.02.17 0 .06.01.11.02.17" class="B"/><path d="M983.87,584.94c0,.05,0,.11.01.16" class="C"/><path d="M505.29 363.86a5.35 5.35 0 0 0 .59.06h.16.16l.32-.01c.11 0 .21-.02.32-.03.05 0 .11-.01.16-.02l.16-.03.62-.15m-11.69 7.51c.05-.07.08-.15.1-.22s.03-.15.02-.22c0-.04 0-.07-.02-.11 0-.03-.02-.07-.04-.1-.03-.07-.07-.13-.13-.19-.01-.02-.03-.03-.04-.05-.02-.01-.03-.03-.05-.04-.03-.03-.07-.06-.11-.08a3.27 3.27 0 0 0-.27-.15l-.08-.03-.08-.03c-.06-.02-.11-.04-.17-.05l-.38-.08m499.05 217.8l-.22.72" class="B"/><path d="M997.73 588.63l-.14.78m-1.33-.99l-.05.79" class="C"/><path d="M998.85 589.25l-.21.74" class="B"/><path d="M1001.05 590.57v.78m-120.9-46.86l-.09.79m3.16.3l-.2.75" class="C"/><path d="M878.09,544.98c0,.08.01.16.02.24" class="B"/><path d="M883.6 545.96l-.22.73" class="C"/><path d="M883.79 546.38l-.2.62" class="B"/><path d="M893.47 549.45l-.2.75" class="C"/><path d="M887.85 548.48v.39" class="B"/><path d="M894.16 550.67l-.07.22" class="C"/><path d="M914.92 557.91l-.22.72" class="B"/><path d="M922.59 560.33l-.15.77" class="C"/><path d="M924.31 561.67l-.18.53" class="B"/><path d="M922.81,561.92c0,.05,0,.11.01.16" class="C"/><g class="B"><path d="M284.43 234.69l-.34.12c-.49.17-.94.36-1.37.57a11.42 11.42 0 0 0-1.16.66 5.7 5.7 0 0 0-.91.73m77.45 155.19c-.55-.08-1.07-.18-1.56-.31s-.93-.29-1.33-.47-.75-.38-1.05-.61a3.33 3.33 0 0 1-.73-.72c-.19-.26-.31-.52-.37-.81a1.92 1.92 0 0 1 0-.86c.07-.29.18-.59.36-.88.18-.3.42-.59.72-.87"/><path d="M355.45 385.15a7.72 7.72 0 0 1 1.04-.83c.36-.24.76-.47 1.19-.68m3.43-32.63l-.8.18-1.04.28-1 .32-.48.18-.47.19-.89.4-.82.43-.19.11a1.86 1.86 0 0 1-.19.11l-.36.23-.66.48c-.21.16-.4.33-.57.5m-1.34 1.28a5.45 5.45 0 0 0-.47.51c-.14.17-.26.34-.37.52a3.23 3.23 0 0 0-.27.52c0 .01 0 .02-.01.03"/></g><path d="M352.3 355.7l-.34-2.5" class="C"/><path d="M360.17 406.38c0-.4.13-.79.37-1.18m147.93-36.52l-.31.08-.32.07-.32.05-.32.03c-.11.01-.21.01-.32.01h-.31c-.2 0-.4-.03-.59-.06" class="B"/><path d="M505.98 368.86l-.7-5m2.5-.18l.69 5.01" class="C"/><path d="M496.48 372.67l-.28-2.02" class="B"/><path d="M496.28 372.54l-.18-1.35" class="C"/><path d="M1186.08,471.77c.26-.25.47-.52.63-.81.16-.28.27-.58.32-.88s.05-.61,0-.93c-.06-.31-.17-.63-.33-.94-.16-.31-.38-.61-.64-.91-.27-.3-.58-.58-.93-.85-.36-.27-.75-.52-1.18-.75-.43-.23-.9-.44-1.39-.63" class="B"/><path d="M867.51 539.55l-.15.77" class="C"/><path d="M869.6 540.81l-.22.72" class="B"/><path d="M912.84 556.65l-.15.77M359.41 389.53l-3.96-4.38" class="C"/><path d="M362.47 387.88l-.1.03c-.04.01-.08.03-.12.04s-.08.03-.12.04-.08.03-.12.04-.08.03-.12.04-.08.03-.12.04c-.04.02-.08.03-.11.05-.04.02-.08.03-.11.05l-.11.05-.11.05-.11.05-.11.05c-.03.02-.07.03-.1.05s-.07.03-.1.05-.07.03-.1.05-.06.03-.1.05l-.09.05c-.03.02-.06.03-.09.05s-.06.03-.09.05-.06.04-.09.05c-.03.02-.06.04-.09.05l-.08.05c-.03.02-.05.04-.08.05-.03.02-.05.04-.08.05s-.05.04-.08.05c-.03.02-.05.04-.07.05-.02.02-.05.04-.07.05-.02.02-.05.04-.07.05-.02.02-.05.04-.07.05-.02.02-.04.04-.06.05s-.04.04-.06.05-.04.04-.06.05c-.02.02-.04.04-.06.05m-1.34 1.35l-.03.03-.03.03-.03.03-.03.03-.03.03-.03.03-.03.03-.03.03c-.01.01-.02.02-.02.03 0 0-.02.02-.02.03 0 0-.02.02-.02.03 0 0-.02.02-.02.03 0 0-.01.02-.02.03 0 0-.01.02-.02.03 0 0-.01.02-.02.03s-.01.02-.02.03c0 0-.01.02-.02.03 0 0-.01.02-.02.03 0 0-.01.02-.02.03 0 0-.01.02-.02.03 0 0-.01.02-.02.03 0 0-.01.02-.02.03 0 0-.01.02-.02.03 0 .01 0 .02-.01.03 0 .01 0 .02-.01.03 0 .01 0 .02-.01.03 0 0 0 .02-.01.03 0 0 0 .02-.01.03s0 .02-.01.03v.03.03.03.03.03.03.03.03.15" class="B"/><path d="M354.13 386.43l3.95 4.38m463.71 78.71l-.6 4.73" class="C"/></g></g><circle cx="416.55" cy="390.15" r="11.96" class="F"/><text fill="#fff" class="G H I"><tspan x="413.17" y="394.97">1</tspan></text><circle cx="744.62" cy="475.08" r="11.96" class="F"/><text fill="#fff" class="G H I"><tspan x="741.24" y="479.91">1</tspan></text><circle cx="405.47" cy="338.81" r="11.96" class="F"/><text fill="#fff" class="G H I"><tspan x="401.17" y="343.64">2</tspan></text><circle cx="732.01" cy="424.52" r="11.96" class="F"/><text fill="#fff" class="G H I"><tspan x="727.7" y="429.35">2</tspan></text><defs ><path id="B" d="M990.05 398.81l-34.11-12.86"/><path id="C" d="M1027.21 378.84l-34.11-12.87"/><path id="D" d="M624.9 419.1c-.3 2.58 3.25 5.11 7.91 5.64 4.67.54 8.69-1.12 8.99-3.7s-3.25-5.11-7.91-5.64c-4.67-.54-8.69 1.12-8.99 3.7h0z"/><path id="E" d="M158.82 404.2c.04 2.78 4.51 4.96 9.99 4.88s9.89-2.4 9.85-5.17-4.51-4.96-9.99-4.88-9.89 2.4-9.85 5.17h0z"/><path id="F" d="M398.21 463.11c-.02-1.15-1.87-2.06-4.14-2.02s-4.1.99-4.08 2.14 1.87 2.06 4.14 2.02c2.27-.03 4.1-.99 4.08-2.14h0z"/><path id="G" d="M1009.07 464.25c.3-2.58-3.25-5.11-7.91-5.64-4.67-.54-8.69 1.12-8.99 3.7s3.25 5.11 7.91 5.64c4.67.54 8.69-1.12 8.99-3.7h0z"/></defs></svg>