<?xml version="1.0" encoding="UTF-8"?><svg id="_图层_1" xmlns="http://www.w3.org/2000/svg" viewBox="0 0 214.52 212.94"><path d="M25.73,46.75s.07-.1.1-.14c-.03.05-.07.09-.1.14Z" style="fill:none; stroke:#fff; stroke-linecap:round; stroke-linejoin:round; stroke-width:.5px;"/><path d="M149.94,96.57l-.51-5.28c-1.47,1.77-1.16,3.88.51,5.28Z" style="fill:none; stroke:#fff; stroke-linecap:round; stroke-linejoin:round; stroke-width:.5px;"/><path d="M54.4,192.62c15.38,9.46,33.48,14.92,52.87,14.92,8.69,0,17.13-1.1,25.17-3.16l-76.62-31.06-1.42,19.3Z" style="fill:none; stroke:#fff; stroke-linecap:round; stroke-linejoin:round; stroke-width:.5px;"/><path d="M169.9,81.58l-.56-5.77c-2.94-1.2-6.81-.37-8.65,1.85l.56,5.77c1.83-2.22,5.71-3.05,8.65-1.85Z" style="fill:none; stroke:#fff; stroke-linecap:round; stroke-linejoin:round; stroke-width:.5px;"/><path d="M160.7,77.66l-11.27,13.63h0s0,0,0,0h0s.51,5.28.51,5.28c.09.07.18.15.27.22l11.04-13.36-.56-5.77Z" style="fill:none; stroke:#fff; stroke-linecap:round; stroke-linejoin:round; stroke-width:.5px;"/><path d="M47.89,170.89l-1.22,16.49c2.49,1.86,5.06,3.61,7.72,5.24l1.42-19.3c-2.5-1.01-5.16-1.83-7.93-2.43Z" style="fill:none; stroke:#fff; stroke-linecap:round; stroke-linejoin:round; stroke-width:.5px;"/><path d="M207.88,97.04l-37.98-15.46c-2.94-1.2-6.81-.37-8.65,1.85l-11.04,13.36c.36.26.75.5,1.22.69l20.13,8.19c2.44.99,5.6.61,7.67-.94,1.38-1.03,3.49-1.29,5.12-.62l19.89,8.09c1.2.49,2.56.62,3.88.48.12-2.06.21-4.12.21-6.21,0-3.18-.17-6.33-.45-9.44Z" style="fill:none; stroke:#fff; stroke-linecap:round; stroke-linejoin:round; stroke-width:.5px;"/><polygon points="113.13 120.94 112.58 115.17 107.07 113.97 107.63 119.74 113.13 120.94" style="fill:none; stroke:#fff; stroke-linecap:round; stroke-linejoin:round; stroke-width:.5px;"/><path d="M63.37,108.05l1.43-2.92c-.7-.68-1.41-1.36-2.11-2.05l-1.43,2.92c.7.68,1.41,1.36,2.11,2.05Z" style="fill:none; stroke:#fff; stroke-linecap:round; stroke-linejoin:round; stroke-width:.5px;"/><path d="M55.76,108.45c2.16.45,4.53-.46,5.32-2.07l-.56-5.77c-.79,1.61-3.19,2.54-5.36,2.06l.55,5.71s.03.04.05.06Z" style="fill:none; stroke:#fff; stroke-linecap:round; stroke-linejoin:round; stroke-width:.5px;"/><path d="M61.08,106.38c-.78,1.6-3.16,2.52-5.32,2.07.2.29.41.58.65.85.14.16.29.33.44.49.15.16.31.32.47.47.33.31.68.6,1.04.88s.75.54,1.15.79c.4.25.82.48,1.27.7.11.05.22.11.33.16.11.05.23.1.34.16.23.1.46.2.7.29.47.19.95.35,1.45.5s1,.28,1.52.39l.58.13s-.04-.02-.06-.03c-.22-.12-.43-.25-.63-.38-.19-.13-.37-.27-.53-.41-.16-.14-.31-.28-.44-.43-.13-.14-.25-.29-.36-.44-.02-.02-.03-.04-.04-.06-.01-.02-.03-.04-.04-.06-.01-.02-.03-.04-.04-.06-.01-.02-.03-.04-.04-.06-.01-.02-.03-.04-.04-.06-.01-.02-.03-.04-.04-.07-.01-.02-.02-.04-.04-.07-.01-.02-.02-.04-.04-.07-.01-.02-.02-.04-.03-.07-.01-.02-.02-.04-.03-.07-.01-.02-.02-.04-.03-.07-.01-.02-.02-.04-.03-.07-.01-.02-.02-.04-.03-.07,0-.02-.02-.04-.03-.07,0-.02-.02-.05-.03-.07,0-.02-.02-.05-.03-.07,0-.02-.02-.05-.02-.07,0-.02-.02-.05-.02-.07,0-.02-.01-.05-.02-.07,0-.02-.01-.05-.02-.07,0-.02-.01-.05-.02-.07,0-.02-.01-.05-.02-.07,0-.02-.01-.05-.02-.07,0-.02-.01-.05-.02-.07s0-.05-.01-.07,0-.05-.01-.07c0-.02,0-.05-.01-.07,0-.02,0-.05-.01-.07,0-.02,0-.05,0-.07,0-.02,0-.05,0-.07,0-.02,0-.05,0-.07s0-.05,0-.07c0-.02,0-.05,0-.07,0-.02,0-.05,0-.07,0-.02,0-.05,0-.07,0-.02,0-.05,0-.07s0-.05,0-.07c0-.02,0-.05,0-.07,0-.02,0-.05,0-.07s0-.05,0-.07,0-.05,0-.07,0-.05,0-.07c0-.02,0-.05,0-.07,0-.02,0-.05,0-.07,0-.02,0-.05,0-.07,0-.02,0-.05.01-.07,0-.02,0-.05.01-.07s0-.05.01-.07c0-.02,0-.05.01-.07,0-.02.01-.05.02-.07,0-.02.01-.05.02-.07,0-.02.01-.05.02-.07,0-.02.01-.05.02-.07,0-.02.01-.05.02-.07,0-.02.01-.05.02-.07,0-.02.01-.05.02-.07,0-.02.01-.05.02-.07,0-.02.02-.05.02-.07,0-.02.02-.04.02-.07,0-.02.02-.04.03-.07,0-.02.02-.04.03-.07,0-.02.02-.04.03-.07,0-.02.02-.04.03-.07,0-.02.02-.04.03-.07,0-.02.02-.04.03-.07.01-.02.02-.04.03-.07-.7-.68-1.41-1.36-2.11-2.05l-.18.37ZM58.02,110.23c-.36-.53-.65-1.09-.87-1.67.22.58.51,1.14.87,1.67.38.56.83,1.09,1.35,1.59-.52-.5-.97-1.03-1.35-1.59Z" style="fill:none; stroke:#fff; stroke-linecap:round; stroke-linejoin:round; stroke-width:.5px;"/><path d="M87.97,117.13c.07.67.15,1.35.24,2.02l.36.08c-.11-.38-.22-.75-.33-1.12-.09-.33-.18-.65-.27-.98Z" style="fill:none; stroke:#fff; stroke-linecap:round; stroke-linejoin:round; stroke-width:.5px;"/><path d="M55.72,108.44s.03,0,.04,0c-.01-.02-.03-.04-.05-.06v.06Z" style="fill:none; stroke:#fff; stroke-linecap:round; stroke-linejoin:round; stroke-width:.5px;"/><path d="M106.68,99.1c-.81-.32-1.65-.57-2.52-.76-.53,2.69-1.07,5.38-1.6,8.07.06,0,.12.02.18.03.06.01.12.02.17.03.06.01.11.02.17.03.05.01.11.02.16.04.05.01.1.02.16.04.05.01.1.03.15.04.05.01.1.03.15.04.05.01.09.03.14.04.05.01.09.03.14.04.04.01.09.03.13.04.04.01.08.03.13.04.04.01.08.03.12.04.04.01.08.03.12.04.04.01.07.03.11.04.04.01.07.03.11.04.03.01.07.03.1.04.03.01.07.03.1.04.03.01.06.03.09.04.03.01.06.03.09.04.03.01.06.03.09.04.03.01.05.03.08.04.03.01.05.03.08.04.02.01.05.03.07.04.16.08.31.17.45.27l3.49-7.14c-.13-.09-.26-.17-.4-.26-.69-.42-1.44-.8-2.25-1.11Z" style="fill:none; stroke:#fff; stroke-linecap:round; stroke-linejoin:round; stroke-width:.5px;"/><path d="M105.01,118.12s-.08.08-.12.11c-.04.04-.08.08-.12.11-.04.04-.08.08-.12.11-.04.04-.08.07-.13.11-.04.04-.09.07-.13.11-.04.04-.09.07-.13.11-.05.04-.09.07-.14.11s-.09.07-.14.11c-.05.03-.1.07-.14.1-.05.03-.1.07-.15.1-.05.03-.1.07-.15.1-.05.03-.1.07-.15.1-.05.03-.1.06-.16.1-.05.03-.11.06-.16.09-.02.01-.04.02-.06.03.12-.03.23-.07.35-.1.52-.16,1.03-.33,1.52-.52.25-.1.5-.2.74-.3-.21-.21-.39-.45-.52-.7-.03.04-.07.07-.1.11Z" style="fill:none; stroke:#fff; stroke-linecap:round; stroke-linejoin:round; stroke-width:.5px;"/><path d="M106.72,96.99c.5.15.98.32,1.45.5.24.09.47.19.7.29.11.05.23.1.34.16.11.05.22.11.33.16.26.13.5.26.75.4l1.01-2.07c-.25-.18-.51-.35-.77-.51-.4-.25-.82-.48-1.27-.7-.11-.05-.22-.11-.33-.16-.11-.05-.23-.1-.34-.16-.23-.1-.46-.2-.7-.29-.47-.19-.95-.35-1.45-.5-.5-.15-1-.28-1.52-.39.09.96.19,1.92.28,2.88.52.11,1.03.24,1.52.39Z" style="fill:none; stroke:#fff; stroke-linecap:round; stroke-linejoin:round; stroke-width:.5px;"/><path d="M87.15,116.18c.07-1.21.17-2.44.29-3.65.02-.21.04-.42.07-.64,0-.02,0-.03,0-.05,0,.02,0,.03,0,.05.1-.92.21-1.85.28-2.77.08-1.03.13-2.07.15-3.1,0-.21,0-.41,0-.62,0,.21,0,.41,0,.62-.02,1.03-.06,2.07-.15,3.1-.08.92-.18,1.85-.28,2.77.02.27.03.55.05.83.09,1.33.22,2.69.36,4.06.01.12.03.23.04.35.09.32.18.65.27.98.11.37.21.75.33,1.12l3.5.76c.52.11,1.05.21,1.58.28.53.07,1.07.13,1.61.16s1.09.05,1.64.05c.14,0,.28,0,.41,0,.14,0,.28,0,.41-.01.27-.01.55-.03.82-.05.55-.04,1.09-.1,1.63-.18.54-.08,1.08-.18,1.61-.3.27-.06.53-.12.8-.19.13-.03.26-.07.4-.11.01,0,.03,0,.04-.01.02-.01.04-.02.06-.03.05-.03.11-.06.16-.09.05-.03.1-.06.16-.1.05-.03.1-.07.15-.1.05-.03.1-.07.15-.1.05-.03.1-.07.15-.1.05-.03.1-.07.14-.1.05-.03.09-.07.14-.11s.09-.07.14-.11c.04-.04.09-.07.13-.11.04-.04.09-.07.13-.11.04-.04.08-.07.13-.11.04-.04.08-.07.12-.11.04-.04.08-.08.12-.11.04-.04.08-.08.12-.11.04-.04.07-.07.1-.11-.12-.25-.21-.51-.24-.78l-.56-5.77.56,5.77c.03.27.12.53.24.78,0,0,0,0,0,0,.02-.02.03-.03.05-.05-.02.02-.03.03-.05.05,0,0,0,0,0,0,.13.25.3.49.52.7.02,0,.04-.01.05-.02-.02,0-.04.01-.05.02.48.48,1.16.86,1.99,1.04l-.56-5.77c-2.17-.47-3.29-2.16-2.5-3.78l1.27-2.6c-.15-.09-.29-.18-.45-.27-.02-.01-.05-.03-.07-.04-.03-.01-.05-.03-.08-.04-.03-.01-.05-.03-.08-.04-.03-.01-.06-.03-.09-.04-.03-.01-.06-.03-.09-.04-.03-.01-.06-.03-.09-.04-.03-.01-.07-.03-.1-.04-.03-.01-.07-.03-.1-.04-.04-.01-.07-.03-.11-.04-.04-.01-.07-.03-.11-.04-.04-.01-.08-.03-.12-.04-.04-.01-.08-.03-.12-.04-.04-.01-.08-.03-.13-.04-.04-.01-.09-.03-.13-.04-.05-.01-.09-.03-.14-.04-.05-.01-.09-.03-.14-.04-.05-.01-.1-.03-.15-.04-.05-.01-.1-.03-.15-.04-.05-.01-.1-.03-.16-.04-.05-.01-.11-.02-.16-.04-.06-.01-.11-.02-.17-.03-.06-.01-.11-.02-.17-.03-.06-.01-.12-.02-.18-.03l-1,13.53,1-13.53-14.37-3.13,14.37,3.13c.53-2.69,1.07-5.38,1.6-8.07l-13.78-3,13.78,3c.88.19,1.72.44,2.52.76.81.32,1.56.69,2.25,1.11.14.08.27.17.4.26l.96-1.97c-.24-.14-.49-.27-.75-.4-.11-.05-.22-.11-.33-.16-.11-.05-.23-.1-.34-.16-.23-.1-.46-.2-.7-.29-.47-.19-.95-.35-1.45-.5-.5-.15-1-.28-1.52-.39l-13.95-3.04,13.95,3.04c-.09-.96-.19-1.92-.28-2.88l-12.85-2.8c-.04.19-.06.38-.1.57-.11.47-.25.92-.41,1.37-.19.54-.42,1.06-.67,1.56-.26.52-.54,1.02-.84,1.52-.4.95-.81,1.89-1.16,2.87-.16.44-.27.89-.41,1.33,0,.07-.01.14-.02.21-.14,1.35-.22,2.72-.37,4.08-.15,1.34-.36,2.66-.62,3.96-.24,1.22-.53,2.42-.81,3.6-.25,1.02-.5,2.02-.7,3.02-.15.75-.25,1.5-.33,2.24-.05.45-.08.89-.1,1.34l1.55.34c0-.9.03-1.81.08-2.73Z" style="fill:none; stroke:#fff; stroke-linecap:round; stroke-linejoin:round; stroke-width:.5px;"/><path d="M61.26,106h0l1.43-2.92h0,0l5.01-10.25s-.03,0-.05.01c.02,0,.03,0,.05-.01l1.02-2.09s-.02,0-.04,0c.01,0,.02,0,.04,0l1.42-2.91-.56-5.77-9.07,18.54.56,5.77.18-.37Z" style="fill:none; stroke:#fff; stroke-linecap:round; stroke-linejoin:round; stroke-width:.5px;"/><path d="M13.14,118.38l22.04,4.8c.23.05.46.09.7.12.16.02.31.05.46.08,1.63.35,2.66,1.39,2.75,2.57v-.05s0,.05,0,.05c0,0,0,0,0,0l.55,5.71h0s0,0,0,0h0c.04.42-.04.85-.24,1.26l-1.21,2.47c.26.11.54.21.84.27l57.41,12.5c2.17.47,4.57-.45,5.36-2.06l12.17-24.9c-.26-.11-.55-.2-.84-.27l-5.51-1.2c-.83-.18-1.51-.56-1.99-1.04-.25.1-.49.21-.74.3-.5.19-1,.36-1.52.52-.12.03-.23.07-.35.1,0,0-.01,0-.02,0,0,0,.01,0,.02,0-.01,0-.03,0-.04.01-.13.04-.26.07-.4.11-.27.07-.53.13-.8.19-.53.12-1.07.22-1.61.3-.54.08-1.08.14-1.63.18-.27.02-.55.04-.82.05-.14,0-.28.01-.41.01-.14,0-.28,0-.41,0-.55,0-1.1-.01-1.64-.05s-1.08-.09-1.61-.16c-.53-.07-1.06-.17-1.58-.28l-3.5-.76s0,0,0,0c0,0,0,0,0,0l-.36-.08s0,0,0,0c0,0,0,0,0,0l-1.13-.25s0,.01,0,.02c0,0,0-.01,0-.02l-1.55-.34s0,0,0,0c0,0,0,0,0,0l-1.66-.36s0,0,0,.01c0,0,0,0,0-.01l-1.35-.29h0s0,0,0,0l-.07-.02s0,0,0,0c0,0,0,0,0,0l-16.73-3.64s0,0,.01,0c0,0,0,0,0,0,0,0,0,0,0,0,0,0-.01,0-.01,0l-.58-.13c-.52-.11-1.03-.24-1.52-.39s-.98-.32-1.45-.5c-.24-.09-.47-.19-.7-.29-.11-.05-.23-.1-.34-.16-.11-.05-.22-.11-.33-.16-.44-.22-.86-.45-1.27-.7-.4-.25-.79-.51-1.15-.79s-.71-.57-1.04-.88c-.16-.15-.32-.31-.47-.47-.15-.16-.3-.32-.44-.49-.24-.28-.45-.56-.65-.85-.01,0-.03,0-.04,0l-1.97-.43c-1.79-.39-3.79.17-4.87,1.35-1.08,1.19-3.08,1.74-4.87,1.35l-37.72-8.21c-.05,1.32-.1,2.63-.1,3.96,0,4.8.36,9.52,1.01,14.14.38-.26.76-.52,1.05-.85,1.07-1.2,3.09-1.77,4.89-1.38Z" style="fill:none; stroke:#fff; stroke-linecap:round; stroke-linejoin:round; stroke-width:.5px;"/><path d="M52.11,159.11c.97-1.99,2.71-3.77,5-5.12,6.48-3.81,15.65-3.27,20.49,1.22,2.6,2.41,3.37,5.46,2.56,8.37.01.02.03.04.04.06-.01-.02-.03-.04-.04-.06-.69,2.49-2.53,4.88-5.53,6.64,2.99-1.76,4.83-4.15,5.53-6.64-2.78-5.35-11.13-7.8-18.7-5.47-2.96.91-5.51,2.48-7.24,4.47,1.74-1.99,4.28-3.55,7.24-4.47,7.58-2.33,15.92.12,18.7,5.47.81-2.91.05-5.96-2.56-8.37-4.84-4.48-14.01-5.03-20.49-1.22-2.29,1.35-4.03,3.12-5,5.12-.45.92-.73,1.87-.83,2.82l5.47,1.19c.55.12,1.07.28,1.56.48l88.53,35.89c1.68-.71,3.33-1.48,4.95-2.28l-61.55-24.95c-1.04-.42-1.97-.95-2.79-1.58-.81-.63-1.48-1.34-1.99-2.13,0-.01-.01-.03-.02-.04h0s0,0,0,0c-.5-.78-.84-1.6-1-2.46-.17-.88-.16-1.77.03-2.67,1.61-7.53-5.41-14.2-15.68-14.9-6.1-.41-12.28,1.39-16.54,4.83-3.44,2.78-8.68,3.91-13.37,2.89l-22.17-4.83c.57,1.15,1.15,2.3,1.76,3.42l32.81,7.14c.1-.96.38-1.9.83-2.82Z" style="fill:none; stroke:#fff; stroke-linecap:round; stroke-linejoin:round; stroke-width:.5px;"/><path d="M55.82,173.32l76.62,31.06c4.96-1.27,9.77-2.91,14.4-4.89l-88.53-35.89c-.49-.2-1.02-.36-1.56-.48l-5.47-1.19s0,0,0,0c0,0,0,0,0,0l-32.81-7.14c2.14,3.92,4.54,7.67,7.16,11.25l22.27,4.85c2.77.6,5.42,1.42,7.93,2.43Z" style="fill:none; stroke:#fff; stroke-linecap:round; stroke-linejoin:round; stroke-width:.5px;"/><path d="M208.13,112.68c-1.31.15-2.67.01-3.88-.48l-19.89-8.09c-1.63-.66-3.74-.4-5.12.62-2.07,1.54-5.23,1.93-7.67.94l-20.13-8.19c-.47-.19-.86-.43-1.22-.69h-.01s.01,0,.01,0c-.1-.07-.19-.14-.27-.22v.03s0-.03,0-.03c-1.67-1.39-1.97-3.5-.51-5.28h0s11.27-13.63,11.27-13.63c1.83-2.22,5.7-3.05,8.65-1.85l37.84,15.4c-2.76-18.2-10.38-34.8-21.48-48.45-.83-.05-1.65-.18-2.39-.49l-20.13-8.19,20.13,8.19c.75.3,1.56.44,2.39.49-5.14-6.32-11.01-12-17.51-16.92l-6.24,7.54c.36.26.76.5,1.22.69-.47-.19-.86-.43-1.22-.69h-.01s.01,0,.01,0c-.1-.07-.19-.14-.27-.22v.03s0-.03,0-.03c-1.67-1.39-1.97-3.5-.51-5.28l3.68-4.46c-5.54-3.85-11.49-7.17-17.76-9.87l-2.67,5.47c-1.18,2.42-4.78,3.8-8.04,3.1l-22.04-4.8,22.04,4.8c3.26.71,6.86-.68,8.04-3.1l2.67-5.47c-12.23-5.25-25.69-8.17-39.84-8.17-5.02,0-9.94.38-14.76,1.08.02.17.03.34.06.51.01.1.04.2.05.3.05.12.1.25.15.37.25.59.52,1.17.8,1.77.54,1.13,1.12,2.27,1.64,3.42.47,1.04.88,2.09,1.19,3.13.27.91.45,1.81.53,2.7.07.74.07,1.47,0,2.18-.06.58-.17,1.15-.33,1.7-.18.63-.41,1.24-.69,1.81-.34.71-.74,1.38-1.17,2.02-.51.75-1.06,1.45-1.61,2.14-.6.76-1.19,1.51-1.68,2.27-.49.78-.87,1.59-1.17,2.4-.08.2-.15.41-.21.61.07-.2.14-.41.21-.61.3-.81.68-1.62,1.17-2.4.48-.77,1.07-1.51,1.68-2.27.54-.69,1.1-1.39,1.61-2.14.43-.64.84-1.31,1.17-2.02.27-.58.51-1.18.69-1.81.15-.55.27-1.12.33-1.7.08-.71.08-1.44,0-2.18-.08-.89-.27-1.79-.53-2.7-.31-1.05-.72-2.09-1.19-3.13-.52-1.15-1.1-2.29-1.64-3.42-.28-.59-.56-1.18-.8-1.77-.05-.12-.1-.25-.15-.37.04.25.08.51.14.77.1.48.23.96.36,1.45.18.63.39,1.26.6,1.89.27.8.56,1.6.82,2.39.29.89.56,1.77.77,2.65.19.81.32,1.61.38,2.4.04.53.04,1.05,0,1.56-.04.45-.1.89-.2,1.32-.09.38-.2.75-.33,1.11-.13.36-.28.71-.45,1.04-.37.72-.81,1.38-1.28,1.99-.5.65-1.03,1.24-1.53,1.82-.24.28-.48.56-.7.84.22-.28.46-.56.7-.84.5-.58,1.03-1.17,1.53-1.82.47-.61.91-1.27,1.28-1.99.17-.33.32-.68.45-1.04.13-.36.24-.73.33-1.11.1-.43.17-.87.2-1.32.04-.51.04-1.03,0-1.56-.05-.78-.19-1.59-.38-2.4-.2-.87-.47-1.76-.77-2.65-.26-.79-.55-1.59-.82-2.39-.21-.63-.42-1.26-.6-1.89-.14-.48-.26-.97-.36-1.45-.05-.26-.09-.51-.14-.77-.01-.03-.02-.05-.03-.08.01.03.02.05.03.08-.02-.1-.04-.2-.05-.3-.02-.17-.04-.34-.06-.51-.19.03-.38.04-.57.07-.02.1-.05.19-.06.29-.09.65-.11,1.32-.07,2,.04.67.14,1.34.28,2.01.19.9.44,1.79.7,2.66.25.84.51,1.67.74,2.48.2.72.36,1.44.47,2.13.09.6.14,1.19.12,1.75,0,.25-.02.5-.05.74.03-.24.05-.49.05-.74.01-.56-.03-1.15-.12-1.75-.1-.69-.27-1.4-.47-2.13-.22-.81-.48-1.64-.74-2.48-.26-.88-.52-1.77-.7-2.66-.14-.67-.24-1.34-.28-2.01-.04-.67-.01-1.34.07-2,.01-.1.04-.19.06-.29-.45.07-.9.16-1.35.24-.04.15-.1.29-.13.44-.05.2-.09.4-.12.61-.04.25-.06.5-.07.75-.01.33,0,.67.02,1-.03-.34-.04-.67-.02-1,.01-.25.04-.5.07-.75.03-.2.07-.41.12-.61.04-.15.09-.29.13-.44-.59.1-1.17.2-1.75.31-.1.48-.23.94-.25,1.44-.03.75.04,1.51.18,2.26.13.68.32,1.36.55,2.02.26.77.56,1.52.86,2.25.05.13.09.25.15.38.02.04.05.08.07.12-.02-.04-.05-.08-.07-.12.25.61.5,1.22.69,1.8.24.71.41,1.39.48,2.03.07.66.03,1.28-.09,1.86-.13.64-.36,1.23-.61,1.81-.28.65-.57,1.29-.84,1.97-.05.13-.1.26-.15.4.05-.13.1-.27.15-.4.26-.68.56-1.32.84-1.97.25-.59.48-1.18.61-1.81.12-.58.16-1.19.09-1.86-.07-.64-.24-1.32-.48-2.03-.19-.58-.44-1.19-.69-1.8-.2-.32-.4-.65-.61-.98-.44-.71-.87-1.44-1.26-2.18-.35-.67-.65-1.36-.87-2.06-.21-.66-.35-1.34-.4-1.99-.02-.29.05-.57.07-.85-.15.03-.3.05-.44.08,0,.02,0,.05.01.07.1.36.23.72.39,1.09-.16-.36-.29-.73-.39-1.09,0-.02,0-.05-.01-.07-2.32.48-4.59,1.06-6.85,1.69l-2.73,5.58c.68.53,1.53.96,2.57,1.19l11.46,2.5-11.46-2.5c-1.04-.23-1.89-.65-2.57-1.19v.02s0-.02,0-.02c-.33-.26-.61-.54-.84-.84v.04s0-.04,0-.04c-.77-1.03-.96-2.3-.38-3.55-15.64,5.08-29.61,13.86-40.87,25.32.09-.01.18-.04.27-.05,6.91-.67,12.91,2.85,13.39,7.84.1,1-.09,1.96-.41,2.9.01.02.03.03.04.05-.01-.02-.03-.03-.04-.05-1.3,3.76-5.7,6.82-11.23,7.36-5.54.53-10.43-1.63-12.43-5.08,0,.02-.02.04-.03.06,0-.02.02-.04.03-.06-.05-.09-.1-.19-.15-.28-9.86,14-16.26,30.6-17.94,48.59l36.8,8.01c1.79.39,3.79-.17,4.87-1.35,1.08-1.19,3.08-1.74,4.87-1.35l1.97.43c2.17.47,4.57-.45,5.36-2.06l9.07-18.54c1.36-2.77.86-5.77-1.33-8.08-.13-.14-.21-.3-.32-.45v.08s0-.08,0-.08c-.78-1.08-.94-2.37-.35-3.59l7.27-14.86c1.18-2.42,4.78-3.8,8.04-3.1l3.25.71c0-.07.01-.13.02-.2.08-.52.17-1.05.28-1.58.12-.55.25-1.11.39-1.67.18-.71.38-1.42.6-2.16.26-.89.55-1.79.85-2.73.35-1.1.72-2.24,1.09-3.42.09-.3.18-.6.27-.9-.09.3-.18.6-.27.9-.36,1.18-.73,2.32-1.09,3.42-.3.94-.59,1.84-.85,2.73-.22.73-.42,1.45-.6,2.16-.14.56-.28,1.12-.39,1.67-.11.53-.21,1.06-.28,1.58-.01.07-.01.13-.02.2h0s0,0,0,0c-.08.57-.15,1.14-.2,1.71-.06.76-.09,1.52-.08,2.29,0,.45.02.9.04,1.36-.03-.46-.04-.91-.04-1.36,0-.77.02-1.53.08-2.29.05-.57.12-1.14.2-1.71l-3.25-.71.56,5.77,2.45.53c.11-.55.17-1.09.31-1.65.29-1.18.64-2.38,1.03-3.64.49-1.58,1.04-3.23,1.58-4.98.12-.39.24-.78.35-1.17-.12.4-.24.79-.35,1.17-.54,1.75-1.09,3.41-1.58,4.98-.39,1.25-.74,2.46-1.03,3.64-.14.56-.2,1.1-.31,1.65h0c-.12.61-.27,1.23-.34,1.84-.13,1.14-.17,2.28-.36,3.35-.15.85-.41,1.67-.68,2.51.3-.52.59-1.04.82-1.61.3-.73.53-1.53.77-2.35.28-.95.57-1.94.89-2.95.31-1,.65-2.03,1-3.1.13-.41.26-.84.39-1.27,0,0,0,0,0,0,0,0,0,0,0,0,.13-.41.26-.81.38-1.24-.12.42-.25.82-.38,1.24.01.09.03.19.04.28-.01-.09-.03-.19-.04-.28-.13.42-.26.85-.39,1.27-.34,1.07-.68,2.1-1,3.1-.32,1.02-.61,2-.89,2.95-.24.82-.46,1.62-.77,2.35-.23.57-.52,1.1-.82,1.61-.01.03-.02.06-.03.09.01-.03.02-.06.03-.09-.03.05-.05.1-.07.15-.28.48-.58.94-.86,1.41-.24.39-.46.79-.67,1.21-.23.47-.43.97-.57,1.5-.11.41-.19.84-.23,1.28.04-.44.12-.87.23-1.28.14-.53.34-1.03.57-1.5.2-.42.43-.82.67-1.21.28-.47.58-.93.86-1.41.03-.05.05-.1.07-.15.27-.84.52-1.65.68-2.51.19-1.08.23-2.21.36-3.35.07-.61.23-1.22.34-1.84l-2.45-.53c-3.26-.71-6.86.68-8.04,3.1l-6.68,13.67,6.68-13.67-.56-5.77-7.27,14.86.35,3.59c.11.15.19.31.32.45,2.19,2.31,2.69,5.3,1.33,8.08l.56,5.77c.6-1.22.84-2.51.72-3.77l-.56-5.77.56,5.77h0s0,0,0,0h0c.12,1.26-.12,2.55-.72,3.77l-1.42,2.91c.47-.1.95-.19,1.43-.26.54-.08,1.08-.14,1.63-.18.27-.02.55-.04.82-.05.14,0,.28-.01.41-.01.14,0,.28,0,.41,0,.55,0,1.1.01,1.64.05.54.04,1.08.09,1.61.16.53.07,1.06.17,1.58.28-.09-.96-.19-1.92-.28-2.88-.52-.11-1.05-.21-1.58-.28s-1.07-.13-1.61-.16c-.54-.04-1.09-.05-1.64-.05-.14,0-.28,0-.41,0-.14,0-.28,0-.41.01-.28.01-.55.03-.82.05-.41.03-.83.07-1.24.13.41-.05.82-.1,1.24-.13.27-.02.55-.04.82-.05.14,0,.28-.01.41-.01.14,0,.28,0,.41,0,.55,0,1.1.01,1.64.05.54.04,1.08.09,1.61.16s1.06.17,1.58.28l8.35,1.82c.06-.39.1-.79.07-1.22-.04-.45-.13-.94-.28-1.44-.17-.57-.39-1.16-.65-1.78-.27-.64-.56-1.3-.85-1.98-.29-.67-.56-1.37-.79-2.07-.22-.68-.39-1.37-.5-2.06-.09-.6-.12-1.2-.09-1.79.03-.51.1-1.02.23-1.51.11-.44.25-.87.42-1.29,0,0,0,0,0-.01,0,0,0,0,0,.01-.17.42-.31.85-.42,1.29-.12.5-.2,1-.23,1.51-.03.59,0,1.19.09,1.79.1.69.28,1.38.5,2.06.23.71.5,1.4.79,2.07.29.68.58,1.34.85,1.98.26.62.49,1.21.65,1.78.15.51.24.99.28,1.44.04.43,0,.83-.07,1.22h0,0c-.01.07,0,.16-.01.23-.09.51-.25,1.01-.43,1.52-.1.29-.22.6-.34.9h0,0c-.17.43-.33.85-.49,1.3,0,0,0,0,0,0,.22-.32.44-.63.65-.96.34-.52.66-1.05.91-1.65.25-.58.42-1.22.48-1.92.05-.65,0-1.36-.13-2.1-.15-.84-.4-1.72-.67-2.62-.21-.68-.43-1.38-.64-2.09-.22-.75-.43-1.5-.58-2.27-.09-.46-.17-.93-.22-1.39.05.46.12.93.22,1.39.15.76.36,1.52.58,2.27.21.71.43,1.4.64,2.09.28.9.53,1.78.67,2.62.13.74.18,1.45.13,2.1-.06.7-.23,1.34-.48,1.92-.25.6-.57,1.13-.91,1.65-.21.32-.43.64-.65.96,0,0,0,0,0,0,0,0,0,0,0,0-.11.16-.22.32-.33.49h0,0s-.07.1-.1.15c-.36.55-.68,1.11-.94,1.72-.25.59-.43,1.22-.52,1.88-.04.29-.07.58-.08.88.01-.3.04-.59.08-.88.1-.67.27-1.3.52-1.88.26-.61.58-1.18.94-1.72.03-.05.07-.1.1-.15l-7.51-1.64c-.88-.19-1.78-.32-2.72-.38-.93-.06-1.86-.06-2.8.01-.93.07-1.86.21-2.77.41-.42.09-.83.2-1.23.32l-5.01,10.25c.7.68,1.41,1.36,2.11,2.05.02-.04.04-.08.06-.12.02-.04.04-.08.07-.12.02-.04.05-.08.07-.12.02-.04.05-.08.07-.12.03-.04.05-.08.08-.12.03-.04.05-.08.08-.12.03-.04.06-.08.09-.12.03-.04.06-.08.09-.12.03-.04.06-.08.09-.12.03-.04.06-.08.1-.12.03-.04.07-.08.1-.12.03-.04.07-.08.1-.12.04-.04.07-.08.11-.12.04-.04.07-.08.11-.12.04-.04.08-.08.11-.11.04-.04.08-.08.12-.11.04-.04.08-.08.12-.11.04-.04.08-.07.13-.11.04-.04.09-.07.13-.11.04-.04.09-.07.13-.11.05-.04.09-.07.14-.11.05-.04.09-.07.14-.11.05-.03.1-.07.14-.1.05-.03.1-.07.15-.1.05-.03.1-.07.15-.1.05-.03.1-.07.15-.1.05-.03.1-.06.16-.1.05-.03.11-.06.16-.09.05-.03.11-.06.16-.09.05-.03.11-.06.17-.09.06-.03.11-.06.17-.09.06-.03.11-.06.17-.09.06-.03.12-.06.17-.08.06-.03.12-.05.18-.08.06-.03.12-.05.18-.08.23-.1.47-.19.71-.27.25-.09.51-.17.77-.24.27-.08.55-.14.83-.2.29-.06.59-.11.89-.15.02,0,.03,0,.05,0,.02,0,.03,0,.05,0,.02,0,.03,0,.05,0,.02,0,.03,0,.05,0,.02,0,.04,0,.05,0,.02,0,.04,0,.05,0,.02,0,.04,0,.06,0,.02,0,.04,0,.06,0,.02,0,.04,0,.06,0,.02,0,.04,0,.06,0,.02,0,.04,0,.06,0,.02,0,.04,0,.06,0,.02,0,.04,0,.06,0,.02,0,.04,0,.06,0,.02,0,.04,0,.06,0,.02,0,.04,0,.06,0,.02,0,.04,0,.07,0,.02,0,.04,0,.07,0,.02,0,.04,0,.07,0,.02,0,.05,0,.07,0,.02,0,.05,0,.07,0,.02,0,.05,0,.07,0,.02,0,.05,0,.07,0,.02,0,.05,0,.07,0,.02,0,.05,0,.07,0s.05,0,.07,0c.02,0,.05,0,.08,0,.03,0,.05,0,.08,0,.03,0,.05,0,.08,0,.03,0,.05,0,.08,0,.03,0,.05,0,.08,0,.03,0,.05,0,.08,0,.03,0,.05,0,.08,0,.03,0,.05,0,.08,0,.03,0,.05,0,.08,0,.03,0,.06,0,.08,0,.03,0,.06,0,.08,0,.03,0,.06,0,.08,0,.03,0,.06,0,.09,0,.03,0,.06,0,.09,0,.03,0,.06,0,.09,0,.03,0,.06,0,.09.01.03,0,.06,0,.09.01.03,0,.06,0,.09.01.03,0,.06,0,.09.01.03,0,.06,0,.09.01.05-.23.09-.46.14-.69.05-.25.1-.5.15-.75.05-.27.11-.53.16-.8.06-.28.11-.56.17-.85.06-.3.12-.6.18-.9.06-.32.12-.63.19-.95.07-.33.13-.67.2-1,.07-.35.14-.7.21-1.05.07-.37.14-.73.22-1.1-.07.37-.14.73-.22,1.1-.07.35-.14.7-.21,1.05-.07.33-.13.67-.2,1-.06.32-.12.63-.19.95-.06.3-.12.6-.18.9-.06.28-.11.56-.17.85-.05.27-.11.53-.16.8-.05.25-.1.5-.15.75-.05.23-.09.46-.14.69,0,0,0,0,0,0l6.83,1.49c.03-.58.09-1.15.2-1.71.14-.7.35-1.39.65-2.04.3-.64.69-1.25,1.14-1.83.43-.57.92-1.12,1.41-1.68.47-.54.94-1.1,1.36-1.7.44-.64.82-1.33,1.08-2.09.14-.41.25-.84.31-1.29.07-.49.1-1.01.07-1.54,0-.06,0-.13-.01-.19,0,.06,0,.13.01.19.02.53,0,1.04-.07,1.54-.07.45-.17.88-.31,1.29-.26.76-.64,1.45-1.08,2.09-.42.61-.89,1.16-1.36,1.7-.49.56-.97,1.11-1.41,1.68-.44.58-.84,1.19-1.14,1.83-.3.65-.52,1.34-.65,2.04-.11.56-.16,1.14-.2,1.71h.05s-.05,0-.05,0c-.02.38-.04.76-.04,1.15,0,.59,0,1.18.03,1.77-.03-.59-.04-1.18-.03-1.77,0-.39.02-.77.04-1.15l-6.83-1.49-1.15,15.61,1.15-15.61s0,0,0,0h0s0,0,0,0c-.03,0-.06,0-.09-.01-.03,0-.06,0-.09-.01-.03,0-.06,0-.09-.01-.03,0-.06,0-.09-.01-.03,0-.06,0-.09-.01-.03,0-.06,0-.09,0-.03,0-.06,0-.09,0-.03,0-.06,0-.09,0-.03,0-.06,0-.08,0-.03,0-.06,0-.08,0-.03,0-.06,0-.08,0-.03,0-.05,0-.08,0-.03,0-.05,0-.08,0-.03,0-.05,0-.08,0-.03,0-.05,0-.08,0-.03,0-.05,0-.08,0-.03,0-.05,0-.08,0-.03,0-.05,0-.08,0-.03,0-.05,0-.08,0-.02,0-.05,0-.08,0-.02,0-.05,0-.07,0s-.05,0-.07,0c-.02,0-.05,0-.07,0-.02,0-.05,0-.07,0-.02,0-.05,0-.07,0-.02,0-.05,0-.07,0-.02,0-.05,0-.07,0-.02,0-.04,0-.07,0-.02,0-.04,0-.07,0-.02,0-.04,0-.07,0-.02,0-.04,0-.06,0-.02,0-.04,0-.06,0-.02,0-.04,0-.06,0-.02,0-.04,0-.06,0-.02,0-.04,0-.06,0-.02,0-.04,0-.06,0-.02,0-.04,0-.06,0-.02,0-.04,0-.06,0-.02,0-.04,0-.06,0-.02,0-.04,0-.06,0-.02,0-.04,0-.05,0-.02,0-.04,0-.05,0-.02,0-.03,0-.05,0-.02,0-.03,0-.05,0-.02,0-.03,0-.05,0-.02,0-.03,0-.05,0-.3.04-.59.09-.89.15-.28.06-.56.12-.83.2-.26.07-.52.15-.77.24-.24.08-.48.18-.71.27-.06.03-.12.05-.18.08-.06.03-.12.05-.18.08-.06.03-.12.06-.17.08-.06.03-.11.06-.17.09-.06.03-.11.06-.17.09-.06.03-.11.06-.17.09-.05.03-.11.06-.16.09-.05.03-.11.06-.16.09-.05.03-.1.06-.16.1-.05.03-.1.06-.15.1-.05.03-.1.07-.15.1-.05.03-.1.07-.15.1-.05.03-.1.07-.14.1-.05.03-.09.07-.14.11-.05.04-.09.07-.14.11-.04.04-.09.07-.13.11-.04.04-.09.07-.13.11-.04.04-.08.07-.13.11-.04.04-.08.07-.12.11-.04.04-.08.08-.12.11-.04.04-.08.08-.11.11-.04.04-.07.08-.11.12-.04.04-.07.08-.11.12-.04.04-.07.08-.1.12-.03.04-.07.08-.1.12-.03.04-.07.08-.1.12-.03.04-.06.08-.09.12-.03.04-.06.08-.09.12-.03.04-.06.08-.09.12-.03.04-.05.08-.08.12-.03.04-.05.08-.08.12-.03.04-.05.08-.07.12-.02.04-.05.08-.07.12-.02.04-.04.08-.07.12-.02.04-.04.08-.06.12l-.59,8.02.59-8.02-1.43,2.92-.25,3.43.25-3.43s-.02.04-.03.07c-.01.02-.02.04-.03.07-.01.02-.02.04-.03.07,0,.02-.02.04-.03.07,0,.02-.02.04-.03.07,0,.02-.02.04-.03.07,0,.02-.02.04-.03.07,0,.02-.02.04-.02.07,0,.02-.02.05-.02.07,0,.02-.02.05-.02.07,0,.02-.01.05-.02.07,0,.02-.01.05-.02.07,0,.02-.01.05-.02.07,0,.02-.01.05-.02.07,0,.02-.01.05-.02.07,0,.02-.01.05-.02.07,0,.02-.01.05-.02.07,0,.02,0,.05-.01.07,0,.02,0,.05-.01.07s0,.05-.01.07c0,.02,0,.05-.01.07,0,.02,0,.05,0,.07,0,.02,0,.05,0,.07,0,.02,0,.05,0,.07,0,.02,0,.05,0,.07s0,.05,0,.07,0,.05,0,.07,0,.05,0,.07c0,.02,0,.05,0,.07,0,.02,0,.05,0,.07s0,.05,0,.07c0,.02,0,.05,0,.07,0,.02,0,.05,0,.07,0,.02,0,.05,0,.07,0,.02,0,.05,0,.07s0,.05,0,.07c0,.02,0,.05,0,.07,0,.02,0,.05,0,.07,0,.02,0,.05.01.07,0,.02,0,.05.01.07,0,.02,0,.05.01.07s0,.05.01.07.01.05.02.07c0,.02.01.05.02.07,0,.02.01.05.02.07,0,.02.01.05.02.07,0,.02.01.05.02.07,0,.02.01.05.02.07,0,.02.02.05.02.07,0,.02.02.05.02.07,0,.02.02.05.03.07,0,.02.02.05.03.07,0,.02.02.05.03.07,0,.02.02.04.03.07,0,.02.02.04.03.07.01.02.02.04.03.07.01.02.02.04.03.07.01.02.02.04.03.07.01.02.02.04.04.07.01.02.02.04.04.07.01.02.03.04.04.07.01.02.03.04.04.06.01.02.03.04.04.06.01.02.03.04.04.06.01.02.03.04.04.06.01.02.03.04.04.06.11.15.23.3.36.44.14.15.29.29.44.43.17.15.34.28.53.41.2.14.41.27.63.38.02.01.04.02.06.03l16.73,3.64c-.03-.1-.06-.19-.09-.29-.16-.54-.28-1.08-.37-1.61-.1-.58-.15-1.16-.17-1.73-.02-.7.02-1.39.11-2.08.12-.85.33-1.68.56-2.53.23-.85.49-1.73.76-2.62.31-1.01.65-2.06.99-3.14.22-.68.44-1.37.7-2.07-.26.69-.48,1.39-.7,2.07-.35,1.08-.68,2.12-.99,3.14-.27.9-.53,1.77-.76,2.62-.23.85-.44,1.68-.56,2.53-.1.68-.13,1.37-.11,2.08.02.57.08,1.14.17,1.73.09.53.21,1.07.37,1.61.03.1.06.19.09.29l.07.02c-.03-.62-.02-1.23.03-1.85.06-.79.17-1.57.35-2.35.18-.79.43-1.59.68-2.39.29-.9.58-1.83.88-2.78,0-.01,0-.02,0-.03,0,.01,0,.02,0,.03,0,0,0-.01,0-.02,0,0,0,.01,0,.02,0,.07.02.13.03.2-.01-.07-.02-.13-.03-.2-.29.95-.59,1.88-.88,2.78-.26.81-.5,1.6-.68,2.39-.18.78-.29,1.57-.35,2.35-.05.61-.06,1.23-.03,1.85l1.35.29c.03-.53.08-1.06.15-1.59.08-.67.19-1.34.32-2.01-.13.67-.23,1.34-.32,2.01-.06.53-.11,1.06-.15,1.59l1.66.36c.02-.44.06-.89.1-1.34.08-.74.19-1.48.33-2.24.19-.99.45-2,.7-3.02.29-1.18.57-2.37.81-3.6.26-1.29.47-2.62.62-3.96.15-1.36.23-2.73.37-4.08,0-.07.01-.14.02-.21-.21.66-.43,1.32-.6,1.98-.31,1.22-.58,2.43-.88,3.6-.3,1.15-.63,2.26-.96,3.34-.29.93-.59,1.83-.87,2.71-.23.73-.46,1.45-.62,2.16-.05.2-.09.41-.13.61.04-.2.08-.41.13-.61.17-.71.39-1.43.62-2.16.28-.88.58-1.78.87-2.71.34-1.08.67-2.19.96-3.34.3-1.17.57-2.38.88-3.6.17-.67.4-1.32.6-1.98,0-.02,0-.05,0-.07,0,.02,0,.05,0,.07.14-.44.25-.9.41-1.33.35-.97.77-1.92,1.16-2.87-.04.08-.08.16-.13.23-.49.81-1.01,1.61-1.49,2.4-.56.93-1.08,1.86-1.5,2.81-.47,1.06-.81,2.14-1.14,3.18-.32.98-.63,1.93-.91,2.86-.13.41-.25.82-.37,1.23.12-.4.24-.81.37-1.23.29-.92.6-1.87.91-2.86.33-1.04.67-2.12,1.14-3.18.42-.95.93-1.88,1.5-2.81.48-.8,1-1.59,1.49-2.4.05-.08.08-.16.13-.23,0-.01,0-.02.01-.03,0,.01,0,.02-.01.03.29-.5.58-1,.84-1.52.25-.51.48-1.03.67-1.56.16-.45.3-.9.41-1.37.04-.19.07-.38.1-.57h0,0c.04-.21.09-.41.11-.62.06-.48.1-.96.1-1.45,0-.62-.05-1.26-.16-1.89-.13-.78-.35-1.56-.63-2.33-.33-.9-.75-1.79-1.22-2.66-.24-.43-.48-.86-.74-1.29.26.43.5.86.74,1.29.47.87.89,1.76,1.22,2.66.28.78.5,1.56.63,2.33.11.64.16,1.27.16,1.89,0,.49-.03.97-.1,1.45-.03.21-.08.41-.11.62l12.85,2.8c.52.11,1.03.24,1.52.39.5.15.98.32,1.45.5.24.09.47.19.7.29.11.05.23.1.34.16.11.05.22.11.33.16.44.22.86.45,1.27.7.27.16.52.33.77.51l6.62-13.55c.79-1.61,3.19-2.54,5.36-2.06l4.64,1.01c3.26.71,6.86-.68,8.04-3.1l4.57-9.34c1.18-2.42-.5-4.95-3.76-5.66l.56,5.77c1,.22,1.88.62,2.58,1.16-.7-.55-1.59-.95-2.58-1.16l-45.93-10c0,.13,0,.26,0,.39-.03.88-.08,1.76-.17,2.62-.08.77-.2,1.53-.38,2.27-.19.81-.45,1.59-.76,2.35-.34.81-.75,1.58-1.2,2.33-.45.75-.93,1.48-1.41,2.19-.41.61-.82,1.22-1.19,1.83-.25.42-.48.84-.67,1.27-.17.37-.31.73-.42,1.1-.12.4-.21.81-.25,1.23-.04.35-.05.7-.03,1.06-.02-.36,0-.71.03-1.06.04-.42.13-.83.25-1.23.11-.37.26-.74.42-1.1.19-.42.42-.85.67-1.27.36-.61.77-1.21,1.19-1.83.48-.71.96-1.44,1.41-2.19.45-.75.86-1.52,1.2-2.33.32-.75.57-1.54.76-2.35.17-.74.29-1.5.38-2.27.09-.87.14-1.75.17-2.62,0-.13,0-.26,0-.39h0s0,0,0,0c0-.36.02-.72.02-1.08,0,.36-.01.72-.02,1.08l45.93,10-.56-5.77-44.93-9.78c-.01.19-.01.39-.02.58-.09,1.44-.25,2.88-.46,4.31-.19,1.27-.41,2.52-.68,3.75-.15.69-.32,1.37-.52,2.04-.2.64-.43,1.26-.69,1.85-.26.57-.55,1.12-.88,1.65-.31.5-.65.98-1.01,1.44-.4.52-.82,1.02-1.22,1.5-.4.48-.79.94-1.15,1.4-.39.5-.73,1.01-.99,1.53-.09.17-.17.35-.24.53.07-.18.15-.35.24-.53.27-.52.61-1.03.99-1.53.35-.46.74-.93,1.15-1.4.4-.48.82-.97,1.22-1.5.35-.46.69-.94,1.01-1.44.33-.53.62-1.08.88-1.65.27-.59.5-1.21.69-1.85.2-.66.37-1.34.52-2.04.27-1.22.5-2.48.68-3.75.21-1.42.37-2.87.46-4.31.01-.19.01-.39.02-.58h-.01s.01,0,.01,0c.04-.7.07-1.4.08-2.1-.01.7-.05,1.4-.08,2.1l44.93,9.78c3.26.71,4.94,3.25,3.76,5.66l-4.57,9.34c-1.18,2.42-4.78,3.8-8.04,3.1l-4.64-1.01c-2.17-.47-4.57.45-5.36,2.06l-6.62,13.55s0,0,.01,0c0,0,0,0-.01,0l-1.01,2.07s.01,0,.02,0c0,0-.01,0-.02,0l-.96,1.97s.01,0,.01,0c0,0,0,0-.01,0l-3.49,7.14s0,0,.01,0c0,0,0,0-.01,0l-1.27,2.6c-.79,1.61.33,3.3,2.5,3.78l5.51,1.2c2.17.47,3.29,2.16,2.5,3.78l-1.1,2.26h0l-12.17,24.9c-.79,1.61-3.19,2.54-5.36,2.06l-57.41-12.5c-.3-.07-.58-.16-.84-.27h0s0,0,0,0c-.62-.26-1.1-.64-1.43-1.08v.02s0-.02,0-.02c-.52-.7-.65-1.57-.23-2.42l2.32-4.74c.2-.4.27-.81.25-1.2h0c-.09-1.18-1.12-2.22-2.75-2.58-.15-.03-.31-.06-.46-.08-.24-.03-.47-.07-.7-.12l-22.04-4.8c-1.8-.39-3.82.18-4.89,1.38-.29.33-.68.59-1.05.85,1.53,10.91,4.79,21.26,9.51,30.76l22.17,4.83c4.68,1.02,9.93-.11,13.37-2.89,4.26-3.44,10.44-5.25,16.54-4.83,10.27.7,17.29,7.37,15.68,14.9.12,1.32.24,2.65.36,3.97-.12-1.32-.24-2.65-.36-3.97-.19.9-.2,1.79-.03,2.67.17.87.5,1.68,1,2.46l-.41-4.3s0,0,0,0c0,0,0,0,0,0l-.38-3.9.38,3.9c1.15,1.79,1.76,3.77,1.78,5.79-.03-2.03-.63-4-1.78-5.79l.41,4.3s.01.03.02.04c.51.79,1.18,1.5,1.99,2.13.81.63,1.74,1.16,2.79,1.58l61.55,24.95c31.73-15.6,54.08-47.35,56.33-84.53Z" style="fill:none; stroke:#fff; stroke-linecap:round; stroke-linejoin:round; stroke-width:.5px;"/><path d="M85.01,112.18c-.03-.13-.05-.25-.08-.38.03.13.05.25.08.38Z" style="fill:none; stroke:#fff; stroke-linecap:round; stroke-linejoin:round; stroke-width:.5px;"/><path d="M88.62,87.72c.01.06.02.11.03.16-.01-.06-.02-.11-.03-.16Z" style="fill:none; stroke:#fff; stroke-linecap:round; stroke-linejoin:round; stroke-width:.5px;"/><path d="M88.45,86.64c.1.3.19.6.26.91-.07-.3-.15-.6-.26-.91Z" style="fill:none; stroke:#fff; stroke-linecap:round; stroke-linejoin:round; stroke-width:.5px;"/><path d="M83.91,100.2c-.34.72-.6,1.46-.82,2.19-.24.82-.44,1.64-.6,2.44-.18.87-.32,1.73-.42,2.58-.1.83-.17,1.65-.18,2.5,0,.62.02,1.26.09,1.91-.07-.65-.1-1.28-.09-1.91.01-.84.08-1.67.18-2.5.1-.85.25-1.71.42-2.58.16-.8.36-1.61.6-2.44.22-.73.47-1.47.82-2.19.3-.62.66-1.24,1.07-1.83.41-.6.87-1.18,1.35-1.75.52-.63,1.04-1.27,1.53-1.94.17-.23.33-.46.48-.7-.16.24-.32.47-.48.7-.49.67-1.01,1.31-1.53,1.94-.47.58-.93,1.16-1.35,1.75-.41.59-.78,1.21-1.07,1.83Z" style="fill:none; stroke:#fff; stroke-linecap:round; stroke-linejoin:round; stroke-width:.5px;"/><path d="M84.98,101.87s0,.05.01.08c0-.03,0-.05-.01-.08Z" style="fill:none; stroke:#fff; stroke-linecap:round; stroke-linejoin:round; stroke-width:.5px;"/><path d="M86.82,74.82c.17-.66.41-1.3.66-1.93,0-.01,0-.03,0-.04,0,.01,0,.03,0,.04.03-.08.05-.16.08-.24.31-.75.65-1.49.99-2.22.26-.56.51-1.12.76-1.68-.24.56-.5,1.12-.76,1.68-.34.73-.68,1.47-.99,2.22-.03.08-.05.16-.08.24,0,.02,0,.05-.01.07-.11.85-.15,1.73-.09,2.64.11.35.23.69.37,1.04.35.92.77,1.84,1.2,2.76.43.93.86,1.87,1.25,2.81.38.93.73,1.86.99,2.79.25.9.43,1.79.5,2.67.08.91.05,1.8-.08,2.65-.13.82-.36,1.6-.67,2.35-.3.73-.67,1.42-1.08,2.07-.42.65-.87,1.26-1.34,1.85-.47.59-.94,1.15-1.39,1.72-.48.6-.91,1.21-1.27,1.82-.31.53-.56,1.07-.78,1.62.21-.54.47-1.09.78-1.62.36-.62.8-1.22,1.27-1.82.44-.56.92-1.12,1.39-1.72.46-.58.92-1.19,1.34-1.85.41-.65.78-1.34,1.08-2.07.31-.75.54-1.53.67-2.35.14-.85.16-1.74.08-2.65-.08-.88-.25-1.77-.5-2.67-.26-.93-.61-1.86-.99-2.79-.39-.94-.82-1.87-1.25-2.81-.42-.93-.85-1.85-1.2-2.76-.13-.35-.25-.7-.37-1.04,0,.02,0,.03,0,.05.07.98.26,1.99.52,2.99.27,1.05.63,2.09.97,3.13.36,1.09.72,2.18.99,3.26.23.91.4,1.82.46,2.7.06.88.02,1.74-.13,2.54-.13.72-.36,1.39-.64,2.02-.18.41-.4.8-.62,1.17.23-.37.44-.76.62-1.17.28-.63.5-1.3.64-2.02.15-.8.19-1.66.13-2.54-.06-.88-.23-1.79-.46-2.7-.27-1.08-.62-2.17-.99-3.26-.34-1.04-.7-2.08-.97-3.13-.26-1-.46-2.01-.52-2.99,0-.02,0-.03,0-.05-.02-.06-.04-.11-.06-.17.02.06.04.11.06.17-.06-.91-.02-1.79.09-2.64,0-.02,0-.05.01-.07-.25.63-.49,1.27-.66,1.93-.18.7-.3,1.43-.34,2.16-.03.72.02,1.46.13,2.19.11.73.28,1.47.48,2.19.2.72.42,1.43.63,2.13.3.98.59,1.94.79,2.87.09.42.16.83.21,1.24-.05-.4-.12-.82-.21-1.24-.2-.93-.49-1.89-.79-2.87-.22-.7-.44-1.41-.63-2.13-.2-.72-.37-1.45-.48-2.19-.11-.73-.16-1.46-.13-2.19.03-.74.16-1.46.34-2.16Z" style="fill:none; stroke:#fff; stroke-linecap:round; stroke-linejoin:round; stroke-width:.5px;"/><path d="M88.04,29.71c.05-.52.16-1.03.31-1.52.17-.56.41-1.1.69-1.6.25-.46.54-.9.85-1.33.26-.37.53-.73.79-1.09.22-.31.44-.61.64-.93.2-.32.4-.66.56-1.03.16-.35.29-.71.39-1.1.11-.42.17-.87.18-1.35.02-.54-.03-1.11-.13-1.7-.11-.71-.3-1.45-.51-2.2-.25-.89-.55-1.8-.82-2.72-.24-.8-.45-1.62-.61-2.44.16.82.38,1.63.61,2.44.27.92.57,1.83.82,2.72.21.75.4,1.49.51,2.2.1.59.14,1.16.13,1.7-.01.48-.08.93-.18,1.35-.1.39-.23.76-.39,1.1-.16.36-.36.7-.56,1.03-.2.32-.42.63-.64.93-.26.36-.53.72-.79,1.09-.3.43-.59.87-.85,1.33-.28.51-.52,1.04-.69,1.6-.15.49-.25,1-.31,1.52-.04.37-.05.76-.05,1.14,0-.38,0-.77.05-1.14Z" style="fill:none; stroke:#fff; stroke-linecap:round; stroke-linejoin:round; stroke-width:.5px;"/><path d="M87.49,33.52c.06-.66.14-1.32.29-1.97.12-.53.29-1.07.51-1.58.22-.51.5-1.01.82-1.48.37-.55.78-1.07,1.23-1.59.49-.58,1.02-1.16,1.51-1.77.46-.57.89-1.17,1.24-1.82.31-.58.56-1.19.72-1.85.09-.36.15-.74.19-1.14.01-.15.02-.31.03-.46,0,.16-.01.31-.03.46-.04.39-.1.77-.19,1.14-.16.66-.41,1.27-.72,1.85-.35.65-.78,1.25-1.24,1.82-.49.61-1.02,1.19-1.51,1.77-.44.52-.86,1.04-1.23,1.59-.32.47-.59.97-.82,1.48-.22.51-.39,1.04-.51,1.58-.15.66-.23,1.31-.29,1.97-.07.78-.1,1.55-.1,2.33,0,.48.01.96.04,1.44-.02-.48-.04-.96-.04-1.44,0-.78.03-1.55.1-2.33Z" style="fill:none; stroke:#fff; stroke-linecap:round; stroke-linejoin:round; stroke-width:.5px;"/><path d="M90.82,28.85s0-.08,0-.12c0,.04,0,.08,0,.12Z" style="fill:none; stroke:#fff; stroke-linecap:round; stroke-linejoin:round; stroke-width:.5px;"/><path d="M87.33,37.81c.23-1.3.55-2.63.97-4,.24-.78.51-1.56.88-2.33.37-.78.84-1.53,1.38-2.28.36-.5.76-1,1.15-1.51-.4.51-.79,1-1.15,1.51-.54.74-1.01,1.5-1.38,2.28-.37.77-.64,1.56-.88,2.33-.42,1.37-.74,2.7-.97,4-.22,1.23-.37,2.43-.43,3.65-.04.92-.03,1.85.02,2.79-.05-.95-.06-1.87-.02-2.79.06-1.22.2-2.43.43-3.65Z" style="fill:none; stroke:#fff; stroke-linecap:round; stroke-linejoin:round; stroke-width:.5px;"/><path d="M89.46,35.43c-.3.96-.6,1.88-.89,2.78-.44,1.39-.85,2.72-1.18,4.01-.33,1.27-.58,2.5-.76,3.72-.17,1.21-.25,2.41-.25,3.62,0,.46.01.93.03,1.4-.02-.47-.03-.94-.03-1.4,0-1.22.08-2.42.25-3.62.17-1.22.43-2.45.76-3.72.33-1.29.74-2.62,1.18-4.01.29-.9.59-1.83.89-2.78.16-.52.33-1.06.5-1.6,0-.02,0-.04,0-.07,0,.02,0,.04,0,.07,0-.01,0-.03.01-.04,0,.01,0,.03-.01.04,0,.01,0,.03,0,.04,0-.01,0-.03,0-.04-.18.54-.34,1.07-.5,1.6Z" style="fill:none; stroke:#fff; stroke-linecap:round; stroke-linejoin:round; stroke-width:.5px;"/><path d="M81.5,74.78c-.06-.73.01-1.44.19-2.1.18-.68.47-1.3.83-1.89.42-.68.92-1.31,1.46-1.95.53-.63,1.08-1.27,1.58-1.97.46-.65.87-1.36,1.21-2.12.31-.7.56-1.44.81-2.21.02-.05.03-.11.05-.16-.02.05-.03.11-.05.16-.24.76-.5,1.51-.81,2.21-.34.76-.75,1.47-1.21,2.12-.5.7-1.05,1.34-1.58,1.97-.53.64-1.04,1.27-1.46,1.95-.36.59-.65,1.21-.83,1.89-.17.66-.25,1.36-.19,2.1.05.59.18,1.2.39,1.8-.21-.61-.34-1.21-.39-1.8Z" style="fill:none; stroke:#fff; stroke-linecap:round; stroke-linejoin:round; stroke-width:.5px;"/><path d="M85.75,69.16c-.2.25-.41.49-.61.74h0s0,0,0,0c-.25.3-.49.59-.73.89-.22.27-.41.55-.61.83,0,.1-.02.2-.02.3,0-.1.01-.2.02-.3-.2.27-.42.53-.6.81-.36.56-.66,1.14-.88,1.75-.18.51-.31,1.04-.36,1.58-.05.45-.04.91,0,1.38.05.43.13.86.25,1.28.13.49.31.97.52,1.45.29.66.64,1.32,1.03,1.96.26.43.52.85.8,1.27-.27-.42-.54-.84-.8-1.27-.38-.64-.74-1.3-1.03-1.96-.21-.48-.38-.96-.52-1.45-.12-.43-.2-.86-.25-1.28-.05-.47-.05-.93,0-1.38.05-.55.18-1.07.36-1.58.22-.61.52-1.19.88-1.75.18-.28.4-.54.6-.81,0-.02,0-.03,0-.05,0,.02,0,.03,0,.05.21-.28.39-.56.61-.83.24-.3.49-.59.73-.89,0-.04,0-.07.01-.11,0,.04,0,.07-.01.11.21-.25.41-.49.61-.74.28-.35.56-.7.83-1.07-.26.37-.54.72-.83,1.07Z" style="fill:none; stroke:#fff; stroke-linecap:round; stroke-linejoin:round; stroke-width:.5px;"/><path d="M92.32,47.64c-.09,1.34-.23,2.68-.42,4-.18,1.24-.39,2.46-.65,3.66-.23,1.11-.49,2.19-.77,3.25-.26.96-.53,1.9-.8,2.83-.24.83-.49,1.64-.76,2.42-.28.81-.58,1.58-.94,2.3-.4.79-.88,1.51-1.39,2.17-.06.08-.13.17-.19.25.07-.08.13-.16.19-.25.51-.66.99-1.38,1.39-2.17.36-.72.67-1.49.94-2.3.27-.78.51-1.59.76-2.42.27-.92.55-1.86.8-2.83.28-1.06.54-2.14.77-3.25.25-1.2.47-2.42.65-3.66.19-1.32.33-2.66.42-4,.06-1,.1-1.99.11-2.99,0,.99-.04,1.99-.11,2.99Z" style="fill:none; stroke:#fff; stroke-linecap:round; stroke-linejoin:round; stroke-width:.5px;"/><path d="M92.93,38.71c-.04,1.53-.15,3.06-.32,4.59-.16,1.44-.39,2.86-.66,4.25-.26,1.33-.56,2.63-.89,3.89-.3,1.17-.63,2.31-.97,3.4-.38,1.23-.76,2.42-1.13,3.56-.41,1.27-.79,2.48-1.13,3.66-.04.13-.07.26-.11.39.04-.13.07-.26.11-.39.34-1.17.72-2.39,1.13-3.66.37-1.14.75-2.32,1.13-3.56.33-1.1.66-2.24.97-3.4.33-1.26.63-2.56.89-3.89.27-1.39.5-2.82.66-4.25.17-1.52.28-3.06.32-4.59,0-.32.02-.63.02-.95,0,.32-.01.63-.02.95Z" style="fill:none; stroke:#fff; stroke-linecap:round; stroke-linejoin:round; stroke-width:.5px;"/><path d="M93.24,35.2c-.11,1.26-.27,2.51-.48,3.74-.27,1.61-.6,3.19-.98,4.72-.39,1.59-.83,3.12-1.28,4.58-.45,1.46-.91,2.86-1.33,4.19-.15.46-.29.92-.43,1.37.14-.45.28-.91.43-1.37.42-1.33.88-2.73,1.33-4.19.45-1.46.89-3,1.28-4.58.38-1.53.71-3.11.98-4.72.2-1.23.37-2.48.48-3.74.1-1.12.14-2.25.21-3.36-.07,1.11-.12,2.24-.21,3.36Z" style="fill:none; stroke:#fff; stroke-linecap:round; stroke-linejoin:round; stroke-width:.5px;"/><path d="M93.74,30.6c-.42,1.43-.71,2.9-1.02,4.33-.29,1.32-.61,2.6-.95,3.85-.31,1.13-.64,2.22-.98,3.28-.3.96-.6,1.89-.89,2.8-.23.72-.45,1.42-.67,2.11.21-.69.43-1.39.67-2.11.29-.91.59-1.84.89-2.8.33-1.06.66-2.16.98-3.28.34-1.25.66-2.53.95-3.85.32-1.43.6-2.91,1.02-4.33.27-.92.61-1.83.95-2.72-.34.89-.67,1.79-.95,2.72Z" style="fill:none; stroke:#fff; stroke-linecap:round; stroke-linejoin:round; stroke-width:.5px;"/><path d="M109.46,18.71c-1.61,1.8-4.64,2.65-7.34,2.07l-4.81-1.05c0,.24.04.48.03.72-.03.68-.13,1.35-.28,2-.18.81-.45,1.59-.77,2.35-.38.89-.83,1.75-1.31,2.58-.56.97-1.16,1.92-1.68,2.89-.55,1.02-1.02,2.06-1.41,3.1-.39,1.04-.69,2.08-1,3.08-.31,1-.63,1.96-.92,2.88-.05.15-.1.31-.14.46.05-.15.1-.31.14-.46.29-.93.61-1.89.92-2.88.31-1,.61-2.04,1-3.08.39-1.04.86-2.08,1.41-3.1.52-.97,1.12-1.92,1.68-2.89.48-.84.94-1.69,1.31-2.58.32-.76.58-1.54.77-2.35.15-.65.25-1.32.28-2,.01-.24-.03-.48-.03-.72h0,0c0-.41,0-.81-.05-1.23-.07-.58-.19-1.15-.36-1.73-.18-.65-.42-1.3-.7-1.94-.27-.61-.57-1.2-.9-1.79.33.59.63,1.19.9,1.79.28.64.52,1.29.7,1.94.16.58.28,1.16.36,1.73.05.41.04.82.05,1.23l4.81,1.05c2.7.59,5.73-.26,7.34-2.07,1.07-1.2,3.09-1.77,4.89-1.38-1.8-.39-3.82.18-4.89,1.38Z" style="fill:none; stroke:#fff; stroke-linecap:round; stroke-linejoin:round; stroke-width:.5px;"/><path d="M53.75,108.01l-.56-5.77c-1.79-.39-3.79.17-4.87,1.35l.56,5.77c1.08-1.19,3.08-1.74,4.87-1.35Z" style="fill:none; stroke:#fff; stroke-linecap:round; stroke-linejoin:round; stroke-width:.5px;"/><path d="M55.72,108.44v-.06s-.03-.02-.03-.04c0,.01.02.02.03.04l-.55-5.71-1.97-.43.56,5.77,1.97.43Z" style="fill:none; stroke:#fff; stroke-linecap:round; stroke-linejoin:round; stroke-width:.5px;"/><path d="M169.9,81.58l37.98,15.46c-.18-1.96-.4-3.9-.69-5.83l-37.84-15.4.56,5.77Z" style="fill:none; stroke:#fff; stroke-linecap:round; stroke-linejoin:round; stroke-width:.5px;"/><path d="M48.88,109.37l-.56-5.77c-1.08,1.19-3.08,1.74-4.87,1.35l.56,5.77c1.79.39,3.79-.17,4.87-1.35Z" style="fill:none; stroke:#fff; stroke-linecap:round; stroke-linejoin:round; stroke-width:.5px;"/><path d="M44.01,110.72l-.56-5.77-36.8-8.01c-.17,1.84-.29,3.7-.36,5.57l37.72,8.21Z" style="fill:none; stroke:#fff; stroke-linecap:round; stroke-linejoin:round; stroke-width:.5px;"/><path d="M46.68,187.38l1.22-16.49-22.27-4.85c5.93,8.11,13.02,15.31,21.05,21.34Z" style="fill:none; stroke:#fff; stroke-linecap:round; stroke-linejoin:round; stroke-width:.5px;"/><path d="M76.41,13.89l-.34-3.56s-.02,0-.04.01c-.58,1.25-.39,2.52.38,3.55Z" style="fill:none; stroke:#fff; stroke-linecap:round; stroke-linejoin:round; stroke-width:.5px;"/><path d="M87.96,117.1s0,.02,0,.03c-.01-.12-.03-.23-.04-.35-.15-1.37-.28-2.73-.36-4.06-.02-.28-.03-.55-.05-.83-.02.21-.04.42-.07.64-.13,1.21-.23,2.43-.29,3.65-.05.91-.08,1.82-.08,2.73l1.13.25c-.09-.67-.16-1.35-.24-2.02,0-.01,0-.02,0-.03Z" style="fill:none; stroke:#fff; stroke-linecap:round; stroke-linejoin:round; stroke-width:.5px;"/><path d="M67.94,73.55l-.35-3.59c-.6,1.22-.44,2.51.35,3.59Z" style="fill:none; stroke:#fff; stroke-linecap:round; stroke-linejoin:round; stroke-width:.5px;"/><path d="M87.59,10.23c.22.7.52,1.39.87,2.06.38.75.82,1.47,1.26,2.18.2.33.41.66.61.98-.05-.13-.09-.25-.15-.38-.3-.73-.6-1.48-.86-2.25-.22-.66-.42-1.34-.55-2.02-.14-.75-.21-1.51-.18-2.26.02-.49.15-.96.25-1.44-.52.1-1.06.18-1.58.28-.02.29-.09.56-.07.85.05.66.19,1.33.4,1.99Z" style="fill:none; stroke:#fff; stroke-linecap:round; stroke-linejoin:round; stroke-width:.5px;"/><path d="M161.69,33.17l-.51-5.28c-1.47,1.77-1.16,3.88.51,5.28Z" style="fill:none; stroke:#fff; stroke-linecap:round; stroke-linejoin:round; stroke-width:.5px;"/><path d="M83.45,57.77l-.56-5.77c-3.26-.71-6.86.68-8.04,3.1l.56,5.77c1.18-2.42,4.78-3.8,8.04-3.1Z" style="fill:none; stroke:#fff; stroke-linecap:round; stroke-linejoin:round; stroke-width:.5px;"/><path d="M161.69,33.17c.09.07.18.15.27.22l6.24-7.54c-1.09-.83-2.21-1.62-3.34-2.41l-3.68,4.46.51,5.28Z" style="fill:none; stroke:#fff; stroke-linecap:round; stroke-linejoin:round; stroke-width:.5px;"/><path d="M76.41,13.89c.23.31.51.59.84.84l2.73-5.58c-1.31.37-2.62.75-3.91,1.17l.34,3.56Z" style="fill:none; stroke:#fff; stroke-linecap:round; stroke-linejoin:round; stroke-width:.5px;"/><path d="M39.64,131.67l-.55-5.71c.03.39-.05.8-.25,1.2l.56,5.77c.2-.41.28-.84.24-1.26Z" style="fill:none; stroke:#fff; stroke-linecap:round; stroke-linejoin:round; stroke-width:.5px;"/><path d="M39.09,125.95h0s0,0,0,0Z" style="fill:none; stroke:#fff; stroke-linecap:round; stroke-linejoin:round; stroke-width:.5px;"/><path d="M38.84,127.16l-2.32,4.74.23,2.42c.33.44.81.82,1.43,1.08l1.21-2.47-.56-5.77Z" style="fill:none; stroke:#fff; stroke-linecap:round; stroke-linejoin:round; stroke-width:.5px;"/><path d="M36.76,134.31l-.23-2.42c-.42.85-.29,1.72.23,2.42Z" style="fill:none; stroke:#fff; stroke-linecap:round; stroke-linejoin:round; stroke-width:.5px;"/><path d="M85.88,91.42c.18-.51.34-1.01.43-1.52.01-.07,0-.15.01-.23l-8.35-1.82c.09.96.19,1.92.28,2.88l7.29,1.59c.11-.3.23-.61.34-.9Z" style="fill:none; stroke:#fff; stroke-linecap:round; stroke-linejoin:round; stroke-width:.5px;"/><path d="M113.98,121.21l1.1-2.26c.79-1.61-.33-3.3-2.5-3.78l.56,5.77c.3.06.58.15.84.27Z" style="fill:none; stroke:#fff; stroke-linecap:round; stroke-linejoin:round; stroke-width:.5px;"/><path d="M68.93,92.52c.91-.2,1.84-.34,2.77-.41.93-.07,1.87-.08,2.8-.01.93.06,1.84.19,2.72.38l7.51,1.64c.11-.16.22-.33.33-.49,0,0,0,0,0,0,.15-.45.32-.87.49-1.3l-7.29-1.59c-.52-.11-1.05-.21-1.58-.28-.53-.07-1.07-.13-1.61-.16-.54-.04-1.09-.05-1.64-.05-.14,0-.28,0-.41,0-.14,0-.28,0-.41.01-.28.01-.55.03-.82.05-.55.04-1.09.1-1.63.18-.48.07-.96.16-1.43.26l-1.02,2.09c.4-.12.81-.22,1.23-.32Z" style="fill:none; stroke:#fff; stroke-linecap:round; stroke-linejoin:round; stroke-width:.5px;"/><path d="M32.04,42.24c-2.68.93-4.86,2.49-6.21,4.37-.03.05-.07.1-.1.14-.42.6-.75,1.23-.99,1.89,2,3.44,6.89,5.61,12.43,5.08,5.54-.53,9.93-3.6,11.23-7.36-2.69-4.49-9.99-6.33-16.37-4.11Z" style="fill:none; stroke:#fff; stroke-linecap:round; stroke-linejoin:round; stroke-width:.5px;"/><path d="M32.04,42.24c6.37-2.22,13.68-.37,16.37,4.11.32-.93.51-1.9.41-2.9-.48-5-6.48-8.51-13.39-7.84-.09,0-.18.04-.27.05-3.36,3.42-6.48,7.08-9.33,10.95,1.35-1.88,3.53-3.43,6.21-4.37Z" style="fill:none; stroke:#fff; stroke-linecap:round; stroke-linejoin:round; stroke-width:.5px;"/><path d="M25.73,46.75c-.39.53-.76,1.07-1.14,1.6.05.09.1.19.15.28.24-.65.57-1.29.99-1.89Z" style="fill:none; stroke:#fff; stroke-linecap:round; stroke-linejoin:round; stroke-width:.5px;"/></svg>