<svg xmlns="http://www.w3.org/2000/svg" viewBox="0 0 149.77 146.74" xmlns:v="https://vecta.io/nano"><style><![CDATA[.I{stroke-linejoin:round}.J{stroke-width:.37}.K{stroke-width:.51}.L{stroke-linecap:round}]]></style><defs><clipPath id="A"><circle cx="74.89" cy="73.37" r="64.97" fill="none" stroke-width="0"/></clipPath><linearGradient id="B" x1=".23" y1="87.77" x2="9.1" y2="87.77" gradientUnits="userSpaceOnUse"><stop offset="0" stop-color="#1490ed" stop-opacity="0"/><stop offset=".92" stop-color="#1490ed"/></linearGradient><path id="C" d="M48.64 74.49c-.89-.96-2.39-1.01-3.36-.12s-1.03 2.4-.15 3.36 2.39 1.01 3.36.12 1.03-2.4.15-3.36z"/><path id="D" d="M46.7 94.54h0l.02.02.02.02.02.02.02.02s0 .01.01.02"/><path id="E" d="M45.28 95.55v.05.05.05.05.05.05.05.05.05.23.23.23.22.09.09.27"/><path id="F" d="M45.13 95.23v-.06c0-.03-.02-.07-.04-.11"/><path id="G" d="M44.81 97.04l.11.03c.03.01.04.03.05.04"/><path id="H" d="M46.84 94.4s.02 0 .03-.03a.35.35 0 0 0 .06-.09"/><path id="I" d="M46.39 98.25l.08-.07c.02-.01.04-.01.06 0"/><path id="J" d="M48.24 97.48s-.02-.07-.02-.09 0-.03.02-.03"/><path id="K" d="M46.89 98.25s-.04-.06-.06-.07-.03-.01-.03 0"/><path id="L" d="M44.81 97.04v-.05-.05-.05-.05-.05-.05-.05-.05-.05-.05-.05-.05-.05-.05-.05-.1-.1-.1-.1-.1-.3"/><path id="M" d="M46.44 94.28h.03.02.02.02.02.02.02.02.02.02.02.02.02.02.03.03.03.03c.01 0 .02 0 .03.01.01 0 .02 0 .03.01.01 0 .02 0 .03.01 0 0 .02.01.03.02"/><path id="N" d="M48.51 95.5v.06.05.05.05.05.05.05.05.05.05.05.05.05.05.05.1.1.09.09.09.3"/><path id="O" d="M102.29 94.54h-.02-.02-.02-.02-.02-.02-.02-.02-.06"/><path id="P" d="M101.89 94.42h.03.04.04.04.04.04.04.05.03.03.03c.01 0 .02 0 .03.01.01 0 .02 0 .03.01.01 0 .02 0 .03.01 0 0 .02.01.03.02"/><path id="Q" d="M48.63 75.41s-.03-.02-.04-.03c-.01 0-.03-.02-.04-.03-.01 0-.03-.02-.04-.03-.01 0-.03-.02-.04-.02s-.03-.02-.04-.02-.03-.02-.04-.02-.03-.02-.04-.02-.03-.02-.04-.02-.03-.02-.04-.02a1.86 1.86 0 0 0-.19-.11 1.86 1.86 0 0 0-.19-.11l-.2-.11c-.07-.03-.13-.08-.2-.11-.03-.01-.05-.03-.08-.04s-.05-.03-.08-.04-.05-.03-.08-.04-.05-.03-.08-.04l-.08-.05"/><path id="R" d="M49.53 76.11c0-.35-.06-.69-.19-1.01s-.32-.61-.56-.85a2.41 2.41 0 0 0-.84-.57c-.32-.14-.65-.21-1-.21s-.69.06-1.02.19-.63.33-.88.58c-.13.13-.24.26-.34.41-.05.07-.09.15-.14.23l-.11.24c-.13.32-.2.64-.2.99 0 .17.01.34.04.51s.07.32.14.49c.13.33.32.62.57.87s.54.45.87.58c.16.07.33.12.5.15a3.05 3.05 0 0 0 .52.05c.35 0 .68-.07 1.01-.2.32-.13.61-.32.85-.57.25-.25.44-.53.58-.85s.21-.66.21-1.01z"/><path id="S" d="M106.64 103.71a2.67 2.67 0 0 0 2.67-2.63"/><path id="T" d="M93.77,90.15c.2.21.53.22.74.03s.23-.53.03-.74c-.2-.21-.53-.22-.74-.03s-.23.53-.03.74Z"/></defs><g clip-path="url(#A)"><path d="M36.97,61.36c-.8-.13-1.61-.19-2.42-.13-.4.03-.81.08-1.2.15-.37.06-.71.15-1.08.11-.34-.03-.62.31-.62.62,0,.37.29.59.62.62.73.07,1.47-.2,2.2-.25.72-.05,1.46-.03,2.18.08.33.05.67-.09.77-.44.08-.3-.1-.71-.44-.77Z" fill="#5e5e5e"/><path d="M36.99 58.7l-2.72-.14c-.89-.05-1.79-.07-2.66.16-.78.2-.45 1.41.33 1.21.79-.21 1.62-.15 2.43-.11l2.62.13c.34.02.62-.3.62-.62a.63.63 0 0 0-.62-.62z" fill="#f4192e"/><path d="M9.34 87.44l.33 1.85H4.24l-4.37-.7-.42-1.17v-1.16l5.57.67 2.79.64 1.53-.13z" fill="url(#B)"/><g fill="none" stroke="#ececec" class="I"><g class="J L"><path d="M46.7 94.54l-.13-.14m-1.44.83l.12.13m-.13.23l-.13-.13m-.02 1.66l.13.13m1.74-2.85l.12.14m55.19.13l-.13-.13m-1.45.82l.13.14m-.13.23l-.13-.14m-.02 1.66l.13.14m1.74-2.85l.12.13M46.94 74.39l-.13-.14m-1.45.83l.13.14m-.14.22l-.12-.13m-.02 1.66l.12.13m1.74-2.85l.13.14m55.4-18.34l-.12-.13m-1.45.82l.12.14m-.13.23l-.13-.14m-.02 1.66l.13.14m1.74-2.85l.13.13"/></g><g class="K"><path d="M46.77 96.69c.08.08.21.09.3.01s.09-.21.01-.29-.21-.09-.29-.01c-.09.08-.09.21-.01.29z"/><path d="M43.17,99.91c1.87,2.02,5.04,2.14,7.09.25s2.18-5.06.31-7.09-5.04-2.14-7.09-.25c-2.04,1.89-2.18,5.06-.31,7.09Z"/></g><g class="J L"><path d="M45.25 95.36c-.08.05-.13.13-.13.23m1.84-1.05c-.08-.05-.18-.05-.26 0"/></g><path d="M45.1,97.7c.79.85,2.12.9,2.97.1s.92-2.12.13-2.97c-.78-.85-2.12-.9-2.97-.1s-.92,2.12-.13,2.97Z" class="J"/><path d="M48.4 94.63c-.89-.96-2.39-1.01-3.36-.12s-1.03 2.4-.15 3.36c.89.96 2.39 1.01 3.36.12s1.03-2.4.15-3.36z" class="J"/><g class="K"><path d="M102.21 96.82c.08.08.21.09.29.01s.09-.21.01-.29-.21-.09-.3-.01c-.08.08-.09.21-.01.29z"/><path d="M98.62,100.05c1.87,2.02,5.04,2.14,7.09.25,2.04-1.89,2.18-5.06.31-7.09s-5.04-2.14-7.09-.25c-2.04,1.89-2.18,5.06-.31,7.09Z"/></g><g class="J L"><path d="M100.7 95.5c-.08.05-.13.13-.13.23m1.84-1.06c-.08-.05-.18-.05-.26 0"/></g><path d="M100.55 97.83c.79.85 2.12.9 2.97.1s.92-2.12.13-2.97-2.12-.9-2.97-.1-.92 2.12-.13 2.97z" class="J"/><path d="M103.85,94.77c-.89-.96-2.39-1.01-3.36-.12s-1.03,2.4-.15,3.36c.89.96,2.39,1.01,3.36.12s1.03-2.4.15-3.36Z" class="J"/><g class="K"><path d="M47 76.54c.08.08.21.09.3.01s.09-.21.01-.29-.21-.09-.3-.01c-.08.08-.09.21-.01.29z"/><path d="M43.41,79.76c1.87,2.02,5.04,2.14,7.09.25,2.04-1.89,2.18-5.06.31-7.09s-5.04-2.14-7.09-.25c-2.04,1.89-2.18,5.06-.31,7.09Z"/></g><g class="J L"><path d="M45.49 75.22c-.08.05-.13.13-.13.23m1.84-1.06c-.08-.05-.18-.05-.26 0"/></g><path d="M45.34 77.55c.78.85 2.12.9 2.97.1s.92-2.12.13-2.97-2.12-.9-2.97-.1-.92 2.12-.13 2.97z" class="J"/><use href="#C" class="J"/><g class="K"><path d="M102.67 58.2c.08.08.21.09.29.01.09-.08.09-.21.01-.29s-.21-.09-.29-.01c-.09.08-.09.21-.01.29z"/><path d="M99.07,61.43c1.87,2.02,5.04,2.14,7.09.25,2.04-1.89,2.18-5.06.31-7.09s-5.04-2.14-7.09-.25c-2.04,1.89-2.18,5.06-.31,7.09Z"/></g><g class="J L"><path d="M101.15 56.88c-.08.05-.13.13-.13.23m1.85-1.06c-.08-.05-.18-.05-.26 0"/></g><path d="M101.01,59.21c.79.85,2.12.9,2.97.1s.92-2.12.13-2.97c-.78-.85-2.12-.9-2.97-.1s-.92,2.12-.13,2.97Z" class="J"/><path d="M104.31 56.15c-.89-.96-2.39-1.01-3.36-.12s-1.03 2.4-.15 3.36 2.39 1.01 3.36.12 1.03-2.4.15-3.36z" class="J"/><g class="L"><g class="K"><use href="#D"/><path d="M45.28 95.55v-.02-.02-.1"/><path d="M45.29 95.55s-.09 0-.12.02-.05.02-.05.03m.14 1.74h-.01-.03-.06m1.8-2.8s-.02 0-.04.03c-.02.02-.04.05-.07.09"/></g><g class="J"><path d="M48.4 95.55s-.03-.02-.04-.03c-.01 0-.03-.02-.04-.03-.01 0-.03-.02-.04-.02s-.03-.02-.04-.02-.03-.02-.04-.02-.03-.02-.04-.02-.03-.02-.04-.02-.03-.02-.04-.02-.03-.02-.04-.02a1.86 1.86 0 0 0-.19-.11 1.86 1.86 0 0 0-.19-.11 1.28 1.28 0 0 0-.2-.11l-.2-.11c-.03-.01-.05-.03-.08-.04s-.05-.03-.08-.04-.05-.03-.08-.04-.05-.03-.08-.04l-.08-.05"/><path d="M46.85 94.65s-.03.02-.04.03c-.01 0-.03.02-.04.02s-.03.02-.04.02-.03.02-.04.02l-.04.02-.04.02s-.03.02-.04.02-.03.02-.04.02-.03.02-.04.02l-.2.11-.2.11-.2.11-.2.11-.08.04s-.05.03-.08.04-.05.03-.08.04a.3.3 0 0 1-.08.04l-.08.05"/><use href="#E"/><path d="M45.26 97.34a.4.4 0 0 0 .04.03c.01 0 .03.02.04.03.01 0 .03.02.04.03.01 0 .03.02.04.03.01 0 .03.02.04.03.01 0 .03.02.04.03s.03.02.04.03.03.02.04.03l.04.03.2.12.19.12.19.11.2.11c.03.01.05.03.08.04s.05.03.08.04.05.03.08.04.05.03.08.04.05.03.08.04"/><path d="M46.81 98.25l.05-.02s.03-.01.05-.02c.01 0 .03-.01.05-.02.01 0 .03-.01.04-.02.01 0 .03-.01.04-.02l.04-.02s.03-.01.04-.02c.01 0 .03-.01.04-.02s.03-.01.04-.02a1.28 1.28 0 0 0 .2-.11l.2-.11.2-.11.19-.12c.03-.02.05-.03.07-.05s.05-.03.07-.05.05-.03.07-.05.05-.03.07-.05l.08-.05"/></g><g class="K"><path d="M45.25 95.36l.73-.4.72-.43m-1.6 2.72l.02-.82v-.84m.01-.36h-.03v.02.02.02.06m1.86-.81l.72.43.71.41m-1.55-.98h-.03-.03-.15"/><path d="M46.57,94.4s-.03,0-.06-.03c-.02-.02-.05-.05-.08-.09"/><use href="#F"/><path d="M46.57 94.4l-.71.42-.74.4m-.13.24v.84l-.02.82"/><path d="M44.83 95.49s.08 0 .11-.01c.03 0 .05-.01.05-.02m-.02 1.66v.01.01.01.01l.01.01v.02.01l.01.01v.01.01l.01.01.01.01v.01l.01.01.01.01v.01l.01.01.01.01.01.01h.01l.03.03"/><use href="#G"/><use href="#H"/><path d="M48.27 95.24l-.7-.41-.73-.43"/><path d="M48.27 95.24s-.02-.03-.02-.06 0-.07.02-.11m.13.39v-.02-.02-.02-.02-.05m-3.3 2.02l.72.43.71.41m-1.48-.72l.04-.09c.01-.02 0-.03 0-.03m1.44.83h.03.03.15"/><use href="#I"/><path d="M48.4,95.46s0,.01.02.02c.02,0,.05,0,.09.01"/><path d="M48.38 97.12l.02-.82v-.84m-.02 1.66s0-.03.03-.04c.02-.01.05-.02.09-.03"/><path d="M48.24 97.35h.01l.01-.01.01-.01.01-.01h.01l.01-.01.01-.01v-.01l.01-.01.01-.01v-.01l.01-.01.01-.01v-.01l.01-.01v-.02-.01l.01-.01v-.01-.01l.01-.01v-.03"/><use href="#J"/><use href="#K"/></g><g class="J"><use href="#L"/><path d="M44.83 95.49v-.04-.04-.04-.04-.04-.04-.04c0-.02.01-.04.02-.05s.01-.02.02-.03c0 0 .01-.02.02-.02l.02-.02s.02-.01.02-.02.02-.01.03-.02c0 0 .02-.01.03-.02 0 0 .02-.01.03-.02"/><path d="M45.08 95.06s.03-.02.05-.02l.05-.02.05-.02s.03-.02.05-.02.03-.02.05-.02.03-.02.05-.02.03-.02.05-.02.03-.02.05-.02.03-.02.05-.02.03-.02.05-.02.03-.02.05-.02.03-.02.05-.03c.02 0 .03-.02.05-.03.02 0 .03-.02.05-.03l.05-.03s.06-.03.08-.05c.03-.02.06-.03.08-.05l.08-.05.08-.05.08-.05.24-.15"/><use href="#M"/><path d="M46.93 94.29l.05.03c.02 0 .03.02.05.03.02 0 .03.02.05.03.02 0 .03.02.05.03.01 0 .03.02.05.03.01 0 .03.02.04.03.01 0 .03.02.04.03.01 0 .03.02.04.03.01 0 .03.02.04.03s.03.02.04.03c.01 0 .03.02.04.03s.03.02.04.03c.01 0 .03.02.04.03s.03.02.04.03c.01 0 .03.02.04.03.03.02.06.03.08.05l.08.05.08.05.08.05.08.05c.03.02.06.03.08.05.03.02.06.03.08.05.03.02.06.03.09.05"/><path d="M48.27 95.07h.03c.01 0 .01 0 .02.01l.02.02.02.02.02.02c.01.01.01.01.01.02v.02s.01.02.02.03 0 .02.01.03c0 .01 0 .02.01.03v.03.03.09"/><use href="#N"/><path d="M48.5 97.05v.04.04.04.04.04.04.04c0 .02-.01.04-.02.05 0 0-.01.02-.02.03 0 0-.01.02-.02.03 0 0-.01.02-.02.02l-.02.02s-.02.01-.03.02c0 0-.02.01-.03.02 0 0-.02.01-.03.02"/></g><path d="M48.24 97.48l-.05.03c-.02 0-.03.02-.05.03-.02 0-.03.02-.05.03-.02 0-.03.02-.05.03-.02 0-.03.02-.05.03-.01 0-.03.02-.04.03-.01 0-.03.02-.04.03-.01 0-.03.02-.04.03-.01 0-.03.02-.04.03s-.03.02-.04.03l-.04.03s-.03.02-.04.03c-.01 0-.03.02-.04.03-.02 0-.03.02-.05.03-.01 0-.03.02-.05.03-.03.02-.06.03-.08.05-.03.02-.06.03-.08.05-.03.02-.06.03-.08.05-.03.02-.06.03-.08.05l-.08.05-.09.05c-.03.02-.06.03-.09.05s-.06.03-.09.05" class="K"/><g class="J"><path d="M46.89 98.25h-.02-.02-.02-.02-.02-.02-.02-.02-.02-.02-.02-.02-.02-.02-.02-.03-.03-.03-.03-.03c-.01 0-.02 0-.03-.01 0 0-.02 0-.03-.01 0 0-.02-.01-.03-.02"/><path d="M46.39 98.25s-.03-.02-.04-.03c-.01 0-.03-.02-.04-.03-.01 0-.03-.02-.04-.03-.01 0-.03-.02-.04-.03-.01 0-.03-.02-.04-.03-.01 0-.03-.02-.04-.03-.01 0-.03-.02-.04-.03-.01 0-.03-.02-.04-.03-.01 0-.03-.02-.04-.03s-.03-.02-.04-.03c-.01 0-.03-.02-.04-.03s-.03-.02-.04-.03c-.01 0-.03-.02-.04-.03-.01 0-.03-.02-.04-.03s-.03-.02-.04-.03c-.03-.02-.06-.03-.08-.05-.03-.02-.06-.03-.08-.05-.03-.02-.06-.03-.08-.05-.03-.02-.06-.03-.08-.05-.03-.02-.06-.03-.08-.05-.03-.02-.06-.03-.09-.05s-.06-.03-.09-.05-.06-.03-.09-.05"/><path d="M45.05 97.47h-.02-.02l-.02-.02-.02-.02-.02-.02-.02-.02-.02-.02v-.02c0-.01-.01-.03-.02-.04 0 0 0-.02-.01-.03 0 0 0-.02-.01-.03v-.03-.03-.09"/></g></g><path d="M51.88 96.5a4.6 4.6 0 0 1-.11.98c-.07.32-.17.64-.3.94s-.29.59-.47.87-.4.53-.63.76-.49.44-.77.62-.57.34-.87.46-.62.22-.94.28-.65.09-.98.09a4.59 4.59 0 0 1-.98-.1c-.32-.07-.64-.16-.94-.29s-.59-.28-.86-.47c-.27-.18-.52-.39-.75-.63a4.42 4.42 0 0 1-.61-.76c-.18-.27-.33-.56-.45-.87s-.21-.62-.27-.94a4.58 4.58 0 0 1-.08-.98 4.6 4.6 0 0 1 .11-.98c.07-.32.17-.64.3-.94s.29-.59.47-.87c.19-.27.4-.53.63-.76s.49-.44.77-.62.57-.34.87-.46.62-.22.94-.28.65-.09.98-.09a4.59 4.59 0 0 1 .98.1c.32.07.64.16.94.29s.59.28.86.47c.27.18.52.39.75.63a4.42 4.42 0 0 1 .61.76c.18.27.33.56.45.87.12.3.21.62.27.94a4.58 4.58 0 0 1 .08.98z" class="K"/><path d="M49.29 96.26c0-.35-.06-.69-.19-1.01s-.32-.61-.56-.85a2.41 2.41 0 0 0-.84-.57c-.32-.13-.65-.21-1-.21s-.69.06-1.02.19-.63.33-.88.58c-.13.13-.24.26-.34.41-.05.07-.09.15-.14.23l-.11.24c-.13.32-.2.64-.2.99 0 .17.01.34.04.51s.07.32.14.49c.13.33.32.62.57.87s.54.45.87.58c.16.07.33.12.5.15a3.05 3.05 0 0 0 .52.05c.35 0 .68-.07 1.01-.2.32-.13.61-.32.85-.57.25-.25.44-.53.58-.85s.21-.66.21-1.01z" class="J"/><g class="L"><g class="K"><path d="M102.15 94.67l.02.02.02.02.02.02.02.02s0 .01.01.02m-1.51.91v-.14"/><path d="M100.73 95.68s-.09 0-.12.02c-.03 0-.05.02-.05.03m.15 1.75h-.02-.09m1.81-2.81s-.02 0-.04.03c-.02.02-.04.05-.07.09"/></g><g class="J"><path d="M103.85 95.69s-.03-.02-.04-.03c-.01 0-.03-.02-.04-.03-.01 0-.03-.02-.04-.03-.01 0-.03-.02-.04-.02s-.03-.02-.04-.02-.03-.02-.04-.02-.03-.02-.04-.02-.03-.02-.04-.02-.03-.02-.04-.02a1.86 1.86 0 0 0-.19-.11 1.86 1.86 0 0 0-.19-.11l-.2-.11-.2-.11c-.03-.01-.05-.03-.08-.04s-.05-.03-.08-.04-.05-.03-.08-.04-.05-.03-.08-.04l-.08-.05"/><path d="M102.3 94.79s-.03.02-.04.03c-.01 0-.03.02-.04.02s-.03.02-.04.02-.03.02-.04.02-.03.02-.04.02-.03.02-.04.02-.03.02-.04.02-.03.02-.04.02-.03.02-.04.02l-.2.11-.2.11-.2.11-.2.11c-.03.01-.05.03-.08.04s-.05.03-.08.04-.05.03-.08.04-.05.03-.08.04l-.08.05m-.01.05v.05.05.05.05.05.05.05.05.05.23.23.23.22.45"/><path d="M100.71 97.48a.4.4 0 0 0 .04.03c.01 0 .03.02.04.03.01 0 .03.02.04.03.01 0 .03.02.04.03.01 0 .03.02.04.03.01 0 .03.02.04.03.01 0 .03.02.04.03.01 0 .03.02.04.03.01 0 .03.02.04.03l.2.12.19.12a1.86 1.86 0 0 0 .19.11l.2.11c.03.01.05.03.08.04s.05.03.08.04.05.03.08.04.05.03.08.04.05.03.08.04"/><path d="M102.26 98.38s.03-.01.05-.02c.02 0 .03-.01.05-.02l.05-.02s.03-.01.04-.02c.01 0 .03-.01.04-.02l.04-.02s.03-.01.04-.02c.01 0 .03-.01.04-.02.01 0 .03-.02.04-.02a1.28 1.28 0 0 0 .2-.11l.2-.11.2-.11.19-.12c.02-.02.05-.03.07-.05s.05-.03.07-.05.05-.03.07-.05c.03-.02.05-.03.07-.05l.08-.05"/></g><g class="K"><path d="M100.7 95.5l.73-.4.72-.43m-1.6 2.72l.02-.82v-.84m0-.37h-.02-.01v.02.02.02.06m1.87-.81l.72.43.71.41"/><use href="#O"/><path d="M102.02 94.54s-.03 0-.06-.03-.05-.05-.08-.09m-1.31.94v-.06c0-.03-.02-.07-.04-.11"/><path d="M102.02 94.54l-.71.42-.74.4m-.13.23v.84l-.02.82"/><path d="M100.28 95.62s.08 0 .11-.01c.03 0 .05-.01.05-.02m-.02 1.66v.01.02.01.01.01l.01.01v.01.01l.01.01v.02l.01.01v.01l.01.01.01.01v.01l.01.01h.01l.01.01.01.01.01.01.01.01h.01l.01.01"/><path d="M100.26 97.18l.11.03c.03.01.04.03.05.04m1.87-2.71s.02 0 .03-.03a.35.35 0 0 0 .06-.09"/><path d="M103.72 95.37l-.7-.41-.73-.43"/><path d="M103.72 95.37s-.02-.03-.02-.06 0-.07.02-.11m.13.4v-.02-.02-.02-.02-.05m-3.3 2.01l.72.43.71.41m-1.48-.72l.04-.09v-.03m1.44.83h.02.02.02.02.02.02.1"/><path d="M101.84 98.39l.08-.07c.02-.01.04-.01.06 0m1.87-2.72s0 .01.02.02c.02 0 .05.01.09.01"/><path d="M103.83 97.26l.02-.82v-.84m-.02 1.66s0-.03.03-.04c.02-.01.05-.02.09-.03"/><path d="M103.69 97.49l.01-.01.01-.01h.01l.01-.01.01-.01.01-.01v-.01l.01-.01.01-.01.01-.01v-.01l.01-.01.01-.01v-.01l.01-.01v-.01-.01l.01-.01v-.01-.01-.02l.01-.01v-.01"/><path d="M103.69 97.61s-.02-.07-.02-.09 0-.03.02-.03m-1.35.9s-.04-.06-.06-.07-.03-.01-.03 0"/></g><g class="J"><path d="M100.26 97.18v-.05-.05-.05-.05-.05-.05-.05-.05-.05-.05-.05-.05-.05-.05-.05-.1-.1-.1-.1-.1-.3m.02-.01v-.04-.04-.04-.04-.04-.04-.04c0-.02.01-.04.02-.05s.01-.02.02-.03c0 0 .01-.02.02-.02l.02-.02s.02-.01.02-.02c0 0 .02-.01.03-.02 0 0 .02-.01.03-.02 0 0 .02-.01.03-.02"/><path d="M100.53 95.19l.05-.02s.03-.02.05-.02.03-.02.05-.02.03-.02.05-.02.03-.02.05-.02.03-.02.05-.02.03-.02.05-.02.03-.02.05-.02.03-.02.05-.02.03-.02.05-.02.03-.02.05-.02c.01 0 .03-.02.04-.02.02 0 .03-.02.05-.03.02 0 .03-.02.05-.03l.05-.03s.06-.03.08-.05c.03-.02.06-.03.08-.05s.05-.03.08-.05l.08-.05.08-.05.24-.15"/><use href="#P"/><path d="M102.38 94.42l.05.03c.02 0 .03.02.05.03.02 0 .03.02.05.03l.05.03.05.03c.01 0 .03.02.04.03.01 0 .03.02.04.03l.04.03a.4.4 0 0 0 .04.03c.01.01.03.02.04.03.01 0 .03.02.04.03s.03.02.04.03c.01 0 .03.02.04.03s.03.02.04.03l.04.03s.06.03.08.05l.08.05.08.05.08.05.08.05c.03.02.06.03.08.05.03.02.06.03.08.05.03.02.06.03.09.05"/><path d="M103.72 95.2h.02.02l.02.02.02.02.02.02.02.02v.02c0 .01.01.03.01.04s0 .02.01.03c0 .01 0 .02.01.03v.03.03.09m.09.08v.06.05.05.05.05.05.05.05.05.05.05.05.05.05.05.1.1.09.09.09.3m-.02.03v.04.04.04.04.04.04.04c0 .02-.01.04-.02.05s-.01.02-.02.03-.01.02-.02.03c0 0-.01.02-.02.02l-.02.02s-.02.01-.03.02c0 0-.02.01-.03.02 0 0-.02.01-.03.02"/></g><path d="M103.69 97.61l-.05.03c-.02 0-.03.02-.05.03l-.05.03-.05.03c-.01 0-.03.02-.05.03-.01 0-.03.02-.04.03-.01 0-.03.02-.04.03-.01 0-.03.02-.04.03-.01 0-.03.02-.04.03s-.03.02-.04.03l-.04.03s-.03.02-.04.03c-.01 0-.03.02-.04.03-.01 0-.03.02-.04.03-.02 0-.03.02-.05.03-.03.02-.06.03-.08.05l-.08.05s-.06.03-.08.05c-.03.02-.06.03-.08.05-.03.02-.06.03-.08.05-.03.02-.06.03-.09.05s-.06.03-.09.05-.06.03-.09.05" class="K"/><g class="J"><path d="M102.34 98.39h-.04-.04-.04-.04-.04-.04-.04-.05-.03-.03-.03-.03s-.02 0-.03-.01c0 0-.02 0-.03-.01 0 0-.02-.01-.03-.02"/><path d="M101.84 98.39s-.03-.02-.04-.03c-.01 0-.03-.02-.04-.03-.01 0-.03-.02-.04-.03-.01 0-.03-.02-.04-.03-.01 0-.03-.02-.04-.03-.01 0-.03-.02-.04-.03l-.04-.03s-.03-.02-.04-.03c-.01 0-.03-.02-.04-.03s-.03-.02-.04-.03c-.01 0-.03-.02-.04-.03s-.03-.02-.04-.03-.03-.02-.04-.03-.03-.02-.04-.03c-.01 0-.03-.02-.04-.03-.03-.02-.06-.03-.08-.05-.03-.02-.06-.03-.08-.05-.03-.02-.06-.03-.08-.05-.03-.02-.06-.03-.08-.05-.03-.02-.06-.03-.08-.05-.03-.02-.06-.03-.09-.05s-.06-.03-.09-.05-.06-.03-.09-.05"/><path d="M100.5 97.6h-.04l-.02-.02-.02-.02-.02-.02-.02-.02-.02-.02v-.02c0-.01-.01-.03-.01-.04 0 0 0-.02-.01-.03 0-.01 0-.02-.01-.03v-.03-.03-.09"/></g></g><path d="M107.33 96.63a4.6 4.6 0 0 1-.11.98c-.07.32-.17.64-.3.94s-.29.59-.47.87c-.19.27-.4.53-.63.76s-.49.44-.77.62-.57.34-.87.46-.62.22-.94.28-.65.09-.98.09a4.59 4.59 0 0 1-.98-.1c-.32-.07-.64-.16-.94-.29s-.59-.28-.86-.47c-.27-.18-.52-.39-.75-.63a5.02 5.02 0 0 1-.62-.76c-.18-.27-.33-.56-.45-.87s-.21-.62-.27-.94a4.58 4.58 0 0 1-.08-.98 4.6 4.6 0 0 1 .11-.98c.07-.32.17-.64.3-.94s.29-.59.47-.87c.19-.27.4-.53.63-.76s.49-.44.77-.62.57-.34.87-.46.62-.22.94-.28.65-.09.98-.09a4.59 4.59 0 0 1 .98.1c.32.07.64.16.94.29s.59.28.86.47c.27.18.52.39.75.63a4.42 4.42 0 0 1 .61.76c.18.27.33.56.45.87.12.3.21.62.27.94a4.58 4.58 0 0 1 .08.98z" class="K"/><path d="M104.74 96.4c0-.35-.06-.69-.19-1.01s-.32-.61-.56-.85-.52-.44-.84-.57-.65-.21-1-.21-.69.06-1.02.19-.63.33-.88.58c-.13.13-.24.26-.34.41-.05.07-.09.15-.14.23l-.11.24c-.13.32-.2.64-.2.99 0 .17.01.34.04.51s.07.32.14.49c.13.33.32.62.57.87s.54.45.87.58c.16.07.33.12.5.15a3.05 3.05 0 0 0 .52.05c.35 0 .68-.07 1.01-.2.32-.13.61-.32.85-.57.25-.25.44-.53.58-.85s.21-.66.21-1.01z" class="J"/><g class="L"><g class="K"><path d="M46.94 74.39h0l.02.02.02.02.02.02.02.02s0 .01.01.02m-1.51.91v-.14"/><path d="M45.52 75.4s-.09 0-.12.02c-.03 0-.05.02-.05.03m.15 1.75h-.03-.07m1.8-2.81s-.02 0-.04.03c-.02.02-.04.05-.07.09"/></g><g class="J"><use href="#Q"/><path d="M47.09 74.5s-.03.02-.04.02-.03.02-.04.02-.03.02-.04.02-.03.02-.04.02-.03.02-.04.02-.03.02-.04.02-.03.02-.04.02-.03.02-.04.02-.03.02-.04.02l-.2.11-.2.11-.2.11-.2.11c-.03.01-.05.03-.08.04s-.05.03-.08.04-.05.03-.08.04-.05.03-.08.04l-.08.05m-.01.07v.05.05.05.05.05.05.05.05.05.23.23.23.22.45"/><path d="M45.5 77.2a.4.4 0 0 0 .04.03c.01.01.03.02.04.03.01 0 .03.02.04.03.01 0 .03.02.04.03.01 0 .03.02.04.03s.03.02.04.03c.01 0 .03.02.04.03.01 0 .03.02.04.03.01 0 .03.02.04.03l.2.12.19.12a1.86 1.86 0 0 0 .19.11l.2.11c.03.01.05.03.08.04s.05.03.08.04.05.03.08.04.05.03.08.04.05.03.08.04"/><path d="M47.05 78.1l.05-.02s.03-.01.05-.02c.02 0 .03-.01.05-.02s.03-.01.05-.02c.01 0 .03-.01.04-.02.01 0 .03-.01.04-.02.01 0 .03-.01.04-.02.01 0 .03-.01.04-.02s.03-.01.04-.02a1.28 1.28 0 0 0 .2-.11l.2-.11.2-.11.19-.12c.02-.02.05-.03.07-.05s.05-.03.07-.05.05-.03.07-.05c.03-.02.05-.03.07-.05l.08-.05"/></g><g class="K"><path d="M45.49 75.22l.73-.4.72-.43m-1.61 2.71l.02-.82v-.84m.01-.36h-.03v.02.02.02.06m1.87-.81l.72.43.71.41m-1.56-.98h-.03-.03-.15"/><path d="M46.81 74.25s-.03 0-.06-.03c-.02-.02-.05-.05-.08-.09m-1.31.95v-.06c0-.03-.02-.07-.04-.11"/><path d="M46.81 74.25l-.71.42-.74.4m-.13.24v.84l-.02.82"/><path d="M45.07 75.34s.08 0 .11-.01c.03 0 .05-.01.05-.02m-.02 1.66v.01.01.01.01.02.01l.01.01v.01l.01.01v.01l.01.01v.01l.01.01v.01l.01.01.01.01.01.01.01.01.01.01.01.01h.01l.02.02"/><path d="M45.05 76.89l.11.03c.03.01.04.03.05.04m1.86-2.71s.02 0 .03-.03.04-.05.06-.09"/><path d="M48.5 75.09l-.7-.41-.73-.43"/><path d="M48.5 75.09s-.02-.03-.02-.06 0-.07.02-.11m.13.4v-.02-.02-.02-.06m-3.29 2l.72.43.71.41m-1.48-.72l.04-.09v-.03m1.44.83h.03.03.15"/><path d="M46.63 78.1l.08-.07c.02-.01.04-.01.06 0m1.86-2.71s0 .01.02.02.05 0 .09.01"/><path d="M48.61 76.98l.02-.82v-.84m-.02 1.66s0-.03.03-.04c.02-.01.05-.02.09-.03"/><path d="M48.48 77.2h.01l.01-.01.01-.01h.01l.01-.01v-.01l.01-.01.01-.01.01-.01v-.01l.01-.01.01-.01v-.01l.01-.01v-.01l.01-.01v-.01-.02l.01-.01v-.01-.03"/><path d="M48.48 77.33s-.02-.07-.02-.09 0-.03.02-.03m-1.36.89s-.04-.06-.06-.07-.03-.01-.03 0"/></g><g class="J"><path d="M45.05 76.89v-.05-.05-.05-.05-.05-.05-.05-.05-.05-.05-.05-.05-.05-.05-.05-.1-.1-.1-.1-.1-.3m.02 0v-.04-.04-.04-.04-.04-.04-.04c0-.02.01-.04.02-.05 0 0 .01-.02.02-.03 0 0 .01-.02.02-.02s.01-.02.02-.02c0 0 .02-.01.02-.02 0 0 .02-.01.03-.02 0 0 .02-.01.03-.02 0 0 .02-.01.03-.02"/><path d="M45.32 74.91s.03-.02.05-.02l.05-.02s.03-.02.05-.02.03-.02.05-.02.03-.02.05-.02.03-.02.05-.02.03-.02.05-.02.03-.02.05-.02.03-.02.05-.02.03-.02.05-.02c.01 0 .03-.02.05-.02s.03-.02.05-.02.03-.02.05-.03c.02 0 .03-.02.05-.03.02 0 .03-.02.05-.03.03-.02.06-.03.08-.05.03-.02.06-.03.08-.05l.08-.05.08-.05.08-.05.24-.15m-.03-.04h.03.02.02.02.02.02.02.02.02.02.02.02.02.02.03.03.03.03c.01 0 .02 0 .03.01.01 0 .02 0 .03.01.01 0 .02 0 .03.01 0 0 .02.01.03.02m-.04-.05l.05.03c.02 0 .03.02.05.03.02 0 .03.02.05.03.02 0 .03.02.05.03.02 0 .03.02.05.03.01 0 .03.02.04.03.01 0 .03.02.04.03.01 0 .03.02.04.03.01 0 .03.02.04.03.01 0 .03.02.04.03s.03.02.04.03c.01 0 .03.02.04.03.01 0 .03.02.04.03.01 0 .03.02.04.03.01 0 .03.02.04.03.03.02.06.03.08.05l.08.05.08.05.08.05.08.05c.03.02.06.03.08.05.03.02.06.03.08.05.03.02.06.03.09.05"/><path d="M48.51 74.92h.03c.01 0 .01 0 .02.01l.02.02.02.02.02.02c.01.01.01.01.01.02v.02s.01.02.02.03c0 0 0 .02.01.03 0 0 0 .02.01.03v.03.03.09m.08.08v.06.05.05.05.05.05.05.05.05.05.05.05.05.05.05.1.1.09.09.09.3m-.02.02v.04.04.04.04.04.04.04c0 .02-.01.04-.02.05 0 0-.01.02-.02.03s-.01.02-.02.03-.01.02-.02.02l-.02.02s-.02.01-.03.02c0 0-.02.01-.03.02 0 0-.02.01-.03.02"/></g><path d="M48.48 77.33l-.05.03c-.02 0-.03.02-.05.03-.02 0-.03.02-.05.03-.02 0-.03.02-.05.03-.01 0-.03.02-.05.03-.02 0-.03.02-.04.03-.01 0-.03.02-.04.03-.01 0-.03.02-.04.03-.01 0-.03.02-.04.03-.01 0-.03.02-.04.03-.01 0-.03.02-.04.03-.01 0-.03.02-.04.03-.01 0-.03.02-.04.03-.01 0-.03.02-.04.03-.02 0-.03.02-.05.03l-.08.05-.08.05s-.06.03-.08.05c-.03.02-.06.03-.08.05-.03.02-.06.03-.08.05-.03.02-.06.03-.09.05s-.06.03-.09.05-.06.03-.09.05" class="K"/><g class="J"><path d="M47.12 78.1h-.02l-.02.02h-.02-.02-.02H47h-.02-.02-.02-.02-.02-.02-.02-.02-.02-.03-.03-.03-.03-.03c-.01 0-.02 0-.03-.01 0 0-.02 0-.03-.01 0 0-.02-.01-.03-.02"/><path d="M46.63 78.1s-.03-.02-.04-.03c-.01 0-.03-.02-.04-.03-.01 0-.03-.02-.04-.03-.01 0-.03-.02-.04-.03-.01 0-.03-.02-.04-.03-.01 0-.03-.02-.04-.03-.01 0-.03-.02-.04-.03-.01 0-.03-.02-.04-.03-.01 0-.03-.02-.04-.03-.01 0-.03-.02-.04-.03-.01 0-.03-.02-.04-.03s-.03-.02-.04-.03c-.01 0-.03-.02-.04-.03-.01 0-.03-.02-.04-.03-.01 0-.03-.02-.04-.03-.03-.02-.06-.03-.08-.05-.03-.02-.06-.03-.08-.05-.03-.02-.06-.03-.08-.05-.03-.02-.06-.03-.08-.05-.03-.02-.06-.03-.08-.05-.03-.02-.06-.03-.09-.05s-.06-.03-.09-.05-.06-.03-.09-.05"/><path d="M45.29 77.32h-.02-.02c-.01 0-.01 0-.02-.01l-.02-.02-.02-.02-.02-.02-.02-.02v-.02c0-.01-.01-.03-.01-.04 0 0 0-.02-.01-.03 0 0 0-.02-.01-.03v-.03-.03-.09"/></g></g><path d="M52.12 76.35a4.6 4.6 0 0 1-.11.98c-.07.32-.17.64-.3.94s-.29.59-.47.87c-.19.27-.4.53-.63.76s-.49.44-.77.62-.57.34-.87.46-.62.22-.94.28-.65.09-.98.09a4.59 4.59 0 0 1-.98-.1c-.32-.06-.64-.16-.94-.29s-.59-.28-.86-.47c-.27-.18-.52-.39-.75-.63a4.84 4.84 0 0 1-.61-.76c-.17-.27-.33-.56-.45-.87-.12-.3-.21-.62-.27-.94a4.58 4.58 0 0 1-.08-.98 4.6 4.6 0 0 1 .11-.98c.07-.32.17-.64.3-.94s.29-.59.47-.87.4-.53.63-.76.49-.44.77-.62.57-.34.87-.46.62-.22.94-.28.65-.09.98-.09a4.59 4.59 0 0 1 .98.1c.32.06.64.16.94.29s.59.28.86.47c.27.18.52.39.75.63a4.42 4.42 0 0 1 .61.76c.17.27.33.56.45.87.12.3.21.62.27.94a4.58 4.58 0 0 1 .08.98z" class="K"/><use href="#R" class="J"/><g class="L"><g class="K"><path d="M102.6 56.05h0l.02.02.02.02.02.02.02.02s0 .01.01.02m-1.5.91v-.03-.12"/><path d="M101.19 57.06s-.09 0-.12.02-.05.02-.05.03m.15 1.75h-.01-.09m1.8-2.81s-.02 0-.04.03c-.02.02-.04.05-.07.09"/></g><g class="J"><path d="M104.3 57.07s-.03-.02-.04-.03c-.01 0-.03-.02-.04-.03-.01 0-.03-.02-.04-.03-.01 0-.03-.02-.04-.02s-.03-.02-.04-.02-.03-.02-.04-.02-.03-.02-.04-.02-.03-.02-.04-.02-.03-.02-.04-.02a1.86 1.86 0 0 0-.19-.11 1.86 1.86 0 0 0-.19-.11l-.2-.11c-.07-.03-.13-.08-.2-.11-.03-.01-.05-.03-.08-.04s-.05-.03-.08-.04-.05-.03-.08-.04-.05-.03-.08-.04l-.08-.05"/><path d="M102.75 56.17s-.03.02-.04.02-.03.02-.04.02l-.04.02s-.03.02-.04.02-.03.02-.04.02-.03.02-.04.02-.03.02-.04.02-.03.02-.04.02-.03.02-.04.02l-.2.11-.2.11-.2.11-.2.11c-.03.01-.05.03-.08.04s-.05.03-.08.04-.05.03-.08.04-.05.03-.08.04l-.08.05m0 .06v.05.05.05.05.05.05.05.05.05.23.23.23.22.45"/><path d="M101.17 58.86a.4.4 0 0 0 .04.03c.01 0 .03.02.04.03s.03.02.04.03l.04.03a.4.4 0 0 0 .04.03c.01 0 .03.02.04.03.01 0 .03.02.04.03.01 0 .03.02.04.03.01 0 .03.02.04.03l.2.12.19.12a1.86 1.86 0 0 0 .19.11l.2.11c.03.01.05.03.08.04s.05.03.08.04.05.03.08.04.05.03.08.04.05.03.08.04"/><path d="M102.71 59.76l.05-.02s.03-.01.05-.02c.01 0 .03-.01.05-.02.01 0 .03-.01.04-.02l.04-.02.04-.02s.03-.01.04-.02c.01 0 .03-.01.04-.02s.03-.02.04-.02c.07-.03.13-.07.2-.11l.2-.11.2-.11.19-.12c.02-.02.05-.03.07-.05s.05-.03.07-.05.05-.03.07-.05.05-.03.07-.05l.08-.05"/></g><g class="K"><path d="M101.15 56.88l.73-.4.72-.43m-1.6 2.72l.02-.82v-.84m.01-.37h-.02c-.01.01-.01.01-.01.02v.09m1.87-.8l.72.43.71.41m-1.56-.97h-.02-.02-.02-.02-.02-.02-.1"/><path d="M102.48 55.92s-.03 0-.06-.03c-.02-.02-.05-.05-.08-.09m-1.31.94v-.06c0-.03-.02-.07-.04-.11"/><path d="M102.48 55.92l-.71.42-.74.4m-.14.23v.84l-.02.82"/><path d="M100.73 57s.08 0 .11-.01c.03 0 .05-.01.05-.02m-.02 1.66v.01.02.01l.01.01v.01.01.01l.01.01v.02l.01.01v.01l.01.01v.01l.01.01.01.01.01.01v.01h.01l.01.01.01.01.01.01.01.01h.01"/><path d="M100.71 58.56l.11.03c.03.01.04.03.05.04m1.87-2.71s.02 0 .03-.03a.35.35 0 0 0 .06-.09"/><path d="M104.17 56.75l-.7-.41-.73-.43"/><path d="M104.17 56.75s-.02-.03-.02-.06 0-.07.02-.11m.13.4v-.03-.09m-3.3 2l.72.43.71.41m-1.47-.71l.04-.09c.01-.02 0-.03 0-.03m1.43.83h.02.02.02.02.02.02.1"/><path d="M102.29 59.77l.08-.07c.02-.01.04-.01.06 0m1.87-2.72s0 .01.02.02c.02 0 .05 0 .09.01"/><path d="M104.28 58.64l.02-.82v-.84m-.02 1.66s0-.03.03-.04c.02-.01.05-.02.09-.03"/><path d="M104.14 58.87l.01-.01h.01l.01-.01.01-.01.01-.01.01-.01.01-.01.01-.01h0l.01-.01.01-.01v-.02l.01-.01v-.01l.01-.01v-.01l.01-.01v-.01-.01l.01-.01v-.04"/><path d="M104.15 58.99s-.02-.07-.02-.09 0-.03.02-.03m-1.36.9s-.04-.06-.06-.07-.03-.01-.03 0"/></g><g class="J"><path d="M100.71 58.56v-.05-.05-.05-.05-.05-.05-.05-.05-.05-.05-.05-.05-.05-.05-.05-.1-.1-.1-.1-.1-.3m.02-.01v-.02-.02-.02-.02-.02-.02-.02-.02-.02-.02-.02-.02-.02-.02-.02s.01-.02.02-.03c0 0 .01-.02.02-.03 0 0 .01-.02.02-.02l.02-.02s.02-.01.02-.02.02-.01.03-.02c0 0 .02-.01.03-.02 0 0 .02-.01.03-.02m.06.06s.03-.02.05-.02.03-.02.05-.02.03-.02.05-.02.03-.02.05-.02.03-.02.05-.02.03-.02.05-.02.03-.02.05-.02.03-.02.05-.02.03-.02.05-.02.03-.02.05-.02c.01 0 .03-.02.04-.02.02 0 .03-.02.05-.02.01 0 .03-.02.05-.03.02 0 .03-.02.05-.03.02 0 .03-.02.05-.03.03-.02.06-.03.08-.05.03-.02.06-.03.08-.05l.08-.05.08-.05.08-.05.24-.15m-.02-.05h.03.04.04.04.04.04.04.05.03.03.03c.01 0 .02 0 .03.01.01 0 .02 0 .03.01.01 0 .02 0 .03.01 0 0 .02.01.03.02m-.03-.05l.05.03c.02 0 .03.02.05.03.02 0 .03.02.05.03.02 0 .03.02.05.03.01 0 .03.02.05.03.01 0 .03.02.04.03.01 0 .03.02.04.03.01 0 .03.02.04.03.01 0 .03.02.04.03s.03.02.04.03.03.02.04.03c.01 0 .03.02.04.03.01 0 .03.02.04.03.01 0 .03.02.04.03.01 0 .03.02.04.03.03.02.06.03.08.05l.08.05.08.05.08.05.08.05c.03.02.06.03.08.05.03.02.06.03.08.05.03.02.06.03.09.05"/><path d="M104.17 56.58h.02.02l.02.02.02.02.02.02.02.02v.03s.01.02.02.03c0 0 0 .02.01.03 0 .01 0 .02.01.03v.03.03.09m.09.08v.06.05.05.05.05.05.05.05.05.05.05.05.05.05.05.1.1.09.09.09.3m-.02.03v.02.02.02.02.02.02.02.02.02.02.02.02.02.02.02s-.01.02-.02.03c0 0-.01.02-.02.03 0 0-.01.02-.02.03 0 0-.01.02-.02.02l-.02.02s-.02.01-.03.02c0 0-.02.01-.03.02 0 0-.02.01-.03.02"/></g><path d="M104.15 58.99l-.05.03c-.02 0-.03.02-.05.03-.02 0-.03.02-.05.03-.02 0-.03.02-.05.03-.02 0-.03.02-.05.03-.01 0-.03.02-.04.03-.01 0-.03.02-.04.03-.01 0-.03.02-.04.03-.01 0-.03.02-.04.03-.01 0-.03.02-.04.03s-.03.02-.04.03c-.01 0-.03.02-.04.03-.01 0-.03.02-.04.03-.01 0-.03.02-.04.03-.01 0-.03.02-.05.03-.03.02-.06.03-.08.05-.03.02-.06.03-.08.05-.03.02-.06.03-.08.05-.03.02-.06.03-.08.05-.03.02-.06.03-.08.05-.03.02-.06.03-.09.05s-.06.03-.09.05-.06.03-.09.05" class="K"/><g class="J"><path d="M102.79 59.77h-.04-.04-.04-.04-.04-.04-.04-.05-.03-.03-.03-.03c-.01 0-.02 0-.03-.01 0 0-.02 0-.03-.01 0 0-.02-.01-.03-.02"/><path d="M102.29 59.77s-.03-.02-.04-.03c-.01 0-.03-.02-.04-.03-.01 0-.03-.02-.04-.03-.01 0-.03-.02-.04-.03-.01 0-.03-.02-.04-.03-.01 0-.03-.02-.04-.03-.01 0-.03-.02-.04-.03-.01 0-.03-.02-.04-.03-.01 0-.03-.02-.04-.03l-.04-.03s-.03-.02-.04-.03-.03-.02-.04-.03c-.01 0-.03-.02-.04-.03-.01 0-.03-.02-.04-.03-.01 0-.03-.02-.04-.03-.03-.02-.06-.03-.08-.05-.03-.02-.06-.03-.08-.05-.03-.02-.06-.03-.08-.05l-.08-.05s-.06-.03-.08-.05c-.03-.02-.06-.03-.09-.05s-.06-.03-.09-.05-.06-.03-.09-.05"/><path d="M100.96 58.99h-.04l-.02-.02-.02-.02-.02-.02-.02-.02-.02-.02v-.03s-.01-.02-.01-.03c0 0 0-.02-.01-.03 0 0 0-.02-.01-.03v-.03-.03-.09"/></g></g><path d="M107.78 58.01a4.6 4.6 0 0 1-.11.98c-.07.32-.17.64-.3.94s-.29.59-.47.87-.4.53-.63.76-.49.44-.77.62-.57.34-.87.46-.62.22-.94.28-.65.09-.98.09a4.59 4.59 0 0 1-.98-.1c-.32-.07-.64-.16-.94-.29s-.59-.28-.86-.47c-.27-.18-.52-.39-.75-.63a5.02 5.02 0 0 1-.62-.76c-.18-.27-.33-.56-.45-.87-.12-.3-.21-.62-.27-.94a4.58 4.58 0 0 1-.08-.98 4.6 4.6 0 0 1 .11-.98c.07-.32.17-.64.3-.94s.29-.59.47-.87c.19-.27.4-.53.63-.76s.49-.44.77-.62.57-.34.87-.46.62-.22.94-.28.65-.09.98-.09a4.59 4.59 0 0 1 .98.1c.32.07.64.16.94.29s.59.28.86.47c.27.18.52.39.75.63a4.42 4.42 0 0 1 .61.76c.18.27.33.56.45.87.12.3.21.62.27.94a4.58 4.58 0 0 1 .08.98z" class="K"/><path d="M105.19 57.78c0-.35-.06-.69-.19-1.01s-.32-.61-.56-.85a2.41 2.41 0 0 0-.84-.57c-.32-.14-.65-.21-1-.21s-.69.06-1.02.19-.63.33-.88.58c-.13.13-.24.26-.34.41-.05.07-.09.15-.14.23l-.11.24c-.13.32-.2.64-.2.99 0 .17.01.34.04.51s.07.32.14.49c.13.33.32.62.57.87s.54.45.87.58c.16.07.33.12.5.15a3.05 3.05 0 0 0 .52.05c.35 0 .68-.07 1.01-.2.32-.13.61-.32.85-.57.25-.25.44-.53.58-.85s.21-.66.21-1.01z" class="J"/><g class="L"><g class="K"><path d="M87.02 47.71h.19m-.87 11.34l.74.01m-21.12.38l-.01.56m0 0l.53.01m.27-.56l-.01.56m.53 0l.01-.56"/><path d="M66.74 60.01h.53m1.41-.55v-.02m-2.2.57l.01-.57m.01.59l-.01-.01m1.58-.56l-.01.55m.53 0l.01-.55m.01.58l-.01-.02"/><path d="M68.06 60.01h.53m1.59-.56v.56m0 0l.52.01m-1.84-.58v.57m0 0h.52m2.12-.55v.56m0 0h.52m0 0l.01-.55"/></g><path d="M87.02 47.71h.19" class="J"/><g class="K"><path d="M70.7 60.02l.01-.57m-1.33.56l.01-.56m3.12.02v-.02m.31 0v.57m0 0h.52m.8-.55v.55m0 0l.52.01m0 0l.01-.56m-1.33.55l.01-.56m1.45.01v-.01m.66.57v-.57m.52.57h-.52m1.32 0v-.55m.52.55h-.52m.53-.55l-.01.55m-1.31-.57l-.01.57m2.12 0v-.55m.52.56l-.52-.01m.53-.55l-.01.56m.46-.56v-.01m.34.57v-.57m.53.57h-.53"/><path d="M79.95 59.47v.57m.79 0v-.57m.53.02v.55m.02.03l-.01-.01"/><path d="M81.27 60.04h-.53m.79 0l.01-.55m.52 0v.55"/><path d="M82.06 60.04h-.53m1.97-.56v.01m-.65.56l.01-.56m.52 0v.56"/><path d="M83.38 60.05h-.53m.79 0l.01-.57m.52.57h-.53m.54-.57l-.01.57m2.61-16l.06-4.88m.17 9.66h-.36"/></g><path d="M86.75 44.01h-.01" class="J"/><path d="M86.66 54.61l.06-5.01" class="K"/><g class="J"><path d="M86.7 48.49h-.01m-.06 6.07h-.01"/></g><path d="M63.28 56.65h-.4" class="K"/><path d="M86.34 59.05h.73" class="J"/><path d="M86.48 58.42h-.13" class="K"/><path d="M63.39 57.13h-.56" class="J"/><g class="K"><path d="M62.83 57.13l-.02 1.68m.01-2.08l.03.03"/></g><path d="M86.5 57.4h-.14" class="J"/><path d="M69.71 51.53h.08" class="K"/><path d="M63.18 56.57h-.05" class="J"/><g class="K"><path d="M86 59.07v.43m.82-20.36l-.18-.2M86.5 57.4l-.02 1.02m.59.63l-.59-.63m.62.58l.06-.25m.03-.54l.02-.98m-.03-.6l-.04-.36"/><path d="M87.11 56.15l-.5-.53m.03-1.04l-.01-.02"/></g><path d="M86.64 54.58l.06-5.01" class="J"/><g class="K"><path d="M86.7 49.57l-.01-.02m.01-1.06l.31.34m0 0l.01-1.32m0 0l.19.2m.03-.06l.05-.24m.04-.54v-.2m-.02-.6l-.05-.35m-.03-.12l-.49-.54m.01-1.05l.02.02"/></g><g class="J"><path d="M86.77 44.03l.05-4.89M69.71 51.53l-.02 1.32m.09 0l.01-1.32"/></g><path d="M63.97 58.12l-.01.69" class="K"/><path d="M67.9 55.02l.05.05" class="J"/><g class="K"><path d="M67.95 55.07l2.52.01m-3.14.6l-.03 3.16"/></g><path d="M67.33 55.68l-.04-.05" class="J"/><path d="M68.79 58.07l.47.07" class="K"/><path d="M68.97 52.84l.02-1.35" class="J"/><g class="K"><path d="M68.9 51.47l.09.02m10.32.06h-.07m-8.73-.07l-.07.01"/></g><path d="M70.44 51.49l-.01 1.36" class="J"/><g class="K"><path d="M70.72 55.03l-.25.05m0 0l-.01.93m-.03 2.06l-.01.78"/></g><g class="J"><path d="M68.61 52.84l.03-1.41m10.58 1.44l.02-1.32"/></g><g class="K"><path d="M70.51 51.48l-1.61-.01m-.26-.04l.26.04m1.8-.03l-.19.04"/></g><path d="M79.31 51.55v1.32" class="J"/><g class="K"><path d="M86.22 56.71h-.6m-22.24 1.36l.01-1.02m-.37-18.19l-.21 17.84"/></g><path d="M70.7 51.44l-.02 1.41" class="J"/><g class="K"><path d="M68.87 56.1l.88-.07m-1.29.62l-.01.93"/></g><path d="M86.17 57.19l-.71-.01" class="J"/><g class="K"><path d="M86.36 57.4l-.01 1.02m-.18-1.23l-.02 1.67m.2-.44l-.01.66m-19.05-3.53l-.03 2.5"/></g><path d="M67.29 55.55l-.07-.08" class="J"/><g class="K"><path d="M65.75 58.05h1.51m-3.23.08l-.65-.06m3.81-.1l.07.08m3.94-3.02l-3.37-.01"/></g><path d="M67.75 54.94l.08.08" class="J"/><path d="M86.22 56.71l.1.11" class="K"/><path d="M86.32 56.82h.13" class="J"/><g class="K"><path d="M86.43 56.79l.02.03m-5.3-1.72h-2.52"/></g><path d="M78.51 51.51l-.01 1.36" class="J"/><path d="M78.42 51.5l.09.01" class="K"/><g class="J"><path d="M81.15 55.1l-.05-.04m-9.9-.03l-.07-.08"/></g><g class="K"><path d="M79.69 58.16l.37-.06m-1.43-3l-.01.94m-.03 2.06l-.01.77m-.31-3.82l.36.05m1.4-3.6l-.07.01"/></g><g class="J"><path d="M79.96 52.87v-1.36m-10.21 4.52l-.02 1.98m8.43-6.55l-.02 1.41m7.68 3.75l-.08.01"/></g><g class="K"><path d="M80.03 51.5h-1.61m-.26-.04l.26.04m1.8-.04l-.19.04m-9.01 7.23l.01-.67m.03-2.06l.01-.97m6.73.01l-.02.98m-.02 2.06l-.01.67m3.85-.66l-.01.67"/></g><path d="M65.76 58.05l-.01.67" class="J"/><path d="M67.18 58.72l.01-.67" class="K"/><g class="J"><path d="M80.21 52.87l.01-1.41m2.8 7.3l.01-.67"/></g><g class="K"><path d="M84.99 58.86l.01-.69m-5.01-2.05l-1-.06m1.45.62l-.01.93m-16.32 1.81h1.18m0 0l.01.02"/><path d="M66.66 59.44H65.3"/><path d="M66.66 59.44l.01.01"/><path d="M66.67 59.45h.08m0 0h.53m0 0l.79.01m0 0h.53m0 0h.08"/><path d="M68.68 59.46l-.01-.02"/><path d="M71.02 59.45l-2.35-.01"/><path d="M71.02 59.45l.01.01"/><path d="M71.03 59.46h.47m0 0l.53.01m0 0h.48"/><path d="M72.51 59.47l-.01-.02m1.26.01l-1.26-.01"/><path d="M73.76 59.46l.01.01"/><path d="M73.77 59.47h.37m0 0h.53m0 0h.13"/><path d="M74.8 59.47l-.02-.01"/><path d="M76.68 59.46h-1.9"/><path d="M76.68 59.46l.02.02m0 0h.08m0 0h.53m0 0h.79m0 0h.53m0 0h.45"/><path d="M79.08 59.48l-.01-.01"/><path d="M81.23 59.47h-2.16m2.16 0l.01.02"/><path d="M81.24 59.49h.03m0 0h.27m0 0h.52m0 0h.8m0 0h.52m0 0h.12"/><path d="M83.49 59.48l.01.01"/><path d="M83.49 59.48h1.16"/><path d="M84.66 59.5l-.01-.02m.01.02H86m-.4-.43l.4.43m.34-.42l-.74-.01m.55-.21l.19.22"/><path d="M86.15 58.86h-1.16m-3.4-.1h1.43m-1.43 0l.12.12m-3.13-.01l3.13.01m-3.96-.13l.83.12m-7.56-.14l6.73.02m-7.33.1l.6-.12m-3.72.11l3.12.01m-3.12-.01l-.12-.12m-1.43 0h1.43m-4.37.09h1.15m-1.15 0l.19.21m0 0h.74m.37.4l-.37-.4m17.28-3.97l-3.38-.01"/></g><g class="J"><path d="M77.64 55.04l-.07-.08m3.45.09l-.07-.08m-1.96 1.09l-.02 1.98"/></g><g class="K"><path d="M70.84 58.06l7.1.02m1.66.08l-.81-.05"/></g><path d="M79.6 58.16l.37-.06" class="J"/><g class="K"><path d="M79.97 58.1l-1-.06m-10.12.04l.88-.07"/></g><path d="M69.32 58.14l-.47-.06" class="J"/><g class="K"><path d="M69.32 58.14l.71-.05m11.41-.08l.03-2.51m1.71-16.88l-17.27-.04"/></g><path d="M65.91 38.58l-.23 19.39" class="J"/><g class="K"><path d="M65.68 57.97h1.51m.03-2.5l-.03 2.5m3.94-3.02l-3.38-.01M71.12 56h-.34"/></g><path d="M70.75 57.98l.03-1.98" class="J"/><path d="M70.75 57.98l7.13.02" class="K"/><path d="M77.88 58l.02-1.98" class="J"/><g class="K"><path d="M77.56 56.02h.34m3.05-1.05l-3.38-.01"/></g><path d="M67.92 51.39l-.03 1.45" class="J"/><path d="M71.35 51.4l-3.43-.01" class="K"/><path d="M71.33 52.85l.02-1.45" class="J"/><g class="K"><path d="M67.89 52.84l3.44.01m9.54-1.43l-3.43-.01"/></g><path d="M80.86 52.87l.01-1.45" class="J"/><path d="M77.42 52.87h3.44" class="K"/><path d="M77.44 51.41l-.02 1.46" class="J"/><g class="K"><path d="M84.9 58.18l.55-.05m-4.01-.12h1.51m-1.51 0l.07.08m0 0h1.51m2.44-.98l-.01 1.02"/></g><g class="J"><path d="M86.64 38.94l-.21 17.85m-3.48 1.22l.23-19.39"/></g><g class="K"><path d="M40.7 54.45l-.6-.65m.74 1.01l-.02 1.47"/></g><g class="J"><path d="M40.84 54.81l-.6-.65m-.02 1.59l.49.52"/></g><g class="K"><path d="M42.8 57.09h.04m-.05 1.39h.03m0 .29h-.01m-.01.53h.01m0 .24h-.04m.02 1.87h-.01m-.02-.29h.03m-.02.82h.01m0 .24h-.04m.02 1.4h-.03m-5.13 3.08l.6.64m2.52-1.93l-.02 1.58"/></g><g class="J"><path d="M40.72 65.37l-.6-.65m-2.14 2.1l.6.65"/></g><g class="K"><path d="M40.16 67.48l-1.58-.01m4.18-6.35l.01-1.58m0 0l.03-.24m.02-.52l-.01-.01m0 0l-.02-.29m0 0l.01-1.39m-.07-.81l.11.13m-.08 7.2l-.03-.03"/><path d="M42.73 63.58l.01-1.4m0 0l.03-.24m.01-.53l.01.01m-.01-.01l-.02-.29"/></g><g class="J"><path d="M40.1 66.3l.6.65m-.54.53l-.59-.65"/></g><g class="K"><path d="M42.63 64.2l.1-7.92m-1.98 0h1.98m-2.51-.53l.02-1.59m-2.1-.53h1.58M37.46 66.3l.14-12.14m1.97 12.67l-1.59-.01m2.12-.52l.02-1.58m2.62.22l-1.79-.01"/><path d="M42.75 64.32l-.12-.12m0 0l-1.98-.01"/></g><path d="M40.65 64.19l.6.65" class="J"/><g class="K"><path d="M99.49 66.66l-.01-.01m.14.14l-.13-.13m-.24 20.58l-.01-.01m.14.14l-.13-.13m7.23-20.04h-.15m-7.47-1.34l.9.01m-.9.52v-.53m.4 20.19l-.19-.21m.19.21h.27m-.46-.21v-.11"/><path d="M99.07 85.84h.46m6.73-18.34l.07-.07M99.7 87.85v.1m.06-21.56h-.9m0 0l.18.2"/><path d="M99.16 66.61l.35.04m.03.05l.08.09m.13 0h-.13"/></g><path d="M106.27 67.4l.02-.02" class="J"/><g class="K"><path d="M98.62 86.45h.9m-.9.52v-.52m.91-.71l-.56-.01m0 0l-.1-.1m.65 1.35l-.9-.01m.17.2l-.17-.2m.3.22l.35.04m.03.05l.08.09m.13 0h-.13m6.88-1.37v.19"/><path d="M106.26 86.19l-.15-.16m0 0l.01-.39m0 0l-.05-.05m-.03-.43l.2-17.42m.05-.36l.04.05m0 0v-.39m0 0l.15.16m0 0v.03m-.04 18.87v.29m.21-19.45l.02-1.41m-.43-.47l.43.47m-.27 22.69l.02-1.72"/><path d="M106.42 86.5l.02-.11m-6.54 1.77l-.2-.21m6.14.23l-5.94-.02m5.98.06l-.04-.04m.56.04h-.52"/><path d="M106.4 88.22l-.42-.46m-6.38.09l-.09-.11m.09.11h.4m0 0l.1.1m0 0h-.4m6.28-.19l.26-22.7m-6.47-.01l6.47.01m-6.49 2.1l.02-2.11m-.68 2.11h.66m-.88 18.47l.22-18.47"/><path d="M99.53 85.63h-.66m.64 2.11l.02-2.11m6.45 2.13l-6.47-.02M63.24 59.02v.28"/></g><path d="M62.85 58.87l.39.43" class="J"/><g class="K"><path d="M89.9 44.87l-.39-.43m1.09 2.23l-.04 2.91"/></g><g class="J"><path d="M90.6 46.67l-.39-.42m-.04 2.9l.39.43"/></g><path d="M86.06 59.07l-.01.28" class="K"/><path d="M86 59.3l.05.05" class="J"/><g class="K"><path d="M40.96 102.29l.4.43m67.8-49.62l-.39-.43m.54 48.41l.15-12.13m.28-24.64l.11-9.41"/></g><path d="M109.85 54.9l-.39-.42" class="J"/><path d="M43.27 103.55l63.37.16" class="K"/><g class="J"><path d="M42.88 103.13l.39.42m63.37.16l-.39-.42m2.67-2.64l.39.43"/></g><g class="K"><path d="M62.85 58.85v.02m24.4.06l.03-2.9m.1-8.78l.02-1.59m18.85 57.63l-63.37-.16m66.58-48.65l-.11 9.83m-.29 24.64l-.14 11.7m-2.07-48.82l-14.07-.03"/><path d="M90.17 49.15l.04-2.9m-27.28-2.7h.03m23.83.05l.81.01m-27.34 2.57l-.03 2.9m-2.67 2.63l-14.08-.03m-3.21 48.81l.39-33.36m.15-12.5v-.32m10.12 9.95h1.72m0 0l.24.27m0 0h1.45m-4.3-.41l.89.14m3.75-2.3v.53m.04-.53l.02-2.07"/><path d="M54.71 59.85l.03.04m-.03-.57v.53m.04-.53l.04-3.66m-.34-.37l.34.37m-.36.95l.02-1.32m-.02 1.32l-.36-.39m.27 8.31l-.36-.4m.36.4l-.01 1.32m.34.37l.04-3.7"/><path d="M54.68 62.49l.03.03m-.64-6.3l-3.93-.01m0 0l.01-1.32m0 0l-7.29-.02m0 0l-.12 10.55m7.3-1.3l-.01 1.32m3.95-1.31l-3.94-.01m3.94.01l.09-7.91m-3.16 9.36h1.72"/><path d="M50.03 65.44l.88.14m-8.17-.16l7.29.02m-7.29-.02l.41.45m1.32.01l-1.32-.01m1.48.18l-.16-.17m2.8.18l-2.64-.01m2.78.15l-.14-.14m.14.14l7.26.02"/><path d="M54.33 65.85l.34.37m-1.8-.38l1.46.01m-1.7-.27l.24.26m3.69-6.51l.05.05m-.05.47l.05.06m-1.9-.06h1.85"/><path d="M56.56 59.33v.52m-1.85-.53l1.85.01m-1.88 3.16h1.85"/><path d="M56.53 61.96v.53m-1.85-.53h1.85M53 55.29h1.45m-3.41-.27l1.71.01"/><path d="M52.75 55.03l.25.26m-.26.92l.01-1.18m.24 1.18l.01-.92m-.11 9.24l-.02 1.31m-.22-1.58l-.02 1.32m-2.48-10.69l.89.13m-.02 1.19l.02-1.19m-.11 9.24l-.02 1.32m35.93-26.41s0-.02-.01-.03m-.11 4.98c.06-.03.08-.06.05-.09m-.05 5.57s0-.02-.01-.03m-.12 5.1c.06-.03.08-.06.05-.09m-23.76 2.07s-.05.21-.05.48m23.67.27c0-.29-.02-.55-.04-.58m.61 2.23s.02 0 .03-.06m.06-.24c.02-.1.03-.3.04-.54m.01-.98l-.02-.6m-.05-.36c0-.07-.02-.11-.03-.12m-.54-1.11c0 .29.02.55.04.58"/><path d="M86.63 54.56s-.05.18-.06.47m.07-6.06c0 .29.02.55.04.58m.02-1.06s-.05.18-.06.47m.57-1.25s.02 0 .03-.06m.05-.24c.02-.1.03-.3.04-.54m0-.2l-.02-.6m-.05-.35c0-.07-.02-.11-.03-.12m-.53-1.12c0 .29.02.55.04.58m.01-1.05s-.05.18-.06.47m-17.7 7.01c.16.02.44.04.72.04m.08 0c.28 0 .53-.01.65-.04m-2.49 3.58c-.34 0-.61.27-.61.61m1.92 2.46h.06m9.19-6.63c.16.02.44.04.72.04m-10.59-.12c-.16-.02-.44-.04-.72-.04m11.39.16c.28 0 .53-.01.65-.04m-12.13 3.51c-.29 0-.53.23-.53.53m-1.39-16.97c-1.64 0-2.89.12-2.89.28m.11 17.71c-.25.05-.36.11-.31.16m8.53-5.33c-.28 0-.53.01-.65.04m-2.25 6.14c0 .29.17.51.4.5m.02-1.98c-.22.02-.41.27-.41.56m17.9.74c0-.29-.02-.55-.04-.58m-.1-.11s-.05.18-.06.47m-20.41.87l-1.72.08m1.65-.16l-2.3.1m17.9-2.95s-.09-.02-.14-.02m-9.59.06c-.1-.08-.22-.13-.34-.13m8.39 3.13h.09M70.78 56l-1.03.03m8.41-4.57c-.16-.02-.44-.04-.72-.04m3.43 0c-.28 0-.53.01-.65.04m-2.58 3.58c-.29 0-.53.24-.53.53a.58.58 0 0 0 .1.32m3.23.79c0-.29-.2-.54-.45-.56m-.02 1.98c.25.02.46-.2.47-.5m4.55 1.26c-.49-.06-1.22-.1-1.97-.1m-17.27-.04c-.75 0-1.42.03-1.79.09m17.41-3.63c-.1-.08-.22-.13-.34-.13m-2.04 1.01l-1.09-.04m.89 2.09l-.86-.03m1.04-.04L77.88 58m-7.13-.02l-1.03.03m1.12.05l-.81.02m-2.28-3.14c-.29 0-.53.23-.53.53"/><path d="M71.12 56c.29 0 .53-.24.53-.53s-.23-.53-.52-.53m6.44.02c-.29 0-.53.23-.53.53 0 .29.23.53.52.53m3.91-.52c0-.29-.23-.53-.52-.53m3.95 3.21c-.5-.05-1.19-.09-1.88-.09m3.41-1.3c-.05-.06-.26-.12-.61-.17m.82-17.68c-.16-.18-1.71-.32-3.46-.32m2.27 19.51a28.89 28.89 0 0 0-2.5-.12m-42.11-3.2c0-.13-.05-.26-.14-.36M38.2 67.3c.1.11.24.17.38.17m2.67-2.63c-.29 0-.53.24-.53.53m-.56 2.11c.29 0 .53-.24.53-.53"/><path d="M40.22 55.75c0 .29.23.53.52.53m-.5-2.12c0-.29-.23-.53-.52-.53m-1.58 0c-.29 0-.53.23-.53.53m-.15 12.14c0 .29.23.53.52.53m1.59 0c.29 0 .53-.23.53-.53m.55-2.11c-.29 0-.53.23-.53.53m59.33 1.89s.06.07.09.09m-.33 20.49s.06.07.09.09m-.26-20.69s.05.02.13.03"/><path d="M99.54 66.7c.14-.01.13-.04-.03-.05m-.72 20.52s.05.02.13.03m.38.08c.14-.01.13-.04-.03-.06m6.77-2.06c0 .22.01.41.03.44m.22-18.22s-.04.14-.04.36M63.24 59.3a.93.93 0 0 0 .05.29m2.6 3.44c-.28-.07-.57.1-.64.39-.02.07-.02.14 0 .21m22.1-18.26c-.12-.06-.26-.08-.4-.08m3.65 1.38c0-.67-.24-1.32-.69-1.81m-2.68 10.88a.8.8 0 0 0-.55-.05m3.88-6.11c0 .57.17 1.13.51 1.58m-5.02 8.19a.93.93 0 0 0 .05.29m-.84 3.33c-.28-.07-.57.1-.64.39-.02.07-.02.14 0 .21m-43.26 39.15c.49.53 1.19.84 1.92.84m31.74-29.92c-.28-.07-.57.1-.64.39-.02.07-.02.14 0 .21m5.24-3.94c-.28-.07-.57.1-.64.39-.02.07-.02.14 0 .21m30.87-16c0-.67-.24-1.32-.69-1.81M91.7 86.68c-.28-.07-.57.1-.64.39-.02.07-.02.14 0 .21m3.66-.59c-.28-.07-.57.1-.64.39-.02.07-.02.14 0 .21m-2.42 2.41c-.28-.07-.57.1-.64.39-.02.07-.02.14 0 .21m3.66-.59c-.28-.07-.57.1-.64.39-.02.07-.02.14 0 .21"/><use href="#S"/><path d="M62.85 58.87c0 .44.35.79.78.79.22 0 .43-.09.58-.25m23.07-3.38c0-.41-.3-.75-.71-.79m-.67 4.26a.79.79 0 0 0 1.12-.02c.14-.15.23-.34.23-.55m.15-13.27a.79.79 0 0 0-.69-.79m.31 3.04a.8.8 0 0 0 .36-.66m18.87 56.04a2.67 2.67 0 0 0 2.67-2.63m.54-46.18c.02-1.46-1.15-2.64-2.61-2.65m-16.68-2.68c-.02 1.46 1.15 2.64 2.61 2.65m-2.57-5.55c.02-1.46-1.15-2.64-2.61-2.65m-24.67-.05a2.67 2.67 0 0 0-2.67 2.63m-2.7 5.53a2.67 2.67 0 0 0 2.67-2.63m-16.75 2.6a2.67 2.67 0 0 0-2.67 2.63m-.54 46.18c-.02 1.46 1.15 2.64 2.61 2.65"/></g></g><use href="#T" class="K"/><path d="M78.71 70.75a.53.53 0 0 0 .74.03c.21-.2.23-.53.03-.74a.53.53 0 0 0-.74-.03c-.21.2-.23.53-.03.74zm5.64-7.33a.53.53 0 0 0 .74.03c.21-.2.23-.53.03-.74a.53.53 0 0 0-.74-.03c-.21.2-.23.53-.03.74zm9.46 23.72a.53.53 0 0 0 .74.03c.21-.19.23-.53.03-.74a.53.53 0 0 0-.74-.03c-.21.19-.23.53-.03.74zm-3.06 3.01a.53.53 0 0 0 .74.03c.21-.19.23-.53.03-.74a.53.53 0 0 0-.74-.03c-.21.19-.23.53-.03.74zm.04-3.02a.53.53 0 0 0 .74.03c.21-.2.23-.53.03-.74a.53.53 0 0 0-.74-.03c-.21.2-.23.53-.03.74zM74.11 74.09a.53.53 0 0 0 .74.03c.21-.19.23-.53.03-.74a.53.53 0 0 0-.74-.03c-.21.2-.23.53-.03.74zm-9.13-10.61a.53.53 0 0 0 .74.03c.21-.2.23-.53.03-.74a.53.53 0 0 0-.74-.03c-.21.19-.23.53-.03.74z" class="K"/><g class="L"><path d="M66.78 60.05s-.02-.02-.02-.03m1.32 0h-.01m.82.03s-.02-.02-.02-.03m11.9.06s-.02-.02-.02-.03m2.93.04s-.02-.02-.02-.03m-20.53-3.49h.05.02s.02 0 .02.01c.02.01.03.02.05.04.01.02.03.04.04.06s.02.05.04.07c0 .01.01.03.01.04s0 .03.01.05 0 .03 0 .05v.15m22.09.07v-.1-.05c0-.02 0-.03.01-.05 0-.03.02-.06.04-.09.01-.03.03-.05.05-.07l.06-.06s.02-.02.03-.02.02-.01.03-.02.02 0 .03-.01.02 0 .03 0h.06M27.45 61.3a4.16 4.16 0 0 0-.99-.21c-.31-.03-.62-.03-.93 0a3.51 3.51 0 0 0-.85.2 4.21 4.21 0 0 0-.75.34 4.86 4.86 0 0 0-1.16.91c-.27.29-.52.6-.73.94-.17.27-.32.55-.44.84a7.32 7.32 0 0 0-.33.93c-.2.69-.29 1.42-.29 2.14v.27m1.38 5.55l.19.53.7 2.04.61 1.85c.23.64.5 1.29.9 1.85a4.85 4.85 0 0 0 .55.65c.18.18.39.33.6.47a3.92 3.92 0 0 0 .65.32c.27.1.54.16.83.2a4.35 4.35 0 0 0 1.02 0c.38-.05.76-.14 1.12-.28a5.7 5.7 0 0 0 .99-.49c.29-.18.57-.39.82-.63a6.4 6.4 0 0 0 1.19-1.46 6.49 6.49 0 0 0 .75-1.88l.08-.41" class="K"/><path d="M32.82 71.05l-.18-.55-.61-1.75-.96-2.44a9.48 9.48 0 0 0-.57-1.04 5.49 5.49 0 0 0-.67-.84c-.22-.22-.47-.42-.73-.58l-.37-.2m-6.62 11.87c0 .05-.01.1-.02.15-.1.88-.32 1.77-.56 2.67L20.78 81l-.3 1.31-.22 1.08-.22.79a4.76 4.76 0 0 1-.24.54c-.16.3-.33.5-.53.69-.19.18-.41.36-.7.55l-.26.17m-4.42 1.53l-1.25.22a14.98 14.98 0 0 1-1.49.13c-.88.02-1.77-.06-2.64-.21a24.52 24.52 0 0 1-2.06-.47l-1.67-.46-1.94-.47c-.74-.14-1.47-.24-2.2-.26-.78-.03-1.57.03-2.35.14l-.68.12m4.92 1.29l.36.07 2.02.52 2.58.67c1 .22 2.02.36 3.03.39.5.01 1 0 1.49-.05l1.37-.18 1.18-.24 1.02-.25c.6-.16 1.17-.34 1.7-.55.51-.19.97-.41 1.38-.63.02 0 .03-.02.05-.03m2.89-3.97l.32-1.5.38-1.45.47-1.65.43-1.75m.18-4.99c0-.11-.02-.21-.02-.32-.04-.59-.07-1.2-.03-1.81.03-.56.11-1.12.25-1.66.13-.48.3-.94.53-1.37m4.01-2.1a2.42 2.42 0 0 1 .39.21 2.01 2.01 0 0 1 .39.33c.16.16.31.35.45.56.18.26.34.55.48.85l.5 1.2.72 1.98.63 1.9a13.42 13.42 0 0 1 .38 1.64c.1.64.12 1.29.05 1.93m-3.68 4.33c-.25.04-.51.06-.76.04a2.48 2.48 0 0 1-.76-.18c-.16-.07-.32-.16-.46-.26a2.11 2.11 0 0 1-.35-.32 3.08 3.08 0 0 1-.37-.5c-.15-.24-.28-.5-.39-.76-.19-.45-.35-.91-.49-1.36l-.6-1.86-.68-1.93-.59-1.67-.42-1.46c-.13-.58-.23-1.18-.25-1.77m3.04-5.26a2.81 2.81 0 0 1 .76-.08 2.73 2.73 0 0 1 .93.17" class="K"/><path d="M27.45 61.3h-.01v.01h-.01l-.01.01v.01l-.01.01-.01.01-.01.02-.01.02-.01.02-.01.02-.01.02-.01.02-.01.02-.01.03-.01.03-.02.02-.01.03-.01.04-.01.03-.01.03-.02.04-.01.04-.01.03-.02.04-.01.04-.01.04-.01.04-.02.04-.01.04-.01.04-.01.03-.01.04-.01.04-.01.03v.03l-.01.03-.01.03v.03l-.01.03v.02l-.01.02v.02.02.02l-.01.02v.02.01.01l.01.01v.01h0l.01.01" class="K"/><path d="M30.24 62.81c-.16-.13-.36-.26-.57-.41a11.43 11.43 0 0 0-.93-.56c-.41-.21-.83-.39-1.29-.55m-.4 1.28c.37.13.73.28 1.06.45.3.15.58.32.84.5l.61.43.42.33.5.38c.1.06.21.1.3.12.18.04.29-.02.35-.09.08-.1.08-.24.09-.39v-.5c0-.14.02-.28.1-.42.04-.08.1-.15.19-.23.12-.1.29-.2.54-.29.14-.05.31-.09.5-.12.21-.04.45-.07.7-.09l.89-.04h1.08m2.3-1.34h-2.3l-2.64.11s-2.6-.04-2.33 1.44m4.97-.23h2.29m-10.16-.31c-.57-.05-1.11-.03-1.62.07a4.27 4.27 0 0 0-1.35.48c-.35.19-.67.44-.97.72-.23.22-.45.45-.65.7-.42.51-.78 1.09-1.09 1.7a9.76 9.76 0 0 0-.77 2.03c-.21.78-.32 1.58-.33 2.37a9.14 9.14 0 0 0 .34 2.5c.23.83.58 1.63 1.01 2.39.4.71.88 1.38 1.4 2.01l.69.77m4.34 1.8l.48-.11a6.14 6.14 0 0 0 .98-.37 7.68 7.68 0 0 0 1.8-1.21c.54-.48 1.03-1.03 1.43-1.63.41-.6.73-1.25.95-1.92s.34-1.36.34-2.05a6.5 6.5 0 0 0-.24-1.76c-.15-.53-.37-1.03-.64-1.52-.32-.57-.73-1.11-1.19-1.61a10.9 10.9 0 0 0-.97-.95m-3.72-2.05l-.28-.05a4.61 4.61 0 0 0-1.05-.01c-.67.07-1.33.28-1.93.59a6.09 6.09 0 0 0-1.16.79" class="K"/><path d="M20.75 72.04c0 .09.01.18.02.27.08.77.26 1.53.46 2.28l.59 2.39M8.17 87.73l.9-.2 1.71-.45 2.01-.52 1.46-.27 1.15-.14.93-.06h.79l1.32.04c.39 0 .78-.03 1.16-.18a1.84 1.84 0 0 0 .5-.26c.16-.11.31-.24.45-.4s.28-.35.4-.56a7.26 7.26 0 0 0 .36-.74l.25-.72M2.97 87.74l-1.8-.43-2.13-.58c-.76-.2-1.52-.37-2.28-.48a12.84 12.84 0 0 0-2.23-.13c-.71.02-1.42.11-2.13.24l-2.02.47-1.96.53-1.38.31m5.44.03l.61-.11a12.41 12.41 0 0 1 1.82-.15c.63 0 1.27.05 1.9.15.67.11 1.35.27 2.03.45l2.15.59 2.27.5a14.26 14.26 0 0 0 2.26.19c.68 0 1.36-.05 2.04-.15l.69-.11m5.77-1.38l.2-.03 1.14-.15 1.07-.08h.94l1.1.03a6.04 6.04 0 0 0 .94-.07 3.55 3.55 0 0 0 .74-.2 3.7 3.7 0 0 0 .9-.51c.3-.24.58-.54.83-.9.28-.4.51-.86.7-1.35.22-.57.38-1.18.51-1.77.16-.72.27-1.42.32-2.12.06-.84.04-1.69-.07-2.54l-.12-.8m-.73-8.07a5.65 5.65 0 0 1 .8-1.39c.39-.49.86-.92 1.4-1.24.27-.17.57-.31.87-.41s.62-.17.94-.19a3.23 3.23 0 0 1 .98.09c.37.09.72.23 1.05.4.38.19.73.43 1.07.67l.55.43m2.61 3.51c.13.41.21.84.23 1.27.03.6-.06 1.22-.25 1.83a6.56 6.56 0 0 1-.87 1.76c-.4.57-.9 1.1-1.45 1.54-.28.22-.57.42-.88.59-.28.16-.58.29-.88.39-.27.09-.54.15-.81.17a2.72 2.72 0 0 1-.7-.04c-.23-.05-.44-.12-.66-.23-.24-.12-.47-.27-.69-.43-.22-.17-.43-.35-.64-.55M22.4 73.2c-.11-.29-.2-.59-.28-.9-.19-.74-.26-1.51-.22-2.28.04-.76.19-1.52.43-2.25.22-.66.52-1.3.88-1.88.2-.32.41-.62.65-.9.28-.33.58-.62.9-.84.34-.23.7-.38 1.09-.47.45-.11.93-.13 1.45-.07" class="K"/><path d="M27.47 62.73v.03.04.03.04.03.04.03l-.01.04v.03.03.03.04l-.01.03v.03l-.01.04v.03l-.01.03v.03l-.01.03v.03l-.01.03-.01.02v.03l-.01.02-.01.02-.01.02v.02l-.01.01-.01.01-.01.01-.01.01v.01h-.01l-.01.01h-.01" class="J"/><g class="K"><path d="M35.25 58.59c-.63-.02-1.24 0-1.85.02l-1.31.1a6.71 6.71 0 0 0-.87.17 3.38 3.38 0 0 0-.54.21c-.11.06-.21.12-.3.19l-.17.15c-.11.11-.18.23-.24.35a1.29 1.29 0 0 0-.1.41 1.48 1.48 0 0 0 .03.43c.04.16.09.31.16.44.08.16.17.31.26.45.1.16.21.3.3.43l.21.29.09.13c.01.02.01.02.03 0l.03-.03s-.03.02-.08.03-.14.03-.25.04c-.15.02-.35.02-.58.02-.13 0-.26 0-.4-.01m-2.37 1.2l1.31.06.6.03m2.61-2.15l-.3-.46-.26-.43c-.05-.1-.09-.2-.09-.27v-.05l.01-.02c.01-.01.03-.03.08-.06s.14-.07.25-.11a3.5 3.5 0 0 1 .59-.13c.35-.05.76-.08 1.16-.09l1.98-.02m2.31-1.32h-2.3m0 1.32h2.29m72.92 9.92h-.21m.19 2.11h-.22m.19 2.12h-.21m.19 2.11h-.22m.2 2.11h-.22m.19 2.11h-.21m.19 2.11h-.22m.19 2.11h-.21m-3.58-17.38h-.17m3.94 1.24l.21.01m-3.98-.7h-.26m.24 1.12l-.25-.01"/><path d="M106.48 68.86h-.25m4.01 1.73h.22m-3.98-1.26h-.25m.23 1.68h-.25"/><path d="M106.46 70.97h-.25m4.01 1.73h.21m-4 .42h-.25m.26-.04h-.26m.27-1.64h-.25m3.99 3.37h.22m-4.23-1.26l.25.01m-.02 1.67h-.25"/><path d="M106.41 75.19h-.25m4.01 1.73h.21m-4.23-1.25h.25m-.01 1.67h-.26"/><path d="M106.39 77.3h-.26m4.01 1.73h.22m-4 .42h-.25m.02-1.67h.25"/><path d="M106.36 79.41h-.25m.23 6.59h-.23"/><path d="M106.11 85.86h.18m3.83-4.72h.21m-3.99.42h-.26m.02-1.67h.26"/><path d="M106.08 81.52h.26m3.75 1.73h.22m-4 .42h-.25"/><path d="M106.06 83.63h.25m-.23-1.63h.25m-.29 3.25h.25"/><path d="M106.04 85.19h.25m-.24-1.08h.26m.38 2.26l-.41-.43m4.1.44h-.06m-2.46-.01h-1.17m3.6-1.76l.05.05m-.05.39v-.44m-.22.21l.22.23m-.2-2.03l-.02 1.8"/><path d="M110.31 83.25l-.22-.23m.21.48l.01-.25m.03 1.41v-.1m-.02-2.06l.04.05m-.05.38l.01-.43"/><path d="M110.1 82.7l.21.23m-.19-2.02l-.02 1.79"/><path d="M110.33 81.14l-.21-.23m.21.48v-.25m.03 1.41l.01-.1m.24-15.07l-.02 1.35m-.01 1.06l-.01 1.05m-.02 1.06l-.01 1.05m-.01 1.06l-.01 1.05m-.02 1.06l-.01 1.05m-.01 1.06l-.01 1.05m-.02 1.06l-.01 1.05m-.01 1.06l-.01 1.05m-.01 1.06l-.03 1.82m.17-19.06l.06.06m-.06-.06l.03-2.64m0 0l-.35-.37m.06 24.64l.03-2.63"/><path d="M110.38 86.38l-.06-.06m.17-14.32v-.1"/><path d="M110.44 71.94l.05.06m-.06.38l.01-.44m-.22.21l.21.23m-.19-2.02l-.02 1.79"/><path d="M110.46 70.59l-.22-.23m.21.48l.01-.25m.05-.7v-.1m-.05.04l.05.06m-.05.38v-.44"/><path d="M110.25 70.04l.21.23m-.19-2.02l-.02 1.79"/><path d="M110.48 68.48l-.21-.23m.21.48v-.25m-.09 11.96v-.1"/><path d="M110.34 80.39l.05.05m-.05.38v-.43m-.22.2l.22.23m-.2-2.02l-.02 1.79"/><path d="M110.36 79.03l-.22-.23m.21.48l.01-.25m.05-.7l.01-.1m-.05.05l.04.05m-.05.38l.01-.43"/><path d="M110.15 78.48l.21.23m-.19-2.02l-.02 1.79"/><path d="M110.38 76.92l-.21-.23m.21.48v-.25m.06-.7v-.1"/><path d="M110.39 76.17l.05.05m-.05.38v-.43m-.22.2l.22.23m-.2-2.02l-.02 1.79"/><path d="M110.41 74.81l-.22-.23m.21.48l.01-.25m.05-.7v-.1"/><path d="M110.41 74.06l.05.05m-.05.38v-.43m-.21.2l.21.23m-.19-2.02l-.02 1.79"/><path d="M110.43 72.7l-.21-.23m.21.48v-.25m-.2-8.39l-.28 24.27m-1.83-24.28l2.11.01m-2.11-.01l-.03 2.64m0 0h-1.58m0 0l-.23 19m0 0h1.59m0 0l-.03 2.64m2.11 0l.34.37m-.34-.37h-2.11m0 0l.34.37m2.11 0h-2.11m21.51-5.93h-3.12m0 1.06h3.12"/><path d="M139.62 86.16l-.36-.24-1.6-.99-1.5-.77a11.74 11.74 0 0 0-1.83-.66c-.72-.2-1.47-.32-2.21-.39-.8-.08-1.61-.11-2.42-.08m-.01 1.05c.69-.02 1.37 0 2.05.06.6.05 1.2.13 1.79.26a11.43 11.43 0 0 1 2.14.71 16.56 16.56 0 0 1 1.62.84l1.22.75.91.6 1.47.96 2.07 1.16c.43.21.88.39 1.33.55a10.95 10.95 0 0 0 1.59.42c.46.08.93.13 1.41.16m-34.91-9.15h-2.25m-.03 1.05h2.28m14.2.56h-1.44c-.35 0-.71 0-1.06-.02-.27 0-.54-.02-.8-.03-.22 0-.43-.02-.63-.03l-.9-.08-.58-.09a6.54 6.54 0 0 1-.71-.18 5.96 5.96 0 0 1-.59-.24l-.6-.28c-.22-.1-.48-.2-.85-.29-.19-.05-.42-.1-.71-.14l-1.11-.13-.76-.05-.94-.03c-.38 0-.76-.02-1.14-.02h-1.38m0 1.06h1.41l1.14.02.91.03.72.05 1.02.12a5.29 5.29 0 0 1 .78.17c.2.06.36.12.5.18l.37.17.35.17a4.5 4.5 0 0 0 .62.24c.21.07.46.13.8.19l.65.1.97.09.66.04.83.03 1.06.02h1.4m.1-8.45h3.12m0-1.05h-3.12m3.12 1.06l1.44.03a9.73 9.73 0 0 1 1.21.13c.66.11 1.31.3 1.92.59a7.5 7.5 0 0 1 1.47.94c.42.34.81.73 1.17 1.13.42.47.8.96 1.17 1.46l.62.87m11.12 6.24a9.98 9.98 0 0 1-2.62-.06l-.67-.12"/><path d="M137.93 77.9c-.45-.52-.94-1-1.47-1.43a7.16 7.16 0 0 0-.96-.67c-.43-.26-.88-.48-1.34-.65-.6-.22-1.24-.36-1.87-.45-.82-.12-1.65-.17-2.49-.12m-19.6-.57h2.28m0-1.06h-2.27m2.27 1.06l1.76.01 1.25.03.92.05.68.06.91.14.64.17c.13.04.24.09.34.13l.2.09.19.09c.05.02.1.05.16.07l.16.07.25.1a4.91 4.91 0 0 0 .42.15 7.44 7.44 0 0 0 .68.17c.3.06.68.11 1.15.15l.83.06 1.03.04 1.23.02h1.4"/><path d="M126.67 74.57h-1.38c-.39 0-.78 0-1.16-.02-.32 0-.63-.02-.93-.03l-.72-.05-.97-.11-.61-.12c-.14-.03-.26-.07-.36-.1l-.38-.15-.42-.19-.47-.21c-.14-.06-.3-.12-.5-.18-.16-.05-.34-.09-.55-.14-.17-.04-.37-.07-.6-.1l-.94-.1-.67-.04-.87-.03-1.14-.02h-1.52"/></g><path d="M149.8 87.34v-.02-.02l.01-.02v-.01-.02-.02l.01-.01v-.01-.02l.01-.01v-.01-.02l.01-.01v-.01-.01l.01-.01v-.01" class="J"/><g class="K"><path d="M167.13 89.14l-.66-.19c-1.23-.33-2.49-.54-3.74-.74l-4.08-.6-4.34-.44-4.39-.12m-23.33-5.09h3.12m0-1.05h-3.12"/><path d="M129.71 81.97c.8-.04 1.58 0 2.36.09.67.08 1.34.2 1.98.4.57.18 1.13.42 1.65.71.47.26.92.55 1.36.86.49.35.95.73 1.41 1.12l1.05.92.98.86 1.54 1.26c.56.42 1.15.81 1.77 1.15a9.53 9.53 0 0 0 1.12.53 9.15 9.15 0 0 0 1.37.45 11.77 11.77 0 0 0 1.66.29c.64.07 1.28.11 1.93.11m-9.39-5.21l-1.19-1.04-1.66-1.33c-.56-.4-1.14-.76-1.76-1.07l-.93-.41c-.42-.16-.84-.29-1.28-.4-.58-.14-1.17-.22-1.76-.28a16.22 16.22 0 0 0-2.21-.07m-19.58-.57h2.27m.01-1.05h-2.26m2.25 1.06h1.54l1.11.02.84.03.66.04.95.11a5.61 5.61 0 0 1 .91.2c.2.06.35.12.49.18l.43.2.37.17.42.16c.17.06.37.11.61.17.21.05.45.09.75.13l1.16.11.78.04.92.03 2.23.02m.03-1.06c-.77 0-1.52 0-2.27-.02-.3 0-.61-.01-.9-.03l-.75-.04-1.08-.11-.67-.12-.52-.15-.37-.15-.35-.16-.56-.25c-.21-.08-.47-.17-.82-.25l-.69-.13-1.03-.11-.7-.04-.87-.03-1.12-.02h-1.51"/></g><path d="M149.88 90.73h0 0v-.01h0l.01-.01h0v-.01-.01-.01h0l.01-.01v-.02-.01-.01-.01-.02-.01-.02l.01-.02v-.02-.02-.02-.02-.02-.02-.02l.01-.03v-.02-.03-.02-.03-.02-.08" class="J"/><g class="K"><path d="M149.88 90.73l4.26-.09M126.7 73.52h3.12m-.01-1.05h-3.12m3.12 1.06a15.83 15.83 0 0 1 1.69.04c.45.03.9.08 1.34.17.39.08.77.19 1.14.34.34.14.68.31.99.51.62.39 1.16.89 1.64 1.45.59.68 1.09 1.43 1.55 2.2l1.18 2.13.92 1.68.42.72m6.64 5.29l.4.08c.68.12 1.36.21 2.06.25m.1-1.06l-1.72-.2-1.33-.27a7.82 7.82 0 0 1-1.06-.37c-.44-.2-.87-.44-1.26-.73a8.08 8.08 0 0 1-1.03-.91c-.62-.65-1.15-1.4-1.64-2.18l-.39-.64"/><path d="M137.63 75.6c-.05-.07-.11-.13-.16-.19a9.07 9.07 0 0 0-.97-.99c-.45-.39-.94-.74-1.47-1.02a7.81 7.81 0 0 0-.98-.42c-.38-.13-.77-.23-1.16-.31a12.67 12.67 0 0 0-1.38-.16l-1.7-.04m-19.59-.57h2.28m.01-1.06h-2.27m2.26 1.06h1.13.87l1.26.04.84.05.58.05.64.09.3.06.42.11c.17.05.31.11.44.16l.44.2c.13.07.27.13.43.2.14.06.28.12.47.17a3.96 3.96 0 0 0 .55.14c.17.04.35.07.58.1l.94.11.69.05.9.04 1.18.02h1.55"/><path d="M126.7 72.46c-.66 0-1.31 0-1.97-.01a26.1 26.1 0 0 1-1.27-.04l-.82-.05-.52-.05c-.14-.01-.27-.03-.39-.05l-.23-.03-.25-.04-.53-.12c-.21-.06-.37-.12-.52-.19l-.48-.22c-.23-.11-.47-.23-.83-.34l-.57-.15-.59-.11-.35-.05-.29-.03-.31-.03-.47-.03-.75-.04c-.24 0-.48-.02-.72-.02-.33 0-.66-.01-.98-.01h-1.37m37.35 16.5h.01v-.01h.01l.01-.01h0 .01 0 .01 0 .01 0l.01.01v.01h.01v.01.01l.01.01"/></g><path d="M149.78 88.38h-.01l-.01-.01h-.01l-.01-.02v-.01l-.01-.02-.01-.03v-.02l-.01-.03v-.03-.03-.04-.03-.04-.04V88v-.04-.04-.04l.01-.04v-.05l.01-.04.01-.04v-.05l.01-.04.01-.04.01-.03.01-.04.01-.03.01-.03.01-.03.01-.02.01-.02.01-.01v-.02" class="J"/><g class="K"><path d="M149.78 88.38l3.33.42 3.75.58 4.05.63 4.2.56 3.85.83 1.79.46m-3.49-1.97l-.33-.07c-1.52-.32-3.08-.48-4.62-.69l-4.5-.67-4.19-.65-3.74-.48m-23.26-7.48h3.12m0-1.05h-3.12"/><path d="M129.74 79.86a14.95 14.95 0 0 1 2.01.06 10.54 10.54 0 0 1 1.77.29c.51.13 1.01.32 1.49.54a9.6 9.6 0 0 1 1.24.73c.71.49 1.35 1.07 1.97 1.67l1.68 1.74 1.02 1.05.97.93 1.12.93a12.39 12.39 0 0 0 1.13.76c.46.27.94.52 1.44.72a15.14 15.14 0 0 0 1.84.59c.77.19 1.54.32 2.34.39m-4.02-2.07a1.01 1.01 0 0 1-.15-.07c-.56-.26-1.1-.58-1.6-.93-.41-.29-.8-.6-1.18-.93l-.93-.86-.87-.88-.83-.87-.9-.93-.91-.88-1-.85a11.45 11.45 0 0 0-1.14-.78 9.66 9.66 0 0 0-1.62-.78c-.71-.25-1.46-.41-2.21-.52-.88-.12-1.76-.17-2.67-.12m-19.58-.56h2.28m0-1.05h-2.27m2.27 1.06h1.53l1.15.02.88.03.68.05.99.12a5.11 5.11 0 0 1 .77.17l.49.17.35.16.27.13.3.13.46.16c.19.06.41.12.7.17l.8.12 1.15.09 1.57.05.96.01h1.14m0-1.03h-1.29c-.35 0-.69 0-1.04-.01a12.14 12.14 0 0 1-.86-.03l-.7-.04-1.02-.1a5.96 5.96 0 0 1-.64-.11c-.2-.04-.36-.08-.5-.13l-.4-.14c-.13-.05-.25-.11-.37-.17l-.62-.28c-.24-.1-.52-.19-.92-.28-.2-.05-.44-.09-.73-.13l-1.06-.11-.7-.04-.87-.03c-.36 0-.73-.01-1.09-.02h-1.39"/></g><g class="J"><path d="M149.85 89.36l.01-.01h0v-.01h0v-.01-.01h0v-.01h0v-.01h0v-.01-.01h0v-.01h.01v-.01m-.13.99h.01v-.01h0v-.01-.01-.02-.01l.01-.02v-.02-.02-.02l.01-.02v-.02-.03l.01-.03v-.02-.04l.01-.03v-.03l.01-.04v-.03-.04l.01-.03v-.04l.01-.04v-.03l.01-.04v-.04-.03l.01-.03v-.03l.01-.03v-.08"/></g><g class="K"><path d="M149.74 90.25l4.87.43 4.72.04 1.33-.07m-34.02-12.91h3.12m0-1.05h-3.12"/><path d="M129.76 77.75a11.09 11.09 0 0 1 2.58.14c.67.12 1.34.29 1.97.57.54.24 1.04.55 1.51.91a11.91 11.91 0 0 1 1.19 1.05l1.06 1.15m9.03 7.18l.47.02m-8.78-7.98l-.53-.6-1-1c-.36-.33-.74-.64-1.14-.91-.49-.34-1.02-.64-1.58-.87-.68-.28-1.4-.46-2.12-.58-.87-.14-1.75-.19-2.65-.14m-19.59-.57h2.27m.01-1.06h-2.27m2.26 1.07h1.51l1.14.02.87.03.68.04.96.11c.42.07.71.14.93.21l.5.2.45.21.4.18.47.16.65.15.78.12 1.14.1 1.61.06 2.1.02m.01-1.06c-.72 0-1.42 0-2.13-.02l-1.57-.06-1.08-.09-.7-.11a3.62 3.62 0 0 1-.55-.14l-.41-.15c-.13-.05-.25-.11-.37-.17l-.57-.26a6.05 6.05 0 0 0-.82-.27c-.19-.05-.42-.09-.7-.14l-1.04-.12-.71-.05-.9-.03-1.15-.02h-1.49m17.2 10.08h-3.12m.01 1.06h3.12m17.9 2.6h-.18m-8.76-2.02l-.36-.13-2.33-.77c-.94-.26-1.9-.46-2.87-.58-1.13-.15-2.27-.2-3.41-.16m0 1.06c1.19-.05 2.37.01 3.53.18.91.13 1.82.33 2.71.59l2.05.69 1.47.56 1.72.63 1.66.51m-30.44-5.84h-2.27m-.01 1.05h2.28m14.19.57h-1.45c-.35 0-.7 0-1.05-.02-.27 0-.54-.02-.8-.03a6.26 6.26 0 0 1-.63-.04l-.91-.09-.6-.09c-.31-.06-.52-.12-.71-.18-.22-.07-.39-.15-.56-.23l-.53-.25c-.21-.09-.44-.19-.76-.28l-.65-.15-1.08-.14-.79-.06-1-.04-1.21-.02h-1.47m.01 1.06h1.42l1.13.02.9.03.69.04.93.1.64.12.4.11c.13.04.25.09.35.13l.33.15.35.17.42.18c.18.07.38.13.66.2a6.6 6.6 0 0 0 .74.14l1.07.11.71.04.87.03 1.1.02h1.48m3.29-15.8h-3.11m-.01 1.05h3.11m20.04 16.81c-.77-.08-1.52-.23-2.25-.43-.57-.15-1.14-.34-1.68-.58-.44-.21-.86-.46-1.25-.75-.34-.25-.65-.54-.94-.84a9.69 9.69 0 0 1-1.3-1.75c-.3-.49-.56-1.01-.8-1.53l-.35-.78-.47-1.12-.59-1.51-.75-1.9-.64-1.43-.81-1.48a9.41 9.41 0 0 0-1.08-1.43c-.33-.35-.69-.68-1.08-.96-.44-.31-.92-.57-1.43-.77a7.28 7.28 0 0 0-1.21-.35 12.3 12.3 0 0 0-1.5-.2 17.04 17.04 0 0 0-1.89-.05"/><path d="M129.84 71.42c.7-.03 1.39 0 2.07.06.47.05.95.11 1.41.23.35.09.69.21 1.02.35a5.24 5.24 0 0 1 .77.43c.4.27.76.59 1.08.94a7.4 7.4 0 0 1 .7.89c.44.64.8 1.33 1.13 2.03l.95 2.26.54 1.41.56 1.41.93 2.05c.32.63.68 1.24 1.09 1.81.47.66 1.02 1.27 1.65 1.78a7.59 7.59 0 0 0 1.11.77 6.71 6.71 0 0 0 .85.42m-33.17-19.53h-2.27m-.01 1.06h2.28m14.19.56h-1.33c-.33 0-.65 0-.98-.01-.25 0-.5-.01-.75-.02-.2 0-.4-.02-.59-.03l-.9-.07-.65-.08c-.39-.06-.65-.13-.87-.2l-.6-.23-.5-.24c-.2-.09-.43-.19-.74-.28l-.65-.16-1.04-.15-.77-.06-.98-.05-1.25-.03c-.53 0-1.06-.01-1.59 0m0 1.05h1.36l1.05.02.81.03.63.03.85.07.5.07.72.15c.22.06.4.12.55.19l.33.15.41.2c.17.08.37.16.61.24.19.06.42.12.72.18.29.06.65.11 1.1.15l.73.06.91.04 1.2.03 1.71.01"/></g><path d="M149.87 88.22h-.01v.01h0l-.01.01h0l-.01.01v.01l-.01.01v.02l-.01.01v.02l-.01.02-.01.02v.03l-.01.02v.03l-.01.02-.01.03v.03l-.01.03v.03l-.01.03-.01.03v.03l-.01.03v.03l-.01.03v.03.02l-.01.03v.03l-.01.03v.03.03l-.01.03v.03.02.03.02l-.01.03v.02.02.02.02.01.02l.01.01v.01.01h0v.01h.01" class="J"/><path d="M149.7 89.27l4.71.73 4.81.56 4.44.21 3.04.11" class="K"/><path d="M23.19 55.19l.61.66" class="J"/><path d="M23.8 55.85l7.92.02" class="K"/><path d="M18.45 61.12l-.61-.67" class="J"/><path d="M18.3 74.31l.15-13.19" class="K"/><g class="J"><path d="M31.72 55.87l-.61-.66m-7.92-.02l-.11-1.45"/></g><path d="M31.11 55.21l-7.92-.02" class="K"/><g class="J"><path d="M17.69 73.65l.61.66m-.46-13.86l-1.44-.13"/></g><path d="M17.84 60.45l-.15 13.2" class="K"/><g class="J"><path d="M31.11 55.21L31 53.76M10.28 82.2l-.61-.66"/></g><path d="M9.67 81.54l-314.21-.76" class="K"/><path d="M31.9 82.79l-.49-.53" class="J"/><g class="K"><path d="M10.28 82.2l10.22.03m2.65.01l8.26.02"/></g><g class="J"><path d="M17.69 73.65l-1.44-.14m-6.58 8.03l-.1-1.45M36.33 60.5l1.19-.13"/></g><g class="K"><path d="M36.02 86.89l.28-24.29m.02-1.33l.01-.77m-90.15 31.44l84.49.21"/></g><g class="J"><path d="M36.02 86.89l1.19-.13m-6.67 6.58l.13-1.19m84.93-23.37l-.15-.17"/></g><g class="K"><path d="M-303.44 81.96l323.83.8m2.66 0l8.85.03"/></g><g class="J"><path d="M120.79 63.34l.61.67m-6.16 22.41l.61.66"/></g><g class="K"><path d="M115.45 68.61l-.01.16m-.01 1.06l-.01 1.05m-.01 1.06l-.02 1.05m-.01 1.06l-.01 1.05m-.01 1.06l-.02 1.05m-.01 1.06l-.01 1.06m-.01 1.06l-.02 1.05m-.01 1.06l-.01 1.05m-.01 1.06l-.02 1.81"/></g><g class="J"><path d="M114 68.47l1.45.14m29.71-4.55l-.61-.66m-23.87-1.51l.11 1.45"/></g><path d="M144.55 63.4l-23.76-.06" class="K"/><g class="J"><path d="M113.79 86.28l1.45.14m29.21-24.47l.1 1.45m6.42 5.16l-1.2.13"/></g><path d="M149.64 79.91l.13-11.22" class="K"/><path d="M150.84 79.78l-1.2.13" class="J"/><path d="M120.46 91.71l63.71.16" class="K"/><path d="M120.32 92.9l.14-1.19" class="J"/><g class="K"><path d="M116.05 69.86l-.01 1.05m-.02 1.06l-.01 1.05m-.01 1.06l-.01 1.05m-.02 1.06l-.01 1.05m-.01 1.06l-.01 1.05m-.01 1.06l-.02 1.05m-.01 1.06l-.01 1.05m-.01 1.06l-.03 2.45m5.55-23.07l23.76.05m-544.75-15.18L60.05 50m30.55.08l448.76 1.1m-844 28.14l314.21.77m6.68-6.58l.15-13.19m6.68-6.58l7.92.02m6.52 6.61l-.01.9m-.01 1.33l-.29 24.16m-6.67 6.58l-84.5-.21m593.18-40.77L91.2 51.27m-32.05-.08l-458.88-1.12m583.76 42.98l-63.71-.15m-6.53-6.62l.02-1.7m.02-1.06l.01-1.05m.01-1.06l.01-1.05m.02-1.07l.01-1.05m.01-1.06l.01-1.05m.02-1.06l.01-1.05m.01-1.06l.01-1.05m.02-1.06l.01-1.05m.01-1.06v-.27m6.68-6.58l23.77.06M36.04 85.07a5.23 5.23 0 0 0-4.63-2.81"/><path d="M23.8 55.85c-2.92 0-5.31 2.35-5.34 5.26m16.77-3.88a5.23 5.23 0 0 0-3.51-1.36m-8.53-.68c-2.92 0-5.31 2.35-5.34 5.26M10.28 82.2c4.37.01 7.96-3.52 8.01-7.9m18.04-13.8c0-.2 0-.4-.03-.6m-.31-1.32c-.77-2.03-2.7-3.37-4.88-3.37M9.67 81.54c4.37.01 7.96-3.52 8.01-7.9m12.99 18.51c2.92 0 5.31-2.35 5.34-5.26"/><path d="M35.48 84.21c-.97-.91-2.25-1.42-3.58-1.42m88.89-19.45c-2.92 0-5.31 2.35-5.34 5.26m-.21 17.82c-.03 2.91 2.3 5.28 5.22 5.29m29.31-23.02c.03-2.91-2.3-5.28-5.22-5.29h0m5.09 16.51c-.03 2.91 2.3 5.28 5.22 5.29"/><path d="M115.85 87.08c-.01 1.18.37 2.34 1.09 3.27m31.74-24.93a5.23 5.23 0 0 0-3.51-1.36m-23.77-.05c-2.73 0-5.04 2.07-5.32 4.79m-5.93-9.93c0-.72-.1-1.43-.32-2.11m-.05 4.22c.24-.68.36-1.39.37-2.11m-.45 38.62c0-.72-.1-1.43-.32-2.11m-8.53 8.32c1.4.5 2.94.5 4.36.01m4.12-4.11c.24-.68.36-1.39.37-2.11m-64.3 6.07c1.4.5 2.94.5 4.35.01M9.57 80.09c3.65 0 6.64-2.94 6.68-6.58m6.83-19.77c-3.65 0-6.64 2.94-6.68 6.58m20.89-1.76A6.52 6.52 0 0 0 31 53.75m6.52 6.62l-.01-.46m-6.97 33.43c3.65 0 6.64-2.94 6.68-6.58m76.57-.48a6.53 6.53 0 0 0 6.52 6.61m.37-31c-3.65 0-6.64 2.94-6.68 6.58m36.97.09a6.53 6.53 0 0 0-6.52-6.61h0"/></g></g></g></g><circle cx="74.89" cy="73.37" r="64.97" fill="none" stroke="#ececec"/></svg>