<svg version="1.1" xmlns="http://www.w3.org/2000/svg" xmlns:xlink="http://www.w3.org/1999/xlink" stroke-linecap="round" stroke-linejoin="round" stroke-width="0" fill-rule="evenodd" clip-rule="evenodd" id="prXpVKYbHchK_mO7xsYT_top" viewBox="83700 -63300 22500 24700" width="22.5mm" height="24.7mm" class="w-100 h-100"><defs><style>.prXpVKYbHchK_mO7xsYT_fr4 {color: #666666;}
.prXpVKYbHchK_mO7xsYT_cu {color: #cccccc;}
.prXpVKYbHchK_mO7xsYT_cf {color: #ffaa75;}
.prXpVKYbHchK_mO7xsYT_sm {color: #000000; opacity: 0.75;}
.prXpVKYbHchK_mO7xsYT_ss {color: #ffffff;}
.prXpVKYbHchK_mO7xsYT_sp {color: #999999;}
.prXpVKYbHchK_mO7xsYT_out {color: #000000;}</style><rect x="-1500" y="-150" width="3000" height="300" id="CM-GM4oOzs91_b5dIWF9_pad-10"/><rect x="-1500" y="-150" width="3000" height="300" id="nGNsQ6MIicIUJXefd9cG_pad-10"/><g id="prXpVKYbHchK_mO7xsYT_top_copper"><use xlink:href="#CM-GM4oOzs91_b5dIWF9_pad-10" x="104700" y="-50600"/><use xlink:href="#CM-GM4oOzs91_b5dIWF9_pad-10" x="104700" y="-50100"/><use xlink:href="#CM-GM4oOzs91_b5dIWF9_pad-10" x="104700" y="-49600"/><use xlink:href="#CM-GM4oOzs91_b5dIWF9_pad-10" x="104700" y="-49100"/><use xlink:href="#CM-GM4oOzs91_b5dIWF9_pad-10" x="104700" y="-48600"/><use xlink:href="#CM-GM4oOzs91_b5dIWF9_pad-10" x="104700" y="-48100"/><use xlink:href="#CM-GM4oOzs91_b5dIWF9_pad-10" x="104700" y="-47600"/><use xlink:href="#CM-GM4oOzs91_b5dIWF9_pad-10" x="104700" y="-47100"/><use xlink:href="#CM-GM4oOzs91_b5dIWF9_pad-10" x="104700" y="-46600"/><use xlink:href="#CM-GM4oOzs91_b5dIWF9_pad-10" x="104700" y="-46100"/><use xlink:href="#CM-GM4oOzs91_b5dIWF9_pad-10" x="104700" y="-45600"/><use xlink:href="#CM-GM4oOzs91_b5dIWF9_pad-10" x="104700" y="-45100"/><use xlink:href="#CM-GM4oOzs91_b5dIWF9_pad-10" x="104700" y="-44600"/><use xlink:href="#CM-GM4oOzs91_b5dIWF9_pad-10" x="104700" y="-44100"/><use xlink:href="#CM-GM4oOzs91_b5dIWF9_pad-10" x="104700" y="-43600"/><use xlink:href="#CM-GM4oOzs91_b5dIWF9_pad-10" x="104700" y="-43100"/><use xlink:href="#CM-GM4oOzs91_b5dIWF9_pad-10" x="104700" y="-42600"/><use xlink:href="#CM-GM4oOzs91_b5dIWF9_pad-10" x="104700" y="-42100"/><use xlink:href="#CM-GM4oOzs91_b5dIWF9_pad-10" x="104700" y="-41600"/><use xlink:href="#CM-GM4oOzs91_b5dIWF9_pad-10" x="104700" y="-41100"/><use xlink:href="#CM-GM4oOzs91_b5dIWF9_pad-10" x="104700" y="-40600"/><use xlink:href="#CM-GM4oOzs91_b5dIWF9_pad-10" x="104700" y="-40100"/><use xlink:href="#CM-GM4oOzs91_b5dIWF9_pad-10" x="104700" y="-39600"/><use xlink:href="#CM-GM4oOzs91_b5dIWF9_pad-10" x="104700" y="-39100"/><use xlink:href="#CM-GM4oOzs91_b5dIWF9_pad-10" x="85200" y="-62800"/><use xlink:href="#CM-GM4oOzs91_b5dIWF9_pad-10" x="85200" y="-62300"/><use xlink:href="#CM-GM4oOzs91_b5dIWF9_pad-10" x="85200" y="-61800"/><use xlink:href="#CM-GM4oOzs91_b5dIWF9_pad-10" x="85200" y="-61300"/><use xlink:href="#CM-GM4oOzs91_b5dIWF9_pad-10" x="85200" y="-60800"/><use xlink:href="#CM-GM4oOzs91_b5dIWF9_pad-10" x="85200" y="-60300"/><use xlink:href="#CM-GM4oOzs91_b5dIWF9_pad-10" x="85200" y="-59800"/><use xlink:href="#CM-GM4oOzs91_b5dIWF9_pad-10" x="85200" y="-59300"/><use xlink:href="#CM-GM4oOzs91_b5dIWF9_pad-10" x="85200" y="-58800"/><use xlink:href="#CM-GM4oOzs91_b5dIWF9_pad-10" x="85200" y="-58300"/><use xlink:href="#CM-GM4oOzs91_b5dIWF9_pad-10" x="85200" y="-57800"/><use xlink:href="#CM-GM4oOzs91_b5dIWF9_pad-10" x="85200" y="-57300"/><use xlink:href="#CM-GM4oOzs91_b5dIWF9_pad-10" x="85200" y="-56800"/><use xlink:href="#CM-GM4oOzs91_b5dIWF9_pad-10" x="85200" y="-56300"/><use xlink:href="#CM-GM4oOzs91_b5dIWF9_pad-10" x="85200" y="-55800"/><use xlink:href="#CM-GM4oOzs91_b5dIWF9_pad-10" x="85200" y="-55300"/><use xlink:href="#CM-GM4oOzs91_b5dIWF9_pad-10" x="85200" y="-54800"/><use xlink:href="#CM-GM4oOzs91_b5dIWF9_pad-10" x="85200" y="-54300"/><use xlink:href="#CM-GM4oOzs91_b5dIWF9_pad-10" x="85200" y="-53800"/><use xlink:href="#CM-GM4oOzs91_b5dIWF9_pad-10" x="85200" y="-53300"/><use xlink:href="#CM-GM4oOzs91_b5dIWF9_pad-10" x="85200" y="-52800"/><use xlink:href="#CM-GM4oOzs91_b5dIWF9_pad-10" x="85200" y="-52300"/><use xlink:href="#CM-GM4oOzs91_b5dIWF9_pad-10" x="85200" y="-51800"/><use xlink:href="#CM-GM4oOzs91_b5dIWF9_pad-10" x="85200" y="-51300"/><path d="M 101518.298 -50600 100568.298 -51550 M 104700 -50600 101518.298 -50600 M 92806.482 -62800 85200 -62800 M 100568.297 -55038.185 92806.482 -62800 M 100568.298 -51550 100568.297 -55038.185 M 100076.199 -51346.165 101322.364 -50100 M 100076.198 -54834.35 100076.199 -51346.165 M 85200 -62300 92610.548 -62300 100076.198 -54834.35 M 101322.364 -50100 104700 -50100 M 99584.1 -51142.33 99584.099 -54630.515 92414.614 -61800 M 104700 -49600 101126.43 -49600 M 92414.614 -61800 85200 -61800 M 101126.43 -49600 99584.1 -51142.33 M 99091.998 -50938.498 100930.496 -49100 M 92218.68 -61300 99091.997 -54426.683 M 100930.496 -49100 104700 -49100 M 99091.997 -54426.683 99091.998 -50938.498 M 85200 -61300 92218.68 -61300 M 92022.746 -60800 85200 -60800 M 98599.898 -54222.848 92022.746 -60800 M 104700 -48600 100723.7 -48600 98599.898 -50723.802 98599.898 -54222.848 M 100527.766 -48100 104700 -48100 M 98107.797 -54019.015 98107.798 -50519.968 M 91826.812 -60300 98107.797 -54019.015 M 98107.798 -50519.968 100527.766 -48100 M 85200 -60300 91826.812 -60300 M 91630.878 -59800 85200 -59800 M 97615.698 -53815.18 91630.878 -59800 M 97615.699 -50316.133 97615.698 -53815.18 M 104700 -47600 100331.832 -47600 97615.699 -50316.133 M 100135.898 -47100 104700 -47100 M 85200 -59300 91434.944 -59300 97123.597 -53611.347 97123.597 -50112.301 100135.898 -47100 M 104700 -46600 99939.964 -46600 96631.498 -49908.466 M 91239.01 -58800 85200 -58800 M 96631.498 -49908.466 96631.497 -53407.513 91239.01 -58800 M 91043.076 -58300 96139.398 -53203.678 96139.399 -49704.631 M 99744.03 -46100 104700 -46100 M 85200 -58300 91043.076 -58300 M 96139.399 -49704.631 99744.03 -46100 M 95647.299 -52999.843 90847.142 -57800 M 99548.096 -45600 95647.3 -49500.796 M 90847.142 -57800 85200 -57800 M 95647.3 -49500.796 95647.299 -52999.843 M 104700 -45600 99548.096 -45600 M 90651.208 -57300 95155.2 -52796.008 M 85200 -57300 90651.208 -57300 M 99352.162 -45100 104700 -45100 M 95155.201 -49296.961 99352.162 -45100 M 95155.2 -52796.008 95155.201 -49296.961 M 94663.098 -49093.13 99156.228 -44600 M 94663.097 -52592.177 94663.098 -49093.13 M 99156.228 -44600 104700 -44600 M 85200 -56800 90455.274 -56800 94663.097 -52592.177 M 98960.294 -44100 104700 -44100 M 90259.34 -56300 94170.998 -52388.342 M 85200 -56300 90259.34 -56300 M 94170.999 -48889.295 98960.294 -44100 M 94170.998 -52388.342 94170.999 -48889.295 M 98764.36 -43600 93678.9 -48685.46 M 90063.406 -55800 85200 -55800 M 104700 -43600 98764.36 -43600 M 93678.9 -48685.46 93678.899 -52184.507 90063.406 -55800 M 85200 -55300 89867.472 -55300 M 93186.801 -48481.625 98568.426 -43100 M 89867.472 -55300 93186.8 -51980.672 93186.801 -48481.625 M 98568.426 -43100 104700 -43100 M 92694.698 -51776.84 89671.538 -54800 85200 -54800 M 92694.699 -48277.793 92694.698 -51776.84 M 104700 -42600 98372.492 -42600 92694.699 -48277.793 M 98176.558 -42100 104700 -42100 M 92202.6 -48073.958 98176.558 -42100 M 89475.604 -54300 92202.599 -51573.005 92202.6 -48073.958 M 85200 -54300 89475.604 -54300 M 104696.05 -41603.95 104700 -41600 M 97980.624 -41600 91710.501 -47870.123 M 89279.67 -53800 85200 -53800 M 100003.95 -41603.95 104696.05 -41603.95 M 91710.501 -47870.123 91710.5 -51369.17 M 100000 -41600 100003.95 -41603.95 M 100000 -41600 97980.624 -41600 M 91710.5 -51369.17 89279.67 -53800 M 100200 -41600 100000 -41600 M 91218.399 -47666.291 97784.69 -41100 M 91218.399 -51165.337 91218.399 -47666.291 M 89083.736 -53300 91218.399 -51165.337 M 97784.69 -41100 104700 -41100 M 85200 -53300 89083.736 -53300 M 90726.298 -47462.458 90726.297 -50961.505 M 88887.802 -52800 85200 -52800 M 97588.756 -40600 90726.298 -47462.458 M 90726.297 -50961.505 88887.802 -52800 M 104700 -40600 97588.756 -40600 M 97392.822 -40100 104700 -40100 M 88691.868 -52300 90234.198 -50757.67 M 85200 -52300 88691.868 -52300 M 90234.199 -47258.623 97392.822 -40100 M 90234.198 -50757.67 90234.199 -47258.623 M 89742.099 -47054.789 89742.099 -50553.835 M 97196.888 -39600 89742.099 -47054.789 M 104700 -39600 97196.888 -39600 M 89742.099 -50553.835 88495.934 -51800 85200 -51800 M 85200 -51300 88300 -51300 89250 -50350 M 89250 -46850.954 97000.954 -39100 104700 -39100 M 89250 -50350 89250 -46850.954" fill="none" stroke-width="292.1"/></g><g id="prXpVKYbHchK_mO7xsYT_top_soldermask"><use xlink:href="#nGNsQ6MIicIUJXefd9cG_pad-10" x="104700" y="-50600"/><use xlink:href="#nGNsQ6MIicIUJXefd9cG_pad-10" x="104700" y="-50100"/><use xlink:href="#nGNsQ6MIicIUJXefd9cG_pad-10" x="104700" y="-49600"/><use xlink:href="#nGNsQ6MIicIUJXefd9cG_pad-10" x="104700" y="-49100"/><use xlink:href="#nGNsQ6MIicIUJXefd9cG_pad-10" x="104700" y="-48600"/><use xlink:href="#nGNsQ6MIicIUJXefd9cG_pad-10" x="104700" y="-48100"/><use xlink:href="#nGNsQ6MIicIUJXefd9cG_pad-10" x="104700" y="-47600"/><use xlink:href="#nGNsQ6MIicIUJXefd9cG_pad-10" x="104700" y="-47100"/><use xlink:href="#nGNsQ6MIicIUJXefd9cG_pad-10" x="104700" y="-46600"/><use xlink:href="#nGNsQ6MIicIUJXefd9cG_pad-10" x="104700" y="-46100"/><use xlink:href="#nGNsQ6MIicIUJXefd9cG_pad-10" x="104700" y="-45600"/><use xlink:href="#nGNsQ6MIicIUJXefd9cG_pad-10" x="104700" y="-45100"/><use xlink:href="#nGNsQ6MIicIUJXefd9cG_pad-10" x="104700" y="-44600"/><use xlink:href="#nGNsQ6MIicIUJXefd9cG_pad-10" x="104700" y="-44100"/><use xlink:href="#nGNsQ6MIicIUJXefd9cG_pad-10" x="104700" y="-43600"/><use xlink:href="#nGNsQ6MIicIUJXefd9cG_pad-10" x="104700" y="-43100"/><use xlink:href="#nGNsQ6MIicIUJXefd9cG_pad-10" x="104700" y="-42600"/><use xlink:href="#nGNsQ6MIicIUJXefd9cG_pad-10" x="104700" y="-42100"/><use xlink:href="#nGNsQ6MIicIUJXefd9cG_pad-10" x="104700" y="-41600"/><use xlink:href="#nGNsQ6MIicIUJXefd9cG_pad-10" x="104700" y="-41100"/><use xlink:href="#nGNsQ6MIicIUJXefd9cG_pad-10" x="104700" y="-40600"/><use xlink:href="#nGNsQ6MIicIUJXefd9cG_pad-10" x="104700" y="-40100"/><use xlink:href="#nGNsQ6MIicIUJXefd9cG_pad-10" x="104700" y="-39600"/><use xlink:href="#nGNsQ6MIicIUJXefd9cG_pad-10" x="104700" y="-39100"/><use xlink:href="#nGNsQ6MIicIUJXefd9cG_pad-10" x="85200" y="-62800"/><use xlink:href="#nGNsQ6MIicIUJXefd9cG_pad-10" x="85200" y="-62300"/><use xlink:href="#nGNsQ6MIicIUJXefd9cG_pad-10" x="85200" y="-61800"/><use xlink:href="#nGNsQ6MIicIUJXefd9cG_pad-10" x="85200" y="-61300"/><use xlink:href="#nGNsQ6MIicIUJXefd9cG_pad-10" x="85200" y="-60800"/><use xlink:href="#nGNsQ6MIicIUJXefd9cG_pad-10" x="85200" y="-60300"/><use xlink:href="#nGNsQ6MIicIUJXefd9cG_pad-10" x="85200" y="-59800"/><use xlink:href="#nGNsQ6MIicIUJXefd9cG_pad-10" x="85200" y="-59300"/><use xlink:href="#nGNsQ6MIicIUJXefd9cG_pad-10" x="85200" y="-58800"/><use xlink:href="#nGNsQ6MIicIUJXefd9cG_pad-10" x="85200" y="-58300"/><use xlink:href="#nGNsQ6MIicIUJXefd9cG_pad-10" x="85200" y="-57800"/><use xlink:href="#nGNsQ6MIicIUJXefd9cG_pad-10" x="85200" y="-57300"/><use xlink:href="#nGNsQ6MIicIUJXefd9cG_pad-10" x="85200" y="-56800"/><use xlink:href="#nGNsQ6MIicIUJXefd9cG_pad-10" x="85200" y="-56300"/><use xlink:href="#nGNsQ6MIicIUJXefd9cG_pad-10" x="85200" y="-55800"/><use xlink:href="#nGNsQ6MIicIUJXefd9cG_pad-10" x="85200" y="-55300"/><use xlink:href="#nGNsQ6MIicIUJXefd9cG_pad-10" x="85200" y="-54800"/><use xlink:href="#nGNsQ6MIicIUJXefd9cG_pad-10" x="85200" y="-54300"/><use xlink:href="#nGNsQ6MIicIUJXefd9cG_pad-10" x="85200" y="-53800"/><use xlink:href="#nGNsQ6MIicIUJXefd9cG_pad-10" x="85200" y="-53300"/><use xlink:href="#nGNsQ6MIicIUJXefd9cG_pad-10" x="85200" y="-52800"/><use xlink:href="#nGNsQ6MIicIUJXefd9cG_pad-10" x="85200" y="-52300"/><use xlink:href="#nGNsQ6MIicIUJXefd9cG_pad-10" x="85200" y="-51800"/><use xlink:href="#nGNsQ6MIicIUJXefd9cG_pad-10" x="85200" y="-51300"/></g><clipPath id="prXpVKYbHchK_mO7xsYT_top_outline"><path d="M 83700 -50800 87700 -50800 A 1000 1000 0 0 1 88700 -49800 L 88700 -42600 A 4000 4000 0 0 0 92700 -38600 L 106200 -38600 106200 -51100 102200 -51100 A 1000 1000 0 0 1 101200 -52100 L 101200 -59300 A 4000 4000 0 0 0 97200 -63300 L 83700 -63300 83700 -50800" fill="none" stroke-width="100"/></clipPath><mask id="prXpVKYbHchK_mO7xsYT_top_mech-mask"><g fill="#000" stroke="#000"><rect x="83700" y="-63300" width="22500" height="24700" fill="#fff"/></g></mask><mask id="prXpVKYbHchK_mO7xsYT_top_cf-mask"><g fill="#fff" stroke="#fff"><use xlink:href="#prXpVKYbHchK_mO7xsYT_top_soldermask"/></g></mask><mask id="prXpVKYbHchK_mO7xsYT_top_sm-mask"><g fill="#000" stroke="#000"><rect x="83700" y="-63300" width="22500" height="24700" fill="#fff"/><use xlink:href="#prXpVKYbHchK_mO7xsYT_top_soldermask"/></g></mask></defs><g transform="translate(0,-101900) scale(1,-1)"><g mask="url(#prXpVKYbHchK_mO7xsYT_top_mech-mask)" clip-path="url(#prXpVKYbHchK_mO7xsYT_top_outline)"><rect x="83700" y="-63300" width="22500" height="24700" fill="currentColor" class="prXpVKYbHchK_mO7xsYT_fr4"/><use xlink:href="#prXpVKYbHchK_mO7xsYT_top_copper" fill="currentColor" stroke="currentColor" class="prXpVKYbHchK_mO7xsYT_cu"/><use xlink:href="#prXpVKYbHchK_mO7xsYT_top_copper" fill="currentColor" stroke="currentColor" class="prXpVKYbHchK_mO7xsYT_cf" mask="url(#prXpVKYbHchK_mO7xsYT_top_cf-mask)"/><g mask="url(#prXpVKYbHchK_mO7xsYT_top_sm-mask)"><rect x="83700" y="-63300" width="22500" height="24700" fill="currentColor" class="prXpVKYbHchK_mO7xsYT_sm"/></g></g></g></svg>