<svg version="1.1" xmlns="http://www.w3.org/2000/svg" xmlns:xlink="http://www.w3.org/1999/xlink" stroke-linecap="round" stroke-linejoin="round" stroke-width="0" fill-rule="evenodd" clip-rule="evenodd" id="soUcldjy07tQj7Mv6Etp_top" viewBox="59000 -54250 18000 12500" width="18mm" height="12.5mm" class="w-100 h-100"><defs><style>.soUcldjy07tQj7Mv6Etp_fr4 {color: #666666;}
.soUcldjy07tQj7Mv6Etp_cu {color: #cccccc;}
.soUcldjy07tQj7Mv6Etp_cf {color: #ffb375;}
.soUcldjy07tQj7Mv6Etp_sm {color: #000000; opacity: 0.75;}
.soUcldjy07tQj7Mv6Etp_ss {color: #ffffff;}
.soUcldjy07tQj7Mv6Etp_sp {color: #999999;}
.soUcldjy07tQj7Mv6Etp_out {color: #000000;}</style><rect x="-1500" y="-150" width="3000" height="300" id="DezfWEVsQmpVvKqAj5zl_pad-10"/><rect x="-1500" y="-150" width="3000" height="300" id="PQgBmXZoI8s_dVFMGzCk_pad-10"/><rect x="-1500" y="-150" width="3000" height="300" id="mW85HkQ_rGilXXGncYsv_pad-10"/><rect x="-1500" y="-150" width="3000" height="300" id="tkZt3apEhPVfFyzBXC6t_pad-10"/><g id="soUcldjy07tQj7Mv6Etp_top_soldermask"><use xlink:href="#DezfWEVsQmpVvKqAj5zl_pad-10" x="75500" y="-53750"/><use xlink:href="#DezfWEVsQmpVvKqAj5zl_pad-10" x="75500" y="-53250"/><use xlink:href="#DezfWEVsQmpVvKqAj5zl_pad-10" x="75500" y="-52750"/><use xlink:href="#DezfWEVsQmpVvKqAj5zl_pad-10" x="75500" y="-52250"/><use xlink:href="#DezfWEVsQmpVvKqAj5zl_pad-10" x="75500" y="-51750"/><use xlink:href="#DezfWEVsQmpVvKqAj5zl_pad-10" x="75500" y="-51250"/><use xlink:href="#DezfWEVsQmpVvKqAj5zl_pad-10" x="75500" y="-50750"/><use xlink:href="#DezfWEVsQmpVvKqAj5zl_pad-10" x="75500" y="-50250"/><use xlink:href="#DezfWEVsQmpVvKqAj5zl_pad-10" x="75500" y="-49750"/><use xlink:href="#DezfWEVsQmpVvKqAj5zl_pad-10" x="75500" y="-49250"/><use xlink:href="#DezfWEVsQmpVvKqAj5zl_pad-10" x="75500" y="-48750"/><use xlink:href="#DezfWEVsQmpVvKqAj5zl_pad-10" x="75500" y="-48250"/><use xlink:href="#DezfWEVsQmpVvKqAj5zl_pad-10" x="75500" y="-47750"/><use xlink:href="#DezfWEVsQmpVvKqAj5zl_pad-10" x="75500" y="-47250"/><use xlink:href="#DezfWEVsQmpVvKqAj5zl_pad-10" x="75500" y="-46750"/><use xlink:href="#DezfWEVsQmpVvKqAj5zl_pad-10" x="75500" y="-46250"/><use xlink:href="#DezfWEVsQmpVvKqAj5zl_pad-10" x="75500" y="-45750"/><use xlink:href="#DezfWEVsQmpVvKqAj5zl_pad-10" x="75500" y="-45250"/><use xlink:href="#DezfWEVsQmpVvKqAj5zl_pad-10" x="75500" y="-44750"/><use xlink:href="#DezfWEVsQmpVvKqAj5zl_pad-10" x="75500" y="-44250"/><use xlink:href="#DezfWEVsQmpVvKqAj5zl_pad-10" x="75500" y="-43750"/><use xlink:href="#DezfWEVsQmpVvKqAj5zl_pad-10" x="75500" y="-43250"/><use xlink:href="#DezfWEVsQmpVvKqAj5zl_pad-10" x="75500" y="-42750"/><use xlink:href="#DezfWEVsQmpVvKqAj5zl_pad-10" x="75500" y="-42250"/><use xlink:href="#DezfWEVsQmpVvKqAj5zl_pad-10" x="60500" y="-53750"/><use xlink:href="#DezfWEVsQmpVvKqAj5zl_pad-10" x="60500" y="-53250"/><use xlink:href="#DezfWEVsQmpVvKqAj5zl_pad-10" x="60500" y="-52750"/><use xlink:href="#DezfWEVsQmpVvKqAj5zl_pad-10" x="60500" y="-52250"/><use xlink:href="#DezfWEVsQmpVvKqAj5zl_pad-10" x="60500" y="-51750"/><use xlink:href="#DezfWEVsQmpVvKqAj5zl_pad-10" x="60500" y="-51250"/><use xlink:href="#DezfWEVsQmpVvKqAj5zl_pad-10" x="60500" y="-50750"/><use xlink:href="#DezfWEVsQmpVvKqAj5zl_pad-10" x="60500" y="-50250"/><use xlink:href="#DezfWEVsQmpVvKqAj5zl_pad-10" x="60500" y="-49750"/><use xlink:href="#DezfWEVsQmpVvKqAj5zl_pad-10" x="60500" y="-49250"/><use xlink:href="#DezfWEVsQmpVvKqAj5zl_pad-10" x="60500" y="-48750"/><use xlink:href="#DezfWEVsQmpVvKqAj5zl_pad-10" x="60500" y="-48250"/><use xlink:href="#DezfWEVsQmpVvKqAj5zl_pad-10" x="60500" y="-47750"/><use xlink:href="#DezfWEVsQmpVvKqAj5zl_pad-10" x="60500" y="-47250"/><use xlink:href="#DezfWEVsQmpVvKqAj5zl_pad-10" x="60500" y="-46750"/><use xlink:href="#DezfWEVsQmpVvKqAj5zl_pad-10" x="60500" y="-46250"/><use xlink:href="#DezfWEVsQmpVvKqAj5zl_pad-10" x="60500" y="-45750"/><use xlink:href="#DezfWEVsQmpVvKqAj5zl_pad-10" x="60500" y="-45250"/><use xlink:href="#DezfWEVsQmpVvKqAj5zl_pad-10" x="60500" y="-44750"/><use xlink:href="#DezfWEVsQmpVvKqAj5zl_pad-10" x="60500" y="-44250"/><use xlink:href="#DezfWEVsQmpVvKqAj5zl_pad-10" x="60500" y="-43750"/><use xlink:href="#DezfWEVsQmpVvKqAj5zl_pad-10" x="60500" y="-43250"/><use xlink:href="#DezfWEVsQmpVvKqAj5zl_pad-10" x="60500" y="-42750"/><use xlink:href="#DezfWEVsQmpVvKqAj5zl_pad-10" x="60500" y="-42250"/></g><g id="soUcldjy07tQj7Mv6Etp_top_copper"><use xlink:href="#PQgBmXZoI8s_dVFMGzCk_pad-10" x="75500" y="-53750"/><use xlink:href="#PQgBmXZoI8s_dVFMGzCk_pad-10" x="75500" y="-53250"/><use xlink:href="#PQgBmXZoI8s_dVFMGzCk_pad-10" x="75500" y="-52750"/><use xlink:href="#PQgBmXZoI8s_dVFMGzCk_pad-10" x="75500" y="-52250"/><use xlink:href="#PQgBmXZoI8s_dVFMGzCk_pad-10" x="75500" y="-51750"/><use xlink:href="#PQgBmXZoI8s_dVFMGzCk_pad-10" x="75500" y="-51250"/><use xlink:href="#PQgBmXZoI8s_dVFMGzCk_pad-10" x="75500" y="-50750"/><use xlink:href="#PQgBmXZoI8s_dVFMGzCk_pad-10" x="75500" y="-50250"/><use xlink:href="#PQgBmXZoI8s_dVFMGzCk_pad-10" x="75500" y="-49750"/><use xlink:href="#PQgBmXZoI8s_dVFMGzCk_pad-10" x="75500" y="-49250"/><use xlink:href="#PQgBmXZoI8s_dVFMGzCk_pad-10" x="75500" y="-48750"/><use xlink:href="#PQgBmXZoI8s_dVFMGzCk_pad-10" x="75500" y="-48250"/><use xlink:href="#PQgBmXZoI8s_dVFMGzCk_pad-10" x="75500" y="-47750"/><use xlink:href="#PQgBmXZoI8s_dVFMGzCk_pad-10" x="75500" y="-47250"/><use xlink:href="#PQgBmXZoI8s_dVFMGzCk_pad-10" x="75500" y="-46750"/><use xlink:href="#PQgBmXZoI8s_dVFMGzCk_pad-10" x="75500" y="-46250"/><use xlink:href="#PQgBmXZoI8s_dVFMGzCk_pad-10" x="75500" y="-45750"/><use xlink:href="#PQgBmXZoI8s_dVFMGzCk_pad-10" x="75500" y="-45250"/><use xlink:href="#PQgBmXZoI8s_dVFMGzCk_pad-10" x="75500" y="-44750"/><use xlink:href="#PQgBmXZoI8s_dVFMGzCk_pad-10" x="75500" y="-44250"/><use xlink:href="#PQgBmXZoI8s_dVFMGzCk_pad-10" x="75500" y="-43750"/><use xlink:href="#PQgBmXZoI8s_dVFMGzCk_pad-10" x="75500" y="-43250"/><use xlink:href="#PQgBmXZoI8s_dVFMGzCk_pad-10" x="75500" y="-42750"/><use xlink:href="#PQgBmXZoI8s_dVFMGzCk_pad-10" x="75500" y="-42250"/><use xlink:href="#PQgBmXZoI8s_dVFMGzCk_pad-10" x="60500" y="-53750"/><use xlink:href="#PQgBmXZoI8s_dVFMGzCk_pad-10" x="60500" y="-53250"/><use xlink:href="#PQgBmXZoI8s_dVFMGzCk_pad-10" x="60500" y="-52750"/><use xlink:href="#PQgBmXZoI8s_dVFMGzCk_pad-10" x="60500" y="-52250"/><use xlink:href="#PQgBmXZoI8s_dVFMGzCk_pad-10" x="60500" y="-51750"/><use xlink:href="#PQgBmXZoI8s_dVFMGzCk_pad-10" x="60500" y="-51250"/><use xlink:href="#PQgBmXZoI8s_dVFMGzCk_pad-10" x="60500" y="-50750"/><use xlink:href="#PQgBmXZoI8s_dVFMGzCk_pad-10" x="60500" y="-50250"/><use xlink:href="#PQgBmXZoI8s_dVFMGzCk_pad-10" x="60500" y="-49750"/><use xlink:href="#PQgBmXZoI8s_dVFMGzCk_pad-10" x="60500" y="-49250"/><use xlink:href="#PQgBmXZoI8s_dVFMGzCk_pad-10" x="60500" y="-48750"/><use xlink:href="#PQgBmXZoI8s_dVFMGzCk_pad-10" x="60500" y="-48250"/><use xlink:href="#PQgBmXZoI8s_dVFMGzCk_pad-10" x="60500" y="-47750"/><use xlink:href="#PQgBmXZoI8s_dVFMGzCk_pad-10" x="60500" y="-47250"/><use xlink:href="#PQgBmXZoI8s_dVFMGzCk_pad-10" x="60500" y="-46750"/><use xlink:href="#PQgBmXZoI8s_dVFMGzCk_pad-10" x="60500" y="-46250"/><use xlink:href="#PQgBmXZoI8s_dVFMGzCk_pad-10" x="60500" y="-45750"/><use xlink:href="#PQgBmXZoI8s_dVFMGzCk_pad-10" x="60500" y="-45250"/><use xlink:href="#PQgBmXZoI8s_dVFMGzCk_pad-10" x="60500" y="-44750"/><use xlink:href="#PQgBmXZoI8s_dVFMGzCk_pad-10" x="60500" y="-44250"/><use xlink:href="#PQgBmXZoI8s_dVFMGzCk_pad-10" x="60500" y="-43750"/><use xlink:href="#PQgBmXZoI8s_dVFMGzCk_pad-10" x="60500" y="-43250"/><use xlink:href="#PQgBmXZoI8s_dVFMGzCk_pad-10" x="60500" y="-42750"/><use xlink:href="#PQgBmXZoI8s_dVFMGzCk_pad-10" x="60500" y="-42250"/><path d="M 60500 -53750 75500 -53750 M 75500 -53250 60500 -53250 M 60500 -52750 75500 -52750 M 75500 -52250 60500 -52250 M 60500 -51750 75500 -51750 M 75500 -51250 60500 -51250 M 75500 -50750 60500 -50750 M 60500 -50250 75500 -50250 M 75500 -49750 60500 -49750 M 60500 -49250 75500 -49250 M 75500 -48750 60500 -48750 M 60500 -48250 75500 -48250 M 75500 -47750 60500 -47750 M 60500 -47250 75500 -47250 M 75500 -46750 60500 -46750 M 60500 -46250 75500 -46250 M 75500 -45750 60500 -45750 M 60500 -45250 75500 -45250 M 60500 -44750 75500 -44750 M 60500 -44250 75500 -44250 M 60500 -43750 75500 -43750 M 60500 -43250 75500 -43250 M 60500 -42750 75500 -42750 M 60500 -42250 75500 -42250" fill="none" stroke-width="292.1"/></g><g id="soUcldjy07tQj7Mv6Etp_top_copper"><use xlink:href="#mW85HkQ_rGilXXGncYsv_pad-10" x="75500" y="-53750"/><use xlink:href="#mW85HkQ_rGilXXGncYsv_pad-10" x="75500" y="-53250"/><use xlink:href="#mW85HkQ_rGilXXGncYsv_pad-10" x="75500" y="-52750"/><use xlink:href="#mW85HkQ_rGilXXGncYsv_pad-10" x="75500" y="-52250"/><use xlink:href="#mW85HkQ_rGilXXGncYsv_pad-10" x="75500" y="-51750"/><use xlink:href="#mW85HkQ_rGilXXGncYsv_pad-10" x="75500" y="-51250"/><use xlink:href="#mW85HkQ_rGilXXGncYsv_pad-10" x="75500" y="-50750"/><use xlink:href="#mW85HkQ_rGilXXGncYsv_pad-10" x="75500" y="-50250"/><use xlink:href="#mW85HkQ_rGilXXGncYsv_pad-10" x="75500" y="-49750"/><use xlink:href="#mW85HkQ_rGilXXGncYsv_pad-10" x="75500" y="-49250"/><use xlink:href="#mW85HkQ_rGilXXGncYsv_pad-10" x="75500" y="-48750"/><use xlink:href="#mW85HkQ_rGilXXGncYsv_pad-10" x="75500" y="-48250"/><use xlink:href="#mW85HkQ_rGilXXGncYsv_pad-10" x="75500" y="-47750"/><use xlink:href="#mW85HkQ_rGilXXGncYsv_pad-10" x="75500" y="-47250"/><use xlink:href="#mW85HkQ_rGilXXGncYsv_pad-10" x="75500" y="-46750"/><use xlink:href="#mW85HkQ_rGilXXGncYsv_pad-10" x="75500" y="-46250"/><use xlink:href="#mW85HkQ_rGilXXGncYsv_pad-10" x="75500" y="-45750"/><use xlink:href="#mW85HkQ_rGilXXGncYsv_pad-10" x="75500" y="-45250"/><use xlink:href="#mW85HkQ_rGilXXGncYsv_pad-10" x="75500" y="-44750"/><use xlink:href="#mW85HkQ_rGilXXGncYsv_pad-10" x="75500" y="-44250"/><use xlink:href="#mW85HkQ_rGilXXGncYsv_pad-10" x="75500" y="-43750"/><use xlink:href="#mW85HkQ_rGilXXGncYsv_pad-10" x="75500" y="-43250"/><use xlink:href="#mW85HkQ_rGilXXGncYsv_pad-10" x="75500" y="-42750"/><use xlink:href="#mW85HkQ_rGilXXGncYsv_pad-10" x="75500" y="-42250"/><use xlink:href="#mW85HkQ_rGilXXGncYsv_pad-10" x="60500" y="-53750"/><use xlink:href="#mW85HkQ_rGilXXGncYsv_pad-10" x="60500" y="-53250"/><use xlink:href="#mW85HkQ_rGilXXGncYsv_pad-10" x="60500" y="-52750"/><use xlink:href="#mW85HkQ_rGilXXGncYsv_pad-10" x="60500" y="-52250"/><use xlink:href="#mW85HkQ_rGilXXGncYsv_pad-10" x="60500" y="-51750"/><use xlink:href="#mW85HkQ_rGilXXGncYsv_pad-10" x="60500" y="-51250"/><use xlink:href="#mW85HkQ_rGilXXGncYsv_pad-10" x="60500" y="-50750"/><use xlink:href="#mW85HkQ_rGilXXGncYsv_pad-10" x="60500" y="-50250"/><use xlink:href="#mW85HkQ_rGilXXGncYsv_pad-10" x="60500" y="-49750"/><use xlink:href="#mW85HkQ_rGilXXGncYsv_pad-10" x="60500" y="-49250"/><use xlink:href="#mW85HkQ_rGilXXGncYsv_pad-10" x="60500" y="-48750"/><use xlink:href="#mW85HkQ_rGilXXGncYsv_pad-10" x="60500" y="-48250"/><use xlink:href="#mW85HkQ_rGilXXGncYsv_pad-10" x="60500" y="-47750"/><use xlink:href="#mW85HkQ_rGilXXGncYsv_pad-10" x="60500" y="-47250"/><use xlink:href="#mW85HkQ_rGilXXGncYsv_pad-10" x="60500" y="-46750"/><use xlink:href="#mW85HkQ_rGilXXGncYsv_pad-10" x="60500" y="-46250"/><use xlink:href="#mW85HkQ_rGilXXGncYsv_pad-10" x="60500" y="-45750"/><use xlink:href="#mW85HkQ_rGilXXGncYsv_pad-10" x="60500" y="-45250"/><use xlink:href="#mW85HkQ_rGilXXGncYsv_pad-10" x="60500" y="-44750"/><use xlink:href="#mW85HkQ_rGilXXGncYsv_pad-10" x="60500" y="-44250"/><use xlink:href="#mW85HkQ_rGilXXGncYsv_pad-10" x="60500" y="-43750"/><use xlink:href="#mW85HkQ_rGilXXGncYsv_pad-10" x="60500" y="-43250"/><use xlink:href="#mW85HkQ_rGilXXGncYsv_pad-10" x="60500" y="-42750"/><use xlink:href="#mW85HkQ_rGilXXGncYsv_pad-10" x="60500" y="-42250"/><path d="M 60500 -53750 75500 -53750 M 75500 -53250 60500 -53250 M 60500 -52750 75500 -52750 M 75500 -52250 60500 -52250 M 60500 -51750 75500 -51750 M 75500 -51250 60500 -51250 M 75500 -50750 60500 -50750 M 60500 -50250 75500 -50250 M 75500 -49750 60500 -49750 M 60500 -49250 75500 -49250 M 75500 -48750 60500 -48750 M 60500 -48250 75500 -48250 M 75500 -47750 60500 -47750 M 60500 -47250 75500 -47250 M 75500 -46750 60500 -46750 M 60500 -46250 75500 -46250 M 75500 -45750 60500 -45750 M 60500 -45250 75500 -45250 M 60500 -44750 75500 -44750 M 60500 -44250 75500 -44250 M 60500 -43750 75500 -43750 M 60500 -43250 75500 -43250 M 60500 -42750 75500 -42750 M 60500 -42250 75500 -42250" fill="none" stroke-width="292.1"/></g><g id="soUcldjy07tQj7Mv6Etp_top_soldermask"><use xlink:href="#tkZt3apEhPVfFyzBXC6t_pad-10" x="75500" y="-53750"/><use xlink:href="#tkZt3apEhPVfFyzBXC6t_pad-10" x="75500" y="-53250"/><use xlink:href="#tkZt3apEhPVfFyzBXC6t_pad-10" x="75500" y="-52750"/><use xlink:href="#tkZt3apEhPVfFyzBXC6t_pad-10" x="75500" y="-52250"/><use xlink:href="#tkZt3apEhPVfFyzBXC6t_pad-10" x="75500" y="-51750"/><use xlink:href="#tkZt3apEhPVfFyzBXC6t_pad-10" x="75500" y="-51250"/><use xlink:href="#tkZt3apEhPVfFyzBXC6t_pad-10" x="75500" y="-50750"/><use xlink:href="#tkZt3apEhPVfFyzBXC6t_pad-10" x="75500" y="-50250"/><use xlink:href="#tkZt3apEhPVfFyzBXC6t_pad-10" x="75500" y="-49750"/><use xlink:href="#tkZt3apEhPVfFyzBXC6t_pad-10" x="75500" y="-49250"/><use xlink:href="#tkZt3apEhPVfFyzBXC6t_pad-10" x="75500" y="-48750"/><use xlink:href="#tkZt3apEhPVfFyzBXC6t_pad-10" x="75500" y="-48250"/><use xlink:href="#tkZt3apEhPVfFyzBXC6t_pad-10" x="75500" y="-47750"/><use xlink:href="#tkZt3apEhPVfFyzBXC6t_pad-10" x="75500" y="-47250"/><use xlink:href="#tkZt3apEhPVfFyzBXC6t_pad-10" x="75500" y="-46750"/><use xlink:href="#tkZt3apEhPVfFyzBXC6t_pad-10" x="75500" y="-46250"/><use xlink:href="#tkZt3apEhPVfFyzBXC6t_pad-10" x="75500" y="-45750"/><use xlink:href="#tkZt3apEhPVfFyzBXC6t_pad-10" x="75500" y="-45250"/><use xlink:href="#tkZt3apEhPVfFyzBXC6t_pad-10" x="75500" y="-44750"/><use xlink:href="#tkZt3apEhPVfFyzBXC6t_pad-10" x="75500" y="-44250"/><use xlink:href="#tkZt3apEhPVfFyzBXC6t_pad-10" x="75500" y="-43750"/><use xlink:href="#tkZt3apEhPVfFyzBXC6t_pad-10" x="75500" y="-43250"/><use xlink:href="#tkZt3apEhPVfFyzBXC6t_pad-10" x="75500" y="-42750"/><use xlink:href="#tkZt3apEhPVfFyzBXC6t_pad-10" x="75500" y="-42250"/><use xlink:href="#tkZt3apEhPVfFyzBXC6t_pad-10" x="60500" y="-53750"/><use xlink:href="#tkZt3apEhPVfFyzBXC6t_pad-10" x="60500" y="-53250"/><use xlink:href="#tkZt3apEhPVfFyzBXC6t_pad-10" x="60500" y="-52750"/><use xlink:href="#tkZt3apEhPVfFyzBXC6t_pad-10" x="60500" y="-52250"/><use xlink:href="#tkZt3apEhPVfFyzBXC6t_pad-10" x="60500" y="-51750"/><use xlink:href="#tkZt3apEhPVfFyzBXC6t_pad-10" x="60500" y="-51250"/><use xlink:href="#tkZt3apEhPVfFyzBXC6t_pad-10" x="60500" y="-50750"/><use xlink:href="#tkZt3apEhPVfFyzBXC6t_pad-10" x="60500" y="-50250"/><use xlink:href="#tkZt3apEhPVfFyzBXC6t_pad-10" x="60500" y="-49750"/><use xlink:href="#tkZt3apEhPVfFyzBXC6t_pad-10" x="60500" y="-49250"/><use xlink:href="#tkZt3apEhPVfFyzBXC6t_pad-10" x="60500" y="-48750"/><use xlink:href="#tkZt3apEhPVfFyzBXC6t_pad-10" x="60500" y="-48250"/><use xlink:href="#tkZt3apEhPVfFyzBXC6t_pad-10" x="60500" y="-47750"/><use xlink:href="#tkZt3apEhPVfFyzBXC6t_pad-10" x="60500" y="-47250"/><use xlink:href="#tkZt3apEhPVfFyzBXC6t_pad-10" x="60500" y="-46750"/><use xlink:href="#tkZt3apEhPVfFyzBXC6t_pad-10" x="60500" y="-46250"/><use xlink:href="#tkZt3apEhPVfFyzBXC6t_pad-10" x="60500" y="-45750"/><use xlink:href="#tkZt3apEhPVfFyzBXC6t_pad-10" x="60500" y="-45250"/><use xlink:href="#tkZt3apEhPVfFyzBXC6t_pad-10" x="60500" y="-44750"/><use xlink:href="#tkZt3apEhPVfFyzBXC6t_pad-10" x="60500" y="-44250"/><use xlink:href="#tkZt3apEhPVfFyzBXC6t_pad-10" x="60500" y="-43750"/><use xlink:href="#tkZt3apEhPVfFyzBXC6t_pad-10" x="60500" y="-43250"/><use xlink:href="#tkZt3apEhPVfFyzBXC6t_pad-10" x="60500" y="-42750"/><use xlink:href="#tkZt3apEhPVfFyzBXC6t_pad-10" x="60500" y="-42250"/></g><clipPath id="soUcldjy07tQj7Mv6Etp_top_outline"><path d="M 77000 -54050 A 200 200 0 0 0 76800 -54250 L 59200 -54250 A 200 200 0 0 0 59000 -54050 L 59000 -41950 A 200 200 0 0 0 59200 -41750 L 76800 -41750 A 200 200 0 0 0 77000 -41950 L 77000 -54050" fill="none" stroke-width="100"/></clipPath><mask id="soUcldjy07tQj7Mv6Etp_top_mech-mask"><g fill="#000" stroke="#000"><rect x="59000" y="-54250" width="18000" height="12500" fill="#fff"/></g></mask><mask id="soUcldjy07tQj7Mv6Etp_top_cf-mask"><g fill="#fff" stroke="#fff"><use xlink:href="#soUcldjy07tQj7Mv6Etp_top_soldermask"/></g></mask><mask id="soUcldjy07tQj7Mv6Etp_top_sm-mask"><g fill="#000" stroke="#000"><rect x="59000" y="-54250" width="18000" height="12500" fill="#fff"/><use xlink:href="#soUcldjy07tQj7Mv6Etp_top_soldermask"/></g></mask></defs><g transform="translate(0,-96000) scale(1,-1)"><g mask="url(#soUcldjy07tQj7Mv6Etp_top_mech-mask)" clip-path="url(#soUcldjy07tQj7Mv6Etp_top_outline)"><rect x="59000" y="-54250" width="18000" height="12500" fill="currentColor" class="soUcldjy07tQj7Mv6Etp_fr4"/><use xlink:href="#soUcldjy07tQj7Mv6Etp_top_copper" fill="currentColor" stroke="currentColor" class="soUcldjy07tQj7Mv6Etp_cu"/><use xlink:href="#soUcldjy07tQj7Mv6Etp_top_copper" fill="currentColor" stroke="currentColor" class="soUcldjy07tQj7Mv6Etp_cf" mask="url(#soUcldjy07tQj7Mv6Etp_top_cf-mask)"/><g mask="url(#soUcldjy07tQj7Mv6Etp_top_sm-mask)"><rect x="59000" y="-54250" width="18000" height="12500" fill="currentColor" class="soUcldjy07tQj7Mv6Etp_sm"/></g></g></g></svg>