<?xml version="1.0" encoding="UTF-8"?>
<svg id="_0" data-name="0" xmlns="http://www.w3.org/2000/svg" viewBox="0 0 212 266.02">
  <rect width="50" height="50" rx="2.83" ry="2.83" style="fill: #272729; stroke-width: 0px;"/>
  <rect x="54" width="50" height="50" rx="2.83" ry="2.83" style="fill: #272729; stroke-width: 0px;"/>
  <rect x="108" width="50" height="50" rx="2.83" ry="2.83" style="fill: #272729; stroke-width: 0px;"/>
  <rect x="162" width="50" height="50" rx="2.83" ry="2.83" style="fill: #272729; stroke-width: 0px;"/>
  <rect y="54" width="50" height="50" rx="2.83" ry="2.83" style="fill: #272729; stroke-width: 0px;"/>
  <rect x="54" y="54" width="50" height="50" rx="2.83" ry="2.83" style="fill: #272729; stroke-width: 0px;"/>
  <rect x="108" y="54" width="50" height="50" rx="2.83" ry="2.83" style="fill: #272729; stroke-width: 0px;"/>
  <rect y="108" width="50" height="50" rx="2.83" ry="2.83" style="fill: #272729; stroke-width: 0px;"/>
  <rect x="54" y="108" width="50" height="50" rx="2.83" ry="2.83" style="fill: #272729; stroke-width: 0px;"/>
  <rect x="108" y="108" width="50" height="50" rx="2.83" ry="2.83" style="fill: #272729; stroke-width: 0px;"/>
  <rect y="162.02" width="50" height="50" rx="2.83" ry="2.83" style="fill: #272729; stroke-width: 0px;"/>
  <rect x="54" y="162.02" width="50" height="50" rx="2.83" ry="2.83" style="fill: #272729; stroke-width: 0px;"/>
  <rect x="108" y="162.02" width="50" height="50" rx="2.83" ry="2.83" style="fill: #272729; stroke-width: 0px;"/>
  <rect x="108" y="216" width="50" height="50" rx="2.83" ry="2.83" style="fill: #272729; stroke-width: 0px;"/>
  <rect x="162" y="54" width="50" height="104" rx="2.83" ry="2.83" style="fill: #272729; stroke-width: 0px;"/>
  <rect x="162" y="162.02" width="50" height="104" rx="2.83" ry="2.83" style="fill: #272729; stroke-width: 0px;"/>
  <rect y="216" width="104" height="50" rx="2.83" ry="2.83" style="fill: #272729; stroke-width: 0px;"/>
  <text transform="translate(12.44 22.68)" style="fill: #e3e3e3; font-family: HelveticaNeue, &apos;Helvetica Neue&apos;; font-size: 12px; letter-spacing: .05em;"><tspan x="0" y="0">num</tspan><tspan x=".38" y="14.4">lock</tspan></text>
  <text transform="translate(21.5 84.46)" style="fill: #e3e3e3; font-family: HelveticaNeue, &apos;Helvetica Neue&apos;; font-size: 12px; letter-spacing: .05em;"><tspan x="0" y="0">7</tspan></text>
  <text transform="translate(75.5 84.46)" style="fill: #e3e3e3; font-family: HelveticaNeue, &apos;Helvetica Neue&apos;; font-size: 12px; letter-spacing: .05em;"><tspan x="0" y="0">8</tspan></text>
  <text transform="translate(129.5 84.46)" style="fill: #e3e3e3; font-family: HelveticaNeue, &apos;Helvetica Neue&apos;; font-size: 12px; letter-spacing: .05em;"><tspan x="0" y="0">9</tspan></text>
  <text transform="translate(21.5 138.46)" style="fill: #e3e3e3; font-family: HelveticaNeue, &apos;Helvetica Neue&apos;; font-size: 12px; letter-spacing: .05em;"><tspan x="0" y="0">4</tspan></text>
  <text transform="translate(75.5 138.46)" style="fill: #e3e3e3; font-family: HelveticaNeue, &apos;Helvetica Neue&apos;; font-size: 12px; letter-spacing: .05em;"><tspan x="0" y="0">5</tspan></text>
  <text transform="translate(129.5 138.46)" style="fill: #e3e3e3; font-family: HelveticaNeue, &apos;Helvetica Neue&apos;; font-size: 12px; letter-spacing: .05em;"><tspan x="0" y="0">6</tspan></text>
  <text transform="translate(21.5 191.7)" style="fill: #e3e3e3; font-family: HelveticaNeue, &apos;Helvetica Neue&apos;; font-size: 12px; letter-spacing: .05em;"><tspan x="0" y="0">1</tspan></text>
  <text transform="translate(48.66 245.6)" style="fill: #e3e3e3; font-family: HelveticaNeue, &apos;Helvetica Neue&apos;; font-size: 12px; letter-spacing: .05em;"><tspan x="0" y="0">0</tspan></text>
  <text transform="translate(131.33 245.6)" style="fill: #e3e3e3; font-family: HelveticaNeue, &apos;Helvetica Neue&apos;; font-size: 12px; letter-spacing: .05em;"><tspan x="0" y="0">.</tspan></text>
  <text transform="translate(75.5 191.7)" style="fill: #e3e3e3; font-family: HelveticaNeue, &apos;Helvetica Neue&apos;; font-size: 12px; letter-spacing: .05em;"><tspan x="0" y="0">2</tspan></text>
  <text transform="translate(129.5 191.7)" style="fill: #e3e3e3; font-family: HelveticaNeue, &apos;Helvetica Neue&apos;; font-size: 12px; letter-spacing: .05em;"><tspan x="0" y="0">3</tspan></text>
  <text transform="translate(183.23 108.06)" style="fill: #e3e3e3; font-family: HelveticaNeue, &apos;Helvetica Neue&apos;; font-size: 12px; letter-spacing: .05em;"><tspan x="0" y="0">+</tspan></text>
  <text transform="translate(171.97 216)" style="fill: #e3e3e3; font-family: HelveticaNeue, &apos;Helvetica Neue&apos;; font-size: 12px; letter-spacing: .05em;"><tspan x="0" y="0">enter</tspan></text>
  <text transform="translate(76.83 30.73)" style="fill: #e3e3e3; font-family: HelveticaNeue, &apos;Helvetica Neue&apos;; font-size: 12px; letter-spacing: .05em;"><tspan x="0" y="0">/</tspan></text>
  <text transform="translate(130.72 32.86)" style="fill: #e3e3e3; font-family: HelveticaNeue, &apos;Helvetica Neue&apos;; font-size: 12px; letter-spacing: .05em;"><tspan x="0" y="0">*</tspan></text>
  <text transform="translate(184.5 29.04)" style="fill: #e3e3e3; font-family: HelveticaNeue, &apos;Helvetica Neue&apos;; font-size: 12px; letter-spacing: .05em;"><tspan x="0" y="0">-</tspan></text>
</svg>