<?xml version="1.0" encoding="UTF-8"?>
<svg id="_0" data-name="0" xmlns="http://www.w3.org/2000/svg" viewBox="0 0 212 266.02">
  <rect width="50" height="50" rx="2.83" ry="2.83" style="fill: #aa36c6; stroke-width: 0px;"/>
  <rect x="54" width="50" height="50" rx="2.83" ry="2.83" style="fill: #272729; stroke-width: 0px;"/>
  <rect x="108" width="50" height="50" rx="2.83" ry="2.83" style="fill: #272729; stroke-width: 0px;"/>
  <rect x="162" width="50" height="50" rx="2.83" ry="2.83" style="fill: #272729; stroke-width: 0px;"/>
  <rect y="54" width="50" height="50" rx="2.83" ry="2.83" style="fill: #272729; stroke-width: 0px;"/>
  <rect x="54" y="54" width="50" height="50" rx="2.83" ry="2.83" style="fill: #272729; stroke-width: 0px;"/>
  <rect x="108" y="54" width="50" height="50" rx="2.83" ry="2.83" style="fill: #272729; stroke-width: 0px;"/>
  <rect y="108" width="50" height="50" rx="2.83" ry="2.83" style="fill: #272729; stroke-width: 0px;"/>
  <rect x="54" y="108" width="50" height="50" rx="2.83" ry="2.83" style="fill: #272729; stroke-width: 0px;"/>
  <rect x="108" y="108" width="50" height="50" rx="2.83" ry="2.83" style="fill: #272729; stroke-width: 0px;"/>
  <rect y="162.02" width="50" height="50" rx="2.83" ry="2.83" style="fill: #272729; stroke-width: 0px;"/>
  <rect x="54" y="162.02" width="50" height="50" rx="2.83" ry="2.83" style="fill: #272729; stroke-width: 0px;"/>
  <rect x="108" y="162.02" width="50" height="50" rx="2.83" ry="2.83" style="fill: #d38322; stroke-width: 0px;"/>
  <rect x="108" y="216" width="50" height="50" rx="2.83" ry="2.83" style="fill: #272729; stroke-width: 0px;"/>
  <rect x="162" y="54" width="50" height="104" rx="2.83" ry="2.83" style="fill: #272729; stroke-width: 0px;"/>
  <rect x="162" y="162.02" width="50" height="104" rx="2.83" ry="2.83" style="fill: #272729; stroke-width: 0px;"/>
  <rect y="216" width="104" height="50" rx="2.83" ry="2.83" style="fill: #272729; stroke-width: 0px;"/>
  <rect y="162" width="50" height="50" rx="2.83" ry="2.83" style="fill: #d38322; stroke-width: 0px;"/>
  <rect x="54" y="162" width="50" height="50" rx="2.83" ry="2.83" style="fill: #d38322; stroke-width: 0px;"/>
  <text transform="translate(8.21 191.23)" style="fill: #e3e3e3; font-family: HelveticaNeue, &apos;Helvetica Neue&apos;; font-size: 12px;"><tspan x="0" y="0" style="letter-spacing: .05em;">on/o</tspan><tspan x="26.84" y="0" style="letter-spacing: .03em;">f</tspan><tspan x="30.78" y="0" style="letter-spacing: .05em;">f</tspan></text>
  <text transform="translate(62.68 191.23)" style="fill: #e3e3e3; font-family: HelveticaNeue, &apos;Helvetica Neue&apos;; font-size: 12px; letter-spacing: .05em;"><tspan x="0" y="0">mode</tspan></text>
  <text transform="translate(122.85 191.23)" style="fill: #e3e3e3; font-family: HelveticaNeue, &apos;Helvetica Neue&apos;; font-size: 12px; letter-spacing: .05em;"><tspan x="0" y="0">hue</tspan></text>
  <text transform="translate(6.64 28.54)" style="fill: #e3e3e3; font-family: HelveticaNeue, &apos;Helvetica Neue&apos;; font-size: 12px; letter-spacing: .05em;"><tspan x="0" y="0">unpair</tspan></text>
</svg>