<?xml version="1.0" encoding="UTF-8"?>
<svg id="_0" data-name="0" xmlns="http://www.w3.org/2000/svg" viewBox="0 0 1015.35 318.11">
  <defs>
    <style>
      .cls-1 {
        letter-spacing: .05em;
      }

      .cls-1, .cls-2 {
        font-family: HelveticaNeue, 'Helvetica Neue';
        font-size: 12px;
      }

      .cls-1, .cls-2, .cls-3 {
        fill: #e3e3e3;
      }

      .cls-2 {
        letter-spacing: .05em;
      }

      .cls-4 {
        fill: #272729;
      }

      .cls-4, .cls-3 {
        stroke-width: 0px;
      }
    </style>
  </defs>
  <rect class="cls-4" x="326.39" y="22.74" width="50" height="50" rx="2.83" ry="2.83" transform="translate(231.64 381.52) rotate(-78)"/>
  <rect class="cls-4" x="27" y="1.35" width="50" height="50" rx="2.83" ry="2.83"/>
  <rect class="cls-4" x="108" y="1.35" width="50" height="50" rx="2.83" ry="2.83"/>
  <rect class="cls-4" x="162" y="1.35" width="50" height="50" rx="2.83" ry="2.83"/>
  <rect class="cls-4" x="216" y="0" width="50" height="50" rx="2.83" ry="2.83"/>
  <rect class="cls-4" x="273.57" y="11.51" width="50" height="50" rx="2.83" ry="2.83" transform="translate(200.78 320.97) rotate(-78)"/>
  <rect class="cls-4" x="379.21" y="33.96" width="50" height="50" rx="2.83" ry="2.83" transform="translate(262.5 442.08) rotate(-78)"/>
  <rect class="cls-4" x="432.03" y="45.19" width="50" height="50" rx="2.83" ry="2.83" transform="translate(293.35 502.64) rotate(-78)"/>
  <rect class="cls-4" x="13.5" y="55.35" width="50" height="50" rx="2.83" ry="2.83"/>
  <rect class="cls-4" x="175.5" y="55.35" width="50" height="50" rx="2.83" ry="2.83"/>
  <rect class="cls-4" x="234.61" y="58.44" width="50" height="50" rx="2.83" ry="2.83" transform="translate(124.02 320.03) rotate(-78)"/>
  <rect class="cls-4" x="287.43" y="69.66" width="50" height="50" rx="2.83" ry="2.83" transform="translate(154.88 380.59) rotate(-78)"/>
  <rect class="cls-4" x="340.25" y="80.89" width="50" height="50" rx="2.83" ry="2.83" transform="translate(185.74 441.15) rotate(-78)"/>
  <rect class="cls-4" x="393.07" y="92.12" width="50" height="50" rx="2.83" ry="2.83" transform="translate(216.59 501.7) rotate(-78)"/>
  <rect class="cls-4" y="109.35" width="50" height="50" rx="2.83" ry="2.83"/>
  <rect class="cls-4" x="81" y="109.35" width="90.5" height="50" rx="2.83" ry="2.83"/>
  <rect class="cls-4" x="175.5" y="109.35" width="50" height="50" rx="2.83" ry="2.83"/>
  <rect class="cls-4" x="288.09" y="125.01" width="50" height="50" rx="2.83" ry="2.83" transform="translate(101.27 425.07) rotate(-78)"/>
  <rect class="cls-4" x="340.91" y="136.24" width="50" height="50" rx="2.83" ry="2.83" transform="translate(132.12 485.63) rotate(-78)"/>
  <rect class="cls-4" y="163.35" width="50" height="50" rx="2.83" ry="2.83"/>
  <rect class="cls-4" x="67.5" y="163.35" width="117.5" height="50" rx="2.83" ry="2.83"/>
  <rect class="cls-4" x="189.03" y="163.35" width="50" height="50" rx="2.83" ry="2.83"/>
  <rect class="cls-4" x="300.63" y="182.88" width="50" height="50" rx="2.83" ry="2.83" transform="translate(54.59 483.18) rotate(-78)"/>
  <rect class="cls-4" x="353.45" y="194.11" width="50" height="50" rx="2.83" ry="2.83" transform="translate(85.45 543.74) rotate(-78)"/>
  <rect class="cls-4" x="67.5" y="217.35" width="63.5" height="50" rx="2.83" ry="2.83"/>
  <rect class="cls-4" x="135" y="217.35" width="63.5" height="50" rx="2.83" ry="2.83"/>
  <rect class="cls-4" x="296.01" y="230.35" width="50" height="63.5" rx="2.83" ry="2.83" transform="translate(-2.11 521.6) rotate(-78)"/>
  <rect class="cls-4" x="598.28" y="28.57" width="50" height="50" rx="2.83" ry="2.83" transform="translate(2.48 130.76) rotate(-12)"/>
  <rect class="cls-4" x="651.11" y="17.34" width="50" height="50" rx="2.83" ry="2.83" transform="translate(5.97 141.5) rotate(-12)"/>
  <rect class="cls-4" x="703.93" y="6.11" width="50" height="50" rx="2.83" ry="2.83" transform="translate(9.46 152.23) rotate(-12)"/>
  <rect class="cls-4" x="762.85" width="50" height="50" rx="2.83" ry="2.83"/>
  <rect class="cls-4" x="816.85" y="1.35" width="50" height="50" rx="2.83" ry="2.83"/>
  <rect class="cls-4" x="870.85" y="1.35" width="104" height="50" rx="2.83" ry="2.83"/>
  <rect class="cls-4" x="911.35" y="55.35" width="77" height="50" rx="2.83" ry="2.83"/>
  <rect class="cls-4" x="803.35" y="55.35" width="50" height="50" rx="2.83" ry="2.83"/>
  <rect class="cls-4" x="749.35" y="55.35" width="50" height="50" rx="2.83" ry="2.83"/>
  <rect class="cls-4" x="532.4" y="97.78" width="50" height="50" rx="2.83" ry="2.83" transform="translate(-13.35 118.57) rotate(-12)"/>
  <rect class="cls-4" x="585.22" y="86.55" width="50" height="50" rx="2.83" ry="2.83" transform="translate(-9.86 129.31) rotate(-12)"/>
  <rect class="cls-4" x="638.04" y="75.32" width="50" height="50" rx="2.83" ry="2.83" transform="translate(-6.37 140.05) rotate(-12)"/>
  <rect class="cls-4" x="690.86" y="64.1" width="50" height="50" rx="2.83" ry="2.83" transform="translate(-2.88 150.78) rotate(-12)"/>
  <rect class="cls-4" x="558.68" y="147.4" width="50" height="50" rx="2.83" ry="2.83" transform="translate(-23.09 125.12) rotate(-12)"/>
  <rect class="cls-4" x="611.5" y="136.17" width="50" height="50" rx="2.83" ry="2.83" transform="translate(-19.6 135.86) rotate(-12)"/>
  <rect class="cls-4" x="664.32" y="124.94" width="50" height="50" rx="2.83" ry="2.83" transform="translate(-16.11 146.59) rotate(-12)"/>
  <rect class="cls-4" x="776.35" y="109.35" width="50" height="50" rx="2.83" ry="2.83"/>
  <rect class="cls-4" x="830.35" y="109.35" width="50" height="50" rx="2.83" ry="2.83"/>
  <rect class="cls-4" x="884.35" y="109.35" width="117.5" height="50" rx="2.83" ry="2.83"/>
  <rect class="cls-4" x="544.82" y="205.55" width="50" height="50" rx="2.83" ry="2.83" transform="translate(-35.48 123.51) rotate(-12)"/>
  <rect class="cls-4" x="597.64" y="194.32" width="50" height="50" rx="2.83" ry="2.83" transform="translate(-31.99 134.25) rotate(-12)"/>
  <rect class="cls-4" x="650.46" y="183.1" width="50" height="50" rx="2.83" ry="2.83" transform="translate(-28.51 144.98) rotate(-12)"/>
  <rect class="cls-4" x="703.28" y="171.87" width="50" height="50" rx="2.83" ry="2.83" transform="translate(-25.02 155.72) rotate(-12)"/>
  <rect class="cls-4" x="762.85" y="163.35" width="50" height="50" rx="2.83" ry="2.83"/>
  <rect class="cls-4" x="816.85" y="163.35" width="50" height="50" rx="2.83" ry="2.83"/>
  <rect class="cls-4" x="870.85" y="163.35" width="50" height="50" rx="2.83" ry="2.83"/>
  <rect class="cls-4" x="924.85" y="163.35" width="90.5" height="50" rx="2.83" ry="2.83"/>
  <rect class="cls-4" x="528.6" y="254.16" width="144.5" height="50" rx="2.83" ry="2.83" transform="translate(-44.91 131.03) rotate(-12)"/>
  <rect class="cls-4" x="674.74" y="231.71" width="63.5" height="50" rx="2.83" ry="2.83" transform="translate(-37.93 152.5) rotate(-12)"/>
  <rect class="cls-4" x="816.85" y="217.35" width="50" height="50" rx="2.83" ry="2.83"/>
  <rect class="cls-4" x="870.85" y="217.35" width="50" height="50" rx="2.83" ry="2.83"/>
  <rect class="cls-4" x="924.85" y="217.35" width="50" height="50" rx="2.83" ry="2.83"/>
  <rect class="cls-4" x="717.14" y="113.72" width="50" height="50" rx="2.83" ry="2.83" transform="translate(-12.62 157.33) rotate(-12)"/>
  <rect class="cls-4" x="545.47" y="39.79" width="50" height="50" rx="2.83" ry="2.83" transform="translate(-1 120.02) rotate(-12)"/>
  <rect class="cls-4" x="393.73" y="147.46" width="50" height="50" rx="2.83" ry="2.83" transform="translate(162.98 546.19) rotate(-78)"/>
  <rect class="cls-4" x="406.27" y="205.34" width="50" height="50" rx="2.83" ry="2.83" transform="translate(116.3 604.29) rotate(-78)"/>
  <rect class="cls-4" x="388.44" y="223" width="50" height="117.5" rx="2.83" ry="2.83" transform="translate(51.89 627.58) rotate(-78)"/>
  <rect class="cls-4" x="235.27" y="113.78" width="50" height="50" rx="2.83" ry="2.83" transform="translate(70.41 364.51) rotate(-78)"/>
  <rect class="cls-4" x="247.81" y="171.65" width="50" height="50" rx="2.83" ry="2.83" transform="translate(23.74 422.62) rotate(-78)"/>
  <rect class="cls-4" x="857.35" y="55.35" width="50" height="50" rx="2.83" ry="2.83"/>
  <rect class="cls-4" x="94.5" y="55.35" width="77" height="50" rx="2.83" ry="2.83"/>
  <text class="cls-2" transform="translate(41.43 29.76)"><tspan x="0" y="0">esc</tspan></text>
  <text class="cls-2" transform="translate(185.57 21.94)"><tspan x="0" y="0">!</tspan></text>
  <text class="cls-2" transform="translate(183.62 38.96)"><tspan x="0" y="0">1</tspan></text>
  <text class="cls-1" transform="translate(235.34 21.26)"><tspan x="0" y="0">@</tspan></text>
  <text class="cls-2" transform="translate(237.32 38.27)"><tspan x="0" y="0">2</tspan></text>
  <text class="cls-2" transform="translate(295.83 31.76) rotate(12)"><tspan x="0" y="0">#</tspan></text>
  <text class="cls-2" transform="translate(292.5 49.37) rotate(12)"><tspan x="0" y="0">3</tspan></text>
  <text class="cls-2" transform="translate(349.18 42.98) rotate(12)"><tspan x="0" y="0">$</tspan></text>
  <text class="cls-2" transform="translate(344.86 60.59) rotate(12)"><tspan x="0" y="0">4</tspan></text>
  <text class="cls-2" transform="translate(253.66 87.3) rotate(12)"><tspan x="0" y="0">W</tspan></text>
  <text class="cls-2" transform="translate(256.29 143.02) rotate(12)"><tspan x="0" y="0">S</tspan></text>
  <text class="cls-2" transform="translate(268.82 200.84) rotate(12)"><tspan x="0" y="0">X</tspan></text>
  <text class="cls-2" transform="translate(320.19 211.76) rotate(12)"><tspan x="0" y="0">C</tspan></text>
  <text class="cls-2" transform="translate(307.05 264.03) rotate(12)"><tspan x="0" y="0">L alt</tspan></text>
  <text class="cls-2" transform="translate(374.35 223.68) rotate(12)"><tspan x="0" y="0">V</tspan></text>
  <text class="cls-1" transform="translate(427.52 234.65) rotate(12)"><tspan x="0" y="0">B</tspan></text>
  <text class="cls-2" transform="translate(308.11 153.64) rotate(12)"><tspan x="0" y="0">D</tspan></text>
  <text class="cls-2" transform="translate(361.67 165.43) rotate(12)"><tspan x="0" y="0">F</tspan></text>
  <text class="cls-2" transform="translate(413.42 176.65) rotate(12)"><tspan x="0" y="0">G</tspan></text>
  <text class="cls-2" transform="translate(307.47 98.73) rotate(12)"><tspan x="0" y="0">E</tspan></text>
  <text class="cls-1" transform="translate(360.06 109.66) rotate(12)"><tspan x="0" y="0">R</tspan></text>
  <text class="cls-2" transform="translate(414.14 120.89) rotate(12)"><tspan x="0" y="0">T</tspan></text>
  <text class="cls-2" transform="translate(454.46 65.82) rotate(12)"><tspan x="0" y="0">^</tspan></text>
  <text class="cls-2" transform="translate(450.88 83.31) rotate(12)"><tspan x="0" y="0">6</tspan></text>
  <text class="cls-2" transform="translate(399.84 54.49) rotate(12)"><tspan x="0" y="0">%</tspan></text>
  <text class="cls-2" transform="translate(398.28 71.58) rotate(12)"><tspan x="0" y="0">5</tspan></text>
  <text class="cls-1" transform="translate(565.17 60.1) rotate(-12)"><tspan x="0" y="0">&amp;</tspan></text>
  <text class="cls-2" transform="translate(569.78 78.71) rotate(-12)"><tspan x="0" y="0">7</tspan></text>
  <text class="cls-1" transform="translate(620.76 50) rotate(-12)"><tspan x="0" y="0">*</tspan></text>
  <text class="cls-2" transform="translate(623.93 67.7) rotate(-12)"><tspan x="0" y="0">8</tspan></text>
  <text class="cls-2" transform="translate(553.98 129.48) rotate(-12)"><tspan x="0" y="0">Y</tspan></text>
  <text class="cls-2" transform="translate(580.06 177.63) rotate(-12)"><tspan x="0" y="0">H</tspan></text>
  <text class="cls-2" transform="translate(634.67 166.45) rotate(-12)"><tspan x="0" y="0">J</tspan></text>
  <text class="cls-2" transform="translate(686.74 155.33) rotate(-12)"><tspan x="0" y="0">K</tspan></text>
  <text class="cls-2" transform="translate(740.15 143.3) rotate(-12)"><tspan x="0" y="0">L</tspan></text>
  <text class="cls-2" transform="translate(607.38 117.4) rotate(-12)"><tspan x="0" y="0">U</tspan></text>
  <text class="cls-2" transform="translate(662.31 105.38) rotate(-12)"><tspan x="0" y="0">I</tspan></text>
  <text class="cls-1" transform="translate(712.37 94.43) rotate(-12)"><tspan x="0" y="0">O</tspan></text>
  <text class="cls-2" transform="translate(673.1 37.26) rotate(-12)"><tspan x="0" y="0">(</tspan></text>
  <text class="cls-2" transform="translate(676.62 56.26) rotate(-12)"><tspan x="0" y="0">9</tspan></text>
  <text class="cls-2" transform="translate(727.49 25.03) rotate(-12)"><tspan x="0" y="0">)</tspan></text>
  <text class="cls-2" transform="translate(729.65 45.25) rotate(-12)"><tspan x="0" y="0">0</tspan></text>
  <text class="cls-2" transform="translate(784.87 18.99)"><tspan x="0" y="0">_</tspan></text>
  <text class="cls-2" transform="translate(785.73 38.58)"><tspan x="0" y="0">-</tspan></text>
  <text class="cls-2" transform="translate(129.55 22.72)"><tspan x="0" y="0">~</tspan></text>
  <text class="cls-2" transform="translate(13.03 192.52)"><tspan x="0" y="0">end</tspan></text>
  <text class="cls-2" transform="translate(124.26 84.83)"><tspan x="0" y="0">tab</tspan></text>
  <text class="cls-1" transform="translate(195.32 84.83)"><tspan x="0" y="0">Q</tspan></text>
  <text class="cls-2" transform="translate(99.25 137.41)"><tspan x="0" y="0">caps lock</tspan></text>
  <text class="cls-2" transform="translate(196.38 137.41)"><tspan x="0" y="0">A</tspan></text>
  <text class="cls-2" transform="translate(106.77 192.52)"><tspan x="0" y="0">L shift</tspan></text>
  <text class="cls-2" transform="translate(209.9 192.52)"><tspan x="0" y="0">Z</tspan></text>
  <text class="cls-2" transform="translate(83.93 247.25)"><tspan x="0" y="0">L ctrl</tspan></text>
  <text class="cls-2" transform="translate(151.01 247.38)"><tspan x="0" y="0">L win</tspan></text>
  <text class="cls-2" transform="translate(23.67 84.83)"><tspan x="0" y="0">pgup</tspan></text>
  <text class="cls-2" transform="translate(10.09 137.86)"><tspan x="0" y="0">pgdn</tspan></text>
  <circle class="cls-3" cx="133" cy="33.67" r="1.12"/>
  <text class="cls-1" transform="translate(566.71 236.25) rotate(-12)"><tspan x="0" y="0">B</tspan></text>
  <text class="cls-2" transform="translate(620.25 224.97) rotate(-12)"><tspan x="0" y="0">N</tspan></text>
  <text class="cls-2" transform="translate(671.69 214.04) rotate(-12)"><tspan x="0" y="0">M</tspan></text>
  <text class="cls-2" transform="translate(702.48 262.49) rotate(-12)"><tspan x="0" y="0">fn</tspan></text>
  <text class="cls-2" transform="translate(728.28 206.93) rotate(-12)"><tspan x="0" y="0">,</tspan></text>
  <text class="cls-2" transform="translate(722.96 193.12) rotate(-12)"><tspan x="0" y="0">&lt;</tspan></text>
  <text class="cls-2" transform="translate(838.32 21.06)"><tspan x="0" y="0">+</tspan></text>
  <text class="cls-2" transform="translate(838.46 38.97)"><tspan x="0" y="0">=</tspan></text>
  <text class="cls-1" transform="translate(825.63 73.59)"><tspan x="0" y="0">{</tspan></text>
  <text class="cls-2" transform="translate(826.35 93.78)"><tspan x="0" y="0">[</tspan></text>
  <text class="cls-2" transform="translate(799.81 127.02)"><tspan x="0" y="0">:</tspan></text>
  <text class="cls-2" transform="translate(799.72 147.5)"><tspan x="0" y="0">;</tspan></text>
  <text class="cls-2" transform="translate(785.73 184.75)"><tspan x="0" y="0">&gt;</tspan></text>
  <text class="cls-2" transform="translate(785.73 200.19)"><tspan x="0" y="0">.</tspan></text>
  <text class="cls-2" transform="translate(839.12 184.84)"><tspan x="0" y="0">?</tspan></text>
  <text class="cls-1" transform="translate(840.38 202.11)"><tspan x="0" y="0">/</tspan></text>
  <text class="cls-2" transform="translate(853.35 130.15)"><tspan x="0" y="0">”</tspan></text>
  <text class="cls-2" transform="translate(854.15 147.5)"><tspan x="0" y="0">’</tspan></text>
  <text class="cls-1" transform="translate(881.35 73.59)"><tspan x="0" y="0">}</tspan></text>
  <text class="cls-2" transform="translate(881.36 93.78)"><tspan x="0" y="0">]</tspan></text>
  <text class="cls-2" transform="translate(948.21 74.73)"><tspan x="0" y="0">|</tspan></text>
  <text class="cls-1" transform="translate(948.21 94.92)"><tspan x="0" y="0">\</tspan></text>
  <text class="cls-2" transform="translate(771.27 85.49)"><tspan x="0" y="0">P</tspan></text>
  <text class="cls-2" transform="translate(890.84 31.11)"><tspan x="0" y="0">backspace</tspan></text>
  <text class="cls-2" transform="translate(928.05 138.94)"><tspan x="0" y="0">enter</tspan></text>
  <text class="cls-1" transform="translate(949.85 193.09)"><tspan x="0" y="0">R shift</tspan></text>
  <path class="cls-3" d="M897.95,191.94h-4.19c-.32,0-.53-.32-.42-.61l2.1-5.32c.15-.38.68-.38.83,0l2.1,5.32c.12.29-.1.61-.42.61Z"/>
  <path class="cls-3" d="M845.45,240.26v4.19c0,.32-.32.53-.61.42l-5.32-2.1c-.38-.15-.38-.68,0-.83l5.32-2.1c.29-.12.61.1.61.42Z"/>
  <path class="cls-3" d="M946.26,244.45v-4.19c0-.32.32-.53.61-.42l5.32,2.1c.38.15.38.68,0,.83l-5.32,2.1c-.29.12-.61-.1-.61-.42Z"/>
  <path class="cls-3" d="M893.76,238.76h4.19c.32,0,.53.32.42.61l-2.1,5.32c-.15.38-.68.38-.83,0l-2.1-5.32c-.12-.29.1-.61.42-.61Z"/>
</svg>