<?xml version="1.0" encoding="UTF-8"?>
<svg id="_0" data-name="0" xmlns="http://www.w3.org/2000/svg" viewBox="0 0 1015.35 318.11">
  <rect x="326.39" y="22.74" width="50" height="50" rx="2.83" ry="2.83" transform="translate(231.64 381.52) rotate(-78)" style="fill: #272729; stroke-width: 0px;"/>
  <rect x="27" y="1.35" width="50" height="50" rx="2.83" ry="2.83" style="fill: #272729; stroke-width: 0px;"/>
  <rect x="108" y="1.35" width="50" height="50" rx="2.83" ry="2.83" style="fill: #272729; stroke-width: 0px;"/>
  <rect x="162" y="1.35" width="50" height="50" rx="2.83" ry="2.83" style="fill: #2f48c1; stroke-width: 0px;"/>
  <rect x="216" y="0" width="50" height="50" rx="2.83" ry="2.83" style="fill: #2f48c1; stroke-width: 0px;"/>
  <rect x="273.57" y="11.51" width="50" height="50" rx="2.83" ry="2.83" transform="translate(200.78 320.97) rotate(-78)" style="fill: #272729; stroke-width: 0px;"/>
  <rect x="379.21" y="33.96" width="50" height="50" rx="2.83" ry="2.83" transform="translate(262.5 442.08) rotate(-78)" style="fill: #272729; stroke-width: 0px;"/>
  <rect x="432.03" y="45.19" width="50" height="50" rx="2.83" ry="2.83" transform="translate(293.35 502.64) rotate(-78)" style="fill: #272729; stroke-width: 0px;"/>
  <rect x="13.5" y="55.35" width="50" height="50" rx="2.83" ry="2.83" style="fill: #272729; stroke-width: 0px;"/>
  <rect x="175.5" y="55.35" width="50" height="50" rx="2.83" ry="2.83" style="fill: #272729; stroke-width: 0px;"/>
  <rect x="234.61" y="58.44" width="50" height="50" rx="2.83" ry="2.83" transform="translate(124.02 320.03) rotate(-78)" style="fill: #272729; stroke-width: 0px;"/>
  <rect x="287.43" y="69.66" width="50" height="50" rx="2.83" ry="2.83" transform="translate(154.88 380.59) rotate(-78)" style="fill: #272729; stroke-width: 0px;"/>
  <rect x="340.25" y="80.89" width="50" height="50" rx="2.83" ry="2.83" transform="translate(185.74 441.15) rotate(-78)" style="fill: #272729; stroke-width: 0px;"/>
  <rect x="393.07" y="92.12" width="50" height="50" rx="2.83" ry="2.83" transform="translate(216.59 501.7) rotate(-78)" style="fill: #272729; stroke-width: 0px;"/>
  <rect y="109.35" width="50" height="50" rx="2.83" ry="2.83" style="fill: #272729; stroke-width: 0px;"/>
  <rect x="81" y="109.35" width="90.5" height="50" rx="2.83" ry="2.83" style="fill: #272729; stroke-width: 0px;"/>
  <rect x="175.5" y="109.35" width="50" height="50" rx="2.83" ry="2.83" style="fill: #272729; stroke-width: 0px;"/>
  <rect x="288.09" y="125.01" width="50" height="50" rx="2.83" ry="2.83" transform="translate(101.27 425.07) rotate(-78)" style="fill: #272729; stroke-width: 0px;"/>
  <rect x="340.91" y="136.24" width="50" height="50" rx="2.83" ry="2.83" transform="translate(132.12 485.63) rotate(-78)" style="fill: #272729; stroke-width: 0px;"/>
  <rect y="163.35" width="50" height="50" rx="2.83" ry="2.83" style="fill: #272729; stroke-width: 0px;"/>
  <rect x="67.5" y="163.35" width="117.5" height="50" rx="2.83" ry="2.83" style="fill: #272729; stroke-width: 0px;"/>
  <rect x="189.03" y="163.35" width="50" height="50" rx="2.83" ry="2.83" style="fill: #272729; stroke-width: 0px;"/>
  <rect x="300.63" y="182.88" width="50" height="50" rx="2.83" ry="2.83" transform="translate(54.59 483.18) rotate(-78)" style="fill: #272729; stroke-width: 0px;"/>
  <rect x="353.45" y="194.11" width="50" height="50" rx="2.83" ry="2.83" transform="translate(85.45 543.74) rotate(-78)" style="fill: #686868; stroke-width: 0px;"/>
  <rect x="67.5" y="217.35" width="63.5" height="50" rx="2.83" ry="2.83" style="fill: #272729; stroke-width: 0px;"/>
  <rect x="135" y="217.35" width="63.5" height="50" rx="2.83" ry="2.83" style="fill: #272729; stroke-width: 0px;"/>
  <rect x="296.01" y="230.35" width="50" height="63.5" rx="2.83" ry="2.83" transform="translate(-2.11 521.6) rotate(-78)" style="fill: #272729; stroke-width: 0px;"/>
  <rect x="598.28" y="28.57" width="50" height="50" rx="2.83" ry="2.83" transform="translate(2.48 130.76) rotate(-12)" style="fill: #272729; stroke-width: 0px;"/>
  <rect x="651.11" y="17.34" width="50" height="50" rx="2.83" ry="2.83" transform="translate(5.97 141.5) rotate(-12)" style="fill: #272729; stroke-width: 0px;"/>
  <rect x="703.93" y="6.11" width="50" height="50" rx="2.83" ry="2.83" transform="translate(9.46 152.23) rotate(-12)" style="fill: #272729; stroke-width: 0px;"/>
  <rect x="762.85" width="50" height="50" rx="2.83" ry="2.83" style="fill: #272729; stroke-width: 0px;"/>
  <rect x="816.85" y="1.35" width="50" height="50" rx="2.83" ry="2.83" style="fill: #272729; stroke-width: 0px;"/>
  <rect x="870.85" y="1.35" width="104" height="50" rx="2.83" ry="2.83" style="fill: #272729; stroke-width: 0px;"/>
  <rect x="911.35" y="55.35" width="77" height="50" rx="2.83" ry="2.83" style="fill: #272729; stroke-width: 0px;"/>
  <rect x="803.35" y="55.35" width="50" height="50" rx="2.83" ry="2.83" style="fill: #272729; stroke-width: 0px;"/>
  <rect x="749.35" y="55.35" width="50" height="50" rx="2.83" ry="2.83" style="fill: #272729; stroke-width: 0px;"/>
  <rect x="532.4" y="97.78" width="50" height="50" rx="2.83" ry="2.83" transform="translate(-13.35 118.57) rotate(-12)" style="fill: #272729; stroke-width: 0px;"/>
  <rect x="585.22" y="86.55" width="50" height="50" rx="2.83" ry="2.83" transform="translate(-9.86 129.31) rotate(-12)" style="fill: #272729; stroke-width: 0px;"/>
  <rect x="638.04" y="75.32" width="50" height="50" rx="2.83" ry="2.83" transform="translate(-6.37 140.05) rotate(-12)" style="fill: #272729; stroke-width: 0px;"/>
  <rect x="690.86" y="64.1" width="50" height="50" rx="2.83" ry="2.83" transform="translate(-2.88 150.78) rotate(-12)" style="fill: #272729; stroke-width: 0px;"/>
  <rect x="558.68" y="147.4" width="50" height="50" rx="2.83" ry="2.83" transform="translate(-23.09 125.12) rotate(-12)" style="fill: #272729; stroke-width: 0px;"/>
  <rect x="611.5" y="136.17" width="50" height="50" rx="2.83" ry="2.83" transform="translate(-19.6 135.86) rotate(-12)" style="fill: #272729; stroke-width: 0px;"/>
  <rect x="664.32" y="124.94" width="50" height="50" rx="2.83" ry="2.83" transform="translate(-16.11 146.59) rotate(-12)" style="fill: #272729; stroke-width: 0px;"/>
  <rect x="776.35" y="109.35" width="50" height="50" rx="2.83" ry="2.83" style="fill: #272729; stroke-width: 0px;"/>
  <rect x="830.35" y="109.35" width="50" height="50" rx="2.83" ry="2.83" style="fill: #272729; stroke-width: 0px;"/>
  <rect x="884.35" y="109.35" width="117.5" height="50" rx="2.83" ry="2.83" style="fill: #272729; stroke-width: 0px;"/>
  <rect x="544.82" y="205.55" width="50" height="50" rx="2.83" ry="2.83" transform="translate(-35.48 123.51) rotate(-12)" style="fill: #43b723; stroke-width: 0px;"/>
  <rect x="597.64" y="194.32" width="50" height="50" rx="2.83" ry="2.83" transform="translate(-31.99 134.25) rotate(-12)" style="fill: #272729; stroke-width: 0px;"/>
  <rect x="650.46" y="183.1" width="50" height="50" rx="2.83" ry="2.83" transform="translate(-28.51 144.98) rotate(-12)" style="fill: #272729; stroke-width: 0px;"/>
  <rect x="703.28" y="171.87" width="50" height="50" rx="2.83" ry="2.83" transform="translate(-25.02 155.72) rotate(-12)" style="fill: #272729; stroke-width: 0px;"/>
  <rect x="762.85" y="163.35" width="50" height="50" rx="2.83" ry="2.83" style="fill: #272729; stroke-width: 0px;"/>
  <rect x="816.85" y="163.35" width="50" height="50" rx="2.83" ry="2.83" style="fill: #272729; stroke-width: 0px;"/>
  <rect x="870.85" y="163.35" width="50" height="50" rx="2.83" ry="2.83" style="fill: #272729; stroke-width: 0px;"/>
  <rect x="924.85" y="163.35" width="90.5" height="50" rx="2.83" ry="2.83" style="fill: #272729; stroke-width: 0px;"/>
  <rect x="528.6" y="254.16" width="144.5" height="50" rx="2.83" ry="2.83" transform="translate(-44.91 131.03) rotate(-12)" style="fill: #272729; stroke-width: 0px;"/>
  <rect x="674.74" y="231.71" width="63.5" height="50" rx="2.83" ry="2.83" transform="translate(-37.93 152.5) rotate(-12)" style="fill: #272729; stroke-width: 0px;"/>
  <rect x="816.85" y="217.35" width="50" height="50" rx="2.83" ry="2.83" style="fill: #272729; stroke-width: 0px;"/>
  <rect x="870.85" y="217.35" width="50" height="50" rx="2.83" ry="2.83" style="fill: #272729; stroke-width: 0px;"/>
  <rect x="924.85" y="217.35" width="50" height="50" rx="2.83" ry="2.83" style="fill: #272729; stroke-width: 0px;"/>
  <rect x="717.14" y="113.72" width="50" height="50" rx="2.83" ry="2.83" transform="translate(-12.62 157.33) rotate(-12)" style="fill: #272729; stroke-width: 0px;"/>
  <rect x="545.47" y="39.79" width="50" height="50" rx="2.83" ry="2.83" transform="translate(-1 120.02) rotate(-12)" style="fill: #272729; stroke-width: 0px;"/>
  <rect x="393.73" y="147.46" width="50" height="50" rx="2.83" ry="2.83" transform="translate(162.98 546.19) rotate(-78)" style="fill: #272729; stroke-width: 0px;"/>
  <rect x="406.27" y="205.34" width="50" height="50" rx="2.83" ry="2.83" transform="translate(116.3 604.29) rotate(-78)" style="fill: #43b723; stroke-width: 0px;"/>
  <rect x="388.44" y="223" width="50" height="117.5" rx="2.83" ry="2.83" transform="translate(51.89 627.58) rotate(-78)" style="fill: #272729; stroke-width: 0px;"/>
  <rect x="235.27" y="113.78" width="50" height="50" rx="2.83" ry="2.83" transform="translate(70.41 364.51) rotate(-78)" style="fill: #272729; stroke-width: 0px;"/>
  <rect x="247.81" y="171.65" width="50" height="50" rx="2.83" ry="2.83" transform="translate(23.74 422.62) rotate(-78)" style="fill: #272729; stroke-width: 0px;"/>
  <rect x="857.35" y="55.35" width="50" height="50" rx="2.83" ry="2.83" style="fill: #272729; stroke-width: 0px;"/>
  <rect x="94.5" y="55.35" width="77" height="50" rx="2.83" ry="2.83" style="fill: #272729; stroke-width: 0px;"/>
  <rect x="432.03" y="45.19" width="50" height="50" rx="2.83" ry="2.83" transform="translate(293.35 502.64) rotate(-78)" style="fill: #272729; stroke-width: 0px;"/>
  <rect x="175.5" y="55.35" width="50" height="50" rx="2.83" ry="2.83" style="fill: #d38322; stroke-width: 0px;"/>
  <rect x="234.61" y="58.44" width="50" height="50" rx="2.83" ry="2.83" transform="translate(124.02 320.03) rotate(-78)" style="fill: #d38322; stroke-width: 0px;"/>
  <rect x="287.43" y="69.66" width="50" height="50" rx="2.83" ry="2.83" transform="translate(154.88 380.59) rotate(-78)" style="fill: #d38322; stroke-width: 0px;"/>
  <rect x="340.25" y="80.89" width="50" height="50" rx="2.83" ry="2.83" transform="translate(185.74 441.15) rotate(-78)" style="fill: #d38322; stroke-width: 0px;"/>
  <rect x="393.07" y="92.12" width="50" height="50" rx="2.83" ry="2.83" transform="translate(216.59 501.7) rotate(-78)" style="fill: #d38322; stroke-width: 0px;"/>
  <text transform="translate(183.71 84.58)" style="fill: #e3e3e3; font-family: HelveticaNeue, &apos;Helvetica Neue&apos;; font-size: 12px;"><tspan x="0" y="0" style="letter-spacing: .05em;">on/o</tspan><tspan x="26.84" y="0" style="letter-spacing: .03em;">f</tspan><tspan x="30.78" y="0" style="letter-spacing: .05em;">f</tspan></text>
  <text transform="translate(242.65 84.41) rotate(12)" style="fill: #e3e3e3; font-family: HelveticaNeue, &apos;Helvetica Neue&apos;; font-size: 12px; letter-spacing: .05em;"><tspan x="0" y="0">mode</tspan></text>
  <text transform="translate(301.5 96.87) rotate(12)" style="fill: #e3e3e3; font-family: HelveticaNeue, &apos;Helvetica Neue&apos;; font-size: 12px; letter-spacing: .05em;"><tspan x="0" y="0">hue</tspan></text>
  <text transform="translate(355.29 108.3) rotate(12)" style="fill: #e3e3e3; font-family: HelveticaNeue, &apos;Helvetica Neue&apos;; font-size: 12px; letter-spacing: .05em;"><tspan x="0" y="0">sat</tspan></text>
  <text transform="translate(402.06 118.24) rotate(12)" style="fill: #e3e3e3; font-family: HelveticaNeue, &apos;Helvetica Neue&apos;; font-size: 12px; letter-spacing: .05em;"><tspan x="0" y="0">value</tspan></text>
  <rect x="247.81" y="171.65" width="50" height="50" rx="2.83" ry="2.83" transform="translate(23.74 422.62) rotate(-78)" style="fill: #aa36c6; stroke-width: 0px;"/>
  <text transform="translate(254.92 196.66) rotate(12)" style="fill: #e3e3e3; font-family: HelveticaNeue, &apos;Helvetica Neue&apos;; font-size: 12px; letter-spacing: .05em;"><tspan x="0" y="0">unpair</tspan></text>
  <text transform="translate(368.15 221.37) rotate(12)" style="fill: #e3e3e3; font-family: HelveticaNeue, &apos;Helvetica Neue&apos;; font-size: 12px; letter-spacing: .05em;"><tspan x="0" y="0">ver</tspan></text>
  <text transform="translate(412.24 223.8) rotate(12)" style="fill: #e3e3e3; font-family: HelveticaNeue, &apos;Helvetica Neue&apos;; font-size: 12px; letter-spacing: .05em;"><tspan x="0" y="0">battery</tspan><tspan x="7.27" y="14.4">level</tspan></text>
  <text transform="translate(549.66 232.4) rotate(-12)" style="fill: #e3e3e3; font-family: HelveticaNeue, &apos;Helvetica Neue&apos;; font-size: 12px; letter-spacing: .05em;"><tspan x="0" y="0">battery</tspan><tspan x="7.27" y="14.4">level</tspan></text>
  <rect x="135" y="217.35" width="63.5" height="50" rx="2.83" ry="2.83" style="fill: #26a38e; stroke-width: 0px;"/>
  <rect x="296.01" y="230.35" width="50" height="63.5" rx="2.83" ry="2.83" transform="translate(-2.11 521.6) rotate(-78)" style="fill: #26a38e; stroke-width: 0px;"/>
  <text transform="translate(298.16 254.71) rotate(12)" style="fill: #e3e3e3; font-family: HelveticaNeue, &apos;Helvetica Neue&apos;; font-size: 12px; letter-spacing: .05em;"><tspan x="0" y="0" xml:space="preserve"> win/alt </tspan><tspan x="8.17" y="14.4">swap</tspan></text>
  <text transform="translate(143.31 246.69)" style="fill: #e3e3e3; font-family: HelveticaNeue, &apos;Helvetica Neue&apos;; font-size: 12px; letter-spacing: .05em;"><tspan x="0" y="0">win lock</tspan></text>
  <rect x="911.35" y="55.35" width="77" height="50" rx="2.83" ry="2.83" style="fill: #c12960; stroke-width: 0px;"/>
  <text transform="translate(936.16 84.05)" style="fill: #e3e3e3; font-family: HelveticaNeue, &apos;Helvetica Neue&apos;; font-size: 12px;"><tspan x="0" y="0" style="letter-spacing: .03em;">r</tspan><tspan x="4.38" y="0" style="letter-spacing: .05em;">eset</tspan></text>
  <rect x="27" y="1.35" width="50" height="50" rx="2.83" ry="2.83" style="fill: #e5451a; stroke-width: 0px;"/>
  <text transform="translate(38.5 31.05)" style="fill: #e3e3e3; font-family: HelveticaNeue, &apos;Helvetica Neue&apos;; font-size: 12px; letter-spacing: .05em;"><tspan x="0" y="0">boot</tspan></text>
  <text transform="translate(170.1 31.05)" style="fill: #e3e3e3; font-family: HelveticaNeue, &apos;Helvetica Neue&apos;; font-size: 12px; letter-spacing: .05em;"><tspan x="0" y="0">F1/ble</tspan></text>
  <text transform="translate(290.64 39.22) rotate(12)" style="fill: #e3e3e3; font-family: HelveticaNeue, &apos;Helvetica Neue&apos;; font-size: 12px; letter-spacing: .05em;"><tspan x="0" y="0">F3</tspan></text>
  <text transform="translate(343.61 50.89) rotate(12)" style="fill: #e3e3e3; font-family: HelveticaNeue, &apos;Helvetica Neue&apos;; font-size: 12px; letter-spacing: .05em;"><tspan x="0" y="0">F4</tspan></text>
  <text transform="translate(396.37 62.43) rotate(12)" style="fill: #e3e3e3; font-family: HelveticaNeue, &apos;Helvetica Neue&apos;; font-size: 12px; letter-spacing: .05em;"><tspan x="0" y="0">F5</tspan></text>
  <text transform="translate(448.73 73.89) rotate(12)" style="fill: #e3e3e3; font-family: HelveticaNeue, &apos;Helvetica Neue&apos;; font-size: 12px; letter-spacing: .05em;"><tspan x="0" y="0">F6</tspan></text>
  <text transform="translate(564.37 71.23) rotate(-12)" style="fill: #e3e3e3; font-family: HelveticaNeue, &apos;Helvetica Neue&apos;; font-size: 12px; letter-spacing: .05em;"><tspan x="0" y="0">F7</tspan></text>
  <text transform="translate(619.05 59.97) rotate(-12)" style="fill: #e3e3e3; font-family: HelveticaNeue, &apos;Helvetica Neue&apos;; font-size: 12px; letter-spacing: .05em;"><tspan x="0" y="0">F8</tspan></text>
  <text transform="translate(670.53 48.47) rotate(-12)" style="fill: #e3e3e3; font-family: HelveticaNeue, &apos;Helvetica Neue&apos;; font-size: 12px; letter-spacing: .05em;"><tspan x="0" y="0">F9</tspan></text>
  <text transform="translate(719.07 37.6) rotate(-12)" style="fill: #e3e3e3; font-family: HelveticaNeue, &apos;Helvetica Neue&apos;; font-size: 12px; letter-spacing: .05em;"><tspan x="0" y="0">F10</tspan></text>
  <text transform="translate(221.54 29.65)" style="fill: #e3e3e3; font-family: HelveticaNeue, &apos;Helvetica Neue&apos;; font-size: 12px; letter-spacing: .05em;"><tspan x="0" y="0">F2/2g4</tspan></text>
</svg>