<?xml version="1.0" encoding="UTF-8"?><svg id="HX7N-g_Pp3NLm0Fyqk0w" xmlns="http://www.w3.org/2000/svg" viewBox="0 0 1013.66 322.81"><defs><style>.cls-1{fill:#add827;}.cls-1,.cls-2,.cls-3,.cls-4,.cls-5,.cls-6,.cls-7{stroke-width:0px;}.cls-2{fill:#3e3e3e;}.cls-3,.cls-6{fill:#1a1a1a;}.cls-4{fill:#db2638;}.cls-5,.cls-6{fill-rule:evenodd;}.cls-5,.cls-7{fill:#adadad;}.cls-8{fill:none;stroke:#add827;stroke-miterlimit:10;}</style></defs><path class="cls-2" d="M555.09,42.75l1.33.71,1.37.57,1.4.43,1.42.3,1.43.16,1.43.03,1.43-.1,1.41-.23,1.38-.36,1.34-.48,1.3-.61,1.24-.73,1.18-.85,1.11-.97,1.02-1.08.93-1.19.69-.81.82-.66.93-.5,1.01-.32L742.93,1.27l1.08-.12,1.07.08,1.04.28.97.48,1.04.59,1.08.5,1.1.42,1.12.33,1.14.24,1.15.16,1.15.07h1.15l1.15-.11,1.14-.18,1.13-.27,1.11-.35,1.08-.44,1.06-.52,1.02-.6.98-.69.48-.32.93-.45.99-.28,1.03-.09h202.74l1.14.12,1.06.33.96.52.84.69.69.84.52.96.33,1.06.12,1.14v10.63l.07,1.3.19,1.27.31,1.22.43,1.17.54,1.12.64,1.05.73.98.82.91.91.82.98.73,1.05.64,1.12.54,1.17.43,1.22.31,1.27.19,1.3.07h18.73l1.14.12,1.06.33.96.52.84.69.69.84.52.96.33,1.06.12,1.14v40.68l-.12,1.14-.33,1.06-.52.96-.69.84-.84.69-.96.52-1.06.33-1.14.12h-1.49l-1.59.08-1.55.24-1.49.38-1.43.52-1.36.66-1.29.78-1.2.9-1.11,1.01-1.01,1.11-.9,1.2-.78,1.29-.66,1.36-.52,1.43-.38,1.49-.24,1.55-.08,1.59.08,1.59.24,1.55.38,1.49.52,1.43.66,1.36.78,1.29.9,1.2,1.01,1.11,1.11,1.01,1.2.9,1.29.78,1.36.66,1.43.52,1.49.38,1.55.24,1.59.08h1.49l1.14.12,1.06.33.96.52.84.69.69.84.52.96.33,1.06.12,1.14v136.52l-.12,1.14-.33,1.06-.52.96-.69.84-.84.69-.96.52-1.06.33-1.14.12h-16.41l-1.15.04-1.14.13-1.11.21-1.09.29-1.06.36-1.03.44-.99.51-.95.58-.91.64-.86.71-.81.77-.76.83-.7.88-.64.94-.57.99-.5,1.04-.18.38-.56.86-.7.74-.82.6-.91.44-.98.28-1.04.1h-170.58l-.42-.02-1.02-.17-.96-.35-.88-.51-.77-.66-.65-.79-.5-.91-.71-1.43-.84-1.32-.95-1.21-1.06-1.1-1.15-.98-1.23-.86-1.3-.74-1.37-.61-1.42-.48-1.46-.34-1.49-.2-1.51-.05-1.52.09-1.52.25-1.51.4-1.49.57-1.21.59-1.14.69-1.07.78-1,.86-.92.94-.84,1.02-.75,1.08-.66,1.15-.56,1.2-.46,1.26-.25.86-.18.58-.52,1.06-.72.92-.9.75-1.04.55-.95.29-219.62,46.68-.46.08-1.02.07-.72-.04-1.05-.19-.99-.33-.92-.47-.83-.59-.74-.7-.63-.8-.51-.89-.38-.97-.24-1.03-.08-1.08v-8.64l-.08-1.54-.22-1.5-.36-1.45-.49-1.39-.62-1.33-.74-1.26-.85-1.18-.95-1.1-1.05-1-1.14-.9-1.22-.8-1.3-.68-1.37-.56-1.43-.43-1.49-.29-1.53-.15-1.04-.13-.99-.27-.92-.4-.85-.52-.99-.87-.82-1.04-.48-.87-.36-.94-.22-1-.08-1.04v-78.77l.04-.72.19-1.05.33-.99.47-.92.59-.83.7-.74.8-.63.89-.51.97-.38,1.03-.24,1.08-.08h24l1.59-.08,1.55-.24,1.49-.38,1.43-.52,1.36-.66,1.29-.78,1.2-.9,1.11-1.01,1.01-1.11.9-1.2.78-1.29.66-1.36.52-1.43.38-1.49.24-1.55.08-1.59-.08-1.59-.24-1.55-.38-1.49-.52-1.43-.66-1.36-.78-1.29-.9-1.2-1.01-1.11-1.11-1.01-1.2-.9-1.29-.78-1.36-.66-1.43-.52-1.49-.38-1.55-.24-1.59-.08h-24l-.72-.04-1.05-.19-.99-.33-.92-.47-.83-.59-.74-.7-.63-.8-.51-.89-.38-.96-.24-1.03-.08-1.08V54.76l.02-.5.24-1.19.47-1.09.69-.96.87-.8,1.03-.61,1.17-.38,33.61-7.14,1.06-.12,1.05.08,1.02.27.96.46M256.07.37l-1.09-.14-1.09.02-1.07.19-1.03.35-.97.51-.31.2-1.04.67-1.08.58-1.11.49-1.14.4-1.16.31-1.17.22-1.18.13-1.19.04-1.19-.05-1.18-.15-1.17-.24-1.15-.33-1.13-.42-1.1-.51-1.07-.6-1.03-.69-.95-.58-1.02-.42-1.08-.26L228.27,0H39.88l-1.12.09-1.08.26-1.03.43-.95.59-.5.4-.46.39-.87.66-.91.6-.96.53-1.04.65-.9.81-.74.94-.57,1.05-.39,1.14-.19,1.21-.02.5v6.04l-.06,1.16-.17,1.13-.28,1.09-.38,1.04-.48.99-.57.93-.65.87-.73.81-.81.73-.87.65-.93.57-.99.48-1.04.38-1.09.28-1.13.17-1.16.06H7.09l-1.08.08-1.03.24-.96.38-.89.51-.8.63-.7.74-.59.83-.47.92-.33.99-.19,1.05-.04.72v40.16l.1,1.16.28,1.11.45,1.04.6.95.74.84.87.72.99.58,1.09.42,1.41.48,1.34.61,1.27.73,1.19.84,1.1.94,1.01,1.04.91,1.13.8,1.22.69,1.3.57,1.37.31.95.37,1.55.21,1.55.05,1.54-.1,1.52-.25,1.49-.39,1.45-.53,1.4-.66,1.34-.78,1.28-.9,1.2-1.02,1.11-1.12,1.01-1.23.9-1.33.79-1.42.66-1.51.52-1.09.42-.99.58-.87.72-.74.84-.6.95-.45,1.04-.28,1.11-.1,1.16v136.01l.12,1.14.33,1.06.52.96.69.84.84.69.96.52,1.06.33,1.14.12h19.21l1.11.04,1.09.12,1.08.19,1.05.27,1.03.34,1,.41.97.47.93.54.89.6.85.66.8.72.75.78.7.83.64.88.59.93.52.98.5.87.78.96.92.8,1.05.63,1.14.44,1.22.24.75.04h155.12l1-.07,1.2-.28,1.13-.48,1.02-.66.9-.83.75-.99.37-.66.38-.72.63-1.04.7-.98.77-.92.84-.85.9-.79.96-.72,1.01-.64,1.06-.56,1.11-.48,1.15-.4,1.55-.38,1.55-.22,1.54-.06,1.52.09,1.49.24,1.46.38,1.41.51,1.35.64,1.28.77,1.21.89,1.12,1.01,1.02,1.12.91,1.22.8,1.32.67,1.41.54,1.5.44,1.11.61,1.01.76.89.9.75,1.01.59,1.11.42.47.12,217.62,46.26,1.07.14,1.05-.02,1.02-.17.98-.32.92-.45.84-.58.75-.69.65-.8.53-.9.4-.98.19-.7.14-1.01.02-.46v-8.29l.08-1.59.24-1.55.38-1.49.52-1.43.66-1.36.78-1.29.9-1.2,1.01-1.11,1.11-1.01,1.2-.9,1.29-.78,1.36-.66,1.43-.52,1.49-.38,1.55-.24,1.59-.08h.37l1.08-.08,1.03-.24.97-.38.89-.51.8-.63.7-.74.59-.83.47-.92.33-.99.19-1.05.04-.72v-78.68l-.08-1.08-.24-1.03-.38-.96-.51-.89-.63-.8-.74-.7-.83-.59-.92-.47-.99-.33-1.05-.19-.72-.04h-23.56l-1.59-.08-1.55-.24-1.49-.38-1.43-.52-1.36-.66-1.29-.78-1.2-.9-1.11-1.01-1.01-1.11-.9-1.2-.78-1.29-.66-1.36-.52-1.43-.38-1.49-.24-1.55-.08-1.59.08-1.59.24-1.55.38-1.49.52-1.43.66-1.36.78-1.29.9-1.2,1.01-1.11,1.11-1.01,1.2-.9,1.29-.78,1.36-.66,1.43-.52,1.49-.38,1.55-.24,1.59-.08h23.56l1.08-.08,1.03-.24.97-.38.89-.51.8-.63.7-.74.59-.83.47-.92.33-.99.19-1.05.04-.72V54.73l-.13-1.22-.38-1.14-.6-1.02-.8-.87-.97-.69-1.12-.48-.48-.12-33.96-7.22-1.11-.15-1.12.03-1.09.21-1.05.38-.58.29-.63.33-.96.45-.99.38-1.01.31-1.02.24-1.04.17-1.05.1-1.05.03-1.05-.04-1.05-.11-1.05-.19-.69-.16-1.02-.3-.99-.37-.96-.43-.93-.5-.89-.56-.85-.62-.81-.67-.76-.73-.71-.78-.66-.83-.74-.85-.86-.71-.96-.57-1.04-.41-.62-.16L256.07.37"/><rect class="cls-7" x="31.52" y="220.44" width="11.99" height="2.41"/><rect class="cls-7" x="31.52" y="233.86" width="11.99" height="2.41"/><rect class="cls-7" x="31.52" y="247.38" width="11.41" height="2.41"/><rect id="rect2619" class="cls-3" x="42.82" y="216.92" width="18.95" height="36.91"/><rect id="rect2624" class="cls-4" x="60.64" y="223.87" width="10.57" height="9.06" rx="1.6" ry="1.6"/><path class="cls-5" d="M58.75,216.26h-9.33c-1.65,0-2.99,1.34-2.99,2.99v32.34c0,1.65,1.34,2.99,2.99,2.99h12.54v-38.32h-3.21Z"/><path id="rect2625" class="cls-6" d="M45.33,233.22h6.32c1.04,0,1.89.85,1.89,1.89h0c0,1.04-.85,1.89-1.89,1.89h-6.32c-1.04,0-1.89-.85-1.89-1.89h0c0-1.04.85-1.89,1.89-1.89Z"/><rect id="rect2630" class="cls-3" x="48.7" y="220.33" width="4.72" height="8.72" rx=".81" ry=".81"/><rect id="rect2631" class="cls-3" x="48.7" y="241.65" width="4.72" height="8.72" rx=".81" ry=".81"/><line class="cls-8" x1="66.32" y1="220.33" x2="66.32" y2="162.49"/><polygon class="cls-1" points="71.88 166.7 66.32 164.34 60.77 166.7 66.32 153.54 71.88 166.7"/></svg>